<svg width="15" height="15" viewBox="0 0 15 15" fill="none" xmlns="http://www.w3.org/2000/svg">
<path fill-rule="evenodd" clip-rule="evenodd" d="M2.83301 2.83329C2.46482 2.83329 2.16634 3.13177 2.16634 3.49996V12.8333C2.16634 13.2015 2.46482 13.5 2.83301 13.5H12.1663C12.5345 13.5 12.833 13.2015 12.833 12.8333V3.49996C12.833 3.13177 12.5345 2.83329 12.1663 2.83329H2.83301ZM0.833008 3.49996C0.833008 2.39539 1.72844 1.49996 2.83301 1.49996H12.1663C13.2709 1.49996 14.1663 2.39539 14.1663 3.49996V12.8333C14.1663 13.9379 13.2709 14.8333 12.1663 14.8333H2.83301C1.72844 14.8333 0.833008 13.9379 0.833008 12.8333V3.49996Z" fill="#448ADD"/>
<path fill-rule="evenodd" clip-rule="evenodd" d="M0.833008 6.16663C0.833008 5.79844 1.13148 5.49996 1.49967 5.49996H13.4997C13.8679 5.49996 14.1663 5.79844 14.1663 6.16663C14.1663 6.53482 13.8679 6.83329 13.4997 6.83329H1.49967C1.13148 6.83329 0.833008 6.53482 0.833008 6.16663Z" fill="#448ADD"/>
<path fill-rule="evenodd" clip-rule="evenodd" d="M10.1663 0.166626C10.5345 0.166626 10.833 0.465103 10.833 0.833293V3.49996C10.833 3.86815 10.5345 4.16663 10.1663 4.16663C9.79815 4.16663 9.49967 3.86815 9.49967 3.49996V0.833293C9.49967 0.465103 9.79815 0.166626 10.1663 0.166626Z" fill="#448ADD"/>
<path fill-rule="evenodd" clip-rule="evenodd" d="M4.83301 0.166626C5.2012 0.166626 5.49967 0.465103 5.49967 0.833293V3.49996C5.49967 3.86815 5.2012 4.16663 4.83301 4.16663C4.46482 4.16663 4.16634 3.86815 4.16634 3.49996V0.833293C4.16634 0.465103 4.46482 0.166626 4.83301 0.166626Z" fill="#448ADD"/>
</svg>
