<svg  width="15" height="20" viewBox="0 1 21 26" fill="none" xmlns="http://www.w3.org/2000/svg">
<path fill-rule="evenodd" clip-rule="evenodd" d="M14.9762 0.912725L20.6274 7.16272C20.8396 7.39197 20.9575 7.69043 20.9583 8.00022V22.3752C20.9533 22.7905 20.8651 23.2008 20.6987 23.5826C20.5322 23.9645 20.2908 24.3103 19.9882 24.6005C19.6857 24.8907 19.3279 25.1195 18.9352 25.2739C18.5426 25.4283 18.1229 25.5052 17.7 25.5002H3.85208C3.4292 25.5052 3.00946 25.4283 2.61684 25.2739C2.22423 25.1195 1.86641 24.8907 1.56384 24.6005C1.26127 24.3103 1.01987 23.9645 0.853421 23.5826C0.686972 23.2008 0.598735 22.7905 0.59375 22.3752V3.62523C0.598735 3.20991 0.686972 2.79963 0.853421 2.41781C1.01987 2.03599 1.26127 1.69011 1.56384 1.39992C1.86641 1.10973 2.22423 0.880916 2.61684 0.726545C3.00946 0.572175 3.4292 0.495271 3.85208 0.500225H14.0344C14.212 0.500637 14.3875 0.537552 14.5498 0.608594C14.712 0.679637 14.8572 0.783234 14.9762 0.912725ZM13.5521 7.65054C13.7212 7.84927 13.9629 7.97485 14.2253 8.00022H18.0818L13.3216 3.00023V6.93773C13.3003 7.19582 13.3831 7.4518 13.5521 7.65054ZM15.9068 11.9069C15.9532 11.9539 15.9872 12.0126 16.0057 12.0773C16.109 12.427 16.1632 12.7904 16.1667 13.1562C16.1667 15.3102 14.4873 17.0625 12.4232 17.0625C12.1813 17.0625 11.9358 17.0328 11.6662 16.9695C11.3286 17.3984 11.0366 17.8047 10.7057 18.2664C10.099 19.125 9.46375 19.9612 8.80098 20.7734C8.55712 21.078 8.25237 21.3233 7.90808 21.492C7.56379 21.6607 7.1883 21.7487 6.80794 21.75C5.36296 21.75 4.1875 20.5234 4.1875 19.0156C4.19013 18.6192 4.274 18.228 4.43348 17.8682C4.59296 17.5085 4.82436 17.1884 5.11214 16.9297C6.10646 16.0536 6.83705 15.4842 7.4815 14.982L7.4945 14.9719C7.94746 14.6188 8.34727 14.307 8.76803 13.9453C8.70814 13.6641 8.67969 13.4086 8.67969 13.1562C8.67969 11.0023 10.359 9.25 12.4232 9.25C12.8021 9.25481 13.178 9.32015 13.538 9.44375C13.5998 9.46402 13.6554 9.50067 13.6996 9.55011C13.7437 9.59955 13.7748 9.66009 13.7898 9.72582C13.8048 9.79155 13.8033 9.86022 13.7852 9.92512C13.7672 9.99002 13.7333 10.0489 13.687 10.0961L11.7067 12.1156L11.9919 13.6055L13.4249 13.9047L15.3835 11.907C15.4295 11.8593 15.4867 11.8251 15.5494 11.8078C15.6121 11.7906 15.6781 11.7908 15.7407 11.8086C15.8032 11.826 15.8604 11.8598 15.9068 11.9069ZM6.80794 19.7969C6.60938 19.7969 6.41894 19.7146 6.27853 19.5681C6.13812 19.4215 6.05924 19.2228 6.05924 19.0156C6.05924 18.8084 6.13812 18.6097 6.27853 18.4632C6.41894 18.3167 6.60938 18.2344 6.80794 18.2344C7.00651 18.2344 7.19694 18.3167 7.33735 18.4632C7.47776 18.6097 7.55664 18.8084 7.55664 19.0156C7.55664 19.2228 7.47776 19.4215 7.33735 19.5681C7.19694 19.7146 7.00651 19.7969 6.80794 19.7969Z" fill="#5F6B73"/>
</svg>
