<svg width="12" height="15" viewBox="0 0 12 15" fill="none" xmlns="http://www.w3.org/2000/svg">
<path d="M5.83333 7.50016C7.67448 7.50016 9.16667 6.00798 9.16667 4.16683C9.16667 2.32568 7.67448 0.833496 5.83333 0.833496C3.99219 0.833496 2.5 2.32568 2.5 4.16683C2.5 6.00798 3.99219 7.50016 5.83333 7.50016ZM8.32812 8.34912L7.08333 13.3335L6.25 9.79183L7.08333 8.3335H4.58333L5.41667 9.79183L4.58333 13.3335L3.33854 8.34912C1.48177 8.43766 0 9.95589 0 11.8335V12.9168C0 13.6069 0.559896 14.1668 1.25 14.1668H10.4167C11.1068 14.1668 11.6667 13.6069 11.6667 12.9168V11.8335C11.6667 9.95589 10.1849 8.43766 8.32812 8.34912Z" fill="#5F6B73"/>
</svg>
