<svg width="21" height="21" viewBox="0 0 21 21" fill="none" xmlns="http://www.w3.org/2000/svg">
<path d="M12.6662 0.886231L12.6654 0.886232C12.6047 0.886245 12.5465 0.910308 12.5036 0.953148C11.9299 1.52716 11.7917 2.23995 11.7915 2.79018C11.7921 2.98743 11.8092 3.18427 11.8426 3.37867L11.8865 3.63386L11.7033 3.81693L7.13292 8.38588L6.93313 8.58561L6.65895 8.51754C6.20254 8.40423 5.73716 8.3307 5.26805 8.29778C4.28393 8.23199 3.03735 8.35729 2.19215 9.2025C2.14922 9.24547 2.1251 9.30372 2.1251 9.36446C2.1251 9.42523 2.14924 9.48351 2.1922 9.52648L2.19221 9.52649L6.31638 13.6521L6.6698 14.0057L6.31631 14.3592L1.6759 18.9996L1.67499 19.0005C1.57819 19.0968 1.27507 19.4979 1.0261 19.9273C1.00531 19.9632 0.985411 19.9984 0.966483 20.0328C1.00072 20.0139 1.03577 19.9941 1.07149 19.9734C1.50042 19.7246 1.90221 19.4211 1.99983 19.3235L6.64025 14.6831L6.99374 14.3296L7.34729 14.683L11.4729 18.8072L11.1194 19.1608L11.4729 18.8072C11.5159 18.8502 11.5742 18.8743 11.6349 18.8743C11.6957 18.8743 11.7539 18.8502 11.7969 18.8073C11.7969 18.8072 11.797 18.8072 11.797 18.8072M12.6662 0.886231L13.2005 15.6973C13.2676 16.721 13.1538 18.1575 12.1505 19.1608L11.797 18.8072M12.6662 0.886231C12.6963 0.886177 12.7261 0.892059 12.7539 0.903542C12.7816 0.914969 12.8068 0.931719 12.8281 0.952838C12.8282 0.952941 12.8283 0.953043 12.8284 0.953146L20.0467 8.1714M12.6662 0.886231L20.0467 8.1714M11.797 18.8072C12.6418 17.9623 12.766 16.7163 12.7016 15.7311M11.797 18.8072L12.7016 15.7311M12.7016 15.7311C12.6686 15.2621 12.5951 14.7968 12.4819 14.3404L12.4138 14.0662L12.6136 13.8664L17.184 9.29601L17.3662 9.11378L17.6204 9.15648C17.7814 9.18352 17.9836 9.20644 18.2084 9.20644C18.7607 9.20644 19.4739 9.06814 20.0467 8.49544C20.0467 8.49542 20.0467 8.49541 20.0467 8.49539M12.7016 15.7311L20.4003 7.8179C20.537 7.95464 20.6138 8.14007 20.6138 8.33342C20.6138 8.52677 20.537 8.7122 20.4003 8.84894L20.0467 8.49539M20.0467 8.49539C20.0896 8.45242 20.1138 8.39416 20.1138 8.33342C20.1138 8.27265 20.0896 8.21437 20.0467 8.1714M20.0467 8.49539L20.0467 8.1714" fill="#448ADD" stroke="#448ADD"/>
</svg>
