<svg width="18" height="18" viewBox="0 0 18 18" fill="none" xmlns="http://www.w3.org/2000/svg">
<path d="M15.6665 0.5H2.33317C1.4165 0.5 0.674837 1.25 0.674837 2.16667L0.666504 17.1667L3.99984 13.8333H15.6665C16.5832 13.8333 17.3332 13.0833 17.3332 12.1667V2.16667C17.3332 1.25 16.5832 0.5 15.6665 0.5ZM9.83317 9.66667H4.83317C4.37484 9.66667 3.99984 9.29167 3.99984 8.83333C3.99984 8.375 4.37484 8 4.83317 8H9.83317C10.2915 8 10.6665 8.375 10.6665 8.83333C10.6665 9.29167 10.2915 9.66667 9.83317 9.66667ZM13.1665 5.5H4.83317C4.37484 5.5 3.99984 5.125 3.99984 4.66667C3.99984 4.20833 4.37484 3.83333 4.83317 3.83333H13.1665C13.6248 3.83333 13.9998 4.20833 13.9998 4.66667C13.9998 5.125 13.6248 5.5 13.1665 5.5Z" fill="#727F88"/>
</svg>
