<svg width="14" height="15" viewBox="0 0 14 15" fill="none" xmlns="http://www.w3.org/2000/svg">
<path fill-rule="evenodd" clip-rule="evenodd" d="M6.33301 2.16683C3.75568 2.16683 1.66634 4.25617 1.66634 6.8335C1.66634 9.41083 3.75568 11.5002 6.33301 11.5002C8.91034 11.5002 10.9997 9.41083 10.9997 6.8335C10.9997 4.25617 8.91034 2.16683 6.33301 2.16683ZM0.333008 6.8335C0.333008 3.51979 3.0193 0.833496 6.33301 0.833496C9.64672 0.833496 12.333 3.51979 12.333 6.8335C12.333 10.1472 9.64672 12.8335 6.33301 12.8335C3.0193 12.8335 0.333008 10.1472 0.333008 6.8335Z" fill="#B7C3CB"/>
<path fill-rule="evenodd" clip-rule="evenodd" d="M9.62827 10.1288C9.88862 9.86841 10.3107 9.86841 10.5711 10.1288L13.4711 13.0288C13.7314 13.2891 13.7314 13.7112 13.4711 13.9716C13.2107 14.2319 12.7886 14.2319 12.5283 13.9716L9.62827 11.0716C9.36792 10.8112 9.36792 10.3891 9.62827 10.1288Z" fill="#B7C3CB"/>
</svg>
