<svg width="18" height="18" viewBox="0 0 18 18" fill="none" xmlns="http://www.w3.org/2000/svg">
<path d="M5.01814 3.58615L2.09533 6.71865L2.09531 6.71868C1.94982 6.87455 1.74867 6.96566 1.53496 6.96566C1.32125 6.96566 1.1201 6.87455 0.974615 6.71868C0.829675 6.56339 0.750977 6.35624 0.750977 6.14355C0.750977 5.93086 0.829675 5.72371 0.974615 5.56842L5.24089 0.997517L5.2411 0.997286C5.31295 0.920172 5.39923 0.857987 5.49549 0.815192C5.59189 0.77233 5.69592 0.75 5.80145 0.75C5.90697 0.75 6.011 0.77233 6.10741 0.815192C6.20367 0.857987 6.28995 0.920172 6.36179 0.997286L5.01814 3.58615ZM5.01814 3.58615V14.143C5.01814 14.9617 5.32152 15.75 5.86639 16.3338C6.41181 16.9182 7.15539 17.25 7.93469 17.25H16.4677C16.6812 17.25 16.8822 17.159 17.0275 17.0032C17.1724 16.8481 17.251 16.6411 17.251 16.4286C17.251 16.2161 17.1724 16.0091 17.0275 15.854C16.8822 15.6983 16.6812 15.6072 16.4677 15.6072H7.93469C7.58245 15.6072 7.24083 15.4575 6.98613 15.1846C6.73088 14.9111 6.58476 14.5367 6.58476 14.143V3.58615L9.50756 6.71865L9.50759 6.71868C9.57952 6.79575 9.66587 6.85788 9.76218 6.90062C9.85854 6.94339 9.96249 6.96566 10.0679 6.96566C10.1734 6.96566 10.2773 6.94339 10.3737 6.90062C10.47 6.85788 10.5563 6.79575 10.6283 6.71868C10.7002 6.64164 10.7564 6.5511 10.7945 6.45264C10.8325 6.35419 10.8519 6.24921 10.8519 6.14355C10.8519 6.03789 10.8325 5.93291 10.7945 5.83446C10.7564 5.736 10.7002 5.64546 10.6283 5.56842L6.36201 0.997517L5.01814 3.58615Z" fill="#5F6B73" stroke="#5F6B73" stroke-width="0.5"/>
</svg>
