<svg width="250" height="272" viewBox="0 0 250 272" fill="none" xmlns="http://www.w3.org/2000/svg">
<path d="M36.6178 251.951C85.4314 277.683 164.574 277.683 213.388 251.951C262.201 226.218 262.207 184.507 213.388 158.781C164.568 133.054 85.4314 133.048 36.6117 158.781C-12.2079 184.513 -12.2019 226.206 36.6178 251.951Z" fill="#F9F9F9"/>
<path d="M15.6853 219.746L17.9512 221.049C18.3578 221.255 18.8071 221.362 19.2629 221.362C19.7187 221.362 20.168 221.255 20.5746 221.049L125.278 160.598C125.437 160.546 125.576 160.445 125.674 160.309C125.772 160.174 125.825 160.011 125.825 159.843C125.825 159.676 125.772 159.513 125.674 159.378C125.576 159.242 125.437 159.141 125.278 159.089L123.03 157.805C122.624 157.599 122.174 157.491 121.719 157.491C121.263 157.491 120.814 157.599 120.407 157.805L15.6853 218.231C15.5271 218.285 15.3896 218.387 15.2923 218.523C15.1949 218.659 15.1426 218.822 15.1426 218.989C15.1426 219.156 15.1949 219.319 15.2923 219.455C15.3896 219.591 15.5271 219.693 15.6853 219.746Z" fill="#EBEBEB"/>
<path d="M166.839 241.523C184.486 241.523 198.792 233.68 198.792 224.006C198.792 214.332 184.486 206.489 166.839 206.489C149.192 206.489 134.887 214.332 134.887 224.006C134.887 233.68 149.192 241.523 166.839 241.523Z" fill="#EBEBEB"/>
<path d="M18.5082 218.22L18.0477 217.953C17.6605 217.701 17.338 217.361 17.1065 216.961C16.8749 216.561 16.7407 216.112 16.7148 215.651V60.3816C16.7412 59.9194 16.8756 59.4698 17.107 59.0689C17.3385 58.6681 17.6607 58.327 18.0477 58.0731L118.086 0.318249C118.499 0.109024 118.956 0 119.419 0C119.882 0 120.339 0.109024 120.752 0.318249L121.206 0.584846C121.595 0.837325 121.918 1.17806 122.15 1.57925C122.381 1.98044 122.515 2.43072 122.539 2.89334V158.156C122.515 158.619 122.381 159.069 122.15 159.47C121.918 159.872 121.595 160.212 121.206 160.465L21.1739 218.22C20.7608 218.429 20.3042 218.538 19.841 218.538C19.3779 218.538 18.9213 218.429 18.5082 218.22Z" fill="#C3DBF2"/>
<path opacity="0.4" d="M122.528 2.68128C122.437 1.99054 121.88 1.73606 121.213 2.11778L21.1686 59.8787C20.7769 60.1256 20.4539 60.4674 20.2295 60.8723L17.1094 59.0546C17.3367 58.6498 17.6616 58.3083 18.0545 58.0609L118.087 0.318249C118.5 0.109024 118.957 0 119.42 0C119.883 0 120.34 0.109024 120.753 0.318249L121.213 0.584846C121.567 0.822069 121.868 1.13143 122.094 1.49269C122.321 1.85396 122.469 2.25898 122.528 2.68128Z" fill="white"/>
<path opacity="0.2" d="M20.9492 218.323C20.5608 218.478 20.1441 218.549 19.7264 218.531C19.3087 218.513 18.8996 218.407 18.5257 218.22L18.0592 217.954C17.672 217.7 17.35 217.359 17.1194 216.958C16.8888 216.557 16.7562 216.107 16.7324 215.645V60.382C16.7465 59.9196 16.8801 59.4687 17.1202 59.0732L20.2403 60.891C19.9928 61.2791 19.845 61.7225 19.8102 62.1815V217.451C19.8102 218.214 20.3191 218.572 20.9492 218.323Z" fill="#455A64"/>
<path d="M31.6371 162.064L31.1766 161.797C30.7894 161.545 30.4669 161.205 30.2354 160.805C30.0038 160.405 29.8697 159.956 29.8438 159.495V131.587C29.8697 131.125 30.0038 130.675 30.2353 130.274C30.4668 129.873 30.7892 129.532 31.1766 129.278L122 76.7889C122.412 76.5797 122.868 76.4707 123.33 76.4707C123.792 76.4707 124.248 76.5797 124.66 76.7889L125.12 77.0555C125.509 77.308 125.832 77.6487 126.063 78.0499C126.295 78.4511 126.429 78.9014 126.453 79.364V107.272C126.429 107.734 126.295 108.183 126.063 108.583C125.832 108.984 125.508 109.323 125.12 109.574L34.3028 162.064C33.8897 162.273 33.4331 162.382 32.97 162.382C32.5068 162.382 32.0502 162.273 31.6371 162.064Z" fill="#F1F1F1"/>
<path d="M126.442 79.1525C126.351 78.4618 125.793 78.2073 125.121 78.589L34.2975 131.085C33.9058 131.331 33.5828 131.673 33.3584 132.078L30.2383 130.261C30.4629 129.852 30.7883 129.508 31.1834 129.261L122.001 76.7713C122.413 76.5621 122.869 76.4531 123.331 76.4531C123.793 76.4531 124.248 76.5621 124.66 76.7713L125.121 77.0379C125.48 77.2744 125.785 77.5858 126.012 77.9508C126.24 78.3158 126.387 78.7257 126.442 79.1525Z" fill="#FAFAFA"/>
<path d="M34.0722 162.174C33.6836 162.329 33.2666 162.399 32.8488 162.38C32.431 162.361 32.0219 162.254 31.6488 162.065L31.1762 161.805C30.7918 161.549 30.4722 161.207 30.2429 160.806C30.0136 160.406 29.881 159.957 29.8555 159.496V131.588C29.8695 131.126 30.0031 130.675 30.2432 130.279L33.3634 132.097C33.1257 132.494 32.9904 132.944 32.9696 133.406V161.32C32.9635 162.059 33.4482 162.416 34.0722 162.174Z" fill="#E8E8E8"/>
<path d="M47.1409 129.212C52.321 126.219 56.5195 128.546 56.5195 134.411C56.5195 140.276 52.3149 147.401 47.1288 150.328C41.9427 153.254 37.7441 150.934 37.7441 145.129C37.7441 139.325 41.9609 132.205 47.1409 129.212Z" fill="#C3DBF2"/>
<path d="M31.6371 199.885L31.1766 199.619C30.7894 199.366 30.4669 199.026 30.2354 198.627C30.0038 198.227 29.8697 197.778 29.8438 197.316V169.408C29.8697 168.946 30.0038 168.496 30.2353 168.095C30.4668 167.694 30.7892 167.353 31.1766 167.1L122 114.61C122.412 114.401 122.868 114.292 123.33 114.292C123.792 114.292 124.248 114.401 124.66 114.61L125.12 114.877C125.509 115.129 125.832 115.47 126.064 115.871C126.296 116.272 126.429 116.723 126.453 117.185V145.093C126.429 145.555 126.295 146.004 126.063 146.405C125.832 146.805 125.508 147.145 125.12 147.396L34.3028 199.885C33.8897 200.094 33.4331 200.203 32.97 200.203C32.5068 200.203 32.0502 200.094 31.6371 199.885Z" fill="#F1F1F1"/>
<path d="M126.442 116.967C126.351 116.277 125.793 116.028 125.121 116.41L34.2975 168.905C33.9074 169.152 33.5847 169.491 33.3584 169.893L30.2383 168.075C30.468 167.684 30.7931 167.356 31.1834 167.124L122.001 114.635C122.413 114.425 122.869 114.316 123.331 114.316C123.793 114.316 124.248 114.425 124.66 114.635L125.121 114.901C125.475 115.132 125.776 115.436 126.004 115.792C126.232 116.148 126.381 116.549 126.442 116.967Z" fill="#FAFAFA"/>
<path d="M34.0722 199.987C33.684 200.143 33.2672 200.214 32.8494 200.196C32.4316 200.179 32.0224 200.072 31.6488 199.884L31.1762 199.618C30.7908 199.363 30.4704 199.022 30.241 198.621C30.0116 198.22 29.8796 197.771 29.8555 197.309V169.407C29.8687 168.945 30.0023 168.494 30.2432 168.099L33.3634 169.916C33.1264 170.316 32.9912 170.767 32.9696 171.231V199.145C32.9635 199.878 33.4482 200.236 34.0722 199.987Z" fill="#E8E8E8"/>
<path d="M47.1409 167.033C52.321 164.04 56.5195 166.367 56.5195 172.232C56.5195 178.097 52.3149 185.223 47.1288 188.149C41.9427 191.076 37.7441 188.755 37.7441 182.95C37.7441 177.146 41.9609 170.02 47.1409 167.033Z" fill="#C3DBF2"/>
<path d="M31.6371 98.8207L31.1766 98.5541C30.7892 98.3006 30.4668 97.9596 30.2353 97.5586C30.0038 97.1577 29.8697 96.7079 29.8438 96.2457V68.3619C29.8697 67.9005 30.0038 67.4516 30.2354 67.0516C30.4669 66.6516 30.7894 66.3117 31.1766 66.0595L122 13.5457C122.412 13.3365 122.868 13.2275 123.33 13.2275C123.792 13.2275 124.248 13.3365 124.66 13.5457L125.12 13.8123C125.508 14.0635 125.832 14.4031 126.063 14.8033C126.295 15.2035 126.429 15.653 126.453 16.1148V44.0227C126.429 44.4853 126.295 44.9356 126.063 45.3368C125.832 45.738 125.509 46.0787 125.12 46.3312L34.3028 98.8207C33.8897 99.03 33.4331 99.139 32.97 99.139C32.5068 99.139 32.0502 99.03 31.6371 98.8207Z" fill="#F1F1F1"/>
<path d="M126.444 15.9023C126.353 15.2116 125.795 14.9632 125.123 15.3449L34.2995 67.8405C33.9067 68.0834 33.5832 68.4236 33.3604 68.8281L30.2402 67.0104C30.4635 66.6025 30.7892 66.26 31.1854 66.0167L122.003 13.5272C122.415 13.318 122.87 13.209 123.333 13.209C123.795 13.209 124.25 13.318 124.662 13.5272L125.123 13.7938C125.482 14.029 125.786 14.3393 126.014 14.7033C126.242 15.0673 126.389 15.4763 126.444 15.9023Z" fill="#FAFAFA"/>
<path d="M34.0744 98.9235C33.6862 99.0791 33.2694 99.1503 32.8516 99.1326C32.4338 99.1148 32.0245 99.0085 31.6509 98.8205L31.1784 98.5539C30.7902 98.2989 30.4677 97.9557 30.2371 97.5525C30.0066 97.1492 29.8745 96.6973 29.8516 96.2333V68.3617C29.8646 67.8972 29.9982 67.4441 30.2393 67.0469L33.3595 68.8646C33.1216 69.2636 32.9863 69.7153 32.9656 70.1794V98.051C32.9656 98.8145 33.4503 99.1659 34.0744 98.9235Z" fill="#E8E8E8"/>
<path d="M47.1409 65.9681C52.321 62.9749 56.5195 65.3016 56.5195 71.1607C56.5195 77.0198 52.3149 84.1513 47.1288 87.0839C41.9427 90.0164 37.7441 87.6898 37.7441 81.8852C37.7441 76.0806 41.9609 68.9673 47.1409 65.9681Z" fill="#C3DBF2"/>
<path d="M38.0238 134.255L37.5633 133.988C37.175 133.736 36.8518 133.395 36.6201 132.994C36.3885 132.592 36.255 132.142 36.2305 131.679V103.772C36.2559 103.309 36.3898 102.859 36.6214 102.458C36.8529 102.057 37.1756 101.716 37.5633 101.463L128.381 48.9735C128.794 48.7643 129.25 48.6553 129.714 48.6553C130.177 48.6553 130.633 48.7643 131.046 48.9735L131.507 49.2341C131.894 49.488 132.216 49.829 132.448 50.2299C132.679 50.6308 132.813 51.0804 132.84 51.5426V79.4505C132.814 79.9128 132.68 80.3625 132.448 80.7635C132.217 81.1645 131.894 81.5055 131.507 81.759L40.6835 134.255C40.2714 134.464 39.8158 134.573 39.3536 134.573C38.8915 134.573 38.4359 134.464 38.0238 134.255Z" fill="#94BCE1"/>
<path d="M132.826 51.3356C132.736 50.6448 132.178 50.3904 131.506 50.7781L40.6823 103.274C40.2891 103.518 39.9641 103.858 39.7371 104.261L36.623 102.444C36.8455 102.036 37.1689 101.691 37.5621 101.444L128.38 48.9725C128.793 48.7633 129.249 48.6543 129.712 48.6543C130.175 48.6543 130.632 48.7633 131.045 48.9725L131.506 49.2331C131.864 49.4683 132.167 49.7778 132.395 50.1406C132.623 50.5034 132.77 50.9109 132.826 51.3356Z" fill="#86ADDC"/>
<path d="M40.457 134.357C40.0686 134.512 39.6519 134.582 39.2342 134.565C38.8166 134.547 38.4074 134.441 38.0336 134.254L37.567 133.987C37.1805 133.733 36.859 133.392 36.6285 132.991C36.398 132.59 36.265 132.14 36.2402 131.679V103.771C36.2564 103.308 36.392 102.857 36.634 102.462L39.7481 104.28C39.5122 104.677 39.3789 105.127 39.3604 105.588V133.502C39.3483 134.242 39.8027 134.599 40.457 134.357Z" fill="#6693C8"/>
<path d="M53.5276 101.396C58.7077 98.4087 62.9063 100.735 62.9063 106.594C62.9063 112.454 58.7016 119.585 53.5155 122.518C48.3294 125.45 44.1248 123.124 44.1309 117.319C44.1369 111.514 48.3476 104.389 53.5276 101.396Z" fill="#F5F5F5"/>
<path d="M53.738 118.258C53.5741 118.382 53.3764 118.454 53.1709 118.464C52.9654 118.473 52.7618 118.421 52.5869 118.312L48.4671 115.198C47.9157 114.78 47.9824 113.635 48.6185 112.629C49.2547 111.623 50.218 111.15 50.7633 111.569L53.635 113.744L61.6141 96.6027C62.1109 95.5303 63.0621 94.785 63.7406 94.9971C64.4192 95.2091 64.5646 96.2089 64.0617 97.2632L54.9497 116.834C54.6977 117.397 54.2925 117.878 53.7804 118.221L53.738 118.258Z" fill="#C3DBF2"/>
<path d="M132.813 92.7791L130.177 91.2583C129.032 90.6039 127.633 91.2583 126.894 91.7067L125.228 90.7797C123.234 89.5679 120.46 92.0945 119.842 92.6943L119.127 92.2884C117.012 91.016 113.165 94.4272 113.165 94.4272V81.6911L114.837 80.8852L112.178 79.3462C111.796 79.1771 111.378 79.1111 110.963 79.1547C110.548 79.1982 110.152 79.35 109.815 79.5947C108.831 80.2355 108.011 81.0995 107.424 82.1166C106.837 83.1336 106.497 84.2749 106.434 85.4477V114.876C104.011 113.059 101.418 111.968 99.1639 112.374C97.3684 112.794 95.7976 113.876 94.7654 115.404C93.6506 117.379 95.4924 118.615 97.8673 121.329C100.242 124.044 102.302 127.267 104.447 129.267C105.505 130.339 106.763 131.195 108.149 131.787V135.617L110.754 137.125L128.009 124.153V120.318C128.009 120.318 130.468 110.49 131.256 106.382C132.013 102.431 132.71 96.1237 131.407 92.8519L132.819 92.7549L132.813 92.7791Z" fill="#C3DBF2"/>
<path opacity="0.4" d="M132.813 92.7791L130.177 91.2583C129.032 90.6039 127.633 91.2583 126.894 91.7067L125.228 90.7797C123.234 89.5679 120.46 92.0945 119.842 92.6943L119.127 92.2884C117.012 91.016 113.165 94.4272 113.165 94.4272V81.6911L114.837 80.8852L112.178 79.3462C111.796 79.1771 111.378 79.1111 110.963 79.1547C110.548 79.1982 110.152 79.35 109.815 79.5947C108.831 80.2355 108.011 81.0995 107.424 82.1166C106.837 83.1336 106.497 84.2749 106.434 85.4477V114.876C104.011 113.059 101.418 111.968 99.1639 112.374C97.3684 112.794 95.7976 113.876 94.7654 115.404C93.6506 117.379 95.4924 118.615 97.8673 121.329C100.242 124.044 102.302 127.267 104.447 129.267C105.505 130.339 106.763 131.195 108.149 131.787V135.617L110.754 137.125L128.009 124.153V120.318C128.009 120.318 130.468 110.49 131.256 106.382C132.013 102.431 132.71 96.1237 131.407 92.8519L132.819 92.7549L132.813 92.7791Z" fill="white"/>
<path d="M113.359 126.6L100.309 119.069L94.5958 115.767C93.8688 117.548 95.6318 118.796 97.8614 121.347C100.218 124.043 102.296 127.285 104.441 129.284C105.499 130.357 106.757 131.213 108.143 131.805V135.616L110.748 137.125L114.559 134.259C114.068 131.023 113.359 126.6 113.359 126.6Z" fill="#C3DBF2"/>
<path d="M109.047 86.9687L106.441 85.46V116.331L109.047 116.397V86.9687Z" fill="#C3DBF2"/>
<path d="M129.52 94.7597L131.543 93.2692C131.495 93.136 131.459 93.0027 131.404 92.8754L132.143 92.827L130.519 92.7543L127.811 91.2578C127.495 91.3848 127.189 91.5367 126.896 91.7122L127.745 92.203L129.52 94.7597Z" fill="#C3DBF2"/>
<path d="M122.351 94.3174L124.248 92.8754L121.63 91.2881C120.999 91.694 120.408 92.1607 119.867 92.6816L121.685 93.7357L122.351 94.3174Z" fill="#C3DBF2"/>
<path d="M118.388 94.1785L115.795 92.6639L115.807 92.6396V95.9173L118.824 94.8147L118.388 94.1785Z" fill="#C3DBF2"/>
<g opacity="0.15">
<path opacity="0.15" d="M113.359 126.6L100.309 119.069L94.5958 115.767C93.8688 117.548 95.6318 118.796 97.8614 121.347C100.218 124.043 102.296 127.285 104.441 129.284C105.499 130.357 106.757 131.213 108.143 131.805V135.616L110.748 137.125L114.559 134.259C114.068 131.023 113.359 126.6 113.359 126.6Z" fill="black"/>
<path opacity="0.15" d="M109.045 86.9677L106.439 85.459V116.33L109.045 116.396V86.9677Z" fill="black"/>
<path opacity="0.15" d="M129.518 94.7587L131.541 93.2683C131.493 93.135 131.457 93.0017 131.402 92.8745L132.141 92.826L130.518 92.7533L127.809 91.2568C127.493 91.3838 127.187 91.5357 126.895 91.7112L127.743 92.202L129.518 94.7587Z" fill="black"/>
<path opacity="0.15" d="M122.349 94.3164L124.246 92.8745L121.628 91.2871C120.997 91.693 120.406 92.1597 119.865 92.6806L121.683 93.7348L122.349 94.3164Z" fill="black"/>
<path opacity="0.15" d="M118.388 94.1775L115.795 92.6629L115.807 92.6387V95.9163L118.824 94.8137L118.388 94.1775Z" fill="black"/>
</g>
<path d="M110.75 137.15V133.314C109.364 132.714 108.109 131.85 107.054 130.77C104.91 128.77 102.813 125.522 100.475 122.832C98.1361 120.142 96.2337 118.876 97.3727 116.906C98.4049 115.379 99.9758 114.297 101.771 113.877C104.037 113.471 106.618 114.58 109.041 116.379V86.9687C109.104 85.7964 109.442 84.6555 110.029 83.6385C110.615 82.6215 111.433 81.7572 112.416 81.1156C114.282 80.0371 115.797 80.9096 115.797 83.0667V95.9179C115.797 95.9179 120.456 91.7856 122.334 94.3183C122.334 94.3183 126.914 89.5256 128.998 93.573C128.998 93.573 132.355 90.8646 133.845 94.0093C135.335 97.1539 134.633 103.807 133.845 107.915C133.057 112.023 130.592 121.851 130.592 121.851V125.686L110.75 137.15Z" fill="#C3DBF2"/>
<path opacity="0.3" d="M115.807 101.436C115.807 101.436 116.231 95.5716 118.388 94.166H118.309C117.417 94.6472 116.578 95.222 115.807 95.8806V95.7715C115.799 95.7886 115.795 95.8072 115.795 95.8261C115.795 95.8449 115.799 95.8635 115.807 95.8806V101.436Z" fill="#455A64"/>
<path opacity="0.3" d="M122.352 94.3183V99.6862C122.352 99.6862 122.957 94.1669 124.169 92.834C123.511 93.2606 122.901 93.7584 122.352 94.3183Z" fill="#455A64"/>
<path opacity="0.3" d="M128.992 93.5724V98.9584C128.992 98.9584 129.319 93.5361 130.489 92.7363C129.952 92.9405 129.448 93.2221 128.992 93.5724Z" fill="#455A64"/>
<path d="M109.804 75.898C109.38 76.1403 109.041 76.001 109.041 75.5769V71.3359C109.063 71.088 109.144 70.8489 109.277 70.6383C109.41 70.4277 109.59 70.2515 109.804 70.1242C110.222 69.8819 110.562 70.0273 110.562 70.4453V74.6863C110.54 74.9338 110.461 75.1727 110.329 75.3834C110.197 75.594 110.018 75.7704 109.804 75.898Z" fill="#EBEBEB"/>
<path d="M103.419 82.6171C103.122 83.126 102.644 83.4047 102.347 83.2229L99.8809 81.7992C99.584 81.6295 99.584 81.0721 99.8809 80.5874C100.178 80.0725 100.656 79.7938 100.953 79.9816L103.419 81.4054C103.74 81.5447 103.74 82.1021 103.419 82.6171Z" fill="#EBEBEB"/>
<path d="M100.807 91.4218V91.543C100.781 91.8062 100.694 92.0597 100.552 92.2829C100.409 92.506 100.217 92.6926 99.9892 92.8274L96.6206 94.7722C96.1723 95.0327 95.8027 94.8812 95.8027 94.4268V94.3057C95.83 94.0428 95.9181 93.7898 96.0601 93.5669C96.202 93.344 96.394 93.1572 96.6206 93.0212L99.9892 91.0765C100.444 90.8159 100.807 90.9674 100.807 91.4218Z" fill="#EBEBEB"/>
<path d="M118.795 81.1571V81.036C118.82 80.7716 118.907 80.5169 119.049 80.2927C119.191 80.0684 119.384 79.8809 119.613 79.7455L122.981 77.8007C123.43 77.5402 123.799 77.6977 123.799 78.1461V78.2672C123.772 78.5301 123.684 78.783 123.542 79.006C123.4 79.2289 123.208 79.4157 122.981 79.5516L119.613 81.4964C119.171 81.7569 118.795 81.6055 118.795 81.1571Z" fill="#EBEBEB"/>
<path d="M116.141 75.2677C115.844 75.098 115.844 74.5467 116.141 74.056L118.606 69.815C118.903 69.3 119.382 69.0213 119.679 69.2091C119.976 69.3848 119.976 69.9362 119.679 70.4511L117.213 74.6921C116.94 75.1647 116.456 75.4434 116.141 75.2677Z" fill="#EBEBEB"/>
<path d="M181.274 146.728C181.741 129.418 180.353 125.273 175.749 122.104L173.962 132.132C173.962 132.132 176.058 143.947 175.834 147.886C175.64 151.345 175.3 155.672 174.483 158.465C174.339 158.968 174.013 159.4 173.568 159.677C172.392 160.41 171.92 161.161 171.035 162.1C170.345 162.827 169.757 163.003 169.824 163.233C169.957 163.487 170.182 163.682 170.452 163.779C170.722 163.875 171.019 163.866 171.284 163.754C171.87 163.518 172.427 163.215 172.944 162.852C172.538 163.912 171.963 164.901 171.241 165.778C169.593 167.796 169.521 169.038 172.847 169.068C174.925 169.068 176.585 167.802 178.154 163.215C178.763 161.533 179.25 159.81 179.614 158.059C180.438 153.484 181.201 149.516 181.274 146.728Z" fill="#FFDDCF"/>
<path d="M171.879 120.79C174.078 120.469 177.065 120.93 178.998 124.383C180.93 127.837 181.421 133.781 181.621 139.688C181.621 139.688 177.786 142.894 173.181 141.318L171.879 120.79Z" fill="#C3DBF2"/>
<path opacity="0.1" d="M171.879 120.79C174.078 120.469 177.065 120.93 178.998 124.383C180.93 127.837 181.421 133.781 181.621 139.688C181.621 139.688 177.786 142.894 173.181 141.318L171.879 120.79Z" fill="#C3DBF2"/>
<path d="M178.345 215.984C178.69 216.117 178.781 216.783 178.835 218.104C178.872 219.104 179.09 220.855 177.915 221.2C176.739 221.546 175.025 221.37 174.279 220.431C173.34 219.219 172.71 218.213 171.371 216.796C170.208 215.547 168.948 214.372 168.487 212.639C168.063 211.058 168.415 210.373 169.493 209.912C170.971 209.307 173.304 211.348 174.461 211.67C175.455 211.96 177.993 215.85 178.345 215.984Z" fill="#BCADA2"/>
<path d="M178.342 214.76V216.383C177.732 216.773 177.027 216.99 176.304 217.009C175.58 217.028 174.865 216.849 174.235 216.492C174.168 216.335 173.811 214.172 173.811 214.172L178.342 214.76Z" fill="#FFDDCF"/>
<path d="M165.215 225.345C165.498 226.215 165.736 227.098 165.929 227.993C166.129 228.974 166.414 230.616 166.075 231.355C165.736 232.095 164.391 232.567 162.306 232.567C160.961 232.567 158.865 233.47 157.429 234.27C155.993 235.07 152.855 235.427 151.286 235.245C149.438 235.027 147.524 233.955 147.221 233.185C146.918 232.416 147.318 231.628 151.68 229.768C151.722 229.768 157.738 227.793 159.847 225.466L165.215 225.345Z" fill="#BCADA2"/>
<path d="M165.215 223.588C165.215 223.588 165.215 224.8 165.215 225.484C165.215 226.169 164.41 227.199 162.301 227.12C160.823 227.072 159.793 226.672 159.878 225.454V223.697L165.215 223.588Z" fill="#FFDDCF"/>
<path d="M179.398 193.208C179.039 190.325 178.398 187.484 177.484 184.726C177.484 184.726 178.059 177.455 178.338 170.511C178.641 163.034 178.338 153.643 178.465 151.777C178.465 151.777 154.352 146.929 153.922 155.533C153.492 164.137 154.873 186.168 155.134 189.961C155.394 193.754 156.073 197.116 156.861 203.291C157.648 209.465 159.799 223.697 159.799 223.697C160.634 224.122 161.56 224.334 162.497 224.315C163.433 224.296 164.35 224.047 165.167 223.588C165.167 223.588 166.863 206.314 166.688 201.933C166.551 198.69 165.993 195.478 165.028 192.378C165.028 192.378 165.482 185.253 165.888 179.048C166.294 172.844 166.718 169.875 166.809 167.185L167.33 166.924C167.33 166.924 167.857 177.612 168.142 181.411C168.426 185.21 169.032 188.846 170.129 195.893C171.086 202.012 173.921 214.948 173.921 214.948C176.672 216.439 178.32 214.754 178.32 214.754C178.32 214.754 180.144 198.516 179.398 193.208Z" fill="#B4C3D1"/>
<path d="M166.832 167.19C166.832 167.19 172.685 164.306 175.611 161.707C175.611 161.707 172.891 165.536 169.322 167.233C169.322 167.233 168.056 180.514 168.062 180.248L167.329 167.166L166.832 167.19Z" fill="#97ACBF"/>
<path d="M161.627 118.051L163.057 125.903L170.145 125.388L168.661 116.481L161.627 118.051Z" fill="#FFDDCF"/>
<path d="M177.639 124.814C176.937 122.681 174.228 120.355 171.52 120.857C167.492 121.542 163.523 122.532 159.645 123.82C157.161 124.711 154.902 126.85 154.696 135.017C154.696 135.017 153.866 154.055 153.854 157.733C160.082 160.199 166.576 160.126 170.145 159.344C177.609 157.715 178.506 154.618 178.506 154.618C178.506 154.618 178.603 140.931 178.378 135.017C178.191 129.994 178.124 126.28 177.639 124.814Z" fill="white"/>
<path d="M156.155 108.497C156.155 108.497 154.338 111.369 154.574 111.641C154.81 111.914 156.167 112.132 156.167 112.132L156.155 108.497Z" fill="#FFDDCF"/>
<path d="M161.148 100.564C157.397 101.443 156.349 103.121 156.125 109.12C155.895 115.385 156.58 117.336 157.422 118.16C157.985 118.717 161.057 118.766 162.62 118.287C164.553 117.681 168.921 116.045 170.908 112.834C173.247 109.077 173.774 104.048 171.132 102.043C167.412 99.2616 162.674 100.201 161.148 100.564Z" fill="#FFDDCF"/>
<path d="M161.706 118.481C162.978 117.457 162.863 116.797 162.863 116.797C161.954 117.651 158.573 118.378 157.41 118.16C157.889 118.651 160.088 118.723 161.706 118.481Z" fill="#ECA79D"/>
<path d="M156.169 102.122C157.272 104.006 159.659 104.909 159.659 104.909C160.38 105.727 159.98 108.926 161.246 109.429C161.246 109.429 161.791 107.103 163.748 107.351C165.705 107.599 166.038 110.096 164.833 111.641C163.627 113.186 162.47 112.635 162.47 112.635C162.47 112.635 162.603 115.937 164.112 117.779C164.112 117.779 165.79 118.282 168.837 117.554C170.716 117.112 173.327 114.695 174.387 112.18C176.641 106.848 176.695 102.098 173.296 100.753C172.878 98.3291 170.94 97.2809 168.746 96.8265C164.027 95.857 160.986 98.8017 157.35 98.5472C155.266 98.4018 154.879 99.9105 156.169 102.122Z" fill="#B0A094"/>
<path d="M173.377 101.564L175.6 100.183C175.417 99.8878 175.124 99.6777 174.786 99.5988C174.448 99.5198 174.093 99.5784 173.798 99.7615C173.503 99.9447 173.293 100.238 173.214 100.576C173.135 100.914 173.194 101.269 173.377 101.564Z" fill="#B0A094"/>
<path d="M159.84 123.789C159.84 123.789 156.314 124.443 154.472 127.231C152.63 130.018 144.657 140.015 144.657 140.015C144.657 140.015 133.194 134.277 132.631 133.593C132.068 132.908 132.383 131.539 132.54 130.781C132.698 130.024 132.952 128.358 133.146 127.873C133.437 127.043 132.219 127.267 131.498 128.036C130.777 128.806 130.462 130.315 130.105 130.575C129.747 130.836 127.015 127.697 125.694 126.182C124.373 124.668 123.749 123.607 122.859 124.231C122.222 124.686 122.634 125.583 123.58 126.879C124.024 127.423 124.429 127.998 124.791 128.6C124.906 128.83 124.555 129.018 124.422 129.139C124.161 129.369 123.707 129.745 123.67 130.109C123.69 130.31 123.69 130.513 123.67 130.715C123.543 131.145 123.01 131.32 122.859 131.769C122.75 132.078 122.859 132.417 122.81 132.738C122.768 132.944 122.659 133.126 122.616 133.344C122.605 133.55 122.637 133.756 122.711 133.948C122.785 134.14 122.9 134.315 123.046 134.459C123.973 135.568 125.246 135.992 126.463 136.665C127.475 137.228 128.523 137.47 129.693 137.991C130.862 138.513 144.603 148.668 146.747 147.486C148.892 146.304 159.882 133.459 159.882 133.459C160.811 132.016 161.301 130.334 161.293 128.618C161.286 126.902 160.781 125.224 159.84 123.789Z" fill="#FFDDCF"/>
<path d="M161.071 123.377C159.556 123.547 157.436 123.268 154.461 126.455C152.073 129.19 149.848 132.063 147.797 135.059C148.188 136.633 149.025 138.06 150.207 139.171C151.389 140.281 152.866 141.026 154.461 141.318C154.461 141.318 159.659 135.992 161.126 133.053C162.592 130.115 162.852 125.352 161.071 123.377Z" fill="#C3DBF2"/>
<path opacity="0.1" d="M161.071 123.377C159.556 123.547 157.436 123.268 154.461 126.455C152.073 129.19 149.848 132.063 147.797 135.059C148.188 136.633 149.025 138.06 150.207 139.171C151.389 140.281 152.866 141.026 154.461 141.318C154.461 141.318 159.659 135.992 161.126 133.053C162.592 130.115 162.852 125.352 161.071 123.377Z" fill="#C3DBF2"/>
</svg>
