<svg width="600" height="600" viewBox="0 0 600 600" fill="none" xmlns="http://www.w3.org/2000/svg">
<path d="M300 600C465.685 600 600 529.774 600 443.146C600 356.517 465.685 286.291 300 286.291C134.315 286.291 0 356.517 0 443.146C0 529.774 134.315 600 300 600Z" fill="#ECECEC"/>
<path d="M484.2 527.665C518.183 527.665 545.733 511.593 545.733 491.768C545.733 471.943 518.183 455.872 484.2 455.872C450.216 455.872 422.667 471.943 422.667 491.768C422.667 511.593 450.216 527.665 484.2 527.665Z" fill="#E0E0E0"/>
<path d="M86.4381 526.731L31.8336 494.871C28.7501 493.08 28.7501 490.167 31.8336 488.376L337.389 310.344C339.117 309.46 341.026 309 342.963 309C344.9 309 346.809 309.46 348.537 310.344L403.154 342.204C406.225 343.995 406.225 346.909 403.154 348.7L97.5862 526.731C95.8582 527.615 93.9487 528.075 92.0121 528.075C90.0755 528.075 88.1661 527.615 86.4381 526.731V526.731Z" fill="#E0E0E0"/>
<path d="M379.684 413.215L372.956 409.255C357.538 400.262 333.194 399.82 318.701 408.271L293.283 423.066C292.853 423.317 292.539 423.73 292.41 424.215C292.281 424.7 292.349 425.216 292.597 425.651C292.845 426.086 293.254 426.404 293.734 426.534C294.214 426.664 294.726 426.596 295.156 426.345L320.523 411.55C333.981 403.692 356.652 404.134 371.033 412.521L377.824 416.494C384.441 420.354 388.086 425.323 388.086 430.621C388.086 435.918 384.441 440.888 377.824 444.747L284.832 498.983C270.438 507.383 247.031 507.371 232.637 498.983L205.547 483.204C190.129 474.211 165.037 474.211 149.619 483.204L142.828 487.139C134.676 491.894 130.182 498.226 130.182 504.949C130.182 511.154 134.077 516.843 141.155 520.967L165.399 535.119L155.412 541.06C150.855 543.772 150.88 548.173 155.412 550.847L173.7 561.556C173.863 561.612 174.005 561.718 174.105 561.859C174.206 562.001 174.26 562.17 174.26 562.344C174.26 562.518 174.206 562.688 174.105 562.829C174.005 562.97 173.863 563.076 173.7 563.132L172.177 564.003C171.428 564.432 171.428 565.138 172.177 565.579L174.537 566.954C174.956 567.172 175.42 567.286 175.891 567.286C176.363 567.286 176.827 567.172 177.246 566.954L185.51 562.161C185.931 561.95 186.395 561.84 186.865 561.84C187.335 561.84 187.798 561.95 188.219 562.161L203.2 570.99C203.618 571.202 204.08 571.313 204.548 571.313C205.016 571.313 205.478 571.202 205.896 570.99L208.268 569.603C209.017 569.174 209.017 568.468 208.268 568.026L193.288 559.197C192.539 558.756 192.539 558.049 193.288 557.621L199.055 554.253C199.472 554.035 199.934 553.921 200.403 553.921C200.873 553.921 201.335 554.035 201.752 554.253L216.807 563.019C217.224 563.237 217.686 563.35 218.156 563.35C218.625 563.35 219.087 563.237 219.504 563.019L221.901 561.556C222.064 561.5 222.205 561.394 222.306 561.252C222.406 561.111 222.46 560.941 222.46 560.767C222.46 560.593 222.406 560.424 222.306 560.283C222.205 560.141 222.064 560.035 221.901 559.979L206.92 551.15C206.757 551.094 206.615 550.988 206.515 550.847C206.415 550.705 206.361 550.536 206.361 550.362C206.361 550.188 206.415 550.018 206.515 549.877C206.615 549.735 206.757 549.629 206.92 549.573L214.41 545.235C214.573 545.179 214.715 545.073 214.815 544.931C214.916 544.79 214.97 544.62 214.97 544.446C214.97 544.272 214.916 544.103 214.815 543.961C214.715 543.82 214.573 543.714 214.41 543.658L212.038 542.283C211.62 542.065 211.155 541.952 210.684 541.952C210.213 541.952 209.748 542.065 209.329 542.283L206.97 543.658C206.549 543.869 206.085 543.979 205.615 543.979C205.145 543.979 204.682 543.869 204.261 543.658L181.128 530.162C179.978 529.569 178.706 529.259 177.414 529.259C176.123 529.259 174.85 529.569 173.7 530.162L169.094 532.899C168.936 532.692 168.741 532.516 168.52 532.382L143.165 517.6C137.297 514.169 134.064 509.654 134.064 504.848C134.064 499.601 137.997 494.304 144.838 490.318L151.629 486.345C166.023 477.957 189.43 477.957 203.812 486.345L230.752 502.275C246.182 511.268 271.262 511.268 286.692 502.275L379.684 448.039C387.512 443.473 391.819 437.293 391.819 430.633C391.819 423.974 387.512 417.768 379.684 413.215Z" fill="#E0E0E0"/>
<path d="M167.446 530.162C167.118 530.161 166.795 530.074 166.51 529.91L141.155 515.115C134.077 510.991 130.182 505.302 130.182 499.097C130.182 492.361 134.676 486.042 142.828 481.287L149.619 477.314C165.037 468.321 190.129 468.321 205.547 477.314L232.624 493.118C247.018 501.506 270.425 501.506 284.819 493.118L377.812 438.882C384.428 435.023 388.074 430.053 388.074 424.743C388.074 419.433 384.428 414.476 377.812 410.617L371.021 406.656C356.627 398.269 333.968 397.827 320.511 405.685L295.156 420.467C294.726 420.718 294.214 420.786 293.734 420.656C293.254 420.526 292.845 420.209 292.597 419.774C292.349 419.339 292.281 418.822 292.41 418.337C292.539 417.852 292.853 417.439 293.283 417.188L318.638 402.406C333.132 393.942 357.476 394.384 372.893 403.377L379.684 407.35C387.512 411.903 391.819 418.084 391.819 424.743C391.819 431.403 387.512 437.596 379.684 442.149L286.692 496.385C271.262 505.39 246.182 505.39 230.752 496.385L203.674 480.593C189.293 472.206 165.886 472.206 151.492 480.593L144.7 484.617C137.859 488.615 133.927 493.913 133.927 499.16C133.927 503.953 137.16 508.481 143.028 511.899L168.382 526.694C168.74 526.902 169.019 527.223 169.178 527.608C169.336 527.993 169.364 528.42 169.257 528.823C169.15 529.226 168.915 529.581 168.587 529.835C168.26 530.089 167.859 530.226 167.446 530.225V530.162Z" fill="#88979F"/>
<path d="M151.691 534.261V536.444C151.794 538.338 152.338 540.182 153.277 541.825C154.216 543.468 155.524 544.865 157.096 545.903L177.071 557.532L197.344 545.701V527.955L177.645 518.773C175.869 518.06 173.964 517.736 172.055 517.823C170.146 517.91 168.277 518.406 166.572 519.277L157.096 524.802C155.523 525.839 154.214 527.236 153.275 528.879C152.336 530.523 151.793 532.367 151.691 534.261Z" fill="#88979F"/>
<path d="M177.646 518.773C175.87 518.06 173.965 517.736 172.056 517.823C170.147 517.91 168.278 518.406 166.573 519.277L157.097 524.802C154.114 526.542 154.239 529.141 157.36 530.604L177.047 539.786L197.345 527.955L177.646 518.773Z" fill="#A8B8C6"/>
<path opacity="0.1" d="M175.136 535.51C174.35 536.029 173.697 536.727 173.228 537.549C172.76 538.371 172.49 539.293 172.44 540.24V554.846L177.059 557.532L197.333 545.701V527.955L192.189 525.559L175.136 535.51Z" fill="#797979"/>
<path d="M199.068 524.903C198.763 524.763 198.427 524.708 198.094 524.741C197.761 524.774 197.443 524.895 197.17 525.092L177.196 536.734C176.408 537.251 175.752 537.949 175.281 538.771C174.81 539.592 174.538 540.515 174.487 541.463V558.819C174.451 559.158 174.507 559.502 174.647 559.812C174.788 560.123 175.008 560.39 175.286 560.585L177.783 562.06C178.089 562.206 178.427 562.265 178.764 562.232C179.1 562.198 179.421 562.074 179.693 561.871L199.667 550.242C200.452 549.722 201.105 549.023 201.573 548.201C202.041 547.38 202.312 546.459 202.364 545.512V528.144C202.397 527.806 202.342 527.465 202.204 527.155C202.066 526.845 201.85 526.577 201.577 526.378L199.068 524.903Z" fill="#88979F"/>
<path d="M179.755 538.209L199.729 526.568C201.215 525.697 202.426 526.404 202.426 528.144V545.512C202.374 546.459 202.103 547.38 201.635 548.202C201.166 549.023 200.514 549.722 199.729 550.242L179.755 561.871C178.257 562.741 177.046 562.035 177.046 560.295V542.939C177.097 541.991 177.369 541.068 177.84 540.246C178.31 539.424 178.967 538.726 179.755 538.209V538.209Z" fill="#A8B8C6"/>
<path d="M200.416 551.327L183.912 541.703L182.127 542.75V554.581L198.618 564.204C199.003 564.483 199.455 564.653 199.926 564.698C200.398 564.742 200.873 564.659 201.302 564.457L203.1 563.41C203.494 563.132 203.806 562.749 203.999 562.304C204.193 561.859 204.262 561.369 204.198 560.887V557.885C204.119 556.57 203.735 555.291 203.078 554.152C202.421 553.013 201.51 552.045 200.416 551.327V551.327ZM197.382 554.492C198.113 554.981 198.72 555.636 199.154 556.405C199.588 557.174 199.836 558.035 199.879 558.92C199.878 559.158 199.848 559.395 199.792 559.626C199.566 559.563 199.348 559.474 199.142 559.361C198.413 558.869 197.807 558.211 197.373 557.44C196.94 556.669 196.691 555.807 196.646 554.921C196.647 554.679 196.676 554.438 196.733 554.202C196.961 554.269 197.18 554.367 197.382 554.492Z" fill="#C3DBF2"/>
<path opacity="0.85" d="M200.416 551.327L183.912 541.703L182.127 542.75L198.618 552.373C199.713 553.103 200.623 554.082 201.273 555.232C201.924 556.383 202.297 557.672 202.363 558.995V561.997C202.419 562.488 202.338 562.984 202.128 563.43C201.918 563.876 201.589 564.254 201.177 564.52H201.265L203.062 563.46C203.458 563.183 203.77 562.801 203.964 562.356C204.158 561.91 204.226 561.42 204.161 560.938V557.936C204.09 556.615 203.715 555.33 203.064 554.182C202.414 553.035 201.507 552.057 200.416 551.327V551.327Z" fill="white"/>
<path d="M204.198 557.949V560.95C204.263 561.432 204.195 561.923 204.001 562.368C203.807 562.814 203.495 563.196 203.1 563.473L201.302 564.533H201.227C201.636 564.265 201.963 563.887 202.171 563.441C202.378 562.995 202.458 562.499 202.401 562.01V559.033C202.356 557.697 201.973 556.394 201.289 555.249L203.087 554.203C203.767 555.336 204.149 556.625 204.198 557.949V557.949Z" fill="#C3DBF2"/>
<path opacity="0.6" d="M204.198 557.949V560.95C204.263 561.432 204.195 561.923 204.001 562.368C203.807 562.814 203.495 563.196 203.1 563.473L201.302 564.533H201.227C201.636 564.265 201.963 563.887 202.171 563.441C202.378 562.995 202.458 562.499 202.401 562.01V559.033C202.356 557.697 201.973 556.394 201.289 555.249L203.087 554.203C203.767 555.336 204.149 556.625 204.198 557.949V557.949Z" fill="white"/>
<path opacity="0.05" d="M204.198 557.949V560.95C204.263 561.432 204.195 561.923 204.001 562.368C203.807 562.814 203.495 563.196 203.1 563.473L201.302 564.533H201.227C201.636 564.265 201.963 563.887 202.171 563.441C202.378 562.995 202.458 562.499 202.401 562.01V559.033C202.356 557.697 201.973 556.394 201.289 555.249L203.087 554.203C203.767 555.336 204.149 556.625 204.198 557.949V557.949Z" fill="#797979"/>
<path opacity="0.6" d="M196.646 554.921C196.646 554.679 196.676 554.438 196.733 554.203V554.203C195.647 553.9 194.848 554.594 194.848 555.968C194.891 556.854 195.139 557.717 195.573 558.489C196.007 559.26 196.614 559.917 197.345 560.408C198.518 561.102 199.517 560.736 199.842 559.626C199.612 559.574 199.393 559.485 199.193 559.361C198.452 558.876 197.835 558.221 197.393 557.449C196.95 556.678 196.694 555.812 196.646 554.921V554.921Z" fill="white"/>
<path opacity="0.1" d="M196.646 554.921C196.646 554.679 196.676 554.438 196.733 554.203V554.203C195.647 553.9 194.848 554.594 194.848 555.968C194.891 556.854 195.139 557.717 195.573 558.489C196.007 559.26 196.614 559.917 197.345 560.408C198.518 561.102 199.517 560.736 199.842 559.626C199.612 559.574 199.393 559.485 199.193 559.361C198.452 558.876 197.835 558.221 197.393 557.449C196.95 556.678 196.694 555.812 196.646 554.921V554.921Z" fill="#797979"/>
<path opacity="0.7" d="M198.618 552.374L182.127 542.75V554.581L198.618 564.205C200.715 565.466 202.363 564.432 202.363 561.997V559.033C202.306 557.703 201.937 556.405 201.286 555.247C200.635 554.089 199.72 553.104 198.618 552.374ZM197.37 560.408C196.64 559.916 196.034 559.258 195.601 558.487C195.167 557.716 194.918 556.854 194.873 555.968C194.873 554.329 196.009 553.673 197.37 554.493C198.101 554.981 198.708 555.636 199.141 556.405C199.575 557.174 199.824 558.036 199.867 558.92C199.917 560.559 198.78 561.215 197.382 560.408H197.37Z" fill="white"/>
<path d="M213.837 543.494L197.346 533.871L195.548 534.917V546.748L212.039 556.372C212.422 556.655 212.873 556.829 213.345 556.876C213.817 556.922 214.293 556.84 214.723 556.637L216.521 555.577C216.906 555.305 217.212 554.933 217.405 554.5C217.599 554.067 217.673 553.59 217.619 553.118V550.116C217.549 548.789 217.17 547.498 216.513 546.347C215.856 545.197 214.939 544.219 213.837 543.494V543.494ZM210.803 546.66C211.536 547.149 212.144 547.807 212.578 548.578C213.011 549.349 213.259 550.213 213.3 551.1C213.299 551.334 213.27 551.567 213.213 551.794C212.983 551.742 212.764 551.652 212.563 551.529C211.832 551.038 211.225 550.38 210.792 549.609C210.358 548.838 210.11 547.975 210.067 547.089C210.067 546.851 210.096 546.614 210.154 546.383C210.382 546.445 210.6 546.538 210.803 546.66V546.66Z" fill="#C3DBF2"/>
<path opacity="0.85" d="M213.837 543.494L197.333 533.871L195.548 534.917L212.039 544.541C213.134 545.27 214.044 546.25 214.694 547.4C215.345 548.551 215.718 549.84 215.784 551.163V554.165C215.84 554.655 215.759 555.152 215.549 555.598C215.339 556.044 215.01 556.421 214.598 556.687H214.686L216.483 555.628C216.869 555.356 217.174 554.984 217.368 554.551C217.561 554.118 217.635 553.64 217.582 553.168V550.166C217.521 548.835 217.15 547.537 216.499 546.378C215.848 545.218 214.936 544.231 213.837 543.494V543.494Z" fill="white"/>
<path d="M217.619 550.116V553.118C217.672 553.59 217.598 554.067 217.404 554.5C217.211 554.933 216.905 555.305 216.52 555.577L214.722 556.637H214.647C215.057 556.369 215.384 555.991 215.591 555.545C215.799 555.099 215.878 554.603 215.821 554.114V551.112C215.776 549.776 215.394 548.473 214.71 547.328L216.508 546.282C217.201 547.44 217.584 548.762 217.619 550.116V550.116Z" fill="#C3DBF2"/>
<path opacity="0.6" d="M217.619 550.116V553.118C217.672 553.59 217.598 554.067 217.404 554.5C217.211 554.933 216.905 555.305 216.52 555.577L214.722 556.637H214.647C215.057 556.369 215.384 555.991 215.591 555.545C215.799 555.099 215.878 554.603 215.821 554.114V551.112C215.776 549.776 215.394 548.473 214.71 547.328L216.508 546.282C217.201 547.44 217.584 548.762 217.619 550.116V550.116Z" fill="white"/>
<path opacity="0.05" d="M217.619 550.116V553.118C217.672 553.59 217.598 554.067 217.404 554.5C217.211 554.933 216.905 555.305 216.52 555.577L214.722 556.637H214.647C215.057 556.369 215.384 555.991 215.591 555.545C215.799 555.099 215.878 554.603 215.821 554.114V551.112C215.776 549.776 215.394 548.473 214.71 547.328L216.508 546.282C217.201 547.44 217.584 548.762 217.619 550.116V550.116Z" fill="#797979"/>
<path opacity="0.6" d="M210.066 547.089C210.066 546.851 210.096 546.614 210.153 546.383C209.08 546.08 208.268 546.761 208.268 548.136C208.311 549.022 208.559 549.885 208.993 550.656C209.427 551.427 210.034 552.085 210.765 552.576C211.938 553.269 212.937 552.904 213.262 551.794C213.032 551.742 212.813 551.652 212.612 551.529C211.872 551.043 211.255 550.388 210.813 549.617C210.37 548.845 210.114 547.979 210.066 547.089V547.089Z" fill="white"/>
<path opacity="0.1" d="M210.066 547.089C210.066 546.851 210.096 546.614 210.153 546.383C209.08 546.08 208.268 546.761 208.268 548.136C208.311 549.022 208.559 549.885 208.993 550.656C209.427 551.427 210.034 552.085 210.765 552.576C211.938 553.269 212.937 552.904 213.262 551.794C213.032 551.742 212.813 551.652 212.612 551.529C211.872 551.043 211.255 550.388 210.813 549.617C210.37 548.845 210.114 547.979 210.066 547.089V547.089Z" fill="#797979"/>
<path opacity="0.7" d="M212.052 544.541L195.548 534.917V546.748L212.039 556.372C214.136 557.633 215.784 556.611 215.784 554.165V551.163C215.717 549.841 215.344 548.554 214.696 547.404C214.048 546.254 213.142 545.274 212.052 544.541ZM210.803 552.575C210.072 552.084 209.465 551.427 209.031 550.656C208.598 549.885 208.349 549.021 208.306 548.136C208.306 546.508 209.442 545.84 210.803 546.66C211.536 547.149 212.144 547.806 212.578 548.578C213.011 549.349 213.259 550.213 213.3 551.1C213.337 552.727 212.201 553.395 210.803 552.575Z" fill="white"/>
<path d="M270.65 477.226L317.589 449.792C322.433 446.98 324.855 443.272 324.855 439.576C324.855 435.88 324.855 432.979 324.855 432.979L276.168 405.231C274.806 404.334 273.672 403.125 272.859 401.703C272.046 400.281 271.575 398.685 271.486 397.045V338.572L189.492 386.501V444.987C189.578 446.625 190.046 448.219 190.857 449.639C191.668 451.059 192.801 452.266 194.161 453.16L235.633 477.226C245.283 482.864 260.975 482.864 270.65 477.226Z" fill="#C3DBF2"/>
<g opacity="0.6">
<path opacity="0.6" d="M270.65 477.226L317.589 449.792C322.433 446.98 324.855 443.272 324.855 439.576C324.855 435.88 324.855 432.979 324.855 432.979L276.168 405.231C274.806 404.334 273.672 403.125 272.859 401.703C272.046 400.281 271.575 398.685 271.486 397.045V338.572L189.492 386.501V444.987C189.578 446.625 190.046 448.219 190.857 449.639C191.668 451.059 192.801 452.266 194.161 453.16L235.633 477.226C245.283 482.864 260.975 482.864 270.65 477.226Z" fill="#797979"/>
</g>
<path opacity="0.3" d="M209.179 455.279V461.913L194.199 453.16C192.842 452.262 191.712 451.055 190.901 449.635C190.09 448.216 189.62 446.623 189.53 444.987V386.45L205.11 377.407C205.422 381.405 205.784 385.555 206.108 389.591L195.148 395.998V441.682C195.227 443.321 195.692 444.918 196.504 446.339C197.316 447.76 198.452 448.966 199.816 449.856L209.179 455.279Z" fill="#797979"/>
<path d="M195.147 441.632C195.233 443.27 195.701 444.864 196.512 446.284C197.324 447.704 198.456 448.911 199.816 449.805L235.633 470.629C245.308 476.267 261 476.28 270.687 470.629L317.652 443.208C327.327 437.57 327.327 428.413 317.652 422.763L281.823 401.939C280.463 401.041 279.331 399.832 278.52 398.41C277.709 396.988 277.241 395.392 277.154 393.753V348.056L195.16 395.986L195.147 441.632Z" fill="#C3DBF2"/>
<path opacity="0.3" d="M195.147 441.632C195.233 443.27 195.701 444.864 196.512 446.284C197.324 447.704 198.456 448.911 199.816 449.805L235.633 470.629C245.308 476.267 261 476.28 270.687 470.629L317.652 443.208C327.327 437.57 327.327 428.413 317.652 422.763L281.823 401.939C280.463 401.041 279.331 399.832 278.52 398.41C277.709 396.988 277.241 395.392 277.154 393.753V348.056L195.16 395.986L195.147 441.632Z" fill="#797979"/>
<path opacity="0.5" d="M291.335 407.489L281.823 401.939C280.463 401.041 279.331 399.832 278.52 398.41C277.708 396.988 277.241 395.392 277.154 393.753V348.056L195.16 395.986V441.682C195.245 443.32 195.713 444.914 196.524 446.334C197.336 447.755 198.468 448.961 199.829 449.855L209.192 455.317L291.335 407.489Z" fill="#797979"/>
<path d="M324.867 432.979V439.576C324.867 443.284 322.371 446.967 317.602 449.805L270.65 477.213C265.505 479.993 259.756 481.437 253.921 481.413V474.842C259.756 474.866 265.505 473.422 270.65 470.642L317.602 443.209C322.433 440.396 324.867 436.688 324.867 432.979Z" fill="#C3DBF2"/>
<path opacity="0.5" d="M324.867 432.979V439.576C324.867 443.284 322.371 446.967 317.602 449.805L270.65 477.213C265.505 479.993 259.756 481.437 253.921 481.413V474.842C259.756 474.866 265.505 473.422 270.65 470.642L317.602 443.209C322.433 440.396 324.867 436.688 324.867 432.979Z" fill="#797979"/>
<path d="M63.4797 498.491C65.2501 499.36 67.1988 499.793 69.1665 499.756C71.1343 499.718 73.0655 499.212 74.8025 498.277L391.893 313.295C395.114 311.416 397.723 306.837 397.723 308.124V16.3235C397.723 7.49444 395.226 3.02946 392.243 1.26365C390.474 0.397166 388.527 -0.03504 386.562 0.00222013C384.597 0.0394803 382.668 0.545153 380.932 1.47807L63.8542 186.459C62.1527 187.577 60.7367 189.085 59.7214 190.86C58.7061 192.636 58.1203 194.628 58.0117 196.676V488.401C58.0659 490.4 58.5901 492.358 59.5408 494.112C60.4915 495.867 61.8416 497.368 63.4797 498.491V498.491Z" fill="#C3DBF2"/>
<path d="M74.8029 498.214L391.893 313.232C395.114 311.353 397.736 306.774 397.736 308.048V16.3108C397.736 7.48176 395.114 5.98082 391.893 7.86015L74.8029 192.842C73.1014 193.959 71.6854 195.467 70.6701 197.243C69.6548 199.018 69.069 201.011 68.9604 203.058V494.795C68.9604 498.567 71.5821 500.093 74.8029 498.214Z" fill="#C3DBF2"/>
<path opacity="0.5" d="M74.8029 498.214L391.893 313.232C395.114 311.353 397.736 306.774 397.736 308.048V16.3108C397.736 7.48176 395.114 5.98082 391.893 7.86015L74.8029 192.842C73.1014 193.959 71.6854 195.467 70.6701 197.243C69.6548 199.018 69.069 201.011 68.9604 203.058V494.795C68.9604 498.567 71.5821 500.093 74.8029 498.214Z" fill="#797979"/>
<path d="M73.9414 504.949C72.2834 505.671 70.4912 506.024 68.6862 505.985C66.8813 505.946 65.1057 505.515 63.4799 504.722C61.8497 503.607 60.5033 502.119 59.5509 500.378C58.5985 498.638 58.0669 496.695 57.9995 494.707V476.141L68.9603 482.548V501.102C68.9603 504.533 71.1201 506.059 73.9414 504.949Z" fill="#C3DBF2"/>
<path opacity="0.5" d="M73.9414 504.949C72.2834 505.671 70.4912 506.024 68.6862 505.985C66.8813 505.946 65.1057 505.515 63.4799 504.722C61.8497 503.607 60.5033 502.119 59.5509 500.378C58.5985 498.638 58.0669 496.695 57.9995 494.707V476.141L68.9603 482.548V501.102C68.9603 504.533 71.1201 506.059 73.9414 504.949Z" fill="#797979"/>
<path d="M68.9604 482.548V501.089C68.9604 504.873 71.5821 506.387 74.8029 504.495L391.893 319.526C393.594 318.405 395.01 316.894 396.025 315.117C397.04 313.34 397.626 311.346 397.736 309.297V290.705L68.9604 482.548Z" fill="#C3DBF2"/>
<path opacity="0.3" d="M68.9604 482.498V501.089C68.9604 504.873 71.5821 506.387 74.8029 504.495L391.893 319.526C393.594 318.405 395.01 316.894 396.025 315.117C397.04 313.34 397.626 311.346 397.736 309.297V290.705L68.9604 482.498Z" fill="#797979"/>
<path d="M79.9209 459.24V206.741C79.9881 205.511 80.3407 204.314 80.95 203.247C81.5594 202.18 82.4085 201.273 83.4289 200.599L383.292 25.6824C385.227 24.5598 386.8 25.4679 386.8 27.7257V280.287C386.732 281.516 386.38 282.711 385.77 283.776C385.161 284.84 384.312 285.745 383.292 286.417L83.4289 461.296C81.4939 462.418 79.9209 461.497 79.9209 459.24Z" fill="#C3DBF2"/>
<path d="M79.9209 459.24V206.741C79.9881 205.511 80.3407 204.314 80.95 203.247C81.5594 202.18 82.4085 201.273 83.4289 200.599L383.292 25.6824C385.227 24.5598 386.8 25.4679 386.8 27.7257V280.287C386.732 281.516 386.38 282.711 385.77 283.776C385.161 284.84 384.312 285.745 383.292 286.417L83.4289 461.296C81.4939 462.418 79.9209 461.497 79.9209 459.24Z" fill="#6F7D84"/>
<path opacity="0.7" d="M70.6831 197.218C69.6451 198.993 69.0536 200.998 68.9603 203.058V482.548L57.9995 476.141V196.676C58.0749 194.619 58.6631 192.615 59.7098 190.849L70.6831 197.218Z" fill="#797979"/>
<path opacity="0.3" d="M397.711 10.2941C397.299 7.25438 394.865 6.15706 391.918 7.8598L74.8279 192.841C73.1011 193.923 71.6783 195.434 70.6957 197.23L59.7349 190.836C60.7246 189.044 62.1459 187.535 63.867 186.446L380.97 1.54072C382.707 0.605732 384.638 0.0989274 386.606 0.0616635C388.574 0.0243996 390.522 0.457733 392.293 1.3263C393.775 2.34586 395.025 3.67316 395.959 5.21959C396.894 6.76602 397.491 8.49602 397.711 10.2941V10.2941Z" fill="#797979"/>
<path d="M110.046 474.627C109.351 475.042 108.567 475.28 107.761 475.321C106.612 475.473 105.445 475.266 104.415 474.728C103.599 474.165 102.926 473.414 102.453 472.537C101.98 471.66 101.72 470.682 101.694 469.683V240.632L107.174 243.823V472.925C107.174 474.261 107.836 475.031 108.785 475.031C109.23 474.994 109.661 474.856 110.046 474.627V474.627Z" fill="#F0F0F0"/>
<path d="M411.444 295.423C411.383 296.435 411.089 297.419 410.583 298.295C410.078 299.171 409.377 299.915 408.535 300.468L110.046 474.627C108.448 475.561 107.149 474.804 107.149 472.925V224.79L115.152 220.123C116.75 219.19 119.359 204.988 120.969 203.991L190.379 163.504C191.99 162.571 195.772 173.102 197.37 172.156L411.444 47.2882V295.423Z" fill="#FAFAFA"/>
<path d="M410.096 49.5965V295.423C410.04 296.203 409.81 296.96 409.423 297.637C409.036 298.314 408.502 298.894 407.861 299.333L109.372 473.454C109.187 473.573 108.977 473.646 108.76 473.669C108.485 473.669 108.485 472.963 108.485 472.925V225.56L115.826 221.271C116.987 220.59 117.711 218.307 119.346 212.442C119.93 209.929 120.732 207.472 121.743 205.101L190.529 164.98C191.345 166.095 192.075 167.271 192.714 168.499C194.586 171.829 195.635 173.544 197.158 173.544C197.471 173.544 197.778 173.457 198.044 173.292L410.096 49.5965ZM411.444 47.2505L197.37 172.119C197.306 172.158 197.233 172.18 197.158 172.182C195.535 172.182 192.165 163.353 190.592 163.353C190.522 163.334 190.449 163.334 190.379 163.353L120.969 203.84C119.359 204.786 116.75 218.976 115.152 219.972L107.149 224.79V472.925C107.149 474.262 107.799 475.031 108.76 475.031C109.204 475.011 109.635 474.872 110.008 474.627L408.535 300.468C409.377 299.915 410.078 299.171 410.583 298.295C411.089 297.419 411.383 296.435 411.444 295.423V47.2505Z" fill="#E0E0E0"/>
<path d="M104.415 233.808C103.596 233.247 102.921 232.496 102.446 231.619C101.97 230.742 101.708 229.763 101.681 228.763V205.871C101.738 204.862 102.028 203.881 102.526 203.005C103.025 202.129 103.718 201.383 104.552 200.826L403.042 26.767C403.882 26.2292 404.851 25.9341 405.846 25.9138C406.84 25.8935 407.82 26.1487 408.681 26.6517C409.542 27.1548 410.25 27.8865 410.728 28.7673C411.206 29.6481 411.436 30.6445 411.394 31.6482V54.5155C411.335 55.5281 411.041 56.5126 410.536 57.3892C410.03 58.2657 409.328 59.0096 408.485 59.5606L110.045 233.708C109.18 234.169 108.22 234.418 107.242 234.436C106.264 234.453 105.296 234.239 104.415 233.808V233.808Z" fill="#C3DBF2"/>
<path opacity="0.4" d="M411.406 31.0682C411.207 29.542 409.983 28.9871 408.535 29.8069L110.046 203.966C109.194 204.525 108.487 205.282 107.986 206.174L102.53 202.983C103.019 202.107 103.714 201.366 104.553 200.826L403.042 26.7672C403.846 26.2493 404.771 25.955 405.723 25.9138C406.676 25.8726 407.622 26.086 408.467 26.5326C409.312 26.9791 410.025 27.643 410.534 28.457C411.044 29.2711 411.332 30.2066 411.369 31.1691L411.406 31.0682Z" fill="white"/>
<path opacity="0.1" d="M107.986 206.174C107.467 207.048 107.179 208.043 107.149 209.062V243.886L101.669 240.695V205.871C101.663 205.753 101.663 205.635 101.669 205.518C101.691 205.272 101.729 205.027 101.781 204.786C101.937 204.15 102.181 203.538 102.505 202.97L107.986 206.174Z" fill="#797979"/>
<path d="M411.431 31.5351V47.2508L197.358 172.119C195.76 173.065 194.462 172.295 194.462 170.429V164.475C194.462 162.609 193.213 161.839 191.54 162.785L120.957 203.954C120.116 204.507 119.415 205.252 118.91 206.128C118.404 207.004 118.109 207.987 118.048 208.999V214.94C117.984 215.951 117.688 216.934 117.184 217.81C116.679 218.686 115.979 219.43 115.139 219.985L107.149 224.791V209.062C107.211 208.052 107.505 207.07 108.008 206.194C108.511 205.319 109.208 204.573 110.046 204.017L408.535 29.9584C410.133 28.8989 411.431 29.6683 411.431 31.5351Z" fill="#C3DBF2"/>
<path d="M397.799 41.3855C399.822 40.2125 401.457 41.1711 401.457 43.5297C401.388 44.8128 401.021 46.0615 400.385 47.1746C399.75 48.2878 398.864 49.2341 397.799 49.9371C395.777 51.1101 394.129 50.1515 394.129 47.7929C394.2 46.5089 394.57 45.2599 395.207 44.1468C395.845 43.0337 396.733 42.0878 397.799 41.3855V41.3855Z" fill="white"/>
<path d="M384.616 49.0671C386.638 47.8941 388.274 48.8401 388.274 51.1987C388.206 52.4823 387.84 53.7317 387.204 54.8451C386.569 55.9586 385.682 56.9046 384.616 57.6061C382.593 58.7917 380.958 57.8331 380.958 55.4745C381.027 54.1913 381.394 52.9427 382.03 51.8296C382.665 50.7164 383.551 49.7701 384.616 49.0671V49.0671Z" fill="white"/>
<path d="M371.432 56.7482C373.455 55.5625 375.09 56.5211 375.09 58.8797C375.021 60.1629 374.654 61.4115 374.018 62.5247C373.383 63.6378 372.497 64.5841 371.432 65.2871C369.41 66.4601 367.774 65.5142 367.774 63.1555C367.842 61.872 368.208 60.6226 368.844 59.5091C369.479 58.3957 370.366 57.4497 371.432 56.7482V56.7482Z" fill="white"/>
<path d="M411.444 47.2505V66.3591L107.149 243.886V224.79L113.129 221.296C114.727 220.363 115.264 218.938 116.025 216.251L118.06 209.138C118.697 206.615 119.309 204.988 120.969 204.092L190.379 163.605C191.99 162.672 193.251 162.571 194.474 164.614L196.971 169.18C197.882 170.769 198.344 171.702 199.942 170.769L411.444 47.2505Z" fill="#E6E6E6"/>
<path d="M107.149 224.765V243.886L101.669 240.695V221.599L107.149 224.765Z" fill="#E0E0E0"/>
<path opacity="0.5" d="M120.494 226.153L115.925 228.814L117.661 225.434C117.731 225.306 117.767 225.163 117.767 225.017C117.767 224.872 117.731 224.728 117.661 224.601C117.523 224.437 117.299 224.601 117.136 224.853L114.639 229.659C114.639 229.659 114.639 229.772 114.577 229.836C114.515 229.899 114.577 229.836 114.577 229.836C114.571 229.915 114.571 229.995 114.577 230.075C114.569 230.146 114.569 230.218 114.577 230.29C114.577 230.29 114.577 230.29 114.577 230.29C114.595 230.325 114.616 230.359 114.639 230.39V230.39L117.136 232.308C117.172 232.336 117.216 232.352 117.261 232.352C117.306 232.352 117.351 232.336 117.386 232.308C117.514 232.224 117.61 232.1 117.661 231.954C117.798 231.639 117.773 231.286 117.661 231.172L115.925 229.81L120.494 227.149C120.61 227.056 120.703 226.936 120.766 226.801C120.829 226.665 120.86 226.517 120.856 226.367C120.856 226.19 120.694 226.052 120.494 226.153Z" fill="#6F7D84"/>
<path opacity="0.5" d="M124.302 223.92L128.871 221.259L127.123 219.909C127.049 219.79 127.01 219.652 127.01 219.512C127.01 219.371 127.049 219.233 127.123 219.114C127.248 218.799 127.485 218.648 127.635 218.761L130.132 220.691C130.166 220.717 130.192 220.752 130.207 220.792C130.207 220.792 130.207 220.792 130.207 220.792C130.22 220.863 130.22 220.936 130.207 221.006C130.219 221.09 130.219 221.175 130.207 221.259C130.207 221.259 130.207 221.259 130.207 221.259L130.132 221.448L127.635 226.266C127.587 226.381 127.504 226.479 127.398 226.543C127.361 226.579 127.312 226.599 127.261 226.599C127.21 226.599 127.16 226.579 127.123 226.543C127.052 226.419 127.015 226.277 127.015 226.134C127.015 225.99 127.052 225.848 127.123 225.724L128.871 222.343L124.302 225.005C124.102 225.118 123.94 225.005 123.94 224.652C123.946 224.511 123.981 224.373 124.043 224.247C124.106 224.12 124.194 224.009 124.302 223.92V223.92Z" fill="#6F7D84"/>
<path opacity="0.5" d="M139.282 210.638C139.282 210.361 139.02 210.386 138.895 210.638L138.271 212.19C137.197 212.076 135.911 213.123 135.038 214.99C133.902 217.412 133.902 220.275 135.038 221.372C135.311 221.63 135.665 221.784 136.039 221.807C136.412 221.83 136.782 221.721 137.085 221.498C137.999 220.876 138.714 220 139.145 218.976C139.214 218.852 139.25 218.713 139.25 218.572C139.25 218.431 139.214 218.292 139.145 218.168C138.995 218.03 138.77 218.168 138.62 218.471C137.772 220.275 136.398 221.082 135.562 220.262C134.725 219.442 134.713 217.298 135.562 215.494C136.161 214.233 137.023 213.451 137.772 213.401L137.31 214.574C137.185 214.876 137.31 215.154 137.484 215.028L139.345 213.766C139.421 213.709 139.481 213.632 139.518 213.543C139.556 213.455 139.569 213.358 139.557 213.262L139.282 210.638Z" fill="#6F7D84"/>
<path opacity="0.5" d="M188.369 172.207L190.042 168.65C190.136 168.481 190.185 168.289 190.185 168.095C190.185 167.901 190.136 167.71 190.042 167.54C189.842 167.351 189.518 167.54 189.33 167.956L187.657 171.513L185.997 169.899C185.797 169.71 185.485 169.899 185.286 170.315C185.185 170.482 185.132 170.674 185.132 170.87C185.132 171.066 185.185 171.258 185.286 171.425L186.946 173.077L185.286 176.634C185.185 176.801 185.132 176.993 185.132 177.189C185.132 177.385 185.185 177.577 185.286 177.744C185.334 177.787 185.396 177.811 185.46 177.811C185.525 177.811 185.587 177.787 185.635 177.744C185.798 177.638 185.925 177.484 185.997 177.303L187.657 173.746L189.33 175.36C189.378 175.404 189.441 175.428 189.505 175.428C189.57 175.428 189.632 175.404 189.68 175.36C189.843 175.254 189.969 175.1 190.042 174.919C190.136 174.749 190.185 174.558 190.185 174.364C190.185 174.169 190.136 173.978 190.042 173.809L188.369 172.207Z" fill="#6F7D84"/>
<path d="M145.35 215.015V209.062C145.41 208.05 145.705 207.066 146.21 206.19C146.715 205.314 147.417 204.569 148.258 204.017L392.156 61.7554C393.766 60.8095 395.065 61.5789 395.065 63.4456V69.3989C395.004 70.4111 394.709 71.3948 394.204 72.271C393.699 73.1473 392.997 73.8915 392.156 74.4441L148.246 216.705C146.648 217.651 145.35 216.882 145.35 215.015Z" fill="#FAFAFA"/>
<path d="M388.199 74.9484C388.112 74.9628 388.023 74.9628 387.936 74.9484C387.773 74.8721 387.641 74.7416 387.561 74.5787C387.482 74.4157 387.46 74.2302 387.499 74.0529L387.787 71.6439L386.663 70.824C386.565 70.7464 386.487 70.6465 386.435 70.5325C386.383 70.4184 386.359 70.2936 386.363 70.1681C386.359 69.9723 386.399 69.778 386.481 69.6007C386.564 69.4234 386.686 69.2679 386.838 69.1465L388.548 67.8095C388.582 67.7687 388.607 67.7216 388.623 67.6708L389.385 65.1482C389.431 64.9406 389.538 64.7517 389.692 64.6057C389.845 64.4597 390.038 64.3631 390.246 64.3283C390.386 64.3122 390.528 64.3429 390.65 64.4158C390.772 64.4886 390.867 64.5997 390.92 64.732V64.732L391.557 66.1068L393.005 65.5518C393.134 65.4937 393.277 65.4795 393.415 65.5114C393.552 65.5432 393.676 65.6194 393.766 65.7284C393.885 65.9028 393.948 66.1095 393.948 66.3212C393.948 66.5328 393.885 66.7395 393.766 66.914L392.518 69.26C392.512 69.3061 392.512 69.3527 392.518 69.3987L392.818 71.5177C392.841 71.7116 392.819 71.9081 392.754 72.092C392.689 72.2758 392.582 72.4419 392.443 72.5772C392.361 72.6744 392.257 72.7494 392.139 72.7957C392.021 72.8419 391.894 72.8579 391.769 72.8421L390.433 72.6277L388.923 74.5701C388.842 74.6886 388.734 74.7852 388.608 74.8513C388.481 74.9173 388.341 74.9507 388.199 74.9484V74.9484ZM387.375 70.0294L388.498 70.8492C388.614 70.9451 388.703 71.0703 388.756 71.2121C388.808 71.3538 388.823 71.5072 388.798 71.6565L388.598 73.2709L389.609 72.0096C389.696 71.8854 389.812 71.7855 389.948 71.7193C390.083 71.6531 390.233 71.6228 390.383 71.6312L391.781 71.8078C391.791 71.7536 391.791 71.6981 391.781 71.6439L391.482 69.5249C391.458 69.2633 391.51 69.0005 391.632 68.7681L392.718 66.7122L391.682 67.1284C391.517 67.1969 391.333 67.1983 391.168 67.1324C391.003 67.0666 390.869 66.9386 390.795 66.7753L390.296 65.6905L389.609 67.9483C389.538 68.2023 389.389 68.4273 389.185 68.5915L387.474 69.8528C387.425 69.901 387.391 69.9622 387.375 70.0294V70.0294Z" fill="#E0E0E0"/>
<g opacity="0.5">
<path opacity="0.5" d="M398.498 61.0237C398.274 61.0303 398.054 60.9607 397.874 60.826C397.694 60.6913 397.564 60.4994 397.505 60.2812C397.446 60.0629 397.461 59.8309 397.548 59.6224C397.636 59.414 397.79 59.2412 397.986 59.1318L406.175 54.3515C406.29 54.2752 406.419 54.2235 406.555 54.1994C406.69 54.1753 406.829 54.1794 406.963 54.2115C407.097 54.2436 407.223 54.3029 407.333 54.3859C407.444 54.4688 407.536 54.5737 407.605 54.694C407.674 54.8143 407.718 54.9475 407.734 55.0856C407.75 55.2236 407.738 55.3635 407.699 55.4968C407.66 55.63 407.594 55.7538 407.506 55.8605C407.418 55.9672 407.309 56.0546 407.186 56.1173L398.997 60.885C398.847 60.979 398.674 61.0272 398.498 61.0237V61.0237Z" fill="#6F7D84"/>
<path opacity="0.5" d="M398.497 65.8671C398.32 65.8687 398.146 65.8228 397.993 65.7342C397.839 65.6455 397.712 65.5173 397.623 65.3626C397.49 65.1277 397.454 64.8496 397.522 64.5879C397.589 64.3262 397.756 64.1017 397.985 63.9625L406.175 59.1948C406.289 59.1267 406.416 59.0821 406.548 59.0637C406.68 59.0452 406.814 59.0532 406.943 59.0871C407.071 59.1211 407.192 59.1804 407.298 59.2617C407.404 59.3429 407.493 59.4445 407.56 59.5606C407.627 59.6763 407.67 59.8042 407.687 59.9369C407.705 60.0696 407.696 60.2044 407.661 60.3335C407.626 60.4627 407.566 60.5835 407.484 60.689C407.403 60.7945 407.301 60.8825 407.186 60.948L398.996 65.7283C398.847 65.8224 398.673 65.8706 398.497 65.8671V65.8671Z" fill="#6F7D84"/>
<path opacity="0.5" d="M398.498 70.5844C398.275 70.5851 398.059 70.5116 397.882 70.3753C397.705 70.239 397.577 70.0475 397.519 69.8305C397.46 69.6135 397.475 69.3831 397.559 69.1751C397.643 68.9671 397.793 68.793 397.986 68.6799L406.175 63.8996C406.409 63.7664 406.685 63.7315 406.945 63.8022C407.204 63.873 407.425 64.0439 407.561 64.2779C407.628 64.3936 407.671 64.5215 407.688 64.6542C407.705 64.7869 407.696 64.9218 407.661 65.0509C407.626 65.18 407.566 65.3008 407.485 65.4063C407.403 65.5118 407.302 65.5999 407.186 65.6654L398.997 70.4457C398.845 70.5339 398.673 70.5816 398.498 70.5844V70.5844Z" fill="#6F7D84"/>
</g>
<g opacity="0.5">
<path opacity="0.5" d="M116.125 249.234C115.901 249.241 115.682 249.171 115.502 249.036C115.322 248.902 115.192 248.71 115.133 248.491C115.073 248.273 115.089 248.041 115.176 247.833C115.263 247.624 115.417 247.451 115.613 247.342L123.803 242.562C124.033 242.444 124.3 242.42 124.547 242.494C124.795 242.569 125.005 242.736 125.134 242.962C125.264 243.188 125.302 243.455 125.243 243.709C125.183 243.963 125.03 244.184 124.814 244.328L116.624 249.095C116.474 249.187 116.301 249.235 116.125 249.234V249.234Z" fill="#6F7D84"/>
<path opacity="0.5" d="M116.125 254.015C115.948 254.016 115.774 253.97 115.62 253.882C115.467 253.793 115.339 253.665 115.251 253.51C115.183 253.394 115.139 253.266 115.121 253.133C115.103 253 115.111 252.864 115.144 252.734C115.178 252.604 115.237 252.482 115.317 252.375C115.397 252.268 115.498 252.178 115.613 252.11L123.802 247.342C123.916 247.274 124.042 247.23 124.173 247.212C124.304 247.193 124.437 247.202 124.564 247.236C124.692 247.27 124.812 247.329 124.917 247.41C125.022 247.491 125.11 247.592 125.175 247.708C125.243 247.824 125.287 247.952 125.305 248.085C125.324 248.218 125.316 248.354 125.282 248.484C125.248 248.614 125.19 248.736 125.109 248.843C125.029 248.95 124.928 249.04 124.813 249.108L116.624 253.876C116.473 253.968 116.301 254.016 116.125 254.015Z" fill="#6F7D84"/>
<path opacity="0.5" d="M116.125 258.845C115.903 258.846 115.686 258.772 115.509 258.636C115.332 258.5 115.204 258.308 115.146 258.091C115.088 257.874 115.102 257.644 115.186 257.436C115.271 257.228 115.421 257.054 115.613 256.941L123.803 252.173C123.916 252.103 124.042 252.058 124.173 252.038C124.304 252.019 124.438 252.027 124.566 252.061C124.694 252.095 124.814 252.155 124.919 252.237C125.024 252.319 125.111 252.422 125.176 252.539C125.243 252.654 125.287 252.781 125.305 252.913C125.323 253.045 125.315 253.18 125.282 253.309C125.248 253.438 125.189 253.559 125.109 253.665C125.029 253.771 124.928 253.859 124.814 253.926L116.624 258.706C116.472 258.793 116.3 258.841 116.125 258.845Z" fill="#6F7D84"/>
</g>
<path d="M188.756 207.132V214.46C188.756 215.961 189.805 216.566 191.09 215.822L288.377 158.988V146.199L191.103 203.033C190.42 203.481 189.851 204.086 189.443 204.798C189.035 205.51 188.8 206.31 188.756 207.132V207.132Z" fill="#E6E6E6"/>
<path d="M300.636 139.022C301.885 138.265 302.971 138.883 302.971 140.384V147.712C302.925 148.531 302.691 149.327 302.285 150.036C301.88 150.746 301.315 151.35 300.636 151.799L288.377 158.95V146.199L300.636 139.022Z" fill="#C3DBF2"/>
<path d="M299.725 149.112L298.364 148.671C298.503 148.089 298.574 147.492 298.576 146.893C298.64 146.334 298.558 145.767 298.339 145.25C298.12 144.732 297.772 144.281 297.328 143.941C297.019 143.775 296.671 143.697 296.322 143.715C295.972 143.732 295.634 143.845 295.343 144.042C294.473 144.717 293.772 145.589 293.297 146.588C292.822 147.587 292.586 148.685 292.609 149.794C292.546 150.353 292.628 150.919 292.846 151.436C293.065 151.954 293.414 152.405 293.858 152.745C294.12 152.895 294.417 152.973 294.719 152.972C295.116 152.968 295.504 152.855 295.843 152.644C296.886 151.922 297.663 150.871 298.052 149.655L299.425 150.084C299.475 150.096 299.526 150.096 299.575 150.084C299.703 150.097 299.831 150.06 299.932 149.981C300.033 149.901 300.101 149.786 300.12 149.658C300.139 149.529 300.109 149.399 300.035 149.293C299.962 149.186 299.851 149.113 299.725 149.087V149.112ZM295.343 151.761C295.202 151.865 295.036 151.928 294.862 151.943C294.688 151.959 294.514 151.927 294.357 151.849C294.082 151.59 293.871 151.269 293.743 150.911C293.615 150.554 293.573 150.171 293.62 149.794C293.607 148.866 293.8 147.947 294.184 147.104C294.569 146.262 295.135 145.517 295.843 144.925C296.032 144.81 296.246 144.745 296.467 144.736C296.595 144.732 296.721 144.767 296.829 144.837C297.104 145.096 297.315 145.417 297.443 145.775C297.571 146.132 297.613 146.515 297.565 146.893C297.577 147.818 297.383 148.735 296.999 149.575C296.614 150.415 296.049 151.158 295.343 151.749V151.761Z" fill="#FAFAFA"/>
<path d="M148.321 227.981L134.277 236.142C133.598 236.585 133.033 237.183 132.627 237.889C132.221 238.595 131.987 239.388 131.942 240.203V247.506C131.942 249.007 132.991 249.612 134.277 248.868L148.321 240.657C148.999 240.211 149.562 239.609 149.966 238.901C150.369 238.193 150.601 237.399 150.643 236.583V229.331C150.643 227.843 149.607 227.224 148.321 227.981Z" fill="#C3DBF2"/>
<path d="M392.568 85.4927C390.977 86.543 389.653 87.9568 388.703 89.6199C387.753 91.283 387.204 93.1487 387.1 95.0659C387.1 98.5976 389.597 100.023 392.568 98.2696C394.162 97.2188 395.489 95.8034 396.441 94.138C397.394 92.4727 397.944 90.6041 398.048 88.6838C398.048 85.1522 395.589 83.7269 392.568 85.4927Z" fill="#C3DBF2"/>
<path d="M391.931 91.0928C391.76 91.0957 391.592 91.0522 391.444 90.9667C391.27 90.8422 391.13 90.6749 391.039 90.4806C390.947 90.2863 390.906 90.0715 390.92 89.8567C390.943 89.3511 391.085 88.8584 391.335 88.4197C391.585 87.9809 391.934 87.6087 392.355 87.3341V87.3341C392.526 87.1978 392.733 87.1165 392.95 87.1006C393.167 87.0848 393.384 87.1352 393.572 87.2453C393.761 87.3554 393.912 87.5201 394.007 87.7181C394.101 87.9161 394.135 88.1383 394.103 88.3558C394.076 88.862 393.931 89.3547 393.679 89.7932C393.428 90.2317 393.076 90.6036 392.655 90.8784C392.435 91.0096 392.186 91.0833 391.931 91.0928V91.0928Z" fill="white"/>
<path d="M394.728 91.4837C394.424 91.3304 394.085 91.2635 393.746 91.2901C393.407 91.3168 393.082 91.436 392.805 91.6351L392.007 92.1017C391.282 92.5662 390.677 93.1987 390.243 93.9468C389.808 94.6948 389.557 95.5368 389.51 96.4028V96.9829C389.999 97.1965 390.534 97.2785 391.063 97.221C391.592 97.1636 392.098 96.9686 392.531 96.655C393.791 95.8635 394.83 94.761 395.552 93.4513V93.3126C395.586 92.9615 395.528 92.6075 395.383 92.2864C395.238 91.9653 395.012 91.6884 394.728 91.4837V91.4837Z" fill="white"/>
<path d="M373.205 102.596V100.641C373.205 98.4213 371.869 97.3996 370.221 98.3582C369.31 99.0172 368.563 99.8831 368.043 100.886C367.523 101.89 367.243 103.002 367.225 104.135V105.888C367.186 107.093 366.837 108.266 366.214 109.294V109.294C366.059 109.562 365.974 109.866 365.964 110.177V110.177C365.964 110.744 366.301 110.996 366.713 110.757L373.717 106.683C373.945 106.514 374.131 106.294 374.261 106.04C374.391 105.786 374.461 105.505 374.466 105.22C374.474 105.11 374.458 105 374.419 104.898C374.38 104.795 374.32 104.703 374.241 104.627V104.627C373.889 104.43 373.603 104.132 373.418 103.77C373.234 103.409 373.16 103 373.205 102.596V102.596Z" fill="#C3DBF2"/>
<path d="M371.707 108.499C371.698 109.042 371.563 109.576 371.314 110.058C371.065 110.54 370.708 110.956 370.271 111.274C369.472 111.728 368.823 111.274 368.823 110.176L371.707 108.499Z" fill="#C3DBF2"/>
<path d="M347.389 111.879C347.771 111.65 348.196 111.504 348.637 111.45C348.983 111.409 349.333 111.48 349.636 111.652C349.93 111.834 350.161 112.102 350.298 112.421C350.459 112.86 350.523 113.33 350.485 113.796C350.489 114.221 350.443 114.644 350.348 115.057C350.258 115.427 350.141 115.79 349.998 116.142C349.862 116.474 349.707 116.798 349.536 117.113L349.037 118.022C348.887 118.312 348.737 118.614 348.612 118.904C348.493 119.184 348.405 119.476 348.35 119.775C348.338 119.918 348.304 120.058 348.25 120.191C348.208 120.292 348.139 120.379 348.051 120.443L346.64 121.263C346.553 121.263 346.478 121.263 346.428 121.263C346.392 121.224 346.364 121.179 346.347 121.129C346.33 121.079 346.323 121.026 346.328 120.973C346.326 120.584 346.38 120.198 346.49 119.825C346.591 119.46 346.716 119.101 346.865 118.753C347.027 118.413 347.189 118.072 347.376 117.757C347.564 117.441 347.714 117.126 347.876 116.849C348.038 116.571 348.15 116.281 348.263 116.016C348.357 115.779 348.407 115.527 348.413 115.272C348.413 114.919 348.325 114.692 348.163 114.603C348.001 114.515 347.726 114.603 347.376 114.755C347.077 114.914 346.823 115.148 346.64 115.436C346.502 115.662 346.389 115.903 346.303 116.155L346.128 116.785C346.089 116.956 345.986 117.105 345.841 117.202L344.43 118.022C344.405 118.04 344.374 118.05 344.343 118.05C344.311 118.05 344.281 118.04 344.255 118.022C344.227 117.987 344.206 117.946 344.193 117.903C344.18 117.86 344.176 117.814 344.181 117.769C344.198 117.278 344.274 116.792 344.405 116.319C344.564 115.758 344.773 115.214 345.029 114.692C345.302 114.141 345.637 113.625 346.028 113.153C346.402 112.649 346.863 112.217 347.389 111.879V111.879ZM348.388 123.533C348.387 123.669 348.357 123.802 348.3 123.924C348.253 124.033 348.175 124.125 348.076 124.189L346.627 125.034C346.614 125.048 346.597 125.06 346.579 125.067C346.561 125.075 346.541 125.079 346.521 125.079C346.502 125.079 346.482 125.075 346.464 125.067C346.446 125.06 346.429 125.048 346.415 125.034C346.379 124.996 346.352 124.95 346.335 124.9C346.318 124.85 346.311 124.797 346.315 124.744V122.941C346.319 122.804 346.353 122.671 346.415 122.55C346.454 122.436 346.529 122.339 346.627 122.272L348.076 121.427C348.107 121.4 348.147 121.386 348.188 121.386C348.229 121.386 348.269 121.4 348.3 121.427C348.334 121.464 348.358 121.508 348.374 121.556C348.389 121.604 348.393 121.655 348.388 121.704V123.533Z" fill="#C3DBF2"/>
<path d="M241.038 271.854C240.199 271.85 239.394 271.52 238.79 270.932L214.487 247.299C214.141 247.011 213.858 246.654 213.655 246.25C213.452 245.846 213.334 245.405 213.308 244.953C213.282 244.501 213.348 244.048 213.503 243.623C213.658 243.198 213.898 242.81 214.208 242.483C214.518 242.156 214.892 241.897 215.305 241.723C215.719 241.549 216.164 241.462 216.612 241.469C217.06 241.477 217.502 241.577 217.91 241.765C218.317 241.952 218.683 242.223 218.982 242.56L243.318 266.192C243.623 266.498 243.866 266.862 244.031 267.263C244.197 267.664 244.282 268.095 244.282 268.529C244.282 268.964 244.197 269.394 244.031 269.795C243.866 270.196 243.623 270.56 243.318 270.866C242.717 271.486 241.897 271.841 241.038 271.854Z" fill="#9EAAB6"/>
<path d="M216.735 286.138C216.254 286.134 215.777 286.034 215.335 285.842C214.558 285.464 213.962 284.792 213.675 283.972C213.388 283.152 213.434 282.25 213.803 281.464L238.106 229.459C238.474 228.669 239.137 228.059 239.949 227.762C240.762 227.466 241.657 227.508 242.439 227.879C243.221 228.25 243.825 228.92 244.118 229.741C244.411 230.561 244.37 231.466 244.003 232.257L219.7 284.262C219.434 284.827 219.013 285.303 218.488 285.636C217.963 285.968 217.355 286.142 216.735 286.138Z" fill="#9EAAB6"/>
<path d="M320.463 225.773C319.613 225.778 318.795 225.447 318.183 224.851L293.88 201.218C293.273 200.602 292.932 199.767 292.932 198.898C292.932 198.028 293.273 197.194 293.88 196.577C294.182 196.269 294.543 196.024 294.94 195.857C295.337 195.69 295.762 195.604 296.193 195.604C296.623 195.604 297.048 195.69 297.445 195.857C297.842 196.024 298.203 196.269 298.506 196.577L322.809 220.21C323.275 220.665 323.597 221.249 323.733 221.89C323.869 222.53 323.813 223.197 323.571 223.805C323.33 224.413 322.915 224.935 322.378 225.303C321.842 225.671 321.209 225.869 320.561 225.871L320.463 225.773Z" fill="#9EAAB6"/>
<path d="M296.126 239.827C295.654 239.83 295.187 239.729 294.758 239.531C294.366 239.347 294.015 239.087 293.724 238.765C293.434 238.443 293.209 238.066 293.063 237.656C292.918 237.246 292.855 236.81 292.877 236.375C292.899 235.94 293.007 235.513 293.194 235.121L317.497 183.148C317.674 182.749 317.927 182.389 318.243 182.09C318.559 181.791 318.931 181.558 319.337 181.406C319.743 181.254 320.174 181.185 320.607 181.203C321.04 181.221 321.464 181.326 321.856 181.512C322.248 181.698 322.599 181.961 322.889 182.286C323.18 182.61 323.403 182.99 323.546 183.403C323.689 183.816 323.749 184.253 323.723 184.69C323.697 185.127 323.585 185.554 323.394 185.946L299.091 237.951C298.824 238.516 298.404 238.993 297.879 239.325C297.354 239.658 296.746 239.832 296.126 239.827V239.827Z" fill="#9EAAB6"/>
<path d="M215.659 345.055C215.085 345.058 214.52 344.907 214.023 344.618C213.525 344.329 213.112 343.912 212.825 343.41C212.4 342.654 212.288 341.759 212.514 340.92C212.74 340.082 213.285 339.368 214.03 338.933L319.908 277.153C320.66 276.716 321.552 276.599 322.389 276.828C323.226 277.056 323.939 277.611 324.371 278.37C324.803 279.13 324.919 280.032 324.693 280.877C324.467 281.723 323.917 282.443 323.166 282.88L217.288 344.628C216.791 344.912 216.23 345.059 215.659 345.055Z" fill="#9EAAB6"/>
<path d="M289.447 346.8C287.665 346.806 285.913 346.341 284.364 345.45C282.403 344.08 280.834 342.211 279.815 340.033C278.797 337.854 278.366 335.442 278.566 333.041V303.188C278.566 302.315 278.909 301.478 279.52 300.86C280.131 300.243 280.959 299.896 281.823 299.896C282.687 299.896 283.516 300.243 284.127 300.86C284.738 301.478 285.081 302.315 285.081 303.188V333.041C284.943 334.265 285.102 335.504 285.545 336.651C285.988 337.798 286.701 338.819 287.622 339.624C288.577 340.003 289.613 340.126 290.629 339.982C291.644 339.838 292.606 339.431 293.421 338.801C296.847 336.386 299.676 333.206 301.687 329.507C303.698 325.807 304.839 321.689 305.019 317.473V287.619C305.019 286.746 305.362 285.909 305.973 285.292C306.584 284.674 307.413 284.328 308.277 284.328C309.141 284.328 309.969 284.674 310.58 285.292C311.191 285.909 311.534 286.746 311.534 287.619V317.473C311.366 322.847 309.93 328.102 307.346 332.802C304.763 337.502 301.105 341.511 296.679 344.496C294.511 345.894 292.016 346.689 289.447 346.8V346.8Z" fill="#9EAAB6"/>
<path d="M295.051 327.578C294.187 327.578 293.358 327.231 292.747 326.614C292.136 325.996 291.793 325.159 291.793 324.286V295.453C291.793 294.58 292.136 293.743 292.747 293.126C293.358 292.508 294.187 292.162 295.051 292.162C295.915 292.162 296.743 292.508 297.354 293.126C297.965 293.743 298.309 294.58 298.309 295.453V324.286C298.309 325.159 297.965 325.996 297.354 326.614C296.743 327.231 295.915 327.578 295.051 327.578Z" fill="#9EAAB6"/>
<path d="M463.202 461.409C463.202 459.479 462.702 448.796 462.103 438.958C461.479 428.603 461.491 419.13 461.491 419.13L478.819 432.198C475.074 455.456 474.687 460.589 474.624 464.398L474.2 464.751C474.282 465.068 474.316 465.396 474.3 465.723C474.3 470.238 469.306 472.685 465.349 475.712C462.023 478.375 458.472 480.739 454.737 482.775C451.879 484.238 446.074 484.39 445.35 482.536C450.867 479.042 457.459 474.615 461.254 470.377C463.064 468.359 463.077 465.37 463.202 461.409Z" fill="#FFDDCF"/>
<path d="M438.597 488.275C438.412 488.904 438.405 489.573 438.578 490.206C438.75 490.839 439.093 491.411 439.57 491.857C443.13 494.206 447.468 495.032 451.63 494.152C457.56 493.093 460.706 491.239 463.003 489.107C465.3 486.975 468.508 483.961 471.179 483.229C473.313 482.717 475.322 481.773 477.084 480.455C477.846 479.635 477.571 476.166 477.571 476.166L438.597 488.275Z" fill="#A7978C"/>
<path d="M474.675 462.784C474.886 462.825 475.079 462.93 475.229 463.086C475.378 463.242 475.477 463.44 475.511 463.654C475.736 464.613 476.073 467.438 476.535 468.939C477.284 471.681 477.617 474.522 477.521 477.364C477.272 479.168 473.252 480.593 470.68 481.728C467.674 483.236 464.909 485.192 462.478 487.53C458.946 490.462 454.658 492.313 450.119 492.866C445.525 493.042 440.27 491.794 438.984 489.7C437.386 487.102 438.472 485.5 445.138 481.981C446.387 481.312 450.806 478.386 452.304 477.327C456.361 474.476 460.331 470.579 462.041 465.773C462.162 465.188 462.485 464.665 462.953 464.297C463.359 464.096 463.818 464.029 464.264 464.108C465.412 464.212 466.536 464.497 467.597 464.953C468.533 465.344 469.856 465.798 469.894 466.984C469.896 467.413 469.828 467.839 469.694 468.245C469.619 468.498 469.569 468.825 469.781 468.952C469.994 469.078 470.243 468.952 470.418 468.737C471.058 468.017 471.638 467.245 472.153 466.429C472.451 466.005 472.794 465.616 473.177 465.269C473.527 464.953 474.001 464.789 474.313 464.449C474.644 463.963 474.774 463.365 474.675 462.784V462.784Z" fill="#C3DBF2"/>
<path d="M474.675 462.784C474.886 462.825 475.079 462.93 475.229 463.086C475.378 463.242 475.477 463.44 475.511 463.654C475.736 464.613 476.073 467.438 476.535 468.939C477.284 471.681 477.617 474.522 477.521 477.364C477.272 479.168 473.252 480.593 470.68 481.728C467.674 483.236 464.909 485.192 462.478 487.53C458.946 490.462 454.658 492.313 450.119 492.866C445.525 493.042 440.27 491.794 438.984 489.7C437.386 487.102 438.472 485.5 445.138 481.981C446.387 481.312 450.806 478.386 452.304 477.327C456.361 474.476 460.331 470.579 462.041 465.773C462.162 465.188 462.485 464.665 462.953 464.297C463.359 464.096 463.818 464.029 464.264 464.108C465.412 464.212 466.536 464.497 467.597 464.953C468.533 465.344 469.856 465.798 469.894 466.984C469.896 467.413 469.828 467.839 469.694 468.245C469.619 468.498 469.569 468.825 469.781 468.952C469.994 469.078 470.243 468.952 470.418 468.737C471.058 468.017 471.638 467.245 472.153 466.429C472.451 466.005 472.794 465.616 473.177 465.269C473.527 464.953 474.001 464.789 474.313 464.449C474.644 463.963 474.774 463.365 474.675 462.784V462.784Z" fill="#BCADA2"/>
<path d="M454.201 482.41C450.044 484.327 451.892 485.033 453.078 485.159C454.264 485.285 461.217 480.719 465.412 477.024C469.606 473.328 472.453 469.078 474.076 467.665C474.687 467.135 475.324 466.492 475.911 465.899C475.748 464.966 475.624 464.108 475.511 463.654C475.477 463.44 475.378 463.242 475.229 463.086C475.079 462.93 474.886 462.825 474.675 462.784C474.761 463.349 474.631 463.926 474.313 464.398C474.001 464.739 473.526 464.903 473.177 465.218C472.794 465.565 472.45 465.954 472.153 466.379C471.638 467.195 471.058 467.967 470.418 468.687C466.935 473.618 458.358 480.492 454.201 482.41Z" fill="#A7978C"/>
<path d="M453.352 484.503C453.448 484.503 453.541 484.467 453.614 484.402C453.69 484.32 453.733 484.212 453.733 484.1C453.733 483.987 453.69 483.879 453.614 483.797C452.562 482.8 451.312 482.042 449.947 481.572C448.583 481.102 447.134 480.932 445.699 481.073C445.596 481.098 445.506 481.161 445.446 481.25C445.387 481.339 445.363 481.447 445.378 481.553C445.394 481.659 445.448 481.755 445.531 481.823C445.613 481.89 445.718 481.924 445.824 481.918C447.121 481.803 448.427 481.961 449.661 482.382C450.894 482.803 452.028 483.478 452.99 484.365C453.032 484.419 453.088 484.46 453.152 484.485C453.215 484.509 453.285 484.516 453.352 484.503V484.503Z" fill="#EBEBEB"/>
<path d="M456.948 482.094C457.044 482.092 457.136 482.056 457.21 481.993C457.289 481.913 457.334 481.804 457.334 481.691C457.334 481.577 457.289 481.468 457.21 481.388C456.16 480.389 454.91 479.629 453.545 479.159C452.179 478.689 450.73 478.52 449.295 478.664C449.184 478.682 449.085 478.744 449.02 478.837C448.954 478.929 448.927 479.043 448.945 479.155C448.967 479.266 449.029 479.364 449.12 479.43C449.21 479.495 449.322 479.524 449.432 479.509C450.727 479.392 452.032 479.55 453.264 479.971C454.496 480.392 455.627 481.068 456.586 481.956C456.629 482.008 456.686 482.048 456.749 482.072C456.812 482.096 456.881 482.104 456.948 482.094V482.094Z" fill="#EBEBEB"/>
<path d="M460.543 479.673C460.639 479.67 460.732 479.634 460.805 479.572C460.884 479.491 460.929 479.382 460.929 479.269C460.929 479.155 460.884 479.047 460.805 478.966C459.755 477.971 458.507 477.214 457.145 476.744C455.782 476.274 454.336 476.103 452.903 476.242C452.792 476.26 452.693 476.323 452.627 476.415C452.562 476.507 452.535 476.622 452.553 476.734C452.561 476.789 452.579 476.842 452.607 476.889C452.636 476.937 452.673 476.978 452.717 477.011C452.761 477.044 452.811 477.068 452.865 477.081C452.918 477.094 452.974 477.096 453.028 477.087C454.323 476.971 455.628 477.128 456.859 477.549C458.091 477.971 459.222 478.646 460.181 479.534C460.225 479.586 460.281 479.626 460.344 479.65C460.408 479.675 460.476 479.682 460.543 479.673V479.673Z" fill="#EBEBEB"/>
<path d="M463.851 477.049C463.948 477.049 464.041 477.013 464.113 476.948C464.19 476.866 464.232 476.758 464.232 476.645C464.232 476.533 464.19 476.425 464.113 476.343C463.062 475.346 461.812 474.587 460.447 474.118C459.082 473.648 457.634 473.478 456.198 473.618C456.143 473.626 456.089 473.645 456.041 473.674C455.993 473.703 455.951 473.742 455.919 473.788C455.886 473.834 455.863 473.887 455.851 473.942C455.839 473.997 455.838 474.055 455.849 474.11C455.867 474.22 455.927 474.318 456.016 474.384C456.104 474.449 456.214 474.478 456.323 474.463C457.62 474.348 458.927 474.507 460.16 474.928C461.394 475.349 462.527 476.024 463.489 476.91C463.531 476.965 463.587 477.006 463.651 477.031C463.715 477.055 463.784 477.061 463.851 477.049V477.049Z" fill="#EBEBEB"/>
<path d="M467.097 474.375C467.189 474.372 467.277 474.336 467.347 474.274C467.386 474.235 467.416 474.189 467.437 474.138C467.459 474.088 467.469 474.033 467.469 473.978C467.469 473.923 467.459 473.868 467.437 473.817C467.416 473.766 467.386 473.72 467.347 473.681C466.208 472.59 464.838 471.777 463.341 471.302C461.844 470.828 460.259 470.706 458.708 470.944C458.654 470.954 458.602 470.973 458.555 471.003C458.509 471.032 458.469 471.07 458.437 471.115C458.405 471.16 458.382 471.211 458.37 471.265C458.357 471.319 458.356 471.375 458.365 471.43C458.374 471.485 458.393 471.537 458.422 471.584C458.451 471.631 458.489 471.672 458.534 471.704C458.578 471.736 458.629 471.759 458.682 471.772C458.736 471.784 458.791 471.786 458.845 471.777C460.255 471.568 461.693 471.681 463.053 472.106C464.414 472.532 465.664 473.26 466.71 474.236C466.756 474.293 466.816 474.335 466.885 474.36C466.953 474.384 467.026 474.39 467.097 474.375V474.375Z" fill="#EBEBEB"/>
<path d="M498.157 436.107L517.107 435.691C516.87 448.468 514.91 462.67 514.61 474.665C514.548 476.923 514.723 492.197 513.899 496.851C512.651 503.839 504.461 502.918 504.012 498.743C503.562 494.568 504.449 476.721 504.424 474.892C504.424 467.198 500.853 454.22 498.931 440.421C498.856 439.753 498.244 436.763 498.157 436.107Z" fill="#FFDDCF"/>
<path d="M500.953 501.67C500.803 505.769 501.166 508.531 502.376 511.066C502.983 512.255 503.963 513.206 505.163 513.77C506.363 514.334 507.715 514.479 509.005 514.182C511.814 513.753 515.497 512.214 516.621 508.771C517.629 505.641 517.949 502.326 517.557 499.059L500.953 501.67Z" fill="#A7978C"/>
<path d="M514.673 473.19C515.797 473.391 515.597 478.903 515.722 484.453C515.859 490.394 517.37 492.992 517.52 497.873C517.707 503.448 517.183 505.882 514.961 509.023C512.738 512.164 505.66 514.774 502.789 509.679C500.442 505.529 500.741 501.203 501.54 495.729C502.304 491.105 502.833 486.445 503.126 481.766C503.313 477.617 503.413 473.593 504.437 473.24C504.437 473.845 504.437 474.627 504.437 475.22C504.437 475.813 504.349 477.932 504.986 478.008C505.08 477.496 505.13 476.977 505.136 476.456C505.13 475.997 505.285 475.55 505.573 475.195C505.95 474.908 506.411 474.753 506.884 474.754C508.01 474.615 509.144 474.54 510.279 474.526C510.842 474.524 511.405 474.554 511.964 474.615C512.451 474.648 512.929 474.768 513.375 474.968C513.508 475.023 513.627 475.107 513.725 475.213C513.822 475.32 513.894 475.447 513.937 475.586C513.974 475.794 513.974 476.008 513.937 476.217C513.887 476.598 513.887 476.983 513.937 477.364C513.937 477.528 514.049 477.73 514.212 477.718C514.374 477.705 514.411 477.528 514.424 477.402C514.499 476.734 514.424 476.242 514.499 475.46C514.499 475.107 514.499 474.615 514.499 474.262C514.499 473.908 514.661 473.555 514.673 473.19Z" fill="#C3DBF2"/>
<path d="M514.673 473.19C515.797 473.391 515.597 478.903 515.722 484.453C515.859 490.394 517.37 492.992 517.52 497.873C517.707 503.448 517.183 505.882 514.961 509.023C512.738 512.164 505.66 514.774 502.789 509.679C500.442 505.529 500.741 501.203 501.54 495.729C502.304 491.105 502.833 486.445 503.126 481.766C503.313 477.617 503.413 473.593 504.437 473.24C504.437 473.845 504.437 474.627 504.437 475.22C504.437 475.813 504.349 477.932 504.986 478.008C505.08 477.496 505.13 476.977 505.136 476.456C505.13 475.997 505.285 475.55 505.573 475.195C505.95 474.908 506.411 474.753 506.884 474.754C508.01 474.615 509.144 474.54 510.279 474.526C510.842 474.524 511.405 474.554 511.964 474.615C512.451 474.648 512.929 474.768 513.375 474.968C513.508 475.023 513.627 475.107 513.725 475.213C513.822 475.32 513.894 475.447 513.937 475.586C513.974 475.794 513.974 476.008 513.937 476.217C513.887 476.598 513.887 476.983 513.937 477.364C513.937 477.528 514.049 477.73 514.212 477.718C514.374 477.705 514.411 477.528 514.424 477.402C514.499 476.734 514.424 476.242 514.499 475.46C514.499 475.107 514.499 474.615 514.499 474.262C514.499 473.908 514.661 473.555 514.673 473.19Z" fill="#BCADA2"/>
<path d="M513.587 500.194C513.412 502.187 515.422 501.707 515.784 498.932C516.146 496.158 515.247 489.309 515.722 484.478C515.597 478.928 515.797 473.416 514.673 473.215C514.673 473.29 514.673 473.353 514.673 473.429L514.561 476.229C514.561 476.633 514.561 476.999 514.498 477.427C514.149 481.489 513.961 489.384 513.949 493.131C513.949 495.49 513.829 497.847 513.587 500.194V500.194Z" fill="#A7978C"/>
<path d="M505.685 500.232C505.43 497.877 505.296 495.511 505.285 493.143C505.285 489.422 505.011 481.615 504.624 477.528C504.479 476.768 504.42 475.994 504.449 475.22C504.449 474.665 504.449 473.959 504.449 473.366C504.443 473.324 504.443 473.282 504.449 473.24C503.712 473.517 503.45 475.763 503.3 478.474C503.3 480.089 503.3 482.082 503.475 484.503C503.999 489.322 503.15 496.196 503.475 498.996C503.8 501.796 505.872 502.275 505.685 500.232Z" fill="#A7978C"/>
<path d="M504.947 500.37H505.11C507.932 499.353 511.012 499.331 513.848 500.307C513.953 500.341 514.066 500.334 514.165 500.287C514.265 500.24 514.343 500.158 514.385 500.055C514.422 499.95 514.416 499.834 514.369 499.733C514.323 499.631 514.239 499.552 514.135 499.513C511.099 498.425 507.784 498.425 504.748 499.513C504.646 499.557 504.565 499.64 504.523 499.744C504.481 499.848 504.481 499.964 504.523 500.068C504.55 500.159 504.607 500.238 504.684 500.292C504.761 500.347 504.853 500.375 504.947 500.37V500.37Z" fill="#EBEBEB"/>
<path d="M504.424 495.968C504.469 495.981 504.516 495.981 504.561 495.968C507.755 494.95 511.179 494.928 514.386 495.905C514.438 495.925 514.494 495.934 514.55 495.931C514.606 495.928 514.66 495.914 514.711 495.889C514.761 495.865 514.806 495.83 514.842 495.787C514.878 495.744 514.906 495.694 514.923 495.641C514.959 495.533 514.951 495.416 514.902 495.315C514.853 495.213 514.766 495.135 514.661 495.098C511.274 494.037 507.645 494.064 504.274 495.174C504.171 495.214 504.087 495.292 504.04 495.394C503.993 495.495 503.988 495.611 504.024 495.716C504.057 495.794 504.113 495.861 504.185 495.906C504.256 495.951 504.34 495.973 504.424 495.968V495.968Z" fill="#EBEBEB"/>
<path d="M514.51 491.743C514.59 491.742 514.668 491.718 514.734 491.673C514.801 491.628 514.853 491.565 514.885 491.491C514.932 491.389 514.937 491.272 514.9 491.166C514.863 491.059 514.785 490.972 514.685 490.923C511.351 489.621 507.657 489.621 504.323 490.923C504.222 490.965 504.142 491.046 504.1 491.148C504.058 491.249 504.057 491.364 504.098 491.466C504.14 491.568 504.219 491.65 504.319 491.694C504.419 491.739 504.532 491.743 504.635 491.705C504.635 491.705 509.779 489.637 514.335 491.705C514.39 491.731 514.45 491.744 514.51 491.743Z" fill="#EBEBEB"/>
<path d="M514.585 487.846C514.679 487.843 514.769 487.809 514.841 487.749C514.914 487.689 514.965 487.607 514.986 487.515C515.007 487.423 514.998 487.326 514.959 487.24C514.921 487.154 514.855 487.083 514.772 487.039C513.115 486.281 511.319 485.883 509.499 485.87C507.68 485.857 505.879 486.229 504.211 486.963C504.11 487.012 504.033 487.099 503.996 487.205C503.958 487.311 503.964 487.428 504.011 487.53C504.062 487.63 504.149 487.705 504.254 487.74C504.359 487.776 504.473 487.768 504.573 487.72C506.132 487.055 507.809 486.719 509.501 486.734C511.193 486.75 512.863 487.115 514.41 487.808C514.465 487.834 514.525 487.847 514.585 487.846Z" fill="#EBEBEB"/>
<path d="M514.66 483.456C514.737 483.456 514.813 483.435 514.878 483.395C514.944 483.355 514.998 483.298 515.035 483.229C515.06 483.18 515.076 483.126 515.08 483.07C515.084 483.014 515.078 482.958 515.06 482.906C515.043 482.853 515.015 482.804 514.978 482.762C514.942 482.72 514.897 482.686 514.847 482.662C509.854 480.139 504.423 482.586 504.199 482.662C504.098 482.711 504.021 482.798 503.984 482.904C503.946 483.01 503.952 483.127 503.999 483.229C504.021 483.28 504.052 483.326 504.092 483.365C504.131 483.403 504.178 483.433 504.229 483.453C504.28 483.473 504.335 483.483 504.39 483.481C504.444 483.479 504.498 483.467 504.548 483.444C504.548 483.444 509.816 481.085 514.473 483.444C514.533 483.466 514.598 483.47 514.66 483.456V483.456Z" fill="#EBEBEB"/>
<path d="M509.155 311.82C515.908 330.487 516.033 342.091 514.96 361.716C513.973 379.69 512.363 395.519 512.363 395.519C512.638 398.71 517.057 404.916 517.669 419.017C517.889 428.935 517.472 438.857 516.42 448.72C516.42 448.72 507.681 451.975 500.291 448.783C500.291 448.783 492.588 415.082 490.466 398.597C488.619 384.205 485.91 367.216 485.91 367.216L481.078 398.597C481.766 403.343 482.016 408.144 481.827 412.937C481.203 420.606 477.508 441.203 477.508 441.203C477.508 441.203 468.332 444.545 462.09 438.996C462.09 438.996 460.193 408.119 459.282 396.44C458.033 380.787 458.32 337.878 461.953 315.894L509.155 311.82Z" fill="#B4C3D1"/>
<path d="M485.923 367.178L482.615 341.182C482.615 341.182 470.33 339.568 464.788 334.321C466.386 336.829 468.51 338.95 471.011 340.535C473.511 342.119 476.326 343.129 479.256 343.491L483.776 367.758L481.092 398.559L485.923 367.178Z" fill="#97ACBF"/>
<path d="M489.18 271.609L489.43 271.496C505.222 263.928 511.564 246.27 510.79 229.495C510.651 224.16 509.555 218.895 507.557 213.956C505.523 208.998 502.038 204.787 497.57 201.885C494.095 199.813 490.176 198.623 486.147 198.417C482.489 198.177 477.758 198.24 474.312 199.678C473.789 199.939 473.216 200.085 472.633 200.104C472.049 200.124 471.468 200.017 470.929 199.791C469.701 199.509 468.436 199.432 467.184 199.564C463.773 200.033 460.685 201.847 458.595 204.609C455.686 208.229 455.337 213.64 456.335 218.03C456.81 220.06 459.606 223.075 459.494 224.954C459.319 227.767 457.297 229.999 455.074 232.421C452.852 234.843 450.393 236.659 449.319 240.228C448.396 243.293 448.233 249.789 455.025 252.286C445.137 265.492 454.887 272.656 460.28 274.548C463.881 275.832 467.716 276.301 471.516 275.923C477.545 275.242 483.663 274.208 489.18 271.609Z" fill="#B0A094"/>
<path d="M455.037 294.035C460.855 287.994 471.354 274.309 471.354 274.309L477.296 253.523C477.446 253.523 474.275 253.586 473.314 253.523C466.897 253.951 464.999 254.506 461.005 258.921C457.834 262.427 445.737 279.102 441.53 284.74L430.382 270.386C427.71 266.299 428.135 261.721 426.749 258.391C425.363 255.061 423.116 253.573 421.318 250.558C419.521 247.544 419.096 245.513 417.573 247.115C416.05 248.717 417.798 252.816 418.023 253.762C418.247 254.708 420.519 257.546 416.774 256.07C413.029 254.595 407.199 247.658 405.701 246.232C404.203 244.807 403.417 247.014 403.754 248.755C404.091 250.495 402.505 254.418 403.067 257.294C403.435 260.174 404.85 262.813 407.037 264.698C409.758 267.46 416.387 270.84 418.984 274.46C421.581 278.08 427.111 289.331 430.507 296.116C434.801 304.731 438.471 307.569 443.303 304.668C448.134 301.767 452.853 296.268 455.037 294.035Z" fill="#FFDDCF"/>
<path d="M441.529 284.752C443.649 286.771 445.071 289.423 445.587 292.32C445.587 292.32 446.835 288.158 442.491 283.491L441.529 284.752Z" fill="#ECA79D"/>
<path d="M462.59 290.188C454.7 283.63 457.297 275.053 460.181 269.314C465.948 257.798 471.941 253.27 474.438 253.321L490.155 253.459C497.645 254.494 503.475 253.977 505.285 254.418C509.904 255.515 510.004 259.362 510.179 264.332C510.379 269.781 510.953 269.2 509.542 278.206C509.542 278.206 507.408 285.181 506.571 288.296C505.735 291.412 504.162 296.255 505.435 301.3C505.922 303.243 507.22 305.084 509.18 310.52C510.92 314.938 512.261 319.506 513.188 324.168C513.188 324.168 502.414 334.258 480.03 331.004C463.577 328.633 460.343 323.171 460.343 323.171L463.427 303.76C463.015 296.936 462.902 294.477 462.59 290.188Z" fill="#C3DBF2"/>
<path opacity="0.1" d="M472.827 288.473C472.827 288.473 479.281 293.72 486.797 291.172C488.908 290.542 490.821 289.371 492.353 287.773C493.884 286.176 494.98 284.205 495.535 282.053C495.535 282.053 496.172 290.693 486.709 293.405C484.178 294.197 481.461 294.145 478.962 293.257C476.462 292.369 474.311 290.691 472.827 288.473V288.473Z" fill="#797979"/>
<path d="M529.192 237.479C525.846 233.266 516.708 222.734 515.023 220.628C513.987 219.299 512.628 218.265 511.078 217.626C509.7 217.118 508.447 216.313 507.407 215.268C506.758 214.624 505.348 211.887 504.773 211.168C503.086 208.971 501.058 207.063 498.769 205.518C496.122 203.638 493.613 202.768 490.891 200.99C489.293 199.943 487.346 198.896 489.094 197.13C489.637 196.572 490.332 196.19 491.091 196.033C494.836 195.326 498.806 196.512 503.45 197.736C505.442 198.246 507.404 198.865 509.33 199.59C510.441 199.96 511.49 200.5 512.438 201.191C513.575 202.279 514.513 203.56 515.21 204.975C517.382 208.557 522.351 210.954 525.447 213.691C529.067 216.907 532.637 219.594 536.769 223.138C540.884 226.505 544.649 230.288 548.005 234.427C550.502 237.832 549.79 239.875 548.766 241.389C543.611 249.07 532.125 257.786 528.043 261.191C523.686 264.824 520.628 267.094 516.733 270.613C513.996 273.23 511.411 276.005 508.993 278.925C508.751 279.243 508.406 279.466 508.019 279.556C507.632 279.646 507.226 279.597 506.871 279.417C502.364 276.894 499.38 264.281 502.851 256.449C503.737 254.443 504.661 254.368 504.661 254.368C511.777 249.322 529.192 237.529 529.192 237.529" fill="#FFDDCF"/>
<path d="M529.192 237.479C531.291 240.178 534.111 242.214 537.319 243.344C537.319 243.344 533.012 244.378 527.232 238.942L529.192 237.479Z" fill="#ECA79D"/>
<path d="M464.999 229.268C465.074 241.793 469.031 244.959 471.029 245.879C473.026 246.8 476.933 246.333 480.716 245.766L480.591 253.334C480.591 253.334 476.147 257.862 476.422 261.305C476.696 264.748 483.2 265.265 488.144 261.986C490.863 260.161 493.334 257.986 495.497 255.516C495.908 255.035 496.138 254.423 496.146 253.788L496.446 236.13C496.446 236.13 498.481 238.387 502.188 235.915C502.988 235.422 503.677 234.766 504.212 233.988C504.746 233.211 505.115 232.329 505.293 231.4C505.472 230.471 505.457 229.514 505.249 228.591C505.041 227.668 504.645 226.799 504.086 226.039C503.563 225.529 502.937 225.141 502.25 224.901C501.564 224.661 500.834 224.575 500.111 224.65C499.388 224.724 498.691 224.957 498.066 225.332C497.442 225.707 496.906 226.215 496.496 226.821C495.36 228.965 495.46 230.466 493.999 230.214C492.538 229.962 492.401 228.284 492.301 227.073C492.201 225.863 492.239 225.484 492.151 223.908C488.481 223.113 484.661 217.954 484.274 214.196C481.794 215.43 479.061 216.052 476.297 216.012C472.202 215.722 470.055 214.902 468.07 211.9C467.578 212.582 467.191 213.334 466.921 214.133C466.357 215.726 465.939 217.368 465.673 219.039C465.183 222.426 464.958 225.846 464.999 229.268V229.268Z" fill="#FFDDCF"/>
<path d="M480.717 245.766C484.711 245.312 492.951 243.079 494.287 239.825C493.744 241.471 492.716 242.911 491.34 243.949C488.844 246.03 480.679 248.276 480.679 248.276L480.717 245.766Z" fill="#ECA79D"/>
<path d="M476.697 239.018C476.69 239.345 476.779 239.667 476.953 239.943C477.127 240.219 477.378 240.437 477.675 240.568C477.971 240.7 478.3 240.74 478.619 240.682C478.938 240.625 479.233 240.473 479.466 240.246C479.7 240.019 479.861 239.727 479.93 239.407C479.999 239.088 479.972 238.754 479.854 238.45C479.735 238.145 479.529 237.883 479.263 237.697C478.997 237.511 478.681 237.409 478.358 237.403C477.926 237.397 477.509 237.563 477.198 237.865C476.887 238.167 476.707 238.582 476.697 239.018V239.018Z" fill="#ECA79D"/>
<path d="M478.782 226.695C478.773 227.033 478.863 227.366 479.04 227.654C479.216 227.941 479.473 228.169 479.777 228.311C480.081 228.452 480.42 228.5 480.751 228.449C481.082 228.397 481.391 228.249 481.639 228.022C481.887 227.795 482.064 227.499 482.148 227.172C482.231 226.844 482.218 226.499 482.109 226.179C482 225.859 481.801 225.579 481.536 225.372C481.27 225.166 480.951 225.042 480.617 225.017C480.387 225.006 480.158 225.039 479.941 225.117C479.725 225.195 479.525 225.316 479.355 225.471C479.184 225.627 479.046 225.816 478.948 226.026C478.849 226.235 478.793 226.463 478.782 226.695V226.695Z" fill="#97ACBF"/>
<path d="M467.209 225.951C467.19 226.16 467.213 226.372 467.276 226.573C467.339 226.774 467.44 226.96 467.575 227.121C467.71 227.282 467.875 227.414 468.061 227.509C468.246 227.605 468.449 227.663 468.657 227.679C468.868 227.702 469.082 227.68 469.283 227.613C469.485 227.547 469.671 227.438 469.828 227.294C469.985 227.149 470.11 226.973 470.194 226.776C470.278 226.579 470.321 226.367 470.318 226.152C470.344 225.939 470.328 225.722 470.269 225.515C470.209 225.308 470.109 225.116 469.973 224.95C469.837 224.784 469.669 224.647 469.48 224.549C469.29 224.452 469.082 224.394 468.87 224.38C468.657 224.366 468.444 224.397 468.243 224.469C468.042 224.542 467.859 224.655 467.703 224.802C467.547 224.95 467.423 225.127 467.338 225.325C467.253 225.522 467.209 225.735 467.209 225.951V225.951Z" fill="#97ACBF"/>
<path d="M475.211 224.324L473.975 234.78L468.669 232.56L475.211 224.324Z" fill="#ECA79D"/>
<path d="M484.986 222.179L481.903 219.215C481.515 219.645 481.308 220.21 481.324 220.791C481.34 221.372 481.579 221.924 481.99 222.331C482.194 222.524 482.435 222.674 482.698 222.771C482.961 222.869 483.24 222.912 483.52 222.898C483.8 222.884 484.073 222.813 484.325 222.689C484.577 222.566 484.802 222.392 484.986 222.179V222.179Z" fill="#B0A094"/>
<path d="M469.556 218.257L466.136 220.868C466.294 221.101 466.497 221.301 466.733 221.453C466.97 221.605 467.234 221.707 467.511 221.753C467.787 221.799 468.07 221.788 468.343 221.72C468.615 221.653 468.871 221.53 469.094 221.359C469.549 221 469.851 220.478 469.937 219.901C470.022 219.324 469.886 218.736 469.556 218.257V218.257Z" fill="#B0A094"/>
<path d="M469.752 103.962C469.821 103.9 469.912 103.865 470.006 103.865C470.099 103.865 470.19 103.9 470.259 103.962C470.339 104.051 470.4 104.156 470.438 104.269C470.476 104.382 470.49 104.501 470.48 104.62V109.005C470.475 109.319 470.399 109.627 470.259 109.908C470.158 110.164 469.981 110.385 469.752 110.54L456.916 117.878C456.847 117.941 456.756 117.976 456.662 117.976C456.569 117.976 456.478 117.941 456.409 117.878C456.329 117.789 456.268 117.685 456.23 117.572C456.192 117.459 456.178 117.339 456.188 117.221V90.5235C456.193 90.21 456.269 89.9017 456.409 89.6207C456.51 89.3642 456.687 89.1439 456.916 88.9888L469.531 81.7663C469.605 81.7077 469.696 81.6758 469.791 81.6758C469.886 81.6758 469.977 81.7077 470.051 81.7663C470.128 81.8567 470.186 81.9615 470.222 82.0744C470.258 82.1874 470.27 82.3062 470.259 82.4241V86.8091C470.259 87.1217 470.188 87.4302 470.051 87.7119C469.941 87.967 469.761 88.1861 469.531 88.3439L461.195 93.1158V97.5783L468.933 93.1416C469.007 93.0851 469.099 93.0546 469.193 93.0546C469.287 93.0546 469.378 93.0851 469.453 93.1416C469.531 93.234 469.59 93.3409 469.625 93.4561C469.661 93.5713 469.673 93.6924 469.661 93.8123V98.1844C469.661 98.5012 469.59 98.8139 469.453 99.1001C469.351 99.3563 469.168 99.5732 468.933 99.7192L461.195 104.156V108.786L469.752 103.962Z" fill="#748F9C"/>
<path d="M481.651 74.8277C482.632 74.214 483.715 73.7773 484.85 73.538C485.667 73.3725 486.517 73.5054 487.243 73.912C487.984 74.402 488.523 75.1385 488.765 75.9884C489.148 77.2418 489.323 78.5485 489.285 79.8576C489.311 81.764 489.03 83.6623 488.452 85.4808C487.924 87.1007 487.119 88.6188 486.073 89.969L489.428 97.8749C489.479 98.0067 489.505 98.1465 489.506 98.2876C489.501 98.5431 489.439 98.7942 489.324 99.0228C489.243 99.2335 489.097 99.4138 488.908 99.5386L485.227 101.641C484.863 101.847 484.616 101.873 484.46 101.718C484.311 101.558 484.188 101.375 484.096 101.177L481.118 94.1218L478.621 95.5534V104.388C478.622 104.706 478.546 105.02 478.4 105.304C478.295 105.555 478.119 105.77 477.892 105.923L474.342 107.96C474.27 108.018 474.181 108.049 474.088 108.049C473.996 108.049 473.907 108.018 473.835 107.96C473.755 107.869 473.695 107.762 473.657 107.647C473.619 107.532 473.604 107.411 473.614 107.29V80.5669C473.619 80.2493 473.694 79.9367 473.835 79.6512C473.939 79.4003 474.116 79.1851 474.342 79.0322L481.651 74.8277ZM478.595 89.1048L481.651 87.3508C482.403 86.918 483.048 86.3229 483.537 85.6097C484.065 84.7638 484.323 83.7793 484.278 82.7852C484.278 81.6374 484.031 80.9796 483.537 80.8249C483.211 80.7575 482.874 80.7595 482.549 80.8306C482.224 80.9018 481.918 81.0405 481.651 81.2376L478.595 82.9916V89.1048Z" fill="#748F9C"/>
<path d="M500.469 64.0583C501.445 63.4428 502.524 63.006 503.655 62.7686C504.472 62.602 505.323 62.7349 506.048 63.1426C506.789 63.6326 507.329 64.3691 507.57 65.2191C507.958 66.4715 508.138 67.7783 508.103 69.0882C508.126 70.9953 507.84 72.8937 507.258 74.7114C506.734 76.3336 505.929 77.8525 504.878 79.1996L508.233 87.1055C508.284 87.2373 508.31 87.3772 508.311 87.5183C508.311 87.7728 508.254 88.0241 508.142 88.2534C508.061 88.4678 507.91 88.6493 507.713 88.7693L504.033 90.8715C503.681 91.0779 503.421 91.1037 503.265 90.9489C503.116 90.7883 502.993 90.6055 502.901 90.4072L499.897 83.288L497.4 84.7196V93.5541C497.4 93.8709 497.329 94.1836 497.192 94.4698C497.09 94.726 496.907 94.9429 496.672 95.0889L493.134 97.1137C493.062 97.1746 492.969 97.2081 492.874 97.2081C492.779 97.2081 492.687 97.1746 492.614 97.1137C492.534 97.022 492.474 96.9155 492.436 96.8004C492.398 96.6853 492.383 96.5638 492.393 96.4431V69.7975C492.398 69.4799 492.474 69.1673 492.614 68.8818C492.716 68.6257 492.899 68.4087 493.134 68.2628L500.469 64.0583ZM497.4 78.3355L500.469 76.5814C501.218 76.1485 501.858 75.5533 502.342 74.8403C502.87 73.9944 503.129 73.0099 503.083 72.0159C503.083 70.868 502.836 70.2103 502.342 70.0555C502.018 69.9884 501.684 69.9905 501.361 70.0616C501.038 70.1328 500.734 70.2714 500.469 70.4682L497.4 72.2222V78.3355Z" fill="#748F9C"/>
<path d="M510.588 69.0495C510.643 67.4532 510.865 65.8669 511.251 64.3163C511.627 62.7584 512.181 61.2482 512.903 59.8151C513.602 58.422 514.476 57.122 515.504 55.946C516.5 54.78 517.693 53.7939 519.028 53.0312C520.082 52.3531 521.298 51.9658 522.553 51.9092C523.5 51.8827 524.424 52.199 525.154 52.7991C525.933 53.4943 526.508 54.3856 526.818 55.3785C527.223 56.6656 527.442 58.0029 527.469 59.3508C527.469 60.5245 527.534 61.7497 527.534 63.0394C527.534 64.3291 527.534 65.5544 527.469 66.7151C527.411 68.3104 527.193 69.896 526.818 71.4484C526.436 73.0102 525.877 74.5244 525.154 75.9624C524.465 77.3613 523.59 78.6626 522.553 79.8315C521.549 80.9833 520.358 81.9598 519.028 82.7205C517.973 83.3979 516.759 83.7933 515.504 83.8684C514.553 83.9023 513.625 83.58 512.903 82.9655C512.135 82.2635 511.565 81.3742 511.251 80.3861C510.836 79.0968 510.612 77.7542 510.588 76.4009C510.588 75.2917 510.588 74.0923 510.588 72.8026C510.588 71.5129 510.549 70.2489 510.588 69.0495ZM522.475 69.3977C522.475 68.8948 522.475 68.3273 522.475 67.7082C522.475 67.0892 522.475 66.4185 522.475 65.8381C522.475 65.2577 522.475 64.5484 522.475 64.0067C522.475 63.465 522.475 62.9105 522.475 62.4591C522.448 61.8687 522.347 61.2839 522.176 60.7179C522.064 60.2919 521.845 59.9012 521.538 59.583C521.26 59.3133 520.887 59.1609 520.498 59.1574C519.977 59.1883 519.472 59.3479 519.028 59.6217C518.478 59.9426 517.986 60.3524 517.572 60.834C517.152 61.3217 516.802 61.8641 516.531 62.4462C516.243 63.0473 516.025 63.679 515.881 64.3291C515.725 65.0074 515.629 65.6979 515.595 66.3927C515.595 66.8828 515.53 67.4245 515.53 68.0177C515.53 68.611 515.53 69.2301 515.53 69.862C515.53 70.494 515.53 71.1518 515.53 71.7192C515.53 72.2867 515.53 72.8542 515.595 73.3314C515.56 74.3769 515.891 75.4023 516.531 76.2332C517.078 76.8265 517.91 76.8007 519.028 76.1558C520.141 75.5174 521.016 74.5406 521.525 73.3701C522.072 72.1107 522.393 70.7665 522.475 69.3977V69.3977Z" fill="#748F9C"/>
<path d="M538.704 42.159C539.685 41.5431 540.768 41.1063 541.904 40.8693C542.721 40.7039 543.57 40.8367 544.296 41.2434C545.036 41.7371 545.572 42.4789 545.805 43.3327C546.202 44.5833 546.382 45.8915 546.338 47.2018C546.365 49.1082 546.084 51.0066 545.506 52.825C544.978 54.4479 544.168 55.9668 543.113 57.3132L546.468 65.2321C546.523 65.3587 546.554 65.4942 546.559 65.6319C546.556 65.8916 546.494 66.1473 546.377 66.3799C546.292 66.5851 546.147 66.7603 545.961 66.8829L542.242 69.0496C541.878 69.256 541.617 69.2689 541.461 69.1141C541.316 68.9578 541.198 68.7792 541.11 68.5853L538.093 61.4532L535.609 62.8848V71.7194C535.605 72.0371 535.53 72.35 535.388 72.635C535.289 72.8894 535.112 73.1061 534.881 73.2541L531.331 75.2919C531.261 75.3544 531.171 75.389 531.077 75.389C530.983 75.389 530.893 75.3544 530.823 75.2919C530.742 75.2037 530.68 75.0996 530.642 74.9863C530.604 74.873 530.59 74.753 530.602 74.6341V47.937C530.6 47.6226 530.676 47.3125 530.823 47.0342C530.924 46.7777 531.101 46.5574 531.331 46.4022L538.704 42.159ZM535.648 56.4362L538.704 54.6822C539.462 54.2573 540.109 53.6607 540.59 52.9411C541.117 52.0991 541.375 51.1193 541.331 50.1295C541.331 48.9688 541.084 48.311 540.59 48.1562C540.264 48.0921 539.928 48.0957 539.604 48.1667C539.279 48.2378 538.973 48.3747 538.704 48.5689L535.648 50.323V56.4362Z" fill="#748F9C"/>
<path d="M481.222 119.542C481.019 119.365 480.781 119.233 480.523 119.155C480.265 119.076 479.993 119.052 479.726 119.085C479.458 119.118 479.2 119.207 478.969 119.346C478.739 119.484 478.54 119.67 478.387 119.89C477.516 120.961 477.438 124.262 477.086 126.494C476.669 128.877 475.93 131.193 474.889 133.381C473.032 137.166 470.519 140.597 467.463 143.518C463.344 147.487 458.526 150.674 453.248 152.92C451.458 153.684 449.615 154.322 447.734 154.829C445.874 155.332 443.377 155.383 441.778 156.428C441.722 156.479 441.677 156.54 441.646 156.609C441.616 156.678 441.6 156.752 441.6 156.828C441.6 156.903 441.616 156.977 441.646 157.046C441.677 157.115 441.722 157.177 441.778 157.228C443.729 158.027 446.121 157.679 448.15 157.408C450.732 157.012 453.259 156.32 455.68 155.345C460.651 153.417 465.245 150.645 469.257 147.155C473.233 143.823 476.519 139.759 478.933 135.186C480.211 132.727 481.113 130.093 481.612 127.371C481.919 125.952 482.111 124.512 482.184 123.063C482.305 122.442 482.281 121.802 482.114 121.192C481.947 120.582 481.642 120.018 481.222 119.542Z" fill="#748F9C"/>
</svg>
