<svg width="516" height="407" viewBox="0 0 516 407" fill="none" xmlns="http://www.w3.org/2000/svg">
<path opacity="0.6" d="M312.419 270.021C274.41 301.961 239.426 317.255 193.109 286.502C155.349 261.414 172.552 233.498 153.223 201.341C129.198 161.403 82.1178 161.547 74.7906 112.981C67.6492 66.1077 114.554 27.3871 161.334 30.6482C211.324 34.1364 238.28 83.693 280.664 103.198C330.365 126.067 381.253 106.665 425.97 145.881C455.98 172.208 457.828 212.961 421.243 236.274C387.507 257.802 347.27 240.722 312.419 270.021Z" fill="#D9EAFB"/>
<path opacity="0.9" d="M312.419 270.021C274.41 301.961 239.426 317.255 193.109 286.502C155.349 261.414 172.552 233.498 153.223 201.341C129.198 161.403 82.1178 161.547 74.7906 112.981C67.6492 66.1077 114.554 27.3871 161.334 30.6482C211.324 34.1364 238.28 83.693 280.664 103.198C330.365 126.067 381.253 106.665 425.97 145.881C455.98 172.208 457.828 212.961 421.243 236.274C387.507 257.802 347.27 240.722 312.419 270.021Z" fill="#E7EEF5"/>
<path d="M282.492 6.5683C285.995 3.45066 290.531 1.40893 296.101 0.443113C301.67 -0.522705 307.558 0.0903146 313.763 2.28217C319.948 4.47403 325.606 8.43238 330.735 14.1572C335.504 19.4817 338.727 25.059 340.403 30.8889C342.076 36.28 342.229 42.0279 340.846 47.5004C339.532 52.5731 336.736 57.1388 332.814 60.6141C330.023 63.2306 326.618 65.1022 322.913 66.0562C319.605 66.8801 316.19 67.194 312.787 66.987C309.52 66.7768 303.85 66.2188 295.778 65.313C293.888 65.1074 291.989 65.0022 290.088 64.9978C288.786 64.9892 287.488 65.1379 286.222 65.4406C285.218 65.6967 284.242 66.0538 283.31 66.5065C282.409 66.9494 280.885 67.7676 278.724 68.9761C274.28 71.6934 270.417 71.218 267.134 67.5499C266.318 66.6826 265.683 65.6622 265.264 64.5477C264.845 63.4332 264.652 62.2467 264.694 61.0569C264.779 58.6399 266.05 56.3304 268.507 54.1286C273.512 49.3329 280.216 46.7195 287.146 46.8624C291.091 46.9941 295.027 47.3248 298.938 47.8532C303.097 48.3562 306.167 48.6714 308.148 48.7765C310.116 48.8889 312.089 48.7247 314.011 48.2886C315.928 47.8639 317.7 46.9452 319.153 45.6239C320.574 44.3901 321.712 42.8642 322.489 41.1503C323.267 39.4364 323.665 37.5749 323.657 35.693C323.717 31.6896 322.215 27.9689 319.153 24.531C315.535 20.4926 311.854 18.4333 308.111 18.3533C304.368 18.2732 299.911 19.3491 294.742 21.581C289.483 24.0481 285.292 23.5477 282.169 20.0797C281.28 19.1271 280.6 17.9994 280.173 16.7689C279.745 15.5384 279.578 14.2321 279.684 12.9337C279.707 11.7395 279.967 10.5618 280.449 9.46902C280.931 8.37623 281.625 7.3902 282.492 6.5683ZM246.206 87.4042C244.245 85.2732 243.15 82.4864 243.136 79.5901C243.091 76.6276 244.369 73.9779 246.972 71.6409C248.043 70.6504 249.307 69.8928 250.686 69.4161C252.064 68.9393 253.527 68.7537 254.981 68.871C256.454 68.9601 257.893 69.345 259.214 70.0027C260.535 70.6605 261.709 71.5776 262.667 72.6993C263.653 73.7661 264.414 75.0201 264.905 76.3867C265.397 77.7534 265.608 79.2048 265.528 80.6549C265.447 82.105 265.076 83.5241 264.436 84.8279C263.797 86.1318 262.902 87.2938 261.804 88.2449C259.237 90.5419 256.485 91.5227 253.547 91.1874C250.709 90.9017 248.086 89.5496 246.206 87.4042Z" fill="#C3DBF2"/>
<g opacity="0.5">
<path opacity="0.6" d="M349.613 56.8984C350.667 54.394 352.414 52.2429 354.65 50.6981C357.277 48.8266 360.344 47.668 363.552 47.3353C367.29 46.9331 371.068 47.4858 374.534 48.9416C377.808 50.1528 380.764 52.0905 383.181 54.6089C385.276 56.7884 386.73 59.5022 387.385 62.4531C387.988 65.2112 387.753 68.0868 386.709 70.7101C386.001 72.6343 384.818 74.3487 383.271 75.6943C381.886 76.885 380.327 77.857 378.647 78.5767C377.036 79.2623 374.186 80.3582 370.098 81.8645C369.142 82.2152 368.207 82.6213 367.298 83.0805C366.672 83.3874 366.087 83.7706 365.556 84.2215C365.134 84.5827 364.752 84.9878 364.415 85.43C364.093 85.8579 363.56 86.616 362.816 87.6819C361.315 90.0539 359.351 90.7545 356.924 89.7837C356.325 89.5641 355.775 89.2283 355.306 88.7954C354.837 88.3626 354.458 87.8413 354.192 87.2616C353.924 86.5831 353.8 85.8563 353.829 85.1274C353.857 84.3985 354.037 83.6836 354.357 83.028C355.601 79.5304 358.182 76.669 361.533 75.0713C363.451 74.1779 365.413 73.3812 367.41 72.6842C369.52 71.9336 371.066 71.3406 372.042 70.9202C373.01 70.5002 373.914 69.9469 374.729 69.2764C375.545 68.6105 376.173 67.7439 376.553 66.7617C376.938 65.8304 377.116 64.8268 377.076 63.82C377.035 62.8132 376.778 61.8271 376.32 60.9293C375.316 58.9533 373.587 57.4419 371.494 56.7107C368.792 55.6448 366.54 55.5422 364.738 56.403C362.551 57.5672 360.636 59.1845 359.123 61.147C357.192 63.5941 355.06 64.3447 352.728 63.3989C352.074 63.1543 351.478 62.7764 350.978 62.2892C350.478 61.8021 350.085 61.2163 349.823 60.569C349.546 60.0017 349.385 59.385 349.349 58.7548C349.313 58.1246 349.403 57.4936 349.613 56.8984ZM351.662 104.339C350.212 103.789 349.018 102.718 348.314 101.336C347.954 100.609 347.759 99.8115 347.743 99.0004C347.728 98.1892 347.892 97.3847 348.224 96.6445C348.495 95.9103 348.915 95.2407 349.46 94.6784C350.004 94.1161 350.659 93.6737 351.384 93.3793C352.112 93.0689 352.894 92.9089 353.685 92.9089C354.476 92.9089 355.258 93.0689 355.986 93.3793C356.714 93.6533 357.379 94.0708 357.943 94.6069C358.506 95.143 358.957 95.7868 359.267 96.5002C359.577 97.2135 359.741 97.9819 359.748 98.7597C359.756 99.5375 359.607 100.309 359.311 101.028C359.052 101.799 358.625 102.503 358.062 103.089C357.499 103.676 356.813 104.131 356.053 104.421C354.632 104.949 353.063 104.92 351.662 104.339Z" fill="#C3DBF2"/>
</g>
<path d="M257.999 406.585C368.508 406.585 458.093 401.355 458.093 394.903C458.093 388.451 368.508 383.221 257.999 383.221C147.49 383.221 57.9043 388.451 57.9043 394.903C57.9043 401.355 147.49 406.585 257.999 406.585Z" fill="#ECECEC"/>
<path d="M305.171 132.909L304.81 134.127L304.479 135.159C304.252 135.85 304.005 136.49 303.757 137.151C303.262 138.441 302.725 139.7 302.137 140.948C300.992 143.431 299.699 145.844 298.267 148.172C297.555 149.339 296.801 150.463 296.038 151.588C295.274 152.713 294.459 153.797 293.602 154.86C291.923 157.009 290.12 159.059 288.205 161L287.802 161.413C287.247 161.982 286.589 162.441 285.862 162.765C283.712 163.705 281.375 164.14 279.03 164.034C276.989 163.924 274.983 163.452 273.107 162.641C271.534 161.976 270.047 161.124 268.679 160.102C267.452 159.206 266.289 158.223 265.201 157.161C263.224 155.182 261.441 153.019 259.876 150.701C259.113 149.586 258.411 148.441 257.74 147.285C257.069 146.129 256.491 144.973 255.862 143.642C255.451 142.774 255.356 141.791 255.592 140.861C255.828 139.93 256.38 139.111 257.155 138.544C257.929 137.978 258.877 137.698 259.835 137.755C260.793 137.811 261.702 138.2 262.405 138.853L262.673 139.101L265.191 141.413C266.048 142.197 266.925 142.95 267.802 143.673C269.463 145.082 271.222 146.372 273.065 147.533C274.507 148.494 276.107 149.192 277.792 149.597C278.22 149.717 278.674 149.717 279.102 149.597C279.244 149.533 279.36 149.424 279.433 149.287L277.059 151.083C278.37 149.308 279.639 147.512 280.805 145.654C281.971 143.797 283.086 141.877 284.128 139.947C285.171 138.017 286.13 136.026 287.018 134.034C287.472 133.002 287.874 132.032 288.287 131.041L289.319 128.337L289.608 127.594C290.432 125.691 291.942 124.167 293.838 123.326C295.734 122.485 297.877 122.389 299.841 123.056C301.805 123.723 303.446 125.105 304.437 126.927C305.428 128.749 305.698 130.877 305.191 132.888L305.171 132.909Z" fill="white"/>
<path d="M258.784 143.693L251.807 141.268L250.342 131.712C250.342 131.712 262.034 134.808 261.983 140.443L258.784 143.693Z" fill="#FFDDCF"/>
<path d="M299.878 93.9098C295.327 92.3102 289.042 86.8612 291.508 79.8126C293.387 74.4669 300.342 73.9922 303.077 75.5918C305.812 77.1914 305.925 73.9096 309.424 72.6506C312.922 71.3915 315.389 74.5598 317.164 76.2213C318.939 77.8828 321.013 76.6238 323.645 76.7373C326.276 76.8508 328.155 80.2977 326.689 82.8158C324.109 87.2327 328.371 90.0398 325.141 93.4867C320.384 98.4918 324.109 103.404 317.401 108.389C313.325 111.443 301.746 105.84 299.878 93.9098Z" fill="#B0A094"/>
<path d="M299.795 98.5745C299.626 98.6755 299.435 98.7356 299.238 98.7499C298.896 98.7786 298.557 98.6711 298.294 98.4507C298.031 98.2303 297.866 97.915 297.834 97.5735C297.607 95.5254 297.875 93.4527 298.615 91.5294C299.354 89.6062 300.545 87.8885 302.086 86.5207C302.22 86.4145 302.373 86.336 302.537 86.2898C302.701 86.2437 302.873 86.2308 303.042 86.2519C303.211 86.2731 303.375 86.3279 303.522 86.413C303.67 86.4981 303.799 86.612 303.903 86.7478C304.009 86.8805 304.087 87.0328 304.134 87.196C304.181 87.3592 304.196 87.53 304.177 87.6988C304.157 87.8676 304.105 88.0309 304.023 88.1794C303.94 88.3278 303.829 88.4586 303.696 88.5641C302.49 89.6613 301.564 91.0308 300.995 92.5585C300.426 94.0862 300.231 95.7278 300.425 97.3464C300.446 97.5896 300.398 97.8337 300.286 98.0509C300.175 98.268 300.005 98.4495 299.795 98.5745Z" fill="#B0A094"/>
<path d="M292.376 122.589C292.376 122.589 283.222 146.016 291.911 189.669H333.408C333.697 183.302 329.693 152.228 335.833 122.218C331.245 121.335 326.605 120.749 321.942 120.463C316.068 120.122 310.18 120.122 304.305 120.463C300.279 120.858 296.29 121.569 292.376 122.589Z" fill="white"/>
<path d="M320.197 100.535C319.082 106.211 317.978 116.614 321.941 120.401C321.941 120.401 315.295 125.788 308.308 131.237C306.764 129.928 305.585 128.243 304.883 126.345C304.182 124.447 303.982 122.399 304.304 120.401C310.63 118.894 310.496 114.209 309.371 109.782L320.197 100.535Z" fill="#FFDDCF"/>
<path d="M315.792 104.343L309.383 109.813C309.656 110.827 309.839 111.863 309.93 112.909C311.994 114.87 315.668 109.906 315.926 107.377C316.062 106.366 316.016 105.339 315.792 104.343Z" fill="#ECA79D"/>
<path d="M320.125 90.9893C320.414 98.688 320.972 103.177 317.504 107.501C312.272 113.982 302.489 111.413 299.909 103.951C297.587 97.2432 297.504 85.788 304.697 82.0109C306.275 81.1698 308.042 80.7458 309.83 80.7792C311.618 80.8125 313.367 81.3021 314.913 82.2015C316.458 83.1009 317.748 84.3803 318.661 85.9183C319.573 87.4562 320.077 89.2018 320.125 90.9893Z" fill="#FFDDCF"/>
<path d="M319.918 98.1101C317.802 102.238 315.367 89.1833 315.986 87.0058C308.504 89.0698 297.028 88.3887 297.916 83.1667C298.948 77.274 305.8 77.047 313.396 77.7694C325.935 78.9768 322.209 93.6312 319.918 98.1101Z" fill="#B0A094"/>
<path d="M316.215 98.8429C316.02 98.854 315.825 98.8186 315.647 98.7397C315.491 98.6713 315.349 98.5727 315.231 98.4496C315.112 98.3265 315.019 98.1812 314.957 98.0221C314.894 97.863 314.864 97.6932 314.867 97.5224C314.871 97.3515 314.908 97.1831 314.976 97.0265C315.757 95.1203 316.984 93.4291 318.553 92.0949C320.122 90.7607 321.989 89.8224 323.996 89.3588C324.331 89.2985 324.677 89.3731 324.957 89.5664C325.237 89.7598 325.43 90.0561 325.492 90.3908C325.547 90.7252 325.47 91.0679 325.278 91.347C325.086 91.626 324.793 91.8196 324.46 91.8872C322.872 92.2799 321.401 93.0468 320.169 94.124C318.938 95.2012 317.982 96.5573 317.381 98.0792C317.282 98.3064 317.119 98.4997 316.912 98.6354C316.705 98.7711 316.462 98.8432 316.215 98.8429Z" fill="#B0A094"/>
<path d="M323.965 96.4072C323.558 98.2613 322.486 99.9022 320.952 101.02C318.939 102.424 317.35 100.7 317.402 98.2751C317.453 96.0976 318.568 92.7539 320.818 92.3204C323.067 91.887 324.471 94.1264 323.965 96.4072Z" fill="#FFDDCF"/>
<path d="M287.701 384.717C286.742 384.955 285.782 385.047 285.369 384.717C285.264 384.62 285.191 384.492 285.161 384.351C285.132 384.211 285.147 384.065 285.204 383.933C285.239 383.814 285.299 383.705 285.378 383.61C285.458 383.516 285.557 383.44 285.668 383.386C286.835 382.736 289.796 383.582 289.931 383.623C289.969 383.633 290.002 383.655 290.027 383.685C290.051 383.716 290.064 383.754 290.064 383.794C290.064 383.833 290.051 383.871 290.027 383.902C290.002 383.932 289.969 383.954 289.931 383.964C289.211 384.279 288.465 384.531 287.701 384.717ZM286.174 383.551C286.059 383.578 285.948 383.62 285.844 383.675C285.776 383.707 285.715 383.754 285.666 383.81C285.616 383.867 285.578 383.933 285.555 384.005C285.472 384.263 285.555 384.356 285.606 384.408C286.071 384.81 287.97 384.356 289.322 383.809C288.299 383.521 287.23 383.434 286.174 383.551Z" fill="#BCADA2"/>
<path d="M289.92 383.943H289.848C288.816 383.768 286.669 382.581 286.607 381.693C286.607 381.487 286.68 381.198 287.154 381.033C287.493 380.917 287.864 380.939 288.186 381.095C289.322 381.642 289.992 383.623 290.023 383.706C290.041 383.734 290.05 383.766 290.05 383.799C290.05 383.832 290.041 383.864 290.023 383.892C289.995 383.919 289.959 383.937 289.92 383.943ZM287.381 381.343H287.278C286.958 381.446 286.969 381.58 286.979 381.621C286.979 382.158 288.527 383.128 289.58 383.458C289.298 382.628 288.764 381.906 288.052 381.394C287.841 381.302 287.605 381.284 287.381 381.343Z" fill="#BCADA2"/>
<path d="M301.199 386.399L293.428 387.545L293.675 369.733L301.446 368.597L301.199 386.399Z" fill="#FFDDCF"/>
<path d="M292.26 382.942H302.446C302.596 382.938 302.742 382.99 302.856 383.087C302.971 383.184 303.045 383.32 303.065 383.468L304.097 390.331C304.118 390.503 304.102 390.678 304.05 390.843C303.998 391.009 303.912 391.161 303.797 391.291C303.681 391.42 303.54 391.524 303.382 391.595C303.224 391.667 303.053 391.704 302.88 391.704C299.835 391.652 295.46 391.477 291.631 391.477C287.162 391.477 283.148 391.714 277.905 391.714C274.737 391.714 274.149 388.711 275.459 388.226C281.321 386.028 284.458 385.656 290.392 383.541C290.978 383.239 291.609 383.037 292.26 382.942Z" fill="#BCADA2"/>
<path opacity="0.2" d="M293.675 369.743L293.541 378.917L301.322 377.772L301.456 368.597L293.675 369.743Z" fill="#ECA79D"/>
<path d="M297.216 383.489C297.164 380.197 298.196 374.903 289.992 378.143C285.1 380.063 291.736 385.708 291.736 385.708L297.216 383.489Z" fill="#BCADA2"/>
<path d="M291.91 189.638C291.91 189.638 287.782 252.146 288.948 274.375C290.083 295.439 290.723 355.191 290.867 370.867C290.873 371.344 290.98 371.814 291.182 372.246C291.383 372.678 291.674 373.063 292.035 373.374C292.396 373.685 292.819 373.916 293.276 374.052C293.733 374.187 294.213 374.224 294.686 374.16L300.176 373.417C300.909 373.317 301.589 372.979 302.111 372.455C302.633 371.931 302.968 371.25 303.066 370.517C306.616 342.849 310.837 300.165 311.755 277.317C312.787 251.238 319.206 189.597 319.206 189.597L291.91 189.638Z" fill="#C3DBF2"/>
<path opacity="0.2" d="M291.91 189.638C291.91 189.638 287.782 252.146 288.948 274.375C290.083 295.439 290.723 355.191 290.867 370.867C290.873 371.344 290.98 371.814 291.182 372.246C291.383 372.678 291.674 373.063 292.035 373.374C292.396 373.685 292.819 373.916 293.276 374.052C293.733 374.187 294.213 374.224 294.686 374.16L300.176 373.417C300.909 373.317 301.589 372.979 302.111 372.455C302.633 371.931 302.968 371.25 303.066 370.517C306.616 342.849 310.837 300.165 311.755 277.317C312.787 251.238 319.206 189.597 319.206 189.597L291.91 189.638Z" fill="#B4C3D1"/>
<path d="M343.716 383.696C342.818 384.098 341.889 384.366 341.415 384.088C341.294 384.013 341.199 383.902 341.145 383.77C341.092 383.638 341.081 383.493 341.115 383.355C341.127 383.23 341.165 383.109 341.227 383.001C341.289 382.892 341.375 382.798 341.477 382.725C342.509 381.879 345.605 382.189 345.708 382.199C345.746 382.202 345.782 382.216 345.812 382.24C345.841 382.264 345.862 382.297 345.873 382.333C345.881 382.369 345.878 382.407 345.865 382.442C345.852 382.476 345.83 382.507 345.801 382.529C345.142 382.979 344.444 383.37 343.716 383.696ZM342.003 382.818C341.897 382.869 341.797 382.932 341.704 383.004C341.64 383.047 341.587 383.104 341.548 383.17C341.509 383.236 341.484 383.31 341.477 383.386C341.477 383.644 341.539 383.737 341.6 383.768C342.127 384.088 343.912 383.293 345.151 382.529C344.093 382.422 343.024 382.52 342.003 382.818Z" fill="#BCADA2"/>
<path d="M345.719 382.55C344.687 382.55 342.354 381.776 342.138 380.909C342.086 380.713 342.138 380.414 342.561 380.166C342.715 380.076 342.886 380.019 343.064 379.997C343.241 379.976 343.421 379.991 343.593 380.042C344.81 380.383 345.832 382.199 345.873 382.282C345.889 382.31 345.897 382.342 345.897 382.374C345.897 382.407 345.889 382.439 345.873 382.467C345.854 382.491 345.831 382.51 345.804 382.524C345.778 382.538 345.749 382.547 345.719 382.55ZM342.757 380.486H342.664C342.375 380.651 342.406 380.775 342.416 380.816C342.55 381.332 344.212 382.024 345.306 382.168C344.883 381.396 344.23 380.776 343.438 380.393C343.225 380.336 342.999 380.354 342.798 380.445L342.757 380.486Z" fill="#BCADA2"/>
<path d="M357.75 383.004L350.423 385.491L345.562 368.267L352.879 365.78L357.75 383.004Z" fill="#FFDDCF"/>
<path d="M311.169 211.991C309.032 220.546 309.6 256.099 311.808 276.14C312.335 264.406 313.821 246.316 315.328 229.7L311.169 211.991Z" fill="#97ACBF"/>
<path d="M347.607 381.312L357.638 379.506C357.788 379.476 357.944 379.5 358.078 379.573C358.212 379.647 358.316 379.766 358.371 379.908L361.003 386.41C361.067 386.568 361.095 386.738 361.084 386.908C361.074 387.078 361.025 387.244 360.942 387.392C360.858 387.541 360.743 387.669 360.603 387.767C360.464 387.865 360.304 387.93 360.136 387.958C357.133 388.453 352.778 389.052 349.011 389.733C344.614 390.527 344.583 390.765 339.424 391.714C336.328 392.282 334.996 389.464 336.162 388.752C341.405 385.574 340.548 385.357 345.873 382.24C346.393 381.832 346.979 381.517 347.607 381.312Z" fill="#BCADA2"/>
<path opacity="0.2" d="M345.562 368.277L348.07 377.153L355.397 374.665L352.89 365.79L345.562 368.277Z" fill="#ECA79D"/>
<path d="M306.637 189.638C306.637 189.638 311.982 252.157 316.1 274.375C320.063 295.759 337.989 356.667 343.273 370.506C343.58 371.314 344.187 371.972 344.968 372.343C345.748 372.714 346.642 372.77 347.463 372.498L352.757 370.775C353.535 370.52 354.193 369.992 354.609 369.287C355.025 368.582 355.17 367.75 355.017 366.946C349.754 339.773 341.374 300.062 339.289 277.317C336.905 251.238 333.407 189.597 333.407 189.597L306.637 189.638Z" fill="#C3DBF2"/>
<path opacity="0.2" d="M306.637 189.638C306.637 189.638 311.982 252.157 316.1 274.375C320.063 295.759 337.989 356.667 343.273 370.506C343.58 371.314 344.187 371.972 344.968 372.343C345.748 372.714 346.642 372.77 347.463 372.498L352.757 370.775C353.535 370.52 354.193 369.992 354.609 369.287C355.025 368.582 355.17 367.75 355.017 366.946C349.754 339.773 341.374 300.062 339.289 277.317C336.905 251.238 333.407 189.597 333.407 189.597L306.637 189.638Z" fill="#B4C3D1"/>
<path d="M308.742 94.2708C308.804 94.9003 308.525 95.437 308.113 95.4782C307.7 95.5195 307.328 95.0448 307.266 94.4462C307.204 93.8477 307.483 93.2904 307.896 93.2491C308.309 93.2078 308.68 93.6516 308.742 94.2708Z" fill="#97ACBF"/>
<path d="M301.703 94.9727C301.765 95.5919 301.486 96.1285 301.074 96.1698C300.661 96.2111 300.289 95.7363 300.227 95.1378C300.165 94.5392 300.444 93.9716 300.857 93.9303C301.27 93.8891 301.641 94.3431 301.703 94.9727Z" fill="#97ACBF"/>
<path d="M303.974 95.0553C303.418 97.0342 302.591 98.9269 301.518 100.68C301.974 100.941 302.482 101.099 303.006 101.144C303.53 101.189 304.058 101.118 304.552 100.938L303.974 95.0553Z" fill="#ECA79D"/>
<path d="M310.451 99.6909C310.499 99.688 310.546 99.7035 310.582 99.7342C310.619 99.765 310.642 99.8086 310.647 99.856C310.65 99.8805 310.648 99.9052 310.641 99.9288C310.634 99.9525 310.623 99.9745 310.608 99.9937C310.592 100.013 310.573 100.029 310.552 100.041C310.53 100.052 310.507 100.06 310.482 100.062C309.706 100.12 308.954 100.36 308.289 100.764C307.624 101.168 307.063 101.723 306.653 102.384C306.631 102.428 306.593 102.461 306.546 102.477C306.5 102.492 306.449 102.489 306.406 102.467C306.364 102.443 306.332 102.405 306.317 102.359C306.302 102.313 306.304 102.264 306.323 102.219C306.759 101.498 307.361 100.892 308.079 100.452C308.797 100.012 309.611 99.7513 310.451 99.6909Z" fill="#ECA79D"/>
<path d="M310.631 91.7942C310.574 91.7989 310.517 91.7912 310.464 91.7716C310.41 91.752 310.362 91.721 310.322 91.6807C310.022 91.3248 309.642 91.0454 309.213 90.8659C308.784 90.6864 308.319 90.6119 307.855 90.6487C307.759 90.6638 307.662 90.6409 307.583 90.585C307.504 90.5291 307.45 90.4446 307.432 90.3494C307.423 90.3019 307.424 90.2531 307.434 90.2059C307.444 90.1587 307.464 90.1141 307.492 90.0746C307.52 90.0351 307.556 90.0017 307.597 89.9762C307.638 89.9508 307.683 89.9338 307.731 89.9263C308.306 89.8659 308.887 89.944 309.426 90.1541C309.964 90.3641 310.445 90.7 310.827 91.1338C310.863 91.1675 310.892 91.2083 310.911 91.2536C310.931 91.2988 310.941 91.3476 310.941 91.3969C310.941 91.4462 310.931 91.495 310.911 91.5403C310.892 91.5855 310.863 91.6263 310.827 91.6601C310.776 91.7231 310.708 91.7697 310.631 91.7942Z" fill="#B0A094"/>
<path d="M298.299 92.7849C298.245 92.7957 298.189 92.7957 298.134 92.7849C298.046 92.7443 297.977 92.6708 297.943 92.5802C297.908 92.4896 297.91 92.3889 297.948 92.2998C298.172 91.7624 298.521 91.2862 298.967 90.9111C299.412 90.5359 299.94 90.2725 300.508 90.1429C300.559 90.1252 300.613 90.1188 300.667 90.1241C300.72 90.1295 300.772 90.1464 300.819 90.1739C300.865 90.2013 300.905 90.2385 300.936 90.2829C300.966 90.3273 300.987 90.3779 300.996 90.4311C301.005 90.4842 301.003 90.5388 300.989 90.5908C300.975 90.6429 300.949 90.6913 300.915 90.7327C300.88 90.774 300.837 90.8073 300.788 90.8302C300.739 90.8531 300.686 90.8651 300.632 90.8653C300.183 90.9747 299.767 91.1888 299.417 91.4902C299.067 91.7916 298.794 92.1716 298.619 92.5991C298.588 92.656 298.541 92.7034 298.485 92.7361C298.429 92.7688 298.364 92.7856 298.299 92.7849Z" fill="#B0A094"/>
<path d="M323.015 119.111C327.06 119.111 336.812 119.328 337.762 122.94C338.711 126.552 337.669 132.403 336.379 135.84C338.278 141.082 337.669 148.822 335.863 151.237C337.844 157.078 336.554 161.382 335.347 163.446C336.296 165.768 337.153 172.393 335.698 175.654C336.895 180.298 338.267 188.038 336.121 189.597C333.2 191.661 325.429 192.693 319.939 191.392C314.449 190.092 316.606 179.008 317.029 176.428C314.624 173.25 317.204 163.704 317.204 163.704C315.997 161.041 317.803 151.062 317.803 151.062C316.348 148.657 318.236 135.582 318.236 135.582C316.668 132.961 315.987 119.111 323.015 119.111Z" fill="#BCADA2"/>
<path d="M293.304 121.516C296.482 120.112 307.133 117.563 305.069 120.37C302.076 124.447 303.913 128.74 302.138 133.786C303.706 138.606 303.17 146.48 301.715 149.266C303.007 153.309 302.876 157.672 301.343 161.63C302.117 163.694 302.829 170.164 301.622 173.756C302.654 178.131 303.438 186.955 301.622 188.947C300.314 190.387 298.582 191.372 296.676 191.76C294.769 192.148 292.789 191.918 291.023 191.103C288.495 190.071 287.37 181.63 288.619 178.719C286.162 173.363 288.164 165.427 288.164 165.427C285.791 161.299 287.628 152.641 287.628 152.641C285.275 144.963 288.164 136.469 288.164 136.469C286.895 134.168 288.237 123.755 293.304 121.516Z" fill="#BCADA2"/>
<path d="M300.313 122.465C299.89 122.152 299.546 121.744 299.308 121.275C299.07 120.806 298.944 120.288 298.94 119.761C298.932 119.409 298.994 119.058 299.122 118.729C299.25 118.4 299.442 118.1 299.686 117.846C299.931 117.592 300.224 117.388 300.547 117.248C300.871 117.107 301.219 117.032 301.572 117.026C302.78 117.127 303.954 117.478 305.019 118.058C306.639 118.853 307.237 119.586 307.31 120.783C307.382 121.98 304.43 126.191 302.81 125.19C301.19 124.189 301.221 123.497 300.313 122.465Z" fill="#BCADA2"/>
<path opacity="0.2" d="M331.621 137.223C332.426 133.745 334.469 134.055 336.502 135.479L336.358 135.881C338.257 141.124 337.648 148.864 335.842 151.279C335.955 151.609 336.059 151.939 336.151 152.311C333.623 149.834 330.114 143.786 331.621 137.223Z" fill="black"/>
<path d="M331.973 145.716L325.11 148.853L324.439 171.021L305.791 183.033L326.668 190.526L332.334 211.96L339.207 208.833L343.046 173.869L331.973 145.716Z" fill="#C3DBF2"/>
<path d="M331.973 145.716L325.11 148.853L324.439 171.021L305.791 183.033L326.668 190.526L332.334 211.96L339.207 208.833L343.046 173.869L331.973 145.716Z" fill="#FCBE91"/>
<path d="M374.924 192.528L368.051 195.665L345.904 194.427L355.172 188.173L374.924 192.528Z" fill="#C3DBF2"/>
<path d="M374.924 192.528L368.051 195.665L345.904 194.427L355.172 188.173L374.924 192.528Z" fill="#FCBE91"/>
<path d="M331.973 145.716L349.166 159.731L370.456 153.518L362.437 174.199L374.925 192.528L352.778 191.289L339.207 208.833L333.531 187.388L312.664 179.896L331.302 167.884L331.973 145.716Z" fill="#FFD37D"/>
<path d="M342.778 189.783L342.623 196.79L350.879 196.326C350.879 196.326 351.994 191.94 347.246 188.885L342.778 189.783Z" fill="#FFDDCF"/>
<path d="M345.275 203.807L350.993 200.515L350.889 196.325L342.623 196.79L345.275 203.807Z" fill="#FFDDCF"/>
<path d="M338.041 122.733C338.711 123.353 339.217 123.827 339.774 124.374C340.332 124.921 340.806 125.406 341.384 125.984C342.416 127.068 343.448 128.182 344.48 129.307C346.498 131.616 348.396 134.027 350.167 136.531C352.037 139.148 353.697 141.908 355.131 144.787C356.856 148.121 357.961 151.74 358.392 155.469C358.455 156.02 358.486 156.575 358.485 157.13V157.997V158.595L358.309 160.938C358.123 162.476 357.938 164.034 357.68 165.489C357.202 168.433 356.575 171.35 355.801 174.23C354.317 179.893 352.349 185.417 349.919 190.742C349.522 191.639 348.82 192.366 347.936 192.791C347.053 193.217 346.047 193.315 345.098 193.066C344.15 192.818 343.32 192.24 342.759 191.436C342.198 190.632 341.941 189.654 342.034 188.678V188.513C342.478 183.064 343.067 177.512 343.366 172.125C343.572 169.421 343.655 166.748 343.717 164.137C343.717 162.827 343.717 161.547 343.717 160.267L343.634 158.41V157.956V157.76C343.613 157.613 343.582 157.468 343.541 157.326C343.005 155.511 342.227 153.775 341.23 152.166C339.972 150.108 338.594 148.127 337.102 146.232C335.543 144.251 333.871 142.28 332.138 140.339C331.271 139.369 330.373 138.42 329.485 137.46L328.144 136.046L326.874 134.736L326.668 134.519C325.196 132.97 324.382 130.912 324.397 128.776C324.411 126.64 325.253 124.592 326.745 123.064C328.238 121.535 330.264 120.645 332.4 120.579C334.535 120.514 336.612 121.279 338.195 122.713L338.041 122.733Z" fill="white"/>
<path d="M326.11 121.557C327.142 121.413 327.41 118.998 326.584 117.429C325.914 116.139 323.488 116.315 321.321 116.872C319.577 117.26 317.908 117.93 316.378 118.853C314.19 120.061 314.985 121.516 315.49 122.661C315.996 123.807 316.956 126.438 319.02 125.045C321.084 123.652 324.665 121.774 326.11 121.557Z" fill="#BCADA2"/>
<path d="M352.138 380.857C351.983 377.565 352.85 372.25 344.748 375.697C339.908 377.761 346.709 383.21 346.709 383.21L352.138 380.857Z" fill="#BCADA2"/>
<path d="M250.672 124.271H261.755C262.063 124.282 262.361 124.387 262.608 124.572C262.855 124.756 263.04 125.011 263.138 125.303L268.938 145.943C268.976 146.064 268.984 146.191 268.963 146.315C268.942 146.439 268.891 146.557 268.816 146.658C268.74 146.758 268.641 146.84 268.528 146.895C268.415 146.95 268.29 146.978 268.164 146.975H257.07C256.765 146.959 256.471 146.853 256.226 146.669C255.982 146.485 255.798 146.232 255.698 145.943L249.898 125.303C249.858 125.183 249.847 125.055 249.868 124.93C249.888 124.804 249.938 124.686 250.014 124.584C250.09 124.483 250.19 124.402 250.304 124.347C250.419 124.292 250.545 124.266 250.672 124.271Z" fill="#C3DBF2"/>
<path d="M256.709 138.182L254.387 130.102L250.342 131.712L251.807 141.268L256.709 138.182Z" fill="#FFDDCF"/>
<path opacity="0.3" d="M262.644 125.014C262.753 125.021 262.857 125.061 262.942 125.13C263.027 125.198 263.089 125.291 263.119 125.396L268.929 145.943C268.947 145.986 268.953 146.032 268.948 146.078C268.943 146.123 268.926 146.167 268.899 146.204C268.872 146.242 268.836 146.271 268.794 146.291C268.753 146.31 268.707 146.318 268.661 146.315C268.553 146.31 268.449 146.272 268.363 146.206C268.278 146.139 268.216 146.047 268.186 145.943L262.396 125.365C262.386 125.326 262.384 125.284 262.391 125.244C262.398 125.203 262.414 125.165 262.438 125.131C262.461 125.098 262.492 125.07 262.528 125.05C262.564 125.03 262.603 125.017 262.644 125.014Z" fill="black"/>
<path d="M126.494 44.0847H118.682V45.1167H126.494V44.0847Z" fill="#C3DBF2"/>
<path d="M89.7859 55.7876H88.7539C88.7566 52.6935 89.9834 49.7262 92.1663 47.5336C94.3493 45.3409 97.3112 44.1011 100.405 44.0847H114.44V45.1167H100.405C97.5849 45.1331 94.8855 46.2642 92.8961 48.2633C90.9066 50.2624 89.7886 52.9672 89.7859 55.7876Z" fill="#C3DBF2"/>
<path d="M222.251 47.6967H100.403C95.9401 47.6967 92.3223 51.3144 92.3223 55.7772V75.8393C92.3223 80.3021 95.9401 83.9199 100.403 83.9199H222.251C226.714 83.9199 230.332 80.3021 230.332 75.8393V55.7772C230.332 51.3144 226.714 47.6967 222.251 47.6967Z" fill="#B9D3ED"/>
<path d="M144.84 60.3491L146.615 63.9405L150.588 64.5184L147.709 67.3151L148.39 71.278L144.84 69.4101L141.29 71.278L141.971 67.3151L139.092 64.5184L143.065 63.9405L144.84 60.3491Z" fill="white"/>
<path d="M160.961 60.3491L162.736 63.9405L166.709 64.5184L163.83 67.3151L164.511 71.278L160.961 69.4101L157.411 71.278L158.092 67.3151L155.213 64.5184L159.186 63.9405L160.961 60.3491Z" fill="white"/>
<path d="M177.082 60.3491L178.857 63.9405L182.83 64.5184L179.962 67.3151L180.632 71.278L177.082 69.4101L173.532 71.278L174.213 67.3151L171.334 64.5184L175.307 63.9405L177.082 60.3491Z" fill="white"/>
<path d="M193.201 60.3491L194.976 63.9405L198.95 64.5184L196.081 67.3151L196.751 71.278L193.201 69.4101L189.651 71.278L190.332 67.3151L187.453 64.5184L191.426 63.9405L193.201 60.3491Z" fill="white"/>
<path opacity="0.5" d="M209.321 62.6814L210.167 64.4048C210.243 64.5544 210.354 64.6834 210.491 64.7805C210.627 64.8776 210.785 64.9399 210.952 64.9621L212.85 65.2407L211.478 66.5823C211.358 66.6983 211.269 66.8415 211.217 66.9997C211.165 67.1578 211.152 67.3262 211.179 67.4905L211.499 69.3894L209.806 68.5431C209.655 68.4705 209.489 68.4318 209.321 68.4296C209.156 68.429 208.993 68.4679 208.846 68.5431L207.144 69.441L207.432 67.5111C207.46 67.3468 207.447 67.1784 207.394 67.0203C207.342 66.8622 207.253 66.719 207.133 66.603L205.761 65.2614L207.66 64.9827C207.83 64.9627 207.994 64.9003 208.134 64.8012C208.275 64.702 208.388 64.5693 208.464 64.4151L209.311 62.6917L209.321 62.6814ZM209.311 60.3594L207.536 63.9507L203.562 64.5287L206.442 67.3357L205.761 71.2883L209.311 69.4203L212.861 71.2883L212.18 67.3357L215.059 64.5287L211.086 63.9507L209.311 60.3594Z" fill="white"/>
<path opacity="0.5" d="M117.494 78.2027C124.339 78.2027 129.888 72.6536 129.888 65.8084C129.888 58.9632 124.339 53.4141 117.494 53.4141C110.649 53.4141 105.1 58.9632 105.1 65.8084C105.1 72.6536 110.649 78.2027 117.494 78.2027Z" fill="white"/>
<path d="M127.73 65.8083C127.733 68.0856 126.975 70.2987 125.578 72.0967C124.18 73.8947 122.222 75.1748 120.015 75.7341C117.807 76.2934 115.476 76.0999 113.391 75.1843C111.306 74.2686 109.586 72.6832 108.504 70.6794C107.686 69.1864 107.26 67.5106 107.266 65.8083C107.35 63.1508 108.465 60.6304 110.375 58.7803C112.285 56.9303 114.839 55.8959 117.498 55.8959C120.157 55.8959 122.711 56.9303 124.621 58.7803C126.531 60.6304 127.646 63.1508 127.73 65.8083Z" fill="white"/>
<path d="M126.494 70.6793C125.619 72.3028 124.321 73.6592 122.737 74.6046C121.154 75.55 119.344 76.0492 117.5 76.0492C115.656 76.0492 113.846 75.55 112.262 74.6046C110.679 73.6592 109.381 72.3028 108.506 70.6793C111.169 68.9022 114.298 67.9539 117.5 67.9539C120.701 67.9539 123.831 68.9022 126.494 70.6793Z" fill="#B0A094"/>
<path d="M122.056 62.3511C122.056 63.2533 121.789 64.1352 121.288 64.8853C120.787 65.6354 120.074 66.2201 119.241 66.5653C118.407 66.9106 117.49 67.0009 116.605 66.8249C115.72 66.6489 114.908 66.2145 114.27 65.5765C113.632 64.9386 113.197 64.1258 113.021 63.241C112.845 62.3562 112.936 61.439 113.281 60.6055C113.626 59.772 114.211 59.0596 114.961 58.5584C115.711 58.0572 116.593 57.7897 117.495 57.7897C118.705 57.7897 119.865 58.2702 120.72 59.1257C121.576 59.9811 122.056 61.1413 122.056 62.3511Z" fill="#FFDDCF"/>
<path d="M213.853 173.58H193.203V174.612H213.853V173.58Z" fill="#C3DBF2"/>
<path d="M222.251 134.777H100.403C95.9401 134.777 92.3223 138.395 92.3223 142.857V162.919C92.3223 167.382 95.9401 171 100.403 171H222.251C226.714 171 230.332 167.382 230.332 162.919V142.857C230.332 138.395 226.714 134.777 222.251 134.777Z" fill="#B9D3ED"/>
<path d="M144.84 147.419L146.615 151.021L150.588 151.588L147.709 154.395L148.39 158.348L144.84 156.48L141.29 158.348L141.971 154.395L139.092 151.588L143.065 151.021L144.84 147.419Z" fill="white"/>
<path d="M160.961 147.419L162.736 151.021L166.709 151.588L163.83 154.395L164.511 158.348L160.961 156.48L157.411 158.348L158.092 154.395L155.213 151.588L159.186 151.021L160.961 147.419Z" fill="white"/>
<path d="M177.082 147.419L178.857 151.021L182.83 151.588L179.962 154.395L180.632 158.348L177.082 156.48L173.532 158.348L174.213 154.395L171.334 151.588L175.307 151.021L177.082 147.419Z" fill="white"/>
<path d="M193.201 147.419L194.976 151.021L198.95 151.588L196.081 154.395L196.751 158.348L193.201 156.48L189.651 158.348L190.332 154.395L187.453 151.588L191.426 151.021L193.201 147.419Z" fill="white"/>
<path d="M209.321 147.419L211.096 151.021L215.069 151.588L212.2 154.395L212.871 158.348L209.321 156.48L205.77 158.348L206.452 154.395L203.572 151.588L207.545 151.021L209.321 147.419Z" fill="white"/>
<path opacity="0.5" d="M126.265 161.651C131.105 156.811 131.105 148.963 126.265 144.123C121.425 139.282 113.577 139.282 108.737 144.123C103.896 148.963 103.896 156.811 108.737 161.651C113.577 166.491 121.425 166.491 126.265 161.651Z" fill="white"/>
<path d="M127.73 152.878C127.735 155.156 126.979 157.371 125.583 159.171C124.186 160.97 122.228 162.252 120.02 162.813C117.812 163.374 115.48 163.181 113.393 162.265C111.307 161.35 109.586 159.764 108.504 157.759C107.686 156.263 107.26 154.584 107.266 152.878C107.35 150.221 108.465 147.7 110.375 145.85C112.285 144 114.839 142.966 117.498 142.966C120.157 142.966 122.711 144 124.621 145.85C126.531 147.7 127.646 150.221 127.73 152.878Z" fill="white"/>
<path opacity="0.5" d="M126.494 157.759C125.616 159.38 124.317 160.733 122.734 161.677C121.151 162.62 119.343 163.118 117.5 163.118C115.657 163.118 113.848 162.62 112.265 161.677C110.682 160.733 109.383 159.38 108.506 157.759C111.169 155.982 114.298 155.034 117.5 155.034C120.701 155.034 123.831 155.982 126.494 157.759Z" fill="#FFD37D"/>
<path d="M122.056 149.38C122.059 150.282 121.793 151.165 121.293 151.917C120.793 152.668 120.081 153.254 119.248 153.601C118.414 153.948 117.497 154.04 116.611 153.865C115.726 153.69 114.912 153.257 114.273 152.619C113.634 151.982 113.199 151.169 113.022 150.284C112.845 149.399 112.935 148.481 113.28 147.647C113.625 146.813 114.209 146.1 114.96 145.598C115.71 145.096 116.592 144.829 117.495 144.829C118.703 144.829 119.862 145.308 120.717 146.161C121.572 147.014 122.054 148.172 122.056 149.38Z" fill="#FCBE91"/>
<path d="M222.251 91.2368H100.403C95.9401 91.2368 92.3223 94.8546 92.3223 99.3174V119.379C92.3223 123.842 95.9401 127.46 100.403 127.46H222.251C226.714 127.46 230.332 123.842 230.332 119.379V99.3174C230.332 94.8546 226.714 91.2368 222.251 91.2368Z" fill="#B9D3ED"/>
<path d="M226.585 112.444L217.916 127.46H239.588L226.585 112.444Z" fill="#B9D3ED"/>
<path d="M144.84 103.879L146.615 107.48L150.588 108.058L147.709 110.855L148.39 114.808L144.84 112.94L141.29 114.808L141.971 110.855L139.092 108.058L143.065 107.48L144.84 103.879Z" fill="white"/>
<path d="M160.961 103.879L162.736 107.48L166.709 108.058L163.83 110.855L164.511 114.808L160.961 112.94L157.411 114.808L158.092 110.855L155.213 108.058L159.186 107.48L160.961 103.879Z" fill="white"/>
<path opacity="0.5" d="M177.081 106.211L177.927 107.934C178.001 108.086 178.112 108.217 178.249 108.316C178.385 108.415 178.544 108.479 178.711 108.502L180.6 108.791L179.227 110.133C179.108 110.249 179.018 110.392 178.966 110.55C178.914 110.708 178.901 110.877 178.928 111.041L179.248 112.94L177.556 112.042C177.406 111.961 177.24 111.919 177.071 111.918C176.904 111.917 176.741 111.96 176.596 112.042L174.893 112.94L175.213 111.041C175.24 110.877 175.227 110.708 175.175 110.55C175.123 110.392 175.033 110.249 174.914 110.133L173.541 108.791L175.44 108.512C175.607 108.489 175.766 108.425 175.903 108.326C176.04 108.227 176.15 108.096 176.224 107.945L177.071 106.221L177.081 106.211ZM177.071 103.889L175.295 107.491L171.322 108.069L174.202 110.865L173.52 114.818L177.071 112.95L180.621 114.818L179.939 110.865L182.819 108.069L178.846 107.491L177.071 103.889Z" fill="white"/>
<path opacity="0.5" d="M193.201 106.211L194.048 107.934C194.122 108.086 194.232 108.217 194.369 108.316C194.506 108.415 194.665 108.479 194.832 108.502L196.731 108.781L195.358 110.122C195.239 110.238 195.149 110.381 195.097 110.54C195.045 110.698 195.032 110.866 195.059 111.03L195.379 112.929L193.686 112.031C193.537 111.951 193.371 111.908 193.201 111.908C193.035 111.907 192.871 111.95 192.727 112.031L191.024 112.929L191.344 111.03C191.371 110.866 191.358 110.698 191.306 110.54C191.254 110.381 191.164 110.238 191.044 110.122L189.672 108.781L191.571 108.502C191.738 108.479 191.897 108.415 192.034 108.316C192.17 108.217 192.281 108.086 192.355 107.934L193.201 106.211ZM193.201 103.879L191.426 107.48L187.453 108.058L190.332 110.855L189.651 114.808L193.201 112.94L196.751 114.808L196.081 110.855L198.96 108.058L194.987 107.48L193.212 103.879H193.201Z" fill="white"/>
<path opacity="0.5" d="M209.321 106.211L210.167 107.934C210.241 108.086 210.351 108.217 210.488 108.316C210.625 108.415 210.784 108.479 210.951 108.502L212.85 108.781L211.477 110.122C211.358 110.238 211.268 110.381 211.216 110.54C211.164 110.698 211.151 110.866 211.178 111.03L211.498 112.929L209.806 112.031C209.656 111.951 209.49 111.908 209.321 111.908C209.154 111.907 208.991 111.95 208.846 112.031L207.143 112.929L207.463 111.03C207.49 110.866 207.477 110.698 207.425 110.54C207.373 110.381 207.283 110.238 207.164 110.122L205.791 108.781L207.69 108.502C207.857 108.479 208.016 108.415 208.153 108.316C208.29 108.217 208.4 108.086 208.474 107.934L209.321 106.211ZM209.321 103.879L207.545 107.48L203.572 108.058L206.452 110.855L205.77 114.808L209.321 112.94L212.871 114.808L212.189 110.855L215.069 108.058L211.096 107.48L209.321 103.879Z" fill="white"/>
<path opacity="0.5" d="M117.494 121.743C124.339 121.743 129.888 116.194 129.888 109.348C129.888 102.503 124.339 96.9541 117.494 96.9541C110.649 96.9541 105.1 102.503 105.1 109.348C105.1 116.194 110.649 121.743 117.494 121.743Z" fill="white"/>
<path d="M127.731 109.348C127.734 111.626 126.977 113.839 125.579 115.637C124.181 117.435 122.224 118.715 120.016 119.274C117.808 119.833 115.477 119.64 113.392 118.724C111.307 117.809 109.587 116.223 108.505 114.219C107.687 112.726 107.261 111.051 107.267 109.348C107.223 107.977 107.456 106.611 107.95 105.332C108.445 104.052 109.192 102.885 110.146 101.9C111.101 100.915 112.243 100.132 113.507 99.5966C114.77 99.0616 116.127 98.7859 117.499 98.7859C118.871 98.7859 120.229 99.0616 121.492 99.5966C122.755 100.132 123.898 100.915 124.852 101.9C125.807 102.885 126.553 104.052 127.048 105.332C127.543 106.611 127.775 107.977 127.731 109.348Z" fill="white"/>
<path d="M126.494 114.219C125.616 115.84 124.317 117.194 122.734 118.137C121.151 119.08 119.343 119.578 117.5 119.578C115.657 119.578 113.848 119.08 112.265 118.137C110.682 117.194 109.383 115.84 108.506 114.219C111.169 112.442 114.298 111.494 117.5 111.494C120.701 111.494 123.831 112.442 126.494 114.219Z" fill="#ECA79D"/>
<path d="M122.056 105.85C122.056 106.752 121.789 107.634 121.288 108.384C120.787 109.134 120.074 109.719 119.241 110.064C118.407 110.409 117.49 110.5 116.605 110.324C115.72 110.148 114.908 109.713 114.27 109.075C113.632 108.437 113.197 107.625 113.021 106.74C112.845 105.855 112.936 104.938 113.281 104.104C113.626 103.271 114.211 102.558 114.961 102.057C115.711 101.556 116.593 101.288 117.495 101.288C118.094 101.287 118.688 101.404 119.242 101.633C119.796 101.862 120.3 102.197 120.723 102.621C121.147 103.045 121.483 103.549 121.712 104.103C121.941 104.657 122.058 105.25 122.056 105.85Z" fill="#B0A094"/>
</svg>
