<svg width="162" height="28" viewBox="0 0 162 28" fill="none" xmlns="http://www.w3.org/2000/svg">
<path d="M21.8774 26.957H12.4731C10.481 26.957 8.91064 26.7871 7.76221 26.4473C6.59033 26.1191 5.45947 25.5098 4.36963 24.6191C3.03369 23.4941 2.0376 22.082 1.38135 20.3828C0.713379 18.6719 0.379395 16.6387 0.379395 14.2832C0.379395 9.67773 1.37549 6.26172 3.36768 4.03516C5.33643 1.82031 8.41846 0.712891 12.6138 0.712891H21.8774V5.96875H12.7192C11.6646 5.96875 10.7915 6.10938 10.1001 6.39062C9.40869 6.71875 8.83447 7.20508 8.37744 7.84961C7.48682 9.13867 7.0415 11.3594 7.0415 14.5117C7.0415 17.1953 7.46338 19.0527 8.30713 20.084C9.11572 21.1152 10.5864 21.6309 12.7192 21.6309H21.8774V26.957ZM45.3337 17.2012C45.3337 20.248 44.4079 22.6855 42.5563 24.5137C40.7165 26.3418 38.2438 27.2559 35.1384 27.2559C32.0212 27.2559 29.5427 26.3418 27.7028 24.5137C25.8513 22.7207 24.9255 20.2832 24.9255 17.2012C24.9255 14.1777 25.8513 11.7461 27.7028 9.90625C29.5192 8.07812 31.9978 7.16406 35.1384 7.16406C38.2438 7.16406 40.7165 8.06641 42.5563 9.87109C44.4079 11.6875 45.3337 14.1309 45.3337 17.2012ZM39.3571 17.2012C39.3571 15.5723 38.9587 14.3008 38.1618 13.3867C37.447 12.4727 36.4274 12.0156 35.1032 12.0156C33.7907 12.0156 32.7712 12.4727 32.0446 13.3867C31.3063 14.2305 30.9372 15.502 30.9372 17.2012C30.9372 18.0684 31.0251 18.8008 31.2009 19.3984C31.3649 20.0312 31.6462 20.5879 32.0446 21.0684C32.7946 21.959 33.8142 22.4043 35.1032 22.4043C36.4274 22.4043 37.447 21.959 38.1618 21.0684C38.9587 20.1543 39.3571 18.8652 39.3571 17.2012ZM60.6688 19.627H48.0302V14.3359H60.6688V19.627ZM89.2052 26.9746H82.2267L76.7247 17.043H71.2052V26.9746H65.0528V0.712891H78.4825C81.67 0.712891 83.9728 1.375 85.3907 2.69922C86.9024 4 87.6583 6.02734 87.6583 8.78125C87.6583 10.8203 87.2013 12.4902 86.2872 13.791C85.4786 14.9629 84.3302 15.7656 82.8419 16.1992L89.2052 26.9746ZM81.4708 8.85156C81.4708 7.86719 81.1954 7.16992 80.6446 6.75977C80.0235 6.36133 78.881 6.16211 77.2169 6.16211H71.2052V11.6289H77.2169C78.8341 11.6289 79.9649 11.4121 80.6095 10.9785C81.1837 10.5449 81.4708 9.83594 81.4708 8.85156ZM108.777 26.957H101.218C98.054 26.957 95.6517 26.1309 94.011 24.4785C92.3587 22.8496 91.5325 20.4238 91.5325 17.2012C91.5325 14.0371 92.3587 11.6289 94.011 9.97656C95.6751 8.32422 98.0774 7.49805 101.218 7.49805H108.777V12.2441H101.904C100.251 12.2441 99.1614 12.4492 98.6341 12.8594C98.095 13.293 97.8255 13.9551 97.8255 14.8457H108.777V19.627H97.8255C97.8255 20.4824 98.054 21.127 98.511 21.5605C98.9681 21.9941 100.087 22.2109 101.868 22.2109H108.777V26.957Z" fill="#225999"/>
<path d="M134.36 16.6035H119.278V26.9746H113.108V14.8633C113.108 11.5586 113.307 9.13867 113.706 7.60352C114.057 6.0918 114.749 4.79102 115.78 3.70117C116.342 3.17383 116.934 2.74023 117.555 2.40039C118.176 2.04883 118.903 1.73828 119.735 1.46875C120.579 1.19922 121.493 1.00586 122.477 0.888672C123.438 0.771484 124.569 0.712891 125.87 0.712891H134.36V6.03906H125.43C123.321 6.03906 121.774 6.47852 120.79 7.35742C119.782 8.21289 119.278 9.53125 119.278 11.3125H134.36V16.6035ZM144.299 6.26758H138.287V0.712891H144.299V6.26758ZM144.299 26.9746H138.287V7.48047H144.299V26.9746ZM161.901 26.957H157.015C155.093 26.957 153.616 26.418 152.585 25.3398C151.554 24.2852 151.038 22.7266 151.038 20.6641V12.0684H147.61V7.49805H151.038V0.712891H156.786V7.49805H161.901V12.0684H156.786V19.1172C156.786 20.3828 156.968 21.2441 157.331 21.7012C157.741 22.1348 158.45 22.3516 159.458 22.3516H161.901V26.957Z" fill="#EEF6FF"/>
</svg>
