<svg width="14" height="19" viewBox="0 0 14 19" fill="none" xmlns="http://www.w3.org/2000/svg">
<path d="M10.1996 8.994C10.1996 8.994 6.59961 12.894 6.59961 15.294C6.59304 15.7733 6.68095 16.2493 6.85831 16.6946C7.03568 17.14 7.29902 17.546 7.63331 17.8896C8.30845 18.5835 9.23157 18.9807 10.1996 18.994C11.1677 19.0073 12.1013 18.6354 12.7952 17.9603C13.1388 17.626 13.4131 17.2273 13.6026 16.787C13.7921 16.3467 13.893 15.8733 13.8996 15.394V15.294C13.8996 12.894 10.1996 8.994 10.1996 8.994ZM8.72961 7.637L9.39861 6.913L7.09961 0.5H5.09961L0.0996094 14.5H2.09961L3.52961 10.5H6.47261C7.15129 9.49091 7.90439 8.53392 8.72561 7.637H8.72961ZM6.09961 3.3L7.95961 8.5H4.24361L6.09961 3.3Z" fill="#5F6B73"/>
</svg>
