<svg width="280" height="280" viewBox="0 0 400 435" fill="none" xmlns="http://www.w3.org/2000/svg">
<path d="M58.5884 403.621C136.69 444.793 263.318 444.793 341.42 403.621C419.522 362.448 419.531 295.712 341.42 254.549C263.309 213.386 136.69 213.376 58.5787 254.549C-19.5327 295.721 -19.523 362.429 58.5884 403.621Z" fill="#F9F9F9"/>
<path d="M25.0969 352.095L28.7224 354.179C29.3728 354.508 30.0918 354.68 30.821 354.68C31.5503 354.68 32.2692 354.508 32.9197 354.179L200.445 257.457C200.7 257.374 200.921 257.212 201.078 256.996C201.236 256.779 201.32 256.518 201.32 256.25C201.32 255.982 201.236 255.722 201.078 255.505C200.921 255.288 200.7 255.126 200.445 255.043L196.849 252.988C196.199 252.658 195.48 252.487 194.75 252.487C194.021 252.487 193.302 252.658 192.652 252.988L25.0969 349.671C24.8437 349.757 24.6238 349.92 24.468 350.137C24.3123 350.355 24.2285 350.615 24.2285 350.883C24.2285 351.15 24.3123 351.411 24.468 351.628C24.6238 351.846 24.8437 352.009 25.0969 352.095Z" fill="#EBEBEB"/>
<path d="M266.943 386.937C295.178 386.937 318.067 374.389 318.067 358.91C318.067 343.431 295.178 330.883 266.943 330.883C238.707 330.883 215.818 343.431 215.818 358.91C215.818 374.389 238.707 386.937 266.943 386.937Z" fill="#EBEBEB"/>
<path d="M29.6125 349.652L28.8758 349.225C28.2562 348.821 27.7402 348.278 27.3697 347.638C26.9993 346.998 26.7846 346.279 26.7432 345.541V97.1105C26.7854 96.371 27.0003 95.6517 27.3707 95.0103C27.741 94.3689 28.2565 93.8232 28.8758 93.4169L188.937 1.0092C189.598 0.674438 190.329 0.5 191.07 0.5C191.811 0.5 192.541 0.674438 193.203 1.0092L193.93 1.43575C194.551 1.83972 195.068 2.3849 195.439 3.0268C195.809 3.66871 196.023 4.38915 196.062 5.12935V253.55C196.023 254.29 195.809 255.011 195.439 255.653C195.068 256.295 194.551 256.84 193.93 257.244L33.8777 349.652C33.2166 349.986 32.4861 350.161 31.7451 350.161C31.0041 350.161 30.2735 349.986 29.6125 349.652Z" fill="#C3DBF2"/>
<path opacity="0.4" d="M196.044 4.79004C195.899 3.68487 195.007 3.2777 193.941 3.88846L33.8697 96.3059C33.2431 96.7009 32.7263 97.2478 32.3672 97.8958L27.375 94.9874C27.7388 94.3398 28.2586 93.7933 28.8872 93.3975L188.939 1.0092C189.6 0.674438 190.331 0.5 191.072 0.5C191.813 0.5 192.543 0.674438 193.204 1.0092L193.941 1.43575C194.508 1.81531 194.988 2.31029 195.351 2.88831C195.713 3.46633 195.95 4.11437 196.044 4.79004Z" fill="white"/>
<path opacity="0.2" d="M33.5192 349.816C32.8979 350.064 32.2312 350.177 31.5629 350.149C30.8946 350.12 30.2399 349.951 29.6418 349.651L28.8954 349.225C28.2757 348.82 27.7605 348.274 27.3916 347.632C27.0227 346.99 26.8106 346.271 26.7725 345.531V97.1104C26.7949 96.3705 27.0087 95.6491 27.3929 95.0164L32.3851 97.9247C31.989 98.5458 31.7526 99.2551 31.6968 99.9896V348.42C31.6968 349.642 32.5111 350.214 33.5192 349.816Z" fill="#455A64"/>
<path d="M50.6203 259.803L49.8836 259.377C49.264 258.973 48.7481 258.429 48.3776 257.789C48.0071 257.149 47.7924 256.431 47.751 255.693V211.04C47.7925 210.301 48.007 209.581 48.3775 208.939C48.7479 208.298 49.2638 207.752 49.8836 207.347L195.201 123.363C195.86 123.029 196.589 122.854 197.329 122.854C198.068 122.854 198.797 123.029 199.457 123.363L200.193 123.79C200.815 124.194 201.332 124.739 201.702 125.381C202.073 126.023 202.287 126.743 202.326 127.483V172.136C202.287 172.875 202.073 173.594 201.702 174.235C201.332 174.875 200.815 175.418 200.193 175.82L54.8855 259.803C54.2244 260.138 53.4939 260.313 52.7529 260.313C52.0119 260.313 51.2814 260.138 50.6203 259.803Z" fill="#F1F1F1"/>
<path d="M202.307 127.144C202.162 126.039 201.27 125.632 200.194 126.242L54.8766 210.235C54.2499 210.63 53.7331 211.177 53.3741 211.825L48.3818 208.917C48.7412 208.263 49.2618 207.713 49.894 207.317L195.202 123.334C195.861 122.999 196.59 122.825 197.33 122.825C198.069 122.825 198.798 122.999 199.457 123.334L200.194 123.761C200.769 124.139 201.256 124.637 201.621 125.221C201.985 125.805 202.22 126.461 202.307 127.144Z" fill="#FAFAFA"/>
<path d="M54.5153 259.977C53.8936 260.225 53.2263 260.337 52.5578 260.307C51.8894 260.277 51.2349 260.105 50.6379 259.803L49.8818 259.386C49.2666 258.977 48.7553 258.43 48.3885 257.789C48.0216 257.148 47.8094 256.43 47.7686 255.693V211.04C47.791 210.3 48.0048 209.578 48.3889 208.946L53.3812 211.854C53.001 212.489 52.7845 213.209 52.7511 213.948V258.611C52.7414 259.793 53.5169 260.365 54.5153 259.977Z" fill="#E8E8E8"/>
<path d="M75.4265 207.24C83.7145 202.451 90.4322 206.173 90.4322 215.558C90.4322 224.942 83.7048 236.343 75.4071 241.025C67.1093 245.707 60.3916 241.994 60.3916 232.707C60.3916 223.42 67.1384 212.029 75.4265 207.24Z" fill="#C3DBF2"/>
<path d="M50.6203 320.316L49.8836 319.889C49.264 319.486 48.7481 318.942 48.3776 318.302C48.0071 317.662 47.7924 316.944 47.751 316.205V271.553C47.7925 270.813 48.007 270.093 48.3775 269.452C48.7479 268.81 49.2638 268.265 49.8836 267.859L195.201 183.876C195.86 183.541 196.589 183.367 197.329 183.367C198.068 183.367 198.797 183.541 199.457 183.876L200.193 184.302C200.815 184.706 201.333 185.251 201.704 185.893C202.074 186.535 202.288 187.256 202.326 187.996V232.649C202.287 233.388 202.073 234.107 201.702 234.747C201.332 235.387 200.815 235.931 200.193 236.333L54.8855 320.316C54.2244 320.651 53.4939 320.825 52.7529 320.825C52.0119 320.825 51.2814 320.651 50.6203 320.316Z" fill="#F1F1F1"/>
<path d="M202.307 187.647C202.162 186.542 201.27 186.144 200.194 186.755L54.8766 270.748C54.2525 271.142 53.7361 271.685 53.3741 272.328L48.3818 269.42C48.7494 268.793 49.2696 268.269 49.894 267.898L195.202 183.915C195.861 183.58 196.59 183.406 197.33 183.406C198.069 183.406 198.798 183.58 199.457 183.915L200.194 184.341C200.761 184.71 201.243 185.196 201.607 185.766C201.972 186.336 202.21 186.977 202.307 187.647Z" fill="#FAFAFA"/>
<path d="M54.5173 320.481C53.8962 320.73 53.2293 320.844 52.5608 320.815C51.8924 320.787 51.2375 320.617 50.6398 320.316L49.8837 319.889C49.267 319.482 48.7544 318.936 48.3874 318.294C48.0204 317.653 47.8091 316.934 47.7705 316.196V271.553C47.7917 270.813 48.0055 270.091 48.3909 269.459L53.3831 272.367C53.004 273.006 52.7876 273.729 52.753 274.471V319.133C52.7433 320.306 53.5188 320.878 54.5173 320.481Z" fill="#E8E8E8"/>
<path d="M75.4265 267.752C83.7145 262.963 90.4322 266.686 90.4322 276.07C90.4322 285.454 83.7048 296.855 75.4071 301.538C67.1093 306.22 60.3916 302.507 60.3916 293.22C60.3916 283.932 67.1384 272.532 75.4265 267.752Z" fill="#C3DBF2"/>
<path d="M50.6213 158.612L49.8846 158.186C49.2647 157.78 48.7489 157.235 48.3784 156.593C48.008 155.952 47.7934 155.232 47.752 154.492V109.878C47.7934 109.14 48.0081 108.422 48.3785 107.782C48.749 107.142 49.2649 106.598 49.8846 106.194L195.202 22.1724C195.861 21.8377 196.59 21.6633 197.33 21.6633C198.069 21.6633 198.798 21.8377 199.458 22.1724L200.194 22.599C200.816 23.0008 201.333 23.5442 201.703 24.1846C202.074 24.8249 202.288 25.544 202.327 26.2829V70.9356C202.288 71.6758 202.074 72.3963 201.703 73.0382C201.333 73.6801 200.816 74.2253 200.194 74.6292L54.8865 158.612C54.2254 158.947 53.4949 159.122 52.7539 159.122C52.0129 159.122 51.2823 158.947 50.6213 158.612Z" fill="#F1F1F1"/>
<path d="M202.308 25.9434C202.163 24.8382 201.271 24.4407 200.195 25.0515L54.8776 109.044C54.2491 109.433 53.7316 109.977 53.375 110.625L48.3828 107.716C48.74 107.064 49.2612 106.516 49.895 106.126L195.203 22.1431C195.862 21.8084 196.591 21.634 197.331 21.634C198.07 21.634 198.799 21.8084 199.458 22.1431L200.195 22.5697C200.77 22.9461 201.256 23.4426 201.621 24.025C201.986 24.6073 202.22 25.2618 202.308 25.9434Z" fill="#FAFAFA"/>
<path d="M54.5182 158.777C53.8971 159.026 53.2302 159.14 52.5617 159.111C51.8933 159.083 51.2385 158.913 50.6407 158.612L49.8846 158.185C49.2635 157.777 48.7475 157.228 48.3786 156.583C48.0097 155.938 47.7984 155.215 47.7617 154.472V109.878C47.7825 109.135 47.9963 108.41 48.3821 107.774L53.3743 110.683C52.9938 111.321 52.7773 112.044 52.7443 112.786V157.381C52.7443 158.602 53.5197 159.165 54.5182 158.777Z" fill="#E8E8E8"/>
<path d="M75.4274 106.049C83.7155 101.26 90.4332 104.982 90.4332 114.357C90.4332 123.732 83.7058 135.142 75.408 139.834C67.1103 144.526 60.3926 140.803 60.3926 131.516C60.3926 122.229 67.1394 110.848 75.4274 106.049Z" fill="#C3DBF2"/>
<path d="M60.8371 215.305L60.1004 214.879C59.479 214.475 58.9618 213.93 58.5912 213.288C58.2206 212.646 58.007 211.925 57.9678 211.185V166.532C58.0085 165.793 58.2228 165.073 58.5932 164.431C58.9637 163.789 59.48 163.244 60.1004 162.839L205.408 78.8556C206.069 78.5209 206.8 78.3464 207.541 78.3464C208.282 78.3464 209.012 78.5209 209.673 78.8556L210.41 79.2725C211.029 79.6787 211.545 80.2245 211.915 80.8659C212.286 81.5073 212.5 82.2266 212.543 82.9661V127.619C212.501 128.358 212.287 129.078 211.916 129.72C211.546 130.361 211.03 130.907 210.41 131.312L65.0926 215.305C64.4333 215.64 63.7043 215.814 62.9648 215.814C62.2254 215.814 61.4964 215.64 60.8371 215.305Z" fill="#94BCE1"/>
<path d="M212.523 82.6365C212.378 81.5313 211.486 81.1241 210.41 81.7446L65.0924 165.737C64.4634 166.129 63.9433 166.672 63.5802 167.318L58.5977 164.409C58.9537 163.757 59.4709 163.206 60.1002 162.81L205.408 78.8556C206.069 78.5209 206.8 78.3464 207.541 78.3464C208.282 78.3464 209.012 78.5209 209.673 78.8556L210.41 79.2725C210.983 79.6489 211.468 80.1441 211.833 80.7245C212.197 81.3049 212.433 81.957 212.523 82.6365Z" fill="#86ADDC"/>
<path d="M64.7321 215.47C64.1108 215.718 63.444 215.831 62.7758 215.803C62.1075 215.774 61.4528 215.605 60.8547 215.305L60.1083 214.879C59.4897 214.473 58.9753 213.927 58.6065 213.285C58.2378 212.644 58.025 211.924 57.9854 211.185V166.532C58.0112 165.792 58.2283 165.07 58.6154 164.438L63.598 167.347C63.2205 167.982 63.0072 168.702 62.9776 169.441V214.103C62.9582 215.286 63.6852 215.858 64.7321 215.47Z" fill="#6693C8"/>
<path d="M85.6433 162.732C93.9313 157.953 100.649 161.675 100.649 171.05C100.649 180.425 93.9216 191.835 85.6239 196.527C77.3261 201.219 70.5987 197.497 70.6084 188.209C70.6181 178.922 77.3552 167.521 85.6433 162.732Z" fill="#F5F5F5"/>
<path d="M85.981 189.712C85.7188 189.911 85.4024 190.026 85.0736 190.041C84.7448 190.057 84.419 189.972 84.1392 189.799L77.5475 184.816C76.6654 184.147 76.772 182.315 77.7899 180.706C78.8077 179.096 80.349 178.34 81.2214 179.009L85.8162 182.49L98.5827 155.064C99.3776 153.348 100.9 152.156 101.985 152.495C103.071 152.834 103.304 154.434 102.499 156.121L87.9197 187.434C87.5165 188.334 86.8682 189.104 86.0488 189.654L85.981 189.712Z" fill="#C3DBF2"/>
<path d="M212.504 148.947L208.287 146.513C206.455 145.466 204.216 146.513 203.033 147.231L200.367 145.748C197.178 143.809 192.738 147.851 191.75 148.811L190.606 148.162C187.223 146.126 181.067 151.584 181.067 151.584V131.206L183.743 129.917L179.487 127.454C178.877 127.184 178.207 127.078 177.544 127.148C176.88 127.217 176.247 127.46 175.707 127.852C174.132 128.877 172.821 130.259 171.882 131.887C170.942 133.514 170.399 135.34 170.298 137.216V184.303C166.42 181.394 162.271 179.649 158.665 180.299C155.793 180.97 153.279 182.701 151.628 185.146C149.844 188.306 152.791 190.284 156.591 194.627C160.391 198.97 163.687 204.128 167.118 207.327C168.812 209.043 170.824 210.413 173.041 211.36V217.487L177.209 219.901L204.817 199.145V193.008C204.817 193.008 208.752 177.284 210.013 170.711C211.224 164.39 212.339 154.298 210.255 149.063L212.514 148.908L212.504 148.947Z" fill="#C3DBF2"/>
<path opacity="0.4" d="M212.504 148.947L208.287 146.513C206.455 145.466 204.216 146.513 203.033 147.231L200.367 145.748C197.178 143.809 192.738 147.851 191.75 148.811L190.606 148.162C187.223 146.126 181.067 151.584 181.067 151.584V131.206L183.743 129.917L179.487 127.454C178.877 127.184 178.207 127.078 177.544 127.148C176.88 127.217 176.247 127.46 175.707 127.852C174.132 128.877 172.821 130.259 171.882 131.887C170.942 133.514 170.399 135.34 170.298 137.216V184.303C166.42 181.394 162.271 179.649 158.665 180.299C155.793 180.97 153.279 182.701 151.628 185.146C149.844 188.306 152.791 190.284 156.591 194.627C160.391 198.97 163.687 204.128 167.118 207.327C168.812 209.043 170.824 210.413 173.041 211.36V217.487L177.209 219.901L204.817 199.145V193.008C204.817 193.008 208.752 177.284 210.013 170.711C211.224 164.39 212.339 154.298 210.255 149.063L212.514 148.908L212.504 148.947Z" fill="white"/>
<path d="M181.377 203.061L160.497 191.011L151.356 185.727C150.192 188.577 153.013 190.575 156.581 194.656C160.351 198.97 163.676 204.156 167.108 207.356C168.801 209.072 170.813 210.442 173.031 211.389V217.486L177.199 219.9L183.296 215.315C182.511 210.138 181.377 203.061 181.377 203.061Z" fill="#C3DBF2"/>
<path d="M174.475 139.65L170.307 137.236V186.629L174.475 186.736V139.65Z" fill="#C3DBF2"/>
<path d="M207.232 152.116L210.47 149.732C210.393 149.518 210.334 149.305 210.247 149.102L211.43 149.024L208.832 148.908L204.499 146.513C203.992 146.717 203.503 146.96 203.035 147.24L204.392 148.026L207.232 152.116Z" fill="#C3DBF2"/>
<path d="M195.763 151.409L198.798 149.102L194.61 146.562C193.599 147.211 192.654 147.958 191.789 148.791L194.697 150.478L195.763 151.409Z" fill="#C3DBF2"/>
<path d="M189.424 151.186L185.275 148.762L185.295 148.724V153.968L190.122 152.204L189.424 151.186Z" fill="#C3DBF2"/>
<g opacity="0.15">
<path opacity="0.15" d="M181.377 203.061L160.497 191.011L151.356 185.728C150.192 188.578 153.013 190.575 156.581 194.656C160.351 198.97 163.676 204.157 167.108 207.356C168.801 209.072 170.813 210.442 173.031 211.389V217.487L177.199 219.901L183.296 215.315C182.511 210.138 181.377 203.061 181.377 203.061Z" fill="black"/>
<path opacity="0.15" d="M174.475 139.65L170.307 137.236V186.629L174.475 186.736V139.65Z" fill="black"/>
<path opacity="0.15" d="M207.232 152.116L210.469 149.731C210.392 149.518 210.334 149.304 210.246 149.101L211.429 149.023L208.831 148.907L204.498 146.513C203.991 146.716 203.502 146.959 203.034 147.24L204.391 148.025L207.232 152.116Z" fill="black"/>
<path opacity="0.15" d="M195.762 151.408L198.797 149.101L194.609 146.561C193.598 147.211 192.653 147.957 191.788 148.791L194.696 150.478L195.762 151.408Z" fill="black"/>
<path opacity="0.15" d="M189.422 151.185L185.273 148.761L185.293 148.723V153.967L190.12 152.203L189.422 151.185Z" fill="black"/>
</g>
<path d="M177.201 219.939V213.803C174.984 212.842 172.976 211.459 171.288 209.731C167.856 206.532 164.502 201.335 160.76 197.031C157.018 192.727 153.975 190.701 155.797 187.55C157.449 185.105 159.962 183.374 162.835 182.703C166.46 182.053 170.59 183.827 174.467 186.706V139.65C174.567 137.774 175.109 135.948 176.047 134.321C176.985 132.694 178.294 131.311 179.866 130.285C182.852 128.559 185.275 129.955 185.275 133.406V153.968C185.275 153.968 192.73 147.357 195.735 151.409C195.735 151.409 203.063 143.741 206.398 150.216C206.398 150.216 211.768 145.883 214.153 150.914C216.537 155.946 215.413 166.59 214.153 173.163C212.893 179.736 208.947 195.461 208.947 195.461V201.597L177.201 219.939Z" fill="#C3DBF2"/>
<path opacity="0.3" d="M185.295 162.799C185.295 162.799 185.974 153.415 189.425 151.167H189.299C187.871 151.936 186.528 152.856 185.295 153.91V153.735C185.282 153.763 185.275 153.792 185.275 153.823C185.275 153.853 185.282 153.883 185.295 153.91V162.799Z" fill="#455A64"/>
<path opacity="0.3" d="M195.766 151.409V159.997C195.766 159.997 196.735 151.167 198.674 149.034C197.62 149.717 196.645 150.513 195.766 151.409Z" fill="#455A64"/>
<path opacity="0.3" d="M206.389 150.216V158.834C206.389 158.834 206.912 150.158 208.783 148.879C207.924 149.205 207.117 149.656 206.389 150.216Z" fill="#455A64"/>
<path d="M175.687 121.937C175.009 122.325 174.466 122.102 174.466 121.423V114.638C174.502 114.241 174.631 113.858 174.843 113.521C175.056 113.184 175.345 112.902 175.687 112.699C176.356 112.311 176.899 112.544 176.899 113.213V119.998C176.865 120.394 176.737 120.776 176.527 121.113C176.316 121.45 176.028 121.733 175.687 121.937Z" fill="#EBEBEB"/>
<path d="M165.47 132.689C164.995 133.503 164.23 133.949 163.755 133.658L159.809 131.38C159.334 131.109 159.334 130.217 159.809 129.441C160.284 128.617 161.05 128.171 161.525 128.472L165.47 130.75C165.984 130.973 165.984 131.865 165.47 132.689Z" fill="#EBEBEB"/>
<path d="M161.294 146.775V146.969C161.253 147.39 161.113 147.796 160.885 148.153C160.658 148.51 160.35 148.808 159.985 149.024L154.596 152.135C153.878 152.552 153.287 152.31 153.287 151.583V151.389C153.331 150.968 153.472 150.564 153.699 150.207C153.926 149.85 154.233 149.551 154.596 149.334L159.985 146.222C160.712 145.806 161.294 146.048 161.294 146.775Z" fill="#EBEBEB"/>
<path d="M190.074 130.352V130.158C190.114 129.735 190.254 129.328 190.481 128.969C190.708 128.61 191.017 128.31 191.383 128.093L196.773 124.982C197.49 124.565 198.081 124.817 198.081 125.534V125.728C198.038 126.149 197.897 126.553 197.669 126.91C197.442 127.267 197.135 127.566 196.773 127.783L191.383 130.895C190.675 131.312 190.074 131.069 190.074 130.352Z" fill="#EBEBEB"/>
<path d="M185.827 120.929C185.352 120.657 185.352 119.775 185.827 118.99L189.772 112.204C190.247 111.381 191.013 110.935 191.488 111.235C191.963 111.516 191.963 112.398 191.488 113.222L187.543 120.008C187.107 120.764 186.331 121.21 185.827 120.929Z" fill="#EBEBEB"/>
<path d="M290.04 235.266C290.787 207.569 288.567 200.938 281.2 195.868L278.34 211.912C278.34 211.912 281.694 230.816 281.335 237.118C281.025 242.653 280.482 249.575 279.174 254.044C278.943 254.85 278.422 255.541 277.71 255.983C275.829 257.156 275.073 258.358 273.658 259.861C272.553 261.024 271.613 261.306 271.719 261.674C271.933 262.081 272.292 262.392 272.725 262.546C273.157 262.701 273.632 262.687 274.055 262.508C274.993 262.13 275.884 261.645 276.711 261.063C276.062 262.761 275.142 264.342 273.988 265.746C271.351 268.974 271.235 270.961 276.556 271.01C279.881 271.01 282.537 268.984 285.048 261.645C286.022 258.954 286.802 256.197 287.384 253.395C288.702 246.076 289.924 239.726 290.04 235.266Z" fill="#FFDDCF"/>
<path d="M275.008 193.764C278.527 193.251 283.306 193.987 286.398 199.513C289.49 205.039 290.275 214.549 290.595 224.002C290.595 224.002 284.459 229.13 277.092 226.609L275.008 193.764Z" fill="#C3DBF2"/>
<path opacity="0.1" d="M275.008 193.764C278.527 193.251 283.306 193.987 286.398 199.513C289.49 205.039 290.275 214.549 290.595 224.002C290.595 224.002 284.459 229.13 277.092 226.609L275.008 193.764Z" fill="#C3DBF2"/>
<path d="M285.35 346.074C285.903 346.287 286.048 347.354 286.136 349.467C286.194 351.067 286.543 353.869 284.662 354.421C282.781 354.974 280.038 354.693 278.846 353.19C277.343 351.251 276.335 349.642 274.193 347.373C272.332 345.376 270.315 343.495 269.579 340.723C268.9 338.193 269.462 337.097 271.188 336.36C273.553 335.391 277.285 338.658 279.137 339.172C280.726 339.637 284.788 345.861 285.35 346.074Z" fill="#BCADA2"/>
<path d="M285.35 344.116V346.714C284.374 347.338 283.247 347.684 282.089 347.715C280.93 347.745 279.786 347.46 278.778 346.888C278.672 346.636 278.1 343.176 278.1 343.176L285.35 344.116Z" fill="#FFDDCF"/>
<path d="M264.345 361.052C264.798 362.444 265.18 363.858 265.489 365.289C265.809 366.859 266.264 369.486 265.721 370.669C265.178 371.852 263.026 372.608 259.692 372.608C257.54 372.608 254.186 374.053 251.888 375.332C249.591 376.612 244.57 377.184 242.059 376.893C239.103 376.544 236.039 374.828 235.555 373.597C235.07 372.366 235.71 371.105 242.689 368.129C242.757 368.129 252.383 364.969 255.756 361.246L264.345 361.052Z" fill="#BCADA2"/>
<path d="M264.345 358.241C264.345 358.241 264.345 360.179 264.345 361.275C264.345 362.37 263.056 364.018 259.682 363.892C257.317 363.815 255.669 363.175 255.805 361.226V358.415L264.345 358.241Z" fill="#FFDDCF"/>
<path d="M287.038 309.633C286.463 305.019 285.437 300.474 283.975 296.06C283.975 296.06 284.896 284.427 285.342 273.317C285.826 261.354 285.342 246.328 285.545 243.342C285.545 243.342 246.965 235.586 246.276 249.353C245.588 263.119 247.798 298.368 248.215 304.437C248.632 310.505 249.718 315.886 250.978 325.764C252.238 335.643 255.679 358.415 255.679 358.415C257.015 359.095 258.497 359.434 259.995 359.404C261.493 359.373 262.961 358.974 264.268 358.241C264.268 358.241 266.982 330.602 266.701 323.593C266.482 318.403 265.589 313.264 264.045 308.305C264.045 308.305 264.772 296.904 265.421 286.977C266.071 277.05 266.749 272.299 266.895 267.995L267.728 267.578C267.728 267.578 268.572 284.679 269.027 290.758C269.483 296.836 270.452 302.653 272.207 313.927C273.738 323.719 278.275 344.417 278.275 344.417C282.676 346.801 285.313 344.106 285.313 344.106C285.313 344.106 288.231 318.125 287.038 309.633Z" fill="#B4C3D1"/>
<path d="M266.934 268.005C266.934 268.005 276.298 263.39 280.98 259.231C280.98 259.231 276.627 265.358 270.918 268.073C270.918 268.073 268.892 289.323 268.901 288.896L267.728 267.966L266.934 268.005Z" fill="#97ACBF"/>
<path d="M258.604 189.382L260.891 201.946L272.233 201.122L269.858 186.871L258.604 189.382Z" fill="#FFDDCF"/>
<path d="M284.225 200.201C283.101 196.789 278.768 193.066 274.435 193.871C267.99 194.966 261.639 196.551 255.435 198.612C251.461 200.037 247.845 203.459 247.515 216.527C247.515 216.527 246.187 246.987 246.168 252.871C256.133 256.817 266.525 256.701 272.234 255.45C284.177 252.842 285.611 247.889 285.611 247.889C285.611 247.889 285.767 225.989 285.408 216.527C285.107 208.49 285.001 202.547 284.225 200.201Z" fill="white"/>
<path d="M249.851 174.094C249.851 174.094 246.943 178.689 247.321 179.125C247.699 179.561 249.87 179.91 249.87 179.91L249.851 174.094Z" fill="#FFDDCF"/>
<path d="M257.84 161.404C251.839 162.809 250.162 165.495 249.804 175.092C249.435 185.116 250.531 188.238 251.878 189.556C252.78 190.448 257.694 190.526 260.195 189.76C263.287 188.79 270.277 186.173 273.456 181.035C277.198 175.024 278.041 166.978 273.815 163.769C267.863 159.319 260.282 160.822 257.84 161.404Z" fill="#FFDDCF"/>
<path d="M258.73 190.07C260.766 188.432 260.582 187.375 260.582 187.375C259.128 188.742 253.719 189.906 251.857 189.557C252.623 190.342 256.142 190.458 258.73 190.07Z" fill="#ECA79D"/>
<path d="M249.87 163.896C251.634 166.911 255.453 168.355 255.453 168.355C256.607 169.664 255.967 174.783 257.993 175.587C257.993 175.587 258.865 171.865 261.997 172.262C265.128 172.659 265.661 176.654 263.732 179.126C261.803 181.598 259.951 180.716 259.951 180.716C259.951 180.716 260.164 185.999 262.578 188.946C262.578 188.946 265.263 189.751 270.139 188.587C273.144 187.88 277.322 184.012 279.019 179.988C282.625 171.457 282.712 163.857 277.274 161.705C276.605 157.827 273.503 156.15 269.994 155.423C262.442 153.872 257.576 158.583 251.76 158.176C248.425 157.943 247.805 160.357 249.87 163.896Z" fill="#B0A094"/>
<path d="M277.402 163.003L280.96 160.793C280.667 160.321 280.198 159.985 279.657 159.859C279.117 159.733 278.548 159.826 278.076 160.119C277.604 160.412 277.268 160.881 277.142 161.422C277.015 161.963 277.109 162.531 277.402 163.003Z" fill="#B0A094"/>
<path d="M255.745 198.563C255.745 198.563 250.104 199.61 247.157 204.069C244.21 208.529 231.453 224.525 231.453 224.525C231.453 224.525 213.113 215.344 212.211 214.249C211.31 213.153 211.814 210.962 212.066 209.75C212.318 208.539 212.725 205.873 213.035 205.097C213.5 203.769 211.552 204.128 210.398 205.359C209.245 206.59 208.741 209.004 208.169 209.421C207.597 209.838 203.225 204.816 201.112 202.392C198.999 199.969 198 198.272 196.575 199.271C195.557 199.998 196.217 201.433 197.729 203.507C198.44 204.377 199.088 205.297 199.668 206.26C199.852 206.629 199.29 206.929 199.076 207.123C198.659 207.492 197.932 208.093 197.874 208.674C197.905 208.997 197.905 209.321 197.874 209.644C197.671 210.332 196.818 210.613 196.575 211.331C196.401 211.825 196.575 212.368 196.498 212.882C196.43 213.211 196.255 213.502 196.188 213.851C196.169 214.18 196.22 214.51 196.339 214.817C196.458 215.125 196.641 215.404 196.876 215.635C198.359 217.409 200.395 218.088 202.343 219.164C203.962 220.065 205.639 220.453 207.51 221.287C209.381 222.121 231.366 238.368 234.797 236.478C238.229 234.588 255.813 214.035 255.813 214.035C257.299 211.726 258.083 209.035 258.071 206.289C258.059 203.543 257.251 200.859 255.745 198.563Z" fill="#FFDDCF"/>
<path d="M257.715 197.904C255.292 198.175 251.899 197.73 247.14 202.829C243.319 207.205 239.759 211.802 236.477 216.595C237.102 219.113 238.441 221.398 240.332 223.174C242.224 224.95 244.587 226.143 247.14 226.609C247.14 226.609 255.457 218.088 257.803 213.386C260.148 208.684 260.565 201.064 257.715 197.904Z" fill="#C3DBF2"/>
<path opacity="0.1" d="M257.715 197.904C255.292 198.175 251.899 197.73 247.14 202.829C243.319 207.205 239.759 211.802 236.477 216.595C237.102 219.113 238.441 221.398 240.332 223.174C242.224 224.95 244.587 226.143 247.14 226.609C247.14 226.609 255.457 218.088 257.803 213.386C260.148 208.684 260.565 201.064 257.715 197.904Z" fill="#C3DBF2"/>
</svg>
