<svg width="457" height="440" viewBox="0 0 457 440" fill="none" xmlns="http://www.w3.org/2000/svg">
<path d="M67.1725 405.078C156.268 451.641 300.732 451.641 389.827 405.078C478.923 358.515 478.923 282.971 389.827 236.44C300.732 189.91 156.268 189.867 67.1725 236.44C-21.9226 283.014 -21.9226 358.504 67.1725 405.078Z" fill="#ECECEC"/>
<path d="M223.135 355.921L227.241 358.287C227.967 358.655 228.768 358.846 229.581 358.846C230.394 358.846 231.195 358.655 231.92 358.287L341.363 295.094C341.645 294.998 341.891 294.817 342.064 294.574C342.238 294.332 342.331 294.041 342.331 293.743C342.331 293.445 342.238 293.155 342.064 292.913C341.891 292.67 341.645 292.488 341.363 292.393L337.268 290.026C336.543 289.659 335.741 289.467 334.928 289.467C334.115 289.467 333.314 289.659 332.589 290.026L223.135 353.219C222.853 353.315 222.608 353.497 222.434 353.739C222.26 353.981 222.167 354.272 222.167 354.57C222.167 354.868 222.26 355.159 222.434 355.401C222.608 355.643 222.853 355.825 223.135 355.921Z" fill="#E0E0E0"/>
<path d="M401.454 347.028C387.904 354.278 365.924 354.278 352.374 347.028C338.823 339.777 338.823 328.031 352.374 320.78C365.924 313.529 387.904 313.529 401.454 320.78C415.005 328.031 415.005 339.831 401.454 347.028Z" fill="#E0E0E0"/>
<path d="M245.244 201.936V212.742L58.7653 320.38L53.0274 323.622C51.7247 322.737 50.6487 321.558 49.8865 320.18C49.1243 318.802 48.6973 317.264 48.6401 315.691V134.421C48.6527 134.097 48.7455 133.781 48.9103 133.502C49.0725 133.217 49.3026 132.975 49.5803 132.8L92.0801 108.26C92.5988 107.968 95.6244 109.232 96.1215 109.535L96.4457 109.718C96.7267 109.898 96.9782 110.121 97.1913 110.377C97.4293 110.638 97.613 110.942 97.7316 111.274L101.579 122.383L239.895 39.9767C240.179 39.8451 240.489 39.7769 240.802 39.7769C241.116 39.7769 241.426 39.8451 241.71 39.9767L244.282 41.4679C244.556 41.6397 244.783 41.8775 244.941 42.1595C245.111 42.4404 245.204 42.7608 245.211 43.0888V201.936H245.244Z" fill="#97ACBF"/>
<path d="M245.244 212.699L53.0276 323.622V135.869L97.1915 110.377C97.4295 110.637 97.6132 110.942 97.7318 111.274L101.579 122.383L102.314 124.49L244.952 42.127C245.122 42.4078 245.215 42.7282 245.222 43.0563L245.244 212.699Z" fill="#C0CEDC"/>
<path d="M97.1915 110.377L53.0276 135.868L48.9105 133.501C49.0727 133.216 49.3029 132.975 49.5805 132.799L92.0803 108.259C92.3661 108.112 92.6828 108.035 93.0042 108.035C93.3256 108.035 93.6423 108.112 93.9281 108.259L96.4459 109.707C96.7277 109.89 96.9792 110.116 97.1915 110.377Z" fill="#B4C3D1"/>
<path d="M244.963 42.1271L102.324 124.49L101.589 122.383L239.906 39.9767C240.19 39.8451 240.5 39.7769 240.813 39.7769C241.127 39.7769 241.436 39.8451 241.721 39.9767L244.293 41.4679C244.567 41.6292 244.797 41.8556 244.963 42.1271Z" fill="#B4C3D1"/>
<path d="M112.082 247.3C111.489 246.9 110.999 246.366 110.651 245.74C110.304 245.115 110.109 244.416 110.083 243.701V65.1222C110.126 64.3822 110.344 63.663 110.72 63.0241C111.096 62.3853 111.618 61.845 112.244 61.4482L217.732 0.610681C218.346 0.225155 219.053 0.0142673 219.778 0.000698763C220.503 -0.0128697 221.218 0.171392 221.845 0.533671C222.473 0.895951 222.991 1.42254 223.342 2.0568C223.692 2.69107 223.864 3.40901 223.837 4.13342V182.713C223.793 183.452 223.574 184.171 223.198 184.809C222.823 185.448 222.301 185.988 221.676 186.387L116.199 247.224C115.568 247.56 114.865 247.743 114.15 247.756C113.434 247.769 112.726 247.613 112.082 247.3Z" fill="white"/>
<path d="M116.2 247.223L221.688 186.386C222.313 185.988 222.835 185.447 223.21 184.809C223.586 184.17 223.805 183.451 223.849 182.712V4.13268C223.849 2.78194 222.898 2.23083 221.688 2.9008L116.19 63.7491C115.565 64.1473 115.043 64.6878 114.667 65.3264C114.292 65.965 114.073 66.6836 114.028 67.4231V246.002C114.072 247.353 115.022 247.904 116.2 247.223Z" fill="#F1F1F1"/>
<path d="M127.751 70.8385L207.412 24.8484C208.439 24.254 209.281 24.7295 209.281 25.929V26.6746C209.245 27.3234 209.056 27.9546 208.732 28.5175C208.407 29.0805 207.955 29.5596 207.412 29.9164L127.751 75.9065C126.67 76.5008 125.881 76.0145 125.881 74.8259V74.0803C125.916 73.4311 126.104 72.7993 126.428 72.236C126.753 71.6728 127.206 71.194 127.751 70.8385Z" fill="#E8E8E8"/>
<path d="M127.751 83.4923L207.412 37.5022C208.439 36.9079 209.281 37.3941 209.281 38.5828V39.3284C209.246 39.9776 209.059 40.6094 208.734 41.1726C208.409 41.7359 207.956 42.2146 207.412 42.5702L127.751 88.5603C126.67 89.1546 125.881 88.6684 125.881 87.4797V86.7341C125.918 86.0853 126.106 85.4541 126.431 84.8912C126.755 84.3282 127.207 83.8491 127.751 83.4923Z" fill="#E8E8E8"/>
<path d="M127.751 96.1461L207.412 50.156C208.439 49.5617 209.281 50.0479 209.281 51.2366V51.9822C209.246 52.6314 209.059 53.2632 208.734 53.8265C208.409 54.3897 207.956 54.8685 207.412 55.224L127.751 101.214C126.67 101.819 125.881 101.333 125.881 100.134V99.3879C125.918 98.7391 126.106 98.1079 126.431 97.545C126.755 96.982 127.207 96.5029 127.751 96.1461Z" fill="#E8E8E8"/>
<path d="M127.751 108.8L207.412 62.8209C208.439 62.2158 209.281 62.702 209.281 63.9015V64.6471C209.244 65.2957 209.055 65.9266 208.731 66.4894C208.406 67.0522 207.955 67.5314 207.412 67.8889L127.751 113.879C126.67 114.473 125.881 113.987 125.881 112.798V112.042C125.919 111.393 126.107 110.763 126.432 110.2C126.756 109.637 127.208 109.158 127.751 108.8Z" fill="#E8E8E8"/>
<path d="M127.751 121.464L207.412 75.4739C208.439 74.8795 209.281 75.355 209.281 76.5545V77.3001C209.245 77.9489 209.056 78.5801 208.732 79.143C208.407 79.706 207.955 80.1851 207.412 80.5419L127.751 126.532C126.67 127.126 125.881 126.64 125.881 125.451V124.706C125.916 124.057 126.104 123.425 126.428 122.862C126.753 122.298 127.206 121.82 127.751 121.464Z" fill="#E8E8E8"/>
<path d="M127.751 134.215L207.412 88.2247C208.439 87.6196 209.281 88.1058 209.281 89.3053V90.0509C209.244 90.6995 209.055 91.3304 208.731 91.8932C208.406 92.456 207.955 92.9353 207.412 93.2927L127.751 139.283C126.67 139.877 125.881 139.391 125.881 138.202V137.457C125.916 136.807 126.104 136.176 126.428 135.612C126.753 135.049 127.206 134.57 127.751 134.215Z" fill="#E8E8E8"/>
<path d="M127.751 146.869L207.412 100.879C208.439 100.285 209.281 100.76 209.281 101.96V102.705C209.245 103.354 209.056 103.985 208.732 104.548C208.407 105.111 207.955 105.59 207.412 105.947L127.751 151.937C126.67 152.532 125.881 152.045 125.881 150.857V150.111C125.916 149.462 126.104 148.83 126.428 148.267C126.753 147.704 127.206 147.225 127.751 146.869Z" fill="#E8E8E8"/>
<path d="M127.751 159.523L207.412 113.533C208.439 112.939 209.281 113.425 209.281 114.614V115.359C209.246 116.008 209.059 116.64 208.734 117.203C208.409 117.767 207.956 118.245 207.412 118.601L127.751 164.591C126.67 165.185 125.881 164.71 125.881 163.51V162.765C125.918 162.116 126.106 161.485 126.431 160.922C126.755 160.359 127.207 159.88 127.751 159.523Z" fill="#E8E8E8"/>
<path d="M127.751 172.177L207.412 126.187C208.439 125.592 209.281 126.079 209.281 127.267V128.035C209.246 128.684 209.059 129.316 208.734 129.879C208.409 130.442 207.956 130.921 207.412 131.276L127.751 177.267C126.67 177.872 125.881 177.385 125.881 176.186V175.44C125.915 174.788 126.102 174.153 126.427 173.586C126.752 173.019 127.205 172.536 127.751 172.177Z" fill="#E8E8E8"/>
<path d="M127.751 184.841L207.412 138.84C208.439 138.235 209.281 138.721 209.281 139.921V140.666C209.244 141.315 209.055 141.946 208.731 142.508C208.406 143.071 207.955 143.55 207.412 143.908L127.751 189.898C126.67 190.492 125.881 190.006 125.881 188.817V188.072C125.918 187.424 126.106 186.795 126.431 186.234C126.756 185.672 127.208 185.195 127.751 184.841Z" fill="#E8E8E8"/>
<path d="M127.751 197.549L207.412 151.559C208.439 150.965 209.281 151.451 209.281 152.639V153.385C209.245 154.034 209.056 154.665 208.732 155.228C208.407 155.791 207.955 156.27 207.412 156.627L127.751 202.595C126.67 203.19 125.881 202.703 125.881 201.515V200.769C125.919 200.124 126.109 199.496 126.433 198.937C126.758 198.378 127.209 197.902 127.751 197.549Z" fill="#E8E8E8"/>
<path d="M127.751 210.159L207.412 164.169C208.439 163.575 209.281 164.061 209.281 165.25V165.995C209.246 166.645 209.059 167.276 208.734 167.84C208.409 168.403 207.956 168.882 207.412 169.237L127.751 215.227C126.67 215.822 125.881 215.346 125.881 214.147V213.401C125.918 212.752 126.106 212.121 126.431 211.558C126.755 210.995 127.207 210.516 127.751 210.159Z" fill="#E8E8E8"/>
<path d="M127.751 222.857L207.412 176.866C208.439 176.272 209.281 176.758 209.281 177.947V178.703C209.244 179.352 209.055 179.983 208.731 180.546C208.406 181.109 207.955 181.588 207.412 181.945L127.751 227.925C126.67 228.53 125.881 228.043 125.881 226.844V226.098C125.919 225.45 126.107 224.819 126.432 224.256C126.756 223.693 127.208 223.214 127.751 222.857Z" fill="#E8E8E8"/>
<path d="M115.918 247.365C115.301 247.692 114.609 247.852 113.912 247.826C113.214 247.801 112.535 247.592 111.945 247.22C111.354 246.848 110.871 246.327 110.546 245.709C110.221 245.092 110.065 244.399 110.093 243.701V65.133C110.12 64.3936 110.331 63.6727 110.709 63.0366L114.697 65.3383C114.313 65.9686 114.097 66.6866 114.07 67.4238V246.003C114.07 247.246 114.88 247.808 115.918 247.365Z" fill="#E8E8E8"/>
<path d="M127.015 255.772C126.422 255.372 125.932 254.838 125.584 254.212C125.237 253.587 125.042 252.888 125.016 252.174V73.5944C125.059 72.8544 125.277 72.1352 125.653 71.4963C126.029 70.8574 126.551 70.3172 127.177 69.9203L232.665 9.08284C233.279 8.69732 233.986 8.48644 234.711 8.47287C235.436 8.4593 236.151 8.64356 236.778 9.00584C237.406 9.36812 237.924 9.8947 238.275 10.529C238.625 11.1632 238.797 11.8812 238.77 12.6056V191.185C238.726 191.924 238.507 192.643 238.131 193.281C237.756 193.92 237.234 194.461 236.609 194.859L131.121 255.696C130.491 256.031 129.791 256.212 129.077 256.225C128.364 256.238 127.657 256.083 127.015 255.772Z" fill="white"/>
<path d="M131.133 255.697L236.62 194.859C237.245 194.461 237.767 193.92 238.143 193.282C238.518 192.643 238.737 191.925 238.782 191.185V12.6058C238.782 11.2551 237.831 10.704 236.62 11.3739L131.122 72.2223C130.497 72.6204 129.975 73.1609 129.6 73.7996C129.224 74.4382 129.005 75.1567 128.961 75.8963V254.465C129.004 255.826 129.955 256.377 131.133 255.697Z" fill="#F1F1F1"/>
<path d="M142.684 79.3107L222.346 33.3205C223.426 32.7262 224.215 33.2017 224.215 34.4011V35.1035C224.178 35.7523 223.99 36.3835 223.665 36.9465C223.341 37.5094 222.889 37.9885 222.346 38.3453L142.684 84.3787C141.603 84.973 140.815 84.4867 140.815 83.2981V82.5525C140.85 81.9032 141.037 81.2714 141.362 80.7082C141.687 80.145 142.14 79.6662 142.684 79.3107Z" fill="#E8E8E8"/>
<path d="M142.684 91.964L222.346 45.9739C223.426 45.3795 224.215 45.8658 224.215 47.0545V47.8001C224.18 48.4493 223.992 49.0811 223.668 49.6443C223.343 50.2075 222.89 50.6863 222.346 51.0419L142.684 97.032C141.603 97.6263 140.815 97.1509 140.815 95.9514V95.2058C140.851 94.557 141.04 93.9258 141.364 93.3628C141.689 92.7999 142.141 92.3208 142.684 91.964Z" fill="#E8E8E8"/>
<path d="M142.684 104.618L222.346 58.6282C223.426 58.0338 224.215 58.5201 224.215 59.7088V60.4544C224.18 61.1036 223.992 61.7354 223.668 62.2986C223.343 62.8618 222.89 63.3406 222.346 63.6962L142.684 109.665C141.603 110.27 140.815 109.784 140.815 108.584V107.838C140.855 107.193 141.044 106.567 141.369 106.008C141.693 105.449 142.144 104.973 142.684 104.618Z" fill="#E8E8E8"/>
<path d="M142.684 117.283L222.346 71.2931C223.426 70.6879 224.215 71.1742 224.215 72.3737V73.1193C224.177 73.7679 223.989 74.3987 223.664 74.9616C223.34 75.5244 222.888 76.0036 222.346 76.361L142.684 122.351C141.603 122.946 140.815 122.459 140.815 121.271V120.525C140.85 119.876 141.037 119.244 141.362 118.681C141.687 118.118 142.14 117.639 142.684 117.283Z" fill="#E8E8E8"/>
<path d="M142.684 129.937L222.346 83.9465C223.426 83.3522 224.215 83.8276 224.215 85.0271V85.7727C224.178 86.4215 223.99 87.0527 223.665 87.6157C223.341 88.1786 222.889 88.6577 222.346 89.0145L142.684 135.005C141.603 135.599 140.815 135.113 140.815 133.924V133.178C140.85 132.529 141.037 131.897 141.362 131.334C141.687 130.771 142.14 130.292 142.684 129.937Z" fill="#E8E8E8"/>
<path d="M142.684 142.687L222.346 96.6969C223.426 96.0917 224.215 96.578 224.215 97.7775V98.5231C224.177 99.1717 223.989 99.8025 223.664 100.365C223.34 100.928 222.888 101.407 222.346 101.765L142.684 147.755C141.603 148.349 140.815 147.863 140.815 146.674V145.929C140.85 145.28 141.037 144.648 141.362 144.085C141.687 143.521 142.14 143.043 142.684 142.687Z" fill="#E8E8E8"/>
<path d="M142.684 155.341L222.346 109.351C223.426 108.757 224.215 109.232 224.215 110.432V111.177C224.178 111.826 223.99 112.457 223.665 113.02C223.341 113.583 222.889 114.062 222.346 114.419L142.684 160.453C141.603 161.047 140.815 160.561 140.815 159.372V158.626C140.843 157.97 141.027 157.329 141.352 156.758C141.677 156.187 142.134 155.701 142.684 155.341Z" fill="#E8E8E8"/>
<path d="M142.684 168.016L222.346 122.026C223.426 121.432 224.215 121.918 224.215 123.107V123.852C224.18 124.502 223.992 125.133 223.668 125.697C223.343 126.26 222.89 126.739 222.346 127.094L142.684 173.084C141.603 173.679 140.815 173.203 140.815 172.004V171.258C140.851 170.609 141.04 169.978 141.364 169.415C141.689 168.852 142.141 168.373 142.684 168.016Z" fill="#E8E8E8"/>
<path d="M142.684 180.648L222.346 134.658C223.426 134.064 224.215 134.55 224.215 135.739V136.484C224.18 137.133 223.992 137.765 223.668 138.328C223.343 138.892 222.89 139.37 222.346 139.726L142.684 185.716C141.603 186.321 140.815 185.835 140.815 184.635V183.89C140.852 183.241 141.041 182.61 141.365 182.048C141.69 181.485 142.141 181.006 142.684 180.648Z" fill="#E8E8E8"/>
<path d="M142.684 193.313L222.346 147.323C223.426 146.718 224.215 147.204 224.215 148.404V149.15C224.177 149.798 223.989 150.429 223.664 150.992C223.34 151.555 222.888 152.034 222.346 152.391L142.684 198.381C141.603 198.976 140.815 198.49 140.815 197.301V196.555C140.85 195.906 141.037 195.274 141.362 194.711C141.687 194.148 142.14 193.669 142.684 193.313Z" fill="#E8E8E8"/>
<path d="M142.684 206.022L222.346 160.031C223.426 159.437 224.215 159.923 224.215 161.112V161.858C224.18 162.507 223.992 163.139 223.668 163.702C223.343 164.265 222.89 164.744 222.346 165.099L142.684 211.09C141.603 211.684 140.815 211.198 140.815 210.009V209.263C140.85 208.614 141.037 207.982 141.362 207.419C141.687 206.856 142.14 206.377 142.684 206.022Z" fill="#E8E8E8"/>
<path d="M142.684 218.674L222.346 172.684C223.426 172.09 224.215 172.576 224.215 173.765V174.5C224.18 175.149 223.992 175.781 223.668 176.344C223.343 176.907 222.89 177.386 222.346 177.741L142.684 223.732C141.603 224.326 140.815 223.85 140.815 222.651V221.905C140.853 221.258 141.042 220.629 141.367 220.068C141.691 219.508 142.142 219.03 142.684 218.674Z" fill="#E8E8E8"/>
<path d="M142.684 231.329L222.346 185.306C223.426 184.712 224.215 185.198 224.215 186.387V187.143C224.177 187.792 223.989 188.423 223.664 188.986C223.34 189.549 222.888 190.028 222.346 190.385L142.684 236.365C141.603 236.97 140.815 236.483 140.815 235.284V234.538C140.857 233.895 141.048 233.271 141.372 232.714C141.697 232.157 142.146 231.683 142.684 231.329Z" fill="#E8E8E8"/>
<path d="M130.851 255.836C130.234 256.164 129.542 256.323 128.845 256.298C128.147 256.272 127.468 256.063 126.877 255.692C126.287 255.32 125.804 254.799 125.479 254.181C125.154 253.563 124.998 252.871 125.026 252.173V73.6047C125.053 72.8653 125.264 72.1443 125.642 71.5083L129.63 73.81C129.246 74.4403 129.03 75.1582 129.003 75.8955V254.464C129.003 255.717 129.813 256.279 130.851 255.836Z" fill="#E8E8E8"/>
<path d="M284.502 64.2795L253.683 197.733L250.841 210.009C249.899 213.284 247.808 216.112 244.952 217.973L62.0938 323.503C60.7644 324.224 59.2832 324.621 57.7714 324.66C56.1285 324.774 54.4861 324.43 53.0276 323.666L53.9677 319.592L54.065 319.192L55.0915 314.729L59.5652 295.365L87.8984 172.674C87.937 172.516 87.995 172.364 88.0713 172.22C88.1469 172.08 88.2334 171.939 88.3198 171.809V171.745C88.5155 171.48 88.7571 171.253 89.033 171.075L245.233 80.9206L279.412 61.1889C279.703 61.04 280.026 60.9624 280.352 60.9624C280.679 60.9624 281.002 61.04 281.293 61.1889L283.81 62.6369C284.077 62.8102 284.285 63.0593 284.408 63.3521C284.531 63.6449 284.564 63.9679 284.502 64.2795Z" fill="#C0CEDC"/>
<path d="M284.534 63.9661C284.534 63.5879 284.232 63.469 283.81 63.7175L93.4633 173.614C93.1828 173.787 92.9402 174.015 92.7501 174.284L88.3629 171.745C88.5586 171.48 88.8002 171.253 89.0761 171.075L279.412 61.1889C279.703 61.04 280.025 60.9624 280.352 60.9624C280.679 60.9624 281.001 61.04 281.292 61.1889L283.81 62.6369C284.031 62.7822 284.212 62.9794 284.338 63.2111C284.464 63.4429 284.532 63.7022 284.534 63.9661Z" fill="#B4C3D1"/>
<path d="M92.7503 174.284C92.6267 174.45 92.5182 174.627 92.4261 174.813C92.3684 174.939 92.3214 175.069 92.2856 175.202L65.1951 292.533L59.4895 317.257L58.7655 320.38L57.7714 324.703C56.1285 324.817 54.4861 324.473 53.0276 323.708L53.9677 319.635L54.065 319.235L55.0915 314.772L59.5652 295.408L87.8984 172.717C87.937 172.559 87.995 172.407 88.0713 172.263C88.1469 172.123 88.2334 171.982 88.3198 171.852V171.788L92.7503 174.284Z" fill="#97ACBF"/>
<path d="M59.7274 312.341C59.954 312.471 60.133 312.67 60.2381 312.91C60.3431 313.149 60.3686 313.416 60.3109 313.67L58.7657 320.381L57.9552 323.72C57.8897 323.999 57.7283 324.246 57.4991 324.417C57.27 324.589 56.9877 324.675 56.7017 324.66C55.4044 324.631 54.1332 324.29 52.9953 323.666C51.6926 322.781 50.6166 321.602 49.8544 320.224C49.0922 318.846 48.6652 317.308 48.6081 315.734V308.04C48.601 307.824 48.6524 307.609 48.7568 307.419C48.8612 307.229 49.0147 307.07 49.2014 306.96C49.388 306.849 49.6009 306.791 49.8178 306.791C50.0347 306.791 50.2476 306.849 50.4343 306.96L52.3901 308.04C52.5767 308.152 52.7307 308.31 52.8369 308.5C52.9431 308.69 52.9977 308.904 52.9953 309.121V312.946C52.9833 313.252 53.0874 313.55 53.2866 313.782C53.4858 314.014 53.7654 314.162 54.0692 314.196C54.373 314.231 54.6784 314.149 54.9242 313.967C55.17 313.785 55.3379 313.517 55.3942 313.216L55.7184 311.801C55.7622 311.616 55.8485 311.444 55.9704 311.299C56.0923 311.153 56.2464 311.038 56.4205 310.963C56.5946 310.887 56.7839 310.853 56.9734 310.864C57.1629 310.874 57.3474 310.929 57.5122 311.023L59.7274 312.341Z" fill="#97ACBF"/>
<path d="M100.098 283.824L89.6919 277.816L89.5838 277.751C84.4077 274.823 77.3082 275.255 69.4523 279.794C62.0935 284.03 55.4046 291.107 50.3366 299.244C44.4906 308.667 40.8165 319.581 40.8165 329.36C40.8165 338.481 44.0583 344.889 49.1695 347.882L59.7378 353.912C64.957 357.24 72.3267 356.948 80.496 352.226C96.3159 343.095 109.143 320.889 109.143 302.616C109.143 293.193 105.663 286.645 100.098 283.824Z" fill="#C3DBF2"/>
<path opacity="0.1" d="M59.5324 353.879L49.1695 347.957C44.0043 344.964 40.8165 338.556 40.8165 329.435C40.8165 319.656 44.4906 308.753 50.3366 299.33L61.3911 305.706C55.545 315.128 51.8818 326.021 51.8818 335.789C51.8494 344.499 54.767 350.734 59.5324 353.879Z" fill="black"/>
<path opacity="0.4" d="M99.8824 283.705C94.782 281.23 87.9959 281.857 80.4965 286.168C72.9972 290.48 66.4488 297.504 61.3592 305.695L50.3047 299.319C55.3619 291.128 62.0724 284.061 69.4204 279.869C77.2764 275.33 84.3759 274.898 89.5519 277.815L89.66 277.88L99.8824 283.705Z" fill="white"/>
<path d="M84.4504 322.185V332.267C84.4505 332.78 84.3321 333.287 84.1046 333.747C83.9471 334.186 83.6561 334.564 83.2725 334.828L77.7507 338.016C77.6274 338.107 77.4754 338.15 77.3226 338.138C77.1698 338.126 77.0264 338.06 76.9186 337.951C76.7923 337.803 76.6966 337.631 76.6372 337.445C76.5779 337.26 76.556 337.064 76.5728 336.87V326.831L69.7759 330.743C69.6547 330.838 69.503 330.885 69.3496 330.875C69.1962 330.865 69.0518 330.799 68.9438 330.689C68.8175 330.541 68.7218 330.369 68.6624 330.184C68.6031 329.998 68.5812 329.803 68.598 329.609V322.801C68.6043 322.285 68.7223 321.776 68.9438 321.31C69.1177 320.898 69.4066 320.545 69.7759 320.294L76.5728 316.371V306.333C76.5791 305.816 76.6971 305.308 76.9186 304.841C77.0887 304.428 77.3784 304.074 77.7507 303.826L83.2725 300.584C83.3954 300.494 83.5462 300.449 83.6984 300.459C83.8506 300.469 83.9944 300.532 84.1046 300.638C84.232 300.785 84.3283 300.957 84.3877 301.143C84.4471 301.329 84.4684 301.524 84.4504 301.718V311.736L91.2041 307.845C91.3253 307.751 91.477 307.704 91.6304 307.714C91.7838 307.724 91.9282 307.79 92.0362 307.899C92.1625 308.048 92.2582 308.22 92.3175 308.405C92.3769 308.591 92.3988 308.786 92.3819 308.98V315.788C92.3756 316.304 92.2577 316.813 92.0362 317.279C91.8622 317.691 91.5733 318.043 91.2041 318.295L84.4504 322.185Z" fill="white"/>
<path d="M362.208 166.061L349.575 165.704C348.733 164.98 335.474 150.014 335.474 150.014C335.474 150.014 330.697 157.578 330.622 158.021C330.546 158.464 343.589 172.49 344.918 173.906C345.283 174.375 345.75 174.756 346.283 175.018C346.817 175.28 347.403 175.417 347.998 175.418C351.423 175.624 364.207 176.499 364.207 176.499L362.208 166.061Z" fill="#FFDDCF"/>
<path d="M227.382 355.727C226.791 355.325 226.304 354.79 225.958 354.165C225.613 353.54 225.419 352.842 225.394 352.129V184.226C225.438 183.486 225.657 182.768 226.033 182.129C226.409 181.49 226.93 180.95 227.555 180.552L333.043 119.703C333.676 119.372 334.378 119.193 335.092 119.179C335.807 119.166 336.515 119.32 337.16 119.628C337.752 120.03 338.241 120.567 338.586 121.194C338.931 121.821 339.124 122.521 339.148 123.237V291.129C339.105 291.87 338.887 292.591 338.511 293.232C338.136 293.872 337.613 294.415 336.987 294.814L231.499 355.651C230.867 355.985 230.165 356.166 229.45 356.179C228.735 356.192 228.026 356.037 227.382 355.727Z" fill="#C3DBF2"/>
<path opacity="0.15" d="M230.906 355.888L231.122 355.823C231.077 355.856 231.025 355.878 230.97 355.888C230.844 355.94 230.714 355.983 230.581 356.018H230.365C230.205 356.054 230.043 356.079 229.879 356.094C229.692 356.104 229.504 356.104 229.317 356.094C228.644 356.109 227.979 355.953 227.383 355.64C226.949 355.361 226.581 354.993 226.302 354.559C225.764 353.823 225.459 352.942 225.427 352.031V184.225C225.426 183.859 225.48 183.494 225.589 183.144C225.643 182.964 225.708 182.787 225.784 182.615C225.859 182.437 225.946 182.264 226.043 182.096L230.02 184.398L229.922 184.56C229.598 185.151 229.417 185.81 229.393 186.483V354.43C229.391 354.645 229.42 354.86 229.479 355.067C229.549 355.319 229.692 355.545 229.89 355.715C230.019 355.811 230.166 355.881 230.322 355.921H230.571C230.667 355.936 230.766 355.936 230.862 355.921C230.88 355.916 230.896 355.904 230.906 355.888Z" fill="black"/>
<path opacity="0.3" d="M339.073 122.783C338.9 121.702 337.992 121.346 336.987 121.951L231.488 182.788C230.866 183.187 230.35 183.733 229.986 184.377L226.01 182.064C226.364 181.416 226.882 180.872 227.512 180.487L333 119.638C333.633 119.307 334.335 119.128 335.049 119.115C335.764 119.101 336.472 119.255 337.117 119.563C337.655 119.928 338.108 120.404 338.445 120.96C338.783 121.515 338.997 122.137 339.073 122.783Z" fill="white"/>
<path d="M243.061 189.888L322.701 143.898C323.782 143.293 324.571 143.779 324.571 144.979V145.724C324.535 146.373 324.347 147.005 324.022 147.568C323.697 148.131 323.245 148.61 322.701 148.966L243.04 194.956C241.959 195.55 241.17 195.064 241.17 193.876V193.13C241.207 192.479 241.397 191.845 241.726 191.282C242.055 190.718 242.512 190.241 243.061 189.888Z" fill="#FAFAFA"/>
<path d="M243.061 205.374L322.701 159.373C323.782 158.768 324.571 159.254 324.571 160.453V161.199C324.536 161.848 324.349 162.48 324.024 163.044C323.7 163.607 323.246 164.086 322.701 164.441L243.04 210.431C241.959 211.025 241.17 210.539 241.17 209.35V208.605C241.209 207.955 241.4 207.324 241.728 206.762C242.057 206.201 242.514 205.725 243.061 205.374Z" fill="#FAFAFA"/>
<path d="M243.061 220.857L322.701 174.867C323.782 174.273 324.571 174.748 324.571 175.948V176.661C324.536 177.31 324.349 177.942 324.024 178.506C323.7 179.069 323.246 179.548 322.701 179.903L243.04 225.893C241.959 226.487 241.17 226.001 241.17 224.812V224.066C241.212 223.421 241.405 222.794 241.733 222.236C242.062 221.679 242.517 221.206 243.061 220.857Z" fill="#FAFAFA"/>
<path d="M243.061 236.343L322.701 190.353C323.782 189.758 324.571 190.234 324.571 191.433V192.179C324.536 192.828 324.349 193.461 324.024 194.024C323.7 194.587 323.246 195.066 322.701 195.421L243.04 241.411C241.959 242.005 241.17 241.519 241.17 240.33V239.585C241.207 238.933 241.397 238.3 241.726 237.736C242.055 237.173 242.512 236.695 243.061 236.343Z" fill="#FAFAFA"/>
<path d="M243.061 251.828L322.701 205.838C323.782 205.244 324.571 205.719 324.571 206.919V207.664C324.536 208.314 324.349 208.946 324.024 209.509C323.7 210.073 323.246 210.551 322.701 210.906L243.04 256.896C241.959 257.491 241.17 257.004 241.17 255.816V255.07C241.207 254.419 241.397 253.785 241.726 253.222C242.055 252.658 242.512 252.181 243.061 251.828Z" fill="#FAFAFA"/>
<path d="M243.061 267.313L322.701 221.322C323.782 220.728 324.571 221.204 324.571 222.403V223.127C324.536 223.777 324.349 224.409 324.024 224.972C323.7 225.535 323.246 226.014 322.701 226.369L243.04 272.359C241.959 272.953 241.17 272.467 241.17 271.278V270.533C241.21 269.885 241.402 269.256 241.731 268.697C242.059 268.137 242.515 267.663 243.061 267.313Z" fill="#FAFAFA"/>
<path d="M243.061 282.798L322.701 236.808C323.782 236.214 324.571 236.689 324.571 237.889V238.635C324.536 239.284 324.349 239.916 324.024 240.479C323.7 241.043 323.246 241.521 322.701 241.876L243.04 287.866C241.959 288.461 241.17 287.975 241.17 286.786V286.04C241.207 285.389 241.397 284.756 241.726 284.192C242.055 283.629 242.512 283.151 243.061 282.798Z" fill="#FAFAFA"/>
<path d="M243.061 298.283L322.701 252.303C323.782 251.709 324.571 252.195 324.571 253.384V254.13C324.536 254.779 324.349 255.411 324.024 255.975C323.7 256.538 323.246 257.017 322.701 257.371L243.04 303.362C241.959 303.956 241.17 303.47 241.17 302.281V301.535C241.205 300.882 241.395 300.247 241.724 299.681C242.052 299.116 242.511 298.636 243.061 298.283Z" fill="#FAFAFA"/>
<path d="M243.061 313.768L322.701 267.778C323.782 267.183 324.571 267.67 324.571 268.858V269.593C324.537 270.243 324.35 270.875 324.026 271.439C323.701 272.002 323.247 272.481 322.701 272.835L243.04 318.825C241.959 319.419 241.17 318.933 241.17 317.744V316.999C241.209 316.349 241.4 315.718 241.728 315.156C242.057 314.595 242.514 314.119 243.061 313.768Z" fill="#FAFAFA"/>
<path d="M243.061 329.252L322.701 283.261C323.782 282.667 324.571 283.153 324.571 284.342V285.088C324.537 285.737 324.35 286.37 324.025 286.933C323.701 287.497 323.247 287.975 322.701 288.329L243.05 334.32C241.97 334.914 241.181 334.428 241.181 333.239V332.493C241.217 331.843 241.406 331.211 241.733 330.647C242.06 330.084 242.515 329.606 243.061 329.252Z" fill="#FAFAFA"/>
<path d="M364.553 163.867H379.551C384.693 163.867 389.624 161.825 393.259 158.189C396.895 154.554 398.937 149.623 398.937 144.481C398.937 139.922 397.126 135.549 393.902 132.325C390.678 129.1 386.305 127.289 381.745 127.289C377.185 127.289 372.812 129.1 369.588 132.325C366.364 135.549 364.553 139.922 364.553 144.481V163.867Z" fill="#B0A094"/>
<path d="M395.102 134.064L399.262 131.827C399.133 131.544 398.948 131.29 398.717 131.081C398.487 130.872 398.216 130.712 397.922 130.611C397.628 130.51 397.316 130.47 397.006 130.493C396.696 130.517 396.393 130.603 396.117 130.747C395.547 131.056 395.121 131.577 394.931 132.198C394.741 132.818 394.802 133.489 395.102 134.064Z" fill="#B0A094"/>
<path d="M394.809 134.518L399.24 136.172C399.362 135.887 399.425 135.58 399.426 135.269C399.427 134.959 399.364 134.652 399.243 134.366C399.122 134.081 398.945 133.822 398.721 133.607C398.498 133.392 398.233 133.224 397.943 133.114C397.34 132.902 396.679 132.93 396.096 133.192C395.513 133.453 395.053 133.928 394.809 134.518Z" fill="#B0A094"/>
<path d="M379.973 178.164L359.085 177.267C357.28 174.728 357.28 168.017 359.182 165.856L382.296 166.483L379.973 178.164Z" fill="#C3DBF2"/>
<path d="M367.276 307.748C367.404 309.145 367.462 310.548 367.449 311.952V320.175H374.57V315.355C374.573 313.183 374.753 311.015 375.11 308.872L367.276 307.748Z" fill="#FFDDCF"/>
<path d="M367.438 316.653V315.626C367.243 317.182 362.791 323.039 359.96 325.622C357.702 327.686 354.622 330.063 353.833 332.365C353.044 334.666 357.475 335.693 360.392 335.401C363.226 335.049 365.837 333.683 367.74 331.554C368.92 330.071 369.979 328.496 370.906 326.843C371.771 325.676 375.661 323.277 376.137 321.915C376.271 320.65 376.131 319.371 375.726 318.166C375.391 316.901 375.034 315.507 374.645 315.626V316.404C373.626 317.204 372.364 317.63 371.069 317.615C369.977 317.658 367.438 317.452 367.438 316.653Z" fill="#BCADA2"/>
<path d="M374.57 316.404C373.551 317.203 372.289 317.63 370.993 317.614C369.913 317.614 367.406 317.452 367.406 316.653V315.626C367.211 317.182 362.759 323.039 359.928 325.621C359.388 326.119 358.794 326.626 358.199 327.156C357 328.496 357.346 329.663 360.166 329.901C362.986 330.138 365.472 328.442 367.611 325.816C369.751 323.19 374.57 316.404 374.57 316.404Z" fill="#FFDDCF"/>
<path d="M389.136 319.873C389.277 321.602 389.277 323.406 389.309 324.195V332.418H396.463V327.599C396.462 325.427 396.64 323.258 396.992 321.115L389.136 319.873Z" fill="#FFDDCF"/>
<path d="M389.299 328.884V327.858C389.094 329.414 384.652 335.271 381.81 337.853C379.552 339.917 376.472 342.294 375.694 344.585C374.916 346.876 379.325 347.924 382.253 347.633C385.084 347.281 387.691 345.914 389.591 343.786C390.773 342.302 391.836 340.727 392.768 339.074C393.632 337.907 397.522 335.508 397.987 334.147C398.133 332.882 397.992 331.6 397.576 330.397C397.252 329.133 396.885 327.739 396.496 327.858V328.636C395.476 329.435 394.214 329.862 392.919 329.846C391.86 329.889 389.288 329.684 389.299 328.884Z" fill="#BCADA2"/>
<path d="M396.452 328.637C395.433 329.436 394.171 329.863 392.875 329.847C391.795 329.847 389.288 329.685 389.298 328.885V327.859C389.093 329.415 384.652 335.272 381.81 337.854C381.27 338.351 380.729 338.859 380.092 339.389C378.892 340.729 379.238 341.896 382.058 342.134C384.879 342.371 387.353 340.675 389.493 338.049C391.633 335.423 396.452 328.637 396.452 328.637Z" fill="#FFDDCF"/>
<path d="M367.276 311.141C365.742 298.531 363.235 276.724 362.5 271.959C361.819 267.55 363.527 229.816 364.575 217.799L401.855 215.8C404.686 227.946 401.92 244.328 400.958 254.561C400.007 264.514 398.797 276.173 398.797 276.173C398.797 276.173 401.704 286.32 400.958 294.392C400.461 299.482 398.181 314.837 397.101 321.407C395.83 322.051 394.422 322.378 392.997 322.359C391.573 322.34 390.174 321.976 388.921 321.299C389.039 322.693 387.591 304.29 386.759 296.856C385.571 286.536 385.117 279.015 384.058 272.985C382.729 265.421 382.275 236.007 382.275 236.007L377.953 269.43C378.42 273.013 378.648 276.623 378.633 280.236C378.633 287.703 375.878 304.668 375.013 311.012C373.144 312.341 369.34 312.741 367.276 311.141Z" fill="#B4C3D1"/>
<path d="M382.264 235.986C382.264 235.986 375.445 233.598 371.566 230.032C373.517 233.067 376.285 235.491 379.552 237.024L379.616 256.582L382.264 235.986Z" fill="#97ACBF"/>
<path d="M387.689 166.655C387.689 166.655 397.814 167.822 399.024 168.363C392.854 175.116 399.424 180.714 399.424 180.714L394.723 201.396C398.776 206.572 401.088 210.571 402.061 216.741C397.738 224.391 373.349 225.45 364.413 219.756C365.191 209.09 366.931 201.45 366.347 198.241C362.1 185.144 363.419 182.399 363.818 179.406C364.596 173.56 370.399 168.471 373.717 166.331H376.807L387.689 166.655Z" fill="white"/>
<path d="M370.248 135.707C368.432 136.788 366.185 141.348 366.412 150.922C366.595 159.037 369.232 161.036 370.55 161.62C371.869 162.203 374.419 161.847 376.893 161.425V166.299C376.893 166.299 373.468 170.275 373.652 172.512C373.835 174.749 378.59 175.268 381.799 173.085C384.114 171.29 386.109 169.116 387.699 166.655L387.645 155.46C387.645 155.46 389.093 156.876 391.568 154.715C393.61 152.932 394.291 149.917 392.649 148.307C392.239 147.923 391.745 147.641 391.206 147.484C390.667 147.328 390.099 147.301 389.547 147.407C388.996 147.512 388.478 147.746 388.034 148.091C387.591 148.435 387.236 148.879 386.997 149.387C386.997 149.387 385.625 145.573 379.919 143.703C374.808 142.083 372.009 140.127 370.248 135.707Z" fill="#FFDDCF"/>
<path d="M375.975 148.879C375.973 149.146 376.071 149.404 376.248 149.604C376.426 149.803 376.671 149.93 376.937 149.959C377.212 149.96 377.478 149.855 377.679 149.666C377.88 149.477 378.001 149.219 378.017 148.944C378.037 148.802 378.027 148.659 377.988 148.521C377.949 148.384 377.882 148.256 377.791 148.147C377.7 148.037 377.587 147.947 377.459 147.883C377.331 147.82 377.192 147.783 377.049 147.777C376.907 147.77 376.765 147.793 376.631 147.844C376.498 147.895 376.377 147.974 376.276 148.075C376.175 148.175 376.096 148.296 376.044 148.429C375.992 148.562 375.969 148.704 375.975 148.846V148.879Z" fill="#97ACBF"/>
<path d="M375.705 155.762L373.338 156.519C373.38 156.677 373.454 156.825 373.555 156.954C373.656 157.082 373.782 157.19 373.925 157.268C374.068 157.347 374.226 157.396 374.389 157.412C374.552 157.428 374.716 157.411 374.872 157.361C375.192 157.255 375.457 157.028 375.612 156.73C375.767 156.432 375.8 156.085 375.705 155.762Z" fill="#ECA79D"/>
<path d="M367.611 145.746L369.675 144.319C369.588 144.18 369.474 144.059 369.34 143.965C369.205 143.871 369.053 143.806 368.892 143.772C368.731 143.739 368.566 143.739 368.405 143.771C368.244 143.804 368.091 143.869 367.957 143.963C367.684 144.161 367.496 144.455 367.432 144.786C367.367 145.117 367.431 145.46 367.611 145.746Z" fill="#B0A094"/>
<path d="M378.947 146.502L376.883 145.075C376.969 144.936 377.083 144.815 377.218 144.721C377.352 144.627 377.505 144.562 377.665 144.528C377.826 144.495 377.992 144.495 378.153 144.527C378.314 144.56 378.466 144.625 378.601 144.719C378.874 144.917 379.062 145.211 379.126 145.542C379.19 145.873 379.126 146.216 378.947 146.502Z" fill="#B0A094"/>
<path d="M368.087 148.144C368.085 148.411 368.182 148.669 368.36 148.869C368.538 149.069 368.783 149.195 369.048 149.225C369.322 149.225 369.586 149.122 369.787 148.935C369.987 148.749 370.11 148.493 370.129 148.22C370.149 148.078 370.139 147.934 370.1 147.797C370.061 147.66 369.993 147.532 369.902 147.423C369.811 147.313 369.698 147.223 369.571 147.159C369.443 147.096 369.303 147.059 369.161 147.052C369.018 147.046 368.876 147.069 368.743 147.12C368.61 147.171 368.489 147.25 368.388 147.35C368.287 147.451 368.208 147.572 368.156 147.705C368.104 147.838 368.08 147.98 368.087 148.122V148.144Z" fill="#97ACBF"/>
<path d="M372.894 147.56L372.732 153.698L369.501 152.704L372.894 147.56Z" fill="#ECA79D"/>
<path d="M376.851 161.425C379.455 161.09 384.826 159.545 385.668 157.427C385.33 158.5 384.67 159.443 383.777 160.128C382.178 161.501 376.851 163.057 376.851 163.057V161.425Z" fill="#ECA79D"/>
<path d="M396.819 192.157L388.186 204.767L394.723 201.396L396.819 192.157Z" fill="#F1F1F1"/>
<path d="M392.82 171.117L372.559 192.07C372.559 192.07 352.666 190.114 345.912 188.18C343.751 187.564 342.065 184.646 341.589 182.193C341.529 181.55 341.268 180.942 340.844 180.455C340.419 179.969 339.852 179.628 339.223 179.481V184.398C339.05 185.64 338.445 186.278 336.673 186.321C329.843 186.472 326.677 184.398 325.867 188.104C325.337 190.471 326.364 193.161 330.87 194.404C337.202 196.133 340.703 195.269 344.55 196.23C347.522 196.965 368.259 200.909 372.332 201.795C374.494 202.271 376.125 202.119 378.47 199.807C380.815 197.495 398.342 181.069 398.342 181.069C403.745 175.667 402.146 170.123 399.142 168.47C397.262 167.443 395.209 168.653 392.82 171.117Z" fill="#FFDDCF"/>
<path d="M399.023 168.362C400.331 168.892 401.93 170.286 402.06 173.895C402.19 177.504 399.52 180.789 396.376 184.55C393.231 188.31 392.281 189.304 392.281 189.304C392.281 189.304 384.327 186.408 382.977 180.497C382.977 180.497 388.974 174.143 390.768 172.112C392.561 170.08 395.868 166.936 399.023 168.362Z" fill="#C3DBF2"/>
</svg>
