<svg width="436" height="420" viewBox="0 0 436 420" fill="none" xmlns="http://www.w3.org/2000/svg">
<path d="M63.7839 386.665C148.829 431.112 286.727 431.112 371.773 386.665C456.818 342.219 456.818 270.109 371.773 225.693C286.727 181.278 148.829 181.237 63.7839 225.693C-21.2613 270.15 -21.2613 342.209 63.7839 386.665Z" fill="#ECECEC"/>
<path d="M212.657 339.743L216.577 342.001C217.269 342.352 218.034 342.535 218.81 342.535C219.586 342.535 220.351 342.352 221.043 342.001L325.511 281.681C325.78 281.589 326.014 281.416 326.18 281.184C326.346 280.953 326.435 280.676 326.435 280.391C326.435 280.107 326.346 279.829 326.18 279.598C326.014 279.367 325.78 279.193 325.511 279.102L321.602 276.843C320.909 276.492 320.144 276.31 319.368 276.31C318.592 276.31 317.827 276.492 317.135 276.843L212.657 337.164C212.388 337.255 212.154 337.429 211.988 337.66C211.822 337.891 211.733 338.169 211.733 338.453C211.733 338.738 211.822 339.015 211.988 339.246C212.154 339.478 212.388 339.651 212.657 339.743Z" fill="#E0E0E0"/>
<path d="M382.87 331.253C369.935 338.175 348.955 338.175 336.02 331.253C323.086 324.332 323.086 313.12 336.02 306.199C348.955 299.278 369.935 299.278 382.87 306.199C395.805 313.12 395.805 324.384 382.87 331.253Z" fill="#E0E0E0"/>
<path d="M233.761 192.757V203.072L55.7592 305.817L50.282 308.912C49.0386 308.067 48.0115 306.942 47.2839 305.627C46.5564 304.311 46.1488 302.843 46.0942 301.341V128.311C46.1062 128.002 46.1948 127.7 46.3521 127.434C46.507 127.161 46.7266 126.931 46.9916 126.763L87.5596 103.339C88.0547 103.06 90.9429 104.267 91.4173 104.556L91.7268 104.731C91.995 104.903 92.2351 105.115 92.4385 105.36C92.6657 105.608 92.841 105.9 92.9542 106.216L96.6263 116.82L228.655 38.1595C228.927 38.0338 229.223 37.9688 229.522 37.9688C229.821 37.9688 230.117 38.0338 230.388 38.1595L232.843 39.583C233.105 39.7469 233.321 39.9739 233.472 40.2431C233.634 40.5112 233.723 40.817 233.73 41.1302V192.757H233.761Z" fill="#97ACBF"/>
<path d="M233.761 203.032L50.2822 308.913V129.694L92.4387 105.361C92.6659 105.609 92.8412 105.9 92.9544 106.217L96.6265 116.821L97.3279 118.832L233.483 40.2129C233.645 40.481 233.734 40.7868 233.741 41.1L233.761 203.032Z" fill="#C0CEDC"/>
<path d="M92.4389 105.36L50.2825 129.693L46.3525 127.434C46.5074 127.161 46.727 126.931 46.9921 126.763L87.56 103.338C87.8329 103.198 88.1352 103.125 88.442 103.125C88.7487 103.125 89.0511 103.198 89.3239 103.338L91.7272 104.721C91.9962 104.896 92.2363 105.111 92.4389 105.36Z" fill="#B4C3D1"/>
<path d="M233.493 40.2122L97.3376 118.831L96.6362 116.82L228.665 38.1595C228.937 38.0338 229.232 37.9688 229.532 37.9688C229.831 37.9688 230.127 38.0338 230.398 38.1595L232.853 39.583C233.115 39.7369 233.334 39.953 233.493 40.2122Z" fill="#B4C3D1"/>
<path d="M106.652 236.059C106.086 235.677 105.618 235.167 105.286 234.57C104.955 233.973 104.769 233.306 104.744 232.624V62.1621C104.785 61.4557 104.993 60.7692 105.352 60.1594C105.711 59.5495 106.21 59.0339 106.807 58.6551L207.5 0.582923C208.086 0.214921 208.761 0.0136187 209.453 0.000667001C210.145 -0.0122847 210.827 0.163602 211.426 0.509413C212.026 0.855225 212.519 1.35788 212.854 1.96331C213.189 2.56875 213.353 3.25405 213.328 3.94554V174.407C213.285 175.113 213.076 175.799 212.718 176.409C212.359 177.018 211.861 177.534 211.265 177.914L110.582 235.987C109.979 236.308 109.309 236.482 108.626 236.494C107.943 236.507 107.267 236.357 106.652 236.059Z" fill="white"/>
<path d="M110.583 235.986L211.276 177.914C211.872 177.534 212.37 177.018 212.729 176.408C213.087 175.799 213.296 175.113 213.339 174.407V3.94508C213.339 2.65573 212.431 2.12968 211.276 2.76919L110.573 60.8516C109.976 61.2317 109.478 61.7477 109.12 62.3572C108.761 62.9668 108.552 63.6527 108.51 64.3587V234.821C108.551 236.11 109.459 236.636 110.583 235.986Z" fill="#F1F1F1"/>
<path d="M121.609 67.6182L197.649 23.7186C198.629 23.1513 199.434 23.6051 199.434 24.7501V25.4618C199.399 26.0811 199.219 26.6836 198.909 27.221C198.599 27.7583 198.168 28.2156 197.649 28.5562L121.609 72.4559C120.577 73.0232 119.824 72.559 119.824 71.4244V70.7127C119.858 70.093 120.037 69.4899 120.347 68.9523C120.657 68.4146 121.089 67.9576 121.609 67.6182Z" fill="#E8E8E8"/>
<path d="M121.609 79.6965L197.649 35.7968C198.629 35.2295 199.434 35.6937 199.434 36.8283V37.54C199.4 38.1597 199.221 38.7628 198.911 39.3004C198.601 39.838 198.169 40.2951 197.649 40.6344L121.609 84.5341C120.577 85.1014 119.824 84.6372 119.824 83.5026V82.7909C119.859 82.1716 120.039 81.5691 120.349 81.0317C120.659 80.4944 121.09 80.037 121.609 79.6965Z" fill="#E8E8E8"/>
<path d="M121.609 91.7756L197.649 47.8759C198.629 47.3086 199.434 47.7728 199.434 48.9074V49.6191C199.4 50.2388 199.221 50.8419 198.911 51.3795C198.601 51.9171 198.169 52.3742 197.649 52.7135L121.609 96.6132C120.577 97.1908 119.824 96.7266 119.824 95.5817V94.87C119.859 94.2507 120.039 93.6482 120.349 93.1108C120.659 92.5734 121.09 92.1162 121.609 91.7756Z" fill="#E8E8E8"/>
<path d="M121.609 103.855L197.649 59.9653C198.629 59.3877 199.434 59.8518 199.434 60.9968V61.7085C199.398 62.3276 199.218 62.9298 198.908 63.4671C198.598 64.0043 198.167 64.4617 197.649 64.8029L121.609 108.703C120.577 109.27 119.824 108.806 119.824 107.671V106.949C119.86 106.33 120.04 105.728 120.35 105.191C120.66 104.653 121.091 104.196 121.609 103.855Z" fill="#E8E8E8"/>
<path d="M121.609 115.942L197.649 72.0428C198.629 71.4755 199.434 71.9293 199.434 73.0743V73.786C199.399 74.4053 199.219 75.0078 198.909 75.5452C198.599 76.0825 198.168 76.5399 197.649 76.8804L121.609 120.78C120.577 121.347 119.824 120.883 119.824 119.749V119.037C119.858 118.417 120.037 117.814 120.347 117.276C120.657 116.739 121.089 116.282 121.609 115.942Z" fill="#E8E8E8"/>
<path d="M121.609 128.114L197.649 84.2143C198.629 83.6367 199.434 84.1009 199.434 85.2458V85.9575C199.398 86.5767 199.218 87.1788 198.908 87.7161C198.598 88.2533 198.167 88.7108 197.649 89.052L121.609 132.952C120.577 133.519 119.824 133.055 119.824 131.92V131.208C119.858 130.589 120.037 129.986 120.347 129.448C120.657 128.91 121.089 128.453 121.609 128.114Z" fill="#E8E8E8"/>
<path d="M121.609 140.193L197.649 96.2938C198.629 95.7265 199.434 96.1803 199.434 97.3253V98.037C199.399 98.6563 199.219 99.2588 198.909 99.7962C198.599 100.334 198.168 100.791 197.649 101.131L121.609 145.031C120.577 145.598 119.824 145.134 119.824 144V143.288C119.858 142.668 120.037 142.065 120.347 141.527C120.657 140.99 121.089 140.533 121.609 140.193Z" fill="#E8E8E8"/>
<path d="M121.609 152.273L197.649 108.373C198.629 107.806 199.434 108.27 199.434 109.404V110.116C199.4 110.736 199.221 111.339 198.911 111.877C198.601 112.414 198.169 112.871 197.649 113.211L121.609 157.11C120.577 157.678 119.824 157.224 119.824 156.079V155.367C119.859 154.748 120.039 154.145 120.349 153.608C120.659 153.071 121.09 152.613 121.609 152.273Z" fill="#E8E8E8"/>
<path d="M121.609 164.35L197.649 120.45C198.629 119.883 199.434 120.347 199.434 121.482V122.214C199.4 122.834 199.221 123.437 198.911 123.974C198.601 124.512 198.169 124.969 197.649 125.308L121.609 169.208C120.577 169.786 119.824 169.322 119.824 168.177V167.465C119.857 166.842 120.035 166.236 120.345 165.695C120.655 165.154 121.088 164.693 121.609 164.35Z" fill="#E8E8E8"/>
<path d="M121.609 176.439L197.649 132.529C198.629 131.951 199.434 132.415 199.434 133.56V134.272C199.398 134.891 199.218 135.493 198.908 136.031C198.598 136.568 198.167 137.025 197.649 137.366L121.609 181.266C120.577 181.833 119.824 181.369 119.824 180.235V179.523C119.859 178.905 120.039 178.304 120.349 177.768C120.659 177.232 121.09 176.777 121.609 176.439Z" fill="#E8E8E8"/>
<path d="M121.609 188.569L197.649 144.669C198.629 144.102 199.434 144.566 199.434 145.7V146.412C199.399 147.031 199.219 147.634 198.909 148.171C198.599 148.709 198.168 149.166 197.649 149.507L121.609 193.386C120.577 193.953 119.824 193.489 119.824 192.354V191.642C119.861 191.026 120.041 190.427 120.351 189.893C120.661 189.36 121.092 188.906 121.609 188.569Z" fill="#E8E8E8"/>
<path d="M121.609 200.606L197.649 156.706C198.629 156.139 199.434 156.603 199.434 157.737V158.449C199.4 159.069 199.221 159.672 198.911 160.21C198.601 160.747 198.169 161.204 197.649 161.544L121.609 205.443C120.577 206.011 119.824 205.557 119.824 204.412V203.7C119.859 203.081 120.039 202.478 120.349 201.941C120.659 201.404 121.09 200.946 121.609 200.606Z" fill="#E8E8E8"/>
<path d="M121.609 212.727L197.649 168.827C198.629 168.26 199.434 168.724 199.434 169.859V170.581C199.398 171.2 199.218 171.802 198.908 172.339C198.598 172.876 198.167 173.334 197.649 173.675L121.609 217.564C120.577 218.142 119.824 217.678 119.824 216.533V215.821C119.86 215.202 120.04 214.6 120.35 214.063C120.66 213.525 121.091 213.068 121.609 212.727Z" fill="#E8E8E8"/>
<path d="M110.314 236.12C109.725 236.433 109.065 236.585 108.399 236.561C107.733 236.537 107.085 236.337 106.521 235.982C105.957 235.628 105.497 235.13 105.186 234.54C104.876 233.951 104.727 233.289 104.754 232.624V62.172C104.779 61.4662 104.981 60.778 105.342 60.1709L109.148 62.3679C108.782 62.9696 108.576 63.6549 108.55 64.3587V234.821C108.55 236.007 109.324 236.543 110.314 236.12Z" fill="#E8E8E8"/>
<path d="M120.907 244.146C120.341 243.764 119.872 243.254 119.541 242.657C119.209 242.06 119.023 241.393 118.999 240.711V70.249C119.039 69.5426 119.248 68.8561 119.606 68.2463C119.965 67.6364 120.464 67.1208 121.061 66.742L221.754 8.66983C222.34 8.30183 223.015 8.10053 223.707 8.08758C224.399 8.07463 225.081 8.25052 225.681 8.59633C226.28 8.94214 226.774 9.44479 227.109 10.0502C227.444 10.6557 227.607 11.341 227.582 12.0324V182.494C227.54 183.2 227.331 183.886 226.972 184.496C226.613 185.105 226.116 185.621 225.519 186.001L124.826 244.073C124.225 244.393 123.556 244.566 122.875 244.578C122.194 244.591 121.52 244.443 120.907 244.146Z" fill="white"/>
<path d="M124.837 244.073L225.53 186.001C226.126 185.621 226.624 185.105 226.983 184.495C227.341 183.886 227.55 183.2 227.593 182.494V12.032C227.593 10.7426 226.685 10.2166 225.53 10.8561L124.827 68.9386C124.23 69.3186 123.732 69.8346 123.374 70.4442C123.015 71.0537 122.806 71.7396 122.764 72.4456V242.897C122.805 244.197 123.713 244.723 124.837 244.073Z" fill="#F1F1F1"/>
<path d="M135.863 75.7061L211.904 31.8065C212.935 31.2392 213.688 31.693 213.688 32.838V33.5084C213.653 34.1277 213.473 34.7302 213.163 35.2676C212.853 35.805 212.422 36.2623 211.904 36.6028L135.863 80.5438C134.832 81.1111 134.079 80.6469 134.079 79.5123V78.8006C134.112 78.1809 134.291 77.5778 134.601 77.0402C134.911 76.5025 135.343 76.0455 135.863 75.7061Z" fill="#E8E8E8"/>
<path d="M135.863 87.7844L211.904 43.8847C212.935 43.3174 213.688 43.7816 213.688 44.9162V45.6279C213.655 46.2476 213.476 46.8507 213.166 47.3883C212.855 47.9259 212.423 48.383 211.904 48.7223L135.863 92.622C134.832 93.1893 134.079 92.7354 134.079 91.5905V90.8788C134.114 90.2595 134.293 89.657 134.603 89.1196C134.913 88.5822 135.345 88.1249 135.863 87.7844Z" fill="#E8E8E8"/>
<path d="M135.863 99.8635L211.904 55.9638C212.935 55.3965 213.688 55.8607 213.688 56.9953V57.707C213.655 58.3267 213.476 58.9298 213.166 59.4674C212.855 60.005 212.423 60.4621 211.904 60.8014L135.863 104.68C134.832 105.258 134.079 104.794 134.079 103.649V102.937C134.117 102.322 134.298 101.723 134.608 101.19C134.918 100.656 135.347 100.202 135.863 99.8635Z" fill="#E8E8E8"/>
<path d="M135.863 111.953L211.904 68.0532C212.935 67.4756 213.688 67.9397 213.688 69.0847V69.7964C213.652 70.4155 213.472 71.0177 213.162 71.555C212.852 72.0922 212.421 72.5496 211.904 72.8908L135.863 116.79C134.832 117.358 134.079 116.894 134.079 115.759V115.047C134.112 114.428 134.291 113.824 134.601 113.287C134.911 112.749 135.343 112.292 135.863 111.953Z" fill="#E8E8E8"/>
<path d="M135.863 124.031L211.904 80.1317C212.935 79.5644 213.688 80.0182 213.688 81.1632V81.8749C213.653 82.4942 213.473 83.0967 213.163 83.634C212.853 84.1714 212.422 84.6287 211.904 84.9693L135.863 128.869C134.832 129.436 134.079 128.972 134.079 127.837V127.126C134.112 126.506 134.291 125.903 134.601 125.365C134.911 124.828 135.343 124.371 135.863 124.031Z" fill="#E8E8E8"/>
<path d="M135.863 136.202L211.904 92.3022C212.935 91.7246 213.688 92.1888 213.688 93.3337V94.0454C213.652 94.6645 213.472 95.2667 213.162 95.804C212.852 96.3412 212.421 96.7987 211.904 97.1398L135.863 141.039C134.832 141.607 134.079 141.143 134.079 140.008V139.296C134.112 138.677 134.291 138.073 134.601 137.536C134.911 136.998 135.343 136.541 135.863 136.202Z" fill="#E8E8E8"/>
<path d="M135.863 148.28L211.904 104.381C212.935 103.813 213.688 104.267 213.688 105.412V106.124C213.653 106.743 213.473 107.346 213.163 107.883C212.853 108.42 212.422 108.878 211.904 109.218L135.863 153.159C134.832 153.727 134.079 153.262 134.079 152.128V151.416C134.106 150.789 134.282 150.178 134.592 149.633C134.902 149.087 135.338 148.624 135.863 148.28Z" fill="#E8E8E8"/>
<path d="M135.863 160.38L211.904 116.48C212.935 115.913 213.688 116.377 213.688 117.512V118.224C213.655 118.843 213.476 119.446 213.166 119.984C212.855 120.522 212.423 120.979 211.904 121.318L135.863 165.218C134.832 165.785 134.079 165.331 134.079 164.186V163.474C134.114 162.855 134.293 162.253 134.603 161.715C134.913 161.178 135.345 160.721 135.863 160.38Z" fill="#E8E8E8"/>
<path d="M135.863 172.438L211.904 128.538C212.935 127.971 213.688 128.435 213.688 129.57V130.281C213.655 130.901 213.476 131.504 213.166 132.042C212.855 132.579 212.423 133.036 211.904 133.376L135.863 177.275C134.832 177.853 134.079 177.389 134.079 176.244V175.532C134.115 174.913 134.295 174.311 134.604 173.774C134.914 173.236 135.345 172.779 135.863 172.438Z" fill="#E8E8E8"/>
<path d="M135.863 184.527L211.904 140.627C212.935 140.05 213.688 140.514 213.688 141.659V142.371C213.652 142.99 213.472 143.592 213.162 144.129C212.852 144.666 212.421 145.124 211.904 145.465L135.863 189.365C134.832 189.932 134.079 189.468 134.079 188.333V187.621C134.112 187.002 134.291 186.399 134.601 185.861C134.911 185.323 135.343 184.866 135.863 184.527Z" fill="#E8E8E8"/>
<path d="M135.863 196.657L211.904 152.758C212.935 152.19 213.688 152.655 213.688 153.789V154.501C213.655 155.121 213.476 155.724 213.166 156.261C212.855 156.799 212.423 157.256 211.904 157.595L135.863 201.495C134.832 202.062 134.079 201.598 134.079 200.464V199.752C134.112 199.132 134.291 198.529 134.601 197.991C134.911 197.454 135.343 196.997 135.863 196.657Z" fill="#E8E8E8"/>
<path d="M135.863 208.736L211.904 164.836C212.935 164.269 213.688 164.733 213.688 165.867V166.569C213.655 167.188 213.476 167.792 213.166 168.329C212.855 168.867 212.423 169.324 211.904 169.663L135.863 213.563C134.832 214.13 134.079 213.676 134.079 212.531V211.82C134.115 211.202 134.296 210.602 134.606 210.066C134.915 209.531 135.346 209.075 135.863 208.736Z" fill="#E8E8E8"/>
<path d="M135.863 220.814L211.904 176.884C212.935 176.316 213.688 176.781 213.688 177.915V178.637C213.652 179.256 213.472 179.859 213.162 180.396C212.852 180.933 212.421 181.39 211.904 181.732L135.863 225.621C134.832 226.199 134.079 225.734 134.079 224.59V223.878C134.119 223.264 134.301 222.668 134.611 222.136C134.921 221.605 135.349 221.152 135.863 220.814Z" fill="#E8E8E8"/>
<path d="M124.568 244.208C123.98 244.521 123.319 244.673 122.653 244.649C121.987 244.625 121.34 244.425 120.775 244.07C120.211 243.715 119.751 243.218 119.441 242.628C119.13 242.038 118.981 241.377 119.009 240.711V70.2598C119.033 69.5541 119.236 68.8659 119.596 68.2588L123.403 70.4558C123.037 71.0575 122.831 71.7428 122.804 72.4466V242.898C122.804 244.095 123.578 244.631 124.568 244.208Z" fill="#E8E8E8"/>
<path d="M271.235 61.3577L241.817 188.745L239.104 200.463C238.205 203.59 236.209 206.288 233.483 208.065L58.9363 308.799C57.6673 309.487 56.2535 309.865 54.8104 309.902C53.2422 310.012 51.6745 309.683 50.2822 308.953L51.1796 305.065L51.2724 304.683L52.2523 300.423L56.5227 281.939L83.568 164.825C83.6048 164.674 83.6602 164.529 83.733 164.392C83.8052 164.258 83.8877 164.124 83.9703 164V163.938C84.157 163.686 84.3876 163.469 84.651 163.299L233.751 77.2424L266.377 58.4077C266.654 58.2655 266.962 58.1914 267.274 58.1914C267.586 58.1914 267.894 58.2655 268.171 58.4077L270.575 59.7898C270.829 59.9552 271.028 60.193 271.145 60.4725C271.263 60.7519 271.294 61.0603 271.235 61.3577Z" fill="#C0CEDC"/>
<path d="M271.266 61.0585C271.266 60.6975 270.977 60.5841 270.575 60.8213L88.8803 165.722C88.6125 165.888 88.381 166.105 88.1995 166.362L84.0117 163.938C84.1985 163.686 84.4291 163.469 84.6925 163.299L266.377 58.4077C266.655 58.2655 266.962 58.1914 267.274 58.1914C267.586 58.1914 267.894 58.2655 268.172 58.4077L270.575 59.7898C270.785 59.9285 270.958 60.1167 271.079 60.3379C271.199 60.5592 271.264 60.8066 271.266 61.0585Z" fill="#B4C3D1"/>
<path d="M88.1993 166.362C88.0814 166.521 87.9778 166.69 87.8899 166.868C87.8349 166.987 87.79 167.112 87.7558 167.239L61.8967 279.237L56.4505 302.837L55.7594 305.818L54.8104 309.944C53.2422 310.053 51.6745 309.725 50.2822 308.995L51.1796 305.106L51.2724 304.725L52.2523 300.465L56.5227 281.98L83.568 164.867C83.6048 164.716 83.6602 164.57 83.733 164.433C83.8052 164.299 83.8877 164.165 83.9703 164.041V163.979L88.1993 166.362Z" fill="#97ACBF"/>
<path d="M56.677 298.144C56.8934 298.268 57.0642 298.458 57.1645 298.686C57.2647 298.915 57.2891 299.169 57.234 299.412L55.759 305.818L54.9854 309.005C54.9229 309.271 54.7688 309.507 54.55 309.671C54.3313 309.835 54.0619 309.917 53.7889 309.902C52.5505 309.874 51.3371 309.549 50.2509 308.953C49.0074 308.109 47.9803 306.983 47.2528 305.668C46.5252 304.353 46.1177 302.885 46.0631 301.382V294.038C46.0564 293.831 46.1054 293.626 46.2051 293.445C46.3047 293.264 46.4513 293.112 46.6295 293.007C46.8076 292.901 47.0109 292.846 47.2179 292.846C47.4249 292.846 47.6282 292.901 47.8063 293.007L49.6733 294.038C49.8513 294.145 49.9984 294.296 50.0997 294.477C50.2011 294.658 50.2532 294.862 50.2509 295.07V298.721C50.2395 299.013 50.3388 299.298 50.529 299.519C50.7191 299.741 50.986 299.882 51.276 299.914C51.566 299.947 51.8576 299.869 52.0922 299.695C52.3268 299.522 52.4871 299.266 52.5408 298.979L52.8502 297.628C52.8921 297.452 52.9745 297.288 53.0908 297.149C53.2071 297.01 53.3542 296.9 53.5204 296.828C53.6866 296.756 53.8673 296.723 54.0482 296.733C54.2291 296.743 54.4052 296.795 54.5625 296.885L56.677 298.144Z" fill="#97ACBF"/>
<path d="M95.2128 270.922L85.2797 265.187L85.1765 265.125C80.2358 262.33 73.459 262.743 65.9601 267.075C58.9358 271.118 52.5509 277.874 47.7133 285.641C42.133 294.636 38.626 305.054 38.626 314.389C38.626 323.094 41.7204 329.211 46.5993 332.068L56.6871 337.824C61.6692 341.001 68.7038 340.722 76.5018 336.215C91.6026 327.499 103.846 306.302 103.846 288.86C103.846 279.865 100.525 273.614 95.2128 270.922Z" fill="#C3DBF2"/>
<path opacity="0.1" d="M56.4912 337.794L46.5993 332.141C41.6688 329.284 38.626 323.167 38.626 314.462C38.626 305.127 42.133 294.719 47.7133 285.725L58.2653 291.81C52.685 300.805 49.1883 311.202 49.1883 320.527C49.1574 328.84 51.9423 334.792 56.4912 337.794Z" fill="black"/>
<path opacity="0.4" d="M95.0068 270.809C90.1382 268.447 83.6605 269.045 76.5021 273.161C69.3436 277.276 63.0929 283.981 58.2346 291.8L47.6826 285.714C52.5099 277.895 58.9154 271.149 65.9294 267.147C73.4283 262.815 80.2051 262.402 85.1459 265.187L85.249 265.249L95.0068 270.809Z" fill="white"/>
<path d="M80.2767 307.54V317.164C80.2768 317.654 80.1638 318.138 79.9466 318.577C79.7963 318.995 79.5185 319.356 79.1524 319.608L73.8815 322.651C73.7638 322.738 73.6187 322.78 73.4729 322.768C73.327 322.757 73.1901 322.693 73.0873 322.589C72.9667 322.448 72.8754 322.284 72.8187 322.107C72.762 321.93 72.7411 321.743 72.7572 321.558V311.975L66.2692 315.709C66.1536 315.8 66.0087 315.844 65.8623 315.835C65.7158 315.825 65.578 315.762 65.475 315.658C65.3544 315.516 65.2631 315.352 65.2064 315.175C65.1497 314.998 65.1288 314.812 65.1449 314.626V308.128C65.1509 307.635 65.2635 307.15 65.475 306.705C65.641 306.312 65.9168 305.975 66.2692 305.735L72.7572 301.991V292.408C72.7632 291.916 72.8758 291.43 73.0873 290.985C73.2496 290.59 73.5262 290.252 73.8815 290.015L79.1524 286.921C79.2697 286.835 79.4136 286.793 79.5589 286.802C79.7041 286.812 79.8414 286.872 79.9466 286.972C80.0682 287.113 80.1602 287.277 80.2169 287.455C80.2736 287.632 80.2939 287.819 80.2767 288.004V297.566L86.7234 293.852C86.8391 293.762 86.9839 293.717 87.1303 293.727C87.2768 293.736 87.4146 293.799 87.5176 293.904C87.6383 294.045 87.7296 294.21 87.7862 294.387C87.8429 294.564 87.8638 294.75 87.8477 294.935V301.434C87.8417 301.927 87.7291 302.412 87.5176 302.857C87.3516 303.25 87.0759 303.587 86.7234 303.827L80.2767 307.54Z" fill="white"/>
<path d="M345.408 158.512L333.35 158.171C332.546 157.48 319.889 143.194 319.889 143.194C319.889 143.194 315.33 150.415 315.258 150.838C315.186 151.26 327.636 164.649 328.905 166C329.253 166.449 329.698 166.812 330.208 167.062C330.717 167.312 331.277 167.443 331.844 167.444C335.114 167.64 347.316 168.476 347.316 168.476L345.408 158.512Z" fill="#FFDDCF"/>
<path d="M216.711 339.557C216.147 339.173 215.682 338.663 215.352 338.066C215.022 337.469 214.838 336.803 214.813 336.122V175.851C214.855 175.145 215.064 174.459 215.423 173.85C215.782 173.24 216.28 172.724 216.876 172.344L317.569 114.261C318.173 113.945 318.843 113.774 319.525 113.761C320.207 113.749 320.883 113.895 321.499 114.189C322.064 114.574 322.53 115.086 322.86 115.685C323.19 116.283 323.374 116.951 323.397 117.634V277.895C323.356 278.603 323.147 279.291 322.789 279.902C322.43 280.514 321.931 281.031 321.334 281.412L220.641 339.485C220.037 339.803 219.367 339.976 218.684 339.988C218.002 340.001 217.326 339.853 216.711 339.557Z" fill="#C3DBF2"/>
<path opacity="0.15" d="M220.074 339.712L220.281 339.65C220.238 339.681 220.188 339.702 220.136 339.712C220.015 339.761 219.891 339.802 219.765 339.836H219.559C219.406 339.87 219.251 339.894 219.094 339.908C218.916 339.918 218.737 339.918 218.558 339.908C217.916 339.922 217.28 339.773 216.712 339.475C216.298 339.209 215.946 338.857 215.68 338.443C215.166 337.74 214.875 336.9 214.845 336.029V175.851C214.843 175.502 214.896 175.154 214.999 174.82C215.051 174.648 215.113 174.479 215.185 174.314C215.257 174.144 215.34 173.979 215.433 173.819L219.229 176.016L219.136 176.171C218.826 176.735 218.653 177.364 218.63 178.007V338.319C218.629 338.525 218.657 338.73 218.713 338.928C218.779 339.168 218.916 339.384 219.105 339.547C219.228 339.638 219.368 339.705 219.517 339.743H219.755C219.847 339.758 219.941 339.758 220.033 339.743C220.05 339.738 220.065 339.727 220.074 339.712Z" fill="black"/>
<path opacity="0.3" d="M323.324 117.202C323.159 116.17 322.293 115.83 321.334 116.407L220.63 174.479C220.036 174.86 219.544 175.381 219.197 175.996L215.401 173.788C215.739 173.17 216.233 172.65 216.835 172.282L317.527 114.2C318.132 113.884 318.802 113.712 319.484 113.7C320.166 113.687 320.842 113.834 321.457 114.128C321.971 114.476 322.404 114.931 322.726 115.461C323.048 115.992 323.252 116.585 323.324 117.202Z" fill="white"/>
<path d="M231.677 181.257L307.697 137.357C308.729 136.779 309.481 137.243 309.481 138.388V139.1C309.447 139.72 309.268 140.322 308.958 140.86C308.648 141.397 308.216 141.855 307.697 142.195L231.657 186.094C230.625 186.661 229.872 186.197 229.872 185.063V184.351C229.907 183.729 230.089 183.125 230.403 182.587C230.716 182.049 231.153 181.593 231.677 181.257Z" fill="#FAFAFA"/>
<path d="M231.677 196.038L307.697 152.128C308.729 151.551 309.481 152.015 309.481 153.16V153.872C309.449 154.491 309.27 155.095 308.96 155.633C308.65 156.17 308.217 156.627 307.697 156.966L231.657 200.866C230.625 201.433 229.872 200.969 229.872 199.834V199.122C229.909 198.503 230.091 197.9 230.405 197.364C230.719 196.828 231.155 196.374 231.677 196.038Z" fill="#FAFAFA"/>
<path d="M231.677 210.816L307.697 166.917C308.729 166.35 309.481 166.803 309.481 167.948V168.629C309.449 169.249 309.27 169.852 308.96 170.39C308.65 170.928 308.217 171.385 307.697 171.724L231.657 215.623C230.625 216.19 229.872 215.726 229.872 214.592V213.88C229.912 213.264 230.096 212.665 230.409 212.133C230.723 211.601 231.157 211.15 231.677 210.816Z" fill="#FAFAFA"/>
<path d="M231.677 225.6L307.697 181.7C308.729 181.133 309.481 181.587 309.481 182.732V183.443C309.449 184.063 309.27 184.667 308.96 185.204C308.65 185.742 308.217 186.199 307.697 186.538L231.657 230.437C230.625 231.005 229.872 230.54 229.872 229.406V228.694C229.907 228.072 230.089 227.468 230.403 226.93C230.716 226.392 231.153 225.936 231.677 225.6Z" fill="#FAFAFA"/>
<path d="M231.677 240.382L307.697 196.482C308.729 195.915 309.481 196.369 309.481 197.514V198.225C309.449 198.845 309.27 199.449 308.96 199.987C308.65 200.524 308.217 200.981 307.697 201.32L231.657 245.22C230.625 245.787 229.872 245.323 229.872 244.188V243.476C229.907 242.855 230.089 242.25 230.403 241.712C230.716 241.174 231.153 240.718 231.677 240.382Z" fill="#FAFAFA"/>
<path d="M231.677 255.161L307.697 211.262C308.729 210.694 309.481 211.148 309.481 212.293V212.984C309.449 213.604 309.27 214.207 308.96 214.745C308.65 215.283 308.217 215.74 307.697 216.079L231.657 259.978C230.625 260.546 229.872 260.081 229.872 258.947V258.235C229.91 257.617 230.094 257.016 230.407 256.482C230.721 255.948 231.156 255.496 231.677 255.161Z" fill="#FAFAFA"/>
<path d="M231.677 269.943L307.697 226.044C308.729 225.476 309.481 225.93 309.481 227.075V227.787C309.449 228.407 309.27 229.01 308.96 229.548C308.65 230.086 308.217 230.543 307.697 230.881L231.657 274.781C230.625 275.348 229.872 274.884 229.872 273.75V273.038C229.907 272.416 230.089 271.812 230.403 271.274C230.716 270.736 231.153 270.28 231.677 269.943Z" fill="#FAFAFA"/>
<path d="M231.677 284.723L307.697 240.834C308.729 240.267 309.481 240.731 309.481 241.865V242.577C309.449 243.197 309.27 243.8 308.96 244.338C308.65 244.876 308.217 245.333 307.697 245.672L231.657 289.571C230.625 290.139 229.872 289.674 229.872 288.54V287.828C229.905 287.204 230.086 286.598 230.4 286.058C230.714 285.518 231.152 285.061 231.677 284.723Z" fill="#FAFAFA"/>
<path d="M231.677 299.506L307.697 255.606C308.729 255.039 309.481 255.503 309.481 256.638V257.339C309.45 257.959 309.271 258.563 308.961 259.101C308.651 259.639 308.218 260.096 307.697 260.434L231.657 304.333C230.625 304.901 229.872 304.436 229.872 303.302V302.59C229.909 301.97 230.091 301.368 230.405 300.832C230.719 300.296 231.155 299.841 231.677 299.506Z" fill="#FAFAFA"/>
<path d="M231.678 314.285L307.697 270.386C308.729 269.818 309.482 270.283 309.482 271.417V272.129C309.45 272.749 309.272 273.353 308.962 273.891C308.651 274.428 308.218 274.885 307.697 275.223L231.667 319.123C230.636 319.69 229.883 319.226 229.883 318.091V317.38C229.917 316.759 230.098 316.155 230.41 315.618C230.722 315.08 231.156 314.624 231.678 314.285Z" fill="#FAFAFA"/>
<path d="M347.646 156.418H361.963C366.871 156.418 371.578 154.469 375.048 150.999C378.518 147.528 380.468 142.821 380.468 137.914C380.468 133.561 378.739 129.387 375.661 126.31C372.584 123.232 368.41 121.503 364.057 121.503C359.705 121.503 355.531 123.232 352.453 126.31C349.375 129.387 347.646 133.561 347.646 137.914V156.418Z" fill="#B0A094"/>
<path d="M376.807 127.97L380.778 125.834C380.655 125.564 380.478 125.322 380.258 125.122C380.038 124.923 379.78 124.77 379.499 124.673C379.218 124.577 378.921 124.539 378.625 124.561C378.329 124.583 378.04 124.665 377.777 124.803C377.232 125.098 376.825 125.596 376.644 126.188C376.463 126.78 376.521 127.42 376.807 127.97Z" fill="#B0A094"/>
<path d="M376.528 128.405L380.757 129.983C380.874 129.711 380.934 129.418 380.935 129.122C380.935 128.825 380.876 128.532 380.76 128.26C380.645 127.987 380.475 127.74 380.262 127.535C380.049 127.329 379.796 127.169 379.519 127.064C378.944 126.862 378.313 126.889 377.756 127.138C377.2 127.388 376.76 127.841 376.528 128.405Z" fill="#B0A094"/>
<path d="M362.365 170.066L342.427 169.21C340.704 166.786 340.704 160.38 342.52 158.317L364.583 158.916L362.365 170.066Z" fill="#C3DBF2"/>
<path d="M350.246 293.759C350.368 295.093 350.423 296.432 350.411 297.771V305.621H357.208V301.02C357.211 298.947 357.384 296.877 357.724 294.832L350.246 293.759Z" fill="#FFDDCF"/>
<path d="M350.4 302.259V301.279C350.215 302.765 345.965 308.355 343.263 310.82C341.107 312.791 338.167 315.06 337.414 317.257C336.661 319.454 340.89 320.434 343.675 320.155C346.38 319.819 348.872 318.515 350.689 316.483C351.815 315.068 352.826 313.564 353.711 311.986C354.537 310.872 358.25 308.582 358.704 307.282C358.832 306.075 358.699 304.854 358.312 303.703C357.992 302.496 357.652 301.166 357.28 301.279V302.022C356.307 302.785 355.103 303.192 353.866 303.177C352.824 303.218 350.4 303.022 350.4 302.259Z" fill="#BCADA2"/>
<path d="M357.208 302.022C356.235 302.785 355.031 303.192 353.794 303.177C352.763 303.177 350.37 303.022 350.37 302.259V301.279C350.184 302.765 345.934 308.355 343.232 310.82C342.716 311.295 342.149 311.78 341.582 312.285C340.437 313.564 340.767 314.678 343.459 314.905C346.151 315.132 348.523 313.513 350.566 311.006C352.608 308.5 357.208 302.022 357.208 302.022Z" fill="#FFDDCF"/>
<path d="M371.113 305.333C371.247 306.983 371.247 308.706 371.278 309.459V317.308H378.107V312.708C378.106 310.635 378.275 308.565 378.612 306.519L371.113 305.333Z" fill="#FFDDCF"/>
<path d="M371.268 313.935V312.955C371.072 314.44 366.833 320.031 364.12 322.496C361.964 324.466 359.024 326.736 358.282 328.922C357.539 331.109 361.748 332.11 364.543 331.831C367.245 331.496 369.734 330.191 371.547 328.159C372.675 326.743 373.689 325.239 374.579 323.662C375.404 322.548 379.118 320.258 379.561 318.958C379.7 317.751 379.566 316.528 379.169 315.379C378.86 314.172 378.509 312.842 378.138 312.955V313.698C377.165 314.461 375.96 314.868 374.724 314.853C373.713 314.894 371.258 314.698 371.268 313.935Z" fill="#BCADA2"/>
<path d="M378.096 313.699C377.123 314.462 375.918 314.869 374.682 314.854C373.65 314.854 371.257 314.699 371.268 313.936V312.956C371.072 314.441 366.832 320.032 364.12 322.497C363.604 322.972 363.088 323.456 362.48 323.962C361.335 325.241 361.665 326.355 364.357 326.582C367.049 326.809 369.411 325.189 371.453 322.683C373.496 320.176 378.096 313.699 378.096 313.699Z" fill="#FFDDCF"/>
<path d="M350.246 296.998C348.781 284.961 346.388 264.146 345.687 259.597C345.037 255.389 346.667 219.369 347.667 207.899L383.253 205.991C385.956 217.585 383.315 233.222 382.397 242.99C381.489 252.49 380.334 263.62 380.334 263.62C380.334 263.62 383.109 273.305 382.397 281.011C381.923 285.869 379.746 300.526 378.715 306.797C377.502 307.412 376.158 307.724 374.798 307.706C373.438 307.688 372.103 307.341 370.906 306.694C371.02 308.025 369.638 290.459 368.844 283.362C367.709 273.512 367.276 266.333 366.265 260.577C364.996 253.357 364.563 225.28 364.563 225.28L360.437 257.183C360.884 260.603 361.101 264.049 361.087 267.498C361.087 274.626 358.457 290.82 357.631 296.875C355.847 298.143 352.216 298.525 350.246 296.998Z" fill="#B4C3D1"/>
<path d="M364.552 225.259C364.552 225.259 358.044 222.979 354.341 219.575C356.203 222.472 358.845 224.786 361.963 226.249L362.025 244.919L364.552 225.259Z" fill="#97ACBF"/>
<path d="M369.731 159.079C369.731 159.079 379.396 160.193 380.551 160.709C374.661 167.155 380.933 172.498 380.933 172.498L376.446 192.241C380.314 197.182 382.521 200.998 383.45 206.888C379.324 214.191 356.043 215.202 347.513 209.766C348.256 199.585 349.916 192.293 349.359 189.229C345.306 176.728 346.564 174.108 346.946 171.25C347.688 165.67 353.227 160.812 356.394 158.77H359.344L369.731 159.079Z" fill="white"/>
<path d="M353.082 129.539C351.349 130.571 349.204 134.923 349.42 144.062C349.596 151.809 352.113 153.717 353.371 154.274C354.629 154.831 357.064 154.49 359.426 154.088V158.74C359.426 158.74 356.156 162.536 356.331 164.671C356.507 166.806 361.045 167.301 364.109 165.218C366.318 163.504 368.223 161.429 369.741 159.081L369.689 148.394C369.689 148.394 371.071 149.746 373.433 147.683C375.383 145.981 376.033 143.103 374.465 141.566C374.074 141.199 373.602 140.93 373.088 140.781C372.573 140.632 372.031 140.606 371.504 140.707C370.978 140.807 370.483 141.031 370.06 141.36C369.637 141.688 369.298 142.113 369.07 142.598C369.07 142.598 367.76 138.956 362.314 137.172C357.435 135.625 354.763 133.758 353.082 129.539Z" fill="#FFDDCF"/>
<path d="M358.55 142.111C358.548 142.366 358.641 142.612 358.811 142.803C358.98 142.993 359.214 143.114 359.468 143.142C359.731 143.143 359.984 143.043 360.176 142.863C360.368 142.682 360.483 142.436 360.499 142.173C360.518 142.038 360.509 141.901 360.471 141.77C360.434 141.639 360.37 141.517 360.283 141.412C360.196 141.307 360.088 141.222 359.966 141.161C359.845 141.1 359.711 141.065 359.575 141.059C359.439 141.052 359.303 141.074 359.176 141.123C359.049 141.172 358.934 141.247 358.837 141.343C358.741 141.439 358.665 141.554 358.616 141.681C358.566 141.808 358.544 141.944 358.55 142.08V142.111Z" fill="#97ACBF"/>
<path d="M358.292 148.683L356.033 149.405C356.073 149.556 356.143 149.697 356.24 149.82C356.336 149.943 356.456 150.045 356.593 150.12C356.73 150.195 356.881 150.242 357.036 150.257C357.192 150.273 357.348 150.256 357.497 150.209C357.802 150.107 358.055 149.891 358.203 149.607C358.351 149.322 358.383 148.99 358.292 148.683Z" fill="#ECA79D"/>
<path d="M350.566 139.121L352.536 137.759C352.453 137.626 352.345 137.511 352.216 137.421C352.088 137.332 351.942 137.269 351.789 137.237C351.636 137.205 351.477 137.205 351.324 137.236C351.17 137.267 351.025 137.33 350.896 137.419C350.635 137.608 350.456 137.889 350.395 138.205C350.334 138.521 350.395 138.848 350.566 139.121Z" fill="#B0A094"/>
<path d="M361.387 139.842L359.417 138.481C359.499 138.348 359.608 138.233 359.736 138.143C359.865 138.053 360.01 137.991 360.163 137.959C360.317 137.927 360.475 137.927 360.629 137.958C360.782 137.989 360.928 138.051 361.057 138.14C361.317 138.329 361.496 138.61 361.558 138.926C361.619 139.242 361.558 139.57 361.387 139.842Z" fill="#B0A094"/>
<path d="M351.019 141.41C351.018 141.665 351.111 141.912 351.28 142.102C351.45 142.293 351.684 142.414 351.938 142.442C352.199 142.442 352.451 142.344 352.642 142.166C352.834 141.987 352.951 141.743 352.969 141.482C352.988 141.348 352.978 141.21 352.941 141.079C352.904 140.948 352.84 140.826 352.753 140.722C352.666 140.617 352.558 140.531 352.436 140.47C352.314 140.41 352.181 140.375 352.045 140.368C351.909 140.362 351.773 140.384 351.646 140.433C351.519 140.482 351.404 140.557 351.307 140.653C351.21 140.749 351.135 140.864 351.086 140.991C351.036 141.118 351.014 141.254 351.019 141.39V141.41Z" fill="#97ACBF"/>
<path d="M355.608 140.853L355.454 146.711L352.37 145.762L355.608 140.853Z" fill="#ECA79D"/>
<path d="M359.386 154.088C361.872 153.768 366.998 152.293 367.803 150.271C367.479 151.296 366.849 152.196 365.998 152.85C364.471 154.16 359.386 155.645 359.386 155.645V154.088Z" fill="#ECA79D"/>
<path d="M378.447 183.422L370.205 195.459L376.446 192.241L378.447 183.422Z" fill="#F1F1F1"/>
<path d="M374.629 163.339L355.289 183.339C355.289 183.339 336.299 181.472 329.853 179.626C327.79 179.038 326.181 176.253 325.727 173.911C325.669 173.297 325.42 172.717 325.015 172.252C324.61 171.788 324.068 171.462 323.468 171.322V176.015C323.303 177.202 322.725 177.81 321.034 177.851C314.515 177.996 311.492 176.015 310.719 179.553C310.213 181.812 311.193 184.381 315.495 185.567C321.539 187.217 324.881 186.392 328.553 187.31C331.39 188.012 351.184 191.776 355.072 192.622C357.135 193.076 358.693 192.932 360.931 190.724C363.169 188.517 379.9 172.839 379.9 172.839C385.057 167.681 383.531 162.39 380.663 160.811C378.868 159.832 376.909 160.987 374.629 163.339Z" fill="#FFDDCF"/>
<path d="M380.55 160.708C381.798 161.214 383.325 162.544 383.449 165.989C383.573 169.435 381.025 172.57 378.023 176.16C375.022 179.749 374.114 180.698 374.114 180.698C374.114 180.698 366.522 177.934 365.233 172.292C365.233 172.292 370.958 166.227 372.67 164.287C374.382 162.348 377.538 159.347 380.55 160.708Z" fill="#C3DBF2"/>
</svg>
