<svg width="50" height="60" viewBox="-1 6 25 20" fill="none" xmlns="http://www.w3.org/2000/svg">
<path d="M12 13C9.87827 13 7.84344 13.8429 6.34315 15.3431C4.84285 16.8434 4 18.8783 4 21H20C20 18.8783 19.1571 16.8434 17.6569 15.3431C16.1566 13.8429 14.1217 13 12 13Z" fill="#5F6B73"/>
<path d="M12 13C14.7614 13 17 10.7614 17 8C17 5.23858 14.7614 3 12 3C9.23858 3 7 5.23858 7 8C7 10.7614 9.23858 13 12 13Z" fill="#5F6B73"/>
<path d="M12 13C9.87827 13 7.84344 13.8429 6.34315 15.3431C4.84285 16.8434 4 18.8783 4 21H20C20 18.8783 19.1571 16.8434 17.6569 15.3431C16.1566 13.8429 14.1217 13 12 13Z" stroke="#5F6B73" stroke-width="2" stroke-linecap="round" stroke-linejoin="round"/>
<path d="M12 13C14.7614 13 17 10.7614 17 8C17 5.23858 14.7614 3 12 3C9.23858 3 7 5.23858 7 8C7 10.7614 9.23858 13 12 13Z" stroke="#5F6B73" stroke-width="2" stroke-linecap="round" stroke-linejoin="round"/>
<path d="M12.0262 5.00003C10.6354 5.00003 9.74842 5.60771 9.05189 6.68774C8.96165 6.82766 8.99184 7.01637 9.12118 7.1181L10.0067 7.81454C10.1395 7.91902 10.3288 7.89416 10.432 7.75837C10.8878 7.1586 11.2004 6.8108 11.8943 6.8108C12.4157 6.8108 13.0605 7.15884 13.0605 7.68322C13.0605 8.07964 12.745 8.28323 12.2303 8.58258C11.6299 8.93165 10.8356 9.36611 10.8356 10.453V10.5588C10.8356 10.7343 10.9727 10.8765 11.1418 10.8765H12.5709C12.74 10.8765 12.8771 10.7343 12.8771 10.5588V10.5236C12.8771 9.77016 15 9.73879 15 7.70003C15 6.16468 13.4646 5.00003 12.0262 5.00003Z" fill="white"/>
<path d="M11.8563 11.5647C11.209 11.5647 10.6824 12.111 10.6824 12.7824C10.6824 13.4538 11.209 14 11.8563 14C12.5036 14 13.0302 13.4538 13.0302 12.7824C13.0302 12.111 12.5036 11.5647 11.8563 11.5647Z" fill="white"/>
</svg>
