<svg width="24" height="24" viewBox="0 0 24 24" fill="none" xmlns="http://www.w3.org/2000/svg">
<path d="M21.436 5.47839L18.5203 2.56269C18.4301 2.47224 18.323 2.4005 18.205 2.35161C18.0871 2.30272 17.9606 2.27765 17.8329 2.27783H6.16624C6.03854 2.27765 5.91207 2.30272 5.7941 2.35161C5.67614 2.4005 5.56901 2.47224 5.47887 2.56269L2.56318 5.47839C2.47234 5.56849 2.4003 5.67573 2.35123 5.79389C2.30217 5.91205 2.27705 6.03878 2.27735 6.16672V18.8056C2.27735 19.878 3.14943 20.7501 4.22179 20.7501H19.7773C20.8497 20.7501 21.7218 19.878 21.7218 18.8056V6.16672C21.7221 6.03878 21.697 5.91205 21.6479 5.79389C21.5988 5.67573 21.5268 5.56849 21.436 5.47839ZM6.56874 4.22228H17.4304L18.4026 5.1945H5.59651L6.56874 4.22228ZM4.22179 18.8056V7.13894H19.7773L19.7793 18.8056H4.22179Z" fill="white"/>
<path d="M7.13867 13.9446H10.0553V16.8613H13.9442V13.9446H16.8609L11.9998 9.0835L7.13867 13.9446Z" fill="white"/>
</svg>
