<svg width="24" height="24" viewBox="0 0 24 24" fill="none" xmlns="http://www.w3.org/2000/svg">
<path d="M21.436 5.47836L18.5203 2.56266C18.4301 2.47221 18.323 2.40047 18.205 2.35158C18.0871 2.30269 17.9606 2.27762 17.8329 2.2778H6.16624C6.03854 2.27762 5.91207 2.30269 5.7941 2.35158C5.67614 2.40047 5.569 2.47221 5.47887 2.56266L2.56318 5.47836C2.47234 5.56846 2.4003 5.6757 2.35123 5.79386C2.30217 5.91202 2.27705 6.03875 2.27735 6.16669V18.8056C2.27735 19.8779 3.14943 20.75 4.22179 20.75H19.7773C20.8497 20.75 21.7218 19.8779 21.7218 18.8056V6.16669C21.7221 6.03875 21.697 5.91202 21.6479 5.79386C21.5988 5.6757 21.5268 5.56846 21.436 5.47836ZM6.56874 4.22225H17.4304L18.4026 5.19447H5.59651L6.56874 4.22225ZM4.22179 18.8056V7.13891H19.7773L19.7793 18.8056H4.22179Z" fill="#448ADD"/>
<path d="M7.13867 13.9445H10.0553V16.8611H13.9442V13.9445H16.8609L11.9998 9.08334L7.13867 13.9445Z" fill="#448ADD"/>
</svg>
