<svg width="12" height="15" viewBox="0 0 12 15" fill="none" xmlns="http://www.w3.org/2000/svg">
<path d="M9.25039 7.3C9.74002 7.00184 10.1532 6.59342 10.4571 6.10729C10.7609 5.62116 10.9469 5.07077 11.0004 4.5C11.0097 3.98388 10.9172 3.471 10.7282 2.99063C10.5392 2.51027 10.2575 2.07184 9.899 1.70039C9.54055 1.32894 9.11244 1.03174 8.63911 0.825776C8.16578 0.619811 7.65651 0.509111 7.14039 0.5H0.650391V14.5H7.65039C8.14154 14.4948 8.62685 14.3929 9.07862 14.2001C9.53038 14.0073 9.93974 13.7274 10.2833 13.3764C10.6269 13.0253 10.898 12.6101 11.0811 12.1543C11.2642 11.6985 11.3557 11.2112 11.3504 10.72V10.6C11.3507 9.90711 11.1533 9.22852 10.7813 8.64395C10.4093 8.05939 9.87821 7.59315 9.25039 7.3ZM2.65039 2.5H6.85039C7.27656 2.48681 7.69657 2.60428 8.05407 2.83665C8.41156 3.06902 8.68943 3.40517 8.85039 3.8C9.01326 4.32779 8.96059 4.89859 8.70387 5.38765C8.44716 5.87672 8.00729 6.24428 7.48039 6.41C7.27577 6.46996 7.06361 6.50027 6.85039 6.5H2.65039V2.5ZM7.25039 12.5H2.65039V8.5H7.25039C7.67656 8.48681 8.09657 8.60428 8.45407 8.83665C8.81156 9.06902 9.08943 9.40517 9.25039 9.8C9.41326 10.3278 9.36059 10.8986 9.10388 11.3877C8.84716 11.8767 8.40729 12.2443 7.88039 12.41C7.67577 12.47 7.46361 12.5003 7.25039 12.5Z" fill="#5F6B73"/>
</svg>
