<svg width="82" height="68" viewBox="0 0 82 68" fill="none" xmlns="http://www.w3.org/2000/svg">
<path d="M69.083 58.8333H14.9163C13.7705 58.8333 12.833 59.7708 12.833 60.9167V65.0833C12.833 66.2292 13.7705 67.1667 14.9163 67.1667H69.083C70.2288 67.1667 71.1663 66.2292 71.1663 65.0833V60.9167C71.1663 59.7708 70.2288 58.8333 69.083 58.8333ZM77.4163 17.1667C73.9658 17.1667 71.1663 19.9661 71.1663 23.4167C71.1663 24.3411 71.3747 25.2005 71.7393 25.9948L62.3122 31.6458C60.307 32.8438 57.7158 32.1667 56.557 30.1354L45.945 11.5677C47.3382 10.4219 48.2497 8.70313 48.2497 6.75C48.2497 3.29948 45.4502 0.5 41.9997 0.5C38.5492 0.5 35.7497 3.29948 35.7497 6.75C35.7497 8.70313 36.6611 10.4219 38.0544 11.5677L27.4424 30.1354C26.2835 32.1667 23.6794 32.8438 21.6872 31.6458L12.2731 25.9948C12.6247 25.2135 12.846 24.3411 12.846 23.4167C12.846 19.9661 10.0465 17.1667 6.59603 17.1667C3.14551 17.1667 0.333008 19.9661 0.333008 23.4167C0.333008 26.8672 3.13249 29.6667 6.58301 29.6667C6.92155 29.6667 7.26009 29.6146 7.58561 29.5625L16.9997 54.6667H66.9997L76.4137 29.5625C76.7393 29.6146 77.0778 29.6667 77.4163 29.6667C80.8669 29.6667 83.6664 26.8672 83.6664 23.4167C83.6664 19.9661 80.8669 17.1667 77.4163 17.1667Z" fill="#FFEAB6"/>
</svg>
