<svg width="30" height="28" viewBox="0 0 30 28" fill="none" xmlns="http://www.w3.org/2000/svg">
<path fill-rule="evenodd" clip-rule="evenodd" d="M13.5651 26.4816C13.5651 25.6889 14.2077 25.0464 15.0003 25.0464H27.917C28.7096 25.0464 29.3522 25.6889 29.3522 26.4816C29.3522 27.2742 28.7096 27.9168 27.917 27.9168H15.0003C14.2077 27.9168 13.5651 27.2742 13.5651 26.4816Z" fill="#448ADD"/>
<path fill-rule="evenodd" clip-rule="evenodd" d="M20.4438 1.78619C21.2839 0.946085 22.4233 0.474121 23.6114 0.474121C24.1997 0.474121 24.7822 0.589991 25.3257 0.815116C25.8692 1.04024 26.3631 1.37021 26.779 1.78619C27.195 2.20216 27.525 2.696 27.7501 3.2395C27.9752 3.78299 28.0911 4.36551 28.0911 4.95379C28.0911 5.54207 27.9752 6.12459 27.7501 6.66809C27.525 7.21159 27.195 7.70542 26.779 8.1214L8.83922 26.0612C8.65529 26.2451 8.42483 26.3756 8.17248 26.4387L2.43174 27.8739C1.94266 27.9962 1.4253 27.8529 1.06882 27.4964C0.712352 27.1399 0.56905 26.6226 0.691319 26.1335L2.1265 20.3927C2.18959 20.1404 2.32008 19.9099 2.50401 19.726L20.4438 1.78619Z" fill="#448ADD"/>
</svg>
