<svg width="32" height="32" viewBox="0 0 32 32" fill="none" xmlns="http://www.w3.org/2000/svg">
<path d="M26.2983 9.77341L20.0083 3.10674C19.8759 2.96862 19.7142 2.85812 19.5336 2.78234C19.3531 2.70656 19.1577 2.66718 18.96 2.66674H7.62667C7.15598 2.66146 6.68879 2.74349 6.25179 2.90815C5.81479 3.07281 5.41653 3.31688 5.07976 3.62642C4.74298 3.93595 4.47429 4.30489 4.28903 4.71217C4.10376 5.11944 4.00555 5.55708 4 6.00008V26.0001C4.00555 26.4431 4.10376 26.8807 4.28903 27.288C4.47429 27.6953 4.74298 28.0642 5.07976 28.3737C5.41653 28.6833 5.81479 28.9273 6.25179 29.092C6.68879 29.2567 7.15598 29.3387 7.62667 29.3334H23.04C23.5107 29.3387 23.9779 29.2567 24.4149 29.092C24.8519 28.9273 25.2501 28.6833 25.5869 28.3737C25.9237 28.0642 26.1924 27.6953 26.3776 27.288C26.5629 26.8807 26.6611 26.4431 26.6667 26.0001V10.6667C26.6657 10.3363 26.5345 10.0179 26.2983 9.77341ZM11.0833 16.0001H15.3333C15.7091 16.0001 16.0694 16.1406 16.3351 16.3906C16.6007 16.6407 16.75 16.9798 16.75 17.3334C16.75 17.687 16.6007 18.0262 16.3351 18.2762C16.0694 18.5263 15.7091 18.6667 15.3333 18.6667H11.0833C10.7076 18.6667 10.3473 18.5263 10.0816 18.2762C9.81592 18.0262 9.66667 17.687 9.66667 17.3334C9.66667 16.9798 9.81592 16.6407 10.0816 16.3906C10.3473 16.1406 10.7076 16.0001 11.0833 16.0001ZM19.5833 24.0001H11.0833C10.7076 24.0001 10.3473 23.8596 10.0816 23.6096C9.81592 23.3595 9.66667 23.0204 9.66667 22.6667C9.66667 22.3131 9.81592 21.974 10.0816 21.7239C10.3473 21.4739 10.7076 21.3334 11.0833 21.3334H19.5833C19.9591 21.3334 20.3194 21.4739 20.5851 21.7239C20.8507 21.974 21 22.3131 21 22.6667C21 23.0204 20.8507 23.3595 20.5851 23.6096C20.3194 23.8596 19.9591 24.0001 19.5833 24.0001ZM19.1725 10.6667C18.8804 10.6397 18.6114 10.5057 18.4232 10.2937C18.2351 10.0818 18.143 9.80871 18.1667 9.53341V5.33341L23.465 10.6667H19.1725Z" fill="#5F6B73"/>
</svg>
