<svg width="28" height="24" viewBox="0 0 28 24" fill="none" xmlns="http://www.w3.org/2000/svg">
<path d="M0.666697 9.99773C0.667177 7.83888 1.36607 5.73815 2.65892 4.00952C3.95177 2.28089 5.76915 1.0172 7.83943 0.407307C9.90971 -0.202584 12.1217 -0.125918 14.1448 0.625848C16.1679 1.37761 17.8935 2.76411 19.0637 4.5781C20.2338 6.3921 20.7857 8.53618 20.6368 10.6899C20.4879 12.8436 19.6462 14.8913 18.2376 16.5269C16.8289 18.1625 14.929 19.2982 12.8217 19.7642C10.7144 20.2302 8.51287 20.0016 6.54623 19.1124C4.86941 19.4991 3.0633 19.8324 2.23288 19.9817C2.02066 20.0197 1.8024 20.0053 1.59696 19.94C1.39152 19.8746 1.20508 19.7602 1.05376 19.6066C0.902442 19.453 0.790792 19.2648 0.728462 19.0584C0.666132 18.852 0.654998 18.6334 0.696021 18.4217C0.853306 17.6084 1.20253 15.8644 1.60374 14.2311C0.984571 12.9059 0.664651 11.4605 0.666697 9.99773ZM8.85619 4.40707C8.26704 4.72173 7.80318 5.21107 7.45262 5.8604C7.33788 6.09237 7.31752 6.3598 7.39582 6.60648C7.47411 6.85316 7.64496 7.05986 7.87246 7.18314C8.09995 7.30642 8.36637 7.33667 8.6157 7.26753C8.86502 7.19839 9.07785 7.03525 9.20942 6.8124C9.40536 6.4524 9.60663 6.27373 9.79857 6.1724C9.99851 6.0644 10.2704 5.99907 10.6636 5.99907C10.9622 5.99907 11.3128 6.1044 11.57 6.3164C11.798 6.50307 11.9966 6.80173 11.9966 7.33107C11.9966 7.59107 11.8966 7.71107 11.2128 8.2484C10.613 8.7204 9.66395 9.48573 9.66395 10.9977C9.66395 11.263 9.76927 11.5173 9.95675 11.7048C10.1442 11.8924 10.3985 11.9977 10.6636 11.9977C10.9288 11.9977 11.1831 11.8924 11.3705 11.7048C11.558 11.5173 11.6633 11.263 11.6633 10.9977C11.6633 10.5044 11.8819 10.2657 12.4471 9.8204L12.5604 9.73373C13.0762 9.3364 13.996 8.63107 13.996 7.33107C13.996 6.2004 13.5281 5.33373 12.839 4.7684C12.2223 4.27227 11.4551 4.00094 10.6636 3.99907C10.0572 3.99907 9.43468 4.09773 8.85619 4.40707ZM11.9966 14.6644C11.9966 14.3108 11.8561 13.9716 11.6062 13.7216C11.3562 13.4715 11.0172 13.3311 10.6636 13.3311C10.3101 13.3311 9.97109 13.4715 9.72112 13.7216C9.47115 13.9716 9.33072 14.3108 9.33072 14.6644C9.33072 15.018 9.47115 15.3572 9.72112 15.6072C9.97109 15.8573 10.3101 15.9977 10.6636 15.9977C11.0172 15.9977 11.3562 15.8573 11.6062 15.6072C11.8561 15.3572 11.9966 15.018 11.9966 14.6644Z" fill="url(#paint0_linear_14725_2714)"/>
<path d="M10.5303 21.3311C12.3773 23.0485 14.8066 24.0015 17.3283 23.9977C18.7945 23.9977 20.1887 23.6817 21.4457 23.1124C23.1252 23.4991 24.9393 23.8324 25.775 23.9791C25.9876 24.0166 26.2061 24.0017 26.4117 23.9357C26.6172 23.8697 26.8036 23.7545 26.9546 23.6002C27.1055 23.4458 27.2166 23.257 27.2782 23.05C27.3398 22.8431 27.35 22.6242 27.3079 22.4124C27.0314 21.0122 26.7247 19.6181 26.3882 18.2311C26.9808 16.9617 27.3004 15.582 27.3261 14.1812C27.3518 12.7804 27.083 11.3899 26.5373 10.0996C25.9916 8.80937 25.181 7.64815 24.1581 6.69118C23.1352 5.73421 21.9227 5.00283 20.5993 4.5444C21.552 6.28038 22.0334 8.23579 21.9955 10.2158C21.9575 12.1958 21.4016 14.1313 20.383 15.8295C19.3644 17.5277 17.9187 18.9292 16.19 19.8945C14.4614 20.8598 12.51 21.3551 10.5303 21.3311Z" fill="url(#paint1_linear_14725_2714)"/>
<defs>
<linearGradient id="paint0_linear_14725_2714" x1="19.197" y1="-4.7594" x2="10.0702" y2="23.1889" gradientUnits="userSpaceOnUse">
<stop stop-color="#7CBEFA"/>
<stop offset="1" stop-color="#626EDA"/>
</linearGradient>
<linearGradient id="paint1_linear_14725_2714" x1="19.197" y1="-4.7594" x2="10.0702" y2="23.1889" gradientUnits="userSpaceOnUse">
<stop stop-color="#7CBEFA"/>
<stop offset="1" stop-color="#626EDA"/>
</linearGradient>
</defs>
</svg>
