<svg width="32" height="32" viewBox="0 0 32 32" fill="none" xmlns="http://www.w3.org/2000/svg">
<path d="M15.6667 16.0003C19.349 16.0003 22.3333 13.016 22.3333 9.33366C22.3333 5.65137 19.349 2.66699 15.6667 2.66699C11.9844 2.66699 9 5.65137 9 9.33366C9 13.016 11.9844 16.0003 15.6667 16.0003ZM9.41667 24.7503C9.41667 25.443 9.97396 26.0003 10.6667 26.0003C11.3594 26.0003 11.9167 25.443 11.9167 24.7503C11.9167 24.0576 11.3594 23.5003 10.6667 23.5003C9.97396 23.5003 9.41667 24.0576 9.41667 24.7503ZM20.6667 17.6982V20.2503C22.5677 20.6357 24 22.3232 24 24.3337V26.5055C24 26.9014 23.7188 27.2451 23.3281 27.3232L21.651 27.6566C21.4271 27.7035 21.2083 27.5576 21.1615 27.3285L21 26.5107C20.9531 26.2868 21.099 26.0628 21.3281 26.0212L22.3333 25.818V24.3337C22.3333 21.0628 17.3333 20.943 17.3333 24.4326V25.8232L18.3385 26.0264C18.5625 26.0732 18.7083 26.292 18.6667 26.516L18.5052 27.3337C18.4583 27.5576 18.2396 27.7035 18.0156 27.6618L16.3906 27.443C15.9792 27.3857 15.6719 27.0368 15.6719 26.6149V24.3337C15.6719 22.3232 17.1042 20.641 19.0052 20.2503V17.8962C18.8906 17.9326 18.776 17.9535 18.6615 17.9951C17.724 18.3232 16.7188 18.5055 15.6719 18.5055C14.625 18.5055 13.6198 18.3232 12.6823 17.9951C12.2969 17.8597 11.9063 17.7764 11.5052 17.7243V21.9743C12.7083 22.3337 13.5885 23.4378 13.5885 24.7555C13.5885 26.3649 12.2813 27.6722 10.6719 27.6722C9.0625 27.6722 7.75521 26.3649 7.75521 24.7555C7.75521 23.4378 8.63542 22.3337 9.83854 21.9743V17.7868C6.52604 18.3441 4 21.1982 4 24.667V27.0003C4 28.2868 5.04688 29.3337 6.33333 29.3337H25C26.2865 29.3337 27.3333 28.2868 27.3333 27.0003V24.667C27.3333 20.917 24.375 17.8805 20.6667 17.6982Z" fill="#5F6B73"/>
</svg>
