<svg width="6" height="15" viewBox="0 0 6 15" fill="none" xmlns="http://www.w3.org/2000/svg">
<path d="M2.76055 4.5H4.76055L2.56055 14.5H0.560547L2.76055 4.5ZM4.44055 0.5C4.24276 0.5 4.04943 0.558649 3.88498 0.66853C3.72053 0.778412 3.59236 0.934591 3.51667 1.11732C3.44098 1.30004 3.42118 1.50111 3.45976 1.69509C3.49835 1.88907 3.59359 2.06725 3.73344 2.20711C3.87329 2.34696 4.05147 2.4422 4.24546 2.48079C4.43944 2.51937 4.6405 2.49957 4.82323 2.42388C5.00596 2.34819 5.16214 2.22002 5.27202 2.05557C5.3819 1.89112 5.44055 1.69778 5.44055 1.5C5.44055 1.23478 5.33519 0.98043 5.14765 0.792893C4.96012 0.605357 4.70576 0.5 4.44055 0.5Z" fill="#5F6B73"/>
</svg>
