<svg width="32" height="32" viewBox="0 0 32 32" fill="none" xmlns="http://www.w3.org/2000/svg">
<path d="M20.0612 20.0597C20.0025 20.1185 19.963 20.1937 19.9478 20.2754C19.9327 20.3572 19.9428 20.4416 19.9766 20.5175L21.3491 23.6054L23.0757 27.4901L24.6258 30.9776C24.6582 31.0508 24.7114 31.1128 24.7787 31.1562C24.8459 31.1996 24.9244 31.2224 25.0045 31.2218C25.0845 31.2212 25.1626 31.1972 25.2292 31.1528C25.2958 31.1084 25.348 31.0455 25.3794 30.9719L27.0568 27.0551L30.9745 25.3769C31.0479 25.3453 31.1104 25.2931 31.1546 25.2265C31.1987 25.16 31.2225 25.082 31.223 25.0021C31.2236 24.9222 31.2008 24.844 31.1575 24.7768C31.1143 24.7097 31.0524 24.6566 30.9794 24.6241L27.4916 23.074L23.6405 21.3624L20.519 19.9751C20.4432 19.9414 20.359 19.9315 20.2774 19.9466C20.1959 19.9617 20.12 20.0011 20.0612 20.0597Z" fill="url(#paint0_linear_13014_73495)"/>
<path d="M16.3077 20.2472C15.2631 20.2472 14.2614 19.8322 13.5228 19.0936C12.7842 18.355 12.3692 17.3533 12.3692 16.3087C12.3692 15.2642 12.7842 14.2624 13.5228 13.5238C14.2614 12.7852 15.2631 12.3703 16.3077 12.3703C17.3522 12.3703 18.354 12.7852 19.0926 13.5238C19.8312 14.2624 20.2462 15.2642 20.2462 16.3087C20.2462 16.948 20.0907 17.5712 19.8008 18.1279C19.6171 18.4808 19.3792 18.807 19.0926 19.0936C18.8065 19.3798 18.4808 19.6173 18.1285 19.801C17.5714 20.0915 16.9476 20.2472 16.3077 20.2472Z" fill="url(#paint1_linear_13014_73495)"/>
<path d="M16.3077 4C23.1046 4 28.6154 9.51077 28.6154 16.3077C28.6154 18.1747 28.1996 19.9446 27.4556 21.53L23.6463 19.837C23.715 19.6965 23.7797 19.5539 23.8403 19.4094C24.2518 18.4271 24.4637 17.3727 24.4637 16.3077C24.4637 15.2427 24.2518 14.1883 23.8403 13.206C23.4288 12.2237 22.826 11.3331 22.0669 10.5861C21.3078 9.83904 20.4077 9.25051 19.4189 8.85477C18.4302 8.45904 17.3726 8.264 16.3077 8.28103C14.2011 8.3147 12.1922 9.17518 10.7144 10.6768C9.23657 12.1784 8.40832 14.2008 8.40832 16.3077C8.40832 18.4145 9.23657 20.4369 10.7144 21.9386C12.1922 23.4402 14.2011 24.3007 16.3077 24.3344C17.3726 24.3514 18.4302 24.1563 19.4189 23.7606C19.5519 23.7074 19.6832 23.6507 19.8128 23.5906L21.5306 27.4553C19.9451 28.1995 18.1749 28.6154 16.3077 28.6154C9.51077 28.6154 4 23.1046 4 16.3077C4 9.51077 9.51077 4 16.3077 4Z" fill="url(#paint2_linear_13014_73495)"/>
<defs>
<linearGradient id="paint0_linear_13014_73495" x1="22.917" y1="-1.39841" x2="11.6689" y2="29.602" gradientUnits="userSpaceOnUse">
<stop stop-color="#7CBEFA"/>
<stop offset="1" stop-color="#626EDA"/>
</linearGradient>
<linearGradient id="paint1_linear_13014_73495" x1="22.917" y1="-1.39841" x2="11.6689" y2="29.602" gradientUnits="userSpaceOnUse">
<stop stop-color="#7CBEFA"/>
<stop offset="1" stop-color="#626EDA"/>
</linearGradient>
<linearGradient id="paint2_linear_13014_73495" x1="22.917" y1="-1.39841" x2="11.6689" y2="29.602" gradientUnits="userSpaceOnUse">
<stop stop-color="#7CBEFA"/>
<stop offset="1" stop-color="#626EDA"/>
</linearGradient>
</defs>
</svg>
