<svg width="16" height="16" viewBox="0 0 16 16" fill="none" xmlns="http://www.w3.org/2000/svg">
<path fill-rule="evenodd" clip-rule="evenodd" d="M6.34881 1.54747C7.05707 0.232875 8.94249 0.232875 9.65075 1.54747L15.6422 12.6746C15.7959 12.9602 15.873 13.2809 15.8658 13.6052C15.8586 13.9295 15.7674 14.2463 15.601 14.5248C15.4347 14.8033 15.199 15.0339 14.9169 15.1941C14.6348 15.3542 14.316 15.4384 13.9916 15.4385H2.0081C1.68372 15.4384 1.36476 15.3542 1.08266 15.1941C0.800566 15.0339 0.564838 14.8033 0.398518 14.5248C0.232197 14.2463 0.140975 13.9295 0.133764 13.6052C0.126554 13.2809 0.203602 12.9602 0.35738 12.6746L6.34881 1.54747ZM7.66934 2.25894C7.8112 1.99594 8.18827 1.99577 8.33013 2.25877L14.3214 13.3857C14.3522 13.4428 14.3676 13.507 14.3662 13.5718C14.3647 13.6367 14.3465 13.7001 14.3132 13.7558C14.28 13.8114 14.2328 13.8576 14.1764 13.8896C14.12 13.9216 14.0563 13.9384 13.9915 13.9385H2.00823M7.66934 2.25894L1.67812 13.3857C1.64737 13.4428 1.63195 13.507 1.63339 13.5718C1.63484 13.6367 1.65308 13.7001 1.68634 13.7558C1.71961 13.8115 1.76675 13.8576 1.82317 13.8896C1.87955 13.9216 1.9434 13.9384 2.00823 13.9385" fill="#B7C3CB"/>
<path d="M7.25024 10.25C7.25024 10.5 7.40024 11 8.00024 11C8.60024 11 8.75024 10.5 8.75024 10.25L9.12524 5.75C9.12524 5.375 8.90024 4.625 8.00024 4.625C7.10024 4.625 6.87524 5.375 6.87524 5.75L7.25024 10.25Z" fill="#B7C3CB"/>
<path d="M7.25024 12.5C7.25024 12.25 7.40024 11.75 8.00024 11.75C8.60024 11.75 8.75024 12.25 8.75024 12.5C8.75024 12.75 8.60024 13.25 8.00024 13.25C7.40024 13.25 7.25024 12.75 7.25024 12.5Z" fill="#B7C3CB"/>
</svg>
