<svg width="16" height="18" viewBox="0 0 16 18" fill="none" xmlns="http://www.w3.org/2000/svg">
<path fill-rule="evenodd" clip-rule="evenodd" d="M1.58262 2.74999C1.58262 2.19746 1.81066 1.66755 2.21659 1.27685C2.62251 0.88615 3.17306 0.666656 3.74712 0.666656H12.4051C12.9792 0.666656 13.5297 0.88615 13.9357 1.27685C14.3416 1.66755 14.5696 2.19746 14.5696 2.74999V15.25C14.8567 15.25 15.1319 15.3597 15.3349 15.5551C15.5379 15.7504 15.6519 16.0154 15.6519 16.2917C15.6519 16.5679 15.5379 16.8329 15.3349 17.0282C15.1319 17.2236 14.8567 17.3333 14.5696 17.3333H11.3229C11.0358 17.3333 10.7606 17.2236 10.5576 17.0282C10.3546 16.8329 10.2406 16.5679 10.2406 16.2917V14.2083C10.2406 13.9321 10.1266 13.6671 9.92364 13.4718C9.72068 13.2764 9.44541 13.1667 9.15837 13.1667H6.99387C6.70684 13.1667 6.43157 13.2764 6.22861 13.4718C6.02564 13.6671 5.91162 13.9321 5.91162 14.2083V16.2917C5.91162 16.5679 5.7976 16.8329 5.59464 17.0282C5.39168 17.2236 5.1164 17.3333 4.82937 17.3333H1.58262C1.29559 17.3333 1.02031 17.2236 0.81735 17.0282C0.614389 16.8329 0.500366 16.5679 0.500366 16.2917C0.500366 16.0154 0.614389 15.7504 0.81735 15.5551C1.02031 15.3597 1.29559 15.25 1.58262 15.25V2.74999ZM4.82937 3.79166H6.99387V5.87499H4.82937V3.79166ZM6.99387 7.95832H4.82937V10.0417H6.99387V7.95832ZM9.15837 3.79166H11.3229V5.87499H9.15837V3.79166ZM11.3229 7.95832H9.15837V10.0417H11.3229V7.95832Z" fill="#225999"/>
</svg>
