<svg width="76" height="76" viewBox="0 0 76 76" fill="none" xmlns="http://www.w3.org/2000/svg">
<path opacity="0.8" fill-rule="evenodd" clip-rule="evenodd" d="M30.5346 6.72946C35.5327 -2.24315 48.4673 -2.24315 53.4698 6.72946L82.33 58.5586C87.1882 67.2826 80.8652 78 70.8646 78H13.1354C3.13484 78 -3.18819 67.2826 1.66996 58.5586L30.5302 6.72946H30.5346ZM42 21.2941C43.1597 21.2941 44.272 21.7537 45.092 22.5717C45.9121 23.3898 46.3728 24.4993 46.3728 25.6561V43.1041C46.3728 44.261 45.9121 45.3704 45.092 46.1885C44.272 47.0065 43.1597 47.4661 42 47.4661C40.8403 47.4661 39.728 47.0065 38.908 46.1885C38.0879 45.3704 37.6272 44.261 37.6272 43.1041V25.6561C37.6272 24.4993 38.0879 23.3898 38.908 22.5717C39.728 21.7537 40.8403 21.2941 42 21.2941ZM46.3728 60.552C46.3728 61.7089 45.9121 62.8184 45.092 63.6364C44.272 64.4545 43.1597 64.914 42 64.914C40.8403 64.914 39.728 64.4545 38.908 63.6364C38.0879 62.8184 37.6272 61.7089 37.6272 60.552C37.6272 59.3952 38.0879 58.2857 38.908 57.4676C39.728 56.6496 40.8403 56.1901 42 56.1901C43.1597 56.1901 44.272 56.6496 45.092 57.4676C45.9121 58.2857 46.3728 59.3952 46.3728 60.552Z" fill="white"/>
</svg>
