<svg width="28" height="29" viewBox="0 0 28 29" fill="none" xmlns="http://www.w3.org/2000/svg">
<path d="M26.507 22.7053C26.6262 22.059 26.6262 21.3989 26.507 20.7526L27.6896 20.0696C27.8271 19.9917 27.8867 19.8313 27.8409 19.68C27.5338 18.6899 27.0066 17.7915 26.3191 17.0489C26.2136 16.9343 26.044 16.9068 25.9065 16.9847L24.7239 17.6677C24.2242 17.2414 23.6513 16.9114 23.0325 16.6913V15.3254C23.0325 15.1695 22.9224 15.032 22.7712 14.9999C22.5149 14.9425 22.2575 14.9 22.0003 14.8721C21.2316 14.7886 20.4648 14.8351 19.7367 14.9999C19.5854 15.032 19.4754 15.1695 19.4754 15.3254V16.6913C18.8566 16.9114 18.2836 17.2414 17.784 17.6677L17.5085 17.5086L16.6014 16.9847C16.4684 16.9068 16.2942 16.9343 16.1888 17.0489C15.8871 17.3747 15.6163 17.7306 15.3814 18.111C15.081 18.5976 14.8393 19.1244 14.667 19.68C14.6212 19.8313 14.6853 19.9917 14.8183 20.0696L16.0009 20.7526C15.9451 21.0552 15.9154 21.3608 15.9119 21.6666C15.9078 22.014 15.9375 22.3616 16.0009 22.7053L14.8183 23.3883C14.7907 23.4039 14.7663 23.4229 14.7452 23.4444C14.6611 23.5302 14.6303 23.657 14.667 23.7779C14.9741 24.768 15.5012 25.6619 16.1888 26.409C16.2942 26.5236 16.4638 26.5511 16.6014 26.4732L17.784 25.7902C18.2836 26.2165 18.8566 26.5466 19.4754 26.7666V28.1326C19.4754 28.2884 19.5854 28.4259 19.7367 28.458C19.9464 28.505 20.1569 28.542 20.3673 28.5692C21.1829 28.6746 21.9988 28.6329 22.7712 28.458C22.9224 28.4259 23.0325 28.2884 23.0325 28.1326V26.7666C23.6513 26.5466 24.2242 26.2165 24.7239 25.7902L25.9065 26.4732C26.0394 26.5511 26.2136 26.5236 26.3191 26.409C27.0066 25.6665 27.5338 24.768 27.8409 23.7779C27.8867 23.6267 27.8225 23.4662 27.6896 23.3883L26.507 22.7053ZM21.2585 23.9521C20.0301 23.9521 19.0354 22.9528 19.0354 21.729C19.0354 20.5051 20.0346 19.5058 21.2585 19.5058C21.5184 19.5058 21.7681 19.5509 22.0003 19.6336C22.8617 19.9403 23.4817 20.7649 23.4817 21.729C23.4817 22.6936 22.8637 23.5188 22.0003 23.825C21.7684 23.9073 21.5187 23.9521 21.2585 23.9521Z" fill="url(#paint0_linear_16128_50734)"/>
<path fill-rule="evenodd" clip-rule="evenodd" d="M3.33366 2.11103H6.15144C6.33533 1.59089 6.67603 1.14059 7.12656 0.822191C7.5771 0.50379 8.1153 0.332963 8.66699 0.333252H14.0003C14.552 0.332963 15.0902 0.50379 15.5408 0.822191C15.9913 1.14059 16.332 1.59089 16.5159 2.11103H19.3337C20.0409 2.11103 20.7192 2.39198 21.2193 2.89208C21.7194 3.39218 22.0003 4.07045 22.0003 4.7777V13.7042C21.7433 13.6793 21.4828 13.6666 21.2193 13.6666C18.8499 13.6666 16.7212 14.6966 15.2563 16.3332H10.4448C10.209 16.3332 9.98293 16.4269 9.81623 16.5936C9.64953 16.7603 9.55588 16.9864 9.55588 17.2221C9.55588 17.4579 9.64953 17.684 9.81623 17.8507C9.98293 18.0174 10.209 18.111 10.4448 18.111H14.0509C13.5186 19.1821 13.2193 20.3894 13.2193 21.6666L10.4448 21.6666C10.209 21.6666 9.98293 21.7602 9.81623 21.9269C9.64953 22.0936 9.55588 22.3197 9.55588 22.5555C9.55588 22.7912 9.64953 23.0173 9.81623 23.184C9.98293 23.3507 10.209 23.4444 10.4448 23.4444H13.4175C13.9451 25.7696 15.4856 27.7102 17.5506 28.7777H3.33366C2.62641 28.7777 1.94814 28.4967 1.44804 27.9966C0.947943 27.4965 0.666992 26.8183 0.666992 26.111V4.7777C0.666992 4.07045 0.947943 3.39218 1.44804 2.89208C1.94814 2.39198 2.62641 2.11103 3.33366 2.11103ZM15.3814 18.111C15.081 18.5976 14.8393 19.1244 14.667 19.68C14.6212 19.8313 14.6853 19.9917 14.8183 20.0696L16.0009 20.7526C15.9451 21.0552 15.9154 21.3608 15.9119 21.6666C15.9078 22.014 15.9375 22.3616 16.0009 22.7053L14.8183 23.3883C14.7907 23.4039 14.7663 23.4229 14.7452 23.4444C14.6611 23.5302 14.6303 23.657 14.667 23.7779C14.9741 24.768 15.5012 25.6619 16.1888 26.409C16.2942 26.5236 16.4638 26.5511 16.6014 26.4732L17.784 25.7902C18.2836 26.2165 18.8566 26.5466 19.4754 26.7666V28.1326C19.4754 28.2884 19.5854 28.4259 19.7367 28.458C19.9464 28.505 20.1569 28.542 20.3673 28.5692C21.1829 28.6746 21.9988 28.6329 22.7712 28.458C22.9224 28.4259 23.0325 28.2884 23.0325 28.1326V26.7666C23.6513 26.5466 24.2242 26.2165 24.7239 25.7902L25.9065 26.4732C26.0394 26.5511 26.2136 26.5236 26.3191 26.409C27.0066 25.6665 27.5338 24.768 27.8409 23.7779C27.8867 23.6267 27.8225 23.4662 27.6896 23.3883L26.507 22.7053C26.6262 22.059 26.6262 21.3989 26.507 20.7526L27.6896 20.0696C27.8271 19.9917 27.8867 19.8313 27.8409 19.68C27.5338 18.6899 27.0066 17.7915 26.3191 17.0489C26.2136 16.9343 26.044 16.9068 25.9065 16.9847L24.7239 17.6677C24.2242 17.2414 23.6513 16.9114 23.0325 16.6913V15.3254C23.0325 15.1695 22.9224 15.032 22.7712 14.9999C22.5149 14.9425 22.2575 14.9 22.0003 14.8721C21.2316 14.7886 20.4648 14.8351 19.7367 14.9999C19.5854 15.032 19.4754 15.1695 19.4754 15.3254V16.6913C18.8566 16.9114 18.2836 17.2414 17.784 17.6677L17.5085 17.5086L16.6014 16.9847C16.4684 16.9068 16.2942 16.9343 16.1888 17.0489C15.8871 17.3747 15.6163 17.7306 15.3814 18.111ZM14.0003 2.11103H8.66699C8.43124 2.11103 8.20515 2.20468 8.03845 2.37138C7.87175 2.53808 7.7781 2.76417 7.7781 2.99992C7.7781 3.23567 7.87175 3.46176 8.03845 3.62846C8.20515 3.79516 8.43124 3.88881 8.66699 3.88881H14.0003C14.2361 3.88881 14.4622 3.79516 14.6289 3.62846C14.7956 3.46176 14.8892 3.23567 14.8892 2.99992C14.8892 2.76417 14.7956 2.53808 14.6289 2.37138C14.4622 2.20468 14.2361 2.11103 14.0003 2.11103ZM9.81623 11.2603C9.64953 11.427 9.55588 11.6531 9.55588 11.8888C9.55588 12.1246 9.64953 12.3506 9.81623 12.5173C9.98293 12.684 10.209 12.7777 10.4448 12.7777H16.667C16.9027 12.7777 17.1288 12.684 17.2955 12.5173C17.4622 12.3506 17.5559 12.1246 17.5559 11.8888C17.5559 11.6531 17.4622 11.427 17.2955 11.2603C17.1288 11.0936 16.9027 10.9999 16.667 10.9999H10.4448C10.209 10.9999 9.98293 11.0936 9.81623 11.2603ZM7.38758 12.8316C7.63763 12.5816 7.7781 12.2424 7.7781 11.8888C7.7781 11.5352 7.63763 11.196 7.38758 10.946C7.13753 10.6959 6.79839 10.5555 6.44477 10.5555C6.09115 10.5555 5.75201 10.6959 5.50196 10.946C5.25191 11.196 5.11144 11.5352 5.11144 11.8888C5.11144 12.2424 5.25191 12.5816 5.50196 12.8316C5.75201 13.0817 6.09115 13.2221 6.44477 13.2221C6.79839 13.2221 7.13753 13.0817 7.38758 12.8316ZM7.38758 18.1649C7.63763 17.9149 7.7781 17.5758 7.7781 17.2221C7.7781 16.8685 7.63763 16.5294 7.38758 16.2793C7.13753 16.0293 6.79839 15.8888 6.44477 15.8888C6.09115 15.8888 5.75201 16.0293 5.50196 16.2793C5.25191 16.5294 5.11144 16.8685 5.11144 17.2221C5.11144 17.5758 5.25191 17.9149 5.50196 18.1649C5.75201 18.415 6.09115 18.5555 6.44477 18.5555C6.79839 18.5555 7.13753 18.415 7.38758 18.1649ZM5.50196 23.4983C5.75201 23.7483 6.09115 23.8888 6.44477 23.8888C6.79839 23.8888 7.13753 23.7483 7.38758 23.4983C7.63763 23.2482 7.7781 22.9091 7.7781 22.5555C7.7781 22.2018 7.63763 21.8627 7.38758 21.6127C7.13753 21.3626 6.79839 21.2221 6.44477 21.2221C6.09115 21.2221 5.75201 21.3626 5.50196 21.6127C5.25191 21.8627 5.11144 22.2018 5.11144 22.5555C5.11144 22.9091 5.25191 23.2482 5.50196 23.4983ZM19.0354 21.729C19.0354 22.9528 20.0301 23.9521 21.2585 23.9521C21.5187 23.9521 21.7684 23.9073 22.0003 23.825C22.8637 23.5188 23.4817 22.6936 23.4817 21.729C23.4817 20.7649 22.8617 19.9403 22.0003 19.6336C21.7681 19.5509 21.5184 19.5058 21.2585 19.5058C20.0346 19.5058 19.0354 20.5051 19.0354 21.729Z" fill="url(#paint1_linear_16128_50734)"/>
<defs>
<linearGradient id="paint0_linear_16128_50734" x1="19.5604" y1="-5.30763" x2="7.39767" y2="26.7327" gradientUnits="userSpaceOnUse">
<stop stop-color="#7CBEFA"/>
<stop offset="1" stop-color="#626EDA"/>
</linearGradient>
<linearGradient id="paint1_linear_16128_50734" x1="19.5604" y1="-5.30763" x2="7.39767" y2="26.7327" gradientUnits="userSpaceOnUse">
<stop stop-color="#7CBEFA"/>
<stop offset="1" stop-color="#626EDA"/>
</linearGradient>
</defs>
</svg>
