<svg width="17" height="17" viewBox="0 0 17 17" fill="none" xmlns="http://www.w3.org/2000/svg">
<path fill-rule="evenodd" clip-rule="evenodd" d="M3.87793 3.83329C3.50974 3.83329 3.21126 4.13177 3.21126 4.49996V13.8333C3.21126 14.2015 3.50974 14.5 3.87793 14.5H13.2113C13.5795 14.5 13.8779 14.2015 13.8779 13.8333V4.49996C13.8779 4.13177 13.5795 3.83329 13.2113 3.83329H3.87793ZM1.87793 4.49996C1.87793 3.39539 2.77336 2.49996 3.87793 2.49996H13.2113C14.3158 2.49996 15.2113 3.39539 15.2113 4.49996V13.8333C15.2113 14.9379 14.3158 15.8333 13.2113 15.8333H3.87793C2.77336 15.8333 1.87793 14.9379 1.87793 13.8333V4.49996Z" fill="#59A5FF"/>
<path fill-rule="evenodd" clip-rule="evenodd" d="M1.87793 7.16663C1.87793 6.79844 2.17641 6.49996 2.5446 6.49996H14.5446C14.9128 6.49996 15.2113 6.79844 15.2113 7.16663C15.2113 7.53482 14.9128 7.83329 14.5446 7.83329H2.5446C2.17641 7.83329 1.87793 7.53482 1.87793 7.16663Z" fill="#59A5FF"/>
<path fill-rule="evenodd" clip-rule="evenodd" d="M11.2113 1.16663C11.5795 1.16663 11.8779 1.4651 11.8779 1.83329V4.49996C11.8779 4.86815 11.5795 5.16663 11.2113 5.16663C10.8431 5.16663 10.5446 4.86815 10.5446 4.49996V1.83329C10.5446 1.4651 10.8431 1.16663 11.2113 1.16663Z" fill="#59A5FF"/>
<path fill-rule="evenodd" clip-rule="evenodd" d="M5.87793 1.16663C6.24612 1.16663 6.5446 1.4651 6.5446 1.83329V4.49996C6.5446 4.86815 6.24612 5.16663 5.87793 5.16663C5.50974 5.16663 5.21126 4.86815 5.21126 4.49996V1.83329C5.21126 1.4651 5.50974 1.16663 5.87793 1.16663Z" fill="#59A5FF"/>
</svg>
