<svg width="14" height="14" viewBox="0 0 14 14" fill="none" xmlns="http://www.w3.org/2000/svg">
<path d="M9.64779 6.31445L9.64781 6.31448L9.65083 6.31135C9.81781 6.13847 9.9102 5.90692 9.90811 5.66657C9.90603 5.42622 9.80962 5.19631 9.63966 5.02635C9.46971 4.85639 9.23979 4.75999 8.99945 4.7579C8.7591 4.75581 8.52755 4.84821 8.35466 5.01519L8.35464 5.01516L8.35156 5.01823L6.33301 7.03679L5.64778 6.35156L5.64781 6.35154L5.64469 6.34852C5.4718 6.18154 5.24025 6.08915 4.9999 6.09124C4.75955 6.09332 4.52964 6.18973 4.35969 6.35969C4.18973 6.52964 4.09332 6.75955 4.09124 6.9999C4.08915 7.24025 4.18154 7.4718 4.34852 7.64469L4.34849 7.64471L4.35156 7.64778L5.6849 8.98112L5.68492 8.98114C5.85682 9.15299 6.08994 9.24953 6.33301 9.24953C6.57608 9.24953 6.80919 9.15299 6.98109 8.98114L6.98112 8.98112L9.64779 6.31445ZM0.583008 6.99967C0.583008 3.45575 3.45575 0.583008 6.99967 0.583008C10.5436 0.583008 13.4163 3.45575 13.4163 6.99967C13.4163 10.5436 10.5436 13.4163 6.99967 13.4163C3.45575 13.4163 0.583008 10.5436 0.583008 6.99967Z" fill="white" stroke="white" stroke-width="0.5"/>
<path d="M9.47101 6.13767C9.59245 6.01194 9.65964 5.84354 9.65812 5.66874C9.6566 5.49394 9.58649 5.32673 9.46289 5.20313C9.33928 5.07952 9.17207 5.00941 8.99728 5.00789C8.82248 5.00637 8.65408 5.07357 8.52834 5.19501L6.33301 7.39034L5.47101 6.52834C5.34527 6.4069 5.17687 6.33971 5.00207 6.34123C4.82728 6.34274 4.66007 6.41286 4.53646 6.53646C4.41286 6.66007 4.34274 6.82728 4.34123 7.00207C4.33971 7.17687 4.4069 7.34527 4.52834 7.47101L5.86167 8.80434C5.98669 8.92932 6.15623 8.99953 6.33301 8.99953C6.50978 8.99953 6.67932 8.92932 6.80434 8.80434L9.47101 6.13767Z" fill="#448ADD"/>
</svg>
