<svg width="19" height="20" viewBox="0 0 19 20" fill="none" xmlns="http://www.w3.org/2000/svg">
<path fill-rule="evenodd" clip-rule="evenodd" d="M1.54309 2.5C1.54309 1.83696 1.81674 1.20107 2.30385 0.732233C2.79096 0.263392 3.45161 0 4.14049 0H14.5301C15.219 0 15.8796 0.263392 16.3667 0.732233C16.8538 1.20107 17.1275 1.83696 17.1275 2.5V17.5C17.4719 17.5 17.8023 17.6317 18.0458 17.8661C18.2894 18.1005 18.4262 18.4185 18.4262 18.75C18.4262 19.0815 18.2894 19.3995 18.0458 19.6339C17.8023 19.8683 17.4719 20 17.1275 20H13.2314C12.887 20 12.5566 19.8683 12.3131 19.6339C12.0695 19.3995 11.9327 19.0815 11.9327 18.75V16.25C11.9327 15.9185 11.7959 15.6005 11.5523 15.3661C11.3088 15.1317 10.9784 15 10.634 15H8.03659C7.69215 15 7.36183 15.1317 7.11827 15.3661C6.87472 15.6005 6.73789 15.9185 6.73789 16.25V18.75C6.73789 19.0815 6.60106 19.3995 6.35751 19.6339C6.11396 19.8683 5.78363 20 5.43919 20H1.54309C1.19865 20 0.868319 19.8683 0.624766 19.6339C0.381212 19.3995 0.244385 19.0815 0.244385 18.75C0.244385 18.4185 0.381212 18.1005 0.624766 17.8661C0.868319 17.6317 1.19865 17.5 1.54309 17.5V2.5ZM5.43919 3.75H8.03659V6.25H5.43919V3.75ZM8.03659 8.75H5.43919V11.25H8.03659V8.75ZM10.634 3.75H13.2314V6.25H10.634V3.75ZM13.2314 8.75H10.634V11.25H13.2314V8.75Z" fill="#448ADD"/>
</svg>
