<svg width="24" height="26" viewBox="0 0 24 26" fill="none" xmlns="http://www.w3.org/2000/svg">
<path d="M3.36279 25.1127H20.8628C22.2415 25.1127 23.3628 23.9914 23.3628 22.6127V5.11267C23.3628 3.73392 22.2415 2.61267 20.8628 2.61267H18.3628V0.112671H15.8628V2.61267H8.36279V0.112671H5.86279V2.61267H3.36279C1.98404 2.61267 0.862793 3.73392 0.862793 5.11267V22.6127C0.862793 23.9914 1.98404 25.1127 3.36279 25.1127ZM9.36154 22.5964H7.11279V20.3477L13.334 14.1352L15.5828 16.3839L9.36154 22.5964ZM16.6415 15.3252L14.3928 13.0764L16.1078 11.3627L18.3565 13.6114L16.6415 15.3252ZM3.36279 6.36267H20.8628V8.86267H3.36279V6.36267Z" fill="#5F6B73"/>
</svg>
