<svg version="1.0" xmlns="http://www.w3.org/2000/svg"
 width="40px" height="14px" viewBox="0 0 241.000000 106.000000"
 preserveAspectRatio="xMidYMid meet">

<g transform="translate(0.000000,106.000000) scale(0.100000,-0.100000)"
fill="#606c74" stroke="none">
<path d="M1825 1010 c-158 -28 -284 -124 -354 -270 -35 -74 -36 -77 -36 -201
0 -125 0 -125 38 -203 136 -274 484 -357 720 -171 218 172 246 488 62 693
-106 118 -276 178 -430 152z m105 -200 c38 -20 40 -41 25 -201 -16 -161 -24
-183 -65 -172 -24 6 -27 16 -40 142 -16 165 -14 207 12 225 26 19 42 20 68 6z
m10 -450 c11 -11 20 -29 20 -40 0 -24 -34 -60 -55 -60 -28 0 -67 48 -60 73 15
47 61 61 95 27z"/>
<path d="M370 927 c-34 -17 -50 -53 -50 -114 l0 -53 -79 0 c-70 0 -83 -3 -108
-24 -26 -23 -28 -30 -31 -115 l-4 -91 300 0 c277 0 303 1 343 20 53 24 145 26
194 6 l35 -15 0 82 c-1 117 -21 137 -144 137 l-76 0 0 64 c0 59 -2 66 -31 90
-30 25 -34 26 -177 26 -98 0 -155 -4 -172 -13z m280 -137 l0 -30 -115 0 -115
0 0 30 0 30 115 0 115 0 0 -30z"/>
<path d="M755 502 c-116 -54 -160 -203 -97 -323 81 -156 298 -153 379 6 9 16
18 59 20 95 4 57 1 72 -24 120 -41 77 -94 113 -176 117 -45 3 -73 -1 -102 -15z
m113 -134 c3 -45 5 -47 35 -50 27 -2 32 -7 32 -28 0 -24 -3 -25 -55 -25 l-55
0 -3 78 c-3 77 -2 78 20 75 20 -3 23 -10 26 -50z"/>
<path d="M102 309 l3 -151 28 -24 c28 -24 29 -24 267 -24 l239 0 -26 46 c-18
32 -27 66 -31 115 l-5 69 -68 0 c-78 0 -89 10 -89 79 l0 41 -161 0 -160 0 3
-151z"/>
</g>
</svg>