<svg width="18" height="17" viewBox="0 0 18 17" fill="none" xmlns="http://www.w3.org/2000/svg">
<path d="M14.4139 12.4828L11.2814 15.4056L11.2813 15.4057C11.1255 15.5512 11.0343 15.7523 11.0343 15.966C11.0343 16.1797 11.1255 16.3809 11.2813 16.5264C11.4366 16.6713 11.6438 16.75 11.8564 16.75C12.0691 16.75 12.2763 16.6713 12.4316 16.5264L17.0025 12.2601L17.0027 12.2599C17.0798 12.188 17.142 12.1017 17.1848 12.0055C17.2277 11.9091 17.25 11.8051 17.25 11.6995C17.25 11.594 17.2277 11.49 17.1848 11.3936C17.142 11.2973 17.0798 11.211 17.0027 11.1392L14.4139 12.4828ZM14.4139 12.4828L3.85696 12.4828C3.03829 12.4828 2.24998 12.1795 1.6662 11.6346C1.08184 11.0892 0.75 10.3456 0.75 9.56629L0.749999 1.03331C0.749999 0.819784 0.841035 0.618801 0.996772 0.473441C1.15193 0.328625 1.3589 0.250001 1.57139 0.250001C1.78389 0.250001 1.99085 0.328625 2.14601 0.473441C2.30175 0.6188 2.39278 0.819783 2.39278 1.03331L2.39278 9.56629C2.39278 9.91853 2.54255 10.2601 2.81544 10.5148C3.08891 10.7701 3.46329 10.9162 3.85696 10.9162L14.4139 10.9162L11.2814 7.99342L11.2813 7.99339C11.2042 7.92145 11.1421 7.83511 11.0994 7.7388C11.0566 7.64244 11.0343 7.53848 11.0343 7.43304C11.0343 7.3276 11.0566 7.22365 11.0994 7.12728C11.1421 7.03097 11.2042 6.94463 11.2813 6.8727C11.3584 6.80079 11.4489 6.74459 11.5474 6.70652C11.6458 6.66846 11.7508 6.64906 11.8564 6.64906C11.9621 6.64906 12.0671 6.66846 12.1655 6.70652C12.264 6.74459 12.3545 6.80079 12.4316 6.8727L17.0025 11.139L14.4139 12.4828Z" fill="#5F6B73" stroke="#5F6B73" stroke-width="0.5"/>
</svg>
