<svg width="18" height="21" viewBox="0 0 18 21" fill="none" xmlns="http://www.w3.org/2000/svg">
<path fill-rule="evenodd" clip-rule="evenodd" d="M14.8334 6.13888H12.8889C12.8889 5.10748 12.4792 4.11832 11.7499 3.38902C11.0206 2.65971 10.0315 2.24999 9.00006 2.24999C7.96866 2.24999 6.8127 2.65971 6.08339 3.38902C5.35409 4.11832 5.11117 5.10748 5.11117 6.13888V8.08333H14.8334C15.6069 8.08333 16.3488 8.50857 16.8958 9.05555C17.4428 9.60253 17.7501 10.2264 17.7501 11V17.8055C17.7501 18.5791 17.4428 19.321 16.8958 19.8679C16.3488 20.4149 15.6069 20.7222 14.8334 20.7222H3.16673C2.39318 20.7222 1.65131 20.4149 1.10433 19.8679C0.557352 19.321 0.250061 18.5791 0.250061 17.8055V11C0.250061 10.2264 0.557352 9.60253 1.10433 9.05555C1.65131 8.50857 2.39318 8.08333 3.16673 8.08333V6.13888C3.16673 4.59178 3.78131 3.10805 4.87527 2.01409C5.96923 0.920124 7.45296 0.305542 9.00006 0.305542C10.5472 0.305542 12.0309 0.920124 13.1249 2.01409C14.2188 3.10805 14.8334 4.59178 14.8334 6.13888ZM14.8334 10.0278H3.16673C2.90888 10.0278 2.66159 10.1302 2.47926 10.3125C2.29694 10.4949 2.19451 10.7421 2.19451 11V17.8055C2.19451 18.0634 2.29694 18.3107 2.47926 18.493C2.66159 18.6753 2.90888 18.7778 3.16673 18.7778H14.8334C15.0912 18.7778 15.3385 18.6753 15.5209 18.493C15.7032 18.3107 15.8056 18.0634 15.8056 17.8055V11C15.8056 10.7421 15.7032 10.4949 15.5209 10.3125C15.3385 10.1302 15.0912 10.0278 14.8334 10.0278Z" fill="#448ADD"/>
</svg>
