<svg width="12" height="13" viewBox="0 0 12 13" fill="none" xmlns="http://www.w3.org/2000/svg">
<path fill-rule="evenodd" clip-rule="evenodd" d="M9.35355 3.5732C9.54882 3.76847 9.54882 4.08505 9.35355 4.28031L3.35355 10.2803C3.15829 10.4756 2.84171 10.4756 2.64645 10.2803C2.45118 10.085 2.45118 9.76847 2.64645 9.5732L8.64645 3.5732C8.84171 3.37794 9.15829 3.37794 9.35355 3.5732Z" fill="#225999"/>
<path fill-rule="evenodd" clip-rule="evenodd" d="M2.64645 3.5732C2.84171 3.37794 3.15829 3.37794 3.35355 3.5732L9.35355 9.5732C9.54882 9.76847 9.54882 10.085 9.35355 10.2803C9.15829 10.4756 8.84171 10.4756 8.64645 10.2803L2.64645 4.28031C2.45118 4.08505 2.45118 3.76847 2.64645 3.5732Z" fill="#225999"/>
</svg>
