<svg width="16" height="16" viewBox="0 0 16 16" fill="none" xmlns="http://www.w3.org/2000/svg">
<path d="M13.559 7.10173L13.3595 7.21721L11.7003 8.17789L11.7 8.17808C11.2321 8.44808 10.6229 8.29891 10.347 7.83208C10.347 7.83207 10.347 7.83206 10.347 7.83205C10.347 7.832 10.3469 7.83196 10.3469 7.83191L8.4793 4.67557L8.36834 4.48804L8.53895 4.35251C8.7308 4.20011 8.85008 3.97729 8.85008 3.72925C8.85008 3.28883 8.47755 2.91675 8.00008 2.91675C7.52262 2.91675 7.15008 3.28883 7.15008 3.72925C7.15008 3.97729 7.26936 4.20011 7.46121 4.35251L7.63182 4.48804L7.52086 4.67557L5.65325 7.83191C5.65323 7.83196 5.6532 7.832 5.65317 7.83205C5.65317 7.83206 5.65316 7.83207 5.65315 7.83208C5.37743 8.29868 4.76576 8.4484 4.29968 8.17781L13.559 7.10173ZM13.559 7.10173L13.46 6.89356C13.4104 6.78914 13.3834 6.67952 13.3834 6.56258C13.3834 6.12217 13.7559 5.75008 14.2334 5.75008C14.7109 5.75008 15.0834 6.12217 15.0834 6.56258C15.0834 7.003 14.7109 7.37508 14.2334 7.37508C14.1957 7.37508 14.1542 7.36943 14.0951 7.36031L13.8966 7.32962L13.8239 7.51689L12.229 11.6251H3.7712L2.17626 7.51689L2.10355 7.32962L1.90502 7.36031C1.84598 7.36943 1.80444 7.37508 1.76675 7.37508C1.28928 7.37508 0.916748 7.003 0.916748 6.56258C0.916748 6.12283 1.29089 5.75008 1.76904 5.75008C2.2465 5.75008 2.61904 6.12217 2.61904 6.56258C2.61904 6.67801 2.59045 6.79042 2.54159 6.89529L2.44506 7.10248L2.64281 7.21714L4.29952 8.17772L13.559 7.10173ZM3.11675 12.9376C3.11675 12.889 3.16157 12.8334 3.23341 12.8334H12.7667C12.8386 12.8334 12.8834 12.889 12.8834 12.9376V13.6459C12.8834 13.6945 12.8386 13.7501 12.7667 13.7501H3.23341C3.16157 13.7501 3.11675 13.6945 3.11675 13.6459V12.9376Z" fill="#448ADD" stroke="#448ADD" stroke-width="0.5"/>
</svg>
