<svg width="16" height="17" viewBox="0 0 16 17" fill="none" xmlns="http://www.w3.org/2000/svg">
<path fill-rule="evenodd" clip-rule="evenodd" d="M3.33333 5.16668C3.15652 5.16668 2.98695 5.23691 2.86192 5.36194C2.7369 5.48696 2.66666 5.65653 2.66666 5.83334V13.1667C2.66666 13.3435 2.7369 13.5131 2.86192 13.6381C2.98695 13.7631 3.15652 13.8333 3.33333 13.8333H10.6667C10.8435 13.8333 11.013 13.7631 11.1381 13.6381C11.2631 13.5131 11.3333 13.3435 11.3333 13.1667V9.16668C11.3333 8.79849 11.6318 8.50001 12 8.50001C12.3682 8.50001 12.6667 8.79849 12.6667 9.16668V13.1667C12.6667 13.6971 12.4559 14.2058 12.0809 14.5809C11.7058 14.956 11.1971 15.1667 10.6667 15.1667H3.33333C2.8029 15.1667 2.29419 14.956 1.91911 14.5809C1.54404 14.2058 1.33333 13.6971 1.33333 13.1667V5.83334C1.33333 5.30291 1.54404 4.7942 1.91911 4.41913C2.29419 4.04406 2.8029 3.83334 3.33333 3.83334H7.33333C7.70152 3.83334 8 4.13182 8 4.50001C8 4.8682 7.70152 5.16668 7.33333 5.16668H3.33333Z" fill="#448ADD"/>
<path fill-rule="evenodd" clip-rule="evenodd" d="M9.33333 2.50001C9.33333 2.13182 9.63181 1.83334 9.99999 1.83334H14C14.3682 1.83334 14.6667 2.13182 14.6667 2.50001V6.50001C14.6667 6.8682 14.3682 7.16668 14 7.16668C13.6318 7.16668 13.3333 6.8682 13.3333 6.50001V3.16668H9.99999C9.63181 3.16668 9.33333 2.8682 9.33333 2.50001Z" fill="#448ADD"/>
<path fill-rule="evenodd" clip-rule="evenodd" d="M14.4714 2.02861C14.7318 2.28896 14.7318 2.71107 14.4714 2.97141L7.13807 10.3047C6.87772 10.5651 6.45561 10.5651 6.19526 10.3047C5.93491 10.0444 5.93491 9.62229 6.19526 9.36194L13.5286 2.02861C13.7889 1.76826 14.2111 1.76826 14.4714 2.02861Z" fill="#448ADD"/>
</svg>
