<svg width="21" height="21" viewBox="0 0 21 21" fill="none" xmlns="http://www.w3.org/2000/svg">
<path d="M10.5757 0.483154C5.05205 0.483154 0.575195 4.96 0.575195 10.4826C0.575059 11.796 0.833636 13.0964 1.33616 14.3098C1.83869 15.5232 2.57531 16.6257 3.50398 17.5544C4.43264 18.483 5.53514 19.2197 6.74852 19.7222C7.9619 20.2247 9.26239 20.4833 10.5757 20.4832C16.0973 20.4832 20.5752 16.0063 20.5752 10.4826C20.5752 4.96 16.0973 0.483154 10.5757 0.483154ZM11.509 4.09338C12.484 4.09338 12.7704 4.65898 12.7704 5.30582C12.7704 6.11307 12.1246 6.85991 11.0215 6.85991C10.0987 6.85991 9.6591 6.39639 9.68618 5.62872C9.68618 4.98188 10.2268 4.09338 11.509 4.09338ZM9.01122 16.4719C8.34458 16.4719 7.85815 16.0667 8.32375 14.2908L9.08725 11.1399C9.21954 10.6357 9.24141 10.4337 9.08725 10.4337C8.8883 10.4337 8.02272 10.7816 7.51233 11.1253L7.18006 10.5805C8.79977 9.22749 10.6622 8.43378 11.459 8.43378C12.1256 8.43378 12.236 9.22124 11.9038 10.4337L11.0288 13.746C10.8736 14.3314 10.9403 14.5335 11.0955 14.5335C11.2955 14.5335 11.9496 14.2918 12.5933 13.7845L12.9704 14.2908C11.3944 15.8657 9.67681 16.4719 9.01122 16.4719Z" fill="#B7C3CB"/>
</svg>
