<svg width="16" height="15" viewBox="0 0 16 15" fill="none" xmlns="http://www.w3.org/2000/svg">
<path d="M6.40514 0.666429V0.666652V3.34799V3.58681L6.64372 3.59772C10.3519 3.76738 12.5302 5.38151 13.7388 7.45967C14.9945 9.61865 15.1666 12.2154 15.0541 14.0258L15.0541 14.0258C15.0478 14.1274 15.0047 14.2231 14.933 14.2949C14.8614 14.3666 14.766 14.4096 14.6651 14.4159C14.5641 14.4221 14.4643 14.3911 14.3844 14.3287C14.3046 14.2665 14.2502 14.1771 14.2314 14.0773C14.2314 14.0771 14.2313 14.0769 14.2313 14.0767L14.191 13.8549L14.1909 13.8546L14.1882 13.8394C14.0332 12.9804 13.8698 12.0745 12.9798 11.3121C12.05 10.5155 10.2591 9.83178 6.66036 9.75671L6.40514 9.75138V10.0067V12.6667V12.6669C6.40522 12.7539 6.37814 12.8387 6.32776 12.9094C6.27739 12.9802 6.20627 13.0333 6.1244 13.0614C6.04254 13.0896 5.95396 13.0913 5.87105 13.0665C5.78812 13.0417 5.71493 12.9915 5.66177 12.9229L5.66161 12.9227L1.00399 6.92269L1.00398 6.92267C0.947197 6.84953 0.916321 6.75944 0.916321 6.66665C0.916321 6.57386 0.947197 6.48377 1.00398 6.41063L1.00399 6.41062L5.66161 0.410618L5.66177 0.41041C5.71493 0.341772 5.78812 0.291582 5.87105 0.266772C5.95396 0.241963 6.04254 0.243749 6.1244 0.271883C6.20627 0.300019 6.27739 0.353127 6.32776 0.423863C6.37814 0.494605 6.40522 0.579417 6.40514 0.666429ZM6.65514 3.34799V0.666652L13.955 7.33399C12.7014 5.17865 10.4438 3.52132 6.65514 3.34799Z" fill="#448ADD" stroke="#448ADD" stroke-width="0.5"/>
</svg>
