<svg width="22" height="19" viewBox="0 0 22 19" fill="none" xmlns="http://www.w3.org/2000/svg">
<path d="M21.2344 9.89377L17.3344 8.30686C17.1956 8.25043 16.9079 8.17638 16.5829 8.30686L12.6829 9.89377C12.3206 10.0419 12.0837 10.3875 12.0837 10.7719C12.0837 14.7074 14.4094 17.4298 16.5829 18.315C16.9079 18.4455 17.1923 18.3714 17.3344 18.315C19.0712 17.6097 21.8337 15.1623 21.8337 10.7719C21.8337 10.3875 21.5967 10.0419 21.2344 9.89377ZM16.9587 16.6399V9.97135L20.1917 11.2867C20.0021 14.3583 18.13 16.0616 16.9587 16.6399ZM7.75033 9.36127C10.1438 9.36127 12.0837 7.3406 12.0837 4.84738C12.0837 2.35417 10.1438 0.333496 7.75033 0.333496C5.35684 0.333496 3.41699 2.35417 3.41699 4.84738C3.41699 7.3406 5.35684 9.36127 7.75033 9.36127ZM11.0003 10.7719C11.0003 10.6837 11.0274 10.6026 11.0376 10.518C10.9529 10.5144 10.8717 10.4897 10.7837 10.4897H10.2183C9.46673 10.8494 8.63053 11.054 7.75033 11.054C6.87012 11.054 6.0373 10.8494 5.28236 10.4897H4.71699C2.20501 10.4897 0.166992 12.6127 0.166992 15.2293V16.6963C0.166992 17.6309 0.894857 18.3891 1.79199 18.3891H13.7087C13.9389 18.3891 14.1589 18.3362 14.3587 18.248C12.5305 16.7351 11.0003 14.1326 11.0003 10.7719Z" fill="#5F6B73"/>
</svg>
