<svg width="21" height="21" viewBox="0 0 21 21" fill="none" xmlns="http://www.w3.org/2000/svg">
<path d="M13.8283 6.61219C13.2436 3.01138 11.8646 0.483154 10.2598 0.483154C8.65493 0.483154 7.27589 3.01138 6.69122 6.61219H13.8283ZM6.3888 10.4832C6.3888 11.3783 6.43718 12.2372 6.52186 13.0638H13.9936C14.0783 12.2372 14.1267 11.3783 14.1267 10.4832C14.1267 9.58799 14.0783 8.72912 13.9936 7.90251H6.52186C6.43718 8.72912 6.3888 9.58799 6.3888 10.4832ZM19.4815 6.61219C18.3283 3.87428 15.9936 1.75735 13.1106 0.902509C14.0944 2.26541 14.7719 4.31783 15.1267 6.61219H19.4815ZM7.40493 0.902509C4.52589 1.75735 2.18718 3.87428 1.03799 6.61219H5.39283C5.74364 4.31783 6.42106 2.26541 7.40493 0.902509ZM19.913 7.90251H15.288C15.3727 8.74928 15.4211 9.61622 15.4211 10.4832C15.4211 11.3501 15.3727 12.217 15.288 13.0638H19.909C20.1307 12.2372 20.2557 11.3783 20.2557 10.4832C20.2557 9.58799 20.1307 8.72912 19.913 7.90251ZM5.09847 10.4832C5.09847 9.61622 5.14686 8.74928 5.23154 7.90251H0.60654C0.388798 8.72912 0.259766 9.58799 0.259766 10.4832C0.259766 11.3783 0.388798 12.2372 0.60654 13.0638H5.22751C5.14686 12.217 5.09847 11.3501 5.09847 10.4832ZM6.69122 14.3541C7.27589 17.9549 8.65493 20.4832 10.2598 20.4832C11.8646 20.4832 13.2436 17.9549 13.8283 14.3541H6.69122ZM13.1146 20.0638C15.9936 19.209 18.3323 17.092 19.4856 14.3541H15.1307C14.7759 16.6485 14.0985 18.7009 13.1146 20.0638ZM1.03799 14.3541C2.19122 17.092 4.52589 19.209 7.40896 20.0638C6.42509 18.7009 5.74767 16.6485 5.39283 14.3541H1.03799Z" fill="#B7C3CB"/>
</svg>
