<svg width="40" height="32" viewBox="0 0 40 32" fill="none" xmlns="http://www.w3.org/2000/svg">
<path d="M32.0916 3.64931V30.2637C32.0916 31.8876 31.7129 32.4963 28.6678 31.5537L16.0456 26.6235L3.42348 31.5537C0.391143 32.4963 -0.000327431 31.8895 -0.000327431 30.2637V3.64931C-0.000327431 2.68145 0.42231 1.75323 1.17461 1.06886C1.92691 0.384479 2.94725 0 4.01117 0H28.0801C29.144 0 35.3008 0 35.3008 0C35.3008 0 32.0916 2.68145 32.0916 3.64931Z" fill="url(#paint0_linear_13358_6929)"/>
<path d="M39.1523 3.52369C39.1523 1.57761 37.5747 0 35.6287 0V0C33.6826 0 32.105 1.57761 32.105 3.52369V3.91521H39.1523V3.52369Z" fill="#FAAC51"/>
<path d="M8.212 12.188C8.116 12.596 7.924 13.148 7.768 13.508L8.56 13.676H6.208L6.808 13.508C6.76 13.148 6.604 12.596 6.4 12.188H8.212ZM8.056 16.976H10.036V15.776H8.056V14.852H10.144V13.676H8.932C9.1 13.316 9.292 12.836 9.508 12.32L8.812 12.188H10.048V11.024H8.056V9.932H6.676V11.024H4.66V12.188H6.004L5.272 12.356C5.44 12.764 5.584 13.28 5.632 13.676H4.528V14.852H6.676V15.776H4.564V16.976H6.388C5.836 17.876 5.008 18.776 4.228 19.292C4.528 19.52 4.936 19.988 5.152 20.3C5.668 19.88 6.208 19.28 6.676 18.608V21.02H8.056V18.464C8.404 18.8 8.74 19.16 8.932 19.4L9.76 18.38C9.484 18.164 8.488 17.372 8.056 17.072V16.976ZM15.592 13.784H11.848V12.104C13.108 11.84 14.476 11.468 15.532 11L14.392 9.956C13.66 10.352 12.472 10.736 11.332 11.012L10.504 10.784V14.936C10.504 16.592 10.36 18.632 8.98 20.096C9.304 20.264 9.82 20.756 10 21.068C11.584 19.424 11.836 16.892 11.848 15.104H13.072V20.972H14.452V15.104H15.592V13.784ZM24.772 16.772V17.204H20.584V16.772H24.772ZM20.584 19.664V19.22H24.772V19.664H20.584ZM24.772 18.428H20.584V17.996H24.772V18.428ZM27.292 15.284V14.168H22.708V13.652H26.188V12.62H22.708V12.116H26.812V11.012H24.772C24.976 10.772 25.204 10.496 25.444 10.184L23.884 9.812C23.764 10.148 23.488 10.64 23.26 10.988L23.344 11.012H20.704L20.764 10.988C20.632 10.64 20.308 10.16 19.996 9.812L18.736 10.208C18.928 10.448 19.108 10.736 19.252 11.012H17.248V12.116H21.256V12.62H17.848V13.652H21.256V14.168H16.708V15.284H19.012C18.424 16.664 17.452 17.864 16.264 18.608C16.576 18.848 17.104 19.388 17.332 19.676C17.992 19.184 18.616 18.56 19.156 17.84V21.02H20.584V20.672H24.772V21.02H26.26V15.764H20.356C20.428 15.608 20.488 15.452 20.548 15.284H27.292Z" fill="#FCFCFC"/>
<defs>
<linearGradient id="paint0_linear_13358_6929" x1="10.3472" y1="40.5" x2="33.7241" y2="-2.277" gradientUnits="userSpaceOnUse">
<stop offset="0.365644" stop-color="#FF9E44" stop-opacity="0.9"/>
<stop offset="0.748056" stop-color="#F5C139" stop-opacity="0.9"/>
<stop offset="0.99713" stop-color="#FEE692"/>
</linearGradient>
</defs>
</svg>
