<svg width="20" height="17" viewBox="0 0 20 17" fill="none" xmlns="http://www.w3.org/2000/svg">
<path d="M14.8353 8C13.7613 8 12.7829 8.4053 12.0445 9.07143C11.6482 9.4289 11.321 9.8615 11.0853 10.3469C10.9601 10.6046 10.8607 10.8772 10.7904 11.1614C10.7108 11.4833 10.6686 11.82 10.6686 12.1667C10.6686 13.5304 11.3221 14.7401 12.3334 15.5C13.0299 16.0233 13.8961 16.3333 14.8353 16.3333C17.1382 16.3333 19.0019 14.4696 19.0019 12.1667C19.0019 9.86372 17.1382 8 14.8353 8ZM16.6871 12.3487C16.6871 12.5032 16.5607 12.6296 16.4062 12.6296H14.6536C14.499 12.6296 14.3726 12.5032 14.3726 12.3487V10.1331C14.3726 9.97859 14.499 9.85214 14.6536 9.85214H15.0173C15.1718 9.85214 15.2982 9.97859 15.2982 10.1331V11.7037H16.4062C16.5607 11.7037 16.6871 11.8301 16.6871 11.9847V12.3487Z" fill="#1F8D5F"/>
<path fill-rule="evenodd" clip-rule="evenodd" d="M10.7904 11.1614C10.8607 10.8772 10.9601 10.6046 11.0853 10.3469C11.321 9.8615 11.6482 9.4289 12.0445 9.07143C12.7829 8.4053 13.7613 8 14.8353 8C17.1382 8 19.0019 9.86372 19.0019 12.1667C19.0019 14.4696 17.1382 16.3333 14.8353 16.3333C13.8961 16.3333 13.0299 16.0233 12.3334 15.5C11.3221 14.7401 10.6686 13.5304 10.6686 12.1667C10.6686 11.82 10.7108 11.4833 10.7904 11.1614ZM7.43944 11.2143H9.92587C9.86641 11.5226 9.83528 11.841 9.83528 12.1667C9.83528 13.4473 10.3167 14.6154 11.1084 15.5H2.23111C1.39778 15.5 0.66861 14.75 0.66861 13.8929V9.07143H6.91861V10.6786C6.91861 10.9746 7.15168 11.2143 7.43944 11.2143ZM17.3353 7.83558V5.32143C17.3353 4.46429 16.6061 3.71429 15.7728 3.71429H13.1686V2.10714C13.1686 1.25 12.4394 0.5 11.6061 0.5H6.39778C5.56444 0.5 4.83528 1.25 4.83528 2.10714V3.71429H2.23111C1.39778 3.71429 0.66861 4.46429 0.66861 5.32143V8H12.0704C12.8624 7.47346 13.813 7.16667 14.8353 7.16667C15.746 7.16667 16.5998 7.41015 17.3353 7.83558ZM6.91861 3.71429H11.0853V2.64286H6.91861V3.71429ZM16.4062 12.6296C16.5607 12.6296 16.6871 12.5032 16.6871 12.3487V11.9847C16.6871 11.8301 16.5607 11.7037 16.4062 11.7037H15.2982V10.1331C15.2982 9.97859 15.1718 9.85214 15.0173 9.85214H14.6536C14.499 9.85214 14.3726 9.97859 14.3726 10.1331V12.3487C14.3726 12.5032 14.499 12.6296 14.6536 12.6296H16.4062Z" fill="#1F8D5F"/>
</svg>
