<svg width="18" height="14" viewBox="0 0 18 14" fill="none" xmlns="http://www.w3.org/2000/svg">
<path d="M15.9445 0.833252H2.05564C1.28885 0.833252 0.666748 1.43314 0.666748 2.17254V11.994C0.666748 12.7334 1.28885 13.3333 2.05564 13.3333H15.9445C16.7113 13.3333 17.3334 12.7334 17.3334 11.994V2.17254C17.3334 1.43314 16.7113 0.833252 15.9445 0.833252ZM5.75934 3.51182C6.78075 3.51182 7.61119 4.3126 7.61119 5.29754C7.61119 6.28247 6.78075 7.08325 5.75934 7.08325C4.73793 7.08325 3.90749 6.28247 3.90749 5.29754C3.90749 4.3126 4.73793 3.51182 5.75934 3.51182ZM9.00008 10.119C9.00008 10.4147 8.71073 10.6547 8.35193 10.6547H3.16675C2.80795 10.6547 2.5186 10.4147 2.5186 10.119V9.58325C2.5186 8.69598 3.38955 7.97611 4.46304 7.97611H4.60772C4.96362 8.11841 5.35135 8.19932 5.75934 8.19932C6.16733 8.19932 6.55795 8.11841 6.91096 7.97611H7.05564C8.12913 7.97611 9.00008 8.69598 9.00008 9.58325V10.119ZM15.4816 8.64575C15.4816 8.76852 15.3774 8.86897 15.2501 8.86897H11.0834C10.9561 8.86897 10.8519 8.76852 10.8519 8.64575V8.19932C10.8519 8.07656 10.9561 7.97611 11.0834 7.97611H15.2501C15.3774 7.97611 15.4816 8.07656 15.4816 8.19932V8.64575ZM15.4816 6.86004C15.4816 6.98281 15.3774 7.08325 15.2501 7.08325H11.0834C10.9561 7.08325 10.8519 6.98281 10.8519 6.86004V6.41361C10.8519 6.29084 10.9561 6.1904 11.0834 6.1904H15.2501C15.3774 6.1904 15.4816 6.29084 15.4816 6.41361V6.86004ZM15.4816 5.07432C15.4816 5.19709 15.3774 5.29754 15.2501 5.29754H11.0834C10.9561 5.29754 10.8519 5.19709 10.8519 5.07432V4.6279C10.8519 4.50513 10.9561 4.40468 11.0834 4.40468H15.2501C15.3774 4.40468 15.4816 4.50513 15.4816 4.6279V5.07432Z" fill="#5F6B73"/>
</svg>
