<svg width="33" height="47" viewBox="0 0 33 47" fill="none" xmlns="http://www.w3.org/2000/svg">
<path d="M32.7866 0L32.7866 45.2637C32.7866 46.8876 32.3997 47.4963 29.2887 46.5537L16.3933 41.6235L3.49791 46.5537C0.399921 47.4963 -2.67029e-05 46.8895 -2.67029e-05 45.2637V0H32.7866Z" fill="url(#paint0_linear_13122_5322)"/>
<path d="M4.50167 29H6.27767V25.16H9.63767V29H11.4017V20.108H9.63767V23.612H6.27767V20.108H4.50167V29ZM17.1117 29.168C19.4637 29.168 21.0837 27.404 21.0837 24.524C21.0837 21.644 19.4637 19.952 17.1117 19.952C14.7597 19.952 13.1397 21.632 13.1397 24.524C13.1397 27.404 14.7597 29.168 17.1117 29.168ZM17.1117 27.632C15.7917 27.632 14.9517 26.42 14.9517 24.524C14.9517 22.616 15.7917 21.476 17.1117 21.476C18.4317 21.476 19.2717 22.616 19.2717 24.524C19.2717 26.42 18.4317 27.632 17.1117 27.632ZM24.2071 29H25.9831V21.596H28.5031V20.108H21.7111V21.596H24.2071V29Z" fill="#FCFCFC"/>
<defs>
<linearGradient id="paint0_linear_13122_5322" x1="-7.2335e-05" y1="47.1539" x2="18.6335" y2="-6.55865" gradientUnits="userSpaceOnUse">
<stop stop-color="#FF5252"/>
<stop offset="0.671875" stop-color="#FF7272"/>
<stop offset="1" stop-color="#FFA3A8"/>
</linearGradient>
</defs>
</svg>
