<svg width="13" height="18" viewBox="0 0 13 18" fill="none" xmlns="http://www.w3.org/2000/svg">
<path d="M11.2708 2.74984H8.66666C8.66666 1.60075 7.73242 0.666504 6.58333 0.666504C5.43424 0.666504 4.49999 1.60075 4.49999 2.74984H1.89583C1.0332 2.74984 0.333328 3.44971 0.333328 4.31234V15.7707C0.333328 16.6333 1.0332 17.3332 1.89583 17.3332H11.2708C12.1335 17.3332 12.8333 16.6333 12.8333 15.7707V4.31234C12.8333 3.44971 12.1335 2.74984 11.2708 2.74984ZM6.58333 1.96859C7.01627 1.96859 7.36458 2.31689 7.36458 2.74984C7.36458 3.18278 7.01627 3.53109 6.58333 3.53109C6.15039 3.53109 5.80208 3.18278 5.80208 2.74984C5.80208 2.31689 6.15039 1.96859 6.58333 1.96859ZM9.70833 11.8644C9.70833 12.0077 9.59114 12.1248 9.44791 12.1248H7.62499V13.9478C7.62499 14.091 7.50781 14.2082 7.36458 14.2082H5.80208C5.65885 14.2082 5.54166 14.091 5.54166 13.9478V12.1248H3.71874C3.57552 12.1248 3.45833 12.0077 3.45833 11.8644V10.3019C3.45833 10.1587 3.57552 10.0415 3.71874 10.0415H5.54166V8.21859C5.54166 8.07536 5.65885 7.95817 5.80208 7.95817H7.36458C7.50781 7.95817 7.62499 8.07536 7.62499 8.21859V10.0415H9.44791C9.59114 10.0415 9.70833 10.1587 9.70833 10.3019V11.8644ZM9.70833 5.61442C9.70833 5.75765 9.59114 5.87484 9.44791 5.87484H3.71874C3.57552 5.87484 3.45833 5.75765 3.45833 5.61442V5.09359C3.45833 4.95036 3.57552 4.83317 3.71874 4.83317H9.44791C9.59114 4.83317 9.70833 4.95036 9.70833 5.09359V5.61442Z" fill="#5F6B73"/>
</svg>
