<svg width="26" height="24" viewBox="0 0 26 24" fill="none" xmlns="http://www.w3.org/2000/svg">
<path d="M0.500009 10.1229C0.500459 8.09899 1.15567 6.12956 2.36772 4.50897C3.57977 2.88838 5.28356 1.70366 7.22445 1.13189C9.16533 0.560117 11.2391 0.631992 13.1358 1.33677C15.0324 2.04155 16.6502 3.34139 17.7472 5.04201C18.8442 6.74263 19.3615 8.7527 19.2219 10.7718C19.0824 12.7909 18.2933 14.7106 16.9727 16.244C15.6521 17.7774 13.8709 18.8421 11.8953 19.279C9.9197 19.7159 7.8558 19.5015 6.01207 18.6679C4.44005 19.0304 2.74682 19.3429 1.96831 19.4829C1.76935 19.5185 1.56473 19.505 1.37213 19.4438C1.17953 19.3825 1.00474 19.2752 0.862882 19.1312C0.72102 18.9872 0.616348 18.8108 0.557914 18.6173C0.49948 18.4237 0.489041 18.2189 0.527501 18.0204C0.674956 17.2579 1.00236 15.6229 1.37849 14.0917C0.798017 12.8493 0.498091 11.4943 0.500009 10.1229ZM8.17766 4.88166C7.62533 5.17666 7.19046 5.63542 6.86181 6.24416C6.75425 6.46164 6.73516 6.71235 6.80856 6.94361C6.88196 7.17487 7.04213 7.36866 7.25541 7.48423C7.46869 7.5998 7.71845 7.62816 7.9522 7.56335C8.18594 7.49853 8.38546 7.34558 8.50881 7.13667C8.6925 6.79917 8.8812 6.63167 9.06114 6.53666C9.24858 6.43542 9.50351 6.37417 9.87214 6.37417C10.1521 6.37417 10.4807 6.47291 10.7219 6.67166C10.9356 6.84666 11.1218 7.12667 11.1218 7.62292C11.1218 7.86667 11.028 7.97917 10.387 8.48291C9.82466 8.92542 8.93493 9.64292 8.93493 11.0604C8.93493 11.3091 9.03367 11.5475 9.20943 11.7233C9.3852 11.8991 9.62358 11.9979 9.87214 11.9979C10.1207 11.9979 10.3591 11.8991 10.5349 11.7233C10.7106 11.5475 10.8094 11.3091 10.8094 11.0604C10.8094 10.5979 11.0143 10.3742 11.5441 9.95667L11.6504 9.87541C12.134 9.50292 12.9962 8.84167 12.9962 7.62292C12.9962 6.56291 12.5576 5.75041 11.9115 5.22041C11.3333 4.75529 10.6141 4.50092 9.87214 4.49916C9.30357 4.49916 8.72 4.59166 8.17766 4.88166ZM11.1218 14.4979C11.1218 14.1664 10.9901 13.8485 10.7558 13.614C10.5214 13.3796 10.2036 13.2479 9.87214 13.2479C9.54072 13.2479 9.22288 13.3796 8.98853 13.614C8.75418 13.8485 8.62253 14.1664 8.62253 14.4979C8.62253 14.8294 8.75418 15.1474 8.98853 15.3818C9.22288 15.6162 9.54072 15.7479 9.87214 15.7479C10.2036 15.7479 10.5214 15.6162 10.7558 15.3818C10.9901 15.1474 11.1218 14.8294 11.1218 14.4979Z" fill="#5F6B73"/>
<path d="M9.74718 20.7479C11.4787 22.3581 13.7561 23.2515 16.1202 23.2479C17.4948 23.2479 18.8019 22.9517 19.9803 22.4179C21.5548 22.7804 23.2556 23.0929 24.0391 23.2304C24.2384 23.2656 24.4432 23.2516 24.6359 23.1897C24.8286 23.1278 25.0033 23.0199 25.1449 22.8752C25.2864 22.7305 25.3906 22.5535 25.4483 22.3594C25.506 22.1654 25.5156 21.9602 25.4761 21.7617C25.2169 20.449 24.9294 19.142 24.6139 17.8417C25.1695 16.6516 25.4691 15.3581 25.4932 14.0449C25.5173 12.7317 25.2653 11.4281 24.7537 10.2184C24.2421 9.00882 23.4822 7.92018 22.5232 7.02302C21.5642 6.12586 20.4275 5.44019 19.1868 5.01041C20.08 6.63789 20.5313 8.47109 20.4957 10.3274C20.4602 12.1836 19.9389 13.9982 18.984 15.5902C18.0291 17.1822 16.6738 18.4962 15.0531 19.4011C13.4325 20.3061 11.6031 20.7704 9.74718 20.7479Z" fill="#5F6B73"/>
</svg>
