<svg width="15" height="18" viewBox="0 0 15 18" fill="none" xmlns="http://www.w3.org/2000/svg">
<path fill-rule="evenodd" clip-rule="evenodd" d="M2.75 5.22508V7.12508H2.45312C1.90197 7.12508 1.37339 7.32943 0.983665 7.69317C0.593939 8.05691 0.375 8.55025 0.375 9.06467V15.4772C0.375 16.5478 1.306 17.4167 2.45312 17.4167H12.5469C13.098 17.4167 13.6266 17.2124 14.0163 16.8486C14.406 16.4849 14.625 15.9915 14.625 15.4772V9.06467C14.625 8.55025 14.406 8.05691 14.0163 7.69317C13.6266 7.32943 13.098 7.12508 12.5469 7.12508H12.25V5.22508C12.25 4.04928 11.7496 2.92165 10.8587 2.09024C9.96798 1.25883 8.75978 0.791748 7.5 0.791748C6.24022 0.791748 5.03204 1.25883 4.14124 2.09024C3.25045 2.92165 2.75 4.04928 2.75 5.22508ZM10.6667 7.12508V5.22508C10.6667 4.49021 10.3539 3.78543 9.79714 3.2658C9.2404 2.74617 8.28736 2.37508 7.5 2.37508C6.71264 2.37508 5.7596 2.74617 5.20286 3.2658C4.64611 3.78543 4.33333 4.49021 4.33333 5.22508V7.12508H10.6667Z" fill="#5F6B73"/>
</svg>
