<svg width="32" height="32" viewBox="0 0 32 32" fill="none" xmlns="http://www.w3.org/2000/svg">
<path d="M8.00004 2.66663C6.52004 2.66663 5.33337 3.85329 5.33337 5.33329V26.6666C5.33337 27.3739 5.61433 28.0521 6.11442 28.5522C6.61452 29.0523 7.2928 29.3333 8.00004 29.3333H13.3334V26.7866L16.12 24H8.00004V21.3333H18.7867L21.4534 18.6666H8.00004V16H24.12L26.6667 13.4533V10.6666L18.6667 2.66663H8.00004ZM17.3334 4.66663L24.6667 12H17.3334V4.66663ZM26.8667 17.3333C26.768 17.3311 26.6699 17.3489 26.5783 17.3856C26.4866 17.4222 26.4033 17.477 26.3334 17.5466L24.9734 18.9066L27.76 21.68L29.12 20.3333C29.4 20.04 29.4 19.56 29.12 19.28L27.3867 17.5466C27.3186 17.4783 27.2375 17.4242 27.1482 17.3875C27.0589 17.3509 26.9632 17.3325 26.8667 17.3333ZM24.1867 19.6933L16 27.8933V30.6666H18.7734L26.9734 22.4666L24.1867 19.6933Z" fill="url(#paint0_linear_8576_16432)"/>
<defs>
<linearGradient id="paint0_linear_8576_16432" x1="22.0084" y1="-2.88612" x2="9.05293" y2="27.7133" gradientUnits="userSpaceOnUse">
<stop stop-color="#7CBEFA"/>
<stop offset="1" stop-color="#626EDA"/>
</linearGradient>
</defs>
</svg>
