<svg width="29" height="24" viewBox="0 0 29 24" fill="none" xmlns="http://www.w3.org/2000/svg">
<path fill-rule="evenodd" clip-rule="evenodd" d="M27.6637 15.4639C28.0029 14.645 28.1775 13.7672 28.1775 12.8808C28.1775 11.0906 27.4663 9.37373 26.2004 8.10786C24.9346 6.84198 23.2177 6.13083 21.4275 6.13083C19.6373 6.13083 17.9204 6.84198 16.6545 8.10786C15.3886 9.37373 14.6775 11.0906 14.6775 12.8808C14.6775 13.7672 14.8521 14.645 15.1913 15.4639C15.5305 16.2829 16.0277 17.027 16.6545 17.6538C17.2813 18.2806 18.0254 18.7778 18.8444 19.117C19.6633 19.4562 20.5411 19.6308 21.4275 19.6308C22.3139 19.6308 23.1916 19.4562 24.0106 19.117C24.8295 18.7778 25.5737 18.2806 26.2004 17.6538C26.8272 17.027 27.3244 16.2829 27.6637 15.4639ZM19.9275 14.0703L20.3668 13.6308L22.166 11.8309L23.8965 10.0998C23.9662 10.0301 24.049 9.97478 24.1401 9.93704C24.2312 9.8993 24.3289 9.87988 24.4275 9.87988C24.5261 9.87988 24.6237 9.8993 24.7149 9.93704C24.806 9.97478 24.8887 10.0301 24.9585 10.0998C25.0282 10.1696 25.0835 10.2523 25.1213 10.3435C25.159 10.4346 25.1784 10.5322 25.1784 10.6308C25.1784 10.7294 25.159 10.8271 25.1213 10.9182C25.0835 11.0093 25.0282 11.0921 24.9585 11.1618L23.9895 12.1308L20.666 15.4543L20.4585 15.6618C20.3888 15.7317 20.306 15.7871 20.2149 15.8249C20.1238 15.8627 20.0261 15.8822 19.9275 15.8822C19.8288 15.8822 19.7311 15.8627 19.64 15.8249C19.5489 15.7871 19.4661 15.7317 19.3965 15.6618L17.8965 14.1618C17.8267 14.0921 17.7714 14.0093 17.7337 13.9182C17.696 13.8271 17.6765 13.7294 17.6765 13.6308C17.6765 13.5322 17.696 13.4346 17.7337 13.3435C17.7449 13.3165 17.7576 13.2902 17.7718 13.2648C17.8055 13.2044 17.8474 13.1489 17.8965 13.0998C17.9662 13.0301 18.049 12.9748 18.1401 12.937C18.2312 12.8993 18.3289 12.8799 18.4275 12.8799C18.5261 12.8799 18.6237 12.8993 18.7148 12.937C18.806 12.9748 18.8887 13.0301 18.9585 13.0998L19.4887 13.6308L19.9275 14.0703Z" fill="#B7C3CB"/>
<path fill-rule="evenodd" clip-rule="evenodd" d="M15.9622 20.9755V18.5616C16.6256 19.1985 17.3954 19.7142 18.2366 20.0855V23.25H0.0410156V15.2871H2.31547V20.9755H15.9622ZM4.10887 13.7178L13.9745 15.4576C13.7086 14.6898 13.563 13.8849 13.5433 13.0715L4.50349 11.4774L4.10887 13.7178ZM5.9671 7.45849L13.6062 11.8691C13.7076 11.0865 13.9257 10.3268 14.2503 9.61466L7.10432 5.48882L5.9671 7.45849ZM14.6775 12.4876C14.7242 11.6864 14.9131 10.9057 15.2298 10.1802C15.3738 9.85028 15.5443 9.53174 15.7399 9.22787C15.9982 8.82646 16.3003 8.45063 16.643 8.10786C16.8477 7.90326 17.064 7.71314 17.2906 7.53818C18.4658 6.63068 19.9152 6.13083 21.416 6.13083C23.2062 6.13083 24.9231 6.84199 26.189 8.10786C27.4549 9.37373 28.166 11.0906 28.166 12.8808C28.166 13.7673 27.9914 14.645 27.6522 15.4639C27.313 16.2829 26.8158 17.027 26.189 17.6538C25.5622 18.2806 24.8181 18.7778 23.9991 19.117C23.1802 19.4562 22.3024 19.6308 21.416 19.6308C20.5296 19.6308 19.6519 19.4562 18.8329 19.117C18.6293 19.0327 18.4303 18.9386 18.2366 18.8351C17.6512 18.5226 17.114 18.1248 16.643 17.6538C16.3952 17.406 16.1677 17.1399 15.9622 16.858C15.6478 16.4269 15.3849 15.9591 15.1798 15.4639C14.8406 14.645 14.666 13.7673 14.666 12.8808C14.666 12.7493 14.6699 12.6182 14.6775 12.4876ZM14.9878 8.33168L9.853 2.21247L11.5952 0.75L16.567 6.67574C16.3157 6.8721 16.0754 7.08453 15.8476 7.31236C15.5306 7.62935 15.2434 7.97057 14.9878 8.33168ZM4.0213 18.6988V16.4244H14.2563V18.6988H4.0213ZM18.7148 12.937C18.806 12.9748 18.8887 13.0301 18.9585 13.0998L19.4887 13.6308L19.9275 14.0703L20.3668 13.6308L22.166 11.8309L23.8965 10.0998C23.9662 10.0301 24.049 9.97478 24.1401 9.93704C24.2312 9.8993 24.3289 9.87988 24.4275 9.87988C24.5261 9.87988 24.6237 9.8993 24.7149 9.93704C24.806 9.97478 24.8887 10.0301 24.9585 10.0998C25.0282 10.1696 25.0835 10.2523 25.1213 10.3435C25.159 10.4346 25.1784 10.5322 25.1784 10.6308C25.1784 10.7294 25.159 10.8271 25.1213 10.9182C25.0835 11.0093 25.0282 11.0921 24.9585 11.1618L23.9895 12.1308L20.666 15.4543L20.4585 15.6618C20.3888 15.7317 20.306 15.7871 20.2149 15.8249C20.1238 15.8627 20.0261 15.8822 19.9275 15.8822C19.8288 15.8822 19.7311 15.8627 19.64 15.8249C19.5489 15.7871 19.4661 15.7317 19.3965 15.6618L17.8965 14.1618C17.8267 14.0921 17.7714 14.0093 17.7337 13.9182C17.696 13.8271 17.6765 13.7294 17.6765 13.6308C17.6765 13.5322 17.696 13.4346 17.7337 13.3435C17.7449 13.3165 17.7576 13.2902 17.7718 13.2648C17.8055 13.2044 17.8474 13.1489 17.8965 13.0998C17.9662 13.0301 18.049 12.9748 18.1401 12.937C18.2312 12.8993 18.3289 12.8799 18.4275 12.8799C18.5261 12.8799 18.6237 12.8993 18.7148 12.937Z" fill="#B7C3CB"/>
<path fill-rule="evenodd" clip-rule="evenodd" d="M27.6637 15.4639C28.0029 14.645 28.1775 13.7672 28.1775 12.8808C28.1775 11.0906 27.4663 9.37373 26.2004 8.10786C24.9346 6.84198 23.2177 6.13083 21.4275 6.13083C19.6373 6.13083 17.9204 6.84198 16.6545 8.10786C15.3886 9.37373 14.6775 11.0906 14.6775 12.8808C14.6775 13.7672 14.8521 14.645 15.1913 15.4639C15.5305 16.2829 16.0277 17.027 16.6545 17.6538C17.2813 18.2806 18.0254 18.7778 18.8444 19.117C19.6633 19.4562 20.5411 19.6308 21.4275 19.6308C22.3139 19.6308 23.1916 19.4562 24.0106 19.117C24.8295 18.7778 25.5737 18.2806 26.2004 17.6538C26.8272 17.027 27.3244 16.2829 27.6637 15.4639ZM19.9275 14.0703L20.3668 13.6308L22.166 11.8309L23.8965 10.0998C23.9662 10.0301 24.049 9.97478 24.1401 9.93704C24.2312 9.8993 24.3289 9.87988 24.4275 9.87988C24.5261 9.87988 24.6237 9.8993 24.7149 9.93704C24.806 9.97478 24.8887 10.0301 24.9585 10.0998C25.0282 10.1696 25.0835 10.2523 25.1213 10.3435C25.159 10.4346 25.1784 10.5322 25.1784 10.6308C25.1784 10.7294 25.159 10.8271 25.1213 10.9182C25.0835 11.0093 25.0282 11.0921 24.9585 11.1618L23.9895 12.1308L20.666 15.4543L20.4585 15.6618C20.3888 15.7317 20.306 15.7871 20.2149 15.8249C20.1238 15.8627 20.0261 15.8822 19.9275 15.8822C19.8288 15.8822 19.7311 15.8627 19.64 15.8249C19.5489 15.7871 19.4661 15.7317 19.3965 15.6618L17.8965 14.1618C17.8267 14.0921 17.7714 14.0093 17.7337 13.9182C17.696 13.8271 17.6765 13.7294 17.6765 13.6308C17.6765 13.5322 17.696 13.4346 17.7337 13.3435C17.7449 13.3165 17.7576 13.2902 17.7718 13.2648C17.8055 13.2044 17.8474 13.1489 17.8965 13.0998C17.9662 13.0301 18.049 12.9748 18.1401 12.937C18.2312 12.8993 18.3289 12.8799 18.4275 12.8799C18.5261 12.8799 18.6237 12.8993 18.7148 12.937C18.806 12.9748 18.8887 13.0301 18.9585 13.0998L19.4887 13.6308L19.9275 14.0703Z" fill="#28A470"/>
</svg>
