<svg width="18" height="20" viewBox="0 0 21 25" fill="none" xmlns="http://www.w3.org/2000/svg">
<path d="M20.6274 6.66273L14.9762 0.412725C14.8572 0.283234 14.712 0.179637 14.5498 0.108594C14.3875 0.0375518 14.212 0.000637257 14.0344 0.00022497H3.85208C3.4292 -0.0047289 3.00946 0.072175 2.61684 0.226545C2.22423 0.380916 1.86641 0.609729 1.56384 0.899917C1.26127 1.19011 1.01987 1.53599 0.853421 1.91781C0.686972 2.29963 0.598735 2.70991 0.59375 3.12523V21.8752C0.598735 22.2905 0.686972 22.7008 0.853421 23.0826C1.01987 23.4645 1.26127 23.8103 1.56384 24.1005C1.86641 24.3907 2.22423 24.6195 2.61684 24.7739C3.00946 24.9283 3.4292 25.0052 3.85208 25.0002H17.7C18.1229 25.0052 18.5426 24.9283 18.9352 24.7739C19.3279 24.6195 19.6857 24.3907 19.9882 24.1005C20.2908 23.8103 20.5322 23.4645 20.6987 23.0826C20.8651 22.7008 20.9533 22.2905 20.9583 21.8752V7.50023C20.9575 7.19043 20.8396 6.89197 20.6274 6.66273ZM6.95768 12.5002H10.776C11.1136 12.5002 11.4373 12.6319 11.676 12.8663C11.9147 13.1008 12.0488 13.4187 12.0488 13.7502C12.0488 14.0817 11.9147 14.3997 11.676 14.6341C11.4373 14.8685 11.1136 15.0002 10.776 15.0002H6.95768C6.62012 15.0002 6.29638 14.8685 6.05769 14.6341C5.81899 14.3997 5.6849 14.0817 5.6849 13.7502C5.6849 13.4187 5.81899 13.1008 6.05769 12.8663C6.29638 12.6319 6.62012 12.5002 6.95768 12.5002ZM14.5944 20.0002H6.95768C6.62012 20.0002 6.29638 19.8685 6.05769 19.6341C5.81899 19.3997 5.6849 19.0817 5.6849 18.7502C5.6849 18.4187 5.81899 18.1008 6.05769 17.8663C6.29638 17.6319 6.62012 17.5002 6.95768 17.5002H14.5944C14.932 17.5002 15.2557 17.6319 15.4944 17.8663C15.7331 18.1008 15.8672 18.4187 15.8672 18.7502C15.8672 19.0817 15.7331 19.3997 15.4944 19.6341C15.2557 19.8685 14.932 20.0002 14.5944 20.0002ZM14.2253 7.50023C13.9629 7.47485 13.7212 7.34927 13.5521 7.15054C13.3831 6.9518 13.3003 6.69582 13.3216 6.43773V2.50023L18.0818 7.50023H14.2253Z" fill="#5F6B73"/>
</svg>
