<svg width="14" height="14" viewBox="0 0 14 14" fill="none" xmlns="http://www.w3.org/2000/svg">
<path d="M9.64779 6.57324L9.64781 6.57327L9.65083 6.57014C9.81781 6.39726 9.9102 6.16571 9.90811 5.92536C9.90603 5.68501 9.80962 5.4551 9.63966 5.28514C9.46971 5.11518 9.23979 5.01878 8.99945 5.01669C8.7591 5.0146 8.52755 5.107 8.35466 5.27397L8.35464 5.27395L8.35156 5.27702L6.33301 7.29558L5.64778 6.61035L5.64781 6.61033L5.64469 6.60731C5.4718 6.44033 5.24025 6.34794 4.9999 6.35002C4.75955 6.35211 4.52964 6.44852 4.35969 6.61847C4.18973 6.78843 4.09332 7.01834 4.09124 7.25869C4.08915 7.49904 4.18154 7.73059 4.34852 7.90347L4.34849 7.9035L4.35156 7.90657L5.6849 9.23991L5.68492 9.23993C5.85682 9.41178 6.08994 9.50832 6.33301 9.50832C6.57608 9.50832 6.80919 9.41178 6.98109 9.23993L6.98112 9.23991L9.64779 6.57324ZM0.583008 7.25846C0.583008 3.71453 3.45575 0.841797 6.99967 0.841797C10.5436 0.841797 13.4163 3.71453 13.4163 7.25846C13.4163 10.8024 10.5436 13.6751 6.99967 13.6751C3.45575 13.6751 0.583008 10.8024 0.583008 7.25846Z" fill="#448ADD" stroke="#448ADD" stroke-width="0.5"/>
</svg>
