<svg width="20" height="20" viewBox="0 0 20 20" fill="none" xmlns="http://www.w3.org/2000/svg">
<path fill-rule="evenodd" clip-rule="evenodd" d="M5 4.16667C5 4.60869 5.1756 5.03262 5.48816 5.34518C5.80072 5.65774 6.22464 5.83333 6.66667 5.83333C7.10869 5.83333 7.53262 5.65774 7.84518 5.34518C8.15774 5.03262 8.33333 4.60869 8.33333 4.16667C8.33333 3.72464 8.15774 3.30072 7.84518 2.98816C7.53262 2.67559 7.10869 2.5 6.66667 2.5C6.22464 2.5 5.80072 2.67559 5.48816 2.98816C5.1756 3.30072 5 3.72464 5 4.16667ZM5 10C5 10.442 5.1756 10.866 5.48816 11.1785C5.80072 11.4911 6.22464 11.6667 6.66667 11.6667C7.10869 11.6667 7.53262 11.4911 7.84518 11.1785C8.15774 10.866 8.33333 10.442 8.33333 10C8.33333 9.55797 8.15774 9.13405 7.84518 8.82149C7.53262 8.50893 7.10869 8.33333 6.66667 8.33333C6.22464 8.33333 5.80072 8.50893 5.48816 8.82149C5.1756 9.13405 5 9.55797 5 10ZM5 15.8333C5 16.2754 5.1756 16.6993 5.48816 17.0118C5.80072 17.3244 6.22464 17.5 6.66667 17.5C7.10869 17.5 7.53262 17.3244 7.84518 17.0118C8.15774 16.6993 8.33333 16.2754 8.33333 15.8333C8.33333 15.3913 8.15774 14.9674 7.84518 14.6548C7.53262 14.3423 7.10869 14.1667 6.66667 14.1667C6.22464 14.1667 5.80072 14.3423 5.48816 14.6548C5.1756 14.9674 5 15.3913 5 15.8333Z" fill="#99A5AE"/>
<path fill-rule="evenodd" clip-rule="evenodd" d="M12.5 4.16667C12.5 4.60869 12.6756 5.03262 12.9882 5.34518C13.3007 5.65774 13.7246 5.83333 14.1667 5.83333C14.6087 5.83333 15.0326 5.65774 15.3452 5.34518C15.6577 5.03262 15.8333 4.60869 15.8333 4.16667C15.8333 3.72464 15.6577 3.30072 15.3452 2.98816C15.0326 2.67559 14.6087 2.5 14.1667 2.5C13.7246 2.5 13.3007 2.67559 12.9882 2.98816C12.6756 3.30072 12.5 3.72464 12.5 4.16667ZM12.5 10C12.5 10.442 12.6756 10.866 12.9882 11.1785C13.3007 11.4911 13.7246 11.6667 14.1667 11.6667C14.6087 11.6667 15.0326 11.4911 15.3452 11.1785C15.6577 10.866 15.8333 10.442 15.8333 10C15.8333 9.55797 15.6577 9.13405 15.3452 8.82149C15.0326 8.50893 14.6087 8.33333 14.1667 8.33333C13.7246 8.33333 13.3007 8.50893 12.9882 8.82149C12.6756 9.13405 12.5 9.55797 12.5 10ZM12.5 15.8333C12.5 16.2754 12.6756 16.6993 12.9882 17.0118C13.3007 17.3244 13.7246 17.5 14.1667 17.5C14.6087 17.5 15.0326 17.3244 15.3452 17.0118C15.6577 16.6993 15.8333 16.2754 15.8333 15.8333C15.8333 15.3913 15.6577 14.9674 15.3452 14.6548C15.0326 14.3423 14.6087 14.1667 14.1667 14.1667C13.7246 14.1667 13.3007 14.3423 12.9882 14.6548C12.6756 14.9674 12.5 15.3913 12.5 15.8333Z" fill="#99A5AE"/>
</svg>
