<svg width="18" height="19" viewBox="0 0 18 19" fill="none" xmlns="http://www.w3.org/2000/svg">
<path d="M15.75 7.88186C15.75 10.4448 13.6723 12.5225 11.1094 12.5225C10.8135 12.5225 10.5243 12.4945 10.2438 12.4415L9.61069 13.1538C9.55132 13.2206 9.47848 13.2741 9.39695 13.3107C9.31543 13.3473 9.22708 13.3662 9.13772 13.3662H8.15625V14.4209C8.15625 14.7704 7.87293 15.0537 7.52344 15.0537H6.46875V16.1084C6.46875 16.4579 6.18543 16.7412 5.83594 16.7412H2.88281C2.53332 16.7412 2.25 16.4579 2.25 16.1084V14.0502C2.25 13.8824 2.31668 13.7214 2.43533 13.6027L6.7016 9.33646C6.5507 8.87888 6.46875 8.38996 6.46875 7.88184C6.46875 5.31889 8.5464 3.24124 11.1093 3.24121C13.6799 3.24118 15.75 5.31133 15.75 7.88186ZM11.1094 6.61621C11.1094 7.31521 11.676 7.88184 12.375 7.88184C13.074 7.88184 13.6406 7.31521 13.6406 6.61621C13.6406 5.91722 13.074 5.35059 12.375 5.35059C11.676 5.35059 11.1094 5.91722 11.1094 6.61621Z" fill="#448ADD"/>
</svg>
