<svg width="18" height="21" viewBox="0 0 18 21" fill="none" xmlns="http://www.w3.org/2000/svg">
<path fill-rule="evenodd" clip-rule="evenodd" d="M4.24414 6.00773C2.70971 7.38096 1.74414 9.37658 1.74414 11.5978C1.74404 12.5827 1.93797 13.5581 2.31486 14.4682C2.69176 15.3782 3.24423 16.2051 3.94073 16.9016C4.63722 17.5981 5.4641 18.1505 6.37413 18.5274C7.28417 18.9043 8.25954 19.0982 9.24453 19.0981C10.9329 19.0981 12.4912 18.54 13.7448 17.5981C13.9171 17.4686 14.0837 17.3319 14.2441 17.1883C15.7784 15.815 16.7441 13.8193 16.7441 11.5978C16.7441 9.42494 15.82 7.46798 14.3434 6.09832H12.1235C11.9045 6.07802 11.7027 5.97756 11.5616 5.81857C11.4205 5.65959 11.3514 5.4548 11.3691 5.24832V4.40341C10.6955 4.20475 9.98245 4.09814 9.24453 4.09814C7.88061 4.09814 6.60179 4.46209 5.49987 5.09814H7.68164C7.8543 5.09814 7.99414 5.23799 7.99414 5.41064V6.03564C7.99414 6.2083 7.8543 6.34814 7.68164 6.34814H4.55664C4.38398 6.34814 4.24414 6.2083 4.24414 6.03564V6.00773ZM9.9445 6.80582C10.6757 6.80582 10.8905 7.23001 10.8905 7.71514C10.8905 8.2344 10.5343 8.72033 9.91092 8.84814C9.80746 8.86936 9.69665 8.88071 9.57889 8.88071C9.45531 8.88071 9.34329 8.86963 9.24276 8.84814C8.78018 8.7493 8.56069 8.43028 8.57738 7.95732C8.57738 7.47219 8.98283 6.80582 9.9445 6.80582ZM8.07116 16.0897C7.57118 16.0897 7.20636 15.7858 7.55556 14.4539L7.70233 13.8481L8.00522 12.5981L8.12818 12.0907C8.2274 11.7126 8.2438 11.561 8.12818 11.561C7.97897 11.561 7.32979 11.822 6.94699 12.0798L6.69779 11.6712C7.73638 10.8036 8.90803 10.2426 9.59953 10.0981C9.71683 10.0736 9.82032 10.0611 9.907 10.0611C9.9801 10.0611 10.0443 10.0737 10.0998 10.0981C10.4241 10.2406 10.4533 10.7847 10.2406 11.561L9.96662 12.5981L9.63643 13.8481L9.58436 14.0453C9.46796 14.4843 9.51795 14.6359 9.63435 14.6359C9.78435 14.6359 10.2749 14.4546 10.7577 14.0742L11.0405 14.4539C9.85856 15.635 8.57035 16.0897 8.07116 16.0897Z" fill="#4C93FD"/>
<path fill-rule="evenodd" clip-rule="evenodd" d="M17.4679 5.42832L12.7504 0.428324C12.6511 0.324732 12.5298 0.241854 12.3944 0.18502C12.259 0.128186 12.1124 0.0986543 11.9641 0.0983245H3.46414C3.11112 0.0943614 2.76074 0.155885 2.43298 0.279381C2.10523 0.402877 1.80654 0.585927 1.55396 0.818078C1.30138 1.05023 1.09986 1.32693 0.96091 1.63239C0.82196 1.93785 0.748302 2.26607 0.744141 2.59832V17.5983C0.748302 17.9306 0.82196 18.2588 0.96091 18.5643C1.09986 18.8697 1.30138 19.1464 1.55396 19.3786C1.80654 19.6107 2.10523 19.7938 2.43298 19.9173C2.76074 20.0408 3.11112 20.1023 3.46414 20.0983H15.0241C15.3772 20.1023 15.7275 20.0408 16.0553 19.9173C16.383 19.7938 16.6817 19.6107 16.9343 19.3786C17.1869 19.1464 17.3884 18.8697 17.5274 18.5643C17.6663 18.2588 17.74 17.9306 17.7441 17.5983V6.09832C17.7435 5.85049 17.645 5.61172 17.4679 5.42832ZM11.5616 5.81857C11.7027 5.97756 11.9045 6.07802 12.1235 6.09832H14.3434H15.3429L11.3691 2.09832V4.40341V5.24832C11.3514 5.4548 11.4205 5.65959 11.5616 5.81857ZM4.55664 2.59814C4.38398 2.59814 4.24414 2.73799 4.24414 2.91064V3.53564C4.24414 3.7083 4.38398 3.84814 4.55664 3.84814H7.68164C7.8543 3.84814 7.99414 3.7083 7.99414 3.53564V2.91064C7.99414 2.73799 7.8543 2.59814 7.68164 2.59814H4.55664ZM4.24414 5.41064C4.24414 5.23799 4.38398 5.09814 4.55664 5.09814H5.49987H7.68164C7.8543 5.09814 7.99414 5.23799 7.99414 5.41064V6.03564C7.99414 6.2083 7.8543 6.34814 7.68164 6.34814H4.55664C4.38398 6.34814 4.24414 6.2083 4.24414 6.03564V6.00773V5.41064ZM14.2441 13.2231V9.47314C14.2441 9.12783 13.9645 8.84814 13.6191 8.84814H9.91092C10.5343 8.72033 10.8905 8.2344 10.8905 7.71514C10.8905 7.23001 10.6757 6.80582 9.9445 6.80582C8.98283 6.80582 8.57738 7.47219 8.57738 7.95732C8.56069 8.43028 8.78018 8.7493 9.24276 8.84814H4.86914C4.52383 8.84814 4.24414 9.12783 4.24414 9.47314V13.2231C4.24414 13.5685 4.52383 13.8481 4.86914 13.8481H7.70233L7.55556 14.4539C7.20636 15.7858 7.57118 16.0897 8.07116 16.0897C8.57035 16.0897 9.85856 15.635 11.0405 14.4539L10.7577 14.0742C10.2749 14.4546 9.78435 14.6359 9.63435 14.6359C9.51795 14.6359 9.46796 14.4843 9.58436 14.0453L9.63643 13.8481H13.6191C13.9645 13.8481 14.2441 13.5685 14.2441 13.2231ZM12.9941 10.0981H10.0998C10.4241 10.2406 10.4533 10.7847 10.2406 11.561L9.96662 12.5981H12.9941V10.0981ZM6.69779 11.6712C7.73638 10.8036 8.90803 10.2426 9.59953 10.0981H5.49414V12.5981H8.00522L8.12818 12.0907C8.2274 11.7126 8.2438 11.561 8.12818 11.561C7.97897 11.561 7.32979 11.822 6.94699 12.0798L6.69779 11.6712ZM14.2441 17.2856C14.2441 17.4583 14.1043 17.5981 13.9316 17.5981H13.7448H10.8066C10.634 17.5981 10.4941 17.4583 10.4941 17.2856V16.6606C10.4941 16.488 10.634 16.3481 10.8066 16.3481H13.9316C14.1043 16.3481 14.2441 16.488 14.2441 16.6606V17.1883V17.2856Z" fill="#4C93FD"/>
<path d="M13.9316 17.5981C14.1043 17.5981 14.2441 17.4583 14.2441 17.2856V17.1883C14.0837 17.3319 13.9171 17.4686 13.7448 17.5981H13.9316Z" fill="#4C93FD"/>
<path d="M4.24414 2.91064C4.24414 2.73799 4.38398 2.59814 4.55664 2.59814H7.68164C7.8543 2.59814 7.99414 2.73799 7.99414 2.91064V3.53564C7.99414 3.7083 7.8543 3.84814 7.68164 3.84814H4.55664C4.38398 3.84814 4.24414 3.7083 4.24414 3.53564V2.91064Z" fill="#4C93FD"/>
<path d="M7.99414 5.41064C7.99414 5.23799 7.8543 5.09814 7.68164 5.09814H5.49987C5.04968 5.35801 4.62902 5.66329 4.24414 6.00773V6.03564C4.24414 6.2083 4.38398 6.34814 4.55664 6.34814H7.68164C7.8543 6.34814 7.99414 6.2083 7.99414 6.03564V5.41064Z" fill="#4C93FD"/>
<path d="M4.55664 5.09814C4.38398 5.09814 4.24414 5.23799 4.24414 5.41064V6.00773C4.62902 5.66329 5.04968 5.35801 5.49987 5.09814H4.55664Z" fill="#4C93FD"/>
</svg>
