<svg width="12" height="14" viewBox="0 0 12 14" fill="none" xmlns="http://www.w3.org/2000/svg">
<path d="M9.08333 1.66671V1.91671H9.33333H10.6667C11.2639 1.91671 11.75 2.40278 11.75 3.00004V12.3334C11.75 12.9306 11.2639 13.4167 10.6667 13.4167H1.33333C0.736071 13.4167 0.25 12.9306 0.25 12.3334V3.00004C0.25 2.40278 0.736071 1.91671 1.33333 1.91671H2.66667H2.91667V1.66671V0.583374H3.75V1.66671V1.91671H4H8H8.25V1.66671V0.583374H9.08333V1.66671ZM5.15656 11.4528L5.33333 11.6296L5.51011 11.4528L9.31478 7.64815L9.49155 7.47137L9.31478 7.2946L8.37211 6.35193L8.19533 6.17515L8.01856 6.35193L5.33333 9.03715L3.98144 7.68526L3.80467 7.50849L3.62789 7.68526L2.68522 8.62793L2.50845 8.80471L2.68522 8.98148L5.15656 11.4528ZM1.33333 3.41671H1.08333V3.66671V5.00004V5.25004H1.33333H10.6667H10.9167V5.00004V3.66671V3.41671H10.6667H1.33333Z" fill="#448ADD" stroke="#448ADD" stroke-width="0.5"/>
</svg>
