<svg width="46" height="46" viewBox="0 0 46 46" fill="none" xmlns="http://www.w3.org/2000/svg">
<path d="M0.582821 38.104L18.1207 3.01393C19.0449 1.167 20.933 0.000488281 22.9983 0.000488281C25.0636 0.000488281 26.9517 1.167 27.8759 3.01393L45.417 38.104C46.2622 39.7951 46.1719 41.8032 45.1782 43.4116C44.1845 45.0199 42.4291 45.9993 40.5386 46.0002H5.4612C3.57065 45.9993 1.81524 45.0199 0.82157 43.4116C-0.172102 41.8032 -0.262433 39.7951 0.582821 38.104Z" fill="#F0BA51"/>
<path d="M14.8504 16.6552L3.4202 39.5227C3.06619 40.2304 3.10383 41.071 3.51969 41.7442C3.93555 42.4174 4.67034 42.8274 5.46165 42.8276H40.5374C41.329 42.8275 42.064 42.4175 42.4799 41.744C42.8958 41.0705 42.9333 40.2297 42.5789 39.5219L25.0402 4.43425C24.654 3.66094 23.8639 3.17236 22.9995 3.17236C22.1352 3.17236 21.3451 3.66094 20.9589 4.43425L18.8143 8.72414L17.6247 11.1035L14.8504 16.6552Z" fill="#FFF3C4"/>
<path d="M24.624 27.5918L24.4194 29.7022C24.3861 30.052 24.0923 30.3191 23.741 30.3193H22.2566C21.9052 30.3191 21.6115 30.052 21.5781 29.7022L20.3439 16.7467C20.3257 16.5554 20.389 16.3652 20.5183 16.2231C20.6476 16.0809 20.8309 15.9999 21.023 16H24.9779C25.1705 15.9991 25.3546 16.0798 25.4845 16.2221C25.6144 16.3643 25.6781 16.5549 25.6598 16.7467L25.0133 23.5006L24.624 27.5918Z" fill="#2C3E50"/>
<path d="M23.0007 37.1381C24.1304 37.1381 25.0463 36.2222 25.0463 35.0925C25.0463 33.9627 24.1304 33.0469 23.0007 33.0469C21.8709 33.0469 20.9551 33.9627 20.9551 35.0925C20.9551 36.2222 21.8709 37.1381 23.0007 37.1381Z" fill="#2C3E50"/>
</svg>
