<svg width="12" height="13" viewBox="0 0 12 13" fill="none" xmlns="http://www.w3.org/2000/svg">
<path d="M5.5 9.75H5.25V10V10.5C5.25 10.5663 5.22366 10.6299 5.17678 10.6768C5.12989 10.7237 5.0663 10.75 5 10.75H4H3.75V11V11.5C3.75 11.6989 3.67098 11.8897 3.53033 12.0303C3.38968 12.171 3.19891 12.25 3 12.25H1C0.801088 12.25 0.610322 12.171 0.46967 12.0303C0.329018 11.8897 0.25 11.6989 0.25 11.5V10.2071C0.25 10.207 0.25 10.207 0.25 10.207C0.250057 10.0081 0.329101 9.81741 0.46975 9.6768L0.469788 9.67677L4.33879 5.80727L4.44377 5.70227L4.40181 5.55984C4.17925 4.80449 4.20013 3.99825 4.46147 3.25543C4.72282 2.51261 5.21137 1.87091 5.85786 1.42131C6.50434 0.971712 7.27596 0.737035 8.0633 0.750553C8.85064 0.764071 9.61374 1.0251 10.2444 1.49662C10.8751 1.96815 11.3413 2.62624 11.577 3.3776C11.8127 4.12895 11.8059 4.93544 11.5575 5.6827C11.3092 6.42997 10.8319 7.08009 10.1933 7.54089C9.55481 8.00168 8.78743 8.24977 8 8.25C7.99998 8.25 7.99996 8.25 7.99993 8.25H7H6.75V8.5V9.5C6.75 9.56631 6.72366 9.62989 6.67678 9.67678C6.62989 9.72366 6.5663 9.75 6.5 9.75H5.5ZM9 4.75C9.33152 4.75 9.64946 4.6183 9.88388 4.38388C10.1183 4.14946 10.25 3.83152 10.25 3.5C10.25 3.16848 10.1183 2.85054 9.88388 2.61612C9.64946 2.3817 9.33152 2.25 9 2.25C8.66848 2.25 8.35054 2.3817 8.11612 2.61612C7.8817 2.85054 7.75 3.16848 7.75 3.5C7.75 3.83152 7.8817 4.14946 8.11612 4.38388C8.35054 4.6183 8.66848 4.75 9 4.75Z" fill="#448ADD" stroke="#448ADD" stroke-width="0.5"/>
</svg>
