<svg width="28" height="28" viewBox="0 0 28 28" fill="none" xmlns="http://www.w3.org/2000/svg">
<path d="M27.0035 11.9735L24.0228 11.0846C23.8167 10.3658 23.5333 9.67136 23.1775 9.01351L24.6367 6.28463C24.6915 6.18163 24.7115 6.06373 24.6939 5.94844C24.6763 5.83315 24.6219 5.72661 24.5388 5.64464L22.4123 3.51131C22.3303 3.42835 22.2236 3.37404 22.1082 3.35642C21.9928 3.33881 21.8748 3.35884 21.7717 3.41354L19.058 4.86242C18.393 4.48967 17.6887 4.19157 16.9581 3.97353L16.0684 1.03133C16.0308 0.922897 15.9596 0.829194 15.8653 0.763703C15.771 0.698213 15.6583 0.664313 15.5434 0.666884H12.5361C12.4205 0.667422 12.3082 0.704781 12.2154 0.773526C12.1225 0.842272 12.0541 0.938814 12.02 1.0491L11.1303 3.98242C10.3935 4.19929 9.6833 4.49742 9.01264 4.87131L6.34338 3.43131C6.24027 3.37662 6.12226 3.35659 6.00686 3.3742C5.89145 3.39181 5.78481 3.44613 5.70275 3.52909L3.54065 5.63575C3.45761 5.71772 3.40324 5.82426 3.38561 5.93955C3.36798 6.05484 3.38803 6.17274 3.44278 6.27575L4.88418 8.9424C4.51054 9.60959 4.21213 10.3161 3.99443 11.0491L1.04934 11.9379C0.938944 11.972 0.842307 12.0404 0.773495 12.1331C0.704682 12.2258 0.667286 12.3381 0.666748 12.4535V15.4579C0.667286 15.5733 0.704682 15.6856 0.773495 15.7783C0.842307 15.871 0.938944 15.9394 1.04934 15.9735L4.01222 16.8624C4.2323 17.5831 4.53066 18.2776 4.90198 18.9335L3.44278 21.7246C3.38803 21.8276 3.36798 21.9455 3.38561 22.0607C3.40324 22.176 3.45761 22.2826 3.54065 22.3646L5.66716 24.489C5.74922 24.5719 5.85586 24.6263 5.97126 24.6439C6.08667 24.6615 6.20468 24.6415 6.30779 24.5868L9.05713 23.1201C9.70751 23.4707 10.3936 23.7508 11.1036 23.9557L11.9933 26.9512C12.0274 27.0615 12.0958 27.158 12.1887 27.2268C12.2815 27.2955 12.3938 27.3329 12.5094 27.3334H15.5167C15.6323 27.3329 15.7446 27.2955 15.8375 27.2268C15.9303 27.158 15.9987 27.0615 16.0328 26.9512L16.9226 23.9468C17.6265 23.7409 18.3065 23.4608 18.9512 23.1112L21.7183 24.5868C21.8214 24.6415 21.9394 24.6615 22.0548 24.6439C22.1702 24.6263 22.2769 24.5719 22.3589 24.489L24.4855 22.3646C24.5685 22.2826 24.6229 22.176 24.6405 22.0607C24.6581 21.9455 24.6381 21.8276 24.5833 21.7246L23.1063 18.969C23.4599 18.3225 23.7433 17.6401 23.9516 16.9335L26.9501 16.0446C27.0605 16.0105 27.1571 15.9422 27.2259 15.8494C27.2947 15.7567 27.3321 15.6445 27.3327 15.529V12.4979C27.3379 12.3874 27.3092 12.2779 27.2503 12.1842C27.1915 12.0904 27.1053 12.0169 27.0035 11.9735ZM14.0397 18.889C13.0719 18.889 12.1257 18.6023 11.321 18.0651C10.5162 17.5279 9.889 16.7644 9.51861 15.871C9.14822 14.9777 9.05131 13.9947 9.24013 13.0464C9.42895 12.098 9.89503 11.2269 10.5794 10.5432C11.2638 9.85948 12.1358 9.39386 13.085 9.20522C14.0343 9.01659 15.0183 9.1134 15.9125 9.48343C16.8067 9.85346 17.5709 10.4801 18.1087 11.284C18.6464 12.088 18.9334 13.0332 18.9334 14.0002C18.9334 15.2968 18.4178 16.5403 17.5001 17.4571C16.5823 18.3739 15.3376 18.889 14.0397 18.889Z" fill="url(#paint0_linear_7969_797)"/>
<defs>
<linearGradient id="paint0_linear_7969_797" x1="19.197" y1="-4.62158" x2="8.17783" y2="25.7463" gradientUnits="userSpaceOnUse">
<stop stop-color="#7CBEFA"/>
<stop offset="1" stop-color="#626EDA"/>
</linearGradient>
</defs>
</svg>
