<svg width="23" height="21" viewBox="0 0 23 21" fill="none" xmlns="http://www.w3.org/2000/svg">
<path fill-rule="evenodd" clip-rule="evenodd" d="M13.9441 5.3C13.9441 7.95124 11.7954 10.1 9.14414 10.1C6.49289 10.1 4.34414 7.95124 4.34414 5.3C4.34414 2.64875 6.49289 0.5 9.14414 0.5C11.7954 0.5 13.9441 2.64875 13.9441 5.3Z" fill="#448ADD"/>
<path d="M9.14414 11.9C8.16914 11.9 7.24664 11.6825 6.41039 11.3H5.78414C3.00164 11.3 0.744141 13.5575 0.744141 16.34V17.9C0.744141 18.8937 1.55039 19.7 2.54414 19.7H10.7441C8.18415 16.26 9.01081 13.0483 9.74414 11.8724C9.5465 11.8906 9.34637 11.9 9.14414 11.9Z" fill="#448ADD"/>
<path fill-rule="evenodd" clip-rule="evenodd" d="M15.6361 8.64314C15.9353 8.51115 16.2587 8.44299 16.5856 8.44299C16.9126 8.44299 17.236 8.51115 17.5352 8.64314C17.8343 8.77512 18.1027 8.96804 18.323 9.20961C18.4944 9.39767 18.7386 9.49877 18.9917 9.4867C19.3185 9.4714 19.6455 9.52438 19.9506 9.64234C20.2558 9.7603 20.5329 9.94061 20.7644 10.1718C20.9958 10.403 21.1764 10.6799 21.2946 10.985C21.4128 11.29 21.466 11.6164 21.4506 11.9431C21.4386 12.1943 21.5394 12.4395 21.7272 12.6108C22.7517 13.5426 22.7512 15.1511 21.7271 16.0832C21.5392 16.2546 21.4386 16.4981 21.4506 16.7501C21.4659 17.0769 21.4128 17.4039 21.2946 17.7089C21.1764 18.0139 20.9958 18.2909 20.7644 18.5221C20.5329 18.7533 20.2558 18.9336 19.9506 19.0515C19.6455 19.1695 19.3191 19.2225 18.9923 19.2072C18.8672 19.2013 18.7421 19.223 18.6264 19.2708C18.5107 19.3186 18.4071 19.3912 18.3228 19.4835C18.1025 19.7249 17.8342 19.9178 17.5352 20.0497C17.236 20.1817 16.9126 20.2499 16.5856 20.2499C16.2587 20.2499 15.9353 20.1817 15.6361 20.0497C15.3371 19.9178 15.0688 19.7249 14.8485 19.4835C14.7642 19.3912 14.6606 19.3186 14.5449 19.2708C14.4292 19.223 14.3044 19.2013 14.1793 19.2072C13.8525 19.2225 13.5258 19.1695 13.2207 19.0515C12.9155 18.9336 12.6384 18.7533 12.4069 18.5221C12.1755 18.2909 11.9949 18.0139 11.8767 17.7089C11.7585 17.4039 11.7053 17.0776 11.7207 16.7508C11.7265 16.6263 11.7047 16.5018 11.6569 16.3866C11.6091 16.2713 11.5364 16.1679 11.4439 16.0837C11.202 15.8637 11.0086 15.5953 10.8763 15.2963C10.7441 14.9973 10.6758 14.6739 10.6758 14.3469C10.6758 14.02 10.7441 13.6966 10.8763 13.3976C11.0086 13.0985 11.2018 12.8304 11.4436 12.6103C11.6319 12.4391 11.7327 12.1957 11.7207 11.9437C11.7054 11.617 11.7585 11.29 11.8767 10.985C11.9949 10.6799 12.1755 10.403 12.4069 10.1718C12.6384 9.94061 12.9155 9.7603 13.2207 9.64234C13.5258 9.52438 13.8522 9.47137 14.179 9.48668C14.4312 9.49872 14.6768 9.39776 14.848 9.20984C15.0684 8.96827 15.337 8.77512 15.6361 8.64314ZM16.2416 10.0155C16.35 9.9677 16.4671 9.94299 16.5856 9.94299C16.7042 9.94299 16.8213 9.9677 16.9297 10.0155C17.038 10.0633 17.135 10.133 17.2146 10.2203C17.6862 10.7375 18.3622 11.0182 19.0625 10.985C19.1808 10.9795 19.2993 10.9987 19.4098 11.0414C19.5203 11.0842 19.6206 11.1494 19.7043 11.2331C19.788 11.3167 19.8533 11.4168 19.896 11.5269C19.9386 11.6368 19.9577 11.7544 19.9523 11.8721L19.9523 12.0951C19.9817 12.7135 20.2552 13.2985 20.7165 13.7192C21.0869 14.0561 21.0876 14.6371 20.7172 14.974C20.2559 15.3947 19.9817 15.979 19.9523 16.5982C19.9488 16.6721 19.9487 16.7464 19.9523 16.8211C19.9578 16.9389 19.9386 17.0569 19.896 17.1669C19.8533 17.2771 19.788 17.3772 19.7043 17.4608C19.6206 17.5444 19.5203 17.6097 19.4098 17.6524C19.2992 17.6952 19.181 17.7144 19.0625 17.7088C18.7175 17.6926 18.373 17.7525 18.0538 17.8844C17.7344 18.0163 17.4478 18.2172 17.2148 18.4724C17.1352 18.5597 17.0381 18.6296 16.9297 18.6774C16.8213 18.7252 16.7042 18.7499 16.5856 18.7499C16.4671 18.7499 16.3499 18.7252 16.2416 18.6774C16.1332 18.6296 16.0359 18.5595 15.9563 18.4722C15.7233 18.217 15.4369 18.0163 15.1175 17.8844C14.7983 17.7525 14.4538 17.6926 14.1088 17.7088C13.9903 17.7144 13.8721 17.6952 13.7615 17.6524C13.651 17.6097 13.5507 17.5444 13.467 17.4608C13.3833 17.3772 13.318 17.2771 13.2753 17.1669C13.2327 17.0568 13.2135 16.9389 13.219 16.821C13.2352 16.4757 13.1749 16.1311 13.0425 15.8119C12.9101 15.4927 12.7089 15.2067 12.4533 14.9742C12.3658 14.8946 12.2959 14.7977 12.2482 14.6897C12.2004 14.5817 12.1758 14.4649 12.1758 14.3469C12.1758 14.2289 12.2004 14.1122 12.2482 14.0042C12.2959 13.8962 12.3658 13.7993 12.4533 13.7197C12.9711 13.2487 13.2523 12.5729 13.219 11.8725C13.2135 11.7547 13.2327 11.637 13.2753 11.5269C13.318 11.4168 13.3833 11.3167 13.467 11.2331C13.5507 11.1494 13.651 11.0842 13.7615 11.0414C13.872 10.9987 13.9904 10.9795 14.1088 10.985C14.8079 11.0182 15.485 10.7376 15.9567 10.2203C16.0363 10.133 16.1333 10.0633 16.2416 10.0155Z" fill="#448ADD"/>
<path fill-rule="evenodd" clip-rule="evenodd" d="M16.5856 9.94299C16.4671 9.94299 16.35 9.9677 16.2416 10.0155C16.1333 10.0633 16.0363 10.133 15.9567 10.2203C15.485 10.7376 14.8079 11.0182 14.1088 10.985C13.9904 10.9795 13.872 10.9987 13.7615 11.0414C13.651 11.0842 13.5507 11.1494 13.467 11.2331C13.3833 11.3167 13.318 11.4168 13.2753 11.5269C13.2327 11.637 13.2135 11.7547 13.219 11.8725C13.2523 12.5729 12.9711 13.2487 12.4533 13.7197C12.3658 13.7993 12.2959 13.8962 12.2482 14.0042C12.2004 14.1122 12.1758 14.2289 12.1758 14.3469C12.1758 14.4649 12.2004 14.5817 12.2482 14.6897C12.2959 14.7977 12.3658 14.8946 12.4533 14.9742C12.7089 15.2067 12.9101 15.4927 13.0425 15.8119C13.1749 16.1311 13.2352 16.4757 13.219 16.821C13.2135 16.9389 13.2327 17.0568 13.2753 17.1669C13.318 17.2771 13.3833 17.3772 13.467 17.4608C13.5507 17.5444 13.651 17.6097 13.7615 17.6524C13.8721 17.6952 13.9903 17.7144 14.1088 17.7088C14.4538 17.6926 14.7983 17.7525 15.1175 17.8844C15.4369 18.0163 15.7233 18.217 15.9563 18.4722C16.0359 18.5595 16.1332 18.6296 16.2416 18.6774C16.3499 18.7252 16.4671 18.7499 16.5856 18.7499C16.7042 18.7499 16.8213 18.7252 16.9297 18.6774C17.0381 18.6296 17.1352 18.5597 17.2148 18.4724C17.4478 18.2172 17.7344 18.0163 18.0538 17.8844C18.373 17.7525 18.7175 17.6926 19.0625 17.7088C19.181 17.7144 19.2992 17.6952 19.4098 17.6524C19.5203 17.6097 19.6206 17.5444 19.7043 17.4608C19.788 17.3772 19.8533 17.2771 19.896 17.1669C19.9386 17.0569 19.9578 16.9389 19.9523 16.8211C19.9487 16.7464 19.9488 16.6721 19.9523 16.5982C19.9817 15.979 20.2559 15.3947 20.7172 14.974C21.0876 14.6371 21.0869 14.0561 20.7165 13.7192C20.2552 13.2985 19.9817 12.7135 19.9523 12.0951L19.9523 11.8721C19.9577 11.7544 19.9386 11.6368 19.896 11.5269C19.8533 11.4168 19.788 11.3167 19.7043 11.2331C19.6206 11.1494 19.5203 11.0842 19.4098 11.0414C19.2993 10.9987 19.1808 10.9795 19.0625 10.985C18.3622 11.0182 17.6862 10.7375 17.2146 10.2203C17.135 10.133 17.038 10.0633 16.9297 10.0155C16.8213 9.9677 16.7042 9.94299 16.5856 9.94299ZM18.7349 12.7401C19.0275 13.0333 19.027 13.5082 18.7338 13.8008L16.575 15.9551C16.2821 16.2474 15.8079 16.2473 15.5152 15.9549L14.4368 14.8777C14.3169 14.758 14.246 14.6078 14.2241 14.4521C14.1925 14.227 14.2632 13.9903 14.4362 13.8171C14.7289 13.524 15.2038 13.5237 15.4968 13.8164L16.0455 14.3645L17.6743 12.739C17.9675 12.4464 18.4423 12.4469 18.7349 12.7401Z" fill="#448ADD"/>
</svg>
