<svg width="19" height="23" viewBox="0 0 19 23" fill="none" xmlns="http://www.w3.org/2000/svg">
<path d="M1.5 3.17387V19.8695C1.5 20.423 1.71071 20.9538 2.08579 21.3452C2.46086 21.7366 2.96957 21.9565 3.5 21.9565H15.5C16.0304 21.9565 16.5391 21.7366 16.9142 21.3452C17.2893 20.9538 17.5 20.423 17.5 19.8695V7.70465C17.5 7.42663 17.4467 7.15141 17.3433 6.89517C17.2399 6.63893 17.0885 6.40682 16.898 6.21248L12.458 1.6817C12.0844 1.30047 11.5826 1.08698 11.06 1.08691H3.5C2.96957 1.08691 2.46086 1.30679 2.08579 1.69817C1.71071 2.08955 1.5 2.62038 1.5 3.17387V3.17387Z" stroke="#5F6B73" stroke-width="2" stroke-linecap="round" stroke-linejoin="round"/>
<path d="M6.5 12.5652H12.5" stroke="#5F6B73" stroke-width="2" stroke-linecap="round" stroke-linejoin="round"/>
<path d="M6.5 16.7391H9.5" stroke="#5F6B73" stroke-width="2" stroke-linecap="round" stroke-linejoin="round"/>
<path d="M11.5 1.08691V5.26083C11.5 5.81432 11.7107 6.34515 12.0858 6.73653C12.4609 7.12791 12.9696 7.34778 13.5 7.34778H17.5" stroke="#5F6B73" stroke-width="2" stroke-linejoin="round"/>
</svg>
