<svg width="14" height="15" viewBox="0 0 14 15" fill="none" xmlns="http://www.w3.org/2000/svg">
<path fill-rule="evenodd" clip-rule="evenodd" d="M7 0.833496C7.46023 0.833496 7.83333 1.20659 7.83333 1.66683V13.3335C7.83333 13.7937 7.46023 14.1668 7 14.1668C6.53976 14.1668 6.16666 13.7937 6.16666 13.3335V1.66683C6.16666 1.20659 6.53976 0.833496 7 0.833496Z" fill="#448ADD"/>
<path fill-rule="evenodd" clip-rule="evenodd" d="M0.333328 7.50016C0.333328 7.03993 0.706424 6.66683 1.16666 6.66683H12.8333C13.2936 6.66683 13.6667 7.03993 13.6667 7.50016C13.6667 7.9604 13.2936 8.3335 12.8333 8.3335H1.16666C0.706424 8.3335 0.333328 7.9604 0.333328 7.50016Z" fill="#448ADD"/>
<path fill-rule="evenodd" clip-rule="evenodd" d="M7 0.833496C7.46023 0.833496 7.83333 1.20659 7.83333 1.66683V13.3335C7.83333 13.7937 7.46023 14.1668 7 14.1668C6.53976 14.1668 6.16666 13.7937 6.16666 13.3335V1.66683C6.16666 1.20659 6.53976 0.833496 7 0.833496Z" stroke="#448ADD" stroke-width="0.5" stroke-linecap="round" stroke-linejoin="round"/>
<path fill-rule="evenodd" clip-rule="evenodd" d="M0.333328 7.50016C0.333328 7.03993 0.706424 6.66683 1.16666 6.66683H12.8333C13.2936 6.66683 13.6667 7.03993 13.6667 7.50016C13.6667 7.9604 13.2936 8.3335 12.8333 8.3335H1.16666C0.706424 8.3335 0.333328 7.9604 0.333328 7.50016Z" stroke="#448ADD" stroke-width="0.5" stroke-linecap="round" stroke-linejoin="round"/>
</svg>
