<svg width="14" height="14" viewBox="0 0 14 14" fill="none" xmlns="http://www.w3.org/2000/svg">
<path fill-rule="evenodd" clip-rule="evenodd" d="M6.33301 1.66634C3.75568 1.66634 1.66634 3.75568 1.66634 6.33301C1.66634 8.91034 3.75568 10.9997 6.33301 10.9997C8.91034 10.9997 10.9997 8.91034 10.9997 6.33301C10.9997 3.75568 8.91034 1.66634 6.33301 1.66634ZM0.333008 6.33301C0.333008 3.0193 3.0193 0.333008 6.33301 0.333008C9.64672 0.333008 12.333 3.0193 12.333 6.33301C12.333 9.64672 9.64672 12.333 6.33301 12.333C3.0193 12.333 0.333008 9.64672 0.333008 6.33301Z" fill="#448ADD"/>
<path fill-rule="evenodd" clip-rule="evenodd" d="M9.62827 9.62827C9.88862 9.36792 10.3107 9.36792 10.5711 9.62827L13.4711 12.5283C13.7314 12.7886 13.7314 13.2107 13.4711 13.4711C13.2107 13.7314 12.7886 13.7314 12.5283 13.4711L9.62827 10.5711C9.36792 10.3107 9.36792 9.88862 9.62827 9.62827Z" fill="#448ADD"/>
<path fill-rule="evenodd" clip-rule="evenodd" d="M6.33301 1.66634C3.75568 1.66634 1.66634 3.75568 1.66634 6.33301C1.66634 8.91034 3.75568 10.9997 6.33301 10.9997C8.91034 10.9997 10.9997 8.91034 10.9997 6.33301C10.9997 3.75568 8.91034 1.66634 6.33301 1.66634ZM0.333008 6.33301C0.333008 3.0193 3.0193 0.333008 6.33301 0.333008C9.64672 0.333008 12.333 3.0193 12.333 6.33301C12.333 9.64672 9.64672 12.333 6.33301 12.333C3.0193 12.333 0.333008 9.64672 0.333008 6.33301Z" stroke="#448ADD" stroke-width="0.5" stroke-linecap="round" stroke-linejoin="round"/>
<path fill-rule="evenodd" clip-rule="evenodd" d="M9.62827 9.62827C9.88862 9.36792 10.3107 9.36792 10.5711 9.62827L13.4711 12.5283C13.7314 12.7886 13.7314 13.2107 13.4711 13.4711C13.2107 13.7314 12.7886 13.7314 12.5283 13.4711L9.62827 10.5711C9.36792 10.3107 9.36792 9.88862 9.62827 9.62827Z" stroke="#448ADD" stroke-width="0.5" stroke-linecap="round" stroke-linejoin="round"/>
</svg>
