<svg width="40" height="32" viewBox="0 0 40 32" fill="none" xmlns="http://www.w3.org/2000/svg">
<path d="M32.0916 3.64931V30.2637C32.0916 31.8876 31.7129 32.4963 28.6678 31.5537L16.0456 26.6235L3.42348 31.5537C0.391143 32.4963 -0.000327431 31.8895 -0.000327431 30.2637V3.64931C-0.000327431 2.68145 0.42231 1.75323 1.17461 1.06886C1.92691 0.384479 2.94725 0 4.01117 0H28.0801C29.144 0 35.3008 0 35.3008 0C35.3008 0 32.0916 2.68145 32.0916 3.64931Z" fill="url(#paint0_linear_13358_2657)"/>
<path d="M39.1523 3.52369C39.1523 1.57761 37.5747 0 35.6287 0V0C33.6826 0 32.105 1.57761 32.105 3.52369V3.91521H39.1523V3.52369Z" fill="#04AE66"/>
<path d="M9.112 17.288C8.968 17.672 8.764 18.008 8.416 18.332C7.972 18.056 7.6 17.72 7.252 17.288H9.112ZM7.132 15.344H9.34V15.728C9.34 15.86 9.34 15.992 9.328 16.124H7.132V15.344ZM7.132 13.508H9.34V14.276H7.132V13.508ZM13.096 13.508V14.276H10.84V13.508H13.096ZM13.096 16.124H10.828C10.84 15.992 10.84 15.86 10.84 15.74V15.344H13.096V16.124ZM14.512 17.288V12.356H10.84V11.648H15.256V10.376H4.744V11.648H9.34V12.356H5.788V17.288H7.06L5.968 17.732C6.328 18.26 6.736 18.716 7.204 19.076C6.52 19.364 5.644 19.604 4.492 19.784C4.804 20.12 5.188 20.72 5.356 21.056C6.748 20.78 7.804 20.384 8.608 19.928C10.324 20.684 12.532 20.864 15.136 20.924C15.22 20.432 15.484 19.832 15.748 19.508C13.312 19.52 11.344 19.472 9.784 18.956C10.228 18.464 10.504 17.888 10.66 17.288H14.512ZM20.212 12.188C20.116 12.596 19.924 13.148 19.768 13.508L20.56 13.676H18.208L18.808 13.508C18.76 13.148 18.604 12.596 18.4 12.188H20.212ZM20.056 16.976H22.036V15.776H20.056V14.852H22.144V13.676H20.932C21.1 13.316 21.292 12.836 21.508 12.32L20.812 12.188H22.048V11.024H20.056V9.932H18.676V11.024H16.66V12.188H18.004L17.272 12.356C17.44 12.764 17.584 13.28 17.632 13.676H16.528V14.852H18.676V15.776H16.564V16.976H18.388C17.836 17.876 17.008 18.776 16.228 19.292C16.528 19.52 16.936 19.988 17.152 20.3C17.668 19.88 18.208 19.28 18.676 18.608V21.02H20.056V18.464C20.404 18.8 20.74 19.16 20.932 19.4L21.76 18.38C21.484 18.164 20.488 17.372 20.056 17.072V16.976ZM27.592 13.784H23.848V12.104C25.108 11.84 26.476 11.468 27.532 11L26.392 9.956C25.66 10.352 24.472 10.736 23.332 11.012L22.504 10.784V14.936C22.504 16.592 22.36 18.632 20.98 20.096C21.304 20.264 21.82 20.756 22 21.068C23.584 19.424 23.836 16.892 23.848 15.104H25.072V20.972H26.452V15.104H27.592V13.784Z" fill="#FCFCFC"/>
<defs>
<linearGradient id="paint0_linear_13358_2657" x1="-0.000377196" y1="32.1048" x2="8.5749" y2="-6.98545" gradientUnits="userSpaceOnUse">
<stop stop-color="#07A85B"/>
<stop offset="0.473958" stop-color="#00B473"/>
<stop offset="1" stop-color="#4FDB43"/>
</linearGradient>
</defs>
</svg>
