<svg width="76" height="75" viewBox="0 0 76 75" fill="none" xmlns="http://www.w3.org/2000/svg">
<path opacity="0.8" fill-rule="evenodd" clip-rule="evenodd" d="M0 42.2964C0 19.0282 18.6542 0.166748 41.6667 0.166748C64.6792 0.166748 83.3333 19.0282 83.3333 42.2964C83.3333 65.5646 64.6792 84.426 41.6667 84.426C18.6542 84.426 0 65.5646 0 42.2964ZM41.6667 21.2316C42.7717 21.2316 43.8315 21.6754 44.6129 22.4655C45.3943 23.2556 45.8333 24.3272 45.8333 25.4445V42.2964C45.8333 43.4137 45.3943 44.4853 44.6129 45.2754C43.8315 46.0655 42.7717 46.5093 41.6667 46.5093C40.5616 46.5093 39.5018 46.0655 38.7204 45.2754C37.939 44.4853 37.5 43.4137 37.5 42.2964V25.4445C37.5 24.3272 37.939 23.2556 38.7204 22.4655C39.5018 21.6754 40.5616 21.2316 41.6667 21.2316ZM45.8333 59.1482C45.8333 60.2656 45.3943 61.3372 44.6129 62.1273C43.8315 62.9173 42.7717 63.3612 41.6667 63.3612C40.5616 63.3612 39.5018 62.9173 38.7204 62.1273C37.939 61.3372 37.5 60.2656 37.5 59.1482C37.5 58.0309 37.939 56.9593 38.7204 56.1692C39.5018 55.3791 40.5616 54.9353 41.6667 54.9353C42.7717 54.9353 43.8315 55.3791 44.6129 56.1692C45.3943 56.9593 45.8333 58.0309 45.8333 59.1482Z" fill="white"/>
</svg>
