<svg width="29" height="33" viewBox="0 0 29 33" fill="none" xmlns="http://www.w3.org/2000/svg">
<path d="M0.214111 27.7096C0.214111 28.9827 0.705777 30.2036 1.58095 31.1038C2.45612 32.0039 3.6431 32.5096 4.88078 32.5096H23.5474C24.7851 32.5096 25.9721 32.0039 26.8473 31.1038C27.7224 30.2036 28.2141 28.9827 28.2141 27.7096V11.4344C28.2134 10.1621 27.7216 8.94202 26.8468 8.04244L20.8921 1.91444C20.0169 1.01479 18.8301 0.509491 17.5928 0.509644H4.88078C3.6431 0.509644 2.45612 1.01536 1.58095 1.91553C0.705777 2.81571 0.214111 4.0366 0.214111 5.30964V27.7096ZM4.88078 29.3096C4.46822 29.3096 4.07256 29.1411 3.78083 28.841C3.48911 28.541 3.32522 28.134 3.32522 27.7096V5.30964C3.32522 4.8853 3.48911 4.47833 3.78083 4.17827C4.07256 3.87821 4.46822 3.70964 4.88078 3.70964H15.7697V8.50964C15.7697 9.78268 16.2613 11.0036 17.1365 11.9038C18.0117 12.8039 19.1987 13.3096 20.4363 13.3096H25.103V27.7096C25.103 28.134 24.9391 28.541 24.6474 28.841C24.3557 29.1411 23.96 29.3096 23.5474 29.3096H4.88078ZM24.459 10.1096H20.4363C20.0238 10.1096 19.6281 9.94107 19.3364 9.64101C19.0447 9.34096 18.8808 8.93399 18.8808 8.50964V4.37204L24.459 10.1096Z" fill="#5F6B73"/>
<path d="M18.7906 16.0351C19.0907 16.3352 19.2592 16.7422 19.2592 17.1665C19.2592 17.5908 19.0907 17.9978 18.7906 18.2979L16.5279 20.5606L18.7906 22.8234C19.0907 23.1234 19.2592 23.5304 19.2592 23.9547C19.2592 24.3791 19.0907 24.786 18.7906 25.0861C18.4906 25.3862 18.0836 25.5547 17.6592 25.5547C17.2349 25.5547 16.8279 25.3862 16.5279 25.0861L14.2651 22.8234L12.0024 25.0861C11.7023 25.3862 11.2954 25.5547 10.871 25.5547C10.4467 25.5547 10.0397 25.3862 9.73965 25.0861C9.4396 24.786 9.27102 24.3791 9.27102 23.9547C9.27102 23.5304 9.4396 23.1234 9.73965 22.8234L12.0024 20.5606L9.73965 18.2979C9.4396 17.9978 9.27102 17.5908 9.27102 17.1665C9.27102 16.7422 9.4396 16.3352 9.73965 16.0351C10.0397 15.7351 10.4467 15.5665 10.871 15.5665C11.2954 15.5665 11.7023 15.7351 12.0024 16.0351L14.2651 18.2979L16.5279 16.0351C16.8279 15.7351 17.2349 15.5665 17.6592 15.5665C18.0836 15.5665 18.4906 15.7351 18.7906 16.0351Z" fill="#FF746B"/>
</svg>
