<svg width="24" height="24" viewBox="0 0 24 24" fill="none" xmlns="http://www.w3.org/2000/svg">
<path d="M5.10345 3C4.28036 3 3.49099 3.31607 2.90898 3.87868C2.32697 4.44129 2 5.20435 2 6V16C2 16.7956 2.32697 17.5587 2.90898 18.1213C3.49099 18.6839 4.28036 19 5.10345 19H13.5552C12.7703 18.0548 12.3433 16.8787 12.3448 15.6667C12.3448 15.4118 12.3997 15.1598 12.5061 14.9266C12.6125 14.6935 12.7679 14.4843 12.9626 14.3125C13.1573 14.1407 13.3869 14.01 13.6368 13.9287C13.8866 13.8475 14.1513 13.8175 14.4138 13.8407V13C14.4138 12.1159 14.7771 11.2681 15.4238 10.643C16.0704 10.0179 16.9475 9.66667 17.8621 9.66667C18.7766 9.66667 19.6537 10.0179 20.3004 10.643C20.947 11.2681 21.3103 12.1159 21.3103 13V6C21.3103 5.20435 20.9834 4.44129 20.4014 3.87868C19.8194 3.31607 19.03 3 18.2069 3H5.10345ZM6.13793 7C6.13793 6.82319 6.21059 6.65362 6.33993 6.5286C6.46926 6.40357 6.64468 6.33333 6.82759 6.33333H10.9655C11.1484 6.33333 11.3238 6.40357 11.4532 6.5286C11.5825 6.65362 11.6552 6.82319 11.6552 7C11.6552 7.17681 11.5825 7.34638 11.4532 7.4714C11.3238 7.59643 11.1484 7.66667 10.9655 7.66667H6.82759C6.64468 7.66667 6.46926 7.59643 6.33993 7.4714C6.21059 7.34638 6.13793 7.17681 6.13793 7ZM6.82759 13H10.9655C11.1484 13 11.3238 13.0702 11.4532 13.1953C11.5825 13.3203 11.6552 13.4899 11.6552 13.6667C11.6552 13.8435 11.5825 14.013 11.4532 14.1381C11.3238 14.2631 11.1484 14.3333 10.9655 14.3333H6.82759C6.64468 14.3333 6.46926 14.2631 6.33993 14.1381C6.21059 14.013 6.13793 13.8435 6.13793 13.6667C6.13793 13.4899 6.21059 13.3203 6.33993 13.1953C6.46926 13.0702 6.64468 13 6.82759 13ZM6.13793 10.3333C6.13793 10.1565 6.21059 9.98695 6.33993 9.86193C6.46926 9.73691 6.64468 9.66667 6.82759 9.66667H13.0345C13.2174 9.66667 13.3928 9.73691 13.5221 9.86193C13.6515 9.98695 13.7241 10.1565 13.7241 10.3333C13.7241 10.5101 13.6515 10.6797 13.5221 10.8047C13.3928 10.9298 13.2174 11 13.0345 11H6.82759C6.64468 11 6.46926 10.9298 6.33993 10.8047C6.21059 10.6797 6.13793 10.5101 6.13793 10.3333ZM14.7779 18.3333C14.0978 17.6009 13.7223 16.6509 13.7241 15.6667C13.7241 15.5341 13.7786 15.4069 13.8756 15.3131C13.9726 15.2193 14.1042 15.1667 14.2414 15.1667C14.3786 15.1667 14.5101 15.2193 14.6071 15.3131C14.7041 15.4069 14.7586 15.5341 14.7586 15.6667C14.7586 16.4347 15.0572 17.136 15.549 17.6667C16.0737 18.2364 16.8042 18.5902 17.5903 18.6553L17.6021 18.6567C17.8619 18.6775 18.1235 18.667 18.3807 18.6253L18.3931 18.6227C18.8268 18.5504 19.2395 18.3892 19.6034 18.15C19.929 17.9367 20.2103 17.6647 20.431 17.35C20.7804 16.8537 20.9667 16.267 20.9655 15.6667C20.9655 15.5341 21.02 15.4069 21.117 15.3131C21.214 15.2193 21.3456 15.1667 21.4828 15.1667C21.6199 15.1667 21.7515 15.2193 21.8485 15.3131C21.9455 15.4069 22 15.5341 22 15.6667C22.0012 16.4674 21.7527 17.2499 21.2869 17.912C20.9922 18.331 20.6183 18.6925 20.1848 18.9773C19.6941 19.3001 19.137 19.5163 18.5517 19.6113V20.5C18.5517 20.6326 18.4972 20.7598 18.4002 20.8536C18.3032 20.9473 18.1717 21 18.0345 21C17.8973 21 17.7657 20.9473 17.6687 20.8536C17.5717 20.7598 17.5172 20.6326 17.5172 20.5V19.6533C16.8226 19.5982 16.1539 19.3734 15.5738 19C15.2804 18.8113 15.0129 18.5872 14.7779 18.3333ZM15.7931 13C15.7931 12.7374 15.8466 12.4773 15.9506 12.2346C16.0546 11.992 16.207 11.7715 16.3991 11.5858C16.5912 11.4001 16.8193 11.2528 17.0703 11.1522C17.3213 11.0517 17.5904 11 17.8621 11C18.1338 11 18.4028 11.0517 18.6538 11.1522C18.9048 11.2528 19.1329 11.4001 19.325 11.5858C19.5172 11.7715 19.6696 11.992 19.7735 12.2346C19.8775 12.4773 19.931 12.7374 19.931 13V15.6667C19.931 15.9293 19.8775 16.1894 19.7735 16.432C19.6696 16.6747 19.5172 16.8952 19.325 17.0809C19.1329 17.2666 18.9048 17.4139 18.6538 17.5144C18.4028 17.6149 18.1338 17.6667 17.8621 17.6667C17.5904 17.6667 17.3213 17.6149 17.0703 17.5144C16.8193 17.4139 16.5912 17.2666 16.3991 17.0809C16.207 16.8952 16.0546 16.6747 15.9506 16.432C15.8466 16.1894 15.7931 15.9293 15.7931 15.6667V13Z" fill="#7F9EBB"/>
</svg>
