<svg width="20" height="20" viewBox="0 0 20 20" fill="none" xmlns="http://www.w3.org/2000/svg">
<path d="M14.2705 3.75008H11.6663C11.6663 2.60099 10.7321 1.66675 9.58301 1.66675C8.43392 1.66675 7.49967 2.60099 7.49967 3.75008H4.89551C4.03288 3.75008 3.33301 4.44995 3.33301 5.31258V16.7709C3.33301 17.6335 4.03288 18.3334 4.89551 18.3334H14.2705C15.1331 18.3334 15.833 17.6335 15.833 16.7709V5.31258C15.833 4.44995 15.1331 3.75008 14.2705 3.75008ZM9.58301 2.96883C10.016 2.96883 10.3643 3.31714 10.3643 3.75008C10.3643 4.18302 10.016 4.53133 9.58301 4.53133C9.15006 4.53133 8.80176 4.18302 8.80176 3.75008C8.80176 3.31714 9.15006 2.96883 9.58301 2.96883ZM12.708 12.8647C12.708 13.0079 12.5908 13.1251 12.4476 13.1251H10.6247V14.948C10.6247 15.0912 10.5075 15.2084 10.3643 15.2084H8.80176C8.65853 15.2084 8.54134 15.0912 8.54134 14.948V13.1251H6.71842C6.5752 13.1251 6.45801 13.0079 6.45801 12.8647V11.3022C6.45801 11.1589 6.5752 11.0417 6.71842 11.0417H8.54134V9.21883C8.54134 9.0756 8.65853 8.95842 8.80176 8.95842H10.3643C10.5075 8.95842 10.6247 9.0756 10.6247 9.21883V11.0417H12.4476C12.5908 11.0417 12.708 11.1589 12.708 11.3022V12.8647ZM12.708 6.61467C12.708 6.75789 12.5908 6.87508 12.4476 6.87508H6.71842C6.5752 6.87508 6.45801 6.75789 6.45801 6.61467V6.09383C6.45801 5.9506 6.5752 5.83342 6.71842 5.83342H12.4476C12.5908 5.83342 12.708 5.9506 12.708 6.09383V6.61467Z" fill="#5F6B73"/>
</svg>
