<svg width="20" height="19" viewBox="0 0 20 19" fill="none" xmlns="http://www.w3.org/2000/svg">
<path fill-rule="evenodd" clip-rule="evenodd" d="M9.02761 17.7776C9.02761 17.2407 9.46289 16.8054 9.99983 16.8054H18.7498C19.2868 16.8054 19.7221 17.2407 19.7221 17.7776C19.7221 18.3146 19.2868 18.7498 18.7498 18.7498H9.99983C9.46289 18.7498 9.02761 18.3146 9.02761 17.7776Z" fill="#448ADD"/>
<path fill-rule="evenodd" clip-rule="evenodd" d="M15.8332 2.10411C15.544 2.10411 15.2667 2.21897 15.0623 2.42342L3.09993 14.3858L2.58602 16.4414L4.64167 15.9275L16.604 3.96515C16.7053 3.86392 16.7856 3.74374 16.8404 3.61148C16.8951 3.47921 16.9233 3.33745 16.9233 3.19428C16.9233 3.05112 16.8951 2.90936 16.8404 2.77709C16.7856 2.64483 16.7053 2.52465 16.604 2.42342C16.5028 2.32218 16.3826 2.24188 16.2504 2.1871C16.1181 2.13231 15.9763 2.10411 15.8332 2.10411ZM13.6874 1.04849C14.2565 0.479385 15.0283 0.159668 15.8332 0.159668C16.2317 0.159668 16.6263 0.238161 16.9945 0.390664C17.3626 0.543168 17.6972 0.766696 17.979 1.04849C18.2608 1.33028 18.4843 1.66481 18.6368 2.03299C18.7893 2.40116 18.8678 2.79577 18.8678 3.19428C18.8678 3.5928 18.7893 3.98741 18.6368 4.35558C18.4843 4.72376 18.2608 5.05829 17.979 5.34008L5.82618 17.4929C5.70159 17.6175 5.54547 17.7059 5.37452 17.7486L1.48563 18.7208C1.15432 18.8036 0.803847 18.7066 0.562366 18.4651C0.320885 18.2236 0.223809 17.8731 0.306637 17.5418L1.27886 13.6529C1.3216 13.482 1.40999 13.3259 1.53459 13.2013L13.6874 1.04849Z" fill="#448ADD"/>
<path d="M15.0623 2.42342C15.2667 2.21897 15.544 2.10411 15.8332 2.10411C15.9763 2.10411 16.1181 2.13231 16.2504 2.1871C16.3826 2.24188 16.5028 2.32218 16.604 2.42342C16.7053 2.52465 16.7856 2.64483 16.8404 2.77709C16.8951 2.90936 16.9233 3.05112 16.9233 3.19428C16.9233 3.33745 16.8951 3.47921 16.8404 3.61148C16.7856 3.74374 16.7053 3.86392 16.604 3.96515L4.64167 15.9275L2.58602 16.4414L3.09993 14.3858L15.0623 2.42342Z" fill="#448ADD"/>
</svg>
