<svg width="21" height="24" viewBox="0 0 21 24" fill="none" xmlns="http://www.w3.org/2000/svg">
<path fill-rule="evenodd" clip-rule="evenodd" d="M5.73364 3.03006C6.99708 1.71194 8.71067 0.971436 10.4974 0.971436C12.2842 0.971436 13.9978 1.71194 15.2613 3.03006C16.5247 4.34817 17.2345 6.13591 17.2345 8.00001C17.2345 11.3485 17.9209 13.4256 18.5519 14.6325C18.8687 15.2385 19.177 15.6356 19.3906 15.8707C19.4976 15.9886 19.5815 16.0666 19.6317 16.1102C19.6569 16.1321 19.6736 16.1454 19.6806 16.1508L19.6828 16.1525C20.036 16.4059 20.1923 16.869 20.0677 17.2981C19.9418 17.7319 19.5586 18.0286 19.1241 18.0286H1.87075C1.43629 18.0286 1.05304 17.7319 0.927146 17.2981C0.802625 16.869 0.958884 16.4059 1.31207 16.1525L1.31431 16.1508C1.3213 16.1454 1.33802 16.1321 1.36315 16.1102C1.41337 16.0666 1.4973 15.9886 1.60433 15.8707C1.8179 15.6356 2.12616 15.2385 2.44301 14.6325C3.07398 13.4256 3.76041 11.3485 3.76041 8.00001C3.76041 6.13591 4.4702 4.34817 5.73364 3.03006Z" fill="#5F6B73"/>
<path fill-rule="evenodd" clip-rule="evenodd" d="M8.34464 20.1103C8.81563 19.8253 9.41894 19.9925 9.69215 20.4839C9.774 20.6311 9.89149 20.7533 10.0328 20.8383C10.1742 20.9232 10.3345 20.9679 10.4976 20.9679C10.6607 20.9679 10.821 20.9232 10.9623 20.8383C11.1037 20.7533 11.2212 20.6311 11.303 20.4839C11.5762 19.9925 12.1795 19.8253 12.6505 20.1103C13.1215 20.3953 13.2819 21.0248 13.0086 21.5161C12.7535 21.9751 12.3872 22.356 11.9465 22.6208C11.5058 22.8857 11.0061 23.025 10.4976 23.025C9.98902 23.025 9.48937 22.8857 9.04868 22.6208C8.60799 22.356 8.24171 21.9751 7.98653 21.5161C7.71331 21.0248 7.87365 20.3953 8.34464 20.1103Z" fill="#5F6B73"/>
</svg>
