<svg width="32" height="32" viewBox="0 0 32 32" fill="none" xmlns="http://www.w3.org/2000/svg">
<path fill-rule="evenodd" clip-rule="evenodd" d="M27.4289 29.1114H4.57175V3.18512H27.4289V29.1114ZM24.8892 19.1112H7.11144V21.4261H24.8892V19.1112ZM24.8892 23.7409H7.11144V26.0557H24.8892V23.7409ZM9.59517 6.71485C9.42267 7.1362 9.33381 7.58784 9.33366 8.04398C9.33336 8.96519 9.69441 9.84879 10.3374 10.5004C10.9804 11.152 11.8526 11.5183 12.7622 11.5186C13.6718 11.5189 14.5443 11.1532 15.1877 10.502C15.8312 9.85086 16.1928 8.9675 16.1931 8.04629C16.1932 7.59016 16.1047 7.13846 15.9325 6.71699C15.7602 6.29551 15.5077 5.91252 15.1894 5.58988C14.871 5.26723 14.493 5.01125 14.0769 4.83655C13.6609 4.66186 13.2149 4.57186 12.7645 4.57171C12.3141 4.57156 11.8681 4.66125 11.4519 4.83567C11.0358 5.01008 10.6576 5.26581 10.339 5.58824C10.0204 5.91067 9.76767 6.29349 9.59517 6.71485ZM7.11144 16.889C7.11144 15.6158 8.92943 12.7005 10.8151 12.7005H12.7622H14.5188C16.4046 12.7005 18.2225 15.6158 18.2225 16.889H7.11144Z" fill="url(#paint0_linear_7325_6556)"/>
<path fill-rule="evenodd" clip-rule="evenodd" d="M25.5241 1.33362L6.47652 1.33344C4.5908 1.33344 2.66699 3.12725 2.66699 5.037V27.2593C2.66699 29.1691 4.5908 30.9631 6.47652 30.9631H25.5241C27.4099 30.9631 29.3337 29.1691 29.3337 27.2593V5.037C29.3337 3.12725 27.4099 1.33362 25.5241 1.33362ZM27.4289 29.1114H4.57175V3.18512H27.4289V29.1114Z" fill="url(#paint1_linear_7325_6556)"/>
<defs>
<linearGradient id="paint0_linear_7325_6556" x1="21.1973" y1="-4.54248" x2="7.95487" y2="28.3033" gradientUnits="userSpaceOnUse">
<stop stop-color="#7CBEFA"/>
<stop offset="1" stop-color="#626EDA"/>
</linearGradient>
<linearGradient id="paint1_linear_7325_6556" x1="21.1973" y1="-4.54248" x2="7.95487" y2="28.3033" gradientUnits="userSpaceOnUse">
<stop stop-color="#7CBEFA"/>
<stop offset="1" stop-color="#626EDA"/>
</linearGradient>
</defs>
</svg>
