<svg width="24" height="24" viewBox="0 0 24 24" fill="none" xmlns="http://www.w3.org/2000/svg">
<path d="M5.76332 2.26395L9.16603 2.67986C9.46994 2.717 9.68808 2.98438 9.65761 3.28237L7.79421 21.503C7.76281 21.81 7.48008 22.0322 7.16669 21.9962L3.49849 21.5742C3.18965 21.5387 2.96839 21.2655 3.0037 20.9634L5.13259 2.74889C5.16825 2.44381 5.45172 2.22586 5.76332 2.26395Z" fill="#7F9EBB"/>
<path fill-rule="evenodd" clip-rule="evenodd" d="M11.4053 2H14.7916C15.1033 2 15.356 2.24708 15.356 2.55186V21.3151C15.356 21.6199 15.1033 21.867 14.7916 21.867H11.4053C11.0936 21.867 10.8409 21.6199 10.8409 21.3151V2.55186C10.8409 2.24708 11.0936 2 11.4053 2ZM14.227 10.8298V6.41489C14.227 5.80532 13.7216 5.31117 13.0982 5.31117C12.4748 5.31117 11.9695 5.80532 11.9695 6.41489V10.8298C11.9695 11.4393 12.4748 11.9335 13.0982 11.9335C13.7216 11.9335 14.227 11.4393 14.227 10.8298Z" fill="#7F9EBB"/>
<path fill-rule="evenodd" clip-rule="evenodd" d="M17.0491 2H20.4356C20.7473 2 21 2.24708 21 2.55187L20.9998 21.3151C20.9998 21.6199 20.7471 21.867 20.4354 21.867H17.0491C16.7374 21.867 16.4848 21.6199 16.4848 21.3151V2.55186C16.4848 2.24708 16.7374 2 17.0491 2ZM19.8708 10.8298V6.41489C19.8708 5.80532 19.3654 5.31117 18.742 5.31117C18.1186 5.31117 17.6133 5.80532 17.6133 6.41489V10.8298C17.6133 11.4393 18.1186 11.9335 18.742 11.9335C19.3654 11.9335 19.8708 11.4393 19.8708 10.8298Z" fill="#7F9EBB"/>
</svg>
