<svg width="16" height="17" viewBox="0 0 16 17" fill="none" xmlns="http://www.w3.org/2000/svg">
<path fill-rule="evenodd" clip-rule="evenodd" d="M12.4714 3.67085C12.7318 3.9312 12.7318 4.35331 12.4714 4.61366L4.47141 12.6137C4.21107 12.874 3.78896 12.874 3.52861 12.6137C3.26826 12.3533 3.26826 11.9312 3.52861 11.6708L11.5286 3.67085C11.789 3.4105 12.2111 3.4105 12.4714 3.67085Z" fill="#448ADD"/>
<path fill-rule="evenodd" clip-rule="evenodd" d="M3.52861 3.67085C3.78896 3.4105 4.21107 3.4105 4.47141 3.67085L12.4714 11.6708C12.7318 11.9312 12.7318 12.3533 12.4714 12.6137C12.2111 12.874 11.789 12.874 11.5286 12.6137L3.52861 4.61366C3.26826 4.35331 3.26826 3.9312 3.52861 3.67085Z" fill="#448ADD"/>
</svg>
