<svg width="18" height="21" viewBox="0 0 18 21" fill="none" xmlns="http://www.w3.org/2000/svg">
<path fill-rule="evenodd" clip-rule="evenodd" d="M3.16673 5.74999V8.08332H2.80214C2.12529 8.08332 1.47615 8.33427 0.997544 8.78097C0.518934 9.22767 0.250061 9.83353 0.250061 10.4653V18.3403C0.250061 19.6551 1.39339 20.7222 2.80214 20.7222H15.198C15.8748 20.7222 16.5239 20.4712 17.0025 20.0245C17.4811 19.5778 17.7501 18.972 17.7501 18.3403V10.4653C17.7501 9.83353 17.4811 9.22767 17.0025 8.78097C16.5239 8.33427 15.8748 8.08332 15.198 8.08332H14.8334V5.74999C14.8334 4.30602 14.2189 2.92122 13.1248 1.90018C12.0309 0.879151 10.5472 0.305542 9.00006 0.305542C7.45296 0.305542 5.96924 0.879151 4.87527 1.90018C3.78131 2.92122 3.16673 4.30602 3.16673 5.74999ZM12.8889 8.08332V5.74999C12.8889 4.84752 12.5048 3.982 11.8211 3.34386C11.1374 2.70571 9.96699 2.24999 9.00006 2.24999C8.03313 2.24999 6.86273 2.70571 6.17901 3.34386C5.49528 3.982 5.11117 4.84752 5.11117 5.74999V8.08332H12.8889Z" fill="#448ADD"/>
</svg>
