<svg width="10" height="12" viewBox="0 0 10 12" fill="none" xmlns="http://www.w3.org/2000/svg">
<path d="M5.60021 10.3914L5.60021 3.22574L7.73987 5.39167C7.97415 5.63722 8.32109 5.7357 8.64734 5.64925C8.97359 5.56281 9.22837 5.3049 9.31377 4.97464C9.39917 4.64439 9.30188 4.29319 9.05931 4.05603L5.3268 0.277691C5.15174 0.10003 4.91404 0.000183105 4.66615 0.000183105C4.41826 0.000183105 4.18056 0.10003 4.0055 0.277691L0.272992 4.05603C-0.0913614 4.42538 -0.0909437 5.02379 0.273925 5.39261C0.638794 5.76144 1.22995 5.76102 1.5943 5.39167L3.73396 3.22574L3.73396 10.3914C3.73396 10.913 4.15173 11.3359 4.66708 11.3359C5.18243 11.3359 5.60021 10.913 5.60021 10.3914Z" fill="#82D616"/>
</svg>
