<svg width="16" height="18" viewBox="0 0 16 18" fill="none" xmlns="http://www.w3.org/2000/svg">
<path d="M15.0833 16.6823V17.3333H0.5V16.6823C0.5 16.4665 0.674902 16.2916 0.890625 16.2916H1.54167V4.57288C1.54167 4.1414 1.89144 3.79163 2.32292 3.79163H5.1875V1.44788C5.1875 1.0164 5.53727 0.666626 5.96875 0.666626H9.61458C10.0461 0.666626 10.3958 1.0164 10.3958 1.44788V3.79163H13.2604C13.6919 3.79163 14.0417 4.1414 14.0417 4.57288V16.2916H14.6927C14.9084 16.2916 15.0833 16.4665 15.0833 16.6823ZM10.526 6.91663H9.22396C9.00824 6.91663 8.83333 7.09153 8.83333 7.30725V8.60933C8.83333 8.82506 9.00824 8.99996 9.22396 8.99996H10.526C10.7418 8.99996 10.9167 8.82506 10.9167 8.60933V7.30725C10.9167 7.09153 10.7418 6.91663 10.526 6.91663ZM5.05729 8.99996H6.35938C6.5751 8.99996 6.75 8.82506 6.75 8.60933V7.30725C6.75 7.09153 6.5751 6.91663 6.35938 6.91663H5.05729C4.84157 6.91663 4.66667 7.09153 4.66667 7.30725V8.60933C4.66667 8.82506 4.84157 8.99996 5.05729 8.99996ZM8.44271 13.1666H7.14063C6.9249 13.1666 6.75 13.3415 6.75 13.5573V16.2916H8.83333V13.5573C8.83333 13.3415 8.65843 13.1666 8.44271 13.1666ZM10.526 10.0416H9.22396C9.00824 10.0416 8.83333 10.2165 8.83333 10.4323V11.7343C8.83333 11.9501 9.00824 12.125 9.22396 12.125H10.526C10.7418 12.125 10.9167 11.9501 10.9167 11.7343V10.4323C10.9167 10.2165 10.7418 10.0416 10.526 10.0416ZM6.75 10.4323C6.75 10.2165 6.5751 10.0416 6.35938 10.0416H5.05729C4.84157 10.0416 4.66667 10.2165 4.66667 10.4323V11.7343C4.66667 11.9501 4.84157 12.125 5.05729 12.125H6.35938C6.5751 12.125 6.75 11.9501 6.75 11.7343V10.4323ZM6.42448 3.79163H7.27083V4.63798C7.27083 4.68978 7.29141 4.73946 7.32804 4.77609C7.36467 4.81272 7.41435 4.83329 7.46615 4.83329H8.11719C8.16899 4.83329 8.21867 4.81272 8.25529 4.77609C8.29192 4.73946 8.3125 4.68978 8.3125 4.63798V3.79163H9.15885C9.21066 3.79163 9.26033 3.77105 9.29696 3.73442C9.33359 3.69779 9.35417 3.64811 9.35417 3.59631V2.94527C9.35417 2.89347 9.33359 2.84379 9.29696 2.80717C9.26033 2.77054 9.21066 2.74996 9.15885 2.74996H8.3125V1.90361C8.3125 1.85181 8.29192 1.80213 8.25529 1.7655C8.21867 1.72887 8.16899 1.70829 8.11719 1.70829H7.46615C7.41435 1.70829 7.36467 1.72887 7.32804 1.7655C7.29141 1.80213 7.27083 1.85181 7.27083 1.90361V2.74996H6.42448C6.37268 2.74996 6.323 2.77054 6.28637 2.80717C6.24974 2.84379 6.22917 2.89347 6.22917 2.94527V3.59631C6.22917 3.64811 6.24974 3.69779 6.28637 3.73442C6.323 3.77105 6.37268 3.79163 6.42448 3.79163Z" fill="#5F6B73"/>
</svg>
