<svg width="26" height="22" viewBox="0 0 26 22" fill="none" xmlns="http://www.w3.org/2000/svg">
<path d="M24.6214 13.0698L20.7214 11.4829C20.5826 11.4265 20.2948 11.3524 19.9698 11.4829L18.29 12.1664L16.0698 13.0698C15.7076 13.2179 15.4706 13.5635 15.4706 13.9479C15.4706 17.5706 17.4414 20.1654 19.4499 21.2455C19.6234 21.3387 19.7971 21.4207 19.9698 21.491C20.2948 21.6215 20.5792 21.5474 20.7214 21.491C22.4581 20.7857 25.2206 18.3384 25.2206 13.9479C25.2206 13.5635 24.9836 13.2179 24.6214 13.0698ZM20.3456 19.8159V13.1474L23.5787 14.4628C23.3891 17.5343 21.517 19.2376 20.3456 19.8159Z" fill="#5F6B73"/>
<path fill-rule="evenodd" clip-rule="evenodd" d="M2.23108 0.959756C1.70338 1.46767 1.40693 2.15654 1.40693 2.87484V19.1248C1.03379 19.1248 0.675929 19.2675 0.412079 19.5215C0.148229 19.7754 0 20.1199 0 20.479C0 20.8382 0.148229 21.1826 0.412079 21.4365C0.675929 21.6905 1.03379 21.8332 1.40693 21.8332H5.62771C6.00085 21.8332 6.3587 21.6905 6.62255 21.4365C6.8864 21.1826 7.03463 20.8382 7.03463 20.479V17.7707C7.03463 17.4115 7.18286 17.0671 7.44671 16.8131C7.71056 16.5592 8.06842 16.4165 8.44156 16.4165H11.2554C11.6286 16.4165 11.9864 16.5592 12.2503 16.8131C12.5141 17.0671 12.6623 17.4115 12.6623 17.7707V20.479C12.6623 20.8382 12.8106 21.1826 13.0744 21.4365C13.3383 21.6905 13.6961 21.8332 14.0693 21.8332H18.1355C16.1151 20.1716 14.3873 17.1872 14.3873 13.2586C14.3873 12.7665 14.6769 12.324 15.1196 12.1344L18.29 10.783V2.87484C18.29 2.15654 17.9936 1.46767 17.4659 0.959756C16.9382 0.451845 16.2225 0.166504 15.4762 0.166504H4.22078C3.4745 0.166504 2.75878 0.451845 2.23108 0.959756ZM19.9698 21.491C19.7971 21.4207 19.6234 21.3387 19.4499 21.2455C17.4414 20.1654 15.4706 17.5706 15.4706 13.9479C15.4706 13.5635 15.7076 13.2179 16.0698 13.0698L18.29 12.1664L19.9698 11.4829C20.2948 11.3524 20.5826 11.4265 20.7214 11.4829L24.6214 13.0698C24.9836 13.2179 25.2206 13.5635 25.2206 13.9479C25.2206 18.3384 22.4581 20.7857 20.7214 21.491C20.5792 21.5474 20.2948 21.6215 19.9698 21.491ZM8.44156 4.229H5.62771V6.93734H8.44156V4.229ZM5.62771 9.64567H8.44156V12.354H5.62771V9.64567ZM14.0693 4.229H11.2554V6.93734H14.0693V4.229ZM11.2554 9.64567H14.0693V12.354H11.2554V9.64567ZM20.3456 13.1474V19.8159C21.517 19.2376 23.3891 17.5343 23.5787 14.4628L20.3456 13.1474Z" fill="#5F6B73"/>
</svg>
