<svg width="17" height="21" viewBox="0 0 17 21" fill="none" xmlns="http://www.w3.org/2000/svg">
<path fill-rule="evenodd" clip-rule="evenodd" d="M12.0063 0.431511L16.7237 5.6489C16.9009 5.84027 16.9993 6.08942 17 6.34803V18.348C16.9958 18.6947 16.9222 19.0372 16.7832 19.356C16.6443 19.6747 16.4428 19.9634 16.1902 20.2057C15.9376 20.4479 15.6389 20.6389 15.3112 20.7678C14.9834 20.8967 14.633 20.9609 14.28 20.9567H2.72C2.36698 20.9609 2.0166 20.8967 1.68884 20.7678C1.36109 20.6389 1.0624 20.4479 0.809818 20.2057C0.557238 19.9634 0.355719 19.6747 0.216769 19.356C0.0778197 19.0372 0.00416115 18.6947 0 18.348V2.69586C0.00416115 2.34916 0.0778197 2.00667 0.216769 1.68793C0.355719 1.36919 0.557238 1.08046 0.809818 0.838211C1.0624 0.595966 1.36109 0.404957 1.68884 0.276091C2.0166 0.147226 2.36698 0.0830275 2.72 0.0871629H11.22C11.3683 0.0875071 11.5148 0.118323 11.6502 0.177628C11.7856 0.236933 11.9069 0.323414 12.0063 0.431511ZM10.8174 6.05612C10.9585 6.22202 11.1603 6.32685 11.3794 6.34803H14.5988L10.625 2.17412V5.46108C10.6072 5.67653 10.6763 5.89022 10.8174 6.05612ZM12.7831 9.60924C12.8218 9.64852 12.8502 9.69752 12.8656 9.75154C12.9519 10.0434 12.9971 10.3468 13 10.6522C13 12.4502 11.5981 13.9131 9.875 13.9131C9.67313 13.9131 9.46813 13.8883 9.24312 13.8355C8.96125 14.1935 8.7175 14.5326 8.44125 14.9181C7.93485 15.6348 7.40452 16.3329 6.85125 17.0109C6.64769 17.2652 6.39328 17.4699 6.10587 17.6107C5.81847 17.7515 5.50502 17.8251 5.1875 17.8261C3.98125 17.8261 3 16.8022 3 15.5435C3.00219 15.2126 3.07221 14.886 3.20534 14.5857C3.33847 14.2853 3.53164 14.0182 3.77188 13.8022C4.60191 13.0708 5.2118 12.5955 5.74977 12.1763L5.76062 12.1678C6.13875 11.8731 6.4725 11.6128 6.82375 11.3109C6.77375 11.0761 6.75 10.8628 6.75 10.6522C6.75 8.85415 8.15187 7.39132 9.875 7.39132C10.1913 7.39534 10.5052 7.44988 10.8056 7.55306C10.8572 7.56999 10.9037 7.60058 10.9405 7.64185C10.9774 7.68312 11.0033 7.73366 11.0159 7.78853C11.0284 7.8434 11.0271 7.90072 11.012 7.9549C10.997 8.00908 10.9687 8.05825 10.93 8.09763L9.27688 9.7835L9.515 11.0272L10.7112 11.277L12.3463 9.60937C12.3846 9.56955 12.4324 9.54099 12.4848 9.52657C12.5371 9.51214 12.5921 9.51236 12.6444 9.52719C12.6966 9.54171 12.7443 9.56996 12.7831 9.60924ZM5.1875 16.1957C5.02174 16.1957 4.86277 16.127 4.74556 16.0047C4.62835 15.8823 4.5625 15.7165 4.5625 15.5435C4.5625 15.3705 4.62835 15.2046 4.74556 15.0823C4.86277 14.96 5.02174 14.8913 5.1875 14.8913C5.35326 14.8913 5.51223 14.96 5.62944 15.0823C5.74665 15.2046 5.8125 15.3705 5.8125 15.5435C5.8125 15.7165 5.74665 15.8823 5.62944 16.0047C5.51223 16.127 5.35326 16.1957 5.1875 16.1957Z" fill="#5F6B73"/>
</svg>
