<svg width="17" height="20" viewBox="0 0 23 26" fill="none" xmlns="http://www.w3.org/2000/svg">
<path d="M11.6875 13C15.1396 13 17.9375 10.2021 17.9375 6.75C17.9375 3.29785 15.1396 0.5 11.6875 0.5C8.23535 0.5 5.4375 3.29785 5.4375 6.75C5.4375 10.2021 8.23535 13 11.6875 13ZM5.82812 21.2031C5.82812 21.8525 6.35059 22.375 7 22.375C7.64941 22.375 8.17188 21.8525 8.17188 21.2031C8.17188 20.5537 7.64941 20.0312 7 20.0312C6.35059 20.0312 5.82812 20.5537 5.82812 21.2031ZM16.375 14.5918V16.9844C18.1572 17.3457 19.5 18.9277 19.5 20.8125V22.8486C19.5 23.2197 19.2363 23.542 18.8701 23.6152L17.2979 23.9277C17.0879 23.9717 16.8828 23.835 16.8389 23.6201L16.6875 22.8535C16.6436 22.6436 16.7803 22.4336 16.9951 22.3945L17.9375 22.2041V20.8125C17.9375 17.7461 13.25 17.6338 13.25 20.9053V22.209L14.1924 22.3994C14.4023 22.4434 14.5391 22.6484 14.5 22.8584L14.3486 23.625C14.3047 23.835 14.0996 23.9717 13.8896 23.9326L12.3662 23.7275C11.9805 23.6738 11.6924 23.3467 11.6924 22.9512V20.8125C11.6924 18.9277 13.0352 17.3506 14.8174 16.9844V14.7773C14.71 14.8115 14.6025 14.8311 14.4951 14.8701C13.6162 15.1777 12.6738 15.3486 11.6924 15.3486C10.7109 15.3486 9.76855 15.1777 8.88965 14.8701C8.52832 14.7432 8.16211 14.665 7.78613 14.6162V18.6006C8.91406 18.9375 9.73926 19.9727 9.73926 21.208C9.73926 22.7168 8.51367 23.9424 7.00488 23.9424C5.49609 23.9424 4.27051 22.7168 4.27051 21.208C4.27051 19.9727 5.0957 18.9375 6.22363 18.6006V14.6748C3.11816 15.1973 0.75 17.873 0.75 21.125V23.3125C0.75 24.5186 1.73145 25.5 2.9375 25.5H20.4375C21.6436 25.5 22.625 24.5186 22.625 23.3125V21.125C22.625 17.6094 19.8516 14.7627 16.375 14.5918Z" fill="#5F6B73"/>
</svg>
