<svg width="20" height="20" viewBox="0 0 20 20" fill="none" xmlns="http://www.w3.org/2000/svg">
<path d="M8.33333 3.33342C8.11232 3.33342 7.90036 3.42121 7.74408 3.57749C7.5878 3.73377 7.5 3.94573 7.5 4.16675C7.5 4.38776 7.5878 4.59972 7.74408 4.756C7.90036 4.91228 8.11232 5.00008 8.33333 5.00008H11.6667C11.8877 5.00008 12.0996 4.91228 12.2559 4.756C12.4122 4.59972 12.5 4.38776 12.5 4.16675C12.5 3.94573 12.4122 3.73377 12.2559 3.57749C12.0996 3.42121 11.8877 3.33342 11.6667 3.33342H8.33333ZM5.975 3.33342C6.14751 2.84585 6.46693 2.42377 6.88929 2.12528C7.31164 1.8268 7.81615 1.6666 8.33333 1.66675H11.6667C12.755 1.66675 13.6817 2.36258 14.025 3.33342H15C15.663 3.33342 16.2989 3.59681 16.7678 4.06565C17.2366 4.53449 17.5 5.17037 17.5 5.83342V15.8334C17.5 16.4965 17.2366 17.1323 16.7678 17.6012C16.2989 18.07 15.663 18.3334 15 18.3334H5C4.33696 18.3334 3.70107 18.07 3.23223 17.6012C2.76339 17.1323 2.5 16.4965 2.5 15.8334V5.83342C2.5 5.17037 2.76339 4.53449 3.23223 4.06565C3.70107 3.59681 4.33696 3.33342 5 3.33342H5.975ZM5.975 5.00008H5C4.77899 5.00008 4.56702 5.08788 4.41074 5.24416C4.25446 5.40044 4.16667 5.6124 4.16667 5.83342V15.8334C4.16667 16.0544 4.25446 16.2664 4.41074 16.4227C4.56702 16.579 4.77899 16.6667 5 16.6667H15C15.221 16.6667 15.433 16.579 15.5893 16.4227C15.7455 16.2664 15.8333 16.0544 15.8333 15.8334V5.83342C15.8333 5.6124 15.7455 5.40044 15.5893 5.24416C15.433 5.08788 15.221 5.00008 15 5.00008H14.025C13.8525 5.48764 13.5331 5.90973 13.1107 6.20822C12.6884 6.5067 12.1838 6.6669 11.6667 6.66675H8.33333C7.81615 6.6669 7.31164 6.5067 6.88929 6.20822C6.46693 5.90973 6.14751 5.48764 5.975 5.00008ZM5.83333 9.16675C5.83333 8.94573 5.92113 8.73377 6.07741 8.57749C6.23369 8.42121 6.44565 8.33342 6.66667 8.33342H13.3333C13.5543 8.33342 13.7663 8.42121 13.9226 8.57749C14.0789 8.73377 14.1667 8.94573 14.1667 9.16675C14.1667 9.38776 14.0789 9.59972 13.9226 9.756C13.7663 9.91228 13.5543 10.0001 13.3333 10.0001H6.66667C6.44565 10.0001 6.23369 9.91228 6.07741 9.756C5.92113 9.59972 5.83333 9.38776 5.83333 9.16675ZM5.83333 12.5001C5.83333 12.2791 5.92113 12.0671 6.07741 11.9108C6.23369 11.7545 6.44565 11.6667 6.66667 11.6667H10C10.221 11.6667 10.433 11.7545 10.5893 11.9108C10.7455 12.0671 10.8333 12.2791 10.8333 12.5001C10.8333 12.7211 10.7455 12.9331 10.5893 13.0893C10.433 13.2456 10.221 13.3334 10 13.3334H6.66667C6.44565 13.3334 6.23369 13.2456 6.07741 13.0893C5.92113 12.9331 5.83333 12.7211 5.83333 12.5001Z" fill="#5F6B73"/>
</svg>
