<svg width="12" height="13" viewBox="0 0 12 13" fill="none" xmlns="http://www.w3.org/2000/svg">
<path d="M5.65 9.2464V8.9964H5.4H1.2C0.6882 8.9964 0.25 8.55404 0.25 7.98324V1.66745C0.25 1.09666 0.6882 0.654297 1.2 0.654297H10.8C11.3118 0.654297 11.75 1.09666 11.75 1.66745V7.98324C11.75 8.55404 11.3118 8.9964 10.8 8.9964H6.6H6.35V9.2464V11.1411V11.3911H6.6H8.15V12.1543H3.85V11.3911H5.4H5.65V11.1411V9.2464ZM4.55 6.72009V7.17367L4.9335 6.93146L7.9335 5.03672L8.26817 4.82535L7.9335 4.61398L4.9335 2.71924L4.55 2.47703V2.93061V6.72009Z" fill="#448ADD" stroke="#448ADD" stroke-width="0.5"/>
</svg>
