<svg width="16" height="18" viewBox="0 0 16 18" fill="none" xmlns="http://www.w3.org/2000/svg">
<path d="M15.0833 16.6821V17.3332H0.5V16.6821C0.5 16.4664 0.674902 16.2915 0.890625 16.2915H1.54167V4.57275C1.54167 4.14128 1.89144 3.7915 2.32292 3.7915H5.1875V1.44775C5.1875 1.01628 5.53727 0.666504 5.96875 0.666504H9.61458C10.0461 0.666504 10.3958 1.01628 10.3958 1.44775V3.7915H13.2604C13.6919 3.7915 14.0417 4.14128 14.0417 4.57275V16.2915H14.6927C14.9084 16.2915 15.0833 16.4664 15.0833 16.6821ZM10.526 6.9165H9.22396C9.00824 6.9165 8.83333 7.09141 8.83333 7.30713V8.60921C8.83333 8.82494 9.00824 8.99984 9.22396 8.99984H10.526C10.7418 8.99984 10.9167 8.82494 10.9167 8.60921V7.30713C10.9167 7.09141 10.7418 6.9165 10.526 6.9165ZM5.05729 8.99984H6.35938C6.5751 8.99984 6.75 8.82494 6.75 8.60921V7.30713C6.75 7.09141 6.5751 6.9165 6.35938 6.9165H5.05729C4.84157 6.9165 4.66667 7.09141 4.66667 7.30713V8.60921C4.66667 8.82494 4.84157 8.99984 5.05729 8.99984ZM8.44271 13.1665H7.14063C6.9249 13.1665 6.75 13.3414 6.75 13.5571V16.2915H8.83333V13.5571C8.83333 13.3414 8.65843 13.1665 8.44271 13.1665ZM10.526 10.0415H9.22396C9.00824 10.0415 8.83333 10.2164 8.83333 10.4321V11.7342C8.83333 11.9499 9.00824 12.1248 9.22396 12.1248H10.526C10.7418 12.1248 10.9167 11.9499 10.9167 11.7342V10.4321C10.9167 10.2164 10.7418 10.0415 10.526 10.0415ZM6.75 10.4321C6.75 10.2164 6.5751 10.0415 6.35938 10.0415H5.05729C4.84157 10.0415 4.66667 10.2164 4.66667 10.4321V11.7342C4.66667 11.9499 4.84157 12.1248 5.05729 12.1248H6.35938C6.5751 12.1248 6.75 11.9499 6.75 11.7342V10.4321ZM6.42448 3.7915H7.27083V4.63786C7.27083 4.68966 7.29141 4.73934 7.32804 4.77597C7.36467 4.81259 7.41435 4.83317 7.46615 4.83317H8.11719C8.16899 4.83317 8.21867 4.81259 8.25529 4.77597C8.29192 4.73934 8.3125 4.68966 8.3125 4.63786V3.7915H9.15885C9.21066 3.7915 9.26033 3.77093 9.29696 3.7343C9.33359 3.69767 9.35417 3.64799 9.35417 3.59619V2.94515C9.35417 2.89335 9.33359 2.84367 9.29696 2.80704C9.26033 2.77042 9.21066 2.74984 9.15885 2.74984H8.3125V1.90348C8.3125 1.85168 8.29192 1.802 8.25529 1.76538C8.21867 1.72875 8.16899 1.70817 8.11719 1.70817H7.46615C7.41435 1.70817 7.36467 1.72875 7.32804 1.76538C7.29141 1.802 7.27083 1.85168 7.27083 1.90348V2.74984H6.42448C6.37268 2.74984 6.323 2.77042 6.28637 2.80704C6.24974 2.84367 6.22917 2.89335 6.22917 2.94515V3.59619C6.22917 3.64799 6.24974 3.69767 6.28637 3.7343C6.323 3.77093 6.37268 3.7915 6.42448 3.7915Z" fill="#5F6B73"/>
</svg>
