<svg width="22" height="26" viewBox="0 0 22 26" fill="none" xmlns="http://www.w3.org/2000/svg">
<path fill-rule="evenodd" clip-rule="evenodd" d="M15.7578 0.912725L21.6547 7.16272C21.8761 7.39197 21.9991 7.69043 22 8.00022V22.3752C21.9948 22.7905 21.9027 23.2008 21.729 23.5826C21.5554 23.9645 21.3035 24.3103 20.9877 24.6005C20.672 24.8907 20.2986 25.1195 19.8889 25.2739C19.4793 25.4283 19.0413 25.5052 18.6 25.5002H4.15C3.70873 25.5052 3.27074 25.4283 2.86106 25.2739C2.45137 25.1195 2.078 24.8907 1.76227 24.6005C1.44655 24.3103 1.19465 23.9645 1.02096 23.5826C0.847275 23.2008 0.755201 22.7905 0.75 22.3752V3.62523C0.755201 3.20991 0.847275 2.79963 1.02096 2.41781C1.19465 2.03599 1.44655 1.69011 1.76227 1.39992C2.078 1.10973 2.45137 0.880916 2.86106 0.726545C3.27074 0.572175 3.70873 0.495271 4.15 0.500225H14.775C14.9603 0.500637 15.1435 0.537552 15.3128 0.608594C15.482 0.679637 15.6336 0.783234 15.7578 0.912725ZM14.2718 7.65054C14.4482 7.84927 14.7004 7.97485 14.9742 8.00022H18.9984L14.0312 3.00023V6.93773C14.009 7.19582 14.0954 7.4518 14.2718 7.65054ZM16.7288 11.9069C16.7772 11.9539 16.8128 12.0126 16.832 12.0773C16.9398 12.427 16.9964 12.7904 17 13.1562C17 15.3102 15.2477 17.0625 13.0938 17.0625C12.8414 17.0625 12.5852 17.0328 12.3039 16.9695C11.9516 17.3984 11.6469 17.8047 11.3016 18.2664C10.6686 19.125 10.0057 19.9612 9.31406 20.7734C9.05961 21.078 8.7416 21.3233 8.38234 21.492C8.02308 21.6607 7.63127 21.7487 7.23438 21.75C5.72656 21.75 4.5 20.5234 4.5 19.0156C4.50274 18.6192 4.59026 18.228 4.75667 17.8682C4.92309 17.5085 5.16455 17.1884 5.46484 16.9297C6.50239 16.0536 7.26475 15.4842 7.93722 14.982L7.95078 14.9719C8.42344 14.6188 8.84062 14.307 9.27969 13.9453C9.21719 13.6641 9.1875 13.4086 9.1875 13.1562C9.1875 11.0023 10.9398 9.25 13.0938 9.25C13.4891 9.25481 13.8814 9.32015 14.257 9.44375C14.3215 9.46402 14.3796 9.50067 14.4256 9.55011C14.4717 9.59955 14.5042 9.66009 14.5198 9.72582C14.5355 9.79155 14.5338 9.86022 14.515 9.92512C14.4962 9.99002 14.4609 10.0489 14.4125 10.0961L12.3461 12.1156L12.6437 13.6055L14.1391 13.9047L16.1828 11.907C16.2308 11.8593 16.2905 11.8251 16.3559 11.8078C16.4214 11.7906 16.4902 11.7908 16.5555 11.8086C16.6207 11.826 16.6804 11.8598 16.7288 11.9069ZM7.23438 19.7969C7.02717 19.7969 6.82846 19.7146 6.68195 19.5681C6.53544 19.4215 6.45312 19.2228 6.45312 19.0156C6.45312 18.8084 6.53544 18.6097 6.68195 18.4632C6.82846 18.3167 7.02717 18.2344 7.23438 18.2344C7.44158 18.2344 7.64029 18.3167 7.7868 18.4632C7.93331 18.6097 8.01562 18.8084 8.01562 19.0156C8.01562 19.2228 7.93331 19.4215 7.7868 19.5681C7.64029 19.7146 7.44158 19.7969 7.23438 19.7969Z" fill="#5F6B73"/>
</svg>
