<svg width="16" height="18" viewBox="0 0 17 21" fill="none" xmlns="http://www.w3.org/2000/svg">
<path d="M16.7242 5.64884L12.0067 0.43145C11.9074 0.323353 11.7861 0.236872 11.6507 0.177567C11.5153 0.118262 11.3688 0.087446 11.2205 0.0871019H2.72049C2.36747 0.0829665 2.01708 0.147165 1.68933 0.27603C1.36158 0.404896 1.06289 0.595905 0.810306 0.83815C0.557726 1.08039 0.356207 1.36913 0.217258 1.68787C0.078308 2.0066 0.00464943 2.3491 0.000488281 2.6958V18.348C0.00464943 18.6947 0.078308 19.0372 0.217258 19.3559C0.356207 19.6746 0.557726 19.9634 0.810306 20.2056C1.06289 20.4479 1.36158 20.6389 1.68933 20.7677C2.01708 20.8966 2.36747 20.9608 2.72049 20.9567H14.2805C14.6335 20.9608 14.9839 20.8966 15.3116 20.7677C15.6394 20.6389 15.9381 20.4479 16.1907 20.2056C16.4433 19.9634 16.6448 19.6746 16.7837 19.3559C16.9227 19.0372 16.9963 18.6947 17.0005 18.348V6.34797C16.9998 6.08936 16.9014 5.84021 16.7242 5.64884ZM5.31299 10.5219H8.50049C8.78228 10.5219 9.05253 10.6318 9.25179 10.8275C9.45105 11.0232 9.56299 11.2886 9.56299 11.5654C9.56299 11.8421 9.45105 12.1075 9.25179 12.3032C9.05253 12.4989 8.78228 12.6088 8.50049 12.6088H5.31299C5.0312 12.6088 4.76094 12.4989 4.56169 12.3032C4.36243 12.1075 4.25049 11.8421 4.25049 11.5654C4.25049 11.2886 4.36243 11.0232 4.56169 10.8275C4.76094 10.6318 5.0312 10.5219 5.31299 10.5219ZM11.688 16.7828H5.31299C5.0312 16.7828 4.76094 16.6728 4.56169 16.4771C4.36243 16.2814 4.25049 16.016 4.25049 15.7393C4.25049 15.4625 4.36243 15.1971 4.56169 15.0014C4.76094 14.8057 5.0312 14.6958 5.31299 14.6958H11.688C11.9698 14.6958 12.24 14.8057 12.4393 15.0014C12.6385 15.1971 12.7505 15.4625 12.7505 15.7393C12.7505 16.016 12.6385 16.2814 12.4393 16.4771C12.24 16.6728 11.9698 16.7828 11.688 16.7828ZM11.3799 6.34797C11.1608 6.32679 10.959 6.22196 10.8179 6.05606C10.6768 5.89016 10.6077 5.67647 10.6255 5.46102V2.17406L14.5992 6.34797H11.3799Z" fill="#448add"/>
</svg>
