<svg width="24" height="28" viewBox="0 0 30 40" fill="none" xmlns="http://www.w3.org/2000/svg">
<path d="M3.68443 1.01844L8.22137 1.57298C8.62658 1.62251 8.91744 1.979 8.87681 2.37633L6.39228 26.6705C6.35042 27.0799 5.97343 27.3761 5.55558 27.3281L0.664652 26.7654C0.252868 26.718 -0.0421438 26.3539 0.00493537 25.9511L2.84345 1.66502C2.89099 1.25825 3.26896 0.967657 3.68443 1.01844Z" fill="url(#paint0_linear_12033_9815)"/>
<path fill-rule="evenodd" clip-rule="evenodd" d="M11.2071 0.666504H15.7222C16.1378 0.666504 16.4747 0.99594 16.4747 1.40232V26.42C16.4747 26.8264 16.1377 27.1558 15.7222 27.1558H11.2071C10.7915 27.1558 10.4546 26.8264 10.4546 26.42V1.40232C10.4546 0.99594 10.7915 0.666504 11.2071 0.666504ZM14.9693 12.4395V6.55302C14.9693 5.74027 14.2955 5.08139 13.4643 5.08139C12.6331 5.08139 11.9593 5.74027 11.9593 6.55302V12.4395C11.9593 13.2523 12.6331 13.9112 13.4643 13.9112C14.2955 13.9112 14.9693 13.2523 14.9693 12.4395Z" fill="url(#paint1_linear_12033_9815)"/>
<path fill-rule="evenodd" clip-rule="evenodd" d="M18.7322 0.666504H23.2475C23.6631 0.666504 24 0.995945 24 1.40233L23.9997 26.42C23.9997 26.8264 23.6628 27.1558 23.2472 27.1558H18.7322C18.3166 27.1558 17.9797 26.8264 17.9797 26.42V1.40232C17.9797 0.99594 18.3166 0.666504 18.7322 0.666504ZM22.4944 12.4395V6.55302C22.4944 5.74027 21.8206 5.08139 20.9894 5.08139C20.1582 5.08139 19.4844 5.74027 19.4844 6.55302V12.4395C19.4844 13.2523 20.1582 13.9112 20.9894 13.9112C21.8206 13.9112 22.4944 13.2523 22.4944 12.4395Z" fill="url(#paint2_linear_12033_9815)"/>
<defs>
<linearGradient id="paint0_linear_12033_9815" x1="16.6773" y1="-4.62182" x2="4.75909" y2="24.9394" gradientUnits="userSpaceOnUse">
<stop stop-color="#7CBEFA"/>
<stop offset="1" stop-color="#626EDA"/>
</linearGradient>
<linearGradient id="paint1_linear_12033_9815" x1="16.6773" y1="-4.62182" x2="4.75909" y2="24.9394" gradientUnits="userSpaceOnUse">
<stop stop-color="#7CBEFA"/>
<stop offset="1" stop-color="#626EDA"/>
</linearGradient>
<linearGradient id="paint2_linear_12033_9815" x1="16.6773" y1="-4.62182" x2="4.75909" y2="24.9394" gradientUnits="userSpaceOnUse">
<stop stop-color="#7CBEFA"/>
<stop offset="1" stop-color="#626EDA"/>
</linearGradient>
</defs>
</svg>
