<svg width="18" height="19" viewBox="0 0 18 19" fill="none" xmlns="http://www.w3.org/2000/svg">
<path fill-rule="evenodd" clip-rule="evenodd" d="M5.1 6.1001V8.1001H4.8375C4.35016 8.1001 3.88279 8.28447 3.53819 8.61266C3.19359 8.94085 3 9.38597 3 9.8501V15.3501C3 16.3161 3.8232 17.1001 4.8375 17.1001H13.7625C14.2498 17.1001 14.7172 16.9157 15.0618 16.5875C15.4064 16.2593 15.6 15.8142 15.6 15.3501V9.8501C15.6 9.38597 15.4064 8.94085 15.0618 8.61266C14.7172 8.28447 14.2498 8.1001 13.7625 8.1001H13.5V6.1001C13.5 5.03923 13.0575 4.02182 12.2698 3.27167C11.4822 2.52152 10.4139 2.1001 9.3 2.1001C8.18609 2.1001 7.11781 2.52152 6.33015 3.27167C5.5425 4.02182 5.1 5.03923 5.1 6.1001ZM11.925 8.1001V6.1001C11.925 5.43706 11.6484 4.80117 11.1562 4.33233C10.6639 3.86349 9.99619 3.6001 9.3 3.6001C8.60381 3.6001 7.93612 3.86349 7.44384 4.33233C6.95156 4.80117 6.675 5.43706 6.675 6.1001V8.1001H11.925ZM13.5 9.6001H13.7625C13.8321 9.6001 13.8989 9.62644 13.9481 9.67332C13.9974 9.72021 14.025 9.7838 14.025 9.8501V15.3501C14.025 15.4164 13.9974 15.48 13.9481 15.5269C13.8989 15.5738 13.8321 15.6001 13.7625 15.6001H4.8375C4.76789 15.6001 4.70112 15.5738 4.65188 15.5269C4.60266 15.48 4.575 15.4164 4.575 15.3501V9.8501C4.575 9.7838 4.60266 9.72021 4.65188 9.67332C4.70112 9.62644 4.76789 9.6001 4.8375 9.6001H13.5Z" fill="#448ADD"/>
<path d="M13.5 9.6001H13.7625C13.8321 9.6001 13.8989 9.62644 13.9481 9.67332C13.9974 9.72021 14.025 9.7838 14.025 9.8501V15.3501C14.025 15.4164 13.9974 15.48 13.9481 15.5269C13.8989 15.5738 13.8321 15.6001 13.7625 15.6001H4.8375C4.76789 15.6001 4.70112 15.5738 4.65188 15.5269C4.60266 15.48 4.575 15.4164 4.575 15.3501V9.8501C4.575 9.7838 4.60266 9.72021 4.65188 9.67332C4.70112 9.62644 4.76789 9.6001 4.8375 9.6001H13.5Z" fill="#448ADD"/>
</svg>
