<svg width="17" height="17" viewBox="0 0 17 17" fill="none" xmlns="http://www.w3.org/2000/svg">
<path d="M5.88198 8.62935L3.30798 6.05535C2.29465 7.16002 1.91065 8.26669 1.90398 8.28935L1.83331 8.50002L1.90331 8.71069C1.91798 8.75535 3.44731 13.1667 8.53598 13.1667C9.15531 13.1667 9.71931 13.0987 10.2373 12.9847L8.40665 11.154C7.7475 11.1217 7.12395 10.8453 6.6573 10.3787C6.19066 9.91205 5.91429 9.2885 5.88198 8.62935ZM8.53598 3.83335C7.29931 3.83335 6.28598 4.10269 5.44131 4.49869L2.97131 2.02869L2.02865 2.97135L14.0286 14.9714L14.9713 14.0287L12.7726 11.83C14.5313 10.528 15.1586 8.73869 15.168 8.71069L15.238 8.50002L15.168 8.28935C15.1533 8.24469 13.6246 3.83335 8.53598 3.83335ZM9.80665 8.86402C9.93131 8.41269 9.82531 7.90469 9.47865 7.55735C9.13198 7.21002 8.62331 7.10469 8.17198 7.22935L7.16665 6.22402C7.57862 5.97067 8.05234 5.83552 8.53598 5.83335C10.0066 5.83335 11.2026 7.02935 11.2026 8.50002C11.2007 8.98357 11.0653 9.45718 10.8113 9.86869L9.80665 8.86402Z" fill="#448ADD"/>
</svg>
