<svg width="20" height="20" viewBox="0 0 20 20" fill="none" xmlns="http://www.w3.org/2000/svg">
<path d="M9.79167 10.0001C12.0931 10.0001 13.9583 8.13485 13.9583 5.83342C13.9583 3.53198 12.0931 1.66675 9.79167 1.66675C7.49023 1.66675 5.625 3.53198 5.625 5.83342C5.625 8.13485 7.49023 10.0001 9.79167 10.0001ZM5.88542 15.4688C5.88542 15.9018 6.23372 16.2501 6.66667 16.2501C7.09961 16.2501 7.44792 15.9018 7.44792 15.4688C7.44792 15.0359 7.09961 14.6876 6.66667 14.6876C6.23372 14.6876 5.88542 15.0359 5.88542 15.4688ZM12.9167 11.0613V12.6563C14.1048 12.8972 15 13.9519 15 15.2084V16.5658C15 16.8132 14.8242 17.0281 14.5801 17.0769L13.5319 17.2852C13.3919 17.3145 13.2552 17.2234 13.2259 17.0802L13.125 16.5691C13.0957 16.4291 13.1869 16.2891 13.3301 16.2631L13.9583 16.1362V15.2084C13.9583 13.1641 10.8333 13.0893 10.8333 15.2703V16.1394L11.4616 16.2664C11.6016 16.2957 11.6927 16.4324 11.6667 16.5723L11.5658 17.0834C11.5365 17.2234 11.3997 17.3145 11.2598 17.2885L10.2441 17.1518C9.98698 17.116 9.79492 16.8979 9.79492 16.6342V15.2084C9.79492 13.9519 10.6901 12.9005 11.8783 12.6563V11.185C11.8066 11.2078 11.735 11.2208 11.6634 11.2468C11.0775 11.4519 10.4492 11.5658 9.79492 11.5658C9.14063 11.5658 8.51237 11.4519 7.92643 11.2468C7.68555 11.1622 7.44141 11.1101 7.19076 11.0776V13.7338C7.94271 13.9584 8.49284 14.6485 8.49284 15.4721C8.49284 16.4779 7.67578 17.295 6.66992 17.295C5.66406 17.295 4.84701 16.4779 4.84701 15.4721C4.84701 14.6485 5.39714 13.9584 6.14909 13.7338V11.1166C4.07878 11.4649 2.5 13.2488 2.5 15.4167V16.8751C2.5 17.6791 3.1543 18.3334 3.95833 18.3334H15.625C16.429 18.3334 17.0833 17.6791 17.0833 16.8751V15.4167C17.0833 13.073 15.2344 11.1752 12.9167 11.0613Z" fill="#5F6B73"/>
</svg>
