<svg width="24" height="24" viewBox="0 0 24 24" fill="none" xmlns="http://www.w3.org/2000/svg">
<path d="M8.11111 3.25H5.19444C4.67875 3.25 4.18417 3.45486 3.81951 3.81951C3.45486 4.18417 3.25 4.67875 3.25 5.19444V8.11111M20.75 8.11111V5.19444C20.75 4.67875 20.5451 4.18417 20.1805 3.81951C19.8158 3.45486 19.3213 3.25 18.8056 3.25H15.8889M15.8889 20.75H18.8056C19.3213 20.75 19.8158 20.5451 20.1805 20.1805C20.5451 19.8158 20.75 19.3213 20.75 18.8056V15.8889M3.25 15.8889V18.8056C3.25 19.3213 3.45486 19.8158 3.81951 20.1805C4.18417 20.5451 4.67875 20.75 5.19444 20.75H8.11111" stroke="#59A5FF" stroke-width="2" stroke-linecap="round" stroke-linejoin="round"/>
</svg>
