<svg width="15" height="16" viewBox="0 0 15 16" fill="none" xmlns="http://www.w3.org/2000/svg">
<path fill-rule="evenodd" clip-rule="evenodd" d="M3.125 3.625C2.77982 3.625 2.5 3.90482 2.5 4.25V13C2.5 13.3452 2.77982 13.625 3.125 13.625H11.875C12.2202 13.625 12.5 13.3452 12.5 13V4.25C12.5 3.90482 12.2202 3.625 11.875 3.625H3.125ZM1.25 4.25C1.25 3.21447 2.08947 2.375 3.125 2.375H11.875C12.9105 2.375 13.75 3.21447 13.75 4.25V13C13.75 14.0355 12.9105 14.875 11.875 14.875H3.125C2.08947 14.875 1.25 14.0355 1.25 13V4.25Z" fill="#5F6B73"/>
<path fill-rule="evenodd" clip-rule="evenodd" d="M1.25 6.75C1.25 6.40482 1.52982 6.125 1.875 6.125H13.125C13.4702 6.125 13.75 6.40482 13.75 6.75C13.75 7.09518 13.4702 7.375 13.125 7.375H1.875C1.52982 7.375 1.25 7.09518 1.25 6.75Z" fill="#5F6B73"/>
<path fill-rule="evenodd" clip-rule="evenodd" d="M10 1.125C10.3452 1.125 10.625 1.40482 10.625 1.75V4.25C10.625 4.59518 10.3452 4.875 10 4.875C9.65482 4.875 9.375 4.59518 9.375 4.25V1.75C9.375 1.40482 9.65482 1.125 10 1.125Z" fill="#5F6B73"/>
<path fill-rule="evenodd" clip-rule="evenodd" d="M5 1.125C5.34518 1.125 5.625 1.40482 5.625 1.75V4.25C5.625 4.59518 5.34518 4.875 5 4.875C4.65482 4.875 4.375 4.59518 4.375 4.25V1.75C4.375 1.40482 4.65482 1.125 5 1.125Z" fill="#5F6B73"/>
</svg>
