<svg width="18" height="19" viewBox="0 0 18 19" fill="none" xmlns="http://www.w3.org/2000/svg">
<path d="M14.4206 18.4998C13.6363 18.4998 12.5346 18.2161 10.8849 17.2944C8.87873 16.1694 7.32701 15.1308 5.33172 13.1407C3.40794 11.2181 2.47177 9.97339 1.16153 7.58916C-0.318663 4.89716 -0.0663389 3.48608 0.215718 2.88299C0.551615 2.16218 1.04742 1.73105 1.68828 1.30315C2.05228 1.06466 2.43749 0.86022 2.83901 0.692426C2.87919 0.675149 2.91655 0.658675 2.9499 0.643809C3.14879 0.55421 3.45013 0.418806 3.83183 0.563451C4.08657 0.659077 4.31398 0.854749 4.66997 1.20632C5.40002 1.92632 6.39767 3.52987 6.76571 4.31738C7.01281 4.84815 7.17634 5.19851 7.17674 5.59146C7.17674 6.05151 6.94531 6.40629 6.66446 6.7892C6.61182 6.86112 6.55959 6.92982 6.50896 6.99652C6.2032 7.39831 6.1361 7.51443 6.1803 7.72175C6.2699 8.13841 6.93808 9.37874 8.03617 10.4744C9.13426 11.5701 10.3388 12.1961 10.7571 12.2853C10.9733 12.3315 11.0918 12.2616 11.5064 11.945C11.5659 11.8996 11.627 11.8526 11.6909 11.8056C12.1192 11.4869 12.4575 11.2615 12.9067 11.2615H12.9091C13.3 11.2615 13.6347 11.4311 14.1892 11.7107C14.9124 12.0756 16.5642 13.0603 17.2886 13.7912C17.641 14.1464 17.8375 14.373 17.9335 14.6273C18.0781 15.0102 17.9419 15.3104 17.8531 15.5113C17.8383 15.5446 17.8218 15.5812 17.8045 15.6218C17.6354 16.0226 17.4297 16.407 17.1902 16.7701C16.7631 17.4089 16.3303 17.9035 15.6079 18.2398C15.2369 18.4153 14.831 18.5042 14.4206 18.4998Z" fill="#5F6B73"/>
</svg>
