<svg width="40" height="32" viewBox="0 0 40 32" fill="none" xmlns="http://www.w3.org/2000/svg">
<path d="M32.0916 3.64931V30.2637C32.0916 31.8876 31.7129 32.4963 28.6678 31.5537L16.0456 26.6235L3.42348 31.5537C0.391143 32.4963 -0.000327431 31.8895 -0.000327431 30.2637V3.64931C-0.000327431 2.68145 0.42231 1.75323 1.17461 1.06886C1.92691 0.384479 2.94725 0 4.01117 0H28.0801C29.144 0 35.3008 0 35.3008 0C35.3008 0 32.0916 2.68145 32.0916 3.64931Z" fill="url(#paint0_linear_13358_6930)"/>
<path d="M39.1523 3.52369C39.1523 1.57761 37.5747 0 35.6287 0V0C33.6826 0 32.105 1.57761 32.105 3.52369V3.91521H39.1523V3.52369Z" fill="#FAAC51"/>
<defs>
<linearGradient id="paint0_linear_13358_6930" x1="10.3472" y1="40.5" x2="33.7241" y2="-2.277" gradientUnits="userSpaceOnUse">
<stop offset="0.365644" stop-color="#FF9E44" stop-opacity="0.9"/>
<stop offset="0.748056" stop-color="#F5C139" stop-opacity="0.9"/>
<stop offset="0.99713" stop-color="#FEE692"/>
</linearGradient>
</defs>
</svg>
