<svg width="25" height="24" viewBox="0 0 25 24" fill="none" xmlns="http://www.w3.org/2000/svg">
<path d="M9.68122 4V5.38C8.85122 5.05 7.96122 4.88 7.07122 4.88C5.28122 4.88 3.49122 5.56 2.12122 6.93L5.45122 10.26H6.56122V11.37C7.42122 12.23 8.54122 12.68 9.67122 12.73V15H6.68122V18C6.68122 19.1 7.58122 20 8.68122 20H18.6812C20.3412 20 21.6812 18.66 21.6812 17V4H9.68122ZM8.57122 10.41V8.26H6.29122L5.25122 7.22C5.83187 6.99592 6.44882 6.88066 7.07122 6.88C8.41122 6.88 9.66122 7.4 10.6112 8.34L12.0212 9.75L11.8212 9.95C11.57 10.2037 11.2709 10.405 10.9413 10.5423C10.6118 10.6796 10.2582 10.7502 9.90122 10.75C9.43122 10.75 8.97122 10.63 8.57122 10.41ZM19.6812 17C19.6812 17.55 19.2312 18 18.6812 18C18.1312 18 17.6812 17.55 17.6812 17V15H11.6812V12.41C12.2512 12.18 12.7812 11.84 13.2412 11.38L13.4412 11.18L16.2712 14H17.6812V12.59L11.6812 6.62V6H19.6812V17Z" fill="#B7C3CB"/>
</svg>
