<svg width="28" height="24" viewBox="0 0 28 24" fill="none" xmlns="http://www.w3.org/2000/svg">
<path d="M9.18755 16.2187C9.08485 16.2187 8.98216 16.2341 8.88419 16.2667C8.32732 16.4517 7.74165 16.5703 7.12505 16.5703C6.50845 16.5703 5.92279 16.4517 5.36549 16.2667C5.26752 16.2341 5.16525 16.2187 5.06256 16.2187C2.39592 16.2187 0.23589 18.4371 0.250069 21.1679C0.256085 22.3219 1.18378 23.25 2.31256 23.25H11.9375C13.0663 23.25 13.994 22.3219 14 21.1679C14.0142 18.4371 11.8542 16.2187 9.18755 16.2187ZM7.12505 14.8125C9.40325 14.8125 11.25 12.9237 11.25 10.5937C11.25 8.26377 9.40325 6.375 7.12505 6.375C4.84685 6.375 3.00006 8.26377 3.00006 10.5937C3.00006 12.9237 4.84685 14.8125 7.12505 14.8125ZM25.6875 0.75H9.18755C8.05017 0.75 7.12505 1.72778 7.12505 2.92925V4.96875C8.13138 4.96875 9.06294 5.2667 9.87505 5.75098V3.5625H25V16.2187H22.25V13.4062H16.75V16.2187H13.4741C14.2948 16.9522 14.8972 17.9208 15.1795 19.0312H25.6875C26.8249 19.0312 27.75 18.0535 27.75 16.852V2.92925C27.75 1.72778 26.8249 0.75 25.6875 0.75Z" fill="#5F6B73"/>
</svg>
