<svg width="25" height="25" viewBox="0 0 25 25" fill="none" xmlns="http://www.w3.org/2000/svg">
<path fill-rule="evenodd" clip-rule="evenodd" d="M15.7504 2.78477L20.4679 7.78477C20.645 7.96817 20.7435 8.20693 20.7441 8.45477V19.9548C20.74 20.287 20.6663 20.6152 20.5274 20.9207C20.3884 21.2262 20.1869 21.5029 19.9343 21.735C19.6817 21.9672 19.383 22.1502 19.0553 22.2737C18.7275 22.3972 18.3772 22.4587 18.0241 22.4548H6.46414C6.11112 22.4587 5.76074 22.3972 5.43298 22.2737C5.10523 22.1502 4.80654 21.9672 4.55396 21.735C4.30138 21.5029 4.09986 21.2262 3.96091 20.9207C3.82196 20.6152 3.7483 20.287 3.74414 19.9548V4.95477C3.7483 4.62252 3.82196 4.29429 3.96091 3.98884C4.09986 3.68338 4.30138 3.40667 4.55396 3.17452C4.80654 2.94237 5.10523 2.75932 5.43298 2.63583C5.76074 2.51233 6.11112 2.45081 6.46414 2.45477H14.9641C15.1124 2.4551 15.259 2.48463 15.3944 2.54147C15.5298 2.5983 15.6511 2.68118 15.7504 2.78477ZM14.5616 8.17502C14.7027 8.33401 14.9045 8.43447 15.1235 8.45477H18.3429L14.3691 4.45477V7.60477C14.3514 7.81125 14.4205 8.01603 14.5616 8.17502ZM16.5272 11.5801C16.5659 11.6177 16.5944 11.6647 16.6098 11.7165C16.696 11.9962 16.7413 12.2869 16.7441 12.5796C16.7441 14.3027 15.3423 15.7046 13.6191 15.7046C13.4173 15.7046 13.2123 15.6808 12.9873 15.6302C12.7054 15.9733 12.4616 16.2983 12.1854 16.6677C11.679 17.3546 11.1487 18.0236 10.5954 18.6733C10.3918 18.917 10.1374 19.1132 9.85002 19.2482C9.56261 19.3831 9.24916 19.4536 8.93164 19.4546C7.72539 19.4546 6.74414 18.4733 6.74414 17.2671C6.74634 16.95 6.81635 16.637 6.94948 16.3492C7.08261 16.0614 7.27578 15.8053 7.51602 15.5983C8.34606 14.8974 8.95594 14.442 9.49391 14.0402L9.50477 14.0321C9.88289 13.7496 10.2166 13.5002 10.5679 13.2108C10.5179 12.9858 10.4941 12.7815 10.4941 12.5796C10.4941 10.8565 11.896 9.45459 13.6191 9.45459C13.9354 9.45843 14.2493 9.51071 14.5498 9.60959C14.6013 9.62581 14.6478 9.65513 14.6847 9.69468C14.7215 9.73423 14.7475 9.78266 14.76 9.83525C14.7725 9.88783 14.7712 9.94276 14.7562 9.99468C14.7411 10.0466 14.7128 10.0937 14.6741 10.1315L13.021 11.7471L13.2591 12.939L14.4554 13.1783L16.0904 11.5802C16.1288 11.5421 16.1766 11.5147 16.2289 11.5009C16.2812 11.487 16.3363 11.4872 16.3885 11.5015C16.4407 11.5154 16.4885 11.5424 16.5272 11.5801ZM8.93164 17.8921C8.76588 17.8921 8.60691 17.8262 8.4897 17.709C8.37249 17.5918 8.30664 17.4328 8.30664 17.2671C8.30664 17.1013 8.37249 16.9424 8.4897 16.8251C8.60691 16.7079 8.76588 16.6421 8.93164 16.6421C9.0974 16.6421 9.25637 16.7079 9.37358 16.8251C9.49079 16.9424 9.55664 17.1013 9.55664 17.2671C9.55664 17.4328 9.49079 17.5918 9.37358 17.709C9.25637 17.8262 9.0974 17.8921 8.93164 17.8921Z" fill="#448ADD"/>
</svg>
