<svg width="20" height="21" viewBox="0 0 20 21" fill="none" xmlns="http://www.w3.org/2000/svg">
<path d="M10.0005 0.5C4.47685 0.5 5.42613e-08 4.97685 5.42613e-08 10.4995C-0.000136758 11.8128 0.258441 13.1133 0.760966 14.3267C1.26349 15.5401 2.00012 16.6426 2.92878 17.5712C3.85744 18.4999 4.95994 19.2365 6.17333 19.739C7.38671 20.2416 8.6872 20.5001 10.0005 20.5C15.5221 20.5 20 16.0231 20 10.4995C20 4.97685 15.5221 0.5 10.0005 0.5ZM10.9338 4.11023C11.9088 4.11023 12.1952 4.67582 12.1952 5.32267C12.1952 6.12992 11.5494 6.87675 10.4463 6.87675C9.52346 6.87675 9.0839 6.41323 9.11098 5.64557C9.11098 4.99872 9.65158 4.11023 10.9338 4.11023ZM8.43602 16.4888C7.76939 16.4888 7.28295 16.0836 7.74856 14.3076L8.51206 11.1567C8.64434 10.6526 8.66622 10.4505 8.51206 10.4505C8.31311 10.4505 7.44753 10.7984 6.93714 11.1422L6.60486 10.5974C8.22457 9.24434 10.087 8.45063 10.8838 8.45063C11.5504 8.45063 11.6609 9.23809 11.3286 10.4505L10.4536 13.7629C10.2984 14.3482 10.3651 14.5503 10.5203 14.5503C10.7203 14.5503 11.3744 14.3087 12.0181 13.8014L12.3952 14.3076C10.8192 15.8825 9.10161 16.4888 8.43602 16.4888Z" fill="#5F6B73"/>
</svg>
