<svg width="18" height="18" viewBox="0 0 18 18" fill="none" xmlns="http://www.w3.org/2000/svg">
<path fill-rule="evenodd" clip-rule="evenodd" d="M0.666748 8.99984C0.666748 4.39734 4.39758 0.666504 9.00008 0.666504C13.6026 0.666504 17.3334 4.39734 17.3334 8.99984C17.3334 13.6023 13.6026 17.3332 9.00008 17.3332C4.39758 17.3332 0.666748 13.6023 0.666748 8.99984ZM12.0892 7.92234C12.241 7.76517 12.325 7.55467 12.3231 7.33617C12.3212 7.11767 12.2336 6.90866 12.0791 6.75416C11.9246 6.59965 11.7156 6.51201 11.4971 6.51011C11.2786 6.50821 11.0681 6.59221 10.9109 6.744L8.16675 9.48817L7.08925 8.41067C6.93208 8.25887 6.72158 8.17488 6.50308 8.17678C6.28458 8.17867 6.07557 8.26632 5.92107 8.42082C5.76656 8.57533 5.67892 8.78434 5.67702 9.00284C5.67512 9.22133 5.75912 9.43184 5.91092 9.589L7.57758 11.2557C7.73385 11.4119 7.94578 11.4997 8.16675 11.4997C8.38772 11.4997 8.59964 11.4119 8.75591 11.2557L12.0892 7.92234Z" fill="#28A470"/>
</svg>
