<svg width="24" height="24" viewBox="0 0 24 24" fill="none" xmlns="http://www.w3.org/2000/svg">
<path d="M21.38 17.779C21.4694 17.2943 21.4694 16.7993 21.38 16.3145L22.267 15.8023C22.3701 15.7438 22.4148 15.6235 22.3804 15.5101C22.1501 14.7675 21.7547 14.0937 21.239 13.5367C21.16 13.4508 21.0328 13.4302 20.9296 13.4886L20.0427 14.0008C19.6679 13.6811 19.2382 13.4336 18.7741 13.2686V12.2441C18.7741 12.1272 18.6916 12.0241 18.5781 12C18.3859 11.9569 18.1929 11.9251 18 11.9041C17.4235 11.8415 16.8484 11.8764 16.3023 12C16.1888 12.0241 16.1063 12.1272 16.1063 12.2441V13.2686C15.6422 13.4336 15.2125 13.6811 14.8377 14.0008L14.6311 13.8815L13.9508 13.4886C13.8511 13.4302 13.7204 13.4508 13.6414 13.5367C13.4151 13.7811 13.212 14.048 13.0358 14.3333C12.8105 14.6982 12.6293 15.0933 12.5 15.5101C12.4656 15.6235 12.5138 15.7438 12.6134 15.8023L13.5004 16.3145C13.4586 16.5415 13.4363 16.7707 13.4337 17C13.4306 17.2605 13.4529 17.5212 13.5004 17.779L12.6134 18.2913C12.5928 18.303 12.5745 18.3172 12.5586 18.3333C12.4956 18.3977 12.4725 18.4928 12.5 18.5835C12.7303 19.3261 13.1257 19.9965 13.6414 20.5568C13.7204 20.6428 13.8476 20.6634 13.9508 20.605L14.8377 20.0927C15.2125 20.4125 15.6422 20.66 16.1063 20.825V21.8495C16.1063 21.9664 16.1888 22.0695 16.3023 22.0936C16.4595 22.1288 16.6174 22.1566 16.7753 22.177C17.3869 22.256 17.9988 22.2247 18.5781 22.0936C18.6916 22.0695 18.7741 21.9664 18.7741 21.8495V20.825C19.2382 20.66 19.6679 20.4125 20.0427 20.0927L20.9296 20.605C21.0293 20.6634 21.16 20.6428 21.239 20.5568C21.7547 19.9999 22.1501 19.3261 22.3804 18.5835C22.4148 18.4701 22.3667 18.3497 22.267 18.2913L21.38 17.779ZM17.4436 18.7141C16.5223 18.7141 15.7763 17.9647 15.7763 17.0468C15.7763 16.1289 16.5257 15.3794 17.4436 15.3794C17.6385 15.3794 17.8259 15.4132 18 15.4752C18.646 15.7053 19.111 16.3238 19.111 17.0468C19.111 17.7703 18.6475 18.3892 18 18.6188C17.826 18.6805 17.6388 18.7141 17.4436 18.7141Z" fill="#7F9EBB"/>
<path fill-rule="evenodd" clip-rule="evenodd" d="M4 2.33333H6.11333C6.25126 1.94323 6.50678 1.6055 6.84468 1.3667C7.18258 1.1279 7.58623 0.999783 8 1H12C12.4138 0.999783 12.8174 1.1279 13.1553 1.3667C13.4932 1.6055 13.7487 1.94323 13.8867 2.33333H16C16.5304 2.33333 17.0391 2.54405 17.4142 2.91912C17.7893 3.29419 18 3.8029 18 4.33333V11.0282C17.8073 11.0096 17.6119 11 17.4142 11C15.6372 11 14.0406 11.7725 12.942 13H9.33333C9.15652 13 8.98695 13.0702 8.86193 13.1953C8.7369 13.3203 8.66667 13.4899 8.66667 13.6667C8.66667 13.8435 8.7369 14.013 8.86193 14.1381C8.98695 14.2631 9.15652 14.3333 9.33333 14.3333H12.0379C11.6387 15.1366 11.4142 16.0421 11.4142 17L9.33333 17C9.15652 17 8.98695 17.0702 8.86193 17.1953C8.7369 17.3203 8.66667 17.4899 8.66667 17.6667C8.66667 17.8435 8.7369 18.013 8.86193 18.1381C8.98695 18.2631 9.15652 18.3333 9.33333 18.3333H11.5629C11.9586 20.0773 13.114 21.5327 14.6627 22.3333H4C3.46957 22.3333 2.96086 22.1226 2.58579 21.7475C2.21071 21.3725 2 20.8638 2 20.3333V4.33333C2 3.8029 2.21071 3.29419 2.58579 2.91912C2.96086 2.54405 3.46957 2.33333 4 2.33333ZM13.0358 14.3333C12.8105 14.6982 12.6293 15.0933 12.5 15.5101C12.4656 15.6235 12.5138 15.7438 12.6134 15.8023L13.5004 16.3145C13.4586 16.5415 13.4363 16.7707 13.4337 17C13.4306 17.2605 13.4529 17.5212 13.5004 17.779L12.6134 18.2913C12.5928 18.303 12.5745 18.3172 12.5586 18.3333C12.4956 18.3977 12.4725 18.4928 12.5 18.5835C12.7303 19.3261 13.1257 19.9965 13.6414 20.5568C13.7204 20.6428 13.8476 20.6634 13.9508 20.605L14.8377 20.0927C15.2125 20.4125 15.6422 20.66 16.1063 20.825V21.8495C16.1063 21.9664 16.1888 22.0695 16.3023 22.0936C16.4595 22.1288 16.6174 22.1566 16.7753 22.177C17.3869 22.256 17.9988 22.2247 18.5781 22.0936C18.6916 22.0695 18.7741 21.9664 18.7741 21.8495V20.825C19.2382 20.66 19.6679 20.4125 20.0427 20.0927L20.9296 20.605C21.0293 20.6634 21.16 20.6428 21.239 20.5568C21.7547 19.9999 22.1501 19.3261 22.3804 18.5835C22.4148 18.4701 22.3667 18.3497 22.267 18.2913L21.38 17.779C21.4694 17.2943 21.4694 16.7993 21.38 16.3145L22.267 15.8023C22.3701 15.7438 22.4148 15.6235 22.3804 15.5101C22.1501 14.7675 21.7547 14.0937 21.239 13.5367C21.16 13.4508 21.0328 13.4302 20.9296 13.4886L20.0427 14.0008C19.6679 13.6811 19.2382 13.4336 18.7741 13.2686V12.2441C18.7741 12.1272 18.6916 12.0241 18.5781 12C18.3859 11.9569 18.1929 11.9251 18 11.9041C17.4235 11.8415 16.8484 11.8764 16.3023 12C16.1888 12.0241 16.1063 12.1272 16.1063 12.2441V13.2686C15.6422 13.4336 15.2125 13.6811 14.8377 14.0008L14.6311 13.8815L13.9508 13.4886C13.8511 13.4302 13.7204 13.4508 13.6414 13.5367C13.4151 13.7811 13.212 14.048 13.0358 14.3333ZM12 2.33333H8C7.82319 2.33333 7.65362 2.40357 7.52859 2.5286C7.40357 2.65362 7.33333 2.82319 7.33333 3C7.33333 3.17681 7.40357 3.34638 7.52859 3.4714C7.65362 3.59643 7.82319 3.66667 8 3.66667H12C12.1768 3.66667 12.3464 3.59643 12.4714 3.4714C12.5964 3.34638 12.6667 3.17681 12.6667 3C12.6667 2.82319 12.5964 2.65362 12.4714 2.5286C12.3464 2.40357 12.1768 2.33333 12 2.33333ZM8.86193 9.19526C8.7369 9.32028 8.66667 9.48985 8.66667 9.66667C8.66667 9.84348 8.7369 10.013 8.86193 10.1381C8.98695 10.2631 9.15652 10.3333 9.33333 10.3333H14C14.1768 10.3333 14.3464 10.2631 14.4714 10.1381C14.5964 10.013 14.6667 9.84348 14.6667 9.66667C14.6667 9.48985 14.5964 9.32028 14.4714 9.19526C14.3464 9.07024 14.1768 9 14 9H9.33333C9.15652 9 8.98695 9.07024 8.86193 9.19526ZM7.04044 10.3738C7.22798 10.1862 7.33333 9.93188 7.33333 9.66667C7.33333 9.40145 7.22798 9.14709 7.04044 8.95956C6.8529 8.77202 6.59855 8.66667 6.33333 8.66667C6.06812 8.66667 5.81376 8.77202 5.62623 8.95956C5.43869 9.14709 5.33333 9.40145 5.33333 9.66667C5.33333 9.93188 5.43869 10.1862 5.62623 10.3738C5.81376 10.5613 6.06812 10.6667 6.33333 10.6667C6.59855 10.6667 6.8529 10.5613 7.04044 10.3738ZM7.04044 14.3738C7.22798 14.1862 7.33333 13.9319 7.33333 13.6667C7.33333 13.4014 7.22798 13.1471 7.04044 12.9596C6.8529 12.772 6.59855 12.6667 6.33333 12.6667C6.06812 12.6667 5.81376 12.772 5.62623 12.9596C5.43869 13.1471 5.33333 13.4014 5.33333 13.6667C5.33333 13.9319 5.43869 14.1862 5.62623 14.3738C5.81376 14.5613 6.06812 14.6667 6.33333 14.6667C6.59855 14.6667 6.8529 14.5613 7.04044 14.3738ZM5.62623 18.3738C5.81376 18.5613 6.06812 18.6667 6.33333 18.6667C6.59855 18.6667 6.8529 18.5613 7.04044 18.3738C7.22798 18.1862 7.33333 17.9319 7.33333 17.6667C7.33333 17.4014 7.22798 17.1471 7.04044 16.9596C6.8529 16.772 6.59855 16.6667 6.33333 16.6667C6.06812 16.6667 5.81376 16.772 5.62623 16.9596C5.43869 17.1471 5.33333 17.4014 5.33333 17.6667C5.33333 17.9319 5.43869 18.1862 5.62623 18.3738ZM15.7763 17.0468C15.7763 17.9647 16.5223 18.7141 17.4436 18.7141C17.6388 18.7141 17.826 18.6805 18 18.6188C18.6475 18.3892 19.111 17.7703 19.111 17.0468C19.111 16.3238 18.646 15.7053 18 15.4752C17.8259 15.4132 17.6385 15.3794 17.4436 15.3794C16.5257 15.3794 15.7763 16.1289 15.7763 17.0468Z" fill="#7F9EBB"/>
</svg>
