<svg width="32" height="32" viewBox="0 0 32 32" fill="none" xmlns="http://www.w3.org/2000/svg">
<path d="M17.6663 4.33317C17.6663 3.89114 17.4907 3.46722 17.1782 3.15466C16.8656 2.8421 16.4417 2.6665 15.9997 2.6665C15.5576 2.6665 15.1337 2.8421 14.8212 3.15466C14.5086 3.46722 14.333 3.89114 14.333 4.33317V5.99984C14.333 6.44187 14.5086 6.86579 14.8212 7.17835C15.1337 7.49091 15.5576 7.6665 15.9997 7.6665C16.4417 7.6665 16.8656 7.49091 17.1782 7.17835C17.4907 6.86579 17.6663 6.44187 17.6663 5.99984V4.33317Z" fill="url(#paint0_linear_14111_37658)"/>
<path d="M25.4267 8.92804C25.7303 8.6137 25.8983 8.19269 25.8945 7.7557C25.8907 7.31871 25.7154 6.90068 25.4064 6.59167C25.0974 6.28266 24.6793 6.10738 24.2424 6.10358C23.8054 6.09978 23.3844 6.26777 23.07 6.57137L21.8917 7.7497C21.5881 8.06404 21.4201 8.48504 21.4239 8.92204C21.4277 9.35903 21.603 9.77705 21.912 10.0861C22.221 10.3951 22.639 10.5704 23.076 10.5742C23.513 10.578 23.934 10.41 24.2483 10.1064L25.4267 8.92804Z" fill="url(#paint1_linear_14111_37658)"/>
<path d="M29.332 15.9997C29.332 16.4417 29.1564 16.8656 28.8439 17.1782C28.5313 17.4907 28.1074 17.6663 27.6654 17.6663H25.9987C25.5567 17.6663 25.1327 17.4907 24.8202 17.1782C24.5076 16.8656 24.332 16.4417 24.332 15.9997C24.332 15.5576 24.5076 15.1337 24.8202 14.8212C25.1327 14.5086 25.5567 14.333 25.9987 14.333H27.6654C28.1074 14.333 28.5313 14.5086 28.8439 14.8212C29.1564 15.1337 29.332 15.5576 29.332 15.9997Z" fill="url(#paint2_linear_14111_37658)"/>
<path d="M7.7497 10.1064C7.90345 10.2656 8.08735 10.3925 8.29069 10.4799C8.49403 10.5672 8.71273 10.6132 8.93403 10.6151C9.15533 10.617 9.3748 10.5749 9.57963 10.4911C9.78445 10.4073 9.97054 10.2835 10.127 10.127C10.2835 9.97054 10.4073 9.78445 10.4911 9.57963C10.5749 9.3748 10.617 9.15533 10.6151 8.93403C10.6132 8.71273 10.5672 8.49403 10.4799 8.29069C10.3925 8.08735 10.2656 7.90345 10.1064 7.7497L8.92804 6.57137C8.6137 6.26777 8.19269 6.09978 7.7557 6.10358C7.31871 6.10738 6.90068 6.28266 6.59167 6.59167C6.28266 6.90068 6.10738 7.31871 6.10358 7.7557C6.09978 8.19269 6.26777 8.6137 6.57137 8.92804L7.7497 10.1064Z" fill="url(#paint3_linear_14111_37658)"/>
<path d="M7.66602 15.9997C7.66602 16.4417 7.49042 16.8656 7.17786 17.1782C6.8653 17.4907 6.44138 17.6663 5.99935 17.6663H4.33268C3.89066 17.6663 3.46673 17.4907 3.15417 17.1782C2.84161 16.8656 2.66602 16.4417 2.66602 15.9997C2.66602 15.5576 2.84161 15.1337 3.15417 14.8212C3.46673 14.5086 3.89066 14.333 4.33268 14.333H5.99935C6.44138 14.333 6.8653 14.5086 7.17786 14.8212C7.49042 15.1337 7.66602 15.5576 7.66602 15.9997Z" fill="url(#paint4_linear_14111_37658)"/>
<path d="M12.666 25.9997V24.333H19.3327V25.9997C19.3327 26.8837 18.9815 27.7316 18.3564 28.3567C17.7313 28.9818 16.8834 29.333 15.9993 29.333C15.1153 29.333 14.2674 28.9818 13.6423 28.3567C13.0172 27.7316 12.666 26.8837 12.666 25.9997Z" fill="url(#paint5_linear_14111_37658)"/>
<path d="M19.332 22.6665C19.357 22.0998 19.6787 21.5898 20.127 21.2348C21.2148 20.3769 22.0083 19.2014 22.3973 17.8717C22.7862 16.542 22.7512 15.1242 22.2972 13.8153C21.8432 12.5065 20.9926 11.3715 19.8639 10.5683C18.7351 9.7651 17.3841 9.3335 15.9987 9.3335C14.6133 9.3335 13.2623 9.7651 12.1335 10.5683C11.0048 11.3715 10.1542 12.5065 9.70021 13.8153C9.24618 15.1242 9.2112 16.542 9.60013 17.8717C9.98905 19.2014 10.7826 20.3769 11.8704 21.2348C12.3204 21.5898 12.6404 22.0998 12.6637 22.6665H19.3337H19.332Z" fill="url(#paint6_linear_14111_37658)"/>
<defs>
<linearGradient id="paint0_linear_14111_37658" x1="16.6493" y1="1.67494" x2="13.9437" y2="6.64599" gradientUnits="userSpaceOnUse">
<stop stop-color="#7CBEFA"/>
<stop offset="1" stop-color="#626EDA"/>
</linearGradient>
<linearGradient id="paint1_linear_14111_37658" x1="24.5305" y1="5.21692" x2="22.6831" y2="10.3082" gradientUnits="userSpaceOnUse">
<stop stop-color="#7CBEFA"/>
<stop offset="1" stop-color="#626EDA"/>
</linearGradient>
<linearGradient id="paint2_linear_14111_37658" x1="27.8065" y1="13.672" x2="26.8248" y2="17.7303" gradientUnits="userSpaceOnUse">
<stop stop-color="#7CBEFA"/>
<stop offset="1" stop-color="#626EDA"/>
</linearGradient>
<linearGradient id="paint3_linear_14111_37658" x1="9.23862" y1="5.2088" x2="7.37432" y2="10.3467" gradientUnits="userSpaceOnUse">
<stop stop-color="#7CBEFA"/>
<stop offset="1" stop-color="#626EDA"/>
</linearGradient>
<linearGradient id="paint4_linear_14111_37658" x1="6.14046" y1="13.672" x2="5.15874" y2="17.7303" gradientUnits="userSpaceOnUse">
<stop stop-color="#7CBEFA"/>
<stop offset="1" stop-color="#626EDA"/>
</linearGradient>
<linearGradient id="paint5_linear_14111_37658" x1="17.2986" y1="23.3414" x2="15.6659" y2="29.3408" gradientUnits="userSpaceOnUse">
<stop stop-color="#7CBEFA"/>
<stop offset="1" stop-color="#626EDA"/>
</linearGradient>
<linearGradient id="paint6_linear_14111_37658" x1="18.5972" y1="6.68941" x2="13.0879" y2="21.8731" gradientUnits="userSpaceOnUse">
<stop stop-color="#7CBEFA"/>
<stop offset="1" stop-color="#626EDA"/>
</linearGradient>
</defs>
</svg>
