<svg width="20" height="20" viewBox="0 0 20 20" fill="none" xmlns="http://www.w3.org/2000/svg">
<path d="M5 18.3334C4.33696 18.3334 3.70107 18.07 3.23223 17.6012C2.76339 17.1323 2.5 16.4965 2.5 15.8334V4.16675C2.5 3.50371 2.76339 2.86782 3.23223 2.39898C3.70107 1.93014 4.33696 1.66675 5 1.66675H11.81C12.4727 1.66711 13.1081 1.93058 13.5767 2.39925L16.7683 5.58925C17.2369 6.05812 17.5001 6.69388 17.5 7.35675V15.8334C17.5 16.4965 17.2366 17.1323 16.7678 17.6012C16.2989 18.07 15.663 18.3334 15 18.3334H5ZM4.16667 15.8334C4.16667 16.0544 4.25446 16.2664 4.41074 16.4227C4.56702 16.579 4.77899 16.6667 5 16.6667H15C15.221 16.6667 15.433 16.579 15.5893 16.4227C15.7455 16.2664 15.8333 16.0544 15.8333 15.8334V8.33342H13.3333C12.6703 8.33342 12.0344 8.07002 11.5656 7.60118C11.0967 7.13234 10.8333 6.49646 10.8333 5.83342V3.33341H5C4.77899 3.33341 4.56702 3.42121 4.41074 3.57749C4.25446 3.73377 4.16667 3.94573 4.16667 4.16675V15.8334ZM13.3333 6.66675H15.4883L12.5 3.67841V5.83342C12.5 6.05443 12.5878 6.26639 12.7441 6.42267C12.9004 6.57895 13.1123 6.66675 13.3333 6.66675ZM6.66667 10.0001C6.44565 10.0001 6.23369 10.0879 6.07741 10.2442C5.92113 10.4004 5.83333 10.6124 5.83333 10.8334C5.83333 11.0544 5.92113 11.2664 6.07741 11.4227C6.23369 11.579 6.44565 11.6667 6.66667 11.6667H13.3333C13.5543 11.6667 13.7663 11.579 13.9226 11.4227C14.0789 11.2664 14.1667 11.0544 14.1667 10.8334C14.1667 10.6124 14.0789 10.4004 13.9226 10.2442C13.7663 10.0879 13.5543 10.0001 13.3333 10.0001H6.66667ZM6.66667 13.3334C6.44565 13.3334 6.23369 13.4212 6.07741 13.5775C5.92113 13.7338 5.83333 13.9457 5.83333 14.1667C5.83333 14.3878 5.92113 14.5997 6.07741 14.756C6.23369 14.9123 6.44565 15.0001 6.66667 15.0001H10C10.221 15.0001 10.433 14.9123 10.5893 14.756C10.7455 14.5997 10.8333 14.3878 10.8333 14.1667C10.8333 13.9457 10.7455 13.7338 10.5893 13.5775C10.433 13.4212 10.221 13.3334 10 13.3334H6.66667Z" fill="#5F6B73"/>
</svg>
