<svg width="18" height="18" viewBox="0 0 18 18" fill="none" xmlns="http://www.w3.org/2000/svg">
<path d="M8.99984 0.666626C7.35166 0.666626 5.7405 1.15537 4.37009 2.07105C2.99968 2.98672 1.93158 4.28821 1.30084 5.81093C0.670115 7.33365 0.505087 9.0092 0.82663 10.6257C1.14817 12.2422 1.94185 13.7271 3.10728 14.8925C4.27272 16.058 5.75758 16.8516 7.37409 17.1732C8.9906 17.4947 10.6662 17.3297 12.1889 16.699C13.7116 16.0682 15.0131 15.0001 15.9288 13.6297C16.8444 12.2593 17.3332 10.6481 17.3332 8.99996C17.3332 7.90561 17.1176 6.82198 16.6988 5.81093C16.28 4.79988 15.6662 3.88122 14.8924 3.1074C14.1186 2.33358 13.1999 1.71975 12.1889 1.30096C11.1778 0.882174 10.0942 0.666626 8.99984 0.666626ZM8.99984 15.6666C7.6813 15.6666 6.39237 15.2756 5.29604 14.5431C4.19971 13.8105 3.34523 12.7694 2.84064 11.5512C2.33606 10.333 2.20404 8.99256 2.46127 7.69936C2.71851 6.40615 3.35345 5.21826 4.2858 4.28591C5.21815 3.35356 6.40603 2.71863 7.69924 2.46139C8.99245 2.20416 10.3329 2.33618 11.5511 2.84076C12.7692 3.34535 13.8104 4.19983 14.543 5.29616C15.2755 6.39249 15.6665 7.68142 15.6665 8.99996C15.6665 10.7681 14.9641 12.4638 13.7139 13.714C12.4636 14.9642 10.768 15.6666 8.99984 15.6666Z" fill="#448ADD"/>
<path fill-rule="evenodd" clip-rule="evenodd" d="M0.666504 8.99953C0.666504 4.39733 4.39678 0.666626 8.99984 0.666626C13.6012 0.666626 17.3332 4.39777 17.3332 8.99996C17.3332 13.603 13.6016 17.3333 9.00027 17.3333C7.90583 17.3334 6.82209 17.1179 5.81094 16.6992C4.79979 16.2804 3.88117 15.6664 3.10728 14.8925C2.3334 14.1186 1.71941 13.2 1.30064 12.1889C0.881871 11.1777 0.66639 10.094 0.666504 8.99953ZM5.29604 14.5431C6.39237 15.2756 7.6813 15.6666 8.99984 15.6666C10.768 15.6666 12.4636 14.9642 13.7139 13.714C14.9641 12.4638 15.6665 10.7681 15.6665 8.99996C15.6665 7.68142 15.2755 6.39249 14.543 5.29616C13.8104 4.19983 12.7692 3.34535 11.5511 2.84076C10.3329 2.33618 8.99245 2.20416 7.69924 2.46139C6.40603 2.71863 5.21815 3.35356 4.2858 4.28591C3.35345 5.21826 2.71851 6.40615 2.46127 7.69936C2.20404 8.99256 2.33606 10.333 2.84064 11.5512C3.34523 12.7694 4.19971 13.8105 5.29604 14.5431Z" fill="#448ADD"/>
<path d="M7.69652 13.9906C7.14099 13.9906 6.73563 13.6529 7.12363 12.173L7.75988 9.54724C7.87012 9.12712 7.88835 8.95873 7.75988 8.95873C7.59409 8.95873 6.87278 9.24864 6.44745 9.53509L6.17056 9.08112C7.52031 7.95357 9.07232 7.29215 9.73634 7.29215C10.2919 7.29215 10.3839 7.94837 10.107 8.95873L9.37786 11.719C9.24852 12.2068 9.30408 12.3752 9.43341 12.3752C9.60007 12.3752 10.1452 12.1738 10.6816 11.7511L10.9958 12.173C9.68253 13.4854 8.25118 13.9906 7.69652 13.9906Z" fill="#448ADD"/>
<path d="M9.77801 3.67515C10.5905 3.67515 10.8292 4.14648 10.8292 4.68551C10.8292 5.35822 10.291 5.98059 9.37178 5.98059C8.60272 5.98059 8.23642 5.59432 8.25899 4.9546C8.25899 4.41556 8.70949 3.67515 9.77801 3.67515Z" fill="#448ADD"/>
</svg>
