<svg width="21" height="21" viewBox="0 0 21 21" fill="none" xmlns="http://www.w3.org/2000/svg">
<path fill-rule="evenodd" clip-rule="evenodd" d="M0.244141 1.56445C0.244141 1.01217 0.691856 0.564453 1.24414 0.564453H8.24414C8.79642 0.564453 9.24414 1.01217 9.24414 1.56445V8.56445C9.24414 9.11674 8.79642 9.56445 8.24414 9.56445H1.24414C0.691856 9.56445 0.244141 9.11674 0.244141 8.56445V1.56445ZM2.24414 2.56445V7.56445H7.24414V2.56445H2.24414Z" fill="#B7C3CB"/>
<path fill-rule="evenodd" clip-rule="evenodd" d="M11.2441 1.56445C11.2441 1.01217 11.6919 0.564453 12.2441 0.564453H19.2441C19.7964 0.564453 20.2441 1.01217 20.2441 1.56445V8.56445C20.2441 9.11674 19.7964 9.56445 19.2441 9.56445H12.2441C11.6919 9.56445 11.2441 9.11674 11.2441 8.56445V1.56445Z" fill="#B7C3CB"/>
<path fill-rule="evenodd" clip-rule="evenodd" d="M11.2441 12.5645C11.2441 12.0122 11.6919 11.5645 12.2441 11.5645H19.2441C19.7964 11.5645 20.2441 12.0122 20.2441 12.5645V19.5645C20.2441 20.1167 19.7964 20.5645 19.2441 20.5645H12.2441C11.6919 20.5645 11.2441 20.1167 11.2441 19.5645V12.5645Z" fill="#B7C3CB"/>
<path fill-rule="evenodd" clip-rule="evenodd" d="M0.244141 12.5645C0.244141 12.0122 0.691856 11.5645 1.24414 11.5645H8.24414C8.79642 11.5645 9.24414 12.0122 9.24414 12.5645V19.5645C9.24414 20.1167 8.79642 20.5645 8.24414 20.5645H1.24414C0.691856 20.5645 0.244141 20.1167 0.244141 19.5645V12.5645Z" fill="#B7C3CB"/>
</svg>
