<svg width="21" height="21" viewBox="0 0 21 21" fill="none" xmlns="http://www.w3.org/2000/svg">
<path d="M20.5 10.498C20.5 4.97505 16.023 0.498047 10.5 0.498047C4.97701 0.498047 0.500009 4.97505 0.500009 10.498C0.49782 12.1181 0.890847 13.7142 1.64501 15.148L0.529009 19.437C0.491892 19.5803 0.49283 19.7308 0.531731 19.8736C0.570633 20.0164 0.646148 20.1466 0.750806 20.2513C0.855463 20.3559 0.985635 20.4314 1.12844 20.4703C1.27124 20.5092 1.42173 20.5102 1.56501 20.473L5.85501 19.356C7.28758 20.1084 8.88189 20.5004 10.5 20.498C16.023 20.498 20.5 16.021 20.5 10.498ZM10.5 5.00005C10.6989 5.00005 10.8897 5.07906 11.0303 5.21972C11.171 5.36037 11.25 5.55113 11.25 5.75005V12C11.25 12.199 11.171 12.3897 11.0303 12.5304C10.8897 12.671 10.6989 12.75 10.5 12.75C10.3011 12.75 10.1103 12.671 9.96968 12.5304C9.82903 12.3897 9.75001 12.199 9.75001 12V5.75005C9.75001 5.55113 9.82903 5.36037 9.96968 5.21972C10.1103 5.07906 10.3011 5.00005 10.5 5.00005ZM11.5 14.997C11.5 15.2623 11.3947 15.5166 11.2071 15.7042C11.0196 15.8917 10.7652 15.997 10.5 15.997C10.2348 15.997 9.98044 15.8917 9.7929 15.7042C9.60537 15.5166 9.50001 15.2623 9.50001 14.997C9.50001 14.7318 9.60537 14.4775 9.7929 14.2899C9.98044 14.1024 10.2348 13.997 10.5 13.997C10.7652 13.997 11.0196 14.1024 11.2071 14.2899C11.3947 14.4775 11.5 14.7318 11.5 14.997Z" fill="#5F6B73"/>
</svg>
