<svg width="20" height="18" viewBox="0 0 20 20" fill="none" xmlns="http://www.w3.org/2000/svg">
<path d="M17.0833 18.5156V19.1667H2.5V18.5156C2.5 18.2999 2.6749 18.125 2.89063 18.125H3.54167V6.40625C3.54167 5.97477 3.89144 5.625 4.32292 5.625H7.1875V3.28125C7.1875 2.84977 7.53727 2.5 7.96875 2.5H11.6146C12.0461 2.5 12.3958 2.84977 12.3958 3.28125V5.625H15.2604C15.6919 5.625 16.0417 5.97477 16.0417 6.40625V18.125H16.6927C16.9084 18.125 17.0833 18.2999 17.0833 18.5156ZM12.526 8.75H11.224C11.0082 8.75 10.8333 8.9249 10.8333 9.14062V10.4427C10.8333 10.6584 11.0082 10.8333 11.224 10.8333H12.526C12.7418 10.8333 12.9167 10.6584 12.9167 10.4427V9.14062C12.9167 8.9249 12.7418 8.75 12.526 8.75ZM7.05729 10.8333H8.35938C8.5751 10.8333 8.75 10.6584 8.75 10.4427V9.14062C8.75 8.9249 8.5751 8.75 8.35938 8.75H7.05729C6.84157 8.75 6.66667 8.9249 6.66667 9.14062V10.4427C6.66667 10.6584 6.84157 10.8333 7.05729 10.8333ZM10.4427 15H9.14063C8.9249 15 8.75 15.1749 8.75 15.3906V18.125H10.8333V15.3906C10.8333 15.1749 10.6584 15 10.4427 15ZM12.526 11.875H11.224C11.0082 11.875 10.8333 12.0499 10.8333 12.2656V13.5677C10.8333 13.7834 11.0082 13.9583 11.224 13.9583H12.526C12.7418 13.9583 12.9167 13.7834 12.9167 13.5677V12.2656C12.9167 12.0499 12.7418 11.875 12.526 11.875ZM8.75 12.2656C8.75 12.0499 8.5751 11.875 8.35938 11.875H7.05729C6.84157 11.875 6.66667 12.0499 6.66667 12.2656V13.5677C6.66667 13.7834 6.84157 13.9583 7.05729 13.9583H8.35938C8.5751 13.9583 8.75 13.7834 8.75 13.5677V12.2656ZM8.42448 5.625H9.27083V6.47135C9.27083 6.52315 9.29141 6.57283 9.32804 6.60946C9.36467 6.64609 9.41435 6.66667 9.46615 6.66667H10.1172C10.169 6.66667 10.2187 6.64609 10.2553 6.60946C10.2919 6.57283 10.3125 6.52315 10.3125 6.47135V5.625H11.1589C11.2107 5.625 11.2603 5.60442 11.297 5.56779C11.3336 5.53117 11.3542 5.48149 11.3542 5.42969V4.77865C11.3542 4.72685 11.3336 4.67717 11.297 4.64054C11.2603 4.60391 11.2107 4.58333 11.1589 4.58333H10.3125V3.73698C10.3125 3.68518 10.2919 3.6355 10.2553 3.59887C10.2187 3.56224 10.169 3.54167 10.1172 3.54167H9.46615C9.41435 3.54167 9.36467 3.56224 9.32804 3.59887C9.29141 3.6355 9.27083 3.68518 9.27083 3.73698V4.58333H8.42448C8.37268 4.58333 8.323 4.60391 8.28637 4.64054C8.24974 4.67717 8.22917 4.72685 8.22917 4.77865V5.42969C8.22917 5.48149 8.24974 5.53117 8.28637 5.56779C8.323 5.60442 8.37268 5.625 8.42448 5.625Z" fill="#5F6B73"/>
</svg>
