<svg width="26" height="23" viewBox="0 0 26 23" fill="none" xmlns="http://www.w3.org/2000/svg">
<path d="M4.4921 0.362671C3.46325 0.362671 2.47653 0.757759 1.74902 1.46102C1.0215 2.16428 0.612793 3.11811 0.612793 4.11267V16.6127C0.612793 17.6072 1.0215 18.5611 1.74902 19.2643C2.47653 19.9676 3.46325 20.3627 4.4921 20.3627H15.0568C14.0757 19.1812 13.5419 17.711 13.5438 16.196C13.5438 15.8775 13.6124 15.5624 13.7454 15.271C13.8784 14.9795 14.0727 14.7181 14.3161 14.5033C14.5594 14.2885 14.8464 14.1251 15.1587 14.0236C15.4711 13.922 15.8019 13.8845 16.13 13.9135V12.8627C16.13 11.7576 16.5842 10.6978 17.3925 9.91639C18.2008 9.13499 19.2972 8.696 20.4404 8.696C21.5835 8.696 22.6799 9.13499 23.4882 9.91639C24.2966 10.6978 24.7507 11.7576 24.7507 12.8627V4.11267C24.7507 3.11811 24.342 2.16428 23.6145 1.46102C22.887 0.757759 21.9003 0.362671 20.8714 0.362671H4.4921ZM5.78521 5.36267C5.78521 5.14166 5.87603 4.9297 6.0377 4.77342C6.19937 4.61714 6.41864 4.52934 6.64727 4.52934H11.8197C12.0483 4.52934 12.2676 4.61714 12.4293 4.77342C12.5909 4.9297 12.6818 5.14166 12.6818 5.36267C12.6818 5.58368 12.5909 5.79565 12.4293 5.95193C12.2676 6.10821 12.0483 6.196 11.8197 6.196H6.64727C6.41864 6.196 6.19937 6.10821 6.0377 5.95193C5.87603 5.79565 5.78521 5.58368 5.78521 5.36267ZM6.64727 12.8627H11.8197C12.0483 12.8627 12.2676 12.9505 12.4293 13.1067C12.5909 13.263 12.6818 13.475 12.6818 13.696C12.6818 13.917 12.5909 14.129 12.4293 14.2853C12.2676 14.4415 12.0483 14.5293 11.8197 14.5293H6.64727C6.41864 14.5293 6.19937 14.4415 6.0377 14.2853C5.87603 14.129 5.78521 13.917 5.78521 13.696C5.78521 13.475 5.87603 13.263 6.0377 13.1067C6.19937 12.9505 6.41864 12.8627 6.64727 12.8627ZM5.78521 9.52934C5.78521 9.30832 5.87603 9.09636 6.0377 8.94008C6.19937 8.7838 6.41864 8.696 6.64727 8.696H14.4059C14.6345 8.696 14.8538 8.7838 15.0155 8.94008C15.1771 9.09636 15.268 9.30832 15.268 9.52934C15.268 9.75035 15.1771 9.96231 15.0155 10.1186C14.8538 10.2749 14.6345 10.3627 14.4059 10.3627H6.64727C6.41864 10.3627 6.19937 10.2749 6.0377 10.1186C5.87603 9.96231 5.78521 9.75035 5.78521 9.52934ZM16.5852 19.5293C15.735 18.6138 15.2657 17.4263 15.268 16.196C15.268 16.0302 15.3361 15.8713 15.4573 15.7541C15.5786 15.6369 15.743 15.571 15.9145 15.571C16.086 15.571 16.2504 15.6369 16.3717 15.7541C16.4929 15.8713 16.5611 16.0302 16.5611 16.196C16.5611 17.156 16.9343 18.0327 17.549 18.696C18.2049 19.4081 19.118 19.8504 20.1007 19.9318L20.1154 19.9335C20.4402 19.9595 20.7672 19.9464 21.0886 19.8943L21.1042 19.891C21.6463 19.8006 22.1621 19.5992 22.6171 19.3002C23.024 19.0335 23.3757 18.6935 23.6516 18.3002C24.0883 17.6798 24.3211 16.9464 24.3197 16.196C24.3197 16.0302 24.3878 15.8713 24.5091 15.7541C24.6303 15.6369 24.7948 15.571 24.9662 15.571C25.1377 15.571 25.3022 15.6369 25.4234 15.7541C25.5447 15.8713 25.6128 16.0302 25.6128 16.196C25.6143 17.1969 25.3037 18.175 24.7214 19.0027C24.3531 19.5265 23.8857 19.9783 23.3438 20.3343C22.7305 20.7377 22.0341 21.0081 21.3024 21.1268V22.2377C21.3024 22.4034 21.2343 22.5624 21.1131 22.6796C20.9918 22.7968 20.8274 22.8627 20.6559 22.8627C20.4844 22.8627 20.32 22.7968 20.1987 22.6796C20.0775 22.5624 20.0093 22.4034 20.0093 22.2377V21.1793C19.1411 21.1104 18.3052 20.8294 17.58 20.3627C17.2132 20.1267 16.879 19.8467 16.5852 19.5293ZM17.8542 12.8627C17.8542 12.5344 17.9211 12.2093 18.051 11.906C18.181 11.6026 18.3715 11.3271 18.6116 11.0949C18.8518 10.8628 19.1369 10.6786 19.4507 10.553C19.7644 10.4273 20.1007 10.3627 20.4404 10.3627C20.78 10.3627 21.1163 10.4273 21.4301 10.553C21.7438 10.6786 22.0289 10.8628 22.2691 11.0949C22.5092 11.3271 22.6997 11.6026 22.8297 11.906C22.9597 12.2093 23.0266 12.5344 23.0266 12.8627V16.196C23.0266 16.5243 22.9597 16.8494 22.8297 17.1527C22.6997 17.456 22.5092 17.7316 22.2691 17.9638C22.0289 18.1959 21.7438 18.3801 21.4301 18.5057C21.1163 18.6313 20.78 18.696 20.4404 18.696C20.1007 18.696 19.7644 18.6313 19.4507 18.5057C19.1369 18.3801 18.8518 18.1959 18.6116 17.9638C18.3715 17.7316 18.181 17.456 18.051 17.1527C17.9211 16.8494 17.8542 16.5243 17.8542 16.196V12.8627Z" fill="#5F6B73"/>
</svg>
