<svg width="40" height="32" viewBox="0 0 40 32" fill="none" xmlns="http://www.w3.org/2000/svg">
<path d="M32.0916 3.64931V30.2637C32.0916 31.8876 31.7129 32.4963 28.6678 31.5537L16.0456 26.6235L3.42348 31.5537C0.391144 32.4963 -0.000328064 31.8895 -0.000328064 30.2637V3.64931C-0.000328064 2.68145 0.42231 1.75323 1.17461 1.06886C1.92691 0.384479 2.94725 0 4.01117 0H28.0801C29.144 0 35.3008 0 35.3008 0C35.3008 0 32.0916 2.68145 32.0916 3.64931Z" fill="url(#paint0_linear_13358_2658)"/>
<path d="M39.1523 3.52369C39.1523 1.57761 37.5747 0 35.6287 0C33.6826 0 32.105 1.57761 32.105 3.52369V3.91521H39.1523V3.52369Z" fill="#04AE66"/>
<defs>
<linearGradient id="paint0_linear_13358_2658" x1="-0.000377196" y1="32.1048" x2="8.5749" y2="-6.98545" gradientUnits="userSpaceOnUse">
<stop stop-color="#07A85B"/>
<stop offset="0.473958" stop-color="#00B473"/>
<stop offset="1" stop-color="#4FDB43"/>
</linearGradient>
</defs>
</svg>
