<svg width="23" height="21" viewBox="0 0 23 21" fill="none" xmlns="http://www.w3.org/2000/svg">
<path d="M1.68127 18V17C1.68127 15.1435 2.41877 13.363 3.73153 12.0503C5.04428 10.7375 6.82476 10 8.68127 10M14.9039 14.8471L15.9824 15.9243L18.1412 13.7699M9.18127 10C10.3747 10 11.5193 9.52589 12.3633 8.68198C13.2072 7.83807 13.6813 6.69347 13.6813 5.5C13.6813 4.30653 13.2072 3.16193 12.3633 2.31802C11.5193 1.47411 10.3747 1 9.18127 1C7.9878 1 6.84321 1.47411 5.99929 2.31802C5.15538 3.16193 4.68127 4.30653 4.68127 5.5C4.68127 6.69347 5.15538 7.83807 5.99929 8.68198C6.84321 9.52589 7.9878 10 9.18127 10V10ZM15.3395 10.2151C15.4895 10.0506 15.6722 9.91921 15.876 9.82932C16.0797 9.73943 16.3 9.69299 16.5228 9.69299C16.7455 9.69299 16.9658 9.73943 17.1696 9.82932C17.3733 9.91921 17.5561 10.0506 17.7061 10.2151V10.2151C18.0276 10.5679 18.4877 10.7586 18.9646 10.7359C19.1872 10.7254 19.4095 10.7615 19.6173 10.8419C19.8252 10.9222 20.0139 11.045 20.1715 11.2024C20.3291 11.3598 20.452 11.5484 20.5324 11.7559C20.6129 11.9635 20.649 12.1856 20.6386 12.408V12.408C20.6158 12.8833 20.8068 13.3438 21.159 13.665C21.8565 14.2994 21.8565 15.3944 21.159 16.0289C20.8068 16.35 20.6158 16.8096 20.6386 17.2859C20.649 17.5083 20.6129 17.7303 20.5324 17.9379C20.452 18.1455 20.3291 18.334 20.1715 18.4914C20.0139 18.6488 19.8252 18.7716 19.6173 18.852C19.4095 18.9323 19.1872 18.9684 18.9646 18.958V18.958C18.7294 18.9469 18.4947 18.9877 18.2772 19.0776C18.0597 19.1674 17.8647 19.3041 17.7061 19.4778C17.5561 19.6423 17.3733 19.7737 17.1696 19.8636C16.9658 19.9534 16.7455 19.9999 16.5228 19.9999C16.3 19.9999 16.0797 19.9534 15.876 19.8636C15.6722 19.7737 15.4895 19.6423 15.3395 19.4778V19.4778C15.1809 19.3041 14.9859 19.1674 14.7683 19.0776C14.5508 18.9877 14.3161 18.9469 14.081 18.958V18.958C13.8584 18.9684 13.6361 18.9323 13.4282 18.852C13.2204 18.7716 13.0317 18.6488 12.8741 18.4914C12.7165 18.334 12.5936 18.1455 12.5131 17.9379C12.4327 17.7303 12.3965 17.5083 12.407 17.2859V17.2859C12.418 17.051 12.3769 16.8165 12.2868 16.5992C12.1967 16.3819 12.0597 16.1872 11.8856 16.0289V16.0289C11.7209 15.879 11.5894 15.6965 11.4994 15.493C11.4094 15.2895 11.3629 15.0694 11.3629 14.8469C11.3629 14.6244 11.4094 14.4044 11.4994 14.2009C11.5894 13.9974 11.7209 13.8148 11.8856 13.665V13.665C12.2388 13.3438 12.4297 12.8843 12.407 12.408C12.3965 12.1856 12.4327 11.9635 12.5131 11.7559C12.5936 11.5484 12.7165 11.3598 12.8741 11.2024C13.0317 11.045 13.2204 10.9222 13.4282 10.8419C13.6361 10.7615 13.8584 10.7254 14.081 10.7359V10.7359C14.5569 10.7586 15.0179 10.5679 15.3395 10.2151V10.2151Z" stroke="#B7C3CB" stroke-width="1.5" stroke-linecap="round" stroke-linejoin="round"/>
</svg>
