<svg width="24" height="24" viewBox="0 0 24 24" fill="none" xmlns="http://www.w3.org/2000/svg">
<path d="M21.2215 8.12501C20.7197 6.92976 19.9896 5.84336 19.0719 4.92636C18.157 4.00776 17.0702 3.27742 15.8732 2.77681C14.647 2.26147 13.3295 1.99732 11.999 2.00002H11.9542C10.6009 2.00672 9.29235 2.27457 8.05985 2.80136C6.87313 3.30711 5.79653 4.03874 4.89022 4.95537C3.98145 5.87032 3.25971 6.95292 2.7652 8.14287C2.25188 9.38029 1.99177 10.7077 2.0002 12.0469C2.00691 13.596 2.37823 15.1339 3.07165 16.5089V19.9018C3.07165 20.4688 3.53245 20.9286 4.09837 20.9286H7.49392C8.87825 21.6256 10.4059 21.9924 11.9565 22H12.0034C13.3411 22 14.6362 21.7411 15.8575 21.2344C17.0485 20.7397 18.1312 20.0179 19.0451 19.1094C19.9666 18.1964 20.6914 17.1295 21.1991 15.9397C21.7248 14.7076 21.9932 13.3973 21.9999 12.0447C22.0044 10.6853 21.7405 9.36608 21.2215 8.12501ZM7.53418 13.0714C6.94365 13.0714 6.46273 12.5915 6.46273 12C6.46273 11.4085 6.94365 10.9286 7.53418 10.9286C8.12471 10.9286 8.60564 11.4085 8.60564 12C8.60564 12.5915 8.12695 13.0714 7.53418 13.0714ZM11.999 13.0714C11.4084 13.0714 10.9275 12.5915 10.9275 12C10.9275 11.4085 11.4084 10.9286 11.999 10.9286C12.5895 10.9286 13.0704 11.4085 13.0704 12C13.0704 12.5915 12.5895 13.0714 11.999 13.0714ZM16.4637 13.0714C15.8732 13.0714 15.3923 12.5915 15.3923 12C15.3923 11.4085 15.8732 10.9286 16.4637 10.9286C17.0543 10.9286 17.5352 11.4085 17.5352 12C17.5352 12.5915 17.0543 13.0714 16.4637 13.0714Z" fill="#7F9EBB"/>
</svg>
