<svg width="18" height="18" viewBox="0 0 18 18" fill="none" xmlns="http://www.w3.org/2000/svg">
<path d="M2.33268 8.99999C2.33268 7.23188 3.03506 5.53619 4.2853 4.28594C5.53555 3.0357 7.23124 2.33332 8.99935 2.33332C10.7675 2.33332 12.4632 3.0357 13.7134 4.28594C14.9636 5.53619 15.666 7.23188 15.666 8.99999C15.666 10.7681 14.9636 12.4638 13.7134 13.714C12.4632 14.9643 10.7675 15.6667 8.99935 15.6667C7.23124 15.6667 5.53555 14.9643 4.2853 13.714C3.03506 12.4638 2.33268 10.7681 2.33268 8.99999ZM8.99935 0.666656C4.39685 0.666656 0.666016 4.39749 0.666016 8.99999C0.666016 13.6025 4.39685 17.3333 8.99935 17.3333C13.6018 17.3333 17.3327 13.6025 17.3327 8.99999C17.3327 4.39749 13.6018 0.666656 8.99935 0.666656ZM8.99935 5.66666C8.55732 5.66666 8.1334 5.84225 7.82084 6.15481C7.50828 6.46737 7.33268 6.8913 7.33268 7.33332C7.33268 7.55434 7.24488 7.7663 7.0886 7.92258C6.93232 8.07886 6.72036 8.16666 6.49935 8.16666C6.27834 8.16666 6.06637 8.07886 5.91009 7.92258C5.75381 7.7663 5.66602 7.55434 5.66602 7.33332C5.66611 6.72136 5.83466 6.12124 6.15321 5.59872C6.47175 5.0762 6.92799 4.65146 7.47192 4.37104C8.01585 4.09062 8.62648 3.96535 9.23689 4.00896C9.84729 4.05257 10.4339 4.26337 10.9325 4.61827C11.431 4.97316 11.8222 5.45845 12.0632 6.02095C12.3043 6.58344 12.3858 7.20144 12.2989 7.80719C12.212 8.41295 11.96 8.9831 11.5706 9.45514C11.1811 9.92718 10.6692 10.2829 10.091 10.4833C10.0049 10.5113 9.9269 10.5596 9.86352 10.6242C9.85053 10.6371 9.84007 10.6524 9.83268 10.6692V11.0833C9.83268 11.3043 9.74489 11.5163 9.5886 11.6726C9.43232 11.8289 9.22036 11.9167 8.99935 11.9167C8.77834 11.9167 8.56637 11.8289 8.41009 11.6726C8.25381 11.5163 8.16602 11.3043 8.16602 11.0833V10.6667C8.16602 9.70666 8.93602 9.11999 9.54518 8.90832C9.91668 8.77852 10.2303 8.52151 10.4306 8.18275C10.6308 7.844 10.7048 7.44533 10.6395 7.05727C10.5742 6.66921 10.3737 6.31677 10.0735 6.06227C9.77336 5.80778 9.39287 5.66765 8.99935 5.66666ZM9.83268 10.6725V10.6692V10.6725ZM8.16602 13.1667C8.16602 12.9456 8.25381 12.7337 8.41009 12.5774C8.56637 12.4211 8.77834 12.3333 8.99935 12.3333H9.00768C9.2287 12.3333 9.44066 12.4211 9.59694 12.5774C9.75322 12.7337 9.84102 12.9456 9.84102 13.1667C9.84102 13.3877 9.75322 13.5996 9.59694 13.7559C9.44066 13.9122 9.2287 14 9.00768 14H8.99935C8.77834 14 8.56637 13.9122 8.41009 13.7559C8.25381 13.5996 8.16602 13.3877 8.16602 13.1667Z" fill="#5F6B73"/>
</svg>
