<svg width="24" height="24" viewBox="0 0 24 24" fill="none" xmlns="http://www.w3.org/2000/svg">
<path fill-rule="evenodd" stroke-width="0.5" stroke-linecap="round" stroke-linejoin="round" clip-rule="evenodd" d="M2.99904 6.26V5.2925V6.26ZM2.99904 6.26C2.99837 6.35916 3.01741 6.45747 3.05506 6.54921M2.99904 6.26L3.05506 6.54921M3.05506 6.54921C3.09271 6.64095 3.14823 6.72429 3.21837 6.79437M3.05506 6.54921L3.21837 6.79437M3.21837 6.79437L9.96704 13.5444L3.21837 6.79437ZM3.49904 5.5H20.4955V6.26933C20.4949 6.33156 20.472 6.39141 20.431 6.43804L13.6908 13.1796L13.5444 13.326V13.5331V20.3924L10.467 18.8598V13.5444V13.3373L10.3206 13.1908L3.57196 6.44085L3.57178 6.44067C3.54852 6.41743 3.53011 6.38979 3.51761 6.35936C3.50512 6.32893 3.4988 6.29631 3.49903 6.26341L3.49904 6.26341V6.26V5.5Z"/>
</svg>
