<svg width="16" height="16" viewBox="0 0 16 16" fill="none" xmlns="http://www.w3.org/2000/svg">
<path d="M14.2262 9.61137L14.2258 9.62127L14.2256 9.62126V9.63171V14.0606C14.2256 14.2216 14.0584 14.4167 13.7662 14.4167H4.30901C4.01713 14.4167 3.84959 14.2219 3.84959 14.0606V13.0506V12.8006H3.59959H1.47135C1.17946 12.8006 1.01193 12.6058 1.01193 12.4445V2.34393C1.01193 2.18288 1.17913 1.98782 1.47135 1.98782H5.05614H5.24347L5.29276 1.81937C5.35063 1.69653 5.5084 1.58337 5.72394 1.58337H6.6705C6.77384 1.58356 6.87173 1.61118 6.95054 1.6588C7.02918 1.70631 7.08161 1.76906 7.10832 1.83327L7.17237 1.98726H7.33914H10.9304C11.2223 1.98726 11.3899 2.18204 11.3899 2.34337V6.9406V7.05582L11.4775 7.13067L14.0856 9.359L14.1943 9.23171L14.0856 9.359L14.1044 9.3751L14.1044 9.37512L14.1103 9.38011L14.1103 9.38013L14.1127 9.38214L14.2223 9.56908C14.2247 9.58327 14.226 9.59741 14.2262 9.61137ZM9.43601 6.44386L9.02362 6.09151V6.63393V9.00893V9.25893H9.27362H12.0534H12.7309L12.2158 8.81886L9.43601 6.44386ZM1.93011 11.8373V12.0875L2.18031 12.0873L3.59849 12.0862L3.84829 12.086V11.8362V5.17393C3.84829 5.01288 4.01549 4.81782 4.30771 4.81782H8.62835C8.63982 4.81912 8.64876 4.82022 8.65691 4.82145L8.66869 4.82397L8.70382 4.83147L8.71877 4.83551L8.74574 4.84359L8.76057 4.84897L8.76157 4.84933C8.77225 4.85315 8.78257 4.8574 8.79248 4.86204L8.79236 4.86229L8.80332 4.8668L8.81463 4.87145C8.81711 4.87267 8.81954 4.87391 8.82193 4.87519L8.82926 4.88025L8.8292 4.88035L8.83577 4.88459L8.8685 4.90569L8.87831 4.91226C8.88701 4.91855 8.89529 4.92507 8.90316 4.93179L10.0565 5.91887L10.4691 6.27194V5.72893V2.95004V2.70004H10.2191H8.75928H8.57194L8.52266 2.86849C8.46479 2.99133 8.30702 3.10449 8.09148 3.10449H4.30836C4.08745 3.10449 3.92594 2.98534 3.87023 2.85337L3.80574 2.7006H3.63991H2.18011H1.93011V2.9506V11.8373ZM4.76713 13.455V13.7051L5.01719 13.705L13.0568 13.7028L13.3067 13.7027V13.4528V10.2206V9.9706H13.0567H8.56355C8.27151 9.9706 8.10414 9.77569 8.10414 9.61504V5.77671V5.52671H7.85414H5.01713H4.76713V5.77671V13.455Z" fill="#448ADD" stroke="#448ADD" stroke-width="0.5"/>
</svg>
