<svg width="16" height="14" viewBox="0 0 16 14" fill="none" xmlns="http://www.w3.org/2000/svg">
<path d="M2.82759 0.25C2.21027 0.25 1.61824 0.487053 1.18173 0.90901C0.745227 1.33097 0.5 1.90326 0.5 2.5V10C0.5 10.5967 0.745227 11.169 1.18173 11.591C1.61824 12.0129 2.21027 12.25 2.82759 12.25H9.16638C8.57775 11.5411 8.25746 10.659 8.25862 9.75C8.25859 9.55888 8.29978 9.36985 8.37956 9.19498C8.45934 9.02011 8.57596 8.86323 8.72197 8.73437C8.86798 8.6055 9.04018 8.50748 9.22757 8.44655C9.41497 8.38562 9.61345 8.36312 9.81034 8.3805V7.75C9.81034 7.08696 10.0828 6.45107 10.5678 5.98223C11.0528 5.51339 11.7106 5.25 12.3965 5.25C13.0825 5.25 13.7403 5.51339 14.2253 5.98223C14.7103 6.45107 14.9828 7.08696 14.9828 7.75V2.5C14.9828 1.90326 14.7375 1.33097 14.301 0.90901C13.8645 0.487053 13.2725 0.25 12.6552 0.25H2.82759ZM3.60345 3.25C3.60345 3.11739 3.65794 2.99021 3.75494 2.89645C3.85195 2.80268 3.98351 2.75 4.12069 2.75H7.22414C7.36132 2.75 7.49288 2.80268 7.58988 2.89645C7.68688 2.99021 7.74138 3.11739 7.74138 3.25C7.74138 3.38261 7.68688 3.50979 7.58988 3.60355C7.49288 3.69732 7.36132 3.75 7.22414 3.75H4.12069C3.98351 3.75 3.85195 3.69732 3.75494 3.60355C3.65794 3.50979 3.60345 3.38261 3.60345 3.25ZM4.12069 7.75H7.22414C7.36132 7.75 7.49288 7.80268 7.58988 7.89645C7.68688 7.99021 7.74138 8.11739 7.74138 8.25C7.74138 8.38261 7.68688 8.50979 7.58988 8.60355C7.49288 8.69732 7.36132 8.75 7.22414 8.75H4.12069C3.98351 8.75 3.85195 8.69732 3.75494 8.60355C3.65794 8.50979 3.60345 8.38261 3.60345 8.25C3.60345 8.11739 3.65794 7.99021 3.75494 7.89645C3.85195 7.80268 3.98351 7.75 4.12069 7.75ZM3.60345 5.75C3.60345 5.61739 3.65794 5.49021 3.75494 5.39645C3.85195 5.30268 3.98351 5.25 4.12069 5.25H8.77586C8.91304 5.25 9.0446 5.30268 9.14161 5.39645C9.23861 5.49021 9.2931 5.61739 9.2931 5.75C9.2931 5.88261 9.23861 6.00979 9.14161 6.10355C9.0446 6.19732 8.91304 6.25 8.77586 6.25H4.12069C3.98351 6.25 3.85195 6.19732 3.75494 6.10355C3.65794 6.00979 3.60345 5.88261 3.60345 5.75ZM10.0834 11.75C9.57331 11.2007 9.29175 10.4882 9.2931 9.75C9.2931 9.65054 9.33397 9.55516 9.40672 9.48483C9.47947 9.41451 9.57815 9.375 9.68103 9.375C9.78392 9.375 9.88259 9.41451 9.95534 9.48483C10.0281 9.55516 10.069 9.65054 10.069 9.75C10.069 10.326 10.2929 10.852 10.6617 11.25C11.0552 11.6773 11.6031 11.9426 12.1928 11.9915L12.2015 11.9925C12.3965 12.0081 12.5926 12.0002 12.7855 11.969L12.7948 11.967C13.1201 11.9128 13.4296 11.7919 13.7026 11.6125C13.9467 11.4525 14.1578 11.2485 14.3233 11.0125C14.5853 10.6403 14.725 10.2002 14.7241 9.75C14.7241 9.65054 14.765 9.55516 14.8378 9.48483C14.9105 9.41451 15.0092 9.375 15.1121 9.375C15.215 9.375 15.3136 9.41451 15.3864 9.48483C15.4591 9.55516 15.5 9.65054 15.5 9.75C15.5009 10.3505 15.3145 10.9374 14.9652 11.434C14.7442 11.7483 14.4637 12.0194 14.1386 12.233C13.7706 12.475 13.3528 12.6372 12.9138 12.7085V13.375C12.9138 13.4745 12.8729 13.5698 12.8002 13.6402C12.7274 13.7105 12.6287 13.75 12.5259 13.75C12.423 13.75 12.3243 13.7105 12.2515 13.6402C12.1788 13.5698 12.1379 13.4745 12.1379 13.375V12.74C11.617 12.6986 11.1154 12.53 10.6803 12.25C10.4603 12.1084 10.2597 11.9404 10.0834 11.75ZM10.8448 7.75C10.8448 7.55302 10.885 7.35796 10.9629 7.17597C11.0409 6.99399 11.1552 6.82863 11.2993 6.68934C11.4434 6.55005 11.6145 6.43956 11.8027 6.36418C11.991 6.2888 12.1928 6.25 12.3965 6.25C12.6003 6.25 12.8021 6.2888 12.9904 6.36418C13.1786 6.43956 13.3497 6.55005 13.4938 6.68934C13.6379 6.82863 13.7522 6.99399 13.8302 7.17597C13.9081 7.35796 13.9483 7.55302 13.9483 7.75V9.75C13.9483 9.94698 13.9081 10.142 13.8302 10.324C13.7522 10.506 13.6379 10.6714 13.4938 10.8107C13.3497 10.9499 13.1786 11.0604 12.9904 11.1358C12.8021 11.2112 12.6003 11.25 12.3965 11.25C12.1928 11.25 11.991 11.2112 11.8027 11.1358C11.6145 11.0604 11.4434 10.9499 11.2993 10.8107C11.1552 10.6714 11.0409 10.506 10.9629 10.324C10.885 10.142 10.8448 9.94698 10.8448 9.75V7.75Z" fill="#8E6EC0"/>
</svg>
