<svg width="20" height="20" viewBox="0 0 20 20" fill="none" xmlns="http://www.w3.org/2000/svg">
<path d="M0.279297 3.26462C0.279297 2.47675 0.592278 1.72115 1.14939 1.16404C1.7065 0.606927 2.4621 0.293945 3.24998 0.293945H14.0136C14.4748 0.293831 14.9315 0.384595 15.3576 0.561051C15.7837 0.737507 16.1709 0.996197 16.497 1.32234L18.6953 3.52064C19.3543 4.17959 19.7237 5.07296 19.7237 6.00413V16.7677C19.7237 17.5556 19.4108 18.3112 18.8537 18.8683C18.2965 19.4254 17.5409 19.7384 16.7531 19.7384H3.24998C2.4621 19.7384 1.7065 19.4254 1.14939 18.8683C0.592278 18.3112 0.279297 17.5556 0.279297 16.7677V3.26462ZM3.24998 1.91432C2.50461 1.91432 1.89967 2.51925 1.89967 3.26462V16.7677C1.89967 17.5131 2.50461 18.118 3.24998 18.118H3.52004V12.4467C3.52004 11.8021 3.77611 11.1839 4.23193 10.7281C4.68775 10.2722 5.30597 10.0162 5.95059 10.0162H14.0524C14.6971 10.0162 15.3153 10.2722 15.7711 10.7281C16.2269 11.1839 16.483 11.8021 16.483 12.4467V18.118H16.7531C17.4984 18.118 18.1034 17.5131 18.1034 16.7677V6.00413C18.1034 5.50182 17.9046 5.02111 17.5492 4.66678L15.3509 2.46848C15.0718 2.18893 14.7122 2.00383 14.3225 1.93916V4.88499C14.3225 5.20418 14.2596 5.52024 14.1375 5.81513C14.0153 6.11002 13.8363 6.37796 13.6106 6.60366C13.3849 6.82935 13.117 7.00839 12.8221 7.13054C12.5272 7.25268 12.2111 7.31555 11.892 7.31555H7.03084C6.38622 7.31555 5.768 7.05947 5.31218 6.60366C4.85636 6.14784 4.60029 5.52962 4.60029 4.88499V1.91432H3.24998ZM14.8626 18.118V12.4467C14.8626 12.2318 14.7773 12.0258 14.6253 11.8738C14.4734 11.7219 14.2673 11.6365 14.0524 11.6365H5.95059C5.73572 11.6365 5.52965 11.7219 5.37771 11.8738C5.22577 12.0258 5.14041 12.2318 5.14041 12.4467V18.118H14.8626ZM6.22066 1.91432V4.88499C6.22066 5.33222 6.58362 5.69518 7.03084 5.69518H11.892C12.1068 5.69518 12.3129 5.60982 12.4648 5.45788C12.6168 5.30594 12.7021 5.09987 12.7021 4.88499V1.91432H6.22066Z" fill="#448ADD"/>
</svg>
