<svg width="18" height="18" viewBox="0 0 18 18" fill="none" xmlns="http://www.w3.org/2000/svg">
<path fill-rule="evenodd" clip-rule="evenodd" d="M0.666656 8.99984C0.666656 4.39734 4.39749 0.666504 8.99999 0.666504C13.6025 0.666504 17.3333 4.39734 17.3333 8.99984C17.3333 13.6023 13.6025 17.3332 8.99999 17.3332C4.39749 17.3332 0.666656 13.6023 0.666656 8.99984ZM7.50582 6.32734C7.34865 6.17554 7.13815 6.09154 6.91966 6.09344C6.70116 6.09534 6.49215 6.18298 6.33764 6.33749C6.18313 6.492 6.09549 6.70101 6.0936 6.9195C6.0917 7.138 6.17569 7.3485 6.32749 7.50567L7.82166 8.99984L6.32749 10.494C6.2479 10.5709 6.18441 10.6628 6.14074 10.7645C6.09706 10.8662 6.07408 10.9755 6.07311 11.0862C6.07215 11.1968 6.09324 11.3066 6.13514 11.409C6.17704 11.5114 6.23892 11.6044 6.31716 11.6827C6.39541 11.7609 6.48845 11.8228 6.59086 11.8647C6.69328 11.9066 6.80301 11.9277 6.91366 11.9267C7.02431 11.9258 7.13366 11.9028 7.23533 11.8591C7.337 11.8154 7.42895 11.7519 7.50582 11.6723L8.99999 10.1782L10.4942 11.6723C10.6513 11.8241 10.8618 11.9081 11.0803 11.9062C11.2988 11.9043 11.5078 11.8167 11.6623 11.6622C11.8168 11.5077 11.9045 11.2987 11.9064 11.0802C11.9083 10.8617 11.8243 10.6512 11.6725 10.494L10.1783 8.99984L11.6725 7.50567C11.8243 7.3485 11.9083 7.138 11.9064 6.9195C11.9045 6.70101 11.8168 6.492 11.6623 6.33749C11.5078 6.18298 11.2988 6.09534 11.0803 6.09344C10.8618 6.09154 10.6513 6.17554 10.4942 6.32734L8.99999 7.8215L7.50582 6.32734Z" fill="#EA5D54"/>
</svg>
