<svg width="19" height="17" viewBox="0 0 19 17" fill="none" xmlns="http://www.w3.org/2000/svg">
<rect x="0.5" y="1.5" width="15" height="15" rx="3.5" fill="white" stroke="#99A5AE"/>
<path d="M18.1111 3.10083C18.1649 3.04159 18.1627 2.95049 18.1061 2.89387L16.1061 0.893903C16.0769 0.864691 16.0369 0.84882 15.9956 0.850035C15.9544 0.85125 15.9154 0.869443 15.8879 0.900322L7.99454 9.78141L5.10607 6.89387C5.04748 6.83531 4.95252 6.83532 4.89395 6.89389L2.89398 8.8939C2.86585 8.92203 2.85005 8.96019 2.85005 8.99997C2.85005 9.03976 2.86586 9.07791 2.894 9.10604L7.89493 14.106C7.92394 14.135 7.96356 14.1509 8.00457 14.1499C8.04558 14.1489 8.08439 14.1312 8.11199 14.1008L18.1111 3.10083Z" fill="#99A5AE" stroke="#99A5AE" stroke-width="0.3" stroke-linejoin="round"/>
</svg>
