<svg width="18" height="17" viewBox="0 0 18 17" fill="none" xmlns="http://www.w3.org/2000/svg">
<path fill-rule="evenodd" clip-rule="evenodd" d="M0.666748 8.5C0.666748 3.8975 4.39758 0.166664 9.00008 0.166664C13.6026 0.166664 17.3334 3.8975 17.3334 8.5C17.3334 13.1025 13.6026 16.8333 9.00008 16.8333C4.39758 16.8333 0.666748 13.1025 0.666748 8.5ZM9.00008 4.33333C9.2211 4.33333 9.43306 4.42113 9.58934 4.57741C9.74562 4.73369 9.83342 4.94565 9.83342 5.16666V8.5C9.83342 8.72101 9.74562 8.93297 9.58934 9.08925C9.43306 9.24553 9.2211 9.33333 9.00008 9.33333C8.77907 9.33333 8.56711 9.24553 8.41083 9.08925C8.25455 8.93297 8.16675 8.72101 8.16675 8.5V5.16666C8.16675 4.94565 8.25455 4.73369 8.41083 4.57741C8.56711 4.42113 8.77907 4.33333 9.00008 4.33333ZM9.83342 11.8333C9.83342 12.0543 9.74562 12.2663 9.58934 12.4226C9.43306 12.5789 9.2211 12.6667 9.00008 12.6667C8.77907 12.6667 8.56711 12.5789 8.41083 12.4226C8.25455 12.2663 8.16675 12.0543 8.16675 11.8333C8.16675 11.6123 8.25455 11.4004 8.41083 11.2441C8.56711 11.0878 8.77907 11 9.00008 11C9.2211 11 9.43306 11.0878 9.58934 11.2441C9.74562 11.4004 9.83342 11.6123 9.83342 11.8333Z" fill="#E2633B"/>
</svg>
