<svg width="14" height="15" viewBox="0 0 14 15" fill="none" xmlns="http://www.w3.org/2000/svg">
<path d="M9.64827 6.81482L9.6483 6.81484L9.65132 6.81172C9.8183 6.63883 9.91069 6.40728 9.9086 6.16693C9.90651 5.92659 9.81011 5.69668 9.64015 5.52672C9.47019 5.35676 9.24028 5.26036 8.99994 5.25827C8.75959 5.25618 8.52804 5.34857 8.35515 5.51555L8.35513 5.51553L8.35205 5.5186L6.3335 7.53715L5.64827 6.85193L5.6483 6.8519L5.64517 6.84889C5.47229 6.68191 5.24074 6.58951 5.00039 6.5916C4.76004 6.59369 4.53013 6.69009 4.36017 6.86005C4.19022 7.03001 4.09381 7.25992 4.09172 7.50027C4.08963 7.74061 4.18203 7.97217 4.34901 8.14505L4.34898 8.14508L4.35205 8.14815L5.68539 9.48148L5.68541 9.48151C5.85731 9.65336 6.09043 9.7499 6.3335 9.7499C6.57656 9.7499 6.80968 9.65336 6.98158 9.48151L6.98161 9.48148L9.64827 6.81482ZM0.583496 7.50004C0.583496 3.95611 3.45623 1.08337 7.00016 1.08337C10.5441 1.08337 13.4168 3.95611 13.4168 7.50004C13.4168 11.044 10.5441 13.9167 7.00016 13.9167C3.45623 13.9167 0.583496 11.044 0.583496 7.50004Z" fill="#448ADD" stroke="#448ADD" stroke-width="0.5"/>
</svg>
