<svg width="21" height="21" viewBox="0 0 21 21" fill="none" xmlns="http://www.w3.org/2000/svg">
<path d="M12.0459 12.0448C12.0019 12.0889 11.9722 12.1453 11.9609 12.2066C11.9495 12.2679 11.9571 12.3312 11.9824 12.3881L13.0118 14.7041L14.3068 17.6176L15.4693 20.2332C15.4937 20.2881 15.5335 20.3346 15.584 20.3672C15.6345 20.3997 15.6933 20.4168 15.7533 20.4163C15.8134 20.4159 15.872 20.3979 15.9219 20.3646C15.9719 20.3313 16.011 20.2841 16.0345 20.2289L17.2926 17.2913L20.2309 16.0327C20.2859 16.009 20.3328 15.9698 20.3659 15.9199C20.399 15.87 20.4169 15.8115 20.4173 15.7516C20.4177 15.6917 20.4006 15.633 20.3681 15.5826C20.3357 15.5323 20.2893 15.4925 20.2346 15.4681L17.6187 14.3055L14.7304 13.0218L12.3893 11.9813C12.3324 11.9561 12.2692 11.9486 12.2081 11.9599C12.1469 11.9713 12.09 12.0009 12.0459 12.0448Z" fill="#5F6B73"/>
<path d="M9.23077 12.1854C8.44736 12.1854 7.69604 11.8742 7.14208 11.3202C6.58813 10.7663 6.27692 10.0149 6.27692 9.23154C6.27692 8.44813 6.58813 7.69681 7.14208 7.14285C7.69604 6.5889 8.44736 6.27769 9.23077 6.27769C10.0142 6.27769 10.7655 6.5889 11.3195 7.14285C11.8734 7.69681 12.1846 8.44813 12.1846 9.23154C12.1846 9.71098 12.0681 10.1784 11.8506 10.5959C11.7128 10.8606 11.5344 11.1053 11.3195 11.3202C11.1048 11.5348 10.8606 11.713 10.5964 11.8508C10.1786 12.0686 9.71068 12.1854 9.23077 12.1854Z" fill="#5F6B73"/>
<path d="M9.23077 0C14.3285 0 18.4615 4.13308 18.4615 9.23077C18.4615 10.631 18.1497 11.9585 17.5917 13.1475L14.7347 11.8777C14.7863 11.7724 14.8348 11.6655 14.8802 11.557C15.1888 10.8203 15.3478 10.0295 15.3478 9.23077C15.3478 8.43201 15.1888 7.64124 14.8802 6.90451C14.5716 6.16778 14.1195 5.49983 13.5502 4.93955C12.9809 4.37928 12.3058 3.93788 11.5642 3.64108C10.8226 3.34428 10.0294 3.198 9.23077 3.21077C7.65083 3.23603 6.14415 3.88138 5.03579 5.00761C3.92743 6.13383 3.30624 7.65063 3.30624 9.23077C3.30624 10.8109 3.92743 12.3277 5.03579 13.4539C6.14415 14.5802 7.65083 15.2255 9.23077 15.2508C10.0294 15.2635 10.8226 15.1173 11.5642 14.8205C11.6639 14.7806 11.7624 14.738 11.8596 14.693L13.1479 17.5915C11.9588 18.1496 10.6312 18.4615 9.23077 18.4615C4.13308 18.4615 0 14.3285 0 9.23077C0 4.13308 4.13308 0 9.23077 0Z" fill="#5F6B73"/>
</svg>
