<svg width="20" height="18" viewBox="0 0 20 18" fill="none" xmlns="http://www.w3.org/2000/svg">
<path d="M3.10345 0C2.28036 0 1.49099 0.31607 0.908979 0.87868C0.326969 1.44129 0 2.20435 0 3V13C0 13.7956 0.326969 14.5587 0.908979 15.1213C1.49099 15.6839 2.28036 16 3.10345 16H11.5552C10.7703 15.0548 10.3433 13.8787 10.3448 12.6667C10.3448 12.4118 10.3997 12.1598 10.5061 11.9266C10.6125 11.6935 10.7679 11.4843 10.9626 11.3125C11.1573 11.1407 11.3869 11.01 11.6368 10.9287C11.8866 10.8475 12.1513 10.8175 12.4138 10.8407V10C12.4138 9.11594 12.7771 8.2681 13.4238 7.64298C14.0704 7.01786 14.9475 6.66667 15.8621 6.66667C16.7766 6.66667 17.6537 7.01786 18.3004 7.64298C18.947 8.2681 19.3103 9.11594 19.3103 10V3C19.3103 2.20435 18.9834 1.44129 18.4014 0.87868C17.8194 0.31607 17.03 0 16.2069 0H3.10345ZM4.13793 4C4.13793 3.82319 4.21059 3.65362 4.33993 3.5286C4.46926 3.40357 4.64468 3.33333 4.82759 3.33333H8.96552C9.14842 3.33333 9.32384 3.40357 9.45317 3.5286C9.58251 3.65362 9.65517 3.82319 9.65517 4C9.65517 4.17681 9.58251 4.34638 9.45317 4.4714C9.32384 4.59643 9.14842 4.66667 8.96552 4.66667H4.82759C4.64468 4.66667 4.46926 4.59643 4.33993 4.4714C4.21059 4.34638 4.13793 4.17681 4.13793 4ZM4.82759 10H8.96552C9.14842 10 9.32384 10.0702 9.45317 10.1953C9.58251 10.3203 9.65517 10.4899 9.65517 10.6667C9.65517 10.8435 9.58251 11.013 9.45317 11.1381C9.32384 11.2631 9.14842 11.3333 8.96552 11.3333H4.82759C4.64468 11.3333 4.46926 11.2631 4.33993 11.1381C4.21059 11.013 4.13793 10.8435 4.13793 10.6667C4.13793 10.4899 4.21059 10.3203 4.33993 10.1953C4.46926 10.0702 4.64468 10 4.82759 10ZM4.13793 7.33333C4.13793 7.15652 4.21059 6.98695 4.33993 6.86193C4.46926 6.73691 4.64468 6.66667 4.82759 6.66667H11.0345C11.2174 6.66667 11.3928 6.73691 11.5221 6.86193C11.6515 6.98695 11.7241 7.15652 11.7241 7.33333C11.7241 7.51014 11.6515 7.67971 11.5221 7.80474C11.3928 7.92976 11.2174 8 11.0345 8H4.82759C4.64468 8 4.46926 7.92976 4.33993 7.80474C4.21059 7.67971 4.13793 7.51014 4.13793 7.33333ZM12.7779 15.3333C12.0978 14.6009 11.7223 13.6509 11.7241 12.6667C11.7241 12.5341 11.7786 12.4069 11.8756 12.3131C11.9726 12.2193 12.1042 12.1667 12.2414 12.1667C12.3786 12.1667 12.5101 12.2193 12.6071 12.3131C12.7041 12.4069 12.7586 12.5341 12.7586 12.6667C12.7586 13.4347 13.0572 14.136 13.549 14.6667C14.0737 15.2364 14.8042 15.5902 15.5903 15.6553L15.6021 15.6567C15.8619 15.6775 16.1235 15.667 16.3807 15.6253L16.3931 15.6227C16.8268 15.5504 17.2395 15.3892 17.6034 15.15C17.929 14.9367 18.2103 14.6647 18.431 14.35C18.7804 13.8537 18.9667 13.267 18.9655 12.6667C18.9655 12.5341 19.02 12.4069 19.117 12.3131C19.214 12.2193 19.3456 12.1667 19.4828 12.1667C19.6199 12.1667 19.7515 12.2193 19.8485 12.3131C19.9455 12.4069 20 12.5341 20 12.6667C20.0012 13.4674 19.7527 14.2499 19.2869 14.912C18.9922 15.331 18.6183 15.6925 18.1848 15.9773C17.6941 16.3001 17.137 16.5163 16.5517 16.6113V17.5C16.5517 17.6326 16.4972 17.7598 16.4002 17.8536C16.3032 17.9473 16.1717 18 16.0345 18C15.8973 18 15.7657 17.9473 15.6687 17.8536C15.5717 17.7598 15.5172 17.6326 15.5172 17.5V16.6533C14.8226 16.5982 14.1539 16.3734 13.5738 16C13.2804 15.8113 13.0129 15.5872 12.7779 15.3333ZM13.7931 10C13.7931 9.73736 13.8466 9.47728 13.9506 9.23463C14.0546 8.99198 14.207 8.7715 14.3991 8.58579C14.5912 8.40007 14.8193 8.25275 15.0703 8.15224C15.3213 8.05173 15.5904 8 15.8621 8C16.1338 8 16.4028 8.05173 16.6538 8.15224C16.9048 8.25275 17.1329 8.40007 17.325 8.58579C17.5172 8.7715 17.6696 8.99198 17.7735 9.23463C17.8775 9.47728 17.931 9.73736 17.931 10V12.6667C17.931 12.9293 17.8775 13.1894 17.7735 13.432C17.6696 13.6747 17.5172 13.8952 17.325 14.0809C17.1329 14.2666 16.9048 14.4139 16.6538 14.5144C16.4028 14.6149 16.1338 14.6667 15.8621 14.6667C15.5904 14.6667 15.3213 14.6149 15.0703 14.5144C14.8193 14.4139 14.5912 14.2666 14.3991 14.0809C14.207 13.8952 14.0546 13.6747 13.9506 13.432C13.8466 13.1894 13.7931 12.9293 13.7931 12.6667V10Z" fill="#5F6B73"/>
</svg>
