<svg width="20" height="20" viewBox="0 0 20 20" fill="none" xmlns="http://www.w3.org/2000/svg">
<path fill-rule="evenodd" clip-rule="evenodd" d="M10.5477 2.29755C11.4855 1.3599 12.7573 0.833174 14.0834 0.833252C15.4095 0.83333 16.6813 1.3602 17.619 2.29796C18.5566 3.23573 19.0833 4.50756 19.0833 5.83368C19.0832 7.15979 18.5563 8.43156 17.6186 9.36921L9.36855 17.6192C8.43079 18.5569 7.15896 19.0836 5.83284 19.0835C4.50673 19.0834 3.23495 18.5566 2.2973 17.6188C1.35965 16.681 0.83293 15.4092 0.833008 14.0831C0.833086 12.757 1.35996 11.4852 2.29772 10.5475L10.5477 2.29755ZM16.4394 8.19005L12.9044 11.7259L8.19022 7.01171L11.7261 3.47671C12.0343 3.16147 12.402 2.9105 12.8078 2.73833C13.2137 2.56617 13.6497 2.47623 14.0906 2.47372C14.5314 2.47122 14.9684 2.55619 15.3762 2.72373C15.784 2.89127 16.1546 3.13805 16.4663 3.44977C16.7781 3.76149 17.0249 4.13196 17.1926 4.53974C17.3602 4.94751 17.4452 5.38449 17.4428 5.82536C17.4404 6.26623 17.3505 6.70224 17.1784 7.10814C17.0063 7.51405 16.7554 7.88178 16.4402 8.19005H16.4394Z" fill="#5F6B73"/>
</svg>
