<svg width="12" height="14" viewBox="0 0 12 14" fill="none" xmlns="http://www.w3.org/2000/svg">
<path d="M5.83333 6.99992C7.67448 6.99992 9.16667 5.50773 9.16667 3.66659C9.16667 1.82544 7.67448 0.333252 5.83333 0.333252C3.99219 0.333252 2.5 1.82544 2.5 3.66659C2.5 5.50773 3.99219 6.99992 5.83333 6.99992ZM8.16667 7.83325H7.73177C7.15365 8.09888 6.51042 8.24992 5.83333 8.24992C5.15625 8.24992 4.51562 8.09888 3.9349 7.83325H3.5C1.56771 7.83325 0 9.40096 0 11.3333V12.4166C0 13.1067 0.559896 13.6666 1.25 13.6666H10.4167C11.1068 13.6666 11.6667 13.1067 11.6667 12.4166V11.3333C11.6667 9.40096 10.099 7.83325 8.16667 7.83325Z" fill="#5F6B73"/>
</svg>
