<svg width="32" height="32" viewBox="0 0 32 32" fill="none" xmlns="http://www.w3.org/2000/svg">
<path d="M6.66667 29.3332H25.3333C26.804 29.3332 28 28.1372 28 26.6665V7.99984C28 6.52917 26.804 5.33317 25.3333 5.33317H22.6667V2.6665H20V5.33317H12V2.6665H9.33333V5.33317H6.66667C5.196 5.33317 4 6.52917 4 7.99984V26.6665C4 28.1372 5.196 29.3332 6.66667 29.3332ZM13.0653 26.6492H10.6667V24.2505L17.3027 17.6238L19.7013 20.0225L13.0653 26.6492ZM20.8307 18.8932L18.432 16.4945L20.2613 14.6665L22.66 17.0652L20.8307 18.8932ZM6.66667 9.33317H25.3333V11.9998H6.66667V9.33317Z" fill="url(#paint0_linear_9079_19900)"/>
<defs>
<linearGradient id="paint0_linear_9079_19900" x1="20.6773" y1="-2.62182" x2="8.75909" y2="26.9394" gradientUnits="userSpaceOnUse">
<stop stop-color="#7CBEFA"/>
<stop offset="1" stop-color="#626EDA"/>
</linearGradient>
</defs>
</svg>
