<svg width="32" height="32" viewBox="0 0 32 32" fill="none" xmlns="http://www.w3.org/2000/svg">
<path d="M2.6667 13.9978C2.66718 11.8389 3.36607 9.73819 4.65892 8.00957C5.95177 6.28094 7.76915 5.01724 9.83943 4.40735C11.9097 3.79746 14.1217 3.87412 16.1448 4.62589C18.1679 5.37766 19.8935 6.76415 21.0637 8.57814C22.2338 10.3921 22.7857 12.5362 22.6368 14.6899C22.4879 16.8436 21.6462 18.8913 20.2376 20.5269C18.8289 22.1625 16.929 23.2982 14.8217 23.7642C12.7144 24.2303 10.5129 24.0016 8.54623 23.1124C6.86941 23.4991 5.0633 23.8324 4.23288 23.9818C4.02066 24.0197 3.8024 24.0054 3.59696 23.94C3.39152 23.8746 3.20508 23.7602 3.05376 23.6066C2.90244 23.453 2.79079 23.2649 2.72846 23.0584C2.66613 22.852 2.655 22.6335 2.69602 22.4218C2.85331 21.6084 3.20253 19.8644 3.60374 18.2311C2.98457 16.9059 2.66465 15.4606 2.6667 13.9978ZM10.8562 8.40711C10.267 8.72178 9.80318 9.21111 9.45262 9.86044C9.33788 10.0924 9.31752 10.3598 9.39582 10.6065C9.47411 10.8532 9.64496 11.0599 9.87246 11.1832C10.1 11.3065 10.3664 11.3367 10.6157 11.2676C10.865 11.1984 11.0778 11.0353 11.2094 10.8124C11.4054 10.4524 11.6066 10.2738 11.7986 10.1724C11.9985 10.0644 12.2704 9.99911 12.6636 9.99911C12.9622 9.99911 13.3128 10.1044 13.57 10.3164C13.798 10.5031 13.9966 10.8018 13.9966 11.3311C13.9966 11.5911 13.8966 11.7111 13.2128 12.2484C12.613 12.7204 11.6639 13.4858 11.6639 14.9978C11.6639 15.263 11.7693 15.5173 11.9568 15.7049C12.1442 15.8924 12.3985 15.9978 12.6636 15.9978C12.9288 15.9978 13.1831 15.8924 13.3705 15.7049C13.558 15.5173 13.6633 15.263 13.6633 14.9978C13.6633 14.5044 13.8819 14.2658 14.4471 13.8204L14.5604 13.7338C15.0762 13.3364 15.996 12.6311 15.996 11.3311C15.996 10.2004 15.5281 9.33378 14.839 8.76844C14.2223 8.27231 13.4551 8.00098 12.6636 7.99911C12.0572 7.99911 11.4347 8.09778 10.8562 8.40711ZM13.9966 18.6644C13.9966 18.3108 13.8561 17.9717 13.6062 17.7216C13.3562 17.4716 13.0172 17.3311 12.6636 17.3311C12.3101 17.3311 11.9711 17.4716 11.7211 17.7216C11.4711 17.9717 11.3307 18.3108 11.3307 18.6644C11.3307 19.0181 11.4711 19.3572 11.7211 19.6073C11.9711 19.8573 12.3101 19.9978 12.6636 19.9978C13.0172 19.9978 13.3562 19.8573 13.6062 19.6073C13.8561 19.3572 13.9966 19.0181 13.9966 18.6644Z" fill="url(#paint0_linear_14689_5386)"/>
<path d="M12.5303 25.3311C14.3773 27.0486 16.8066 28.0015 19.3283 27.9978C20.7945 27.9978 22.1887 27.6818 23.4457 27.1124C25.1252 27.4991 26.9393 27.8324 27.775 27.9791C27.9876 28.0166 28.2061 28.0017 28.4117 27.9357C28.6172 27.8697 28.8036 27.7545 28.9546 27.6002C29.1055 27.4459 29.2166 27.2571 29.2782 27.0501C29.3398 26.8431 29.35 26.6242 29.3079 26.4124C29.0314 25.0122 28.7247 23.6181 28.3882 22.2311C28.9808 20.9617 29.3004 19.582 29.3261 18.1812C29.3518 16.7805 29.083 15.3899 28.5373 14.0997C27.9916 12.8094 27.181 11.6482 26.1581 10.6912C25.1352 9.73425 23.9227 9.00287 22.5993 8.54444C23.552 10.2804 24.0334 12.2358 23.9955 14.2159C23.9575 16.1959 23.4016 18.1314 22.383 19.8296C21.3644 21.5277 19.9187 22.9293 18.19 23.8945C16.4614 24.8598 14.51 25.3551 12.5303 25.3311Z" fill="url(#paint1_linear_14689_5386)"/>
<defs>
<linearGradient id="paint0_linear_14689_5386" x1="21.197" y1="-0.759358" x2="12.0702" y2="27.189" gradientUnits="userSpaceOnUse">
<stop stop-color="#7CBEFA"/>
<stop offset="1" stop-color="#626EDA"/>
</linearGradient>
<linearGradient id="paint1_linear_14689_5386" x1="21.197" y1="-0.759358" x2="12.0702" y2="27.189" gradientUnits="userSpaceOnUse">
<stop stop-color="#7CBEFA"/>
<stop offset="1" stop-color="#626EDA"/>
</linearGradient>
</defs>
</svg>
