<svg width="28" height="27" viewBox="0 0 28 27" fill="none" xmlns="http://www.w3.org/2000/svg">
<path d="M11.2821 2.21795H11.3477L7.9631 5.29488H0.666687V4.26924C0.666687 3.18117 1.09892 2.13766 1.8683 1.36828C2.63768 0.598905 3.68118 0.166672 4.76925 0.166672H8.35899C8.59175 0.167086 8.81744 0.246658 8.99899 0.392313L11.2821 2.21795ZM9.04823 7.07949L14.3959 2.21795H21.1795C22.2676 2.21795 23.3111 2.65019 24.0805 3.41957C24.8498 4.18895 25.2821 5.23245 25.2821 6.32052V9.07129C24.8087 8.35869 24.1919 7.75264 23.4711 7.29181C22.7503 6.83098 21.9413 6.52551 21.0958 6.39489C20.2503 6.26427 19.3869 6.31138 18.5606 6.53321C17.7344 6.75504 16.9635 7.14671 16.2971 7.68323C15.6307 8.21974 15.0835 8.8893 14.6904 9.64917C14.2974 10.409 14.067 11.2425 14.0142 12.0964C13.9613 12.9503 14.0871 13.8058 14.3835 14.6084C14.6798 15.4109 15.1403 16.1428 15.7354 16.7574H15.6985C13.3785 16.7574 11.3641 18.4128 10.9867 20.6795H4.76925C3.68118 20.6795 2.63768 20.2473 1.8683 19.4779C1.09892 18.7085 0.666687 17.665 0.666687 16.5769V7.34616H8.35899C8.61389 7.346 8.8596 7.25094 9.04823 7.07949ZM20.1539 16.5769C21.2419 16.5769 22.2854 16.1447 23.0548 15.3753C23.8242 14.6059 24.2564 13.5624 24.2564 12.4744C24.2564 11.3863 23.8242 10.3428 23.0548 9.57341C22.2854 8.80403 21.2419 8.3718 20.1539 8.3718C19.0658 8.3718 18.0223 8.80403 17.2529 9.57341C16.4835 10.3428 16.0513 11.3863 16.0513 12.4744C16.0513 13.5624 16.4835 14.6059 17.2529 15.3753C18.0223 16.1447 19.0658 16.5769 20.1539 16.5769ZM15.6985 18.8087C14.1949 18.8087 12.9744 19.9923 12.9744 21.4508C12.9744 23.8077 14.6298 25.8631 16.9908 26.4354L17.161 26.4764C19.1262 26.9523 21.1816 26.9523 23.1467 26.4764L23.3169 26.4354C25.6759 25.8631 27.3334 23.8077 27.3334 21.4508C27.3334 19.9923 26.1128 18.8087 24.6093 18.8087H15.6985Z" fill="url(#paint0_linear_8862_1175)"/>
<defs>
<linearGradient id="paint0_linear_8862_1175" x1="19.197" y1="-5.12165" x2="8.1779" y2="25.2463" gradientUnits="userSpaceOnUse">
<stop stop-color="#7CBEFA"/>
<stop offset="1" stop-color="#626EDA"/>
</linearGradient>
</defs>
</svg>
