<svg width="16" height="11" viewBox="0 0 16 11" fill="none" xmlns="http://www.w3.org/2000/svg">
<path d="M12 4.98333V4.98346L12.0081 4.9832C12.9907 4.95151 13.9431 5.23769 14.6453 5.66374C14.9961 5.87657 15.2769 6.11974 15.4676 6.36719C15.6591 6.61566 15.75 6.855 15.75 7.06667C15.75 7.07493 15.7479 7.10489 15.6901 7.15862C15.6306 7.214 15.5311 7.27529 15.3863 7.33626C15.1341 7.44244 14.7892 7.52939 14.4003 7.59326C13.7862 6.54685 12.6976 5.74283 11.4542 5.1658C11.4567 5.1626 11.4593 5.1594 11.4619 5.15617L11.464 5.15349C11.5059 5.10112 11.5506 5.04528 11.5964 4.98333H12ZM4 4.91667H4.39954L4.56096 5.15879C3.31128 5.73631 2.21634 6.5426 1.59968 7.59326C1.21078 7.52939 0.86586 7.44244 0.613681 7.33626C0.468874 7.27529 0.369397 7.214 0.309859 7.15862C0.2521 7.10489 0.25 7.07493 0.25 7.06667C0.25 6.85501 0.340891 6.61557 0.532669 6.36579C0.723665 6.11703 1.00493 5.87155 1.35642 5.65434C2.06001 5.21954 3.01472 4.91667 4 4.91667ZM10.4167 2.66667C10.4167 3.99526 9.3286 5.08333 8 5.08333C6.6714 5.08333 5.58333 3.99526 5.58333 2.66667C5.58333 1.33807 6.6714 0.25 8 0.25C9.3286 0.25 10.4167 1.33807 10.4167 2.66667ZM2.91667 9.33333C2.91667 8.66361 3.47457 7.89579 4.4429 7.27736C5.39612 6.66858 6.68305 6.25 8 6.25C9.31695 6.25 10.6039 6.66858 11.5571 7.27736C12.5254 7.89579 13.0833 8.66361 13.0833 9.33333C13.0833 9.40616 13.05 9.48866 12.9395 9.58529C12.8259 9.68473 12.6491 9.78127 12.4122 9.87008C11.9401 10.0471 11.2968 10.1693 10.6357 10.2519C9.97826 10.3341 9.31902 10.3754 8.82293 10.3961C8.5752 10.4064 8.36887 10.4115 8.2247 10.4141C8.15263 10.4154 8.09614 10.416 8.05781 10.4164L8.01429 10.4166L8.00337 10.4167L8.00073 10.4167L8.00012 10.4167H8H7.99988L7.99927 10.4167L7.99663 10.4167L7.98571 10.4166L7.94219 10.4164C7.90386 10.416 7.84737 10.4154 7.7753 10.4141C7.63113 10.4115 7.4248 10.4064 7.17707 10.3961C6.68098 10.3754 6.02174 10.3341 5.36434 10.2519C4.70319 10.1693 4.05985 10.0471 3.58778 9.87008C3.35095 9.78127 3.17411 9.68473 3.06046 9.58529C2.95003 9.48866 2.91667 9.40616 2.91667 9.33333ZM12.1309 3.74559C12.2109 3.40252 12.25 3.0331 12.25 2.66667C12.25 1.79482 11.9767 0.97832 11.5263 0.312383C11.6703 0.270767 11.8232 0.25 12 0.25C12.9953 0.25 13.75 1.00474 13.75 2C13.75 2.95114 13.0607 3.68261 12.1309 3.74559ZM3.8691 3.74559C2.9393 3.68261 2.25 2.95114 2.25 2C2.25 1.00474 3.00474 0.25 4 0.25C4.17678 0.25 4.32967 0.270767 4.47373 0.312383C4.02328 0.97832 3.75 1.79482 3.75 2.66667C3.75 3.0331 3.78913 3.40252 3.8691 3.74559Z" fill="#448ADD" stroke="#448ADD" stroke-width="0.5"/>
</svg>
