<svg width="20" height="20" viewBox="0 0 20 20" fill="none" xmlns="http://www.w3.org/2000/svg">
<path d="M19.4802 18.3556C19.6141 18.4898 19.6967 18.6668 19.7136 18.8556C19.7304 19.0445 19.6805 19.2332 19.5725 19.3891L19.4802 19.5008C19.3462 19.635 19.1693 19.7179 18.9805 19.7351C18.7916 19.7522 18.6028 19.7026 18.4467 19.5948L18.3334 19.5008L11.9156 13.0815L7.39465 17.6056C6.99592 18.0041 6.50012 18.2917 5.95624 18.4398L1.30247 19.7098C1.1647 19.7474 1.01944 19.7479 0.881419 19.7113C0.743396 19.6746 0.617514 19.6021 0.516536 19.5012C0.415558 19.4002 0.343074 19.2743 0.306432 19.1363C0.269791 18.9982 0.270294 18.853 0.307892 18.7152L1.57622 14.0598C1.72487 13.5158 2.01298 13.02 2.41205 12.6214L6.93137 8.1021L0.51685 1.68595C0.382683 1.55194 0.299793 1.3751 0.282624 1.18625C0.265456 0.997398 0.315098 0.80851 0.4229 0.652502L0.51523 0.539113C0.649442 0.405194 0.826384 0.322604 1.01523 0.305732C1.20407 0.28886 1.39285 0.338776 1.54868 0.446783L1.66207 0.540733L19.4802 18.3556ZM8.07821 9.24408L3.55727 13.7666C3.35774 13.9659 3.21368 14.2138 3.13935 14.4858L2.24359 17.7725L5.53022 16.8751C5.80208 16.8012 6.04997 16.6577 6.24943 16.4588L10.7704 11.9362L8.07821 9.24408ZM18.4775 1.12873L18.6913 1.32311L18.8873 1.53693C19.4591 2.21167 19.7563 3.07669 19.72 3.96037C19.6837 4.84404 19.3165 5.68177 18.6913 6.30733L14.2044 10.7878L13.0608 9.64418L15.6282 7.07837L12.9361 4.38621L10.3703 6.95364L9.22343 5.8068L13.7104 1.32473C14.3361 0.699764 15.174 0.332877 16.0576 0.29687C16.9413 0.260863 17.8062 0.558368 18.4808 1.13035L18.4775 1.12873ZM14.854 2.46833L14.0829 3.23937L16.7751 5.93153L17.5461 5.16211C17.7229 4.98534 17.8631 4.77548 17.9588 4.54452C18.0544 4.31356 18.1037 4.06602 18.1037 3.81603C18.1037 3.56604 18.0544 3.3185 17.9588 3.08754C17.8631 2.85658 17.7229 2.64672 17.5461 2.46995C17.3693 2.29318 17.1595 2.15296 16.9285 2.05729C16.6976 1.96163 16.45 1.91239 16.2 1.91239C15.9501 1.91239 15.7025 1.96163 15.4715 2.05729C15.2406 2.15296 15.0307 2.29318 14.854 2.46995V2.46833Z" fill="#448ADD"/>
</svg>
