<svg width="29" height="24" viewBox="0 0 29 24" fill="none" xmlns="http://www.w3.org/2000/svg">
<path d="M28.166 12.8808C28.166 13.7673 27.9914 14.645 27.6522 15.4639C27.313 16.2829 26.8158 17.027 26.189 17.6538C25.5622 18.2806 24.8181 18.7778 23.9991 19.117C23.1802 19.4562 22.3024 19.6308 21.416 19.6308C20.5296 19.6308 19.6518 19.4562 18.8329 19.117C18.6293 19.0327 18.4303 18.9386 18.2366 18.8351C17.6512 18.5226 17.114 18.1248 16.643 17.6538C16.3952 17.406 16.1677 17.1399 15.9622 16.858C15.6478 16.4269 15.3849 15.9591 15.1798 15.4639C14.8406 14.645 14.666 13.7673 14.666 12.8808C14.666 12.7493 14.6699 12.6182 14.6775 12.4876C14.7242 11.6864 14.9131 10.9057 15.2298 10.1802C15.3738 9.85028 15.5443 9.53174 15.7399 9.22787C15.9982 8.82646 16.3003 8.45063 16.643 8.10786C16.8476 7.90326 17.064 7.71314 17.2906 7.53818C18.4658 6.63068 19.9152 6.13083 21.416 6.13083C23.2062 6.13083 24.9231 6.84199 26.189 8.10786C27.4549 9.37373 28.166 11.0906 28.166 12.8808ZM22.166 9.88083C22.166 9.68192 22.087 9.49115 21.9463 9.3505C21.8057 9.20985 21.6149 9.13083 21.416 9.13083C21.2171 9.13083 21.0263 9.20985 20.8857 9.3505C20.745 9.49115 20.666 9.68192 20.666 9.88083V12.1308H18.416C18.2171 12.1308 18.0263 12.2098 17.8857 12.3505C17.745 12.4912 17.666 12.6819 17.666 12.8808C17.666 13.0797 17.745 13.2705 17.8857 13.4112C18.0263 13.5518 18.2171 13.6308 18.416 13.6308H20.666V15.8808C20.666 16.0797 20.745 16.2705 20.8857 16.4112C21.0263 16.5518 21.2171 16.6308 21.416 16.6308C21.6149 16.6308 21.8057 16.5518 21.9463 16.4112C22.087 16.2705 22.166 16.0797 22.166 15.8808V13.6308H24.416C24.6149 13.6308 24.8057 13.5518 24.9463 13.4112C25.087 13.2705 25.166 13.0797 25.166 12.8808C25.166 12.6819 25.087 12.4912 24.9463 12.3505C24.8057 12.2098 24.6149 12.1308 24.416 12.1308H22.166V9.88083Z" fill="#448ADD"/>
<path fill-rule="evenodd" clip-rule="evenodd" d="M15.9622 18.5616V20.9755H2.31547V15.2871H0.0410156V23.25H18.2366V20.0855C17.3954 19.7142 16.6256 19.1985 15.9622 18.5616ZM13.9745 15.4576L4.10887 13.7178L4.50349 11.4774L13.5433 13.0715C13.563 13.8849 13.7086 14.6898 13.9745 15.4576ZM13.6062 11.8691L5.9671 7.45849L7.10432 5.48882L14.2503 9.61466C13.9257 10.3268 13.7076 11.0865 13.6062 11.8691ZM15.2298 10.1802C14.9131 10.9057 14.7242 11.6864 14.6775 12.4876C14.6699 12.6182 14.666 12.7493 14.666 12.8808C14.666 13.7673 14.8406 14.645 15.1798 15.4639C15.3849 15.9591 15.6478 16.4269 15.9622 16.858C16.1677 17.1399 16.3952 17.406 16.643 17.6538C17.114 18.1248 17.6512 18.5226 18.2366 18.8351C18.4303 18.9386 18.6293 19.0327 18.8329 19.117C19.6518 19.4562 20.5296 19.6308 21.416 19.6308C22.3024 19.6308 23.1802 19.4562 23.9991 19.117C24.8181 18.7778 25.5622 18.2806 26.189 17.6538C26.8158 17.027 27.313 16.2829 27.6522 15.4639C27.9914 14.645 28.166 13.7673 28.166 12.8808C28.166 11.0906 27.4549 9.37373 26.189 8.10786C24.9231 6.84199 23.2062 6.13083 21.416 6.13083C19.9152 6.13083 18.4658 6.63068 17.2906 7.53818C17.064 7.71314 16.8476 7.90326 16.643 8.10786C16.3003 8.45063 15.9982 8.82646 15.7399 9.22787C15.5443 9.53174 15.3738 9.85028 15.2298 10.1802ZM9.85299 2.21247L14.9878 8.33168C15.2434 7.97057 15.5306 7.62935 15.8475 7.31236C16.0754 7.08453 16.3157 6.8721 16.567 6.67574L11.5952 0.75L9.85299 2.21247ZM4.0213 16.4244V18.6988H14.2563V16.4244H4.0213ZM21.9463 9.3505C22.087 9.49115 22.166 9.68192 22.166 9.88083V12.1308H24.416C24.6149 12.1308 24.8057 12.2098 24.9463 12.3505C25.087 12.4912 25.166 12.6819 25.166 12.8808C25.166 13.0797 25.087 13.2705 24.9463 13.4112C24.8057 13.5518 24.6149 13.6308 24.416 13.6308H22.166V15.8808C22.166 16.0797 22.087 16.2705 21.9463 16.4112C21.8057 16.5518 21.6149 16.6308 21.416 16.6308C21.2171 16.6308 21.0263 16.5518 20.8857 16.4112C20.745 16.2705 20.666 16.0797 20.666 15.8808V13.6308H18.416C18.2171 13.6308 18.0263 13.5518 17.8857 13.4112C17.745 13.2705 17.666 13.0797 17.666 12.8808C17.666 12.6819 17.745 12.4912 17.8857 12.3505C18.0263 12.2098 18.2171 12.1308 18.416 12.1308H20.666V9.88083C20.666 9.68192 20.745 9.49115 20.8857 9.3505C21.0263 9.20985 21.2171 9.13083 21.416 9.13083C21.6149 9.13083 21.8057 9.20985 21.9463 9.3505Z" fill="#448ADD"/>
</svg>
