<svg width="18" height="14" viewBox="0 0 18 14" fill="none" xmlns="http://www.w3.org/2000/svg">
<path d="M15.9444 0.833344H2.05551C1.28873 0.833344 0.666626 1.43323 0.666626 2.17263V11.9941C0.666626 12.7335 1.28873 13.3333 2.05551 13.3333H15.9444C16.7112 13.3333 17.3333 12.7335 17.3333 11.9941V2.17263C17.3333 1.43323 16.7112 0.833344 15.9444 0.833344ZM5.75922 3.51192C6.78063 3.51192 7.61107 4.3127 7.61107 5.29763C7.61107 6.28256 6.78063 7.08334 5.75922 7.08334C4.73781 7.08334 3.90737 6.28256 3.90737 5.29763C3.90737 4.3127 4.73781 3.51192 5.75922 3.51192ZM8.99996 10.1191C8.99996 10.4148 8.71061 10.6548 8.35181 10.6548H3.16663C2.80783 10.6548 2.51848 10.4148 2.51848 10.1191V9.58334C2.51848 8.69607 3.38943 7.9762 4.46292 7.9762H4.6076C4.9635 8.1185 5.35123 8.19942 5.75922 8.19942C6.1672 8.19942 6.55783 8.1185 6.91084 7.9762H7.05552C8.12901 7.9762 8.99996 8.69607 8.99996 9.58334V10.1191ZM15.4814 8.64584C15.4814 8.76861 15.3773 8.86906 15.25 8.86906H11.0833C10.956 8.86906 10.8518 8.76861 10.8518 8.64584V8.19942C10.8518 8.07665 10.956 7.9762 11.0833 7.9762H15.25C15.3773 7.9762 15.4814 8.07665 15.4814 8.19942V8.64584ZM15.4814 6.86013C15.4814 6.9829 15.3773 7.08334 15.25 7.08334H11.0833C10.956 7.08334 10.8518 6.9829 10.8518 6.86013V6.4137C10.8518 6.29093 10.956 6.19049 11.0833 6.19049H15.25C15.3773 6.19049 15.4814 6.29093 15.4814 6.4137V6.86013ZM15.4814 5.07442C15.4814 5.19718 15.3773 5.29763 15.25 5.29763H11.0833C10.956 5.29763 10.8518 5.19718 10.8518 5.07442V4.62799C10.8518 4.50522 10.956 4.40477 11.0833 4.40477H15.25C15.3773 4.40477 15.4814 4.50522 15.4814 4.62799V5.07442Z" fill="#225999"/>
</svg>
