<svg width="16" height="15" viewBox="0 0 16 15" fill="none" xmlns="http://www.w3.org/2000/svg">
<path d="M8.9375 0.937477C8.9375 0.688837 8.83873 0.45038 8.66291 0.274565C8.4871 0.0987491 8.24864 -2.28882e-05 8 -2.28882e-05C7.75136 -2.28882e-05 7.5129 0.0987491 7.33709 0.274565C7.16127 0.45038 7.0625 0.688837 7.0625 0.937477V1.87498C7.0625 2.12362 7.16127 2.36207 7.33709 2.53789C7.5129 2.71371 7.75136 2.81248 8 2.81248C8.24864 2.81248 8.4871 2.71371 8.66291 2.53789C8.83873 2.36207 8.9375 2.12362 8.9375 1.87498V0.937477Z" fill="#28A470"/>
<path d="M13.3029 3.52214C13.4736 3.34533 13.5681 3.10851 13.566 2.8627C13.5639 2.61689 13.4653 2.38176 13.2915 2.20794C13.1176 2.03412 12.8825 1.93552 12.6367 1.93339C12.3909 1.93125 12.1541 2.02574 11.9772 2.19652L11.3144 2.85933C11.1437 3.03614 11.0492 3.27296 11.0513 3.51877C11.0534 3.76458 11.152 3.99971 11.3259 4.17353C11.4997 4.34735 11.7348 4.44595 11.9806 4.44809C12.2264 4.45022 12.4632 4.35573 12.6401 4.18495L13.3029 3.52214Z" fill="#28A470"/>
<path d="M15.499 7.5C15.499 7.74864 15.4003 7.9871 15.2244 8.16292C15.0486 8.33873 14.8102 8.4375 14.5615 8.4375H13.624C13.3754 8.4375 13.1369 8.33873 12.9611 8.16292C12.7853 7.9871 12.6865 7.74864 12.6865 7.5C12.6865 7.25136 12.7853 7.01291 12.9611 6.83709C13.1369 6.66128 13.3754 6.5625 13.624 6.5625H14.5615C14.8102 6.5625 15.0486 6.66128 15.2244 6.83709C15.4003 7.01291 15.499 7.25136 15.499 7.5Z" fill="#28A470"/>
<path d="M3.3586 4.18496C3.44508 4.2745 3.54853 4.34592 3.66291 4.39505C3.77728 4.44418 3.9003 4.47005 4.02478 4.47113C4.14926 4.47221 4.27271 4.44849 4.38793 4.40135C4.50314 4.35421 4.60782 4.2846 4.69584 4.19658C4.78387 4.10855 4.85348 4.00388 4.90062 3.88866C4.94776 3.77345 4.97148 3.65 4.97039 3.52552C4.96931 3.40104 4.94345 3.27802 4.89432 3.16364C4.84518 3.04926 4.77376 2.94581 4.68422 2.85933L4.02141 2.19652C3.84459 2.02574 3.60778 1.93125 3.36197 1.93339C3.11616 1.93552 2.88102 2.03412 2.7072 2.20794C2.53338 2.38176 2.43479 2.61689 2.43265 2.8627C2.43052 3.10851 2.52501 3.34533 2.69578 3.52214L3.3586 4.18496Z" fill="#28A470"/>
<path d="M3.31201 7.5C3.31201 7.74864 3.21324 7.9871 3.03742 8.16292C2.86161 8.33873 2.62315 8.4375 2.37451 8.4375H1.43701C1.18837 8.4375 0.949915 8.33873 0.774099 8.16292C0.598284 7.9871 0.499512 7.74864 0.499512 7.5C0.499512 7.25136 0.598284 7.01291 0.774099 6.83709C0.949915 6.66128 1.18837 6.5625 1.43701 6.5625H2.37451C2.62315 6.5625 2.86161 6.66128 3.03742 6.83709C3.21324 7.01291 3.31201 7.25136 3.31201 7.5Z" fill="#28A470"/>
<path d="M6.12451 13.125V12.1875H9.87451V13.125C9.87451 13.6222 9.67697 14.0991 9.32534 14.4508C8.97371 14.8024 8.49679 15 7.99951 15C7.50223 15 7.02532 14.8024 6.67369 14.4508C6.32206 14.0991 6.12451 13.6222 6.12451 13.125Z" fill="#28A470"/>
<path d="M9.87451 11.25C9.88857 10.9313 10.0695 10.6444 10.3217 10.4447C10.9336 9.96213 11.3799 9.30092 11.5987 8.55297C11.8175 7.80502 11.7978 7.0075 11.5424 6.27126C11.287 5.53501 10.8086 4.89661 10.1737 4.44481C9.53872 3.993 8.77879 3.75022 7.99951 3.75022C7.22023 3.75022 6.4603 3.993 5.82536 4.44481C5.19042 4.89661 4.712 5.53501 4.45661 6.27126C4.20122 7.0075 4.18154 7.80502 4.40031 8.55297C4.61909 9.30092 5.06544 9.96213 5.67732 10.4447C5.93045 10.6444 6.11045 10.9313 6.12357 11.25H9.87545H9.87451Z" fill="#28A470"/>
</svg>
