<svg width="19" height="15" viewBox="0 0 19 15" fill="none" xmlns="http://www.w3.org/2000/svg">
<path d="M6.74993 7.91642C8.77526 7.91642 10.4167 6.33101 10.4167 4.37483C10.4167 2.41866 8.77526 0.833252 6.74993 0.833252C4.72459 0.833252 3.08312 2.41866 3.08312 4.37483C3.08312 6.33101 4.72459 7.91642 6.74993 7.91642ZM9.31669 8.80181H8.83829C8.20233 9.08403 7.49475 9.24451 6.74993 9.24451C6.0051 9.24451 5.30039 9.08403 4.66156 8.80181H4.18316C2.05755 8.80181 0.333008 10.4675 0.333008 12.5205V13.6715C0.333008 14.4047 0.948917 14.9996 1.70806 14.9996H9.58311C9.51436 14.8114 9.48571 14.6122 9.50863 14.4102L9.70343 12.7252L9.7378 12.4181L9.96411 12.1995L12.1785 10.0607C11.4767 9.29431 10.4597 8.80181 9.31669 8.80181ZM10.6144 12.8221L10.4196 14.5098C10.3881 14.7921 10.6345 15.03 10.9238 14.9968L12.6684 14.8087L16.6188 10.9932L14.5648 9.00933L10.6144 12.8221ZM18.4665 8.27334L17.3808 7.2247C17.1144 6.96738 16.679 6.96738 16.4125 7.2247L15.3297 8.27058L15.2122 8.38402L17.2691 10.3679L18.4665 9.21131C18.7329 8.95122 18.7329 8.53343 18.4665 8.27334Z" fill="#99A5AE"/>
</svg>
