<svg width="24" height="23" viewBox="0 0 24 23" fill="none" xmlns="http://www.w3.org/2000/svg">
<path d="M22 22.6885H2C1.66848 22.6885 1.35054 22.57 1.11612 22.359C0.881696 22.148 0.75 21.8618 0.75 21.5635V1.31348C0.75 1.01511 0.881696 0.72896 1.11612 0.517981C1.35054 0.307003 1.66848 0.188477 2 0.188477H22C22.3315 0.188477 22.6495 0.307003 22.8839 0.517981C23.1183 0.72896 23.25 1.01511 23.25 1.31348V21.5635C23.25 21.8618 23.1183 22.148 22.8839 22.359C22.6495 22.57 22.3315 22.6885 22 22.6885ZM5.75 4.68848V9.18848H10.75V4.68848H5.75ZM5.75 11.4385V13.6885H18.25V11.4385H5.75ZM5.75 15.9385V18.1885H18.25V15.9385H5.75ZM13.25 5.81348V8.06348H18.25V5.81348H13.25Z" fill="#5F6B73"/>
</svg>
