<svg width="15" height="12" viewBox="0 0 22 19" fill="none" xmlns="http://www.w3.org/2000/svg">
<path d="M17 9C15.7113 9 14.5372 9.48635 13.651 10.2857C13.1755 10.7147 12.7829 11.2338 12.5 11.8163C12.3498 12.1255 12.2305 12.4527 12.1462 12.7937C12.0507 13.18 12 13.584 12 14C12 15.6365 12.7842 17.0881 13.9978 18C14.8335 18.628 15.8729 19 17 19C19.7635 19 22 16.7635 22 14C22 11.2365 19.7635 9 17 9ZM19.2222 14.2184C19.2222 14.4038 19.0705 14.5556 18.8851 14.5556H16.7819C16.5965 14.5556 16.4448 14.4038 16.4448 14.2184V11.5597C16.4448 11.3743 16.5965 11.2226 16.7819 11.2226H17.2184C17.4038 11.2226 17.5556 11.3743 17.5556 11.5597V13.4444H18.8851C19.0705 13.4444 19.2222 13.5962 19.2222 13.7816V14.2184Z" fill="#5F6B73"/>
<path fill-rule="evenodd" clip-rule="evenodd" d="M12.1462 12.7937C12.2305 12.4527 12.3498 12.1255 12.5 11.8163C12.7829 11.2338 13.1755 10.7147 13.651 10.2857C14.5372 9.48635 15.7113 9 17 9C19.7635 9 22 11.2365 22 14C22 16.7635 19.7635 19 17 19C15.8729 19 14.8335 18.628 13.9978 18C12.7842 17.0881 12 15.6365 12 14C12 13.584 12.0507 13.18 12.1462 12.7937ZM8.125 12.8571H11.1087C11.0374 13.2271 11 13.6092 11 14C11 15.5367 11.5777 16.9385 12.5278 18H1.875C0.875 18 0 17.1 0 16.0714V10.2857H7.5V12.2143C7.5 12.5695 7.77969 12.8571 8.125 12.8571ZM20 8.80269V5.78571C20 4.75714 19.125 3.85714 18.125 3.85714H15V1.92857C15 0.9 14.125 0 13.125 0H6.875C5.875 0 5 0.9 5 1.92857V3.85714H1.875C0.875 3.85714 0 4.75714 0 5.78571V9H13.6822C14.6325 8.36815 15.7733 8 17 8C18.0929 8 19.1175 8.29218 20 8.80269ZM7.5 3.85714H12.5V2.57143H7.5V3.85714ZM18.8851 14.5556C19.0705 14.5556 19.2222 14.4038 19.2222 14.2184V13.7816C19.2222 13.5962 19.0705 13.4444 18.8851 13.4444H17.5556V11.5597C17.5556 11.3743 17.4038 11.2226 17.2184 11.2226H16.7819C16.5965 11.2226 16.4448 11.3743 16.4448 11.5597V14.2184C16.4448 14.4038 16.5965 14.5556 16.7819 14.5556H18.8851Z" fill="#5F6B73"/>
</svg>
