<svg width="23" height="20" viewBox="0 0 23 20" fill="none" xmlns="http://www.w3.org/2000/svg">
<path d="M3 0V6H1V0H3ZM1 20V14H3V20H1ZM4 10C4 11.11 3.11 12 2 12C1.60444 12 1.21776 11.8827 0.88886 11.6629C0.559962 11.4432 0.303617 11.1308 0.152242 10.7654C0.000866562 10.3999 -0.0387401 9.99778 0.0384303 9.60982C0.115601 9.22186 0.306082 8.86549 0.585787 8.58579C0.865492 8.30608 1.22186 8.1156 1.60982 8.03843C1.99778 7.96126 2.39992 8.00087 2.76537 8.15224C3.13082 8.30362 3.44318 8.55996 3.66294 8.88886C3.8827 9.21776 4 9.60444 4 10ZM15 2C19.42 2 23 5.58 23 10C23 14.42 19.42 18 15 18C11.4 18 8.36 15.62 7.35 12.35L5 10L7.35 7.65C8.36 4.38 11.4 2 15 2ZM14 11L18.53 13.79L19.33 12.5L15.5 10.2V5H14V11Z" fill="#5F6B73"/>
</svg>
