<svg width="30" height="30" viewBox="0 0 30 30" fill="none" xmlns="http://www.w3.org/2000/svg">
<path fill-rule="evenodd" clip-rule="evenodd" d="M5 6.25C4.31536 6.25 3.75 6.81536 3.75 7.5V22.5C3.75 23.1846 4.31536 23.75 5 23.75H25C25.6846 23.75 26.25 23.1846 26.25 22.5V7.5C26.25 6.81536 25.6846 6.25 25 6.25H5ZM1.25 7.5C1.25 5.43464 2.93464 3.75 5 3.75H25C27.0654 3.75 28.75 5.43464 28.75 7.5V22.5C28.75 24.5654 27.0654 26.25 25 26.25H5C2.93464 26.25 1.25 24.5654 1.25 22.5V7.5Z" fill="#5F6B73"/>
<path fill-rule="evenodd" clip-rule="evenodd" d="M1.47607 6.78328C1.87196 6.21772 2.65137 6.08017 3.21694 6.47607L15.0001 14.7243L26.7833 6.47607C27.3488 6.08017 28.1283 6.21772 28.5241 6.78328C28.92 7.34884 28.7825 8.12825 28.2169 8.52415L15.7169 17.2741C15.2865 17.5754 14.7137 17.5754 14.2833 17.2741L1.78328 8.52415C1.21772 8.12825 1.08017 7.34884 1.47607 6.78328Z" fill="#5F6B73"/>
</svg>
