<svg width="25" height="24" viewBox="0 0 25 24" fill="none" xmlns="http://www.w3.org/2000/svg">
<path d="M12.5 11C12.2348 11 11.9804 11.1054 11.7929 11.2929C11.6054 11.4804 11.5 11.7348 11.5 12V16C11.5 16.2652 11.6054 16.5196 11.7929 16.7071C11.9804 16.8946 12.2348 17 12.5 17C12.7652 17 13.0196 16.8946 13.2071 16.7071C13.3946 16.5196 13.5 16.2652 13.5 16V12C13.5 11.7348 13.3946 11.4804 13.2071 11.2929C13.0196 11.1054 12.7652 11 12.5 11ZM12.88 7.08C12.6365 6.97998 12.3635 6.97998 12.12 7.08C11.9973 7.12759 11.8851 7.19896 11.79 7.29C11.7017 7.3872 11.6306 7.49882 11.58 7.62C11.524 7.73868 11.4966 7.86882 11.5 8C11.4992 8.13161 11.5245 8.26207 11.5742 8.38391C11.624 8.50574 11.6973 8.61656 11.79 8.71C11.8872 8.79833 11.9988 8.86936 12.12 8.92C12.2715 8.98224 12.436 9.00632 12.599 8.99011C12.7619 8.97391 12.9184 8.91792 13.0547 8.82707C13.191 8.73622 13.3029 8.61328 13.3805 8.46907C13.4582 8.32486 13.4992 8.16378 13.5 8C13.4963 7.73523 13.3927 7.48163 13.21 7.29C13.1149 7.19896 13.0028 7.12759 12.88 7.08ZM12.5 2C10.5222 2 8.58879 2.58649 6.9443 3.6853C5.29981 4.78412 4.01809 6.3459 3.26121 8.17317C2.50433 10.0004 2.3063 12.0111 2.69215 13.9509C3.078 15.8907 4.03041 17.6725 5.42894 19.0711C6.82746 20.4696 8.60929 21.422 10.5491 21.8079C12.4889 22.1937 14.4996 21.9957 16.3268 21.2388C18.1541 20.4819 19.7159 19.2002 20.8147 17.5557C21.9135 15.9112 22.5 13.9778 22.5 12C22.5 10.6868 22.2413 9.38642 21.7388 8.17317C21.2363 6.95991 20.4997 5.85752 19.5711 4.92893C18.6425 4.00035 17.5401 3.26375 16.3268 2.7612C15.1136 2.25866 13.8132 2 12.5 2ZM12.5 20C10.9178 20 9.37104 19.5308 8.05544 18.6518C6.73985 17.7727 5.71447 16.5233 5.10897 15.0615C4.50347 13.5997 4.34504 11.9911 4.65372 10.4393C4.9624 8.88743 5.72433 7.46197 6.84315 6.34315C7.96197 5.22433 9.38743 4.4624 10.9393 4.15372C12.4911 3.84504 14.0997 4.00346 15.5615 4.60896C17.0233 5.21447 18.2727 6.23984 19.1518 7.55544C20.0308 8.87103 20.5 10.4177 20.5 12C20.5 14.1217 19.6572 16.1566 18.1569 17.6569C16.6566 19.1571 14.6217 20 12.5 20Z" fill="#448ADD" stroke="#448ADD" stroke-width="0.5"/>
</svg>
