<svg width="18" height="19" viewBox="0 0 18 19" fill="none" xmlns="http://www.w3.org/2000/svg">
<path d="M13.9164 8.16684L14.0296 8.56153L14.4231 8.67887L15.7492 9.07434V10.1264L14.3842 10.5311L13.9933 10.6469L13.878 11.038C13.7759 11.3842 13.6371 11.7185 13.4639 12.0353L13.269 12.3915L13.4609 12.7494L14.1349 14.007L13.403 14.7381L12.1375 14.0633L11.7817 13.8736L11.4271 14.0658C11.1112 14.2371 10.778 14.3744 10.433 14.4753L10.0405 14.5901L9.9244 14.9821L9.51928 16.3501H8.4943L8.0893 14.9866L7.97247 14.5932L7.57824 14.4795C7.23019 14.3791 6.8939 14.2418 6.57511 14.0699L6.22108 13.8791L5.86622 14.0684L4.61079 14.7381L3.87644 14.0045L4.5466 12.7226L4.73572 12.3609L4.53461 12.0056C4.35272 11.6843 4.20657 11.3441 4.09877 10.9911L3.98152 10.6071L3.59698 10.4918L2.24963 10.0875V9.06215L3.58816 8.65815L3.97528 8.54132L4.09041 8.15369C4.19706 7.79464 4.34325 7.44849 4.52631 7.12162L4.72796 6.76156L4.53172 6.39852L3.88188 5.19627L4.62593 4.4713L5.83811 5.12524L6.20012 5.32053L6.55939 5.12024C6.88805 4.93702 7.23611 4.79092 7.59715 4.68464L7.98554 4.5703L8.10306 4.18287L8.50731 2.85017H9.54433L9.94565 4.17726L10.0624 4.56347L10.4491 4.67885C10.8071 4.78568 11.1521 4.93176 11.478 5.11439L11.8359 5.31504L12.1979 5.12177L13.4326 4.4626L14.1655 5.19792L13.5006 6.44149L13.3104 6.79716L13.5022 7.15193C13.6766 7.47431 13.8155 7.8146 13.9164 8.16684ZM7.07624 12.5105C7.65224 12.8949 8.32935 13.1001 9.02195 13.1001C9.95068 13.1001 10.8415 12.7316 11.4985 12.0753C12.1554 11.4189 12.5246 10.5286 12.5246 9.60014C12.5246 8.90774 12.3191 8.23096 11.9341 7.65537C11.5492 7.07979 11.0021 6.63129 10.3621 6.36647C9.72218 6.10166 9.01805 6.03238 8.33875 6.16737C7.65943 6.30237 7.03535 6.63559 6.54544 7.12501C6.05553 7.61445 5.72181 8.23812 5.5866 8.91719C5.45139 9.59626 5.52079 10.3001 5.786 10.9398C6.05119 11.5794 6.50024 12.126 7.07624 12.5105Z" fill="#448ADD" stroke="#448ADD" stroke-width="1.5"/>
</svg>
