<svg width="14" height="12" viewBox="0 0 14 12" fill="none" xmlns="http://www.w3.org/2000/svg">
<path d="M4.99986 6.00029C6.47283 6.00029 7.66663 4.80649 7.66663 3.33352C7.66663 1.86054 6.47283 0.666748 4.99986 0.666748C3.52688 0.666748 2.33309 1.86054 2.33309 3.33352C2.33309 4.80649 3.52688 6.00029 4.99986 6.00029ZM6.8666 6.66698H6.51867C6.05615 6.87949 5.54155 7.00033 4.99986 7.00033C4.45817 7.00033 3.94565 6.87949 3.48105 6.66698H3.13312C1.58722 6.66698 0.333008 7.9212 0.333008 9.46709V10.3338C0.333008 10.8859 0.780942 11.3338 1.33305 11.3338H7.06035C7.01035 11.1922 6.98952 11.0422 7.00619 10.8901L7.14786 9.62127L7.17286 9.39001L7.33745 9.22542L8.94793 7.61494C8.43749 7.03783 7.69788 6.66698 6.8666 6.66698ZM7.81038 9.69419L7.66871 10.9651C7.64579 11.1776 7.82497 11.3568 8.03539 11.3317L9.30419 11.1901L12.1772 8.31705L10.6834 6.82324L7.81038 9.69419ZM13.521 6.26905L12.7314 5.47944C12.5377 5.28568 12.221 5.28568 12.0272 5.47944L11.2397 6.26697L11.1543 6.35239L12.6502 7.8462L13.521 6.97533C13.7148 6.77949 13.7148 6.46489 13.521 6.26905Z" fill="#5F6B73"/>
</svg>
