<svg width="29" height="33" viewBox="0 0 29 33" fill="none" xmlns="http://www.w3.org/2000/svg">
<path d="M0.5 27.7096C0.5 28.9827 0.991665 30.2036 1.86684 31.1038C2.742 32.0039 3.92899 32.5096 5.16667 32.5096H23.8333C25.071 32.5096 26.258 32.0039 27.1332 31.1038C28.0083 30.2036 28.5 28.9827 28.5 27.7096V11.4344C28.4993 10.1621 28.0075 8.94202 27.1327 8.04244L21.178 1.91444C20.3028 1.01479 19.116 0.509491 17.8787 0.509644H5.16667C3.92899 0.509644 2.742 1.01536 1.86684 1.91553C0.991665 2.81571 0.5 4.0366 0.5 5.30964V27.7096ZM5.16667 29.3096C4.75411 29.3096 4.35845 29.1411 4.06672 28.841C3.775 28.541 3.61111 28.134 3.61111 27.7096V5.30964C3.61111 4.8853 3.775 4.47833 4.06672 4.17827C4.35845 3.87821 4.75411 3.70964 5.16667 3.70964H16.0556V8.50964C16.0556 9.78268 16.5472 11.0036 17.4224 11.9038C18.2976 12.8039 19.4845 13.3096 20.7222 13.3096H25.3889V27.7096C25.3889 28.134 25.225 28.541 24.9333 28.841C24.6416 29.1411 24.2459 29.3096 23.8333 29.3096H5.16667ZM24.7449 10.1096H20.7222C20.3097 10.1096 19.914 9.94107 19.6223 9.64101C19.3306 9.34096 19.1667 8.93399 19.1667 8.50964V4.37204L24.7449 10.1096Z" fill="#5F6B73"/>
<path d="M15.8743 13.7128C15.8743 13.0483 15.3428 12.5096 14.6871 12.5096C14.0315 12.5096 13.5 13.0483 13.5 13.7128V21.5331C13.5 22.1976 14.0315 22.7363 14.6871 22.7363C15.3428 22.7363 15.8743 22.1976 15.8743 21.5331V13.7128Z" fill="#F1B869"/>
<path d="M14.6871 23.5298C14.0315 23.5298 13.5 24.0685 13.5 24.7329C13.5 25.3974 14.0315 25.9361 14.6871 25.9361H14.7129C15.3685 25.9361 15.9 25.3974 15.9 24.7329C15.9 24.0685 15.3685 23.5298 14.7129 23.5298H14.6871Z" fill="#F1B869"/>
</svg>
