<svg width="22" height="18" viewBox="0 0 22 18" fill="none" xmlns="http://www.w3.org/2000/svg">
<path d="M7.15004 12.375C7.06788 12.375 6.98573 12.3873 6.90735 12.4133C6.46185 12.5613 5.99332 12.6562 5.50004 12.6562C5.00676 12.6562 4.53823 12.5613 4.09239 12.4133C4.01401 12.3873 3.9322 12.375 3.85005 12.375C1.71674 12.375 -0.0112882 14.1497 5.55319e-05 16.3343C0.00486802 17.2575 0.747022 18 1.65005 18H9.35003C10.2531 18 10.9952 17.2575 11 16.3343C11.0114 14.1497 9.28335 12.375 7.15004 12.375ZM5.50004 11.25C7.3226 11.25 8.80003 9.73898 8.80003 7.875C8.80003 6.01101 7.3226 4.5 5.50004 4.5C3.67748 4.5 2.20005 6.01101 2.20005 7.875C2.20005 9.73898 3.67748 11.25 5.50004 11.25ZM20.35 0H7.15004C6.24013 0 5.50004 0.782227 5.50004 1.7434V3.375C6.3051 3.375 7.05035 3.61336 7.70004 4.00078V2.25H19.8V12.375H17.6V10.125H13.2V12.375H10.5793C11.2358 12.9618 11.7178 13.7366 11.9436 14.625H20.35C21.2599 14.625 22 13.8428 22 12.8816V1.7434C22 0.782227 21.2599 0 20.35 0Z" fill="#5F6B73"/>
</svg>
