<svg width="21" height="24" viewBox="0 0 21 24" fill="none" xmlns="http://www.w3.org/2000/svg">
<path fill-rule="evenodd" clip-rule="evenodd" d="M8.34366 20.1103C8.81466 19.8253 9.41796 19.9925 9.69118 20.4839C9.77303 20.6311 9.89051 20.7533 10.0319 20.8383C10.1732 20.9232 10.3335 20.9679 10.4966 20.9679C10.6597 20.9679 10.82 20.9232 10.9613 20.8383C11.1027 20.7533 11.2202 20.6311 11.302 20.4839C11.5753 19.9925 12.1786 19.8253 12.6495 20.1103C13.1205 20.3953 13.2809 21.0248 13.0077 21.5161C12.7525 21.9751 12.3862 22.356 11.9455 22.6208C11.5048 22.8857 11.0052 23.025 10.4966 23.025C9.98804 23.025 9.4884 22.8857 9.0477 22.6208C8.60701 22.356 8.24074 21.9751 7.98555 21.5161C7.71234 21.0248 7.87267 20.3953 8.34366 20.1103Z" fill="#5F6B73"/>
<path d="M10.4965 0.971436C8.7097 0.971436 6.9961 1.71194 5.73266 3.03006C4.46922 4.34817 3.75943 6.13591 3.75943 8.00001C3.75943 11.3485 3.07301 13.4256 2.44203 14.6325C2.12518 15.2385 1.81692 15.6356 1.60336 15.8707C1.49632 15.9886 1.41239 16.0666 1.36217 16.1102C1.33705 16.1321 1.32033 16.1454 1.31334 16.1508L1.31109 16.1525C0.957907 16.4059 0.801648 16.869 0.926169 17.2981C1.05207 17.7319 1.43532 18.0286 1.86977 18.0286H19.1232C19.5576 18.0286 19.9409 17.7319 20.0668 17.2981C20.1913 16.869 20.035 16.4059 19.6819 16.1525L19.6796 16.1508C19.6726 16.1454 19.6559 16.1321 19.6308 16.1102C19.5805 16.0666 19.4966 15.9886 19.3896 15.8707C19.176 15.6356 18.8678 15.2385 18.5509 14.6325C17.9199 13.4256 17.2335 11.3485 17.2335 8.00001C17.2335 7.85434 17.2292 7.70914 17.2206 7.5646C16.6225 7.84438 15.9595 8 15.2616 8C12.6147 8 10.469 5.76142 10.469 3C10.469 2.28213 10.614 1.59959 10.8751 0.982537C10.7494 0.975155 10.6231 0.971436 10.4965 0.971436Z" fill="#5F6B73"/>
<path d="M18.1653 3C18.1653 4.65685 16.8778 6 15.2897 6C13.7016 6 12.4141 4.65685 12.4141 3C12.4141 1.34315 13.7016 0 15.2897 0C16.8778 0 18.1653 1.34315 18.1653 3Z" fill="#5F6B73"/>
<path d="M18.1652 3C18.1652 4.65685 16.8778 6 15.2896 6C13.7015 6 12.4141 4.65685 12.4141 3C12.4141 1.34315 13.7015 0 15.2896 0C16.8778 0 18.1652 1.34315 18.1652 3Z" fill="#FF7347"/>
</svg>
