<svg width="21" height="16" viewBox="0 0 21 16" fill="none" xmlns="http://www.w3.org/2000/svg">
<path d="M15.7099 10.0002C16.3033 10.0002 16.8833 9.82427 17.3766 9.49463C17.87 9.16498 18.2545 8.69645 18.4816 8.14827C18.7086 7.6001 18.768 6.9969 18.6523 6.41496C18.5365 5.83302 18.2508 5.29847 17.8312 4.87891C17.4117 4.45935 16.8771 4.17363 16.2952 4.05788C15.7132 3.94212 15.1101 4.00153 14.5619 4.22859C14.0137 4.45566 13.5452 4.84017 13.2155 5.33352C12.8859 5.82687 12.7099 6.40688 12.7099 7.00023C12.7099 7.79587 13.026 8.55893 13.5886 9.12154C14.1512 9.68415 14.9143 10.0002 15.7099 10.0002ZM17.2099 11.0002C17.135 10.9999 17.0606 11.0114 16.9893 11.0343C16.1606 11.3222 15.259 11.3222 14.4302 11.0343C14.359 11.0114 14.2847 11 14.2099 11.0002C13.7487 11.0002 13.292 11.0914 12.866 11.2685C12.4401 11.4456 12.0534 11.7051 11.7282 12.0322C11.4029 12.3592 11.1455 12.7474 10.9708 13.1742C10.796 13.6011 10.7074 14.0583 10.7099 14.5196C10.7143 15.3402 11.389 16.0002 12.2099 16.0002H19.2099C20.0308 16.0002 20.7055 15.3402 20.7099 14.5196C20.7125 14.0583 20.6238 13.6011 20.4491 13.1742C20.2743 12.7474 20.0169 12.3592 19.6917 12.0322C19.3664 11.7051 18.9797 11.4456 18.5538 11.2685C18.1279 11.0914 17.6712 11.0002 17.2099 11.0002ZM11.0196 11.3268C11.231 11.1189 11.4622 10.9323 11.7099 10.7696V4.00023C11.7099 3.73502 11.6046 3.48066 11.417 3.29313C11.2295 3.10559 10.9752 3.00024 10.7099 3.00024H9.70994V1.00024C9.70994 0.735026 9.60458 0.480673 9.41704 0.293137C9.22951 0.105601 8.97515 0.000244141 8.70994 0.000244141L3.70995 0.000244141C3.44474 0.000244141 3.19038 0.105601 3.00285 0.293137C2.81531 0.480673 2.70996 0.735026 2.70996 1.00024V3.00024H1.70996C1.44474 3.00024 1.19039 3.10559 1.00285 3.29313C0.815318 3.48066 0.709961 3.73502 0.709961 4.00023L0.709961 15.5002C0.709961 15.6328 0.762639 15.76 0.856407 15.8538C0.950175 15.9475 1.07735 16.0002 1.20996 16.0002H10.2196C9.89388 15.5769 9.71495 15.059 9.70994 14.5249C9.70509 13.9316 9.8184 13.3432 10.0433 12.7942C10.2681 12.2451 10.6 11.7463 11.0196 11.3268ZM5.20995 12.6252C5.20995 12.7247 5.17044 12.8201 5.10011 12.8904C5.02979 12.9607 4.93441 13.0002 4.83495 13.0002H3.58495C3.4855 13.0002 3.39011 12.9607 3.31979 12.8904C3.24946 12.8201 3.20995 12.7247 3.20995 12.6252V11.3752C3.20995 11.2758 3.24946 11.1804 3.31979 11.1101C3.39011 11.0397 3.4855 11.0002 3.58495 11.0002H4.83495C4.93441 11.0002 5.02979 11.0397 5.10011 11.1101C5.17044 11.1804 5.20995 11.2758 5.20995 11.3752V12.6252ZM5.20995 8.62522C5.20995 8.72468 5.17044 8.82006 5.10011 8.89039C5.02979 8.96071 4.93441 9.00022 4.83495 9.00022H3.58495C3.4855 9.00022 3.39011 8.96071 3.31979 8.89039C3.24946 8.82006 3.20995 8.72468 3.20995 8.62522V7.37523C3.20995 7.27577 3.24946 7.18039 3.31979 7.11006C3.39011 7.03974 3.4855 7.00023 3.58495 7.00023H4.83495C4.93441 7.00023 5.02979 7.03974 5.10011 7.11006C5.17044 7.18039 5.20995 7.27577 5.20995 7.37523V8.62522ZM6.70994 4.81273C6.70994 4.86246 6.69019 4.91015 6.65503 4.94531C6.61986 4.98048 6.57217 5.00023 6.52245 5.00023H5.89745C5.84772 5.00023 5.80003 4.98048 5.76486 4.94531C5.7297 4.91015 5.70995 4.86246 5.70995 4.81273V4.00023H4.89745C4.84772 4.00023 4.80003 3.98048 4.76487 3.94532C4.7297 3.91015 4.70995 3.86246 4.70995 3.81273V3.18774C4.70995 3.13801 4.7297 3.09032 4.76487 3.05515C4.80003 3.01999 4.84772 3.00024 4.89745 3.00024H5.70995V2.18774C5.70995 2.13801 5.7297 2.09032 5.76486 2.05516C5.80003 2.01999 5.84772 2.00024 5.89745 2.00024H6.52245C6.57217 2.00024 6.61986 2.01999 6.65503 2.05516C6.69019 2.09032 6.70994 2.13801 6.70994 2.18774V3.00024H7.52244C7.57217 3.00024 7.61986 3.01999 7.65503 3.05515C7.69019 3.09032 7.70994 3.13801 7.70994 3.18774V3.81273C7.70994 3.86246 7.69019 3.91015 7.65503 3.94532C7.61986 3.98048 7.57217 4.00023 7.52244 4.00023H6.70994V4.81273ZM9.20994 12.6252C9.20994 12.7247 9.17043 12.8201 9.1001 12.8904C9.02978 12.9607 8.93439 13.0002 8.83494 13.0002H7.58494C7.48549 13.0002 7.3901 12.9607 7.31978 12.8904C7.24945 12.8201 7.20994 12.7247 7.20994 12.6252V11.3752C7.20994 11.2758 7.24945 11.1804 7.31978 11.1101C7.3901 11.0397 7.48549 11.0002 7.58494 11.0002H8.83494C8.93439 11.0002 9.02978 11.0397 9.1001 11.1101C9.17043 11.1804 9.20994 11.2758 9.20994 11.3752V12.6252ZM9.20994 8.62522C9.20994 8.72468 9.17043 8.82006 9.1001 8.89039C9.02978 8.96071 8.93439 9.00022 8.83494 9.00022H7.58494C7.48549 9.00022 7.3901 8.96071 7.31978 8.89039C7.24945 8.82006 7.20994 8.72468 7.20994 8.62522V7.37523C7.20994 7.27577 7.24945 7.18039 7.31978 7.11006C7.3901 7.03974 7.48549 7.00023 7.58494 7.00023H8.83494C8.93439 7.00023 9.02978 7.03974 9.1001 7.11006C9.17043 7.18039 9.20994 7.27577 9.20994 7.37523V8.62522Z" fill="#B7C3CB"/>
</svg>
