<svg width="30" height="23" viewBox="0 0 30 23" fill="none" xmlns="http://www.w3.org/2000/svg">
<path d="M24.5334 20.1667H5.46671C5.06337 20.1667 4.73337 20.4854 4.73337 20.875V22.2917C4.73337 22.6812 5.06337 23 5.46671 23H24.5334C24.9367 23 25.2667 22.6812 25.2667 22.2917V20.875C25.2667 20.4854 24.9367 20.1667 24.5334 20.1667ZM27.4667 5.99999C26.2521 5.99999 25.2667 6.95182 25.2667 8.12499C25.2667 8.43932 25.34 8.73151 25.4684 9.00156L22.15 10.9229C21.4442 11.3302 20.5321 11.1 20.1242 10.4094L16.3888 4.09635C16.8792 3.70677 17.2 3.12239 17.2 2.45833C17.2 1.28515 16.2146 0.333328 15 0.333328C13.7855 0.333328 12.8 1.28515 12.8 2.45833C12.8 3.12239 13.1209 3.70677 13.6113 4.09635L9.87587 10.4094C9.46796 11.1 8.55129 11.3302 7.85004 10.9229L4.53629 9.00156C4.66004 8.73593 4.73796 8.43932 4.73796 8.12499C4.73796 6.95182 3.75254 5.99999 2.53796 5.99999C1.32337 5.99999 0.333374 6.95182 0.333374 8.12499C0.333374 9.29817 1.31879 10.25 2.53337 10.25C2.65254 10.25 2.77171 10.2323 2.88629 10.2146L6.20004 18.75H23.8L27.1138 10.2146C27.2284 10.2323 27.3475 10.25 27.4667 10.25C28.6813 10.25 29.6667 9.29817 29.6667 8.12499C29.6667 6.95182 28.6813 5.99999 27.4667 5.99999Z" fill="#FF8C67"/>
</svg>
