<svg width="24" height="25" viewBox="0 0 24 25" fill="none" xmlns="http://www.w3.org/2000/svg">
<path d="M19.7776 3.75H4.22203C4.21368 3.75 4.20533 3.75005 4.197 3.75016C3.13912 3.76368 2.28731 4.63336 2.28731 5.69444L2.27759 23.1944L6.16648 19.3056H19.7776C20.847 19.3056 21.722 18.4306 21.722 17.3611V5.69444C21.722 4.625 20.847 3.75 19.7776 3.75ZM16.8609 14.4444H7.1387C6.60398 14.4444 6.16648 14.0069 6.16648 13.4722C6.16648 12.9375 6.60398 12.5 7.1387 12.5H16.8609C17.3956 12.5 17.8331 12.9375 17.8331 13.4722C17.8331 14.0069 17.3956 14.4444 16.8609 14.4444ZM12.972 9.58333H7.1387C6.60398 9.58333 6.16648 9.14583 6.16648 8.61111C6.16648 8.07639 6.60398 7.63889 7.1387 7.63889H12.972C13.5068 7.63889 13.9443 8.07639 13.9443 8.61111C13.9443 9.14583 13.5068 9.58333 12.972 9.58333Z" fill="#448ADD"/>
<path fill-rule="evenodd" clip-rule="evenodd" d="M4.197 3.75016L4.22203 3.75H19.7776C20.847 3.75 21.722 4.625 21.722 5.69444V17.3611C21.722 18.4306 20.847 19.3056 19.7776 19.3056H6.16648L2.27759 23.1944V5.69444C2.27759 4.63335 3.13897 3.76368 4.197 3.75016ZM7.1387 9.58333C6.60398 9.58333 6.16648 9.14583 6.16648 8.61111C6.16648 8.07639 6.60398 7.63889 7.1387 7.63889H12.972C13.5068 7.63889 13.9443 8.07639 13.9443 8.61111C13.9443 9.14583 13.5068 9.58333 12.972 9.58333H7.1387ZM6.16648 13.4722C6.16648 14.0069 6.60398 14.4444 7.1387 14.4444H16.8609C17.3956 14.4444 17.8331 14.0069 17.8331 13.4722C17.8331 12.9375 17.3956 12.5 16.8609 12.5H7.1387C6.60398 12.5 6.16648 12.9375 6.16648 13.4722Z" fill="#448ADD"/>
</svg>
