<svg width="20" height="16" viewBox="0 0 20 16" fill="none" xmlns="http://www.w3.org/2000/svg">
<path d="M15 9.99997C15.5933 9.99997 16.1733 9.82403 16.6667 9.49438C17.16 9.16474 17.5445 8.69621 17.7716 8.14803C17.9987 7.59985 18.0581 6.99665 17.9423 6.41471C17.8266 5.83277 17.5408 5.29822 17.1213 4.87867C16.7017 4.45911 16.1672 4.17339 15.5852 4.05763C15.0033 3.94188 14.4001 4.00129 13.8519 4.22835C13.3037 4.45541 12.8352 4.83993 12.5056 5.33328C12.1759 5.82662 12 6.40664 12 6.99998C12 7.79563 12.316 8.55869 12.8786 9.1213C13.4413 9.6839 14.2043 9.99997 15 9.99997ZM16.5 11C16.4251 10.9997 16.3506 11.0112 16.2793 11.034C15.4506 11.322 14.549 11.322 13.7203 11.034C13.6491 11.0112 13.5747 10.9997 13.5 11C13.0387 11 12.582 11.0911 12.1561 11.2682C11.7302 11.4453 11.3435 11.7049 11.0182 12.0319C10.693 12.359 10.4356 12.7471 10.2608 13.174C10.0861 13.6009 9.99742 14.0581 9.99997 14.5193C10.0043 15.34 10.679 16 11.5 16H18.5C19.3209 16 19.9956 15.34 19.9999 14.5193C20.0025 14.0581 19.9139 13.6009 19.7391 13.174C19.5644 12.7471 19.307 12.359 18.9817 12.0319C18.6564 11.7049 18.2697 11.4453 17.8438 11.2682C17.4179 11.0911 16.9612 11 16.5 11ZM10.3097 11.3265C10.521 11.1187 10.7522 10.9321 11 10.7693V3.99999C11 3.73477 10.8946 3.48042 10.7071 3.29288C10.5195 3.10535 10.2652 2.99999 9.99997 2.99999H8.99998V0.999997C8.99998 0.734782 8.89462 0.480428 8.70708 0.292892C8.51955 0.105357 8.26519 0 7.99998 0L2.99999 0C2.73478 0 2.48042 0.105357 2.29289 0.292892C2.10535 0.480428 1.99999 0.734782 1.99999 0.999997V2.99999H0.999997C0.734782 2.99999 0.480428 3.10535 0.292892 3.29288C0.105357 3.48042 0 3.73477 0 3.99999L0 15.5C0 15.6326 0.0526783 15.7597 0.146446 15.8535C0.240214 15.9473 0.367391 16 0.499999 16H9.50966C9.18392 15.5767 9.00499 15.0587 8.99998 14.5247C8.99513 13.9313 9.10844 13.343 9.3333 12.7939C9.55815 12.2448 9.89006 11.746 10.3097 11.3265ZM4.49999 12.625C4.49999 12.7244 4.46048 12.8198 4.39015 12.8901C4.31983 12.9605 4.22444 13 4.12499 13H2.87499C2.77554 13 2.68015 12.9605 2.60983 12.8901C2.5395 12.8198 2.49999 12.7244 2.49999 12.625V11.375C2.49999 11.2755 2.5395 11.1801 2.60983 11.1098C2.68015 11.0395 2.77554 11 2.87499 11H4.12499C4.22444 11 4.31983 11.0395 4.39015 11.1098C4.46048 11.1801 4.49999 11.2755 4.49999 11.375V12.625ZM4.49999 8.62498C4.49999 8.72443 4.46048 8.81982 4.39015 8.89014C4.31983 8.96047 4.22444 8.99998 4.12499 8.99998H2.87499C2.77554 8.99998 2.68015 8.96047 2.60983 8.89014C2.5395 8.81982 2.49999 8.72443 2.49999 8.62498V7.37498C2.49999 7.27553 2.5395 7.18014 2.60983 7.10982C2.68015 7.03949 2.77554 6.99998 2.87499 6.99998H4.12499C4.22444 6.99998 4.31983 7.03949 4.39015 7.10982C4.46048 7.18014 4.49999 7.27553 4.49999 7.37498V8.62498ZM5.99998 4.81249C5.99998 4.86222 5.98023 4.90991 5.94507 4.94507C5.9099 4.98023 5.86221 4.99999 5.81248 4.99999H5.18749C5.13776 4.99999 5.09007 4.98023 5.0549 4.94507C5.01974 4.90991 4.99999 4.86222 4.99999 4.81249V3.99999H4.18749C4.13776 3.99999 4.09007 3.98024 4.05491 3.94507C4.01974 3.90991 3.99999 3.86222 3.99999 3.81249V3.18749C3.99999 3.13776 4.01974 3.09007 4.05491 3.05491C4.09007 3.01975 4.13776 2.99999 4.18749 2.99999H4.99999V2.18749C4.99999 2.13777 5.01974 2.09008 5.0549 2.05491C5.09007 2.01975 5.13776 1.99999 5.18749 1.99999H5.81248C5.86221 1.99999 5.9099 2.01975 5.94507 2.05491C5.98023 2.09008 5.99998 2.13777 5.99998 2.18749V2.99999H6.81248C6.86221 2.99999 6.9099 3.01975 6.94506 3.05491C6.98023 3.09007 6.99998 3.13776 6.99998 3.18749V3.81249C6.99998 3.86222 6.98023 3.90991 6.94506 3.94507C6.9099 3.98024 6.86221 3.99999 6.81248 3.99999H5.99998V4.81249ZM8.49998 12.625C8.49998 12.7244 8.46047 12.8198 8.39014 12.8901C8.31982 12.9605 8.22443 13 8.12498 13H6.87498C6.77553 13 6.68014 12.9605 6.60982 12.8901C6.53949 12.8198 6.49998 12.7244 6.49998 12.625V11.375C6.49998 11.2755 6.53949 11.1801 6.60982 11.1098C6.68014 11.0395 6.77553 11 6.87498 11H8.12498C8.22443 11 8.31982 11.0395 8.39014 11.1098C8.46047 11.1801 8.49998 11.2755 8.49998 11.375V12.625ZM8.49998 8.62498C8.49998 8.72443 8.46047 8.81982 8.39014 8.89014C8.31982 8.96047 8.22443 8.99998 8.12498 8.99998H6.87498C6.77553 8.99998 6.68014 8.96047 6.60982 8.89014C6.53949 8.81982 6.49998 8.72443 6.49998 8.62498V7.37498C6.49998 7.27553 6.53949 7.18014 6.60982 7.10982C6.68014 7.03949 6.77553 6.99998 6.87498 6.99998H8.12498C8.22443 6.99998 8.31982 7.03949 8.39014 7.10982C8.46047 7.18014 8.49998 7.27553 8.49998 7.37498V8.62498Z" fill="#5F6B73"/>
</svg>
