<svg width="16" height="17" viewBox="0 0 16 17" fill="none" xmlns="http://www.w3.org/2000/svg">
<path fill-rule="evenodd" clip-rule="evenodd" d="M7.99967 1.83337C8.45991 1.83337 8.83301 2.20647 8.83301 2.66671V14.3334C8.83301 14.7936 8.45991 15.1667 7.99967 15.1667C7.53944 15.1667 7.16634 14.7936 7.16634 14.3334V2.66671C7.16634 2.20647 7.53944 1.83337 7.99967 1.83337Z" fill="#59A5FF"/>
<path fill-rule="evenodd" clip-rule="evenodd" d="M1.33301 8.50004C1.33301 8.0398 1.7061 7.66671 2.16634 7.66671H13.833C14.2932 7.66671 14.6663 8.0398 14.6663 8.50004C14.6663 8.96028 14.2932 9.33337 13.833 9.33337H2.16634C1.7061 9.33337 1.33301 8.96028 1.33301 8.50004Z" fill="#59A5FF"/>
<path fill-rule="evenodd" clip-rule="evenodd" d="M7.99967 1.83337C8.45991 1.83337 8.83301 2.20647 8.83301 2.66671V14.3334C8.83301 14.7936 8.45991 15.1667 7.99967 15.1667C7.53944 15.1667 7.16634 14.7936 7.16634 14.3334V2.66671C7.16634 2.20647 7.53944 1.83337 7.99967 1.83337Z" stroke="#59A5FF" stroke-width="0.5" stroke-linecap="round" stroke-linejoin="round"/>
<path fill-rule="evenodd" clip-rule="evenodd" d="M1.33301 8.50004C1.33301 8.0398 1.7061 7.66671 2.16634 7.66671H13.833C14.2932 7.66671 14.6663 8.0398 14.6663 8.50004C14.6663 8.96028 14.2932 9.33337 13.833 9.33337H2.16634C1.7061 9.33337 1.33301 8.96028 1.33301 8.50004Z" stroke="#59A5FF" stroke-width="0.5" stroke-linecap="round" stroke-linejoin="round"/>
</svg>
