<svg width="14" height="14" viewBox="0 0 14 14" fill="none" xmlns="http://www.w3.org/2000/svg">
<path fill-rule="evenodd" clip-rule="evenodd" d="M5.53222 1.26434C6.16179 0.0958071 7.83771 0.0958071 8.46728 1.26434L13.793 11.1551C13.9297 11.409 13.9982 11.694 13.9918 11.9823C13.9854 12.2705 13.9043 12.5522 13.7564 12.7998C13.6086 13.0473 13.399 13.2523 13.1483 13.3946C12.8975 13.537 12.6141 13.6118 12.3258 13.6119H1.67381C1.38547 13.6118 1.10196 13.537 0.851203 13.3946C0.600448 13.2523 0.390913 13.0473 0.243072 12.7998C0.0952321 12.5522 0.0141454 12.2705 0.00773611 11.9823C0.00132674 11.694 0.0698143 11.409 0.206506 11.1551L5.53222 1.26434ZM6.70603 1.89675C6.83212 1.66297 7.1673 1.66283 7.29339 1.89661L12.619 11.7872C12.6463 11.838 12.66 11.895 12.6588 11.9526C12.6575 12.0103 12.6413 12.0666 12.6117 12.1161C12.5821 12.1656 12.5402 12.2066 12.4901 12.2351C12.4399 12.2636 12.3833 12.2785 12.3257 12.2786H1.67393M6.70603 1.89675L1.38049 11.7872C1.35316 11.838 1.33946 11.895 1.34074 11.9526C1.34202 12.0103 1.35824 12.0666 1.38781 12.1161C1.41738 12.1657 1.45928 12.2066 1.50943 12.2351C1.55955 12.2636 1.6163 12.2785 1.67393 12.2786" fill="#EA5D54"/>
<path d="M6.3335 8.99992C6.3335 9.22214 6.46683 9.66659 7.00016 9.66659C7.5335 9.66659 7.66683 9.22214 7.66683 8.99992L8.00016 4.99992C8.00016 4.66659 7.80016 3.99992 7.00016 3.99992C6.20016 3.99992 6.00016 4.66659 6.00016 4.99992L6.3335 8.99992Z" fill="#EA5D54"/>
<path d="M6.3335 10.9999C6.3335 10.7777 6.46683 10.3333 7.00016 10.3333C7.5335 10.3333 7.66683 10.7777 7.66683 10.9999C7.66683 11.2221 7.5335 11.6666 7.00016 11.6666C6.46683 11.6666 6.3335 11.2221 6.3335 10.9999Z" fill="#EA5D54"/>
</svg>
