<svg width="24" height="24" viewBox="0 0 24 24" fill="none" xmlns="http://www.w3.org/2000/svg">
<path d="M13.25 3.25C13.25 2.91848 13.1183 2.60054 12.8839 2.36612C12.6495 2.1317 12.3315 2 12 2C11.6685 2 11.3505 2.1317 11.1161 2.36612C10.8817 2.60054 10.75 2.91848 10.75 3.25V4.5C10.75 4.83152 10.8817 5.14946 11.1161 5.38388C11.3505 5.6183 11.6685 5.75 12 5.75C12.3315 5.75 12.6495 5.6183 12.8839 5.38388C13.1183 5.14946 13.25 4.83152 13.25 4.5V3.25Z" fill="#7F9EBB"/>
<path d="M19.0705 6.69627C19.2982 6.46052 19.4242 6.14477 19.4213 5.81702C19.4185 5.48927 19.287 5.17576 19.0553 4.944C18.8235 4.71224 18.51 4.58078 18.1823 4.57793C17.8545 4.57508 17.5388 4.70107 17.303 4.92877L16.4192 5.81252C16.1916 6.04827 16.0656 6.36403 16.0684 6.69177C16.0713 7.01952 16.2027 7.33303 16.4345 7.56479C16.6662 7.79655 16.9798 7.92802 17.3075 7.93086C17.6352 7.93371 17.951 7.80772 18.1867 7.58002L19.0705 6.69627Z" fill="#7F9EBB"/>
<path d="M22 12C22 12.3315 21.8683 12.6495 21.6339 12.8839C21.3995 13.1183 21.0815 13.25 20.75 13.25H19.5C19.1685 13.25 18.8505 13.1183 18.6161 12.8839C18.3817 12.6495 18.25 12.3315 18.25 12C18.25 11.6685 18.3817 11.3505 18.6161 11.1161C18.8505 10.8817 19.1685 10.75 19.5 10.75H20.75C21.0815 10.75 21.3995 10.8817 21.6339 11.1161C21.8683 11.3505 22 11.6685 22 12Z" fill="#7F9EBB"/>
<path d="M5.81277 7.58002C5.92807 7.69941 6.066 7.79464 6.21851 7.86015C6.37101 7.92566 6.53504 7.96014 6.70101 7.96158C6.86699 7.96303 7.03159 7.9314 7.18521 7.86855C7.33883 7.8057 7.47839 7.71288 7.59576 7.59551C7.71312 7.47815 7.80594 7.33858 7.86879 7.18496C7.93164 7.03134 7.96327 6.86674 7.96183 6.70077C7.96039 6.53479 7.9259 6.37077 7.86039 6.21827C7.79488 6.06576 7.69965 5.92783 7.58027 5.81252L6.69651 4.92877C6.46076 4.70107 6.14501 4.57508 5.81726 4.57793C5.48952 4.58078 5.176 4.71224 4.94424 4.944C4.71248 5.17576 4.58102 5.48927 4.57817 5.81702C4.57532 6.14477 4.70132 6.46052 4.92901 6.69627L5.81277 7.58002Z" fill="#7F9EBB"/>
<path d="M5.75 12C5.75 12.3315 5.6183 12.6495 5.38388 12.8839C5.14946 13.1183 4.83152 13.25 4.5 13.25H3.25C2.91848 13.25 2.60054 13.1183 2.36612 12.8839C2.1317 12.6495 2 12.3315 2 12C2 11.6685 2.1317 11.3505 2.36612 11.1161C2.60054 10.8817 2.91848 10.75 3.25 10.75H4.5C4.83152 10.75 5.14946 10.8817 5.38388 11.1161C5.6183 11.3505 5.75 11.6685 5.75 12Z" fill="#7F9EBB"/>
<path d="M9.5 19.5V18.25H14.5V19.5C14.5 20.163 14.2366 20.7989 13.7678 21.2678C13.2989 21.7366 12.663 22 12 22C11.337 22 10.7011 21.7366 10.2322 21.2678C9.76339 20.7989 9.5 20.163 9.5 19.5Z" fill="#7F9EBB"/>
<path d="M14.5 17C14.5187 16.575 14.76 16.1925 15.0962 15.9262C15.9121 15.2828 16.5072 14.4012 16.7989 13.4039C17.0906 12.4066 17.0644 11.3433 16.7239 10.3616C16.3833 9.37996 15.7455 8.52877 14.8989 7.92636C14.0523 7.32395 13.039 7.00024 12 7.00024C10.961 7.00024 9.94772 7.32395 9.10113 7.92636C8.25454 8.52877 7.61665 9.37996 7.27613 10.3616C6.93561 11.3433 6.90938 12.4066 7.20107 13.4039C7.49276 14.4012 8.0879 15.2828 8.90375 15.9262C9.24125 16.1925 9.48125 16.575 9.49875 17H14.5012H14.5Z" fill="#7F9EBB"/>
</svg>
