<svg width="28" height="23" viewBox="0 0 28 23" fill="none" xmlns="http://www.w3.org/2000/svg">
<path d="M9.30034 15.8314C9.19765 15.8314 9.09495 15.8468 8.99698 15.8793C8.44011 16.0643 7.85445 16.183 7.23785 16.183C6.62125 16.183 6.03558 16.0643 5.47828 15.8793C5.38031 15.8468 5.27805 15.8314 5.17535 15.8314C2.50872 15.8314 0.348683 18.0498 0.362862 20.7805C0.368878 21.9345 1.29657 22.8627 2.42536 22.8627H12.0503C13.1791 22.8627 14.1068 21.9345 14.1128 20.7805C14.127 18.0498 11.967 15.8314 9.30034 15.8314ZM7.23785 14.4252C9.51604 14.4252 11.3628 12.5364 11.3628 10.2064C11.3628 7.87644 9.51604 5.98767 7.23785 5.98767C4.95965 5.98767 3.11286 7.87644 3.11286 10.2064C3.11286 12.5364 4.95965 14.4252 7.23785 14.4252ZM25.8003 0.362671H9.30034C8.16296 0.362671 7.23785 1.34045 7.23785 2.54192V4.58142C8.24417 4.58142 9.17573 4.87937 9.98784 5.36365V3.17517H25.1128V15.8314H22.3628V13.0189H16.8628V15.8314H13.5869C14.4076 16.5649 15.01 17.5334 15.2923 18.6439H25.8003C26.9377 18.6439 27.8628 17.6661 27.8628 16.4647V2.54192C27.8628 1.34045 26.9377 0.362671 25.8003 0.362671Z" fill="#5F6B73"/>
</svg>
