<svg width="30" height="30" viewBox="0 0 30 30" fill="none" xmlns="http://www.w3.org/2000/svg">
<path fill-rule="evenodd" clip-rule="evenodd" d="M6.25 6.25C5.55964 6.25 5 6.80964 5 7.5V25C5 25.6904 5.55964 26.25 6.25 26.25H23.75C24.4404 26.25 25 25.6904 25 25V7.5C25 6.80964 24.4404 6.25 23.75 6.25H6.25ZM2.5 7.5C2.5 5.42893 4.17893 3.75 6.25 3.75H23.75C25.8211 3.75 27.5 5.42893 27.5 7.5V25C27.5 27.0711 25.8211 28.75 23.75 28.75H6.25C4.17893 28.75 2.5 27.0711 2.5 25V7.5Z" fill="#5F6B73"/>
<path fill-rule="evenodd" clip-rule="evenodd" d="M2.5 12.5C2.5 11.8096 3.05964 11.25 3.75 11.25H26.25C26.9404 11.25 27.5 11.8096 27.5 12.5C27.5 13.1904 26.9404 13.75 26.25 13.75H3.75C3.05964 13.75 2.5 13.1904 2.5 12.5Z" fill="#5F6B73"/>
<path fill-rule="evenodd" clip-rule="evenodd" d="M20 1.25C20.6904 1.25 21.25 1.80964 21.25 2.5V7.5C21.25 8.19036 20.6904 8.75 20 8.75C19.3096 8.75 18.75 8.19036 18.75 7.5V2.5C18.75 1.80964 19.3096 1.25 20 1.25Z" fill="#5F6B73"/>
<path fill-rule="evenodd" clip-rule="evenodd" d="M10 1.25C10.6904 1.25 11.25 1.80964 11.25 2.5V7.5C11.25 8.19036 10.6904 8.75 10 8.75C9.30964 8.75 8.75 8.19036 8.75 7.5V2.5C8.75 1.80964 9.30964 1.25 10 1.25Z" fill="#5F6B73"/>
</svg>
