<svg width="20" height="20" viewBox="0 0 20 20" fill="none" xmlns="http://www.w3.org/2000/svg">
<path d="M19.7525 8.48006L17.517 7.8134C17.3625 7.27427 17.1499 6.75346 16.8831 6.26007L17.9775 4.21341C18.0185 4.13616 18.0336 4.04774 18.0204 3.96127C18.0071 3.8748 17.9664 3.7949 17.9041 3.73342L16.3092 2.13342C16.2476 2.0712 16.1677 2.03047 16.0811 2.01726C15.9946 2.00405 15.906 2.01907 15.8287 2.06009L13.7934 3.14675C13.2947 2.86719 12.7665 2.64361 12.2185 2.48009L11.5512 0.273434C11.523 0.192112 11.4697 0.121834 11.3989 0.0727163C11.3282 0.0235984 11.2436 -0.00182615 11.1575 0.000102112H8.90199C8.81533 0.000505159 8.73106 0.028525 8.66145 0.0800838C8.59184 0.131643 8.54051 0.20405 8.51494 0.286767L7.84763 2.48676C7.2951 2.64941 6.76242 2.87301 6.25942 3.15342L4.25747 2.07343C4.18014 2.0324 4.09163 2.01738 4.00508 2.03059C3.91853 2.0438 3.83855 2.08454 3.777 2.14676L2.15543 3.72675C2.09315 3.78823 2.05237 3.86813 2.03915 3.9546C2.02592 4.04107 2.04096 4.12949 2.08202 4.20675L3.16307 6.20674C2.88284 6.70713 2.65903 7.23703 2.49576 7.78673L0.286946 8.45339C0.204147 8.47894 0.131669 8.53021 0.0800599 8.59976C0.0284507 8.6693 0.000403441 8.75349 0 8.84006V11.0934C0.000403441 11.1799 0.0284507 11.2641 0.0800599 11.3337C0.131669 11.4032 0.204147 11.4545 0.286946 11.48L2.50911 12.1467C2.67416 12.6872 2.89793 13.2081 3.17642 13.7L2.08202 15.7934C2.04096 15.8706 2.02592 15.959 2.03915 16.0455C2.05237 16.132 2.09315 16.2119 2.15543 16.2734L3.75031 17.8667C3.81185 17.9289 3.89183 17.9696 3.97839 17.9828C4.06494 17.9961 4.15345 17.981 4.23078 17.94L6.29278 16.84C6.78057 17.103 7.2951 17.313 7.82761 17.4667L8.49492 19.7133C8.52049 19.7961 8.57182 19.8685 8.64143 19.92C8.71104 19.9716 8.79531 19.9996 8.88197 20H11.1375C11.2241 19.9996 11.3084 19.9716 11.378 19.92C11.4476 19.8685 11.499 19.7961 11.5245 19.7133L12.1919 17.46C12.7198 17.3056 13.2298 17.0955 13.7133 16.8333L15.7887 17.94C15.866 17.981 15.9545 17.9961 16.0411 17.9828C16.1276 17.9696 16.2076 17.9289 16.2691 17.8667L17.864 16.2734C17.9263 16.2119 17.9671 16.132 17.9803 16.0455C17.9935 15.959 17.9785 15.8706 17.9374 15.7934L16.8297 13.7267C17.0949 13.2418 17.3074 12.73 17.4636 12.2L19.7125 11.5334C19.7953 11.5078 19.8678 11.4566 19.9194 11.387C19.971 11.3175 19.999 11.2333 19.9994 11.1467V8.87339C20.0034 8.79049 19.9818 8.70837 19.9377 8.63806C19.8936 8.56775 19.8289 8.51262 19.7525 8.48006ZM10.0297 13.6667C9.30385 13.6667 8.59424 13.4517 7.99068 13.0488C7.38711 12.6459 6.91669 12.0732 6.6389 11.4032C6.3611 10.7332 6.28842 9.99599 6.43004 9.28472C6.57165 8.57346 6.92121 7.92013 7.4345 7.40734C7.94779 6.89455 8.60177 6.54534 9.31372 6.40386C10.0257 6.26238 10.7636 6.33499 11.4343 6.61251C12.1049 6.89003 12.6781 7.35999 13.0814 7.96297C13.4847 8.56595 13.7 9.27486 13.7 10.0001C13.7 10.9725 13.3133 11.9051 12.625 12.5928C11.9367 13.2804 11.0032 13.6667 10.0297 13.6667Z" fill="white"/>
</svg>
