<svg width="20" height="19" viewBox="0 0 20 19" fill="none" xmlns="http://www.w3.org/2000/svg">
<path d="M9.99355 0.284012C9.74897 0.28416 9.51332 0.376004 9.33315 0.541412L0.295151 8.51001C0.292322 8.51251 0.289521 8.51505 0.286751 8.51761C-0.00404868 8.78661 -0.0716487 9.22561 0.0747513 9.54601C0.221151 9.86661 0.564351 10.0958 0.953551 10.096H3.28395V17.7976C3.28395 18.3234 3.74155 18.7156 4.24335 18.7158H15.7562C16.258 18.7158 16.7156 18.3234 16.7156 17.7978V10.096H19.0462C19.4354 10.096 19.7786 9.86681 19.925 9.54621C20.0714 9.22581 20.0038 8.78661 19.713 8.51761C19.7102 8.51505 19.7074 8.51251 19.7046 8.51001L10.6668 0.541412C10.4833 0.37297 10.2426 0.280902 9.99355 0.284012ZM9.99995 5.14141C12.12 5.14141 13.8566 6.87341 13.8566 8.98721C13.8566 9.49621 13.7552 9.98301 13.5726 10.4288C13.5333 10.5464 13.484 10.6604 13.4254 10.7696L10.4674 15.8036C10.155 16.227 9.90535 16.3202 9.52955 15.8296L6.84755 11.1934C6.38954 10.5489 6.14343 9.77787 6.14335 8.98721C6.14335 6.87321 7.87995 5.14121 9.99995 5.14121V5.14141ZM9.99995 6.94341C8.85835 6.94341 7.95035 7.84881 7.95035 8.98721C7.95035 10.1254 8.85835 11.0308 9.99995 11.0308C11.1416 11.0308 12.0496 10.1254 12.0496 8.98721C12.0496 7.84881 11.1416 6.94361 9.99995 6.94361V6.94341Z" fill="#99A5AE"/>
</svg>
