<svg width="24" height="28" viewBox="0 0 24 28" fill="none" xmlns="http://www.w3.org/2000/svg">
<path d="M2.66667 27.3332H21.3333C22.804 27.3332 24 26.1372 24 24.6665V5.99984C24 4.52917 22.804 3.33317 21.3333 3.33317H18.6667V0.666504H16V3.33317H8V0.666504H5.33333V3.33317H2.66667C1.196 3.33317 0 4.52917 0 5.99984V24.6665C0 26.1372 1.196 27.3332 2.66667 27.3332ZM10.6667 22.5518L5.724 17.6092L7.60933 15.7238L10.6667 18.7812L16.3907 13.0572L18.276 14.9425L10.6667 22.5518ZM2.66667 7.33317H21.3333V9.99984H2.66667V7.33317Z" fill="#5F6B73"/>
</svg>
