<svg width="14" height="15" viewBox="0 0 14 15" fill="none" xmlns="http://www.w3.org/2000/svg">
<path fill-rule="evenodd" clip-rule="evenodd" d="M1.22403 1.875C1.22403 1.37772 1.42927 0.900805 1.7946 0.549175C2.15993 0.197544 2.65542 0 3.17208 0H10.9643C11.4809 0 11.9764 0.197544 12.3418 0.549175C12.7071 0.900805 12.9123 1.37772 12.9123 1.875V13.125C13.1707 13.125 13.4184 13.2238 13.6011 13.3996C13.7837 13.5754 13.8864 13.8139 13.8864 14.0625C13.8864 14.3111 13.7837 14.5496 13.6011 14.7254C13.4184 14.9012 13.1707 15 12.9123 15H9.99026C9.73193 15 9.48419 14.9012 9.30152 14.7254C9.11885 14.5496 9.01623 14.3111 9.01623 14.0625V12.1875C9.01623 11.9389 8.91361 11.7004 8.73095 11.5246C8.54828 11.3488 8.30054 11.25 8.04221 11.25H6.09416C5.83583 11.25 5.58808 11.3488 5.40542 11.5246C5.22275 11.7004 5.12013 11.9389 5.12013 12.1875V14.0625C5.12013 14.3111 5.01751 14.5496 4.83484 14.7254C4.65218 14.9012 4.40443 15 4.1461 15H1.22403C0.965698 15 0.717951 14.9012 0.535286 14.7254C0.35262 14.5496 0.25 14.3111 0.25 14.0625C0.25 13.8139 0.35262 13.5754 0.535286 13.3996C0.717951 13.2238 0.965698 13.125 1.22403 13.125V1.875ZM4.1461 2.8125H6.09416V4.6875H4.1461V2.8125ZM6.09416 6.5625H4.1461V8.4375H6.09416V6.5625ZM8.04221 2.8125H9.99026V4.6875H8.04221V2.8125ZM9.99026 6.5625H8.04221V8.4375H9.99026V6.5625Z" fill="#99A5AE"/>
</svg>
