<svg width="15" height="17" viewBox="0 0 15 17" fill="none" xmlns="http://www.w3.org/2000/svg">
<path d="M7.1924 0.166656C10.9808 0.166656 14.0517 3.2375 14.0517 7.02593C14.0517 9.92442 12.015 13.0832 7.9944 16.5361C7.77084 16.7281 7.48581 16.8336 7.19108 16.8333C6.89636 16.8331 6.6115 16.7271 6.38828 16.5346L6.12235 16.3039C2.27975 12.9411 0.333122 9.85969 0.333122 7.02593C0.333122 3.2375 3.40397 0.166656 7.1924 0.166656ZM7.1924 4.38775C6.49271 4.38775 5.82168 4.6657 5.32692 5.16046C4.83216 5.65521 4.55421 6.32624 4.55421 7.02593C4.55421 7.72562 4.83216 8.39666 5.32692 8.89141C5.82168 9.38617 6.49271 9.66412 7.1924 9.66412C7.89209 9.66412 8.56312 9.38617 9.05787 8.89141C9.55263 8.39666 9.83058 7.72562 9.83058 7.02593C9.83058 6.32624 9.55263 5.65521 9.05787 5.16046C8.56312 4.6657 7.89209 4.38775 7.1924 4.38775Z" fill="#5F6B73"/>
</svg>
