<svg width="16" height="18" viewBox="0 0 16 18" fill="none" xmlns="http://www.w3.org/2000/svg">
<path fill-rule="evenodd" clip-rule="evenodd" d="M1.58274 2.75008C1.58274 2.19755 1.81078 1.66764 2.21671 1.27694C2.62263 0.886241 3.17318 0.666748 3.74724 0.666748H12.4053C12.9793 0.666748 13.5299 0.886241 13.9358 1.27694C14.3417 1.66764 14.5698 2.19755 14.5698 2.75008V15.2501C14.8568 15.2501 15.1321 15.3598 15.335 15.5552C15.538 15.7505 15.652 16.0155 15.652 16.2917C15.652 16.568 15.538 16.833 15.335 17.0283C15.1321 17.2237 14.8568 17.3334 14.5698 17.3334H11.323C11.036 17.3334 10.7607 17.2237 10.5577 17.0283C10.3548 16.833 10.2407 16.568 10.2407 16.2917V14.2084C10.2407 13.9321 10.1267 13.6672 9.92376 13.4718C9.7208 13.2765 9.44553 13.1667 9.1585 13.1667H6.994C6.70696 13.1667 6.43169 13.2765 6.22873 13.4718C6.02577 13.6672 5.91174 13.9321 5.91174 14.2084V16.2917C5.91174 16.568 5.79772 16.833 5.59476 17.0283C5.3918 17.2237 5.11652 17.3334 4.82949 17.3334H1.58274C1.29571 17.3334 1.02043 17.2237 0.817472 17.0283C0.614511 16.833 0.500488 16.568 0.500488 16.2917C0.500488 16.0155 0.614511 15.7505 0.817472 15.5552C1.02043 15.3598 1.29571 15.2501 1.58274 15.2501V2.75008ZM4.82949 3.79175H6.994V5.87508H4.82949V3.79175ZM6.994 7.95841H4.82949V10.0417H6.994V7.95841ZM9.1585 3.79175H11.323V5.87508H9.1585V3.79175ZM11.323 7.95841H9.1585V10.0417H11.323V7.95841Z" fill="#5F6B73"/>
</svg>
