<svg width="12" height="15" viewBox="0 0 12 15" fill="none" xmlns="http://www.w3.org/2000/svg">
<path fill-rule="evenodd" clip-rule="evenodd" d="M2 4.47627V6.38103H1.75C1.28587 6.38103 0.84075 6.55662 0.51256 6.86919C0.18437 7.18175 0 7.60567 0 8.0477V13.2858C0 14.2058 0.784 14.9525 1.75 14.9525H10.25C10.7141 14.9525 11.1592 14.7768 11.4874 14.4643C11.8156 14.1517 12 13.7278 12 13.2858V8.0477C12 7.60567 11.8156 7.18175 11.4874 6.86919C11.1592 6.55662 10.7141 6.38103 10.25 6.38103H10V4.47627C10 3.46592 9.5786 2.49696 8.8284 1.78253C8.0783 1.06811 7.06087 0.666748 6 0.666748C4.93913 0.666748 3.92172 1.06811 3.17157 1.78253C2.42143 2.49696 2 3.46592 2 4.47627ZM8.5 6.38103V4.47627C8.5 3.84481 8.2366 3.2392 7.76777 2.79268C7.29893 2.34617 6.66304 2.09532 6 2.09532C5.33696 2.09532 4.70107 2.34617 4.23223 2.79268C3.76339 3.2392 3.5 3.84481 3.5 4.47627V6.38103H8.5ZM10 7.80961H10.25C10.3163 7.80961 10.3799 7.83469 10.4268 7.87934C10.4737 7.92399 10.5 7.98456 10.5 8.0477V13.2858C10.5 13.3489 10.4737 13.4095 10.4268 13.4542C10.3799 13.4988 10.3163 13.5239 10.25 13.5239H1.75C1.6837 13.5239 1.62011 13.4988 1.57322 13.4542C1.52634 13.4095 1.5 13.3489 1.5 13.2858V8.0477C1.5 7.98456 1.52634 7.92399 1.57322 7.87934C1.62011 7.83469 1.6837 7.80961 1.75 7.80961H10Z" fill="#5F6B73"/>
<path d="M10 7.80961H10.25C10.3163 7.80961 10.3799 7.83469 10.4268 7.87934C10.4737 7.92399 10.5 7.98456 10.5 8.0477V13.2858C10.5 13.3489 10.4737 13.4095 10.4268 13.4542C10.3799 13.4988 10.3163 13.5239 10.25 13.5239H1.75C1.6837 13.5239 1.62011 13.4988 1.57322 13.4542C1.52634 13.4095 1.5 13.3489 1.5 13.2858V8.0477C1.5 7.98456 1.52634 7.92399 1.57322 7.87934C1.62011 7.83469 1.6837 7.80961 1.75 7.80961H10Z" fill="#5F6B73"/>
</svg>
