<svg width="16" height="16" viewBox="0 0 16 16" fill="none" xmlns="http://www.w3.org/2000/svg">
<path fill-rule="evenodd" clip-rule="evenodd" d="M2.8662 2.99992C2.8662 2.55789 3.04863 2.13397 3.37337 1.82141C3.69811 1.50885 4.13855 1.33325 4.5978 1.33325H11.5242C11.9835 1.33325 12.4239 1.50885 12.7486 1.82141C13.0734 2.13397 13.2558 2.55789 13.2558 2.99992V12.9999C13.4854 12.9999 13.7057 13.0877 13.868 13.244C14.0304 13.4003 14.1216 13.6122 14.1216 13.8333C14.1216 14.0543 14.0304 14.2662 13.868 14.4225C13.7057 14.5788 13.4854 14.6666 13.2558 14.6666H10.6584C10.4288 14.6666 10.2086 14.5788 10.0462 14.4225C9.88382 14.2662 9.7926 14.0543 9.7926 13.8333V12.1666C9.7926 11.9456 9.70139 11.7336 9.53902 11.5773C9.37665 11.4211 9.15643 11.3333 8.9268 11.3333H7.1952C6.96558 11.3333 6.74536 11.4211 6.58299 11.5773C6.42062 11.7336 6.3294 11.9456 6.3294 12.1666V13.8333C6.3294 14.0543 6.23818 14.2662 6.07581 14.4225C5.91344 14.5788 5.69323 14.6666 5.4636 14.6666H2.8662C2.63657 14.6666 2.41635 14.5788 2.25398 14.4225C2.09161 14.2662 2.0004 14.0543 2.0004 13.8333C2.0004 13.6122 2.09161 13.4003 2.25398 13.244C2.41635 13.0877 2.63657 12.9999 2.8662 12.9999V2.99992ZM5.4636 3.83325H7.1952V5.49992H5.4636V3.83325ZM7.1952 7.16659H5.4636V8.83325H7.1952V7.16659ZM8.9268 3.83325H10.6584V5.49992H8.9268V3.83325ZM10.6584 7.16659H8.9268V8.83325H10.6584V7.16659Z" fill="#5F6B73"/>
</svg>
