<svg width="29" height="33" viewBox="0 0 29 33" fill="none" xmlns="http://www.w3.org/2000/svg">
<path d="M0.785645 27.7096C0.785645 28.9827 1.27731 30.2036 2.15248 31.1038C3.02765 32.0039 4.21463 32.5096 5.45231 32.5096H24.119C25.3567 32.5096 26.5436 32.0039 27.4188 31.1038C28.294 30.2036 28.7856 28.9827 28.7856 27.7096V11.4344C28.785 10.1621 28.2932 8.94202 27.4183 8.04244L21.4636 1.91444C20.5884 1.01479 19.4017 0.509491 18.1643 0.509644H5.45231C4.21463 0.509644 3.02765 1.01536 2.15248 1.91553C1.27731 2.81571 0.785645 4.0366 0.785645 5.30964V27.7096ZM5.45231 29.3096C5.03975 29.3096 4.64409 29.1411 4.35237 28.841C4.06064 28.541 3.89676 28.134 3.89676 27.7096V5.30964C3.89676 4.8853 4.06064 4.47833 4.35237 4.17827C4.64409 3.87821 5.03975 3.70964 5.45231 3.70964H16.3412V8.50964C16.3412 9.78268 16.8329 11.0036 17.708 11.9038C18.5832 12.8039 19.7702 13.3096 21.0079 13.3096H25.6745V27.7096C25.6745 28.134 25.5106 28.541 25.2189 28.841C24.9272 29.1411 24.5315 29.3096 24.119 29.3096H5.45231ZM25.0305 10.1096H21.0079C20.5953 10.1096 20.1996 9.94107 19.9079 9.64101C19.6162 9.34096 19.4523 8.93399 19.4523 8.50964V4.37204L25.0305 10.1096Z" fill="#5F6B73"/>
<path d="M7.78564 18.5096C7.52043 18.5096 7.26607 18.4043 7.07854 18.2168C6.891 18.0292 6.78564 17.7749 6.78564 17.5096C6.78564 17.2444 6.891 16.9901 7.07854 16.8025C7.26607 16.615 7.52043 16.5096 7.78564 16.5096H21.7856C22.0509 16.5096 22.3052 16.615 22.4928 16.8025C22.6803 16.9901 22.7856 17.2444 22.7856 17.5096C22.7856 17.7749 22.6803 18.0292 22.4928 18.2168C22.3052 18.4043 22.0509 18.5096 21.7856 18.5096H7.78564Z" fill="#5F6B73"/>
<path d="M6.78564 21.5096C6.78564 21.2444 6.891 20.9901 7.07854 20.8025C7.26607 20.615 7.52043 20.5096 7.78564 20.5096H21.7856C22.0509 20.5096 22.3052 20.615 22.4928 20.8025C22.6803 20.9901 22.7856 21.2444 22.7856 21.5096C22.7856 21.7749 22.6803 22.0292 22.4928 22.2168C22.3052 22.4043 22.0509 22.5096 21.7856 22.5096H7.78564C7.52043 22.5096 7.26607 22.4043 7.07854 22.2168C6.891 22.0292 6.78564 21.7749 6.78564 21.5096Z" fill="#5F6B73"/>
<path d="M7.78564 26.5096C7.52043 26.5096 7.26607 26.4043 7.07854 26.2168C6.891 26.0292 6.78564 25.7749 6.78564 25.5096C6.78564 25.2444 6.891 24.9901 7.07854 24.8025C7.26607 24.615 7.52043 24.5096 7.78564 24.5096H15.7856C16.0509 24.5096 16.3052 24.615 16.4928 24.8025C16.6803 24.9901 16.7856 25.2444 16.7856 25.5096C16.7856 25.7749 16.6803 26.0292 16.4928 26.2168C16.3052 26.4043 16.0509 26.5096 15.7856 26.5096H7.78564Z" fill="#5F6B73"/>
</svg>
