<svg width="26" height="23" viewBox="0 0 26 23" fill="none" xmlns="http://www.w3.org/2000/svg">
<path d="M14.9225 12.1749C14.795 12.2296 14.6766 12.2988 14.569 12.3801V10.1459V9.64585H14.069H11.2552H10.7552V10.1459V12.8542V13.3542H11.2552H13.9346C13.9034 13.485 13.887 13.6206 13.887 13.7588C13.887 17.2228 15.1819 19.9994 16.8801 21.8334H14.069C13.8225 21.8334 13.5896 21.7389 13.4209 21.5765C13.2528 21.4147 13.1621 21.1994 13.1621 20.9792V18.2709C13.1621 17.7728 12.9564 17.2992 12.5967 16.9531C12.2378 16.6076 11.7549 16.4167 11.2552 16.4167H8.44131C7.9416 16.4167 7.45869 16.6076 7.09973 16.9531C6.74013 17.2992 6.53439 17.7728 6.53439 18.2709V20.9792C6.53439 21.1994 6.44367 21.4147 6.27557 21.5765C6.10683 21.7389 5.87403 21.8334 5.62746 21.8334H1.40668C1.16011 21.8334 0.927312 21.7389 0.758569 21.5765C0.590477 21.4147 0.499756 21.1994 0.499756 20.9792C0.499756 20.7589 0.590477 20.5437 0.758569 20.3819C0.927312 20.2195 1.16011 20.125 1.40668 20.125H1.90668V19.625V3.37502C1.90668 2.79563 2.14563 2.23593 2.57757 1.82018C3.01017 1.40381 3.60083 1.16669 4.22054 1.16669H15.4759C16.0957 1.16669 16.6863 1.40381 17.1189 1.82018C17.5508 2.23593 17.7898 2.79563 17.7898 3.37502V10.9527L14.9233 12.1746L14.9225 12.1749ZM19.8454 20.3161V21.1206L20.5667 20.7645C21.8706 20.1207 23.875 18.2735 24.0775 14.9937L24.0996 14.6352L23.7669 14.4998L20.5338 13.1844L19.8454 12.9043V13.6476V20.3161ZM20.1567 12.4467C20.3191 12.3819 20.4644 12.4184 20.5328 12.4463L24.4319 14.0328C24.4321 14.0329 24.4323 14.0329 24.4324 14.033C24.6125 14.1069 24.7204 14.2734 24.7204 14.4481C24.7204 18.6051 22.1109 20.8861 20.535 21.5271C20.4582 21.5573 20.3169 21.5915 20.1567 21.5276C20.0016 21.4643 19.8444 21.3902 19.6865 21.3053C17.8381 20.3114 15.9704 17.8846 15.9704 14.4481C15.9704 14.2734 16.0782 14.1069 16.2583 14.033C16.2584 14.0329 16.2586 14.0329 16.2588 14.0328L18.4782 13.1297L20.1559 12.4471C20.1561 12.447 20.1564 12.4468 20.1567 12.4467ZM5.62746 4.22919H5.12746V4.72919V7.43752V7.93752H5.62746H8.44131H8.94131V7.43752V4.72919V4.22919H8.44131H5.62746ZM8.94131 10.1459V9.64585H8.44131H5.62746H5.12746V10.1459V12.8542V13.3542H5.62746H8.44131H8.94131V12.8542V10.1459ZM11.2552 4.22919H10.7552V4.72919V7.43752V7.93752H11.2552H14.069H14.569V7.43752V4.72919V4.22919H14.069H11.2552Z" fill="#5F6B73" stroke="#5F6B73"/>
</svg>
