<svg width="14" height="10" viewBox="0 0 14 10" fill="none" xmlns="http://www.w3.org/2000/svg">
<path d="M0.743557 3.54213L0.564767 3.71687L0.743557 3.54213C0.640499 3.43668 0.582625 3.2936 0.583506 3.14417C0.584387 2.99481 0.643946 2.85247 0.748239 2.74828L2.75468 0.743996C2.97097 0.52794 3.31846 0.530013 3.53222 0.748729C3.74747 0.968974 3.74533 1.325 3.52752 1.54255L3.52752 1.54256L2.89821 2.17121L2.47089 2.59808H3.07489H9.60237C10.6208 2.59808 11.5776 2.99848 12.2986 3.72741C13.0197 4.45644 13.4168 5.42503 13.4168 6.4572V6.52383C13.4168 7.556 13.0197 8.52458 12.2986 9.2536C12.1908 9.36265 12.0504 9.41665 11.9099 9.41665C11.7693 9.41665 11.629 9.36267 11.5211 9.2536C11.3046 9.0347 11.3046 8.67865 11.5211 8.45975C12.0327 7.94252 12.3145 7.25417 12.3145 6.52385V6.45721C12.3145 4.9492 11.1006 3.71805 9.60237 3.71805H3.06284H2.46892L2.88405 4.14279L3.53531 4.80914C3.75056 5.02938 3.74842 5.38542 3.53062 5.60299C3.42296 5.71053 3.28366 5.76367 3.14422 5.76367C3.0025 5.76367 2.86116 5.70885 2.7531 5.59826L2.75308 5.59824L0.743557 3.54213Z" fill="#448ADD" stroke="#448ADD" stroke-width="0.5"/>
</svg>
