<svg width="36" height="36" viewBox="0 0 36 36" fill="none" xmlns="http://www.w3.org/2000/svg">
<path fill-rule="evenodd" clip-rule="evenodd" d="M18 0.5C19.2081 0.5 20.1875 1.47938 20.1875 2.6875V33.3125C20.1875 34.5206 19.2081 35.5 18 35.5C16.7919 35.5 15.8125 34.5206 15.8125 33.3125V2.6875C15.8125 1.47938 16.7919 0.5 18 0.5Z" fill="#448ADD"/>
<path fill-rule="evenodd" clip-rule="evenodd" d="M0.5 18C0.5 16.7919 1.47938 15.8125 2.6875 15.8125H33.3125C34.5206 15.8125 35.5 16.7919 35.5 18C35.5 19.2081 34.5206 20.1875 33.3125 20.1875H2.6875C1.47938 20.1875 0.5 19.2081 0.5 18Z" fill="#448ADD"/>
<path fill-rule="evenodd" clip-rule="evenodd" d="M18 0.5C19.2081 0.5 20.1875 1.47938 20.1875 2.6875V33.3125C20.1875 34.5206 19.2081 35.5 18 35.5C16.7919 35.5 15.8125 34.5206 15.8125 33.3125V2.6875C15.8125 1.47938 16.7919 0.5 18 0.5Z" stroke="#448ADD" stroke-width="0.5" stroke-linecap="round" stroke-linejoin="round"/>
<path fill-rule="evenodd" clip-rule="evenodd" d="M0.5 18C0.5 16.7919 1.47938 15.8125 2.6875 15.8125H33.3125C34.5206 15.8125 35.5 16.7919 35.5 18C35.5 19.2081 34.5206 20.1875 33.3125 20.1875H2.6875C1.47938 20.1875 0.5 19.2081 0.5 18Z" stroke="#448ADD" stroke-width="0.5" stroke-linecap="round" stroke-linejoin="round"/>
</svg>
