<svg width="16" height="16" viewBox="0 0 16 16" fill="none" xmlns="http://www.w3.org/2000/svg">
<path d="M8 2C6.4087 2 4.88258 2.63214 3.75736 3.75736C2.63214 4.88258 2 6.4087 2 8C2 9.5913 2.63214 11.1174 3.75736 12.2426C4.88258 13.3679 6.4087 14 8 14C9.5913 14 11.1174 13.3679 12.2426 12.2426C13.3679 11.1174 14 9.5913 14 8C14 6.4087 13.3679 4.88258 12.2426 3.75736C11.1174 2.63214 9.5913 2 8 2ZM0.5 8C0.5 3.85775 3.85775 0.5 8 0.5C12.1423 0.5 15.5 3.85775 15.5 8C15.5 12.1423 12.1423 15.5 8 15.5C3.85775 15.5 0.5 12.1423 0.5 8Z" fill="#99A5AE"/>
<path d="M8 3.5C8.19891 3.5 8.38968 3.57902 8.53033 3.71967C8.67098 3.86032 8.75 4.05109 8.75 4.25V7.073C8.75007 7.21225 8.78891 7.34872 8.86216 7.46714C8.93542 7.58557 9.04019 7.68126 9.16475 7.7435L11.3353 8.8295C11.4264 8.87162 11.5082 8.93163 11.5758 9.00596C11.6433 9.0803 11.6953 9.16744 11.7285 9.26223C11.7617 9.35701 11.7756 9.45751 11.7692 9.55775C11.7629 9.65799 11.7365 9.75594 11.6916 9.84578C11.6466 9.93561 11.5841 10.0155 11.5077 10.0807C11.4314 10.146 11.3426 10.1952 11.2469 10.2255C11.1511 10.2557 11.0502 10.2665 10.9502 10.257C10.8502 10.2476 10.7532 10.2182 10.6648 10.1705L8.4935 9.08525C8.11984 8.89836 7.8056 8.61113 7.58598 8.25572C7.36635 7.90032 7.25001 7.49079 7.25 7.073V4.25C7.25 4.05109 7.32902 3.86032 7.46967 3.71967C7.61032 3.57902 7.80109 3.5 8 3.5Z" fill="#99A5AE"/>
</svg>
