<svg width="16" height="12" viewBox="0 0 16 12" fill="none" xmlns="http://www.w3.org/2000/svg">
<path d="M13.0417 4.875V5.125H13.2917H14.7917C14.8599 5.125 14.9167 5.18182 14.9167 5.25V6C14.9167 6.06818 14.8599 6.125 14.7917 6.125H13.2917H13.0417V6.375V7.875C13.0417 7.94318 12.9849 8 12.9167 8H12.1667C12.0985 8 12.0417 7.94318 12.0417 7.875V6.375V6.125H11.7917H10.2917C10.2235 6.125 10.1667 6.06818 10.1667 6V5.25C10.1667 5.18182 10.2235 5.125 10.2917 5.125H11.7917H12.0417V4.875V3.375C12.0417 3.30682 12.0985 3.25 12.1667 3.25H12.9167C12.9849 3.25 13.0417 3.30682 13.0417 3.375V4.875ZM8.16669 3C8.16669 4.51896 6.93565 5.75 5.41669 5.75C3.89773 5.75 2.66669 4.51896 2.66669 3C2.66669 1.48104 3.89773 0.25 5.41669 0.25C6.93565 0.25 8.16669 1.48104 8.16669 3ZM5.41669 7.375C6.0439 7.375 6.64057 7.23929 7.17913 7H7.51669C9.11768 7 10.4167 8.29901 10.4167 9.9V10.875C10.4167 11.358 10.0247 11.75 9.54169 11.75H1.29169C0.808664 11.75 0.416687 11.358 0.416687 10.875V9.9C0.416687 8.29901 1.7157 7 3.31669 7H3.65444C4.19469 7.23915 4.78913 7.375 5.41669 7.375Z" fill="#448ADD" stroke="#448ADD" stroke-width="0.5"/>
</svg>
