<svg width="12" height="14" viewBox="0 0 12 14" fill="none" xmlns="http://www.w3.org/2000/svg">
<path d="M2.66667 3.24992H2.91667V2.99992V0.999919C2.91667 0.889412 2.96057 0.783431 3.03871 0.705291C3.11685 0.627151 3.22283 0.583252 3.33333 0.583252H11.3333C11.4438 0.583252 11.5498 0.627151 11.628 0.705291C11.7061 0.78343 11.75 0.889411 11.75 0.999919V10.3333C11.75 10.4438 11.7061 10.5497 11.628 10.6279C11.5498 10.706 11.4438 10.7499 11.3333 10.7499H9.33333H9.08333V10.9999V12.9999C9.08333 13.2284 8.89673 13.4166 8.662 13.4166L0.671333 13.4166L0.669836 13.4166C0.614854 13.4169 0.560351 13.4064 0.509457 13.3856L0.415931 13.6144L0.509455 13.3856C0.458561 13.3648 0.412277 13.3341 0.373264 13.2954C0.334253 13.2567 0.303279 13.2106 0.282125 13.1598C0.260989 13.1091 0.250072 13.0547 0.25 12.9998L0.252 3.66664V3.66659C0.252 3.43795 0.438771 3.24992 0.672667 3.24992H2.66667ZM1.33467 4.08325H1.08471L1.08467 4.33321L1.08333 12.3332L1.08329 12.5833H1.33333H8H8.25V12.3333V4.33325V4.08325H8H1.33467ZM3.75 2.99992V3.24992H4H9.08333V9.66659V9.91659H9.33333H10.6667H10.9167V9.66659V1.66659V1.41659H10.6667H4H3.75V1.66659V2.99992ZM2.91667 6.58325H6.41667V7.41659H2.91667V6.58325ZM2.91667 9.24992H6.41667V10.0833H2.91667V9.24992Z" fill="#448ADD" stroke="#448ADD" stroke-width="0.5"/>
</svg>
