<svg width="18" height="16" viewBox="0 0 18 16" fill="none" xmlns="http://www.w3.org/2000/svg">
<path d="M11.0833 10.6786C11.0833 10.9746 10.8503 11.2143 10.5625 11.2143H7.43749C7.14973 11.2143 6.91666 10.9746 6.91666 10.6786V9.07143H0.666656V13.8929C0.666656 14.75 1.39582 15.5 2.22916 15.5H15.7708C16.6042 15.5 17.3333 14.75 17.3333 13.8929V9.07143H11.0833V10.6786ZM15.7708 3.71429H13.1667V2.10714C13.1667 1.25 12.4375 0.5 11.6042 0.5H6.39582C5.56249 0.5 4.83332 1.25 4.83332 2.10714V3.71429H2.22916C1.39582 3.71429 0.666656 4.46429 0.666656 5.32143V8H17.3333V5.32143C17.3333 4.46429 16.6042 3.71429 15.7708 3.71429ZM11.0833 3.71429H6.91666V2.64286H11.0833V3.71429Z" fill="#D88166"/>
</svg>
