<svg width="29" height="33" viewBox="0 0 29 33" fill="none" xmlns="http://www.w3.org/2000/svg">
<path d="M0.928467 27.7096C0.928467 28.9827 1.42013 30.2036 2.2953 31.1038C3.17047 32.0039 4.35746 32.5096 5.59513 32.5096H24.2618C25.4995 32.5096 26.6865 32.0039 27.5616 31.1038C28.4368 30.2036 28.9285 28.9827 28.9285 27.7096V11.4344C28.9278 10.1621 28.436 8.94202 27.5611 8.04244L21.6065 1.91444C20.7312 1.01479 19.5445 0.509491 18.3071 0.509644H5.59513C4.35746 0.509644 3.17047 1.01536 2.2953 1.91553C1.42013 2.81571 0.928467 4.0366 0.928467 5.30964V27.7096ZM5.59513 29.3096C5.18257 29.3096 4.78691 29.1411 4.49519 28.841C4.20347 28.541 4.03958 28.134 4.03958 27.7096V5.30964C4.03958 4.8853 4.20347 4.47833 4.49519 4.17827C4.78691 3.87821 5.18257 3.70964 5.59513 3.70964H16.484V8.50964C16.484 9.78268 16.9757 11.0036 17.8509 11.9038C18.726 12.8039 19.913 13.3096 21.1507 13.3096H25.8174V27.7096C25.8174 28.134 25.6535 28.541 25.3617 28.841C25.07 29.1411 24.6744 29.3096 24.2618 29.3096H5.59513ZM25.1734 10.1096H21.1507C20.7381 10.1096 20.3425 9.94107 20.0507 9.64101C19.759 9.34096 19.5951 8.93399 19.5951 8.50964V4.37204L25.1734 10.1096Z" fill="#5F6B73"/>
<path d="M21.582 17.6454L14.4927 25.1426C14.3829 25.2589 14.2525 25.3512 14.109 25.4142C13.9654 25.4772 13.8116 25.5096 13.6561 25.5096C13.5007 25.5096 13.3468 25.4772 13.2033 25.4142C13.0598 25.3512 12.9294 25.2589 12.8196 25.1426L9.27497 21.394C9.16512 21.2778 9.07797 21.1399 9.01852 20.9881C8.95907 20.8363 8.92847 20.6736 8.92847 20.5093C8.92847 20.345 8.95907 20.1823 9.01852 20.0305C9.07797 19.8787 9.16512 19.7408 9.27497 19.6247C9.49683 19.39 9.79775 19.2582 10.1115 19.2582C10.2669 19.2582 10.4207 19.2906 10.5642 19.3534C10.7078 19.4163 10.8382 19.5085 10.948 19.6247L13.6561 22.4911L19.9089 15.8761C20.1308 15.6415 20.4317 15.5096 20.7454 15.5096C21.0592 15.5096 21.3601 15.6415 21.582 15.8761C21.8038 16.1107 21.9285 16.4289 21.9285 16.7607C21.9285 17.0926 21.8038 17.4108 21.582 17.6454Z" fill="#00C07B"/>
</svg>
