<svg width="17" height="17" viewBox="0 0 17 17" fill="none" xmlns="http://www.w3.org/2000/svg">
<path d="M8.7991 3.83331C3.71044 3.83331 2.1811 8.24465 2.1671 8.28931L2.09644 8.49998L2.16644 8.71065C2.1811 8.75531 3.71044 13.1666 8.7991 13.1666C13.8878 13.1666 15.4171 8.75531 15.4311 8.71065L15.5018 8.49998L15.4318 8.28931C15.4171 8.24465 13.8878 3.83331 8.7991 3.83331ZM8.7991 11.1666C7.32844 11.1666 6.13244 9.97065 6.13244 8.49998C6.13244 7.02931 7.32844 5.83331 8.7991 5.83331C10.2698 5.83331 11.4658 7.02931 11.4658 8.49998C11.4658 9.97065 10.2698 11.1666 8.7991 11.1666Z" fill="#448ADD"/>
<path d="M8.7991 7.16665C8.07644 7.16665 7.46577 7.77731 7.46577 8.49998C7.46577 9.22265 8.07644 9.83331 8.7991 9.83331C9.52177 9.83331 10.1324 9.22265 10.1324 8.49998C10.1324 7.77731 9.52177 7.16665 8.7991 7.16665Z" fill="#448ADD"/>
</svg>
