<svg width="17" height="14" viewBox="0 0 17 14" fill="none" xmlns="http://www.w3.org/2000/svg">
<path d="M2.94443 0.333313C2.20772 0.333313 1.50118 0.614264 0.980249 1.11436C0.459314 1.61446 0.166656 2.29274 0.166656 2.99998V3.26798L8.49999 7.57598L16.8333 3.26931V2.99998C16.8333 2.29274 16.5407 1.61446 16.0197 1.11436C15.4988 0.614264 14.7923 0.333313 14.0555 0.333313H2.94443Z" fill="#5F6B73"/>
<path d="M16.8333 4.78271L8.82916 8.92005C8.72799 8.97233 8.61489 8.9997 8.49999 8.9997C8.38509 8.9997 8.27199 8.97233 8.17082 8.92005L0.166656 4.78271V11C0.166656 11.7073 0.459314 12.3856 0.980249 12.8857C1.50118 13.3858 2.20772 13.6667 2.94443 13.6667H14.0555C14.7923 13.6667 15.4988 13.3858 16.0197 12.8857C16.5407 12.3856 16.8333 11.7073 16.8333 11V4.78271Z" fill="#5F6B73"/>
</svg>
