<svg width="24" height="24" viewBox="0 0 24 24" fill="none" xmlns="http://www.w3.org/2000/svg">
<path fill-rule="evenodd" clip-rule="evenodd" d="M18.5207 5.47958C18.9004 5.85926 18.9004 6.47484 18.5207 6.85451L6.85402 18.5212C6.47435 18.9009 5.85877 18.9009 5.47909 18.5212C5.09942 18.1415 5.09942 17.5259 5.47909 17.1462L17.1458 5.47958C17.5254 5.09991 18.141 5.09991 18.5207 5.47958Z" fill="#99A5AE"/>
<path fill-rule="evenodd" clip-rule="evenodd" d="M5.47909 5.47958C5.85877 5.09991 6.47435 5.09991 6.85402 5.47958L18.5207 17.1462C18.9004 17.5259 18.9004 18.1415 18.5207 18.5212C18.141 18.9009 17.5254 18.9009 17.1458 18.5212L5.47909 6.85451C5.09942 6.47484 5.09942 5.85926 5.47909 5.47958Z" fill="#99A5AE"/>
</svg>
