<svg width="14" height="14" viewBox="0 0 14 14" fill="none" xmlns="http://www.w3.org/2000/svg">
<path d="M5.03538 12.0273L8.13534 8.92512L8.31214 8.74819L8.48898 8.92507L12.8815 13.3187L12.9405 13.3676C12.9978 13.4047 13.0659 13.4215 13.134 13.4153C13.2019 13.4092 13.2657 13.3805 13.3152 13.334L13.3622 13.2772C13.3994 13.2199 13.4165 13.1517 13.4104 13.0835C13.404 13.0123 13.3729 12.9456 13.3224 12.895C13.3224 12.895 13.3224 12.895 13.3224 12.895L1.11269 0.68753L1.05343 0.638428C0.996196 0.60124 0.928056 0.584253 0.859894 0.590343C0.792346 0.596377 0.728838 0.624712 0.679292 0.670715L0.632479 0.728205C0.59508 0.785638 0.578043 0.854068 0.584263 0.922484C0.590736 0.993688 0.621989 1.06036 0.672575 1.11089L0.6727 1.11102L5.07123 5.51066L5.24796 5.68744L5.07121 5.86419L1.97224 8.96315L1.97213 8.96327C1.72932 9.20576 1.55401 9.50742 1.46353 9.83843L5.03538 12.0273ZM5.03538 12.0273C4.79274 12.2698 4.49102 12.4448 4.16004 12.535L4.15995 12.535L0.968795 13.4058L1.03461 13.647L0.968789 13.4058C0.916846 13.42 0.862078 13.4202 0.810038 13.4063C0.757998 13.3925 0.710535 13.3652 0.672462 13.3271C0.63439 13.2891 0.607061 13.2416 0.593245 13.1896L0.351615 13.2537L0.593245 13.1896C0.57943 13.1375 0.57962 13.0827 0.593795 13.0308L0.593824 13.0307L1.46349 9.83861L5.03538 12.0273ZM5.6808 6.1169L5.85761 6.29371L7.70366 8.13976L7.88041 8.3165L7.70369 8.49328L4.60362 11.5945L4.60336 11.5947C4.43581 11.7618 4.22757 11.8824 3.99919 11.9444L1.7458 12.5597L1.32369 12.675L1.43875 12.2528L2.05299 9.9991L2.05303 9.99895C2.11545 9.7705 2.23641 9.5623 2.40395 9.39493L5.6808 6.1169ZM5.6808 6.1169L5.50403 6.29374L2.4041 9.39478L5.6808 6.1169ZM12.6439 1.09032C12.2304 0.74334 11.7022 0.563064 11.1626 0.58505C10.6194 0.607187 10.1043 0.832738 9.71956 1.21695C9.71955 1.21695 9.71955 1.21696 9.71954 1.21697L6.81978 4.11359L7.25248 4.54629L8.83511 2.96265L9.01189 2.78577L9.18872 2.9626L11.0348 4.80865L11.2116 4.98548L11.0347 5.16226L9.45108 6.74489L9.88178 7.17559L12.7816 4.27999L12.6439 1.09032ZM12.6439 1.09032L12.6436 1.09066L12.7818 1.21629L12.9051 1.35083C13.2547 1.76512 13.4363 2.29542 13.414 2.83711C13.3917 3.38029 13.166 3.89524 12.7818 4.27981L12.6439 1.09032ZM10.5771 1.34619V1.22071L10.1503 1.64748L9.62157 2.17619L9.4448 2.35297L9.62157 2.52975L11.4676 4.3758L11.6442 4.55239L11.821 4.37598L12.3497 3.84838L12.3499 3.8482C12.4943 3.70377 12.6089 3.53231 12.687 3.3436C12.7652 3.1549 12.8054 2.95265 12.8054 2.74839C12.8054 2.54414 12.7652 2.34189 12.687 2.15319C12.6089 1.96448 12.4943 1.79302 12.3499 1.64859L12.1731 1.82537L12.3499 1.64859C12.2055 1.50417 12.034 1.3896 11.8453 1.31143C11.6566 1.23327 11.4543 1.19304 11.2501 1.19304C11.0458 1.19304 10.8436 1.23327 10.6549 1.31143C10.6286 1.32232 10.6026 1.33391 10.5771 1.34619Z" fill="#448ADD" stroke="#448ADD" stroke-width="0.5"/>
</svg>
