<svg width="24" height="24" viewBox="0 0 24 24" fill="none" xmlns="http://www.w3.org/2000/svg">
<path fill-rule="evenodd" clip-rule="evenodd" d="M7.73364 3.03006C8.99708 1.71194 10.7107 0.971436 12.4974 0.971436C14.2842 0.971436 15.9978 1.71194 17.2613 3.03006C18.5247 4.34817 19.2345 6.13591 19.2345 8.00001C19.2345 11.3485 19.9209 13.4256 20.5519 14.6325C20.8687 15.2385 21.177 15.6356 21.3906 15.8707C21.4976 15.9886 21.5815 16.0666 21.6317 16.1102C21.6569 16.1321 21.6736 16.1454 21.6806 16.1508L21.6828 16.1525C22.036 16.4059 22.1923 16.869 22.0677 17.2981C21.9418 17.7319 21.5586 18.0286 21.1241 18.0286H3.87075C3.43629 18.0286 3.05304 17.7319 2.92715 17.2981C2.80262 16.869 2.95888 16.4059 3.31207 16.1525L3.31431 16.1508C3.3213 16.1454 3.33802 16.1321 3.36315 16.1102C3.41337 16.0666 3.4973 15.9886 3.60433 15.8707C3.8179 15.6356 4.12616 15.2385 4.44301 14.6325C5.07398 13.4256 5.76041 11.3485 5.76041 8.00001C5.76041 6.13591 6.4702 4.34817 7.73364 3.03006ZM19.0153 15.9714C18.9505 15.8593 18.8856 15.7414 18.8208 15.6175C18.014 14.0744 17.2627 11.6516 17.2627 8.00001C17.2627 6.6815 16.7606 5.417 15.867 4.48468C14.9733 3.55235 13.7613 3.02858 12.4974 3.02858C11.2336 3.02858 10.0216 3.55235 9.12792 4.48468C8.23427 5.417 7.73222 6.6815 7.73222 8.00001C7.73222 11.6516 6.98086 14.0744 6.17406 15.6175C6.10932 15.7414 6.04436 15.8593 5.97956 15.9714H19.0153Z" fill="#5F6B73"/>
<path fill-rule="evenodd" clip-rule="evenodd" d="M10.3446 20.1103C10.8156 19.8253 11.4189 19.9925 11.6922 20.4839C11.774 20.6311 11.8915 20.7533 12.0328 20.8383C12.1742 20.9232 12.3345 20.9679 12.4976 20.9679C12.6607 20.9679 12.821 20.9232 12.9623 20.8383C13.1037 20.7533 13.2212 20.6311 13.303 20.4839C13.5762 19.9925 14.1795 19.8253 14.6505 20.1103C15.1215 20.3953 15.2819 21.0248 15.0086 21.5161C14.7535 21.9751 14.3872 22.356 13.9465 22.6208C13.5058 22.8857 13.0061 23.025 12.4976 23.025C11.989 23.025 11.4894 22.8857 11.0487 22.6208C10.608 22.356 10.2417 21.9751 9.98653 21.5161C9.71331 21.0248 9.87365 20.3953 10.3446 20.1103Z" fill="#5F6B73"/>
<path d="M18.8208 15.6175C18.8856 15.7414 18.9505 15.8593 19.0153 15.9714H5.97956C6.04436 15.8593 6.10932 15.7414 6.17406 15.6175C6.98086 14.0744 7.73222 11.6516 7.73222 8.00001C7.73222 6.6815 8.23427 5.417 9.12792 4.48468C10.0216 3.55235 11.2336 3.02858 12.4974 3.02858C13.7613 3.02858 14.9733 3.55235 15.867 4.48468C16.7606 5.417 17.2627 6.6815 17.2627 8.00001C17.2627 11.6516 18.014 14.0744 18.8208 15.6175Z" fill="#5F6B73"/>
</svg>
