<svg width="28" height="22" viewBox="0 0 28 22" fill="none" xmlns="http://www.w3.org/2000/svg">
<path d="M22.9375 18.5938H5.0625C4.68437 18.5938 4.375 18.8926 4.375 19.2578V20.5859C4.375 20.9512 4.68437 21.25 5.0625 21.25H22.9375C23.3156 21.25 23.625 20.9512 23.625 20.5859V19.2578C23.625 18.8926 23.3156 18.5938 22.9375 18.5938ZM25.6875 5.3125C24.5488 5.3125 23.625 6.20483 23.625 7.30469C23.625 7.59937 23.6938 7.87329 23.8141 8.12646L20.7031 9.92773C20.0414 10.3096 19.1863 10.0938 18.8039 9.44629L15.302 3.52783C15.7617 3.1626 16.0625 2.61475 16.0625 1.99219C16.0625 0.892334 15.1387 0 14 0C12.8613 0 11.9375 0.892334 11.9375 1.99219C11.9375 2.61475 12.2383 3.1626 12.698 3.52783L9.19609 9.44629C8.81367 10.0938 7.9543 10.3096 7.29688 9.92773L4.19023 8.12646C4.30625 7.87744 4.3793 7.59937 4.3793 7.30469C4.3793 6.20483 3.45547 5.3125 2.3168 5.3125C1.17812 5.3125 0.25 6.20483 0.25 7.30469C0.25 8.40454 1.17383 9.29688 2.3125 9.29688C2.42422 9.29688 2.53594 9.28027 2.64336 9.26367L5.75 17.2656H22.25L25.3566 9.26367C25.4641 9.28027 25.5758 9.29688 25.6875 9.29688C26.8262 9.29688 27.75 8.40454 27.75 7.30469C27.75 6.20483 26.8262 5.3125 25.6875 5.3125Z" fill="white"/>
</svg>
