<svg width="24" height="24" viewBox="0 0 24 24" fill="none" xmlns="http://www.w3.org/2000/svg">
<path d="M9.96154 3.53846H10.0108L7.47231 5.84615H2V5.07692C2 4.26087 2.32417 3.47824 2.90121 2.90121C3.47824 2.32417 4.26087 2 5.07692 2H7.76923C7.9438 2.00031 8.11307 2.05999 8.24923 2.16923L9.96154 3.53846ZM8.28615 7.18462L12.2969 3.53846H17.3846C18.2007 3.53846 18.9833 3.86264 19.5603 4.43967C20.1374 5.01671 20.4615 5.79933 20.4615 6.61538V8.67846C20.1065 8.14402 19.6439 7.68947 19.1033 7.34385C18.5627 6.99823 17.956 6.76913 17.3219 6.67116C16.6877 6.5732 16.0402 6.60853 15.4205 6.77491C14.8008 6.94128 14.2226 7.23503 13.7228 7.63742C13.223 8.0398 12.8126 8.54197 12.5178 9.11188C12.223 9.68178 12.0503 10.3069 12.0106 10.9473C11.971 11.5877 12.0653 12.2294 12.2876 12.8313C12.5099 13.4332 12.8552 13.9821 13.3015 14.4431H13.2738C11.5338 14.4431 10.0231 15.6846 9.74 17.3846H5.07692C4.26087 17.3846 3.47824 17.0604 2.90121 16.4834C2.32417 15.9064 2 15.1237 2 14.3077V7.38462H7.76923C7.9604 7.3845 8.14469 7.3132 8.28615 7.18462ZM16.6154 14.3077C17.4314 14.3077 18.2141 13.9835 18.7911 13.4065C19.3681 12.8294 19.6923 12.0468 19.6923 11.2308C19.6923 10.4147 19.3681 9.63209 18.7911 9.05506C18.2141 8.47802 17.4314 8.15385 16.6154 8.15385C15.7993 8.15385 15.0167 8.47802 14.4397 9.05506C13.8626 9.63209 13.5385 10.4147 13.5385 11.2308C13.5385 12.0468 13.8626 12.8294 14.4397 13.4065C15.0167 13.9835 15.7993 14.3077 16.6154 14.3077ZM13.2738 15.9815C12.1462 15.9815 11.2308 16.8692 11.2308 17.9631C11.2308 19.7308 12.4723 21.2723 14.2431 21.7015L14.3708 21.7323C15.8446 22.0892 17.3862 22.0892 18.86 21.7323L18.9877 21.7015C20.7569 21.2723 22 19.7308 22 17.9631C22 16.8692 21.0846 15.9815 19.9569 15.9815H13.2738Z" fill="#7F9EBB"/>
</svg>
