<svg width="20" height="14" viewBox="0 0 20 14" fill="none" xmlns="http://www.w3.org/2000/svg">
<path d="M5.06627 0.361015C4.59978 -0.11629 3.83887 -0.120895 3.36675 0.350717L0.357092 3.35715C0.130361 3.58364 0.00192131 3.89187 2.1387e-05 4.21408C-0.00187854 4.53633 0.122875 4.84611 0.346906 5.07533L3.36119 8.1595C3.59628 8.40008 3.90608 8.52054 4.21609 8.52054C4.5212 8.52054 4.82651 8.40376 5.06071 8.16982C5.53282 7.69821 5.5374 6.92894 5.07091 6.45164L4.09401 5.45211H13.9033C15.9397 5.45211 17.5965 7.12706 17.5965 9.18585V9.2858C17.5965 10.2832 17.2124 11.2207 16.5148 11.9259C16.0455 12.4004 16.0455 13.1697 16.5148 13.6441C16.7495 13.8814 17.057 14 17.3646 14C17.6721 14 17.9797 13.8813 18.2143 13.6441C19.3658 12.48 20 10.9322 20 9.28578V9.18582C20 7.53943 19.3658 5.99162 18.2143 4.82743C17.0628 3.66327 15.5318 3.02214 13.9033 3.02214H4.11209L5.05606 2.07917C5.5282 1.60756 5.53276 0.83832 5.06627 0.361015Z" fill="#448ADD"/>
</svg>
