<svg width="15" height="18" viewBox="0 0 15 18" fill="none" xmlns="http://www.w3.org/2000/svg">
<path d="M7.29167 8.99996C9.5931 8.99996 11.4583 7.13473 11.4583 4.83329C11.4583 2.53186 9.5931 0.666626 7.29167 0.666626C4.99023 0.666626 3.125 2.53186 3.125 4.83329C3.125 7.13473 4.99023 8.99996 7.29167 8.99996ZM3.38542 14.4687C3.38542 14.9017 3.73372 15.25 4.16667 15.25C4.59961 15.25 4.94792 14.9017 4.94792 14.4687C4.94792 14.0358 4.59961 13.6875 4.16667 13.6875C3.73372 13.6875 3.38542 14.0358 3.38542 14.4687ZM10.4167 10.0612V11.6562C11.6048 11.8971 12.5 12.9518 12.5 14.2083V15.5657C12.5 15.8131 12.3242 16.028 12.0801 16.0768L11.0319 16.2851C10.8919 16.3144 10.7552 16.2233 10.7259 16.08L10.625 15.569C10.5957 15.429 10.6869 15.289 10.8301 15.263L11.4583 15.136V14.2083C11.4583 12.164 8.33333 12.0892 8.33333 14.2701V15.1393L8.96159 15.2662C9.10156 15.2955 9.19271 15.4323 9.16667 15.5722L9.06576 16.0833C9.03646 16.2233 8.89974 16.3144 8.75977 16.2884L7.74414 16.1517C7.48698 16.1158 7.29492 15.8977 7.29492 15.6341V14.2083C7.29492 12.9518 8.19011 11.9004 9.37826 11.6562V10.1849C9.30664 10.2076 9.23503 10.2207 9.16341 10.2467C8.57747 10.4518 7.94922 10.5657 7.29492 10.5657C6.64063 10.5657 6.01237 10.4518 5.42643 10.2467C5.18555 10.1621 4.94141 10.11 4.69076 10.0774V12.7337C5.44271 12.9583 5.99284 13.6484 5.99284 14.472C5.99284 15.4778 5.17578 16.2949 4.16992 16.2949C3.16406 16.2949 2.34701 15.4778 2.34701 14.472C2.34701 13.6484 2.89714 12.9583 3.64909 12.7337V10.1165C1.57878 10.4648 0 12.2487 0 14.4166V15.875C0 16.679 0.654297 17.3333 1.45833 17.3333H13.125C13.929 17.3333 14.5833 16.679 14.5833 15.875V14.4166C14.5833 12.0729 12.7344 10.1751 10.4167 10.0612Z" fill="#5F6B73"/>
</svg>
