<svg width="21" height="21" viewBox="0 0 21 21" fill="none" xmlns="http://www.w3.org/2000/svg">
<path fill-rule="evenodd" clip-rule="evenodd" d="M10.6543 0.483154C8.09068 0.490466 5.62779 1.48207 3.7743 3.25315V1.48315C3.7743 1.21794 3.66894 0.963584 3.4814 0.776047C3.29387 0.588511 3.03951 0.483154 2.7743 0.483154C2.50908 0.483154 2.25473 0.588511 2.06719 0.776047C1.87965 0.963584 1.7743 1.21794 1.7743 1.48315V5.98315C1.7743 6.24837 1.87965 6.50272 2.06719 6.69026C2.25473 6.8778 2.50908 6.98315 2.7743 6.98315H4.59077H7.27429C7.53951 6.98315 7.79386 6.8778 7.9814 6.69026C8.16894 6.50272 8.27429 6.24837 8.27429 5.98315C8.27429 5.71794 8.16894 5.46358 7.9814 5.27605C7.79386 5.08851 7.53951 4.98315 7.27429 4.98315H6.3237H4.8743C6.16007 3.63951 7.8738 2.78581 9.72083 2.56882C11.5679 2.35184 13.4328 2.78513 14.9949 3.7942C16.5571 4.80327 17.7189 6.32507 18.2806 8.09794C18.8423 9.87082 18.7688 11.784 18.0727 13.5085C17.3766 15.2331 16.1015 16.6612 14.4665 17.5475C12.8315 18.4337 10.9388 18.7226 9.11385 18.3645C7.28892 18.0064 5.64576 17.0237 4.46689 15.5853C3.28801 14.147 2.64708 12.3429 2.6543 10.4832C2.6543 10.2179 2.54894 9.96358 2.3614 9.77604C2.17387 9.58851 1.91951 9.48315 1.6543 9.48315C1.38908 9.48315 1.13473 9.58851 0.94719 9.77604C0.759654 9.96358 0.654297 10.2179 0.654297 10.4832C0.654297 12.461 1.24079 14.3944 2.3396 16.0389C3.43841 17.6833 5.0002 18.9651 6.82746 19.7219C8.65472 20.4788 10.6654 20.6769 12.6052 20.291C14.545 19.9051 16.3268 18.9527 17.7254 17.5542C19.1239 16.1557 20.0763 14.3739 20.4621 12.4341C20.848 10.4942 20.65 8.48358 19.8931 6.65632C19.1362 4.82906 17.8545 3.26727 16.21 2.16846C14.5655 1.06964 12.6321 0.483154 10.6543 0.483154ZM7.04671 4.48315C7.58257 4.48315 8.6543 4.78315 8.6543 5.98315C8.6543 7.18315 7.58257 7.48315 7.04671 7.48315H4.32793C3.89599 8.39241 3.6543 9.40956 3.6543 10.4832C3.6543 14.3491 6.7883 17.4832 10.6543 17.4832C14.5203 17.4832 17.6543 14.3491 17.6543 10.4832C17.6543 6.61716 14.5203 3.48315 10.6543 3.48315C9.33463 3.48315 8.10025 3.84833 7.04671 4.48315ZM10.6543 6.48315C10.3891 6.48315 10.1347 6.58851 9.94719 6.77605C9.75965 6.96358 9.65429 7.21794 9.65429 7.48315V10.4832C9.65429 10.7484 9.75965 11.0027 9.94719 11.1903C10.1347 11.3778 10.3891 11.4832 10.6543 11.4832H12.6543C12.9195 11.4832 13.1739 11.3778 13.3614 11.1903C13.5489 11.0027 13.6543 10.7484 13.6543 10.4832C13.6543 10.2179 13.5489 9.96358 13.3614 9.77604C13.1739 9.58851 12.9195 9.48315 12.6543 9.48315H11.6543V7.48315C11.6543 7.21794 11.5489 6.96358 11.3614 6.77605C11.1739 6.58851 10.9195 6.48315 10.6543 6.48315Z" fill="#B7C3CB"/>
</svg>
