<svg width="24" height="28" viewBox="0 0 24 28" fill="none" xmlns="http://www.w3.org/2000/svg">
<path d="M2.66667 27.3333H21.3333C22.804 27.3333 24 26.1373 24 24.6666V5.99996C24 4.52929 22.804 3.33329 21.3333 3.33329H18.6667V0.666626H16V3.33329H8V0.666626H5.33333V3.33329H2.66667C1.196 3.33329 0 4.52929 0 5.99996V24.6666C0 26.1373 1.196 27.3333 2.66667 27.3333ZM9.06533 24.6493H6.66667V22.2506L13.3027 15.624L15.7013 18.0226L9.06533 24.6493ZM16.8307 16.8933L14.432 14.4946L16.2613 12.6666L18.66 15.0653L16.8307 16.8933ZM2.66667 7.33329H21.3333V9.99996H2.66667V7.33329Z" fill="url(#paint0_linear_8718_6645)"/>
<defs>
<linearGradient id="paint0_linear_8718_6645" x1="16.6773" y1="-4.6217" x2="4.75909" y2="24.9395" gradientUnits="userSpaceOnUse">
<stop stop-color="#7CBEFA"/>
<stop offset="1" stop-color="#626EDA"/>
</linearGradient>
</defs>
</svg>
