<svg width="33" height="47" viewBox="0 0 33 47" fill="none" xmlns="http://www.w3.org/2000/svg">
<rect width="33" height="47" fill="#F5F5F5"/>
<g clip-path="url(#clip0_0_1)">
<path d="M32.7866 0V45.2637C32.7866 46.8876 32.3997 47.4963 29.2887 46.5537L16.3933 41.6235L3.49793 46.5537C0.399948 47.4963 0 46.8895 0 45.2637V0H32.7866Z" fill="url(#paint0_linear_0_1)"/>
<path d="M9.112 26.288C8.968 26.672 8.764 27.008 8.416 27.332C7.972 27.056 7.6 26.72 7.252 26.288H9.112ZM7.132 24.344H9.34V24.728C9.34 24.86 9.34 24.992 9.328 25.124H7.132V24.344ZM7.132 22.508H9.34V23.276H7.132V22.508ZM13.096 22.508V23.276H10.84V22.508H13.096ZM13.096 25.124H10.828C10.84 24.992 10.84 24.86 10.84 24.74V24.344H13.096V25.124ZM14.512 26.288V21.356H10.84V20.648H15.256V19.376H4.744V20.648H9.34V21.356H5.788V26.288H7.06L5.968 26.732C6.328 27.26 6.736 27.716 7.204 28.076C6.52 28.364 5.644 28.604 4.492 28.784C4.804 29.12 5.188 29.72 5.356 30.056C6.748 29.78 7.804 29.384 8.608 28.928C10.324 29.684 12.532 29.864 15.136 29.924C15.22 29.432 15.484 28.832 15.748 28.508C13.312 28.52 11.344 28.472 9.784 27.956C10.228 27.464 10.504 26.888 10.66 26.288H14.512ZM20.212 21.188C20.116 21.596 19.924 22.148 19.768 22.508L20.56 22.676H18.208L18.808 22.508C18.76 22.148 18.604 21.596 18.4 21.188H20.212ZM20.056 25.976H22.036V24.776H20.056V23.852H22.144V22.676H20.932C21.1 22.316 21.292 21.836 21.508 21.32L20.812 21.188H22.048V20.024H20.056V18.932H18.676V20.024H16.66V21.188H18.004L17.272 21.356C17.44 21.752 17.584 22.28 17.632 22.676H16.528V23.852H18.676V24.776H16.564V25.976H18.388C17.836 26.876 17.008 27.776 16.228 28.292C16.528 28.52 16.936 28.988 17.152 29.3C17.668 28.88 18.208 28.28 18.676 27.608V30.02H20.056V27.464C20.404 27.8 20.74 28.16 20.932 28.4L21.76 27.38C21.484 27.164 20.488 26.372 20.056 26.072V25.976ZM27.592 22.784H23.848V21.104C25.108 20.84 26.476 20.468 27.532 20L26.392 18.956C25.66 19.352 24.484 19.736 23.344 20.012L22.504 19.772V23.936C22.504 25.592 22.36 27.632 20.98 29.096C21.304 29.264 21.82 29.756 22 30.068C23.584 28.424 23.836 25.892 23.848 24.104H25.072V29.972H26.452V24.104H27.592V22.784Z" fill="#FCFCFC"/>
</g>
<defs>
<linearGradient id="paint0_linear_0_1" x1="9.61045" y1="59.4844" x2="70.5" y2="10" gradientUnits="userSpaceOnUse">
<stop offset="0.400412" stop-color="#07A85B" stop-opacity="0.92"/>
<stop offset="0.867918" stop-color="#4FDB43" stop-opacity="0.99"/>
<stop offset="0.970699" stop-color="#4FDB43" stop-opacity="0.73"/>
</linearGradient>
<clipPath id="clip0_0_1">
<rect width="33" height="47" fill="white"/>
</clipPath>
</defs>
</svg>
