<svg width="22" height="17" viewBox="0 0 22 17" fill="none" xmlns="http://www.w3.org/2000/svg">
<path d="M7.7003 8.4998C10.1307 8.4998 12.1005 6.5973 12.1005 4.2499C12.1005 1.90249 10.1307 0 7.7003 0C5.26989 0 3.30013 1.90249 3.30013 4.2499C3.30013 6.5973 5.26989 8.4998 7.7003 8.4998ZM10.7804 9.56227H10.2063C9.44318 9.90094 8.59409 10.0935 7.7003 10.0935C6.80652 10.0935 5.96086 9.90094 5.19427 9.56227H4.62018C2.06946 9.56227 0 11.5611 0 14.0247V15.4059C0 16.2857 0.739091 16.9996 1.65006 16.9996H11.1001C11.0176 16.7738 10.9832 16.5348 11.0107 16.2924L11.2445 14.2704L11.2858 13.9018L11.5573 13.6395L14.2146 11.073C13.3724 10.1533 12.152 9.56227 10.7804 9.56227ZM12.3377 14.3866L12.1039 16.4119C12.0661 16.7506 12.3617 17.0361 12.7089 16.9963L14.8025 16.7705L19.543 12.1919L17.0782 9.81129L12.3377 14.3866ZM21.7602 8.92811L20.4574 7.66974C20.1377 7.36096 19.6151 7.36096 19.2954 7.66974L17.996 8.92479L17.8551 9.06092L20.3233 11.4415L21.7602 10.0537C22.0799 9.74157 22.0799 9.24021 21.7602 8.92811Z" fill="#5F6B73"/>
</svg>
