<svg width="40" height="32" viewBox="0 0 40 32" fill="none" xmlns="http://www.w3.org/2000/svg">
<path d="M32.5053 3.64931V30.2637C32.5053 31.8876 32.1217 32.4963 29.0374 31.5537L16.2527 26.6235L3.46791 31.5537C0.396503 32.4963 -1.14441e-05 31.8895 -1.14441e-05 30.2637V3.64931C-1.14441e-05 2.68145 0.42807 1.75323 1.19006 1.06886C1.95205 0.384479 2.98554 0 4.06316 0H28.4422C29.5198 0 35.7559 0 35.7559 0C35.7559 0 32.5053 2.68145 32.5053 3.64931Z" fill="url(#paint0_linear_2415:8368)"/>
<path d="M39.6572 3.56908C39.6572 1.59793 38.0593 0 36.0881 0C34.117 0 32.5191 1.59793 32.5191 3.56908V3.91521H39.6572V3.56908Z" fill="#D06262"/>
<defs>
<linearGradient id="paint0_linear_2415:8368" x1="-6.12088e-05" y1="32.1048" x2="8.47599" y2="-7.03087" gradientUnits="userSpaceOnUse">
<stop stop-color="#FF5F57"/>
<stop offset="0.473958" stop-color="#FF6363"/>
<stop offset="1" stop-color="#FF7D7D"/>
</linearGradient>
</defs>
</svg>
