<svg width="16" height="11" viewBox="0 0 16 11" fill="none" xmlns="http://www.w3.org/2000/svg">
<path d="M14.5945 7.15091C14.134 6.46535 13.4911 5.89241 12.758 5.42245C13.3886 5.50927 13.9754 5.72511 14.4378 6.00571C14.7565 6.19907 14.9966 6.41133 15.1508 6.61136C15.2449 6.73346 15.2979 6.83848 15.3252 6.9239C15.2999 6.93698 15.2689 6.9517 15.2311 6.9676C15.07 7.03544 14.8523 7.098 14.5945 7.15091ZM12.6232 3.20968C12.6412 3.02906 12.65 2.84704 12.65 2.66667C12.65 1.94898 12.4811 1.26606 12.1881 0.661635C12.8658 0.746728 13.35 1.28979 13.35 2C13.35 2.54616 13.0636 2.99347 12.6232 3.20968ZM3.37684 3.20968C2.93637 2.99347 2.65 2.54616 2.65 2C2.65 1.28979 3.13424 0.746729 3.81188 0.661635C3.51886 1.26606 3.35 1.94898 3.35 2.66667C3.35 2.84704 3.3588 3.02906 3.37684 3.20968ZM1.5667 5.9946C2.0497 5.69612 2.66805 5.46336 3.33112 5.36613C2.56105 5.84641 1.88457 6.43772 1.40552 7.15091C1.14768 7.098 0.930013 7.03544 0.768904 6.9676C0.731132 6.9517 0.700055 6.93697 0.67479 6.92389C0.702123 6.83821 0.755322 6.73262 0.849939 6.60939C1.00486 6.40761 1.24616 6.19269 1.5667 5.9946ZM10.0167 2.66667C10.0167 3.77435 9.10768 4.68333 8 4.68333C6.89232 4.68333 5.98333 3.77435 5.98333 2.66667C5.98333 1.55898 6.89232 0.65 8 0.65C9.10768 0.65 10.0167 1.55899 10.0167 2.66667ZM3.31848 9.27948C3.34887 8.82138 3.76285 8.18629 4.6582 7.61448C5.54991 7.04498 6.76259 6.65 8 6.65C9.23741 6.65 10.4501 7.04498 11.3418 7.61448C12.2371 8.18629 12.6511 8.82138 12.6815 9.27947C12.6799 9.28099 12.6781 9.28258 12.6761 9.28426C12.614 9.33864 12.4875 9.41464 12.2718 9.49555C11.8444 9.65582 11.2384 9.77348 10.586 9.85502C9.94348 9.93534 9.29611 9.97599 8.80627 9.9964C8.56218 10.0066 8.35906 10.0116 8.21756 10.0142C8.14685 10.0154 8.09162 10.0161 8.05448 10.0164L8.01268 10.0166L8.00258 10.0167L8.00033 10.0167L8.0001 10.0167H8.00008H7.99992H7.9999L7.99967 10.0167L7.99742 10.0167L7.98732 10.0166L7.94552 10.0164C7.90838 10.0161 7.85315 10.0154 7.78244 10.0142C7.64094 10.0116 7.43782 10.0066 7.19373 9.9964C6.70389 9.97599 6.05652 9.93534 5.41396 9.85502C4.76162 9.77348 4.15561 9.65582 3.72823 9.49555C3.51246 9.41464 3.38601 9.33864 3.32386 9.28426C3.32194 9.28258 3.32015 9.28099 3.31848 9.27948Z" fill="#448ADD" stroke="#448ADD" stroke-width="1.3"/>
</svg>
