<svg width="30" height="24" viewBox="0 0 30 24" fill="none" xmlns="http://www.w3.org/2000/svg">
<path d="M9.86688 16.5C9.75734 16.5 9.6478 16.5164 9.5433 16.5511C8.9493 16.7484 8.32459 16.875 7.66688 16.875C7.00918 16.875 6.38447 16.7484 5.79001 16.5511C5.68551 16.5164 5.57643 16.5 5.46689 16.5C2.62248 16.5 0.318445 18.8662 0.33357 21.7791C0.339987 23.01 1.32953 24 2.53356 24H12.8002C14.0042 24 14.9938 23.01 15.0002 21.7791C15.0153 18.8662 12.7113 16.5 9.86688 16.5ZM7.66688 15C10.097 15 12.0669 12.9853 12.0669 10.5C12.0669 8.01469 10.097 6 7.66688 6C5.23681 6 3.2669 8.01469 3.2669 10.5C3.2669 12.9853 5.23681 15 7.66688 15ZM27.4668 0H9.86688C8.65367 0 7.66688 1.04297 7.66688 2.32453V4.5C8.7403 4.5 9.73396 4.81781 10.6002 5.33437V3H26.7335V16.5H23.8002V13.5H17.9335V16.5H14.4392C15.3146 17.2823 15.9572 18.3155 16.2583 19.5H27.4668C28.68 19.5 29.6668 18.457 29.6668 17.1755V2.32453C29.6668 1.04297 28.68 0 27.4668 0Z" fill="url(#paint0_linear_13658_103981)"/>
<defs>
<linearGradient id="paint0_linear_13658_103981" x1="20.7169" y1="-4.75949" x2="12.2782" y2="23.6649" gradientUnits="userSpaceOnUse">
<stop stop-color="#7CBEFA"/>
<stop offset="1" stop-color="#626EDA"/>
</linearGradient>
</defs>
</svg>
