<svg width="13" height="12" viewBox="0 0 13 12" fill="none" xmlns="http://www.w3.org/2000/svg">
<path fill-rule="evenodd" clip-rule="evenodd" d="M7.11733 0.440086C7.34248 0.214953 7.63332 0.0671552 7.9479 0.0180099C8.26248 -0.0311354 8.58454 0.0209123 8.86763 0.166646C9.15072 0.312379 9.38019 0.544266 9.52297 0.828857C9.66574 1.11345 9.71443 1.43603 9.662 1.75009L9.28667 4.00209C10.1494 4.03316 10.9665 4.39775 11.5658 5.01911C12.1651 5.64046 12.5 6.47011 12.5 7.33342V8.66675C12.5 9.55081 12.1488 10.3987 11.5237 11.0238C10.8986 11.6489 10.0507 12.0001 9.16667 12.0001H3.83333V3.72409L7.11733 0.440086ZM2.5 4.00009C1.96957 4.00009 1.46086 4.2108 1.08579 4.58587C0.710714 4.96094 0.5 5.46965 0.5 6.00009V10.0001C0.5 10.5305 0.710714 11.0392 1.08579 11.4143C1.46086 11.7894 1.96957 12.0001 2.5 12.0001V4.00009Z" fill="#727F88"/>
</svg>
