 <svg version="1.0" xmlns="http://www.w3.org/2000/svg"
 width="40px" height="13px" viewBox="0 0 157.000000 68.000000"
 preserveAspectRatio="xMidYMid meet">

<g transform="translate(0.000000,68.000000) scale(0.100000,-0.100000)"
fill="#606c74" stroke="none">
<path d="M272 650 c-149 -31 -255 -162 -255 -316 0 -178 139 -317 318 -317
127 0 230 64 286 179 58 118 39 255 -50 357 -64 73 -200 117 -299 97z m86
-162 c7 -7 12 -39 12 -72 0 -58 1 -60 55 -117 30 -32 55 -62 55 -68 0 -13 -29
-41 -42 -41 -6 0 -40 29 -75 63 l-63 64 0 79 c0 77 9 104 35 104 6 0 16 -5 23
-12z"/>
<path d="M1132 650 c-149 -31 -255 -162 -255 -316 0 -178 139 -317 318 -317
127 0 230 64 286 179 58 118 39 255 -50 357 -64 73 -200 117 -299 97z m98
-145 c17 -21 -1 -223 -21 -236 -34 -21 -44 2 -53 129 -8 101 -1 122 39 122 12
0 28 -7 35 -15z m-6 -297 c20 -28 4 -58 -29 -58 -33 0 -49 30 -29 58 8 12 21
22 29 22 8 0 21 -10 29 -22z"/>
</g>
</svg>
