<svg width="14" height="16" viewBox="0 0 14 16" fill="none" xmlns="http://www.w3.org/2000/svg">
<path fill-rule="evenodd" clip-rule="evenodd" d="M5.66665 1.99996C5.48984 1.99996 5.32027 2.0702 5.19524 2.19522C5.07022 2.32025 4.99998 2.48982 4.99998 2.66663V3.33329H8.99998V2.66663C8.99998 2.48982 8.92974 2.32025 8.80472 2.19522C8.67969 2.0702 8.51012 1.99996 8.33331 1.99996H5.66665ZM10.3333 3.33329V2.66663C10.3333 2.13619 10.1226 1.62748 9.74753 1.25241C9.37245 0.87734 8.86375 0.666626 8.33331 0.666626H5.66665C5.13621 0.666626 4.62751 0.87734 4.25243 1.25241C3.87736 1.62748 3.66665 2.13619 3.66665 2.66663V3.33329H0.99998C0.63179 3.33329 0.333313 3.63177 0.333313 3.99996C0.333313 4.36815 0.63179 4.66663 0.99998 4.66663H1.66665V13.3333C1.66665 13.8637 1.87736 14.3724 2.25243 14.7475C2.62751 15.1226 3.13621 15.3333 3.66665 15.3333H10.3333C10.8637 15.3333 11.3725 15.1226 11.7475 14.7475C12.1226 14.3724 12.3333 13.8637 12.3333 13.3333V4.66663H13C13.3682 4.66663 13.6666 4.36815 13.6666 3.99996C13.6666 3.63177 13.3682 3.33329 13 3.33329H10.3333ZM2.99998 4.66663V13.3333C2.99998 13.5101 3.07022 13.6797 3.19524 13.8047C3.32027 13.9297 3.48984 14 3.66665 14H10.3333C10.5101 14 10.6797 13.9297 10.8047 13.8047C10.9297 13.6797 11 13.5101 11 13.3333V4.66663H2.99998Z" fill="#448ADD"/>
<path d="M6.33331 7.33329C6.33331 6.9651 6.03484 6.66663 5.66665 6.66663C5.29846 6.66663 4.99998 6.9651 4.99998 7.33329V11.3333C4.99998 11.7015 5.29846 12 5.66665 12C6.03484 12 6.33331 11.7015 6.33331 11.3333V7.33329Z" fill="#448ADD"/>
<path d="M8.33331 6.66663C7.96512 6.66663 7.66665 6.9651 7.66665 7.33329V11.3333C7.66665 11.7015 7.96512 12 8.33331 12C8.7015 12 8.99998 11.7015 8.99998 11.3333V7.33329C8.99998 6.9651 8.7015 6.66663 8.33331 6.66663Z" fill="#448ADD"/>
</svg>
