<svg width="18" height="14" viewBox="0 0 18 14" fill="none" xmlns="http://www.w3.org/2000/svg">
<path d="M7.83404 0.92911C8.19868 0.756359 8.59714 0.666748 9.00064 0.666748C9.40414 0.666748 9.8026 0.756359 10.1672 0.92911L16.9363 4.13588C17.0542 4.19169 17.154 4.27959 17.2243 4.38951C17.2946 4.49942 17.3325 4.62691 17.3336 4.75736C17.3348 4.88782 17.2992 5.01596 17.2309 5.12711C17.1626 5.23826 17.0643 5.32791 16.9474 5.38581L10.2117 8.7273C9.83529 8.91404 9.42081 9.01121 9.00064 9.01121C8.58047 9.01121 8.16599 8.91404 7.7896 8.7273L2.05658 5.88301V8.9995C2.05658 9.18367 1.98341 9.3603 1.85319 9.49052C1.72296 9.62075 1.54634 9.69391 1.36217 9.69391C1.178 9.69391 1.00138 9.62075 0.871149 9.49052C0.740923 9.3603 0.667762 9.18367 0.667762 8.9995V4.83306V4.79834C0.661306 4.66107 0.695565 4.52494 0.766235 4.40708C0.836906 4.28921 0.940834 4.19486 1.06496 4.13588L7.83404 0.927721V0.92911ZM3.44539 8.12316V10.3883C3.44541 10.4797 3.46345 10.5701 3.49848 10.6545C3.53352 10.7388 3.58485 10.8155 3.64954 10.88L3.65232 10.8841L3.68426 10.9133L3.76759 10.9911C4.20283 11.379 4.67337 11.7254 5.17307 12.0257C6.1008 12.5826 7.441 13.1659 9.00064 13.1659C10.5603 13.1659 11.9005 12.5826 12.8296 12.0257C13.3293 11.7254 13.7998 11.379 14.2351 10.9911L14.3184 10.9133L14.3406 10.8911L14.349 10.8827L14.3503 10.8813L14.3531 10.88C14.4176 10.8154 14.4686 10.7387 14.5034 10.6543C14.5382 10.57 14.5561 10.4796 14.5559 10.3883V8.12177L10.8283 9.97167C10.2602 10.2534 9.63474 10.4 9.00064 10.4C8.36655 10.4 7.74104 10.2534 7.17296 9.97167L3.44539 8.12177V8.12316Z" fill="#99A5AE"/>
</svg>
