<svg width="24" height="24" viewBox="0 0 24 24" fill="none" xmlns="http://www.w3.org/2000/svg">
<path d="M9.97902 2H13.3273C13.8567 2.00002 14.3676 2.19784 14.7622 2.55566C15.1568 2.91348 15.4075 3.40619 15.4663 3.93958H17.1538C17.4365 3.93958 17.7164 3.99602 17.9775 4.10568C18.2387 4.21534 18.476 4.37606 18.6758 4.57868C18.8757 4.7813 19.0343 5.02185 19.1424 5.28659C19.2506 5.55132 19.3063 5.83506 19.3063 6.12161V11.2111C17.9872 10.6533 16.5189 10.5731 15.1483 10.9841C13.7778 11.3951 12.5888 12.2722 11.7814 13.4678C10.974 14.6633 10.5975 16.1043 10.7152 17.5483C10.833 18.9922 11.4379 20.351 12.428 21.3958H6.15245C5.58158 21.3958 5.0341 21.1659 4.63044 20.7567C4.22678 20.3475 4 19.7925 4 19.2138V6.12161C4 5.5429 4.22678 4.98789 4.63044 4.57868C5.0341 4.16947 5.58158 3.93958 6.15245 3.93958H7.83996C7.89879 3.40619 8.14948 2.91348 8.54409 2.55566C8.93871 2.19784 9.44957 2.00002 9.97902 2ZM13.3273 3.45469H9.97902C9.78873 3.45469 9.60623 3.53132 9.47168 3.66772C9.33713 3.80412 9.26153 3.98913 9.26153 4.18203C9.26153 4.37493 9.33713 4.55994 9.47168 4.69634C9.60623 4.83274 9.78873 4.90937 9.97902 4.90937H13.3273C13.5176 4.90937 13.7 4.83274 13.8346 4.69634C13.9692 4.55994 14.0447 4.37493 14.0447 4.18203C14.0447 3.98913 13.9692 3.80412 13.8346 3.66772C13.7 3.53132 13.5176 3.45469 13.3273 3.45469ZM13.8324 13.6142C13.9038 13.8649 13.9245 14.1277 13.8933 14.3868C13.8622 14.6458 13.7798 14.8958 13.6511 15.1218C13.5224 15.3478 13.35 15.5452 13.1443 15.7021C12.9386 15.8589 12.7037 15.9721 12.4539 16.0348L11.8952 16.1745C11.8056 16.7552 11.8076 17.3467 11.9009 17.9269L12.4175 18.0529C12.6697 18.1145 12.9068 18.2274 13.1146 18.3848C13.3224 18.5422 13.4964 18.7407 13.6262 18.9684C13.7559 19.1961 13.8386 19.4481 13.8693 19.7092C13.9 19.9703 13.878 20.2349 13.8046 20.4871L13.6257 21.1C14.0467 21.4744 14.525 21.7779 15.0454 21.9942L15.518 21.4899C15.6968 21.2994 15.9119 21.1477 16.1503 21.0441C16.3887 20.9405 16.6454 20.8871 16.9048 20.8872C17.1642 20.8873 17.4209 20.9408 17.6592 21.0446C17.8976 21.1484 18.1126 21.3002 18.2913 21.4909L18.7677 22C19.2857 21.7865 19.7651 21.4873 20.1864 21.1146L19.997 20.4493C19.9256 20.1986 19.9049 19.9358 19.936 19.6768C19.9672 19.4177 20.0495 19.1677 20.1783 18.9417C20.307 18.7157 20.4793 18.5184 20.6851 18.3615C20.8908 18.2046 21.1256 18.0914 21.3755 18.0287L21.9342 17.8891C22.0238 17.308 22.0219 16.7161 21.9284 16.1357L21.4119 16.0096C21.1597 15.948 20.9225 15.8351 20.7148 15.6778C20.507 15.5204 20.3329 15.3218 20.2032 15.0942C20.0735 14.8665 19.9907 14.6145 19.96 14.3534C19.9294 14.0923 19.9514 13.8276 20.0247 13.5754L20.2036 12.9645C19.7827 12.5886 19.3029 12.2864 18.784 12.0703L18.3123 12.5727C18.1336 12.7634 17.9184 12.9153 17.68 13.0191C17.4415 13.1228 17.1847 13.1764 16.9252 13.1764C16.6657 13.1764 16.4089 13.1228 16.1704 13.0191C15.932 12.9153 15.7168 12.7634 15.5381 12.5727L15.0617 12.0635C14.5412 12.2769 14.0629 12.5775 13.643 12.948L13.8324 13.6142ZM16.9147 18.4864C16.1494 18.4864 15.5275 17.8347 15.5275 17.0318C15.5275 16.2288 16.1494 15.5771 16.9147 15.5771C17.68 15.5771 18.3018 16.2288 18.3018 17.0318C18.3018 17.8347 17.68 18.4864 16.9147 18.4864Z" fill="#7F9EBB"/>
</svg>
