<svg width="13" height="13" viewBox="0 0 13 13" fill="none" xmlns="http://www.w3.org/2000/svg">
<path d="M6.5 1.5C5.17392 1.5 3.90215 2.02678 2.96447 2.96447C2.02678 3.90215 1.5 5.17392 1.5 6.5C1.5 7.82608 2.02678 9.09785 2.96447 10.0355C3.90215 10.9732 5.17392 11.5 6.5 11.5C7.82608 11.5 9.09785 10.9732 10.0355 10.0355C10.9732 9.09785 11.5 7.82608 11.5 6.5C11.5 5.17392 10.9732 3.90215 10.0355 2.96447C9.09785 2.02678 7.82608 1.5 6.5 1.5ZM0.25 6.5C0.25 3.04813 3.04813 0.25 6.5 0.25C9.95187 0.25 12.75 3.04813 12.75 6.5C12.75 9.95187 9.95187 12.75 6.5 12.75C3.04813 12.75 0.25 9.95187 0.25 6.5Z" fill="#5F6B73"/>
<path d="M6.5 2.75C6.66576 2.75 6.82473 2.81585 6.94194 2.93306C7.05915 3.05027 7.125 3.20924 7.125 3.375V5.7275C7.12506 5.84354 7.15743 5.95727 7.21847 6.05595C7.27951 6.15464 7.36682 6.23438 7.47063 6.28625L9.27938 7.19125C9.35536 7.22635 9.42352 7.27636 9.47981 7.3383C9.53611 7.40025 9.57938 7.47287 9.60708 7.55186C9.63477 7.63084 9.64631 7.71459 9.64103 7.79812C9.63574 7.88166 9.61372 7.96328 9.57629 8.03815C9.53886 8.11301 9.48677 8.17959 9.42312 8.23395C9.35946 8.2883 9.28554 8.32931 9.20573 8.35455C9.12593 8.37979 9.04186 8.38874 8.95853 8.38087C8.8752 8.373 8.7943 8.34848 8.72062 8.30875L6.91125 7.40437C6.59987 7.24863 6.338 7.00927 6.15498 6.7131C5.97196 6.41693 5.87501 6.07566 5.875 5.7275V3.375C5.875 3.20924 5.94085 3.05027 6.05806 2.93306C6.17527 2.81585 6.33424 2.75 6.5 2.75Z" fill="#5F6B73"/>
</svg>
