<svg width="13" height="14" viewBox="0 0 13 14" fill="none" xmlns="http://www.w3.org/2000/svg">
<path fill-rule="evenodd" clip-rule="evenodd" d="M7.15592 1.09259C7.39514 0.853388 7.70415 0.696352 8.03839 0.644135C8.37264 0.591919 8.71483 0.647219 9.01561 0.802061C9.31639 0.956903 9.56021 1.20328 9.7119 1.50566C9.8636 1.80804 9.91533 2.15079 9.85962 2.48447L9.46083 4.87722C10.3775 4.91024 11.2456 5.29761 11.8824 5.9578C12.5192 6.61799 12.875 7.4995 12.875 8.41676V9.83342C12.875 10.7727 12.5019 11.6736 11.8377 12.3378C11.1735 13.002 10.2726 13.3751 9.33333 13.3751H3.66667V4.58184L7.15592 1.09259ZM2.25 4.87509C1.68641 4.87509 1.14591 5.09897 0.747398 5.49749C0.348883 5.896 0.125 6.43651 0.125 7.00009V11.2501C0.125 11.8137 0.348883 12.3542 0.747398 12.7527C1.14591 13.1512 1.68641 13.3751 2.25 13.3751V4.87509Z" fill="#FF8C67"/>
</svg>
