<svg width="18" height="21" viewBox="0 0 18 21" fill="none" xmlns="http://www.w3.org/2000/svg">
<path fill-rule="evenodd" clip-rule="evenodd" d="M17.4679 5.46983L12.7504 0.469828C12.6511 0.366236 12.5298 0.283358 12.3944 0.226524C12.259 0.16969 12.1124 0.140158 11.9641 0.139828H3.46414C3.11112 0.135865 2.76074 0.197388 2.43298 0.320885C2.10523 0.444381 1.80654 0.627431 1.55396 0.859582C1.30138 1.09173 1.09986 1.36844 0.96091 1.67389C0.82196 1.97935 0.748302 2.30758 0.744141 2.63983V17.6398C0.748302 17.9721 0.82196 18.3003 0.96091 18.6058C1.09986 18.9112 1.30138 19.1879 1.55396 19.4201C1.80654 19.6522 2.10523 19.8353 2.43298 19.9588C2.76074 20.0823 3.11112 20.1438 3.46414 20.1398H15.0241C15.3772 20.1438 15.7275 20.0823 16.0553 19.9588C16.383 19.8353 16.6817 19.6522 16.9343 19.4201C17.1869 19.1879 17.3884 18.9112 17.5274 18.6058C17.6663 18.3003 17.74 17.9721 17.7441 17.6398V6.13983C17.7435 5.89199 17.645 5.65323 17.4679 5.46983ZM11.5616 5.86008C11.7027 6.01906 11.9045 6.11953 12.1235 6.13983H14.3434H15.3429L11.3691 2.13983V4.44492V5.28983C11.3514 5.4963 11.4205 5.70109 11.5616 5.86008ZM10.8905 7.75665C10.8905 7.27152 10.6757 6.84732 9.9445 6.84732C8.98283 6.84732 8.57738 7.51369 8.57738 7.99882C8.56069 8.47178 8.78018 8.79081 9.24276 8.88965H9.91092C10.5343 8.76183 10.8905 8.2759 10.8905 7.75665ZM8.07116 16.1312C7.57118 16.1312 7.20636 15.8273 7.55556 14.4954L7.70233 13.8896L8.00522 12.6396L8.12818 12.1322C8.2274 11.7541 8.2438 11.6025 8.12818 11.6025C7.97897 11.6025 7.32979 11.8635 6.94699 12.1213L6.69779 11.7127C7.73638 10.8451 8.90803 10.2841 9.59953 10.1396H10.0998C10.4241 10.2821 10.4533 10.8262 10.2406 11.6025L9.96662 12.6396L9.63643 13.8896L9.58436 14.0868C9.46796 14.5258 9.51795 14.6774 9.63435 14.6774C9.78435 14.6774 10.2749 14.4961 10.7577 14.1157L11.0405 14.4954C9.85856 15.6765 8.57035 16.1312 8.07116 16.1312Z" fill="#448ADD"/>
</svg>
