<svg width="24" height="24" viewBox="0 0 24 24" fill="none" xmlns="http://www.w3.org/2000/svg">
<path d="M11.4875 17.1916V16.6916H10.9875H3.11255C2.17167 16.6916 1.36255 15.8777 1.36255 14.8232V2.98109C1.36255 1.92657 2.17167 1.11267 3.11255 1.11267H21.1125C22.0534 1.11267 22.8625 1.92657 22.8625 2.98109V14.8232C22.8625 15.8777 22.0534 16.6916 21.1125 16.6916H13.2375H12.7375V17.1916V20.7442V21.2442H13.2375H16.1125V22.6127H8.11255V21.2442H10.9875H11.4875V20.7442V17.1916ZM9.36255 12.4548V13.3619L10.1295 12.8775L15.7545 9.32489L16.4239 8.90214L15.7545 8.4794L10.1295 4.92677L9.36255 4.44235V5.34951V12.4548Z" fill="#5F6B73" stroke="#5F6B73"/>
</svg>
