<svg width="28" height="25" viewBox="0 0 28 25" fill="none" xmlns="http://www.w3.org/2000/svg">
<path d="M14 15.1667C16.525 15.1667 18.5714 13.0776 18.5714 10.5C18.5714 7.9224 16.525 5.83333 14 5.83333C11.475 5.83333 9.42853 7.9224 9.42853 10.5C9.42853 13.0776 11.475 15.1667 14 15.1667ZM9.71424 21.2917C9.71424 21.7766 10.0964 22.1667 10.5714 22.1667C10.9725 22.1667 11.3074 21.8885 11.4019 21.5099C11.4193 21.4402 11.4285 21.3671 11.4285 21.2917C11.4285 20.8068 11.0464 20.4167 10.5714 20.4167C10.2132 20.4167 9.90773 20.6386 9.77922 20.9557C9.73734 21.059 9.71424 21.1725 9.71424 21.2917ZM17.4285 16.3552V18.1417C17.5398 18.1647 17.6488 18.1944 17.755 18.2303C18.66 18.5362 19.3649 19.2935 19.6155 20.2384C19.6799 20.4814 19.7142 20.7367 19.7142 21V22.5203C19.7142 22.7974 19.5214 23.038 19.2535 23.0927L18.1035 23.326C17.95 23.3589 17.8 23.2568 17.7678 23.0964L17.6571 22.524C17.625 22.3672 17.725 22.2104 17.8821 22.1812L18.5714 22.0391V21C18.5714 20.9354 18.5687 20.8726 18.5634 20.8115C18.3807 18.7077 15.1428 18.6955 15.1428 21.0693V21.7729V22.0427L15.8321 22.1849C15.9857 22.2177 16.0857 22.3708 16.0571 22.5276L15.9464 23.1C15.9142 23.2568 15.7642 23.3589 15.6107 23.3297L14.4964 23.1766C14.2142 23.1365 14.0035 22.8922 14.0035 22.5969V21.8333V21C14.0035 20.2935 14.2511 19.6449 14.6625 19.1395C15.0707 18.6382 15.6401 18.2778 16.2892 18.1417V16.4938C16.2107 16.5193 16.1321 16.5339 16.0535 16.563C15.4107 16.7927 14.7214 16.9203 14.0035 16.9203C13.2857 16.9203 12.5964 16.7927 11.9535 16.563C11.6892 16.4682 11.4214 16.4099 11.1464 16.3734V18.6384V19.3484C11.9714 19.6 12.575 20.3729 12.575 21.2953C12.575 21.4448 12.5592 21.5906 12.5292 21.731C12.3334 22.6486 11.5321 23.337 10.575 23.337C9.47139 23.337 8.57496 22.4219 8.57496 21.2953C8.57496 20.9909 8.64069 20.7028 8.75841 20.4444C8.99743 19.9196 9.45078 19.517 10.0035 19.3484V18.4964V16.4172C7.7321 16.8073 5.99996 18.8052 5.99996 21.2333V22.8667C5.99996 23.7672 6.71782 24.5 7.59996 24.5H20.4C21.2821 24.5 22 23.7672 22 22.8667V21.2333C22 20.369 21.78 19.5588 21.3942 18.8562C20.9559 18.0581 20.3035 17.3989 19.5162 16.9571C18.8919 16.6067 18.1829 16.3931 17.4285 16.3552Z" fill="#FF8C67"/>
<path fill-rule="evenodd" clip-rule="evenodd" d="M19.3333 11.1667L23.3333 5.83333L27.3333 11.1667H24.6666C24.6666 13.9217 23.6235 16.4319 21.9104 18.3242C21.4695 17.5258 20.8141 16.8672 20.0238 16.4272C21.254 15.0202 22 13.1794 22 11.1667H19.3333ZM14 3.16667C9.58663 3.16667 5.99996 6.75333 5.99996 11.1667H8.75841L4.66663 16.5L0.666626 11.1667H3.33329C3.33329 5.27333 8.10663 0.5 14 0.5C16.012 0.499441 17.9825 1.073 19.68 2.15333L17.7333 4.1C16.6266 3.5 15.3466 3.16667 14 3.16667Z" fill="#FF8C67"/>
</svg>
