<svg width="40" height="40" viewBox="0 0 40 40" fill="none" xmlns="http://www.w3.org/2000/svg">
<path d="M17.5833 4.22143C18.2596 3.65146 19.1156 3.33887 20 3.33887C20.8844 3.33887 21.7404 3.65146 22.4167 4.22143L33.6667 13.7131C34.5133 14.4248 35 15.4731 35 16.5798V32.9164C35 33.69 34.6927 34.4318 34.1457 34.9788C33.5987 35.5258 32.8569 35.8331 32.0833 35.8331H27.0833C26.3098 35.8331 25.5679 35.5258 25.0209 34.9788C24.474 34.4318 24.1667 33.69 24.1667 32.9164V24.5831C24.1667 24.2516 24.035 23.9336 23.8005 23.6992C23.5661 23.4648 23.2482 23.3331 22.9167 23.3331H17.0833C16.7518 23.3331 16.4339 23.4648 16.1995 23.6992C15.965 23.9336 15.8333 24.2516 15.8333 24.5831V32.9164C15.8333 33.69 15.526 34.4318 14.9791 34.9788C14.4321 35.5258 13.6902 35.8331 12.9167 35.8331H7.91667C7.53364 35.8331 7.15437 35.7576 6.80051 35.6111C6.44664 35.4645 6.12511 35.2497 5.85427 34.9788C5.58343 34.708 5.36859 34.3864 5.22202 34.0326C5.07544 33.6787 5 33.2994 5 32.9164V16.5781C5 15.4731 5.48667 14.4248 6.33333 13.7114L17.5833 4.22143Z" fill="#59A5FF"/>
</svg>
