<svg width="18" height="18" viewBox="0 0 18 18" fill="none" xmlns="http://www.w3.org/2000/svg">
<path d="M8.99166 0.666504C4.39166 0.666504 0.666656 4.39984 0.666656 8.99984C0.666656 13.5998 4.39166 17.3332 8.99166 17.3332C13.6 17.3332 17.3333 13.5998 17.3333 8.99984C17.3333 4.39984 13.6 0.666504 8.99166 0.666504ZM12.3333 12.3332C12.2562 12.4104 12.1647 12.4717 12.0638 12.5135C11.963 12.5553 11.855 12.5769 11.7458 12.5769C11.6367 12.5769 11.5286 12.5553 11.4278 12.5135C11.327 12.4717 11.2354 12.4104 11.1583 12.3332L8.41666 9.5915C8.33792 9.51433 8.27527 9.42229 8.23236 9.32073C8.18945 9.21916 8.16711 9.11009 8.16666 8.99984V5.6665C8.16666 5.20817 8.54166 4.83317 8.99999 4.83317C9.45832 4.83317 9.83332 5.20817 9.83332 5.6665V8.65817L12.3333 11.1582C12.6583 11.4832 12.6583 12.0082 12.3333 12.3332Z" fill="#348AAE"/>
</svg>
