<svg width="20" height="22" viewBox="0 0 20 22" fill="none" xmlns="http://www.w3.org/2000/svg">
<path d="M2.41667 21.8334H17.5833C18.7783 21.8334 19.75 20.8617 19.75 19.6667V4.50008C19.75 3.30516 18.7783 2.33341 17.5833 2.33341H15.4167V0.166748H13.25V2.33341H6.75V0.166748H4.58333V2.33341H2.41667C1.22175 2.33341 0.25 3.30516 0.25 4.50008V19.6667C0.25 20.8617 1.22175 21.8334 2.41667 21.8334ZM7.61558 19.6527H5.66667V17.7037L11.0584 12.3196L13.0073 14.2685L7.61558 19.6527ZM13.9249 13.3509L11.976 11.402L13.4623 9.91675L15.4113 11.8657L13.9249 13.3509ZM2.41667 5.58342H17.5833V7.75008H2.41667V5.58342Z" fill="#5F6B73"/>
</svg>
