<svg width="77" height="75" viewBox="0 0 77 75" fill="none" xmlns="http://www.w3.org/2000/svg">
<path opacity="0.8" fill-rule="evenodd" clip-rule="evenodd" d="M0.333008 41.9999C0.333008 18.9874 18.9872 0.333252 41.9997 0.333252C65.0122 0.333252 83.6664 18.9874 83.6664 41.9999C83.6664 65.0124 65.0122 83.6666 41.9997 83.6666C18.9872 83.6666 0.333008 65.0124 0.333008 41.9999ZM34.5288 28.6374C33.743 27.8784 32.6905 27.4585 31.598 27.4679C30.5055 27.4774 29.4605 27.9156 28.6879 28.6882C27.9154 29.4607 27.4772 30.5058 27.4677 31.5983C27.4582 32.6907 27.8782 33.7432 28.6372 34.5291L36.108 41.9999L28.6372 49.4708C28.2392 49.8551 27.9218 50.3149 27.7034 50.8232C27.485 51.3316 27.3701 51.8783 27.3653 52.4316C27.3605 52.9848 27.4659 53.5335 27.6754 54.0456C27.8849 54.5576 28.1943 55.0228 28.5855 55.4141C28.9768 55.8053 29.442 56.1147 29.954 56.3242C30.4661 56.5337 31.0148 56.6391 31.568 56.6343C32.1213 56.6295 32.668 56.5146 33.1764 56.2962C33.6847 56.0778 34.1445 55.7604 34.5288 55.3624L41.9997 47.8916L49.4705 55.3624C50.2564 56.1214 51.3089 56.5414 52.4013 56.5319C53.4938 56.5224 54.5389 56.0842 55.3114 55.3117C56.084 54.5391 56.5222 53.4941 56.5317 52.4016C56.5411 51.3091 56.1212 50.2566 55.3622 49.4708L47.8913 41.9999L55.3622 34.5291C56.1212 33.7432 56.5411 32.6907 56.5317 31.5983C56.5222 30.5058 56.084 29.4607 55.3114 28.6882C54.5389 27.9156 53.4938 27.4774 52.4013 27.4679C51.3089 27.4585 50.2564 27.8784 49.4705 28.6374L41.9997 36.1083L34.5288 28.6374Z" fill="white"/>
</svg>
