<svg width="16" height="17" viewBox="0 0 16 17" fill="none" xmlns="http://www.w3.org/2000/svg">
<path d="M6.55141 13.4778L6.99629 14.9755M6.55141 13.4778L9.01603 14.9755C8.99899 15.0307 8.96477 15.079 8.91836 15.1133C8.87195 15.1477 8.81577 15.1664 8.758 15.1666M6.55141 13.4778C6.19641 13.3753 5.85339 13.2353 5.5282 13.06L6.55141 13.4778ZM6.99629 14.9755C7.01334 15.0307 7.04755 15.079 7.09396 15.1133C7.14037 15.1477 7.19655 15.1664 7.25432 15.1666M6.99629 14.9755L7.25235 14.8995L7.25235 14.8995L7.25432 14.8989V15.1666M6.99629 14.9755L7.25432 14.8958L7.25556 14.8985L7.25432 15.1666M7.25432 15.1666H8.758M8.758 15.1666V14.8991V14.8958V14.4166H8.39935M8.758 15.1666L8.75676 14.8988L8.2969 14.7626L8.39935 14.4166M8.39935 14.4166H7.61267L7.27037 13.2642L7.15354 12.8709L6.75931 12.7572C6.45564 12.6695 6.16223 12.5497 5.88408 12.3998L5.53005 12.209L5.17519 12.3983L4.11371 12.9645L3.54795 12.3993L4.11527 11.3141L4.30439 10.9524L4.10329 10.5972C3.9446 10.3169 3.8171 10.0201 3.72305 9.71208L3.6058 9.32811L3.22126 9.21275L2.08301 8.87126V8.0837L3.21356 7.74248L3.60067 7.62564L3.7158 7.23801C3.80885 6.92477 3.93639 6.62278 4.0961 6.3376L4.29774 5.97754L4.10151 5.61451L3.5538 4.60122L4.12625 4.04346L5.14986 4.59567L5.51188 4.79096L5.87115 4.59067C6.15789 4.43082 6.46156 4.30335 6.77656 4.21062L7.16495 4.09629L7.28247 3.70885L7.62385 2.58338H8.42199L8.76081 3.7038L8.8776 4.09001L9.26423 4.20539C9.57658 4.2986 9.87763 4.42604 10.1619 4.58538L10.5199 4.78603L10.8818 4.59276L11.9247 4.03597L12.489 4.60206L11.927 5.65304L11.7368 6.0087L11.9287 6.36347C12.0808 6.64474 12.202 6.94162 12.2901 7.24894L12.4032 7.64363L12.7967 7.76097L13.916 8.09475V8.90559L12.7623 9.2476L12.3714 9.36349L12.2561 9.75457C12.167 10.0566 12.0459 10.3483 11.8948 10.6246L11.6999 10.9809L11.8918 11.3388L12.4617 12.402L11.8986 12.9646L10.8281 12.3938L10.4723 12.204L10.1177 12.3962C9.8421 12.5457 9.55135 12.6654 9.25036 12.7535L8.85789 12.8683L8.74178 13.2604L8.39935 14.4166ZM8.75674 14.8951L8.75675 14.8954L8.29949 14.754C8.32963 14.6565 8.39011 14.5713 8.47197 14.5106C8.55382 14.45 8.65281 14.4171 8.75452 14.4167L8.75674 14.8951V14.8951ZM7.25558 14.8954L7.25558 14.8951V14.8951L7.2578 14.4167C7.35951 14.4171 7.4585 14.45 7.54036 14.5106C7.62222 14.5713 7.68269 14.6565 7.71284 14.754L7.25558 14.8954ZM1.38638 7.56648L1.60206 7.72654L1.38638 7.56648ZM11.6726 3.78301L11.6746 3.78508C11.6739 3.78439 11.6732 3.7837 11.6726 3.78301ZM6.24373 11.1563C6.76942 11.5072 7.3874 11.6944 8.01951 11.6944C8.86712 11.6944 9.68017 11.3581 10.2797 10.7591C10.8793 10.1601 11.2163 9.34747 11.2163 8.50001C11.2163 7.86805 11.0287 7.25034 10.6774 6.725C10.326 6.19967 9.8267 5.79033 9.24264 5.54864C8.65859 5.30696 8.01595 5.24373 7.39598 5.36694C6.77599 5.49014 6.2064 5.79426 5.75927 6.24095C5.31213 6.68765 5.00754 7.25687 4.88414 7.87667C4.76073 8.49648 4.82407 9.13891 5.06613 9.72271C5.30818 10.3065 5.71803 10.8054 6.24373 11.1563Z" fill="#448ADD" stroke="#448ADD" stroke-width="1.5"/>
</svg>
