<svg width="19" height="17" viewBox="0 0 19 17" fill="none" xmlns="http://www.w3.org/2000/svg">
<rect x="0.5" y="1.5" width="15" height="15" rx="3.5" fill="white" stroke="#1AAD6F"/>
<path d="M18.111 3.10083C18.1649 3.04159 18.1627 2.95049 18.1061 2.89387L16.1061 0.893903C16.0768 0.864691 16.0369 0.84882 15.9956 0.850035C15.9543 0.85125 15.9153 0.869443 15.8879 0.900322L7.99448 9.78141L5.106 6.89387C5.04742 6.83531 4.95246 6.83532 4.89389 6.89389L2.89392 8.8939C2.86579 8.92203 2.84999 8.96019 2.84999 8.99997C2.84999 9.03976 2.8658 9.07791 2.89393 9.10604L7.89487 14.106C7.92388 14.135 7.9635 14.1509 8.00451 14.1499C8.04552 14.1489 8.08433 14.1312 8.11192 14.1008L18.111 3.10083Z" fill="#1AAD6F" stroke="#1AAD6F" stroke-width="0.3" stroke-linejoin="round"/>
</svg>
