<svg width="24" height="24" viewBox="0 0 24 24" fill="none" xmlns="http://www.w3.org/2000/svg">
<path d="M8.15004 15.375C8.06788 15.375 7.98573 15.3873 7.90735 15.4133C7.46185 15.5613 6.99332 15.6562 6.50004 15.6562C6.00676 15.6562 5.53823 15.5613 5.09239 15.4133C5.01401 15.3873 4.9322 15.375 4.85005 15.375C2.71674 15.375 0.988712 17.1497 1.00006 19.3343C1.00487 20.2575 1.74702 21 2.65005 21H10.35C11.2531 21 11.9952 20.2575 12 19.3343C12.0114 17.1497 10.2833 15.375 8.15004 15.375ZM6.50004 14.25C8.3226 14.25 9.80003 12.739 9.80003 10.875C9.80003 9.01101 8.3226 7.5 6.50004 7.5C4.67748 7.5 3.20005 9.01101 3.20005 10.875C3.20005 12.739 4.67748 14.25 6.50004 14.25ZM21.35 3H8.15004C7.24013 3 6.50004 3.78223 6.50004 4.7434V6.375C7.3051 6.375 8.05035 6.61336 8.70004 7.00078V5.25H20.8V15.375H18.6V13.125H14.2V15.375H11.5793C12.2358 15.9618 12.7178 16.7366 12.9436 17.625H21.35C22.2599 17.625 23 16.8428 23 15.8816V4.7434C23 3.78223 22.2599 3 21.35 3Z" fill="#7F9EBB"/>
</svg>
