<svg width="12" height="14" viewBox="0 0 12 14" fill="none" xmlns="http://www.w3.org/2000/svg">
<path d="M11.5558 2.55558C11.5558 2.66058 11.5462 2.76333 11.5276 2.86294C11.3834 3.6366 10.7046 4.22225 9.88909 4.22225C8.96861 4.22225 8.22242 3.47606 8.22242 2.55558C8.22242 2.36067 8.25567 2.17371 8.31683 2.00003C8.54559 1.35263 9.16336 0.888916 9.88909 0.888916C10.8096 0.888916 11.5558 1.63511 11.5558 2.55558Z" fill="#448ADD"/>
<path fill-rule="evenodd" clip-rule="evenodd" d="M7.16686 2.00003H1.55575C0.944641 2.00003 0.450197 2.50003 0.450197 3.11114L0.444641 13.1111L2.66686 10.8889H10.4446C11.0558 10.8889 11.5558 10.3889 11.5558 9.77781V4.76669C11.0891 5.11669 10.5169 5.33336 9.88909 5.33336C9.62493 5.33329 9.36291 5.29555 9.11077 5.22191C8.96976 5.18072 8.83184 5.1283 8.69838 5.06496C8.32627 4.88835 7.99808 4.63124 7.73754 4.31222C7.71342 4.28268 7.68994 4.25269 7.6671 4.22225C7.44325 3.92391 7.28151 3.58322 7.19195 3.22035C7.09325 2.82046 7.08468 2.40364 7.16686 2.00003ZM3.22242 8.11114H8.77789C9.08344 8.11114 9.33344 7.86114 9.33344 7.55558C9.33344 7.25003 9.08344 7.00003 8.77789 7.00003H3.22242C2.91686 7.00003 2.66686 7.25003 2.66686 7.55558C2.66686 7.86114 2.91686 8.11114 3.22242 8.11114ZM3.22242 5.33336H6.55567C6.86122 5.33336 7.11122 5.08336 7.11122 4.77781C7.11122 4.47225 6.86122 4.22225 6.55567 4.22225H3.22242C2.91686 4.22225 2.66686 4.47225 2.66686 4.77781C2.66686 5.08336 2.91686 5.33336 3.22242 5.33336Z" fill="#448ADD"/>
<path fill-rule="evenodd" clip-rule="evenodd" d="M9.88909 4.22225C8.96686 4.22225 8.22242 3.47781 8.22242 2.55558C8.22242 2.36067 8.25567 2.17371 8.31683 2.00003C8.54503 1.35194 9.16177 0.888916 9.88909 0.888916C10.8113 0.888916 11.5558 1.63336 11.5558 2.55558C11.5558 2.66058 11.5462 2.76333 11.5276 2.86294C11.3839 3.63773 10.7063 4.22225 9.88909 4.22225Z" fill="#448ADD"/>
<circle cx="9.88902" cy="2.55558" r="1.66667" fill="#EA5D54"/>
</svg>
