<svg width="18" height="17" viewBox="0 0 18 17" fill="none" xmlns="http://www.w3.org/2000/svg">
<path d="M9.00001 0.166656C11.2101 0.166656 13.3298 1.04463 14.8926 2.60743C16.4554 4.17024 17.3333 6.28985 17.3333 8.49999C17.3333 10.7101 16.4554 12.8297 14.8926 14.3925C13.3298 15.9554 11.2101 16.8333 9.00001 16.8333C6.78987 16.8333 4.67025 15.9554 3.10745 14.3925C1.54465 12.8297 0.666672 10.7101 0.666672 8.49999C0.666672 6.28985 1.54465 4.17024 3.10745 2.60743C4.67025 1.04463 6.78987 0.166656 9.00001 0.166656ZM9.00001 3.73809C8.84886 3.73796 8.69935 3.76935 8.56103 3.83027C8.42271 3.89118 8.29861 3.98027 8.19666 4.09186C8.09471 4.20344 8.01715 4.33506 7.96894 4.47831C7.92073 4.62155 7.90293 4.77328 7.91667 4.9238L8.3512 9.69285C8.36804 9.85318 8.44366 10.0016 8.56347 10.1095C8.68328 10.2174 8.83879 10.2771 9.00001 10.2771C9.16123 10.2771 9.31674 10.2174 9.43654 10.1095C9.55635 10.0016 9.63197 9.85318 9.64882 9.69285L10.0821 4.9238C10.0959 4.77338 10.0781 4.62175 10.03 4.47859C9.98183 4.33542 9.90438 4.20386 9.80256 4.0923C9.70075 3.98073 9.57679 3.89161 9.43861 3.83063C9.30043 3.76964 9.15105 3.73812 9.00001 3.73809ZM9.00001 13.2619C9.25259 13.2619 9.49483 13.1616 9.67344 12.9829C9.85205 12.8043 9.95239 12.5621 9.95239 12.3095C9.95239 12.0569 9.85205 11.8147 9.67344 11.6361C9.49483 11.4575 9.25259 11.3571 9.00001 11.3571C8.74742 11.3571 8.50518 11.4575 8.32657 11.6361C8.14796 11.8147 8.04762 12.0569 8.04762 12.3095C8.04762 12.5621 8.14796 12.8043 8.32657 12.9829C8.50518 13.1616 8.74742 13.2619 9.00001 13.2619Z" fill="#99A5AE"/>
</svg>
