<svg width="24" height="24" viewBox="0 0 24 24" fill="none" xmlns="http://www.w3.org/2000/svg">
<path d="M2.00001 10.4983C2.00037 8.87919 2.52454 7.30365 3.49418 6.00717C4.46382 4.7107 5.82685 3.76293 7.37956 3.30551C8.93227 2.84809 10.5913 2.90559 12.1086 3.46942C13.6259 4.03324 14.9201 5.07311 15.7977 6.43361C16.6753 7.7941 17.0892 9.40216 16.9776 11.0174C16.8659 12.6327 16.2346 14.1685 15.1782 15.3952C14.1217 16.6219 12.6967 17.4736 11.1162 17.8232C9.53576 18.1727 7.88464 18.0012 6.40966 17.3343C5.15204 17.6243 3.79746 17.8743 3.17465 17.9863C3.01548 18.0148 2.85179 18.004 2.6977 17.955C2.54362 17.906 2.4038 17.8202 2.29031 17.705C2.17682 17.5898 2.09308 17.4487 2.04633 17.2938C1.99958 17.139 1.99123 16.9751 2.022 16.8163C2.13996 16.2063 2.40188 14.8983 2.70279 13.6733C2.23841 12.6794 1.99847 11.5954 2.00001 10.4983ZM8.14213 6.30533C7.70026 6.54133 7.35237 6.90833 7.08945 7.39533C7.0034 7.56931 6.98812 7.76988 7.04685 7.95489C7.10557 8.1399 7.23371 8.29493 7.40433 8.38738C7.57495 8.47984 7.77476 8.50253 7.96176 8.45068C8.14875 8.39882 8.30837 8.27647 8.40705 8.10933C8.554 7.83933 8.70496 7.70533 8.84891 7.62933C8.99887 7.54833 9.20281 7.49933 9.49771 7.49933C9.72165 7.49933 9.98457 7.57833 10.1775 7.73733C10.3485 7.87733 10.4974 8.10133 10.4974 8.49833C10.4974 8.69333 10.4224 8.78333 9.90959 9.18633C9.45973 9.54033 8.74794 10.1143 8.74794 11.2483C8.74794 11.4472 8.82694 11.638 8.96755 11.7787C9.10816 11.9193 9.29886 11.9983 9.49771 11.9983C9.69657 11.9983 9.88727 11.9193 10.0279 11.7787C10.1685 11.638 10.2475 11.4472 10.2475 11.2483C10.2475 10.8783 10.4114 10.6993 10.8353 10.3653L10.9203 10.3003C11.3072 10.0023 11.997 9.47333 11.997 8.49833C11.997 7.65033 11.6461 7.00033 11.1292 6.57633C10.6667 6.20423 10.0913 6.00074 9.49771 5.99933C9.04285 5.99933 8.576 6.07333 8.14213 6.30533ZM10.4974 13.9983C10.4974 13.7331 10.3921 13.4788 10.2046 13.2912C10.0171 13.1037 9.76285 12.9983 9.49771 12.9983C9.23258 12.9983 8.9783 13.1037 8.79082 13.2912C8.60335 13.4788 8.49802 13.7331 8.49802 13.9983C8.49802 14.2635 8.60335 14.5179 8.79082 14.7054C8.9783 14.893 9.23258 14.9983 9.49771 14.9983C9.76285 14.9983 10.0171 14.893 10.2046 14.7054C10.3921 14.5179 10.4974 14.2635 10.4974 13.9983Z" fill="#7F9EBB"/>
<path d="M9.39775 18.9983C10.7829 20.2864 12.6049 21.0012 14.4962 20.9983C15.5958 20.9983 16.6415 20.7613 17.5842 20.3343C18.8439 20.6243 20.2044 20.8743 20.8312 20.9843C20.9907 21.0125 21.1546 21.0013 21.3087 20.9518C21.4629 20.9023 21.6026 20.8159 21.7159 20.7002C21.8291 20.5844 21.9125 20.4428 21.9586 20.2876C22.0048 20.1323 22.0125 19.9682 21.9809 19.8093C21.7735 18.7592 21.5435 17.7136 21.2911 16.6733C21.7356 15.7213 21.9753 14.6865 21.9945 13.6359C22.0138 12.5854 21.8123 11.5425 21.403 10.5748C20.9937 9.60706 20.3857 8.73614 19.6186 8.01842C18.8514 7.30069 17.942 6.75215 16.9494 6.40833C17.664 7.71031 18.0251 9.17687 17.9966 10.6619C17.9681 12.1469 17.5512 13.5985 16.7872 14.8722C16.0233 16.1458 14.939 17.197 13.6425 17.9209C12.346 18.6449 10.8825 19.0163 9.39775 18.9983Z" fill="#7F9EBB"/>
</svg>
