<svg width="20" height="19" viewBox="0 0 20 19" fill="none" xmlns="http://www.w3.org/2000/svg">
<path fill-rule="evenodd" clip-rule="evenodd" d="M7.64501 2.14407C8.78801 0.0870683 11.746 0.0870683 12.89 2.14407L19.49 14.0261C20.601 16.0261 19.155 18.4831 16.868 18.4831H3.66601C1.37901 18.4831 -0.0669911 16.0261 1.04401 14.0261L7.64401 2.14407H7.64501ZM10.267 5.48307C10.5322 5.48307 10.7866 5.58843 10.9741 5.77596C11.1617 5.9635 11.267 6.21785 11.267 6.48307V10.4831C11.267 10.7483 11.1617 11.0026 10.9741 11.1902C10.7866 11.3777 10.5322 11.4831 10.267 11.4831C10.0018 11.4831 9.74744 11.3777 9.5599 11.1902C9.37237 11.0026 9.26701 10.7483 9.26701 10.4831V6.48307C9.26701 6.21785 9.37237 5.9635 9.5599 5.77596C9.74744 5.58843 10.0018 5.48307 10.267 5.48307ZM11.267 14.4831C11.267 14.7483 11.1617 15.0026 10.9741 15.1902C10.7866 15.3777 10.5322 15.4831 10.267 15.4831C10.0018 15.4831 9.74744 15.3777 9.5599 15.1902C9.37237 15.0026 9.26701 14.7483 9.26701 14.4831C9.26701 14.2179 9.37237 13.9635 9.5599 13.776C9.74744 13.5884 10.0018 13.4831 10.267 13.4831C10.5322 13.4831 10.7866 13.5884 10.9741 13.776C11.1617 13.9635 11.267 14.2179 11.267 14.4831Z" fill="#B7C3CB"/>
</svg>
