<svg width="13" height="13" viewBox="0 0 13 13" fill="none" xmlns="http://www.w3.org/2000/svg">
<path fill-rule="evenodd" clip-rule="evenodd" d="M12.1736 0.993118C12.3218 1.14128 12.372 1.36123 12.3027 1.559L8.48456 12.4681C8.41068 12.6792 8.21543 12.8238 7.99196 12.8329C7.7685 12.842 7.56212 12.7138 7.47129 12.5094L5.37468 7.79204L0.657301 5.69543C0.45293 5.6046 0.324714 5.39821 0.33383 5.17475C0.342947 4.95129 0.487549 4.75604 0.69864 4.68216L11.6077 0.863981C11.8055 0.79476 12.0254 0.844953 12.1736 0.993118ZM6.4385 7.4996L7.9094 10.8091L10.4835 3.45464L6.4385 7.4996ZM9.71208 2.68325L2.3576 5.25732L5.66712 6.72821L9.71208 2.68325Z" fill="#448ADD"/>
</svg>
