<svg width="14" height="14" viewBox="0 0 14 14" fill="none" xmlns="http://www.w3.org/2000/svg">
<path d="M5.58408 5.37061V5.12061H5.33408H3.04989C2.80941 5.12061 2.68845 4.8302 2.85942 4.65923L2.85948 4.65917L6.82094 0.695109C6.91865 0.597399 7.08072 0.597399 7.17843 0.695109L11.1426 4.65923C11.3135 4.8302 11.1926 5.12061 10.9521 5.12061H8.6679H8.4179V5.37061V9.74625C8.4179 9.95458 8.25114 10.1213 8.04281 10.1213H5.95917C5.75083 10.1213 5.58408 9.95458 5.58408 9.74625V5.37061ZM13.4186 10.163V13.0801C13.4186 13.2884 13.2519 13.4552 13.0435 13.4552H0.958435C0.750101 13.4552 0.583344 13.2884 0.583344 13.0801V10.163C0.583344 9.95464 0.750101 9.78788 0.958435 9.78788H4.25112C4.27326 10.7116 5.03021 11.4548 5.95917 11.4548H8.04281C8.97177 11.4548 9.72871 10.7116 9.75086 9.78788H13.0435C13.2519 9.78788 13.4186 9.95464 13.4186 10.163ZM10.689 12.455C10.689 12.0304 10.3427 11.6841 9.91808 11.6841C9.49351 11.6841 9.14717 12.0304 9.14717 12.455C9.14717 12.8795 9.49351 13.2259 9.91808 13.2259C10.3427 13.2259 10.689 12.8795 10.689 12.455ZM12.3559 12.455C12.3559 12.0304 12.0096 11.6841 11.585 11.6841C11.1604 11.6841 10.8141 12.0304 10.8141 12.455C10.8141 12.8795 11.1604 13.2259 11.585 13.2259C12.0096 13.2259 12.3559 12.8795 12.3559 12.455Z" fill="#448ADD" stroke="#448ADD" stroke-width="0.5"/>
</svg>
