<svg width="24" height="24" viewBox="0 0 24 24" fill="none" xmlns="http://www.w3.org/2000/svg">
<path fill-rule="evenodd" clip-rule="evenodd" d="M19.1429 1.00014L4.85714 1C3.44286 1 2 2.34536 2 3.77767V20.4444C2 21.8767 3.44286 23.2222 4.85714 23.2222H19.1429C20.5571 23.2222 22 21.8767 22 20.4444V3.77767C22 2.34536 20.5571 1.00014 19.1429 1.00014ZM7 6.03291C7.00011 5.69081 7.06676 5.35208 7.19613 5.03606C7.32551 4.72004 7.51507 4.43292 7.75401 4.1911C7.99295 3.94928 8.27658 3.75749 8.58871 3.62668C8.90083 3.49586 9.23535 3.42859 9.57314 3.42871C9.91094 3.42882 10.2454 3.49632 10.5574 3.62734C10.8695 3.75836 11.153 3.95035 11.3918 4.19233C11.6306 4.43431 11.8199 4.72156 11.9491 5.03766C12.0783 5.35377 12.1447 5.69254 12.1446 6.03465C12.1443 6.72555 11.8731 7.38807 11.3906 7.87645C10.908 8.36484 10.2536 8.63908 9.57143 8.63885C8.88922 8.63862 8.23504 8.36393 7.7528 7.87523C7.27056 7.38652 6.99977 6.72382 7 6.03291ZM5.33333 12.6667C5.33333 11.7118 6.69683 9.5253 8.11111 9.5253H9.57143H10.8889C12.3032 9.5253 13.6667 11.7118 13.6667 12.6667H5.33333ZM5.33333 14.3333H18.6667V16.0695H5.33333V14.3333ZM18.6667 17.8056H5.33333V19.5417H18.6667V17.8056Z" fill="#448ADD"/>
</svg>
