<svg width="13" height="15" viewBox="0 0 13 15" fill="none" xmlns="http://www.w3.org/2000/svg">
<path d="M12.5 12.8429V3.50956C12.5 2.77423 11.902 2.17623 11.1667 2.17623H9.83333V0.842896H8.5V2.17623H4.5V0.842896H3.16667V2.17623H1.83333C1.098 2.17623 0.5 2.77423 0.5 3.50956V12.8429C0.5 13.5782 1.098 14.1762 1.83333 14.1762H11.1667C11.902 14.1762 12.5 13.5782 12.5 12.8429ZM4.5 11.5096H3.16667V10.1762H4.5V11.5096ZM4.5 8.8429H3.16667V7.50956H4.5V8.8429ZM7.16667 11.5096H5.83333V10.1762H7.16667V11.5096ZM7.16667 8.8429H5.83333V7.50956H7.16667V8.8429ZM9.83333 11.5096H8.5V10.1762H9.83333V11.5096ZM9.83333 8.8429H8.5V7.50956H9.83333V8.8429ZM11.1667 5.50956H1.83333V4.17623H11.1667V5.50956Z" fill="#448ADD"/>
</svg>
