<svg width="22" height="21" viewBox="0 0 22 21" fill="none" xmlns="http://www.w3.org/2000/svg">
<path fill-rule="evenodd" clip-rule="evenodd" d="M0.015107 20.1363L0.000354192 7.09866C-0.00593751 6.67662 0.0716485 6.2575 0.228661 5.86534C0.385674 5.47318 0.619023 5.11571 0.91532 4.81343C1.21162 4.51115 1.56503 4.27001 1.95528 4.10384C2.34554 3.93768 2.76495 3.84976 3.18946 3.84513H5.65233V2.30704C5.65233 1.69518 5.90308 1.10837 6.3494 0.675717C6.79572 0.243063 7.40107 0 8.03227 0H14.5152C15.1461 0.000334535 15.751 0.243467 16.197 0.675963L19.2354 3.61975C19.6815 4.05243 19.932 4.63912 19.9319 5.25083V11.5352H21.1223C21.2751 11.5365 21.425 11.5762 21.5582 11.6507C21.6914 11.7251 21.8034 11.8319 21.8838 11.9611C21.96 12.0946 22 12.2454 22 12.3989C22 12.5523 21.96 12.7031 21.8838 12.8366L17.8618 20.5268C17.7863 20.664 17.6767 20.7796 17.5433 20.8625C17.4099 20.9454 17.2573 20.9927 17.1002 21H0.892849C0.740053 20.9988 0.590067 20.959 0.456889 20.8846C0.323712 20.8101 0.211687 20.7033 0.131271 20.5741C0.0551308 20.4406 0.015107 20.2898 0.015107 20.1363ZM18.3453 6.15211H15.9654C15.3342 6.15211 14.7288 5.90905 14.2825 5.4764C13.8362 5.04374 13.5854 4.45694 13.5854 3.84507V1.53803H8.03227C7.82187 1.53803 7.62009 1.61905 7.47131 1.76327C7.32254 1.90749 7.23896 2.10309 7.23896 2.30704V4.73206V7.54199V11.5352H8.82558C8.82558 11.3313 8.90916 11.1357 9.05793 10.9914C9.20671 10.8472 9.40849 10.7662 9.61889 10.7662H12.7921C13.0025 10.7662 13.2043 10.8472 13.3531 10.9914C13.5019 11.1357 13.5854 11.3313 13.5854 11.5352H17.2192H18.3453V9.22553V6.15211ZM9.05793 7.91538C9.20671 7.77116 9.40849 7.69014 9.61889 7.69014H9.69837H15.9654C16.1758 7.69014 16.3775 7.77116 16.5263 7.91538C16.5782 7.96569 16.6222 8.02225 16.6574 8.08323C16.7232 8.19707 16.7587 8.32634 16.7587 8.45915C16.7587 8.66311 16.6751 8.85871 16.5263 9.00293C16.3775 9.14715 16.1758 9.22817 15.9654 9.22817H9.61889C9.40849 9.22817 9.20671 9.14715 9.05793 9.00293C8.90916 8.85871 8.82558 8.66311 8.82558 8.45915C8.82558 8.2552 8.90916 8.0596 9.05793 7.91538ZM18.0169 4.61408H15.9654C15.755 4.61408 15.5532 4.53306 15.4044 4.38884C15.2556 4.24463 15.1721 4.04903 15.1721 3.84507V1.8564L18.0169 4.61408ZM5.64079 5.61978H3.18946C2.80648 5.63215 2.44396 5.79456 2.18092 6.07159C1.91789 6.34862 1.77568 6.71781 1.7853 7.09866V16.5361L4.15335 12.0084C4.23179 11.8661 4.34706 11.7472 4.48723 11.664C4.6274 11.5808 4.78738 11.5363 4.95063 11.5352H5.65233V5.63367L5.64079 5.61978ZM16.5647 19.2254H2.35651L5.45042 13.3099H5.66488H7.27744H18.3068H19.6586L18.7355 15.0748L16.5647 19.2254Z" fill="#5F6B73"/>
</svg>
