<svg width="21" height="20" viewBox="0 0 21 20" fill="none" xmlns="http://www.w3.org/2000/svg">
<path fill-rule="evenodd" clip-rule="evenodd" d="M5.79932 5.59522V7.97617H5.48682C4.90665 7.97617 4.35025 8.19566 3.94002 8.58636C3.52978 8.97706 3.29932 9.50697 3.29932 10.0595V16.6071C3.29932 17.7571 4.27932 18.6905 5.48682 18.6905H16.1118C16.6919 18.6905 17.2483 18.4709 17.6586 18.0802C18.0688 17.6895 18.2993 17.1596 18.2993 16.6071V10.0595C18.2993 9.50697 18.0688 8.97706 17.6586 8.58636C17.2483 8.19566 16.6919 7.97617 16.1118 7.97617H15.7993V5.59522C15.7993 4.33228 15.2726 3.12107 14.3348 2.22804C13.3972 1.33501 12.1254 0.833313 10.7993 0.833313C9.47323 0.833313 8.20147 1.33501 7.26378 2.22804C6.3261 3.12107 5.79932 4.33228 5.79932 5.59522ZM13.9243 7.97617V5.59522C13.9243 4.80588 13.5951 4.04887 13.009 3.49073C12.423 2.93259 11.6281 2.61903 10.7993 2.61903C9.97052 2.61903 9.17565 2.93259 8.5896 3.49073C8.00355 4.04887 7.67432 4.80588 7.67432 5.59522V7.97617H13.9243ZM15.7993 9.76188H16.1118C16.1947 9.76188 16.2742 9.79324 16.3328 9.84905C16.3914 9.90487 16.4243 9.98057 16.4243 10.0595V16.6071C16.4243 16.686 16.3914 16.7618 16.3328 16.8176C16.2742 16.8734 16.1947 16.9047 16.1118 16.9047H5.48682C5.40394 16.9047 5.32445 16.8734 5.26584 16.8176C5.20724 16.7618 5.17432 16.686 5.17432 16.6071V10.0595C5.17432 9.98057 5.20724 9.90487 5.26584 9.84905C5.32445 9.79324 5.40394 9.76188 5.48682 9.76188H15.7993Z" fill="#2D3033"/>
<path d="M15.7993 9.76188H16.1118C16.1947 9.76188 16.2742 9.79324 16.3328 9.84905C16.3914 9.90487 16.4243 9.98057 16.4243 10.0595V16.6071C16.4243 16.686 16.3914 16.7618 16.3328 16.8176C16.2742 16.8734 16.1947 16.9047 16.1118 16.9047H5.48682C5.40394 16.9047 5.32445 16.8734 5.26584 16.8176C5.20724 16.7618 5.17432 16.686 5.17432 16.6071V10.0595C5.17432 9.98057 5.20724 9.90487 5.26584 9.84905C5.32445 9.79324 5.40394 9.76188 5.48682 9.76188H15.7993Z" fill="#2D3033"/>
</svg>
