<svg width="14" height="12" viewBox="0 0 14 12" fill="none" xmlns="http://www.w3.org/2000/svg">
<path d="M2.5556 0.666748C1.96623 0.666748 1.401 0.891509 0.984248 1.29159C0.5675 1.69166 0.333374 2.23429 0.333374 2.80008V3.01448L7.00004 6.46088L13.6667 3.01555V2.80008C13.6667 2.23429 13.4326 1.69166 13.0158 1.29159C12.5991 0.891509 12.0339 0.666748 11.4445 0.666748H2.5556Z" fill="#5F6B73"/>
<path d="M13.6667 4.22632L7.26337 7.53618C7.18244 7.57801 7.09196 7.5999 7.00004 7.5999C6.90812 7.5999 6.81764 7.57801 6.73671 7.53618L0.333374 4.22632V9.20018C0.333374 9.76598 0.5675 10.3086 0.984248 10.7087C1.401 11.1088 1.96623 11.3335 2.5556 11.3335H11.4445C12.0339 11.3335 12.5991 11.1088 13.0158 10.7087C13.4326 10.3086 13.6667 9.76598 13.6667 9.20018V4.22632Z" fill="#5F6B73"/>
</svg>
