<svg width="26" height="24" viewBox="0 0 26 24" fill="none" xmlns="http://www.w3.org/2000/svg">
<path d="M0.500009 10.1229C0.500459 8.09894 1.15567 6.12951 2.36772 4.50892C3.57977 2.88833 5.28356 1.70362 7.22445 1.13184C9.16533 0.560071 11.2391 0.631946 13.1358 1.33673C15.0324 2.04151 16.6502 3.34134 17.7472 5.04196C18.8442 6.74259 19.3615 8.75266 19.2219 10.7718C19.0824 12.7909 18.2933 14.7106 16.9727 16.2439C15.6521 17.7773 13.8709 18.842 11.8953 19.2789C9.9197 19.7158 7.8558 19.5015 6.01207 18.6679C4.44005 19.0304 2.74682 19.3429 1.96831 19.4829C1.76935 19.5184 1.56473 19.505 1.37213 19.4437C1.17953 19.3824 1.00474 19.2752 0.862882 19.1312C0.72102 18.9872 0.616348 18.8108 0.557914 18.6172C0.49948 18.4237 0.489041 18.2188 0.527501 18.0204C0.674956 17.2579 1.00236 15.6229 1.37849 14.0916C0.798017 12.8492 0.498091 11.4942 0.500009 10.1229ZM8.17766 4.88162C7.62533 5.17662 7.19046 5.63537 6.86181 6.24412C6.75425 6.46159 6.73516 6.71231 6.80856 6.94357C6.88196 7.17483 7.04213 7.36861 7.25541 7.48418C7.46869 7.59976 7.71845 7.62812 7.9522 7.5633C8.18594 7.49848 8.38546 7.34554 8.50881 7.13662C8.6925 6.79912 8.8812 6.63162 9.06114 6.53662C9.24858 6.43537 9.50351 6.37412 9.87214 6.37412C10.1521 6.37412 10.4807 6.47287 10.7219 6.67162C10.9356 6.84662 11.1218 7.12662 11.1218 7.62287C11.1218 7.86662 11.028 7.97912 10.387 8.48287C9.82466 8.92537 8.93493 9.64287 8.93493 11.0604C8.93493 11.309 9.03367 11.5475 9.20943 11.7233C9.3852 11.8991 9.62358 11.9979 9.87214 11.9979C10.1207 11.9979 10.3591 11.8991 10.5349 11.7233C10.7106 11.5475 10.8094 11.309 10.8094 11.0604C10.8094 10.5979 11.0143 10.3741 11.5441 9.95662L11.6504 9.87537C12.134 9.50287 12.9962 8.84162 12.9962 7.62287C12.9962 6.56287 12.5576 5.75037 11.9115 5.22037C11.3333 4.75525 10.6141 4.50088 9.87214 4.49912C9.30357 4.49912 8.72 4.59162 8.17766 4.88162ZM11.1218 14.4979C11.1218 14.1663 10.9901 13.8484 10.7558 13.614C10.5214 13.3796 10.2036 13.2479 9.87214 13.2479C9.54072 13.2479 9.22288 13.3796 8.98853 13.614C8.75418 13.8484 8.62253 14.1663 8.62253 14.4979C8.62253 14.8294 8.75418 15.1473 8.98853 15.3818C9.22288 15.6162 9.54072 15.7479 9.87214 15.7479C10.2036 15.7479 10.5214 15.6162 10.7558 15.3818C10.9901 15.1473 11.1218 14.8294 11.1218 14.4979Z" fill="#5F6B73"/>
<path d="M9.74718 20.7479C11.4787 22.358 13.7561 23.2514 16.1202 23.2479C17.4948 23.2479 18.8019 22.9516 19.9803 22.4179C21.5548 22.7804 23.2556 23.0929 24.0391 23.2304C24.2384 23.2656 24.4432 23.2516 24.6359 23.1897C24.8286 23.1278 25.0033 23.0198 25.1449 22.8751C25.2864 22.7305 25.3906 22.5534 25.4483 22.3594C25.506 22.1654 25.5156 21.9602 25.4761 21.7616C25.2169 20.4489 24.9294 19.1419 24.6139 17.8416C25.1695 16.6516 25.4691 15.3581 25.4932 14.0449C25.5173 12.7317 25.2653 11.428 24.7537 10.2184C24.2421 9.00878 23.4822 7.92013 22.5232 7.02297C21.5642 6.12581 20.4275 5.44014 19.1868 5.01037C20.08 6.63785 20.5313 8.47104 20.4957 10.3273C20.4602 12.1836 19.9389 13.9981 18.984 15.5902C18.0291 17.1822 16.6738 18.4961 15.0531 19.4011C13.4325 20.306 11.6031 20.7704 9.74718 20.7479Z" fill="#5F6B73"/>
</svg>
