<svg width="17" height="19" viewBox="0 0 17 19" fill="none" xmlns="http://www.w3.org/2000/svg">
<path fill-rule="evenodd" clip-rule="evenodd" d="M5.78527 8.49864V5.87207C5.78527 5.39902 5.58335 4.95498 5.23995 4.63476C4.89803 4.31591 4.44306 4.14368 3.97702 4.14368C3.51099 4.14368 3.05602 4.31591 2.7141 4.63476C2.3707 4.95498 2.16878 5.39902 2.16878 5.87207V11.9509C2.09109 11.9648 2.01477 11.9939 1.94406 12.0389C1.08798 12.5836 0.708008 13.478 0.708008 14.561C0.708008 15.474 1.27579 16.559 1.98511 17.3783C2.69184 18.1947 3.72256 18.9583 4.82371 18.9583H9.05837C11.0416 18.9583 12.2871 17.3398 12.2871 15.9533V11.6804C12.2871 11.205 12.0846 10.7587 11.7399 10.4363C11.3967 10.1153 10.9398 9.94113 10.4712 9.93979C10.0186 9.93979 9.80691 10.0313 9.75767 10.0771C9.67947 9.90894 9.57118 9.75475 9.43761 9.6219C9.42532 9.60968 9.41283 9.59765 9.40012 9.5858C9.08671 9.29354 8.67042 9.13625 8.24472 9.13625C8.14357 9.13625 8.04296 9.14513 7.94414 9.16259C7.84489 9.18012 7.74745 9.2063 7.65308 9.24084L7.62889 9.2499C7.62397 9.24164 7.61897 9.23343 7.6139 9.22527C7.5671 9.14992 7.51403 9.07871 7.45539 9.01228C7.42084 8.97314 7.38436 8.93566 7.34608 8.89997C7.19053 8.75491 7.00819 8.64196 6.81049 8.5656C6.61284 8.48925 6.40234 8.45042 6.19068 8.45042C6.05401 8.45042 5.91782 8.46661 5.78527 8.49864ZM3.97702 5.39368C3.81543 5.39368 3.66847 5.45395 3.5666 5.54895C3.46619 5.64258 3.41878 5.75984 3.41878 5.87207V13.3419C3.41878 13.687 3.13896 13.9669 2.79378 13.9669C2.51087 13.9669 2.27186 13.7789 2.19484 13.521C2.0433 13.7741 1.95801 14.1101 1.95801 14.561C1.95801 15.0403 2.30795 15.8415 2.93016 16.5602C3.55497 17.2819 4.2696 17.7083 4.82371 17.7083H9.05837C10.315 17.7083 11.0371 16.6862 11.0371 15.9533V11.6803C11.0371 11.5651 10.9885 11.445 10.886 11.3492C10.7821 11.252 10.6324 11.1903 10.4676 11.1898C10.3876 11.1896 10.3093 11.2041 10.2373 11.2316C10.1654 11.2591 10.1028 11.2986 10.0519 11.3458C10.0011 11.3928 9.96332 11.4464 9.93836 11.5021C9.91356 11.5575 9.90134 11.6152 9.90108 11.6723V11.7088L9.90089 11.7242V11.8189C9.90089 12.164 9.62107 12.4439 9.27589 12.4439C8.93072 12.4439 8.65089 12.164 8.65089 11.8189V10.7228C8.65089 10.6482 8.6195 10.567 8.54762 10.5C8.47426 10.4316 8.36599 10.3863 8.24472 10.3863C8.12345 10.3863 8.01518 10.4316 7.94182 10.5C7.891 10.5474 7.86042 10.6018 7.84686 10.6561V11.6214C7.84686 11.6573 7.84382 11.6926 7.83798 11.7269C7.82399 12.0597 7.54977 12.3252 7.21354 12.3252C6.86836 12.3252 6.58854 12.0454 6.58854 11.7002V10.7228C6.58854 10.6693 6.59135 10.6162 6.59686 10.5637V10.037C6.59686 9.99911 6.58892 9.96042 6.57218 9.92274C6.55538 9.88492 6.52945 9.8476 6.49358 9.81416C6.45763 9.78063 6.41262 9.75192 6.3601 9.73163C6.30754 9.71133 6.24985 9.70042 6.19068 9.70042C6.13151 9.70042 6.07383 9.71133 6.02126 9.73163C5.96875 9.75192 5.92373 9.78063 5.88778 9.81416C5.85191 9.8476 5.82598 9.88492 5.80919 9.92274C5.79543 9.95371 5.78761 9.98536 5.78527 10.0167V11.3539C5.78527 11.3643 5.78501 11.3747 5.78451 11.385V11.4746C5.78451 11.8198 5.50468 12.0996 5.15951 12.0996C4.81433 12.0996 4.53451 11.8198 4.53451 11.4746V10.037C4.53451 10.021 4.53476 10.0049 4.53527 9.98891V5.87207C4.53527 5.75984 4.48786 5.64258 4.38745 5.54895C4.28557 5.45395 4.13862 5.39368 3.97702 5.39368Z" fill="#5F6B73"/>
<path d="M14.6663 3.75V2.5L16.333 4.16667L14.6663 5.83333V4.58333H12.583V6.66667H13.833L12.1663 8.33333L10.4997 6.66667H11.7497V4.58333H9.66634V5.83333L7.99968 4.16667L9.66634 2.5V3.75H11.7497V1.66667H10.4997L12.1663 0L13.833 1.66667H12.583V3.75H14.6663Z" fill="#5F6B73"/>
</svg>
