<svg width="15" height="14" viewBox="0 0 15 14" fill="none" xmlns="http://www.w3.org/2000/svg">
<path d="M8.75018 11.1667H7.08352C6.97301 11.1667 6.86703 11.2106 6.78889 11.2888C6.71075 11.3669 6.66685 11.4729 6.66685 11.5834V12.4167C6.66685 12.5273 6.71075 12.6332 6.78889 12.7114C6.86703 12.7895 6.97301 12.8334 7.08352 12.8334H8.75018C8.86069 12.8334 8.96667 12.7895 9.04481 12.7114C9.12295 12.6332 9.16685 12.5273 9.16685 12.4167V11.5834C9.16685 11.4729 9.12295 11.3669 9.04481 11.2888C8.96667 11.2106 8.86069 11.1667 8.75018 11.1667ZM5.41685 9.50008H4.16685V1.58341C4.16685 1.47291 4.12295 1.36693 4.04481 1.28879C3.96667 1.21065 3.86069 1.16675 3.75018 1.16675H2.91685C2.80634 1.16675 2.70036 1.21065 2.62222 1.28879C2.54408 1.36693 2.50018 1.47291 2.50018 1.58341V9.50008H1.25018C0.880652 9.50008 0.693672 9.94904 0.956172 10.2113L3.03951 12.7113C3.11764 12.7894 3.22358 12.8332 3.33404 12.8332C3.4445 12.8332 3.55044 12.7894 3.62857 12.7113L5.7119 10.2113C5.97284 9.94956 5.78716 9.50008 5.41685 9.50008ZM12.0835 4.50008H7.08352C6.97301 4.50008 6.86703 4.54398 6.78889 4.62212C6.71075 4.70026 6.66685 4.80624 6.66685 4.91675V5.75008C6.66685 5.86059 6.71075 5.96657 6.78889 6.04471C6.86703 6.12285 6.97301 6.16675 7.08352 6.16675H12.0835C12.194 6.16675 12.3 6.12285 12.3781 6.04471C12.4563 5.96657 12.5002 5.86059 12.5002 5.75008V4.91675C12.5002 4.80624 12.4563 4.70026 12.3781 4.62212C12.3 4.54398 12.194 4.50008 12.0835 4.50008ZM10.4169 7.83342H7.08352C6.97301 7.83342 6.86703 7.87731 6.78889 7.95545C6.71075 8.03359 6.66685 8.13958 6.66685 8.25008V9.08342C6.66685 9.19392 6.71075 9.2999 6.78889 9.37804C6.86703 9.45618 6.97301 9.50008 7.08352 9.50008H10.4169C10.5274 9.50008 10.6333 9.45618 10.7115 9.37804C10.7896 9.2999 10.8335 9.19392 10.8335 9.08342V8.25008C10.8335 8.13958 10.7896 8.03359 10.7115 7.95545C10.6333 7.87731 10.5274 7.83342 10.4169 7.83342ZM13.7502 1.16675H7.08352C6.97301 1.16675 6.86703 1.21065 6.78889 1.28879C6.71075 1.36693 6.66685 1.47291 6.66685 1.58341V2.41675C6.66685 2.52726 6.71075 2.63324 6.78889 2.71138C6.86703 2.78952 6.97301 2.83342 7.08352 2.83342H13.7502C13.8607 2.83342 13.9667 2.78952 14.0448 2.71138C14.123 2.63324 14.1669 2.52726 14.1669 2.41675V1.58341C14.1669 1.47291 14.123 1.36693 14.0448 1.28879C13.9667 1.21065 13.8607 1.16675 13.7502 1.16675Z" fill="#448ADD"/>
</svg>
