<svg width="18" height="18" viewBox="0 0 18 18" fill="none" xmlns="http://www.w3.org/2000/svg">
<path d="M9.00076 0.666992C4.3977 0.666992 0.666992 4.3977 0.666992 8.99989C0.666878 10.0943 0.88236 11.1781 1.30113 12.1892C1.7199 13.2004 2.33376 14.1191 3.10764 14.893C3.88153 15.6669 4.80028 16.2808 5.81143 16.6995C6.82258 17.1183 7.90632 17.3338 9.00076 17.3337C13.6021 17.3337 17.3337 13.603 17.3337 8.99989C17.3337 4.3977 13.6021 0.666992 9.00076 0.666992ZM9.7785 3.67552C10.591 3.67552 10.8297 4.14685 10.8297 4.68588C10.8297 5.35859 10.2915 5.98095 9.37227 5.98095C8.60321 5.98095 8.23691 5.59469 8.25948 4.95496C8.25948 4.41593 8.70998 3.67552 9.7785 3.67552ZM7.69701 13.991C7.14148 13.991 6.73612 13.6533 7.12412 12.1733L7.76037 9.54761C7.87061 9.12749 7.88884 8.9591 7.76037 8.9591C7.59458 8.9591 6.87327 9.24901 6.44794 9.53545L6.17105 9.08148C7.5208 7.95394 9.07281 7.29252 9.73683 7.29252C10.2924 7.29252 10.3844 7.94873 10.1075 8.9591L9.37835 11.7194C9.24901 12.2072 9.30456 12.3756 9.4339 12.3756C9.60056 12.3756 10.1457 12.1742 10.6821 11.7515L10.9963 12.1733C9.68302 13.4858 8.25167 13.991 7.69701 13.991Z" fill="#E2633B"/>
</svg>
