<svg width="24" height="24" viewBox="0 0 24 24" fill="none" xmlns="http://www.w3.org/2000/svg">
<path d="M5.19401 5.19444C4.93616 5.19444 4.68887 5.29688 4.50655 5.4792C4.32422 5.66153 4.22179 5.90882 4.22179 6.16667V7.13889H19.7773V6.16667C19.7773 5.90882 19.6749 5.66153 19.4926 5.4792C19.3103 5.29688 19.063 5.19444 18.8051 5.19444H5.19401ZM2.27734 6.16667C2.27734 5.39312 2.58463 4.65125 3.13162 4.10427C3.6786 3.55729 4.42046 3.25 5.19401 3.25H18.8051C19.5787 3.25 20.3205 3.55729 20.8675 4.10427C21.4145 4.65125 21.7218 5.39312 21.7218 6.16667V7.13889C21.7218 7.4802 21.6319 7.8155 21.4613 8.11108C21.2906 8.40667 21.0452 8.65212 20.7496 8.82278V17.8333C20.7496 18.6069 20.4423 19.3487 19.8953 19.8957C19.3483 20.4427 18.6064 20.75 17.8329 20.75H6.16623C5.39268 20.75 4.65082 20.4427 4.10384 19.8957C3.55686 19.3487 3.24957 18.6069 3.24957 17.8333V8.82278C2.95398 8.65212 2.70852 8.40667 2.53786 8.11108C2.3672 7.8155 2.27735 7.4802 2.27734 7.13889V6.16667ZM5.19401 9.08333V17.8333C5.19401 18.0912 5.29644 18.3385 5.47877 18.5208C5.6611 18.7031 5.90838 18.8056 6.16623 18.8056H17.8329C18.0908 18.8056 18.338 18.7031 18.5204 18.5208C18.7027 18.3385 18.8051 18.0912 18.8051 17.8333V9.08333H5.19401ZM9.0829 12C9.0829 11.7422 9.18533 11.4949 9.36766 11.3125C9.54998 11.1302 9.79727 11.0278 10.0551 11.0278H13.944C14.2019 11.0278 14.4491 11.1302 14.6315 11.3125C14.8138 11.4949 14.9162 11.7422 14.9162 12C14.9162 12.2579 14.8138 12.5051 14.6315 12.6875C14.4491 12.8698 14.2019 12.9722 13.944 12.9722H10.0551C9.79727 12.9722 9.54998 12.8698 9.36766 12.6875C9.18533 12.5051 9.0829 12.2579 9.0829 12Z" fill="#59A5FF"/>
</svg>
