<svg width="24" height="24" viewBox="0 0 24 24" fill="none" xmlns="http://www.w3.org/2000/svg">
<path d="M15.0128 9.395L19.5828 4.825L20.9998 6.243V2H16.7568L18.1678 3.41L13.3338 8.245C12.8137 8.05241 12.2588 7.97184 11.7055 8.00856C11.1521 8.04528 10.6128 8.19846 10.1227 8.45807C9.63268 8.71768 9.20298 9.07787 8.86178 9.51505C8.52058 9.95224 8.27556 10.4566 8.14278 10.995H5.71978C5.49869 10.6143 5.15815 10.3171 4.75098 10.1497C4.3438 9.9822 3.89275 9.95377 3.46777 10.0688C3.04279 10.1838 2.66763 10.4358 2.40049 10.7858C2.13334 11.1357 1.98914 11.5641 1.99024 12.0043C1.99134 12.4446 2.13769 12.8722 2.40658 13.2208C2.67547 13.5694 3.05188 13.8196 3.47743 13.9325C3.90298 14.0454 4.35388 14.0147 4.76022 13.8452C5.16655 13.6757 5.5056 13.3768 5.72478 12.995H8.13978C8.27177 13.5355 8.51672 14.0418 8.85851 14.4808C9.2003 14.9198 9.63119 15.2814 10.1228 15.5419C10.6144 15.8023 11.1556 15.9557 11.7108 15.9919C12.2659 16.0281 12.8225 15.9464 13.3438 15.752L18.1738 20.582L16.7578 22H20.9998V17.757L19.5898 19.168L15.0188 14.598C15.4189 14.1356 15.7067 13.587 15.8598 12.995L17.9998 13V15L20.9998 12L17.9998 9V11L15.8568 10.995C15.7024 10.4038 15.4135 9.85624 15.0128 9.395Z" fill="#B9D5EE" fill-opacity="0.5"/>
</svg>
