<svg width="13" height="11" viewBox="0 0 20 18" fill="none" xmlns="http://www.w3.org/2000/svg">
<path d="M12.5 12.2143C12.5 12.5695 12.2203 12.8571 11.875 12.8571H8.125C7.77969 12.8571 7.5 12.5695 7.5 12.2143V10.2857H0V16.0714C0 17.1 0.875 18 1.875 18H18.125C19.125 18 20 17.1 20 16.0714V10.2857H12.5V12.2143ZM18.125 3.85714H15V1.92857C15 0.9 14.125 0 13.125 0H6.875C5.875 0 5 0.9 5 1.92857V3.85714H1.875C0.875 3.85714 0 4.75714 0 5.78571V9H20V5.78571C20 4.75714 19.125 3.85714 18.125 3.85714ZM12.5 3.85714H7.5V2.57143H12.5V3.85714Z" fill="#5F6B73"/>
</svg>
