<svg width="4" height="7" viewBox="0 0 4 7" fill="none" xmlns="http://www.w3.org/2000/svg">
<path d="M0.799496 0C1.01118 0 1.21419 0.079341 1.36387 0.220569L3.78032 2.47057C3.85278 2.54225 3.90948 2.62677 3.94713 2.71924C3.98478 2.81171 4.00264 2.9103 3.99969 3.00932C3.99673 3.10834 3.97301 3.20583 3.9299 3.29615C3.8868 3.38648 3.82515 3.46785 3.74853 3.53557L1.36387 5.78557C1.28997 5.85586 1.20206 5.91166 1.10519 5.94974C1.00833 5.98781 0.904431 6.00742 0.799496 6.00742C0.694562 6.00742 0.590666 5.98781 0.493801 5.94974C0.396937 5.91166 0.309022 5.85586 0.235127 5.78557C0.160623 5.71585 0.101488 5.6329 0.0611328 5.5415C0.0207774 5.45011 0 5.35208 0 5.25307C0 5.15406 0.0207774 5.05603 0.0611328 4.96464C0.101488 4.87324 0.160623 4.79029 0.235127 4.72057L2.06337 3.00307L0.235127 1.28557C0.0854463 1.14434 0.00135693 0.952795 0.00135693 0.753069C0.00135694 0.553343 0.0854463 0.361797 0.235127 0.220569C0.384807 0.079341 0.587817 0 0.799496 0Z" fill="#5F6B73"/>
</svg>
