<svg width="19" height="21" viewBox="0 0 19 21" fill="none" xmlns="http://www.w3.org/2000/svg">
<path d="M9.4939 10.5C12.2556 10.5 14.4939 8.26172 14.4939 5.5C14.4939 2.73828 12.2556 0.5 9.4939 0.5C6.73218 0.5 4.4939 2.73828 4.4939 5.5C4.4939 8.26172 6.73218 10.5 9.4939 10.5ZM12.9939 11.75H12.3416C11.4744 12.1484 10.5095 12.375 9.4939 12.375C8.47827 12.375 7.51733 12.1484 6.64624 11.75H5.9939C3.09546 11.75 0.743896 14.1016 0.743896 17V18.625C0.743896 19.6602 1.58374 20.5 2.6189 20.5H16.3689C17.4041 20.5 18.2439 19.6602 18.2439 18.625V17C18.2439 14.1016 15.8923 11.75 12.9939 11.75Z" fill="#448ADD"/>
</svg>
