<svg width="24" height="24" viewBox="0 0 24 24" fill="none" xmlns="http://www.w3.org/2000/svg">
<path d="M10.55 2.54321C10.9558 2.1924 11.4693 2 12 2C12.5307 2 13.0442 2.1924 13.45 2.54321L20.2 8.38527C20.708 8.8233 21 9.46854 21 10.1497V20.2048C21 20.6809 20.8156 21.1375 20.4874 21.4742C20.1592 21.8109 19.7141 22 19.25 22H16.25C15.7859 22 15.3408 21.8109 15.0126 21.4742C14.6844 21.1375 14.5 20.6809 14.5 20.2048V15.0757C14.5 14.8716 14.421 14.676 14.2803 14.5317C14.1397 14.3874 13.9489 14.3063 13.75 14.3063H10.25C10.0511 14.3063 9.86032 14.3874 9.71967 14.5317C9.57902 14.676 9.5 14.8716 9.5 15.0757V20.2048C9.5 20.6809 9.31563 21.1375 8.98744 21.4742C8.65925 21.8109 8.21413 22 7.75 22H4.75C4.52019 22 4.29262 21.9536 4.0803 21.8633C3.86798 21.7731 3.67507 21.6409 3.51256 21.4742C3.35006 21.3075 3.22116 21.1096 3.13321 20.8918C3.04527 20.674 3 20.4406 3 20.2048V10.1487C3 9.46854 3.292 8.8233 3.8 8.38425L10.55 2.54321Z" fill="#7F9EBB"/>
</svg>
