<svg width="21" height="20" viewBox="0 0 21 20" fill="none" xmlns="http://www.w3.org/2000/svg">
<path d="M18.2432 0H2.24316C1.14316 0 0.253164 0.9 0.253164 2L0.243164 20L4.24316 16H18.2432C19.3432 16 20.2432 15.1 20.2432 14V2C20.2432 0.9 19.3432 0 18.2432 0ZM15.2432 11H5.24316C4.69316 11 4.24316 10.55 4.24316 10C4.24316 9.45 4.69316 9 5.24316 9H15.2432C15.7932 9 16.2432 9.45 16.2432 10C16.2432 10.55 15.7932 11 15.2432 11ZM11.2432 6H5.24316C4.69316 6 4.24316 5.55 4.24316 5C4.24316 4.45 4.69316 4 5.24316 4H11.2432C11.7932 4 12.2432 4.45 12.2432 5C12.2432 5.55 11.7932 6 11.2432 6Z" fill="#99A5AE"/>
</svg>
