<svg width="33" height="47" viewBox="0 0 33 47" fill="none" xmlns="http://www.w3.org/2000/svg">
<path d="M32.7866 0L32.7866 45.2637C32.7866 46.8876 32.3997 47.4963 29.2887 46.5537L16.3933 41.6235L3.49791 46.5537C0.399921 47.4963 -2.67029e-05 46.8895 -2.67029e-05 45.2637V0H32.7866Z" fill="url(#paint0_linear_13122_5317)"/>
<path d="M8.34237 21.188C8.24637 21.596 8.05437 22.148 7.89837 22.508L8.69037 22.676H6.33837L6.93837 22.508C6.89037 22.148 6.73437 21.596 6.53037 21.188H8.34237ZM8.18637 25.976H10.1664V24.776H8.18637V23.852H10.2744V22.676H9.06237C9.23037 22.316 9.42237 21.836 9.63837 21.32L8.94237 21.188H10.1784V20.024H8.18637V18.932H6.80637V20.024H4.79037V21.188H6.13437L5.40237 21.356C5.57037 21.764 5.71437 22.28 5.76237 22.676H4.65837V23.852H6.80637V24.776H4.69437V25.976H6.51837C5.96637 26.876 5.13837 27.776 4.35837 28.292C4.65837 28.52 5.06637 28.988 5.28237 29.3C5.79837 28.88 6.33837 28.28 6.80637 27.608V30.02H8.18637V27.464C8.53437 27.8 8.87037 28.16 9.06237 28.4L9.89037 27.38C9.61437 27.164 8.61837 26.372 8.18637 26.072V25.976ZM15.7224 22.784H11.9784V21.104C13.2384 20.84 14.6064 20.468 15.6624 20L14.5224 18.956C13.7904 19.352 12.6024 19.736 11.4624 20.012L10.6344 19.784V23.936C10.6344 25.592 10.4904 27.632 9.11037 29.096C9.43437 29.264 9.95037 29.756 10.1304 30.068C11.7144 28.424 11.9664 25.892 11.9784 24.104H13.2024V29.972H14.5824V24.104H15.7224V22.784ZM24.9024 25.772V26.204H20.7144V25.772H24.9024ZM20.7144 28.664V28.22H24.9024V28.664H20.7144ZM24.9024 27.428H20.7144V26.996H24.9024V27.428ZM27.4224 24.284V23.168H22.8384V22.652H26.3184V21.62H22.8384V21.116H26.9424V20.012H24.9024C25.1064 19.772 25.3344 19.496 25.5744 19.184L24.0144 18.812C23.8944 19.148 23.6184 19.64 23.3904 19.988L23.4744 20.012H20.8344L20.8944 19.988C20.7624 19.64 20.4384 19.16 20.1264 18.812L18.8664 19.208C19.0584 19.448 19.2384 19.736 19.3824 20.012H17.3784V21.116H21.3864V21.62H17.9784V22.652H21.3864V23.168H16.8384V24.284H19.1424C18.5544 25.664 17.5824 26.864 16.3944 27.608C16.7064 27.848 17.2344 28.388 17.4624 28.676C18.1224 28.184 18.7464 27.56 19.2864 26.84V30.02H20.7144V29.672H24.9024V30.02H26.3904V24.764H20.4864C20.5584 24.608 20.6184 24.452 20.6784 24.284H27.4224Z" fill="#FCFCFC"/>
<defs>
<linearGradient id="paint0_linear_13122_5317" x1="9.61043" y1="59.4844" x2="49.9759" y2="12.7762" gradientUnits="userSpaceOnUse">
<stop offset="0.365644" stop-color="#FF9E44" stop-opacity="0.9"/>
<stop offset="0.748056" stop-color="#F5C139" stop-opacity="0.9"/>
<stop offset="0.99713" stop-color="#FEE692" stop-opacity="0.7"/>
</linearGradient>
</defs>
</svg>
