<svg width="20" height="20" viewBox="0 1 24 24" fill="none" xmlns="http://www.w3.org/2000/svg">
<path d="M6 22C5.20435 22 4.44129 21.6839 3.87868 21.1213C3.31607 20.5587 3 19.7956 3 19V5C3 4.20435 3.31607 3.44129 3.87868 2.87868C4.44129 2.31607 5.20435 2 6 2H14.172C14.9672 2.00044 15.7298 2.3166 16.292 2.879L20.122 6.707C20.6843 7.26964 21.0001 8.03256 21 8.828V19C21 19.7956 20.6839 20.5587 20.1213 21.1213C19.5587 21.6839 18.7956 22 18 22H6ZM5 19C5 19.2652 5.10536 19.5196 5.29289 19.7071C5.48043 19.8946 5.73478 20 6 20H18C18.2652 20 18.5196 19.8946 18.7071 19.7071C18.8946 19.5196 19 19.2652 19 19V10H16C15.2044 10 14.4413 9.68393 13.8787 9.12132C13.3161 8.55871 13 7.79565 13 7V4H6C5.73478 4 5.48043 4.10536 5.29289 4.29289C5.10536 4.48043 5 4.73478 5 5V19ZM16 8H18.586L15 4.414V7C15 7.26522 15.1054 7.51957 15.2929 7.70711C15.4804 7.89464 15.7348 8 16 8ZM8 12C7.73478 12 7.48043 12.1054 7.29289 12.2929C7.10536 12.4804 7 12.7348 7 13C7 13.2652 7.10536 13.5196 7.29289 13.7071C7.48043 13.8946 7.73478 14 8 14H16C16.2652 14 16.5196 13.8946 16.7071 13.7071C16.8946 13.5196 17 13.2652 17 13C17 12.7348 16.8946 12.4804 16.7071 12.2929C16.5196 12.1054 16.2652 12 16 12H8ZM8 16C7.73478 16 7.48043 16.1054 7.29289 16.2929C7.10536 16.4804 7 16.7348 7 17C7 17.2652 7.10536 17.5196 7.29289 17.7071C7.48043 17.8946 7.73478 18 8 18H12C12.2652 18 12.5196 17.8946 12.7071 17.7071C12.8946 17.5196 13 17.2652 13 17C13 16.7348 12.8946 16.4804 12.7071 16.2929C12.5196 16.1054 12.2652 16 12 16H8Z" fill="#225999"/>
</svg>
