<svg width="13" height="15" viewBox="0 0 13 15" fill="none" xmlns="http://www.w3.org/2000/svg">
<path fill-rule="evenodd" clip-rule="evenodd" d="M0.866289 2.49992C0.866289 2.05789 1.04873 1.63397 1.37346 1.32141C1.6982 1.00885 2.13864 0.833252 2.59789 0.833252H9.5243C9.98355 0.833252 10.424 1.00885 10.7487 1.32141C11.0735 1.63397 11.2559 2.05789 11.2559 2.49992V12.4999C11.4855 12.4999 11.7057 12.5877 11.8681 12.744C12.0305 12.9003 12.1217 13.1122 12.1217 13.3333C12.1217 13.5543 12.0305 13.7662 11.8681 13.9225C11.7057 14.0788 11.4855 14.1666 11.2559 14.1666H8.6585C8.42887 14.1666 8.20865 14.0788 8.04628 13.9225C7.88391 13.7662 7.7927 13.5543 7.7927 13.3333V11.6666C7.7927 11.4456 7.70148 11.2336 7.53911 11.0773C7.37674 10.9211 7.15652 10.8333 6.9269 10.8333H5.19529C4.96567 10.8333 4.74545 10.9211 4.58308 11.0773C4.42071 11.2336 4.32949 11.4456 4.32949 11.6666V13.3333C4.32949 13.5543 4.23827 13.7662 4.07591 13.9225C3.91354 14.0788 3.69332 14.1666 3.46369 14.1666H0.866289C0.636665 14.1666 0.416445 14.0788 0.254075 13.9225C0.0917063 13.7662 0.000488281 13.5543 0.000488281 13.3333C0.000488281 13.1122 0.0917063 12.9003 0.254075 12.744C0.416445 12.5877 0.636665 12.4999 0.866289 12.4999V2.49992ZM3.46369 3.33325H5.19529V4.99992H3.46369V3.33325ZM5.19529 6.66659H3.46369V8.33325H5.19529V6.66659ZM6.9269 3.33325H8.6585V4.99992H6.9269V3.33325ZM8.6585 6.66659H6.9269V8.33325H8.6585V6.66659Z" fill="#5F6B73"/>
</svg>
