<svg width="18" height="18" viewBox="0 0 18 18" fill="none" xmlns="http://www.w3.org/2000/svg">
<path d="M9.00076 0.666748C4.3977 0.666748 0.666992 4.39746 0.666992 8.99965C0.666878 10.0941 0.88236 11.1778 1.30113 12.189C1.7199 13.2001 2.33376 14.1189 3.10764 14.8928C3.88153 15.6667 4.80028 16.2805 5.81143 16.6993C6.82258 17.118 7.90632 17.3335 9.00076 17.3334C13.6021 17.3334 17.3337 13.6027 17.3337 8.99965C17.3337 4.39746 13.6021 0.666748 9.00076 0.666748ZM9.7785 3.67527C10.591 3.67527 10.8297 4.1466 10.8297 4.68564C10.8297 5.35834 10.2915 5.98071 9.37227 5.98071C8.60321 5.98071 8.23691 5.59444 8.25948 4.95472C8.25948 4.41568 8.70998 3.67527 9.7785 3.67527ZM7.69701 13.9907C7.14148 13.9907 6.73612 13.6531 7.12412 12.1731L7.76037 9.54736C7.87061 9.12724 7.88884 8.95885 7.76037 8.95885C7.59458 8.95885 6.87327 9.24877 6.44794 9.53521L6.17105 9.08124C7.5208 7.9537 9.0728 7.29227 9.73683 7.29227C10.2924 7.29227 10.3844 7.94849 10.1075 8.95885L9.37835 11.7191C9.24901 12.2069 9.30456 12.3753 9.4339 12.3753C9.60055 12.3753 10.1457 12.174 10.6821 11.7512L10.9963 12.1731C9.68302 13.4855 8.25167 13.9907 7.69701 13.9907Z" fill="#448ADD"/>
</svg>
