<svg width="34" height="32" viewBox="0 0 34 32" fill="none" xmlns="http://www.w3.org/2000/svg">
<path fill-rule="evenodd" clip-rule="evenodd" d="M15.334 30.3336C15.334 29.4131 16.0802 28.6669 17.0007 28.6669H32.0007C32.9212 28.6669 33.6674 29.4131 33.6674 30.3336C33.6674 31.254 32.9212 32.0002 32.0007 32.0002H17.0007C16.0802 32.0002 15.334 31.254 15.334 30.3336Z" fill="white"/>
<path fill-rule="evenodd" clip-rule="evenodd" d="M23.3222 1.65504C24.2978 0.679435 25.621 0.131348 27.0007 0.131348C27.6839 0.131348 28.3603 0.265907 28.9915 0.527342C29.6226 0.788777 30.1961 1.17197 30.6792 1.65504C31.1623 2.13811 31.5455 2.71159 31.8069 3.34275C32.0683 3.97391 32.2029 4.65038 32.2029 5.33355C32.2029 6.01671 32.0683 6.69319 31.8069 7.32434C31.5455 7.95551 31.1623 8.52899 30.6792 9.01206L9.84586 29.8454C9.63227 30.059 9.36463 30.2105 9.07158 30.2838L2.40491 31.9505C1.83695 32.0924 1.23614 31.926 0.822175 31.5121C0.408208 31.0981 0.241793 30.4973 0.383782 29.9293L2.05045 23.2627C2.12371 22.9696 2.27524 22.702 2.48884 22.4884L23.3222 1.65504Z" fill="white"/>
</svg>
