<svg width="28" height="24" viewBox="0 0 28 24" fill="none" xmlns="http://www.w3.org/2000/svg">
<path d="M4.80468 0C3.70723 0 2.65473 0.421427 1.87872 1.17157C1.10271 1.92172 0.666748 2.93913 0.666748 4V17.3333C0.666748 18.3942 1.10271 19.4116 1.87872 20.1618C2.65473 20.9119 3.70723 21.3333 4.80468 21.3333H16.0736C15.0272 20.0731 14.4578 18.5049 14.4598 16.8889C14.4598 16.5491 14.533 16.2131 14.6749 15.9022C14.8167 15.5913 15.024 15.3124 15.2836 15.0833C15.5432 14.8542 15.8493 14.68 16.1824 14.5716C16.5156 14.4633 16.8684 14.4233 17.2185 14.4542V13.3333C17.2185 12.1546 17.7029 11.0241 18.5651 10.1906C19.4273 9.35714 20.5968 8.88889 21.8162 8.88889C23.0356 8.88889 24.205 9.35714 25.0672 10.1906C25.9295 11.0241 26.4139 12.1546 26.4139 13.3333V4C26.4139 2.93913 25.9779 1.92172 25.2019 1.17157C24.4259 0.421427 23.3734 0 22.2759 0H4.80468ZM6.18399 5.33333C6.18399 5.09759 6.28087 4.87149 6.45332 4.70479C6.62576 4.53809 6.85965 4.44444 7.10353 4.44444H12.6208C12.8646 4.44444 13.0985 4.53809 13.271 4.70479C13.4434 4.87149 13.5403 5.09759 13.5403 5.33333C13.5403 5.56908 13.4434 5.79517 13.271 5.96187C13.0985 6.12857 12.8646 6.22222 12.6208 6.22222H7.10353C6.85965 6.22222 6.62576 6.12857 6.45332 5.96187C6.28087 5.79517 6.18399 5.56908 6.18399 5.33333ZM7.10353 13.3333H12.6208C12.8646 13.3333 13.0985 13.427 13.271 13.5937C13.4434 13.7604 13.5403 13.9865 13.5403 14.2222C13.5403 14.458 13.4434 14.6841 13.271 14.8508C13.0985 15.0175 12.8646 15.1111 12.6208 15.1111H7.10353C6.85965 15.1111 6.62576 15.0175 6.45332 14.8508C6.28087 14.6841 6.18399 14.458 6.18399 14.2222C6.18399 13.9865 6.28087 13.7604 6.45332 13.5937C6.62576 13.427 6.85965 13.3333 7.10353 13.3333ZM6.18399 9.77778C6.18399 9.54203 6.28087 9.31594 6.45332 9.14924C6.62576 8.98254 6.85965 8.88889 7.10353 8.88889H15.3794C15.6233 8.88889 15.8572 8.98254 16.0296 9.14924C16.202 9.31594 16.2989 9.54203 16.2989 9.77778C16.2989 10.0135 16.202 10.2396 16.0296 10.4063C15.8572 10.573 15.6233 10.6667 15.3794 10.6667H7.10353C6.85965 10.6667 6.62576 10.573 6.45332 10.4063C6.28087 10.2396 6.18399 10.0135 6.18399 9.77778ZM17.704 20.4444C16.7971 19.4679 16.2965 18.2012 16.2989 16.8889C16.2989 16.7121 16.3716 16.5425 16.5009 16.4175C16.6303 16.2925 16.8057 16.2222 16.9886 16.2222C17.1715 16.2222 17.3469 16.2925 17.4762 16.4175C17.6056 16.5425 17.6782 16.7121 17.6782 16.8889C17.6782 17.9129 18.0764 18.848 18.732 19.5556C19.4316 20.3152 20.4056 20.7869 21.4539 20.8738L21.4695 20.8756C21.816 20.9033 22.1647 20.8893 22.5077 20.8338L22.5242 20.8302C23.1025 20.7338 23.6527 20.5189 24.138 20.2C24.572 19.9156 24.9472 19.5529 25.2415 19.1333C25.7072 18.4716 25.9556 17.6893 25.9541 16.8889C25.9541 16.7121 26.0268 16.5425 26.1561 16.4175C26.2854 16.2925 26.4608 16.2222 26.6438 16.2222C26.8267 16.2222 27.0021 16.2925 27.1314 16.4175C27.2607 16.5425 27.3334 16.7121 27.3334 16.8889C27.3351 17.9565 27.0037 18.9998 26.3826 19.8827C25.9897 20.4414 25.4912 20.9233 24.9132 21.3031C24.2589 21.7334 23.5161 22.0218 22.7357 22.1484V23.3333C22.7357 23.5101 22.663 23.6797 22.5337 23.8047C22.4044 23.9298 22.229 24 22.0461 24C21.8631 24 21.6877 23.9298 21.5584 23.8047C21.4291 23.6797 21.3564 23.5101 21.3564 23.3333V22.2044C20.4303 22.1309 19.5386 21.8312 18.7651 21.3333C18.3739 21.0817 18.0173 20.783 17.704 20.4444ZM19.0575 13.3333C19.0575 12.9831 19.1289 12.6364 19.2675 12.3128C19.4062 11.9893 19.6094 11.6953 19.8655 11.4477C20.1217 11.2001 20.4258 11.0037 20.7605 10.8697C21.0952 10.7356 21.4539 10.6667 21.8162 10.6667C22.1784 10.6667 22.5372 10.7356 22.8718 10.8697C23.2065 11.0037 23.5106 11.2001 23.7668 11.4477C24.023 11.6953 24.2262 11.9893 24.3648 12.3128C24.5034 12.6364 24.5748 12.9831 24.5748 13.3333V16.8889C24.5748 17.2391 24.5034 17.5858 24.3648 17.9094C24.2262 18.2329 24.023 18.5269 23.7668 18.7745C23.5106 19.0221 23.2065 19.2186 22.8718 19.3526C22.5372 19.4866 22.1784 19.5556 21.8162 19.5556C21.4539 19.5556 21.0952 19.4866 20.7605 19.3526C20.4258 19.2186 20.1217 19.0221 19.8655 18.7745C19.6094 18.5269 19.4062 18.2329 19.2675 17.9094C19.1289 17.5858 19.0575 17.2391 19.0575 16.8889V13.3333Z" fill="url(#paint0_linear_11015_44695)"/>
<defs>
<linearGradient id="paint0_linear_11015_44695" x1="19.1971" y1="-4.75949" x2="10.0698" y2="23.1895" gradientUnits="userSpaceOnUse">
<stop stop-color="#7CBEFA"/>
<stop offset="1" stop-color="#626EDA"/>
</linearGradient>
</defs>
</svg>
