<svg width="26" height="26" viewBox="0 0 26 26" fill="none" xmlns="http://www.w3.org/2000/svg">
<path d="M14.5625 2.0625C14.5625 1.6481 14.3979 1.25067 14.1049 0.957646C13.8118 0.66462 13.4144 0.5 13 0.5C12.5856 0.5 12.1882 0.66462 11.8951 0.957646C11.6021 1.25067 11.4375 1.6481 11.4375 2.0625V3.625C11.4375 4.0394 11.6021 4.43683 11.8951 4.72985C12.1882 5.02288 12.5856 5.1875 13 5.1875C13.4144 5.1875 13.8118 5.02288 14.1049 4.72985C14.3979 4.43683 14.5625 4.0394 14.5625 3.625V2.0625Z" fill="#5F6B73"/>
<path d="M21.8386 6.37015C22.1232 6.07546 22.2807 5.68077 22.2772 5.27109C22.2736 4.86141 22.1093 4.46951 21.8196 4.17981C21.5299 3.89011 21.138 3.72579 20.7283 3.72223C20.3186 3.71867 19.9239 3.87616 19.6292 4.16078L18.5245 5.26547C18.2399 5.56016 18.0824 5.95485 18.086 6.36453C18.0896 6.77421 18.2539 7.16611 18.5436 7.45581C18.8333 7.74551 19.2252 7.90984 19.6349 7.9134C20.0445 7.91696 20.4392 7.75946 20.7339 7.47484L21.8386 6.37015Z" fill="#5F6B73"/>
<path d="M25.5 13C25.5 13.4144 25.3354 13.8118 25.0424 14.1049C24.7493 14.3979 24.3519 14.5625 23.9375 14.5625H22.375C21.9606 14.5625 21.5632 14.3979 21.2701 14.1049C20.9771 13.8118 20.8125 13.4144 20.8125 13C20.8125 12.5856 20.9771 12.1882 21.2701 11.8951C21.5632 11.6021 21.9606 11.4375 22.375 11.4375H23.9375C24.3519 11.4375 24.7493 11.6021 25.0424 11.8951C25.3354 12.1882 25.5 12.5856 25.5 13Z" fill="#5F6B73"/>
<path d="M5.26596 7.47484C5.41009 7.62408 5.58251 7.74311 5.77314 7.825C5.96377 7.90689 6.1688 7.94999 6.37627 7.9518C6.58373 7.9536 6.78948 7.91407 6.98151 7.8355C7.17354 7.75694 7.34799 7.64092 7.4947 7.49421C7.64141 7.3475 7.75743 7.17305 7.83599 6.98102C7.91455 6.789 7.95409 6.58325 7.95229 6.37578C7.95048 6.16831 7.90738 5.96328 7.82549 5.77265C7.7436 5.58202 7.62457 5.4096 7.47533 5.26547L6.37064 4.16078C6.07595 3.87616 5.68126 3.71867 5.27158 3.72223C4.8619 3.72579 4.47 3.89011 4.1803 4.17981C3.8906 4.46951 3.72628 4.86141 3.72272 5.27109C3.71916 5.68077 3.87665 6.07546 4.16127 6.37016L5.26596 7.47484Z" fill="#5F6B73"/>
<path d="M5.1875 13C5.1875 13.4144 5.02288 13.8118 4.72985 14.1049C4.43683 14.3979 4.0394 14.5625 3.625 14.5625H2.0625C1.6481 14.5625 1.25067 14.3979 0.957646 14.1049C0.66462 13.8118 0.5 13.4144 0.5 13C0.5 12.5856 0.66462 12.1882 0.957646 11.8951C1.25067 11.6021 1.6481 11.4375 2.0625 11.4375H3.625C4.0394 11.4375 4.43683 11.6021 4.72985 11.8951C5.02288 12.1882 5.1875 12.5856 5.1875 13Z" fill="#5F6B73"/>
<path d="M9.875 22.375V20.8125H16.125V22.375C16.125 23.2038 15.7958 23.9987 15.2097 24.5847C14.6237 25.1708 13.8288 25.5 13 25.5C12.1712 25.5 11.3763 25.1708 10.7903 24.5847C10.2042 23.9987 9.875 23.2038 9.875 22.375Z" fill="#5F6B73"/>
<path d="M16.125 19.2501C16.1484 18.7189 16.45 18.2408 16.8703 17.9079C17.8901 17.1037 18.634 16.0016 18.9987 14.7551C19.3633 13.5085 19.3305 12.1793 18.9048 10.9522C18.4792 9.72513 17.6818 8.66114 16.6236 7.90813C15.5653 7.15512 14.2988 6.75049 13 6.75049C11.7012 6.75049 10.4346 7.15512 9.37641 7.90813C8.31817 8.66114 7.52082 9.72513 7.09517 10.9522C6.66952 12.1793 6.63672 13.5085 7.00134 14.7551C7.36596 16.0016 8.10987 17.1037 9.12969 17.9079C9.55156 18.2408 9.85156 18.7189 9.87344 19.2501H16.1266H16.125Z" fill="#5F6B73"/>
</svg>
