<svg width="86" height="58" viewBox="0 0 86 58" fill="none" xmlns="http://www.w3.org/2000/svg">
<path d="M75.792 62.6459H16.2087C14.9482 62.6459 13.917 63.642 13.917 64.8595V69.2865C13.917 70.504 14.9482 71.5001 16.2087 71.5001H75.792C77.0524 71.5001 78.0837 70.504 78.0837 69.2865V64.8595C78.0837 63.642 77.0524 62.6459 75.792 62.6459ZM84.9587 18.3751C81.1631 18.3751 78.0837 21.3495 78.0837 25.0157C78.0837 25.998 78.3128 26.9111 78.7139 27.755L68.3441 33.7592C66.1383 35.032 63.2881 34.3126 62.0133 32.1544L50.3402 12.4262C51.8727 11.2087 52.8753 9.38257 52.8753 7.30737C52.8753 3.64119 49.7959 0.666748 46.0003 0.666748C42.2048 0.666748 39.1253 3.64119 39.1253 7.30737C39.1253 9.38257 40.1279 11.2087 41.6605 12.4262L29.9873 32.1544C28.7126 34.3126 25.848 35.032 23.6566 33.7592L13.3011 27.755C13.6878 26.9249 13.9313 25.998 13.9313 25.0157C13.9313 21.3495 10.8519 18.3751 7.05631 18.3751C3.26074 18.3751 0.166992 21.3495 0.166992 25.0157C0.166992 28.6819 3.24642 31.6563 7.04199 31.6563C7.41439 31.6563 7.78678 31.601 8.14486 31.5457L18.5003 58.2188H73.5003L83.8558 31.5457C84.2139 31.601 84.5863 31.6563 84.9587 31.6563C88.7542 31.6563 91.8336 28.6819 91.8336 25.0157C91.8336 21.3495 88.7542 18.3751 84.9587 18.3751Z" fill="#FFEAB6"/>
</svg>
