<svg width="18" height="21" viewBox="0 0 18 21" fill="none" xmlns="http://www.w3.org/2000/svg">
<path d="M6.9045 17.6505L6.582 18.711C2.4285 18.3435 0 15.51 0 12.75V12C0 11.4033 0.237053 10.831 0.65901 10.409C1.08097 9.98705 1.65326 9.75 2.25 9.75H9.06C8.21714 10.3417 7.52924 11.1277 7.05455 12.0416C6.57987 12.9554 6.33236 13.9702 6.333 15C6.333 15.945 6.537 16.842 6.9045 17.6505ZM7.5 0C8.59402 0 9.64323 0.434597 10.4168 1.20818C11.1904 1.98177 11.625 3.03098 11.625 4.125C11.625 5.21902 11.1904 6.26823 10.4168 7.04182C9.64323 7.8154 8.59402 8.25 7.5 8.25C6.40598 8.25 5.35677 7.8154 4.58318 7.04182C3.8096 6.26823 3.375 5.21902 3.375 4.125C3.375 3.03098 3.8096 1.98177 4.58318 1.20818C5.35677 0.434597 6.40598 0 7.5 0ZM18 15C18.0002 15.9139 17.7619 16.8121 17.3085 17.6057C16.8552 18.3993 16.2025 19.0607 15.4151 19.5247C14.6276 19.9886 13.7327 20.2389 12.8189 20.2509C11.905 20.2629 11.0038 20.0361 10.2045 19.593L8.1165 20.2275C8.03375 20.2528 7.94568 20.255 7.86173 20.2341C7.77777 20.2132 7.7011 20.1698 7.63992 20.1086C7.57874 20.0474 7.53535 19.9707 7.5144 19.8868C7.49345 19.8028 7.49573 19.7148 7.521 19.632L8.157 17.5455C7.76891 16.8446 7.5464 16.0641 7.50651 15.2639C7.46662 14.4637 7.61041 13.665 7.92686 12.9289C8.24331 12.1928 8.72404 11.539 9.33221 11.0174C9.94038 10.4958 10.6599 10.1203 11.4355 9.91972C12.2112 9.71912 13.0225 9.69871 13.8073 9.86007C14.5921 10.0214 15.3295 10.3603 15.9632 10.8506C16.5968 11.341 17.1098 11.9699 17.4628 12.6891C17.8159 13.4083 17.9996 14.1988 18 15ZM11.25 12.75C11.0511 12.75 10.8603 12.829 10.7197 12.9697C10.579 13.1103 10.5 13.3011 10.5 13.5C10.5 13.6989 10.579 13.8897 10.7197 14.0303C10.8603 14.171 11.0511 14.25 11.25 14.25H14.25C14.4489 14.25 14.6397 14.171 14.7803 14.0303C14.921 13.8897 15 13.6989 15 13.5C15 13.3011 14.921 13.1103 14.7803 12.9697C14.6397 12.829 14.4489 12.75 14.25 12.75H11.25ZM10.5 16.5C10.5 16.6989 10.579 16.8897 10.7197 17.0303C10.8603 17.171 11.0511 17.25 11.25 17.25H12.75C12.9489 17.25 13.1397 17.171 13.2803 17.0303C13.421 16.8897 13.5 16.6989 13.5 16.5C13.5 16.3011 13.421 16.1103 13.2803 15.9697C13.1397 15.829 12.9489 15.75 12.75 15.75H11.25C11.0511 15.75 10.8603 15.829 10.7197 15.9697C10.579 16.1103 10.5 16.3011 10.5 16.5Z" fill="#5F6B73"/>
</svg>
