<svg width="21" height="20" viewBox="0 0 21 20" fill="none" xmlns="http://www.w3.org/2000/svg">
<path d="M10.591 10C12.8924 10 14.7577 8.13479 14.7577 5.83335C14.7577 3.53192 12.8924 1.66669 10.591 1.66669C8.28955 1.66669 6.42432 3.53192 6.42432 5.83335C6.42432 8.13479 8.28955 10 10.591 10ZM13.5077 11.0417H12.964C12.2414 11.3737 11.4373 11.5625 10.591 11.5625C9.74463 11.5625 8.94385 11.3737 8.21794 11.0417H7.67432C5.25895 11.0417 3.29932 13.0013 3.29932 15.4167V16.7709C3.29932 17.6335 3.99919 18.3334 4.86182 18.3334H16.3202C17.1828 18.3334 17.8827 17.6335 17.8827 16.7709V15.4167C17.8827 13.0013 15.923 11.0417 13.5077 11.0417Z" fill="#2D3033"/>
</svg>
