<svg width="20" height="20" viewBox="0 0 20 20" fill="none" xmlns="http://www.w3.org/2000/svg">
<path d="M0 3.05556C0 2.24517 0.321924 1.46798 0.894952 0.894952C1.46798 0.321924 2.24517 1.11011e-07 3.05556 1.11011e-07H14.1267C14.6011 -0.000117513 15.0708 0.0932395 15.5091 0.274737C15.9474 0.456235 16.3457 0.722316 16.6811 1.05778L18.9422 3.31889C19.62 3.99667 20 4.91556 20 5.87333V16.9444C20 17.7548 19.6781 18.532 19.105 19.105C18.532 19.6781 17.7548 20 16.9444 20H3.05556C2.24517 20 1.46798 19.6781 0.894952 19.105C0.321924 18.532 0 17.7548 0 16.9444V3.05556ZM3.05556 1.66667C2.28889 1.66667 1.66667 2.28889 1.66667 3.05556V16.9444C1.66667 17.7111 2.28889 18.3333 3.05556 18.3333H3.33333V12.5C3.33333 11.837 3.59673 11.2011 4.06557 10.7322C4.53441 10.2634 5.17029 10 5.83333 10H14.1667C14.8297 10 15.4656 10.2634 15.9344 10.7322C16.4033 11.2011 16.6667 11.837 16.6667 12.5V18.3333H16.9444C17.7111 18.3333 18.3333 17.7111 18.3333 16.9444V5.87333C18.3333 5.35667 18.1289 4.86222 17.7633 4.49778L15.5022 2.23667C15.2152 1.94913 14.8453 1.75873 14.4444 1.69222V4.72222C14.4444 5.05053 14.3798 5.37562 14.2541 5.67893C14.1285 5.98224 13.9444 6.25784 13.7122 6.48999C13.4801 6.72214 13.2045 6.90628 12.9012 7.03192C12.5978 7.15756 12.2727 7.22222 11.9444 7.22222H6.94444C6.2814 7.22222 5.64552 6.95883 5.17668 6.48999C4.70784 6.02115 4.44444 5.38526 4.44444 4.72222V1.66667H3.05556ZM15 18.3333V12.5C15 12.279 14.9122 12.067 14.7559 11.9107C14.5996 11.7545 14.3877 11.6667 14.1667 11.6667H5.83333C5.61232 11.6667 5.40036 11.7545 5.24408 11.9107C5.0878 12.067 5 12.279 5 12.5V18.3333H15ZM6.11111 1.66667V4.72222C6.11111 5.18222 6.48444 5.55556 6.94444 5.55556H11.9444C12.1655 5.55556 12.3774 5.46776 12.5337 5.31148C12.69 5.1552 12.7778 4.94324 12.7778 4.72222V1.66667H6.11111Z" fill="#5F6B73"/>
</svg>
