<svg width="16" height="14" viewBox="0 0 16 14" fill="none" xmlns="http://www.w3.org/2000/svg">
<path d="M15.7373 4.49908L15.7382 4.50003C15.7517 4.5135 15.7573 4.54352 15.7346 4.56755L12.2051 8.06958C12.205 8.0697 12.2049 8.06982 12.2048 8.06994C12.1837 8.09017 12.1548 8.08738 12.1387 8.07088L12.1374 8.06962L10.0962 6.01338C10.096 6.01325 10.0959 6.01312 10.0958 6.01298C10.0756 5.99194 10.0784 5.96306 10.0949 5.94692L10.0961 5.94566L10.7974 5.24942C10.7975 5.24929 10.7976 5.24916 10.7977 5.24904C10.8188 5.22883 10.8477 5.23162 10.8638 5.24812L10.8651 5.24944L12.0026 6.39444L12.1787 6.5717L12.3561 6.3957L14.9749 3.79692C14.975 3.7968 14.9751 3.79668 14.9752 3.79656C14.9963 3.77633 15.0252 3.77912 15.0413 3.79562L15.0423 3.79658L15.7373 4.49908ZM8.54999 3.53325C8.54999 5.16268 7.22942 6.48325 5.6 6.48325C3.97057 6.48325 2.65 5.16268 2.65 3.53325C2.65 1.90382 3.97057 0.583252 5.6 0.583252C7.22942 0.583252 8.54999 1.90382 8.54999 3.53325ZM5.6 8.18325C6.26785 8.18325 6.90313 8.03848 7.4764 7.78325H7.84C9.55692 7.78325 10.95 9.17632 10.95 10.8932V11.9332C10.95 12.4577 10.5244 12.8832 9.99999 12.8832H1.2C0.675571 12.8832 0.25 12.4577 0.25 11.9332V10.8932C0.25 9.17632 1.64307 7.78325 3.36 7.78325H3.7238C4.2989 8.03833 4.9318 8.18325 5.6 8.18325Z" fill="#448ADD" stroke="#448ADD" stroke-width="0.5"/>
</svg>
