<svg width="15" height="14" viewBox="0 0 15 14" fill="none" xmlns="http://www.w3.org/2000/svg">
<path fill-rule="evenodd" clip-rule="evenodd" d="M1.52961 2.14171C1.86872 1.8026 2.32864 1.61209 2.80821 1.61209H7.02737C7.36025 1.61209 7.6301 1.88195 7.6301 2.21483C7.6301 2.54771 7.36025 2.81757 7.02737 2.81757H2.80821C2.64835 2.81757 2.49505 2.88107 2.38201 2.9941C2.26898 3.10714 2.20547 3.26045 2.20547 3.4203V11.8586C2.20547 12.0185 2.26898 12.1718 2.38201 12.2848C2.49505 12.3979 2.64835 12.4614 2.80821 12.4614H11.2465C11.4064 12.4614 11.5597 12.3979 11.6727 12.2848C11.7858 12.1718 11.8493 12.0185 11.8493 11.8586V7.63946C11.8493 7.30658 12.1191 7.03673 12.452 7.03673C12.7849 7.03673 13.0547 7.30658 13.0547 7.63946V11.8586C13.0547 12.3382 12.8642 12.7981 12.5251 13.1372C12.186 13.4763 11.7261 13.6668 11.2465 13.6668H2.80821C2.32864 13.6668 1.86872 13.4763 1.52961 13.1372C1.19051 12.7981 1 12.3382 1 11.8586V3.4203C1 2.94074 1.19051 2.48081 1.52961 2.14171Z" fill="#448ADD"/>
<path fill-rule="evenodd" clip-rule="evenodd" d="M12.452 1.53897C12.2727 1.53897 12.1008 1.61018 11.9741 1.73692L6.36614 7.34487L6.04754 8.61929L7.32196 8.30069L12.9299 2.69274C13.0567 2.56599 13.1279 2.39408 13.1279 2.21483C13.1279 2.03558 13.0567 1.86367 12.9299 1.73692C12.8032 1.61018 12.6312 1.53897 12.452 1.53897ZM11.1217 0.884526C11.4745 0.531708 11.953 0.333496 12.452 0.333496C12.951 0.333496 13.4295 0.531708 13.7823 0.884526C14.1351 1.23734 14.3333 1.71587 14.3333 2.21483C14.3333 2.71379 14.1351 3.19232 13.7823 3.54513L8.0563 9.27113C7.97906 9.34838 7.88227 9.40318 7.77629 9.42968L5.36534 10.0324C5.15995 10.0838 4.94267 10.0236 4.79296 9.87387C4.64325 9.72416 4.58307 9.50688 4.63442 9.30149L5.23715 6.89054C5.26365 6.78456 5.31845 6.68777 5.3957 6.61053L11.1217 0.884526Z" fill="#448ADD"/>
<path fill-rule="evenodd" clip-rule="evenodd" d="M1.52961 2.14171C1.86872 1.8026 2.32864 1.61209 2.80821 1.61209H7.02737C7.36025 1.61209 7.6301 1.88195 7.6301 2.21483C7.6301 2.54771 7.36025 2.81757 7.02737 2.81757H2.80821C2.64835 2.81757 2.49505 2.88107 2.38201 2.9941C2.26898 3.10714 2.20547 3.26045 2.20547 3.4203V11.8586C2.20547 12.0185 2.26898 12.1718 2.38201 12.2848C2.49505 12.3979 2.64835 12.4614 2.80821 12.4614H11.2465C11.4064 12.4614 11.5597 12.3979 11.6727 12.2848C11.7858 12.1718 11.8493 12.0185 11.8493 11.8586V7.63946C11.8493 7.30658 12.1191 7.03673 12.452 7.03673C12.7849 7.03673 13.0547 7.30658 13.0547 7.63946V11.8586C13.0547 12.3382 12.8642 12.7981 12.5251 13.1372C12.186 13.4763 11.7261 13.6668 11.2465 13.6668H2.80821C2.32864 13.6668 1.86872 13.4763 1.52961 13.1372C1.19051 12.7981 1 12.3382 1 11.8586V3.4203C1 2.94074 1.19051 2.48081 1.52961 2.14171Z" stroke="#448ADD" stroke-width="0.5" stroke-linecap="round" stroke-linejoin="round"/>
<path fill-rule="evenodd" clip-rule="evenodd" d="M12.452 1.53897C12.2727 1.53897 12.1008 1.61018 11.9741 1.73692L6.36614 7.34487L6.04754 8.61929L7.32196 8.30069L12.9299 2.69274C13.0567 2.56599 13.1279 2.39408 13.1279 2.21483C13.1279 2.03558 13.0567 1.86367 12.9299 1.73692C12.8032 1.61018 12.6312 1.53897 12.452 1.53897ZM11.1217 0.884526C11.4745 0.531708 11.953 0.333496 12.452 0.333496C12.951 0.333496 13.4295 0.531708 13.7823 0.884526C14.1351 1.23734 14.3333 1.71587 14.3333 2.21483C14.3333 2.71379 14.1351 3.19232 13.7823 3.54513L8.0563 9.27113C7.97906 9.34838 7.88227 9.40318 7.77629 9.42968L5.36534 10.0324C5.15995 10.0838 4.94267 10.0236 4.79296 9.87387C4.64325 9.72416 4.58307 9.50688 4.63442 9.30149L5.23715 6.89054C5.26365 6.78456 5.31845 6.68777 5.3957 6.61053L11.1217 0.884526Z" stroke="#448ADD" stroke-width="0.5" stroke-linecap="round" stroke-linejoin="round"/>
</svg>
