<svg width="62" height="62" viewBox="0 0 62 62" fill="none" xmlns="http://www.w3.org/2000/svg">
<g filter="url(#filter0_ddd_10021_20298)">
<circle cx="31" cy="30" r="21" fill="#448ADD"/>
</g>
<path fill-rule="evenodd" clip-rule="evenodd" d="M25.1667 24.75V27.0833H24.8021C24.1253 27.0833 23.4762 27.3343 22.9975 27.781C22.5189 28.2277 22.2501 28.8335 22.2501 29.4653V37.3403C22.2501 38.6551 23.3934 39.7222 24.8021 39.7222H37.198C37.8748 39.7222 38.5239 39.4712 39.0025 39.0245C39.4811 38.5778 39.7501 37.972 39.7501 37.3403V29.4653C39.7501 28.8335 39.4811 28.2277 39.0025 27.781C38.5239 27.3343 37.8748 27.0833 37.198 27.0833H36.8334V24.75C36.8334 23.306 36.2189 21.9212 35.1248 20.9002C34.0309 19.8792 32.5472 19.3055 31.0001 19.3055C29.453 19.3055 27.9692 19.8792 26.8753 20.9002C25.7813 21.9212 25.1667 23.306 25.1667 24.75ZM34.8889 27.0833V24.75C34.8889 23.8475 34.5048 22.982 33.8211 22.3439C33.1374 21.7057 31.967 21.25 31.0001 21.25C30.0331 21.25 28.8627 21.7057 28.179 22.3439C27.4953 22.982 27.1112 23.8475 27.1112 24.75V27.0833H34.8889Z" fill="white"/>
<defs>
<filter id="filter0_ddd_10021_20298" x="0" y="0" width="62" height="62" filterUnits="userSpaceOnUse" color-interpolation-filters="sRGB">
<feFlood flood-opacity="0" result="BackgroundImageFix"/>
<feColorMatrix in="SourceAlpha" type="matrix" values="0 0 0 0 0 0 0 0 0 0 0 0 0 0 0 0 0 0 127 0" result="hardAlpha"/>
<feOffset dy="2"/>
<feGaussianBlur stdDeviation="2"/>
<feColorMatrix type="matrix" values="0 0 0 0 0.101961 0 0 0 0 0.227451 0 0 0 0 0.411765 0 0 0 0.1 0"/>
<feBlend mode="normal" in2="BackgroundImageFix" result="effect1_dropShadow_10021_20298"/>
<feColorMatrix in="SourceAlpha" type="matrix" values="0 0 0 0 0 0 0 0 0 0 0 0 0 0 0 0 0 0 127 0" result="hardAlpha"/>
<feOffset dy="1"/>
<feGaussianBlur stdDeviation="5"/>
<feColorMatrix type="matrix" values="0 0 0 0 0.101961 0 0 0 0 0.227451 0 0 0 0 0.411765 0 0 0 0.1 0"/>
<feBlend mode="normal" in2="effect1_dropShadow_10021_20298" result="effect2_dropShadow_10021_20298"/>
<feColorMatrix in="SourceAlpha" type="matrix" values="0 0 0 0 0 0 0 0 0 0 0 0 0 0 0 0 0 0 127 0" result="hardAlpha"/>
<feOffset dy="4"/>
<feGaussianBlur stdDeviation="2.5"/>
<feColorMatrix type="matrix" values="0 0 0 0 0.103125 0 0 0 0 0.226875 0 0 0 0 0.4125 0 0 0 0.1 0"/>
<feBlend mode="normal" in2="effect2_dropShadow_10021_20298" result="effect3_dropShadow_10021_20298"/>
<feBlend mode="normal" in="SourceGraphic" in2="effect3_dropShadow_10021_20298" result="shape"/>
</filter>
</defs>
</svg>
