<svg version="1.0" xmlns="http://www.w3.org/2000/svg"
 width="40px" height="16px" viewBox="0 0 132.000000 67.000000"
 preserveAspectRatio="xMidYMid meet">

<g transform="translate(0.000000,67.000000) scale(0.100000,-0.100000)"
fill="#606c74" stroke="none">
<path d="M236 527 c-9 -7 -20 -32 -23 -55 l-6 -42 -46 0 c-26 0 -52 -5 -59
-12 -7 -7 -12 -36 -12 -65 l0 -53 250 0 250 0 0 48 c0 65 -14 80 -75 84 -49 3
-50 4 -53 38 -6 60 -23 70 -122 70 -54 0 -93 -5 -104 -13z m164 -72 c0 -24 -3
-25 -59 -25 -60 0 -77 9 -67 35 4 11 22 15 66 15 57 0 60 -1 60 -25z"/>
<path d="M985 531 c-50 -13 -91 -38 -127 -81 -147 -171 10 -427 234 -379 107
23 178 114 178 227 0 114 -59 196 -164 227 -53 16 -74 17 -121 6z m83 -115 c2
-11 1 -52 -3 -93 -6 -63 -9 -73 -26 -73 -21 0 -25 13 -33 106 -6 66 4 87 39
82 11 -2 21 -12 23 -22z m-4 -212 c7 -19 -10 -44 -31 -44 -17 0 -27 24 -19 45
7 20 42 19 50 -1z"/>
<path d="M90 177 c0 -122 -10 -117 248 -117 259 0 252 -3 252 120 l0 80 -94 0
-95 0 -3 -32 c-3 -30 -6 -33 -42 -36 -65 -5 -86 4 -86 38 l0 30 -90 0 -90 0 0
-83z"/>
</g>
</svg>