<svg width="18" height="19" viewBox="0 0 18 19" fill="none" xmlns="http://www.w3.org/2000/svg">
<path d="M15 5H3V3.5H15V5ZM9.75 12.125C9.75 12.98 10.0725 13.895 10.5 14.75V15.5H3V11H2.25V9.5L3 5.75H15L15.525 8.375C15 8.135 14.46 8 13.875 8C11.625 8 9.75 9.875 9.75 12.125ZM9 11H4.5V14H9V11ZM16.5 12.125C16.5 14.075 13.875 17 13.875 17C13.875 17 11.25 14.075 11.25 12.125C11.25 10.7 12.45 9.5 13.875 9.5C15.3 9.5 16.5 10.7 16.5 12.125ZM14.775 12.2C14.775 11.75 14.325 11.3 13.875 11.3C13.425 11.3 12.975 11.675 12.975 12.2C12.975 12.65 13.35 13.1 13.875 13.1C14.4 13.1 14.85 12.65 14.775 12.2Z" fill="#2D3033"/>
</svg>
