<svg width="18" height="20" viewBox="0 0 18 20" fill="none" xmlns="http://www.w3.org/2000/svg">
<path d="M15.26 0.280762H2.74C2.01331 0.280762 1.31638 0.581991 0.802527 1.11818C0.288678 1.65437 0 2.3816 0 3.13989V16.2042C0 16.9625 0.288678 17.6898 0.802527 18.226C1.31638 18.7621 2.01331 19.0634 2.74 19.0634H15.26C15.9867 19.0634 16.6836 18.7621 17.1975 18.226C17.7113 17.6898 18 16.9625 18 16.2042V3.13989C18 2.3816 17.7113 1.65437 17.1975 1.11818C16.6836 0.581991 15.9867 0.280762 15.26 0.280762ZM4 8.62859H2V6.54163H4V8.62859ZM2 10.7155H4V12.8025H2V10.7155ZM16 8.62859H14V6.54163H16V8.62859ZM14 10.7155H16V12.8025H14V10.7155ZM16 3.13989V4.45467H14V2.36772H15.26C15.3572 2.36772 15.4534 2.38769 15.5432 2.4265C15.633 2.4653 15.7145 2.52218 15.7833 2.59388C15.852 2.66559 15.9065 2.75071 15.9437 2.84439C15.9809 2.93808 16 3.03849 16 3.13989ZM2.74 2.36772H4V4.45467H2V3.13989C2 3.03849 2.01914 2.93808 2.05633 2.84439C2.09352 2.75071 2.14803 2.66559 2.21674 2.59388C2.28546 2.52218 2.36703 2.4653 2.45681 2.4265C2.5466 2.38769 2.64282 2.36772 2.74 2.36772ZM2 16.2042V14.8895H4V16.9764H2.74C2.64282 16.9764 2.5466 16.9564 2.45681 16.9176C2.36703 16.8788 2.28546 16.822 2.21674 16.7502C2.14803 16.6785 2.09352 16.5934 2.05633 16.4997C2.01914 16.4061 2 16.3056 2 16.2042ZM16 16.2042C16 16.409 15.922 16.6054 15.7833 16.7502C15.6445 16.8951 15.4563 16.9764 15.26 16.9764H14V14.8895H16V16.2042Z" fill="#5F6B73"/>
</svg>
