<svg width="24" height="24" viewBox="0 0 24 24" fill="none" xmlns="http://www.w3.org/2000/svg">
<path d="M19.825 0.75H4.175C3.26663 0.75 2.39547 1.11085 1.75316 1.75316C1.11085 2.39547 0.75 3.26663 0.75 4.175V19.825C0.75 20.7334 1.11085 21.6045 1.75316 22.2468C2.39547 22.8892 3.26663 23.25 4.175 23.25H19.825C20.7334 23.25 21.6045 22.8892 22.2468 22.2468C22.8892 21.6045 23.25 20.7334 23.25 19.825V4.175C23.25 3.26663 22.8892 2.39547 22.2468 1.75316C21.6045 1.11085 20.7334 0.75 19.825 0.75ZM5.75 10.75H3.25V8.25H5.75V10.75ZM3.25 13.25H5.75V15.75H3.25V13.25ZM20.75 10.75H18.25V8.25H20.75V10.75ZM18.25 13.25H20.75V15.75H18.25V13.25ZM20.75 4.175V5.75H18.25V3.25H19.825C19.9465 3.25 20.0668 3.27393 20.179 3.32041C20.2912 3.3669 20.3932 3.43503 20.4791 3.52093C20.565 3.60682 20.6331 3.70879 20.6796 3.82102C20.7261 3.93324 20.75 4.05353 20.75 4.175ZM4.175 3.25H5.75V5.75H3.25V4.175C3.25 4.05353 3.27393 3.93324 3.32041 3.82102C3.3669 3.70879 3.43503 3.60682 3.52093 3.52093C3.60682 3.43503 3.70879 3.3669 3.82102 3.32041C3.93324 3.27393 4.05353 3.25 4.175 3.25ZM3.25 19.825V18.25H5.75V20.75H4.175C4.05353 20.75 3.93324 20.7261 3.82102 20.6796C3.70879 20.6331 3.60682 20.565 3.52093 20.4791C3.43503 20.3932 3.3669 20.2912 3.32041 20.179C3.27393 20.0668 3.25 19.9465 3.25 19.825ZM20.75 19.825C20.75 20.0703 20.6525 20.3056 20.4791 20.4791C20.3056 20.6525 20.0703 20.75 19.825 20.75H18.25V18.25H20.75V19.825Z" fill="#5F6B73"/>
</svg>
