<svg width="21" height="21" viewBox="0 0 21 21" fill="none" xmlns="http://www.w3.org/2000/svg">
<path d="M20.7993 12.6666C20.7993 13.1666 19.7993 13.5 18.6326 13.6666C17.8826 12.25 16.3826 11.1666 14.6326 10.4166C14.7993 10.1666 14.966 9.99998 15.1327 9.74998H15.7993C18.3826 9.66665 20.7993 11.25 20.7993 12.6666ZM6.46598 9.66665H5.79932C3.21598 9.66665 0.799316 11.25 0.799316 12.6666C0.799316 13.1666 1.79932 13.5 2.96598 13.6666C3.71598 12.25 5.21598 11.1666 6.96598 10.4166L6.46598 9.66665ZM10.7993 10.5C12.6326 10.5 14.1326 8.99998 14.1326 7.16665C14.1326 5.33331 12.6326 3.83331 10.7993 3.83331C8.96598 3.83331 7.46598 5.33331 7.46598 7.16665C7.46598 8.99998 8.96598 10.5 10.7993 10.5ZM10.7993 11.3333C7.38265 11.3333 4.13265 13.5 4.13265 15.5C4.13265 17.1666 10.7993 17.1666 10.7993 17.1666C10.7993 17.1666 17.466 17.1666 17.466 15.5C17.466 13.5 14.216 11.3333 10.7993 11.3333ZM15.5493 8.83331H15.7993C17.216 8.83331 18.2993 7.74998 18.2993 6.33331C18.2993 4.91665 17.216 3.83331 15.7993 3.83331C15.3826 3.83331 15.0493 3.91665 14.716 4.08331C15.3827 4.91665 15.7993 5.99998 15.7993 7.16665C15.7993 7.74998 15.716 8.33331 15.5493 8.83331ZM5.79932 8.83331H6.04932C5.88265 8.33331 5.79932 7.74998 5.79932 7.16665C5.79932 5.99998 6.21598 4.91665 6.88265 4.08331C6.54932 3.91665 6.21598 3.83331 5.79932 3.83331C4.38265 3.83331 3.29932 4.91665 3.29932 6.33331C3.29932 7.74998 4.38265 8.83331 5.79932 8.83331Z" fill="#2D3033"/>
</svg>
