<svg width="21" height="20" viewBox="0 0 21 20" fill="none" xmlns="http://www.w3.org/2000/svg">
<path d="M19.913 7.26624C20.0656 7.38517 20.1805 7.54583 20.2436 7.72874C20.2923 7.91161 20.288 8.10453 20.2314 8.28509C20.1747 8.46564 20.068 8.62642 19.9236 8.74874L15.7936 12.7487L16.7936 18.4287C16.8293 18.6162 16.8106 18.81 16.7398 18.9872C16.6689 19.1644 16.5488 19.3176 16.3936 19.4287C16.222 19.553 16.0155 19.6195 15.8036 19.6187C15.6425 19.6193 15.484 19.5779 15.3436 19.4987L10.2436 16.8187L5.12363 19.4887C4.9594 19.5758 4.77415 19.6154 4.58868 19.603C4.4032 19.5907 4.22485 19.5268 4.07363 19.4187C3.91848 19.3076 3.79838 19.1544 3.7275 18.9772C3.65662 18.8 3.63793 18.6062 3.67363 18.4187L4.67363 12.7387L0.54363 8.73874C0.415087 8.61046 0.323901 8.44961 0.279858 8.27343C0.235814 8.09726 0.240575 7.91241 0.29363 7.73874C0.35159 7.56101 0.458206 7.40309 0.60138 7.2829C0.744554 7.1627 0.918552 7.08504 1.10363 7.05874L6.79363 6.21874L9.34363 1.05874C9.42551 0.889668 9.55337 0.747081 9.71254 0.647312C9.87171 0.547544 10.0558 0.494629 10.2436 0.494629C10.4315 0.494629 10.6155 0.547544 10.7747 0.647312C10.9339 0.747081 11.0617 0.889668 11.1436 1.05874L13.6936 6.22874L19.3836 7.05874C19.5764 7.07523 19.7603 7.14732 19.913 7.26624Z" fill="#448ADD"/>
</svg>
