<svg width="25" height="24" viewBox="0 0 25 24" fill="none" xmlns="http://www.w3.org/2000/svg">
<path d="M4.11355 0.75C3.12756 0.75 2.18195 1.14509 1.48475 1.84835C0.787556 2.55161 0.395874 3.50544 0.395874 4.5V17C0.395874 17.9946 0.787556 18.9484 1.48475 19.6516C2.18195 20.3549 3.12756 20.75 4.11355 20.75H14.238C13.2978 19.5685 12.7863 18.0984 12.7881 16.5833C12.7881 16.2648 12.8539 15.9497 12.9813 15.6583C13.1087 15.3668 13.295 15.1054 13.5282 14.8906C13.7614 14.6758 14.0364 14.5125 14.3357 14.4109C14.6351 14.3094 14.9521 14.2719 15.2666 14.3008V13.25C15.2666 12.1449 15.7018 11.0851 16.4764 10.3037C17.2511 9.52232 18.3018 9.08333 19.3973 9.08333C20.4928 9.08333 21.5435 9.52232 22.3182 10.3037C23.0928 11.0851 23.5281 12.1449 23.5281 13.25V4.5C23.5281 3.50544 23.1364 2.55161 22.4392 1.84835C21.742 1.14509 20.7964 0.75 19.8104 0.75H4.11355ZM5.35277 5.75C5.35277 5.52899 5.43981 5.31702 5.59474 5.16074C5.74968 5.00446 5.95981 4.91667 6.17892 4.91667H11.1358C11.3549 4.91667 11.5651 5.00446 11.72 5.16074C11.8749 5.31702 11.962 5.52899 11.962 5.75C11.962 5.97101 11.8749 6.18297 11.72 6.33926C11.5651 6.49554 11.3549 6.58333 11.1358 6.58333H6.17892C5.95981 6.58333 5.74968 6.49554 5.59474 6.33926C5.43981 6.18297 5.35277 5.97101 5.35277 5.75ZM6.17892 13.25H11.1358C11.3549 13.25 11.5651 13.3378 11.72 13.4941C11.8749 13.6504 11.962 13.8623 11.962 14.0833C11.962 14.3043 11.8749 14.5163 11.72 14.6726C11.5651 14.8289 11.3549 14.9167 11.1358 14.9167H6.17892C5.95981 14.9167 5.74968 14.8289 5.59474 14.6726C5.43981 14.5163 5.35277 14.3043 5.35277 14.0833C5.35277 13.8623 5.43981 13.6504 5.59474 13.4941C5.74968 13.3378 5.95981 13.25 6.17892 13.25ZM5.35277 9.91667C5.35277 9.69565 5.43981 9.48369 5.59474 9.32741C5.74968 9.17113 5.95981 9.08333 6.17892 9.08333H13.6143C13.8334 9.08333 14.0435 9.17113 14.1984 9.32741C14.3534 9.48369 14.4404 9.69565 14.4404 9.91667C14.4404 10.1377 14.3534 10.3496 14.1984 10.5059C14.0435 10.6622 13.8334 10.75 13.6143 10.75H6.17892C5.95981 10.75 5.74968 10.6622 5.59474 10.5059C5.43981 10.3496 5.35277 10.1377 5.35277 9.91667ZM15.7028 19.9167C14.888 19.0011 14.4383 17.8136 14.4404 16.5833C14.4404 16.4176 14.5057 16.2586 14.6219 16.1414C14.7381 16.0242 14.8957 15.9583 15.06 15.9583C15.2244 15.9583 15.382 16.0242 15.4982 16.1414C15.6144 16.2586 15.6796 16.4176 15.6796 16.5833C15.6796 17.5433 16.0374 18.42 16.6264 19.0833C17.2549 19.7955 18.13 20.2377 19.0718 20.3192L19.0858 20.3208C19.3972 20.3469 19.7105 20.3337 20.0186 20.2817L20.0334 20.2783C20.553 20.1879 21.0473 19.9865 21.4833 19.6875C21.8733 19.4208 22.2103 19.0808 22.4747 18.6875C22.8932 18.0671 23.1163 17.3337 23.115 16.5833C23.115 16.4176 23.1803 16.2586 23.2965 16.1414C23.4127 16.0242 23.5703 15.9583 23.7346 15.9583C23.8989 15.9583 24.0565 16.0242 24.1727 16.1414C24.2889 16.2586 24.3542 16.4176 24.3542 16.5833C24.3557 17.5842 24.058 18.5624 23.5 19.39C23.147 19.9138 22.6991 20.3656 22.1798 20.7217C21.592 21.1251 20.9246 21.3954 20.2235 21.5142V22.625C20.2235 22.7908 20.1582 22.9497 20.042 23.0669C19.9258 23.1842 19.7682 23.25 19.6038 23.25C19.4395 23.25 19.2819 23.1842 19.1657 23.0669C19.0495 22.9497 18.9842 22.7908 18.9842 22.625V21.5667C18.1522 21.4977 17.3511 21.2167 16.6561 20.75C16.3046 20.5141 15.9843 20.2341 15.7028 19.9167ZM16.9189 13.25C16.9189 12.9217 16.983 12.5966 17.1075 12.2933C17.2321 11.99 17.4146 11.7144 17.6448 11.4822C17.8749 11.2501 18.1481 11.0659 18.4488 10.9403C18.7495 10.8147 19.0718 10.75 19.3973 10.75C19.7228 10.75 20.0451 10.8147 20.3458 10.9403C20.6465 11.0659 20.9197 11.2501 21.1498 11.4822C21.38 11.7144 21.5625 11.99 21.6871 12.2933C21.8116 12.5966 21.8758 12.9217 21.8758 13.25V16.5833C21.8758 16.9116 21.8116 17.2367 21.6871 17.54C21.5625 17.8434 21.38 18.119 21.1498 18.3511C20.9197 18.5832 20.6465 18.7674 20.3458 18.893C20.0451 19.0187 19.7228 19.0833 19.3973 19.0833C19.0718 19.0833 18.7495 19.0187 18.4488 18.893C18.1481 18.7674 17.8749 18.5832 17.6448 18.3511C17.4146 18.119 17.2321 17.8434 17.1075 17.54C16.983 17.2367 16.9189 16.9116 16.9189 16.5833V13.25Z" fill="#5F6B73"/>
</svg>
