<svg width="18" height="17" viewBox="0 0 18 17" fill="none" xmlns="http://www.w3.org/2000/svg">
<path d="M17.3337 13.262V16.8334H0.666992V13.262C0.94601 13.262 1.20953 13.2186 1.45754 13.1318C1.70556 13.045 1.88847 12.9597 2.00628 12.876C2.12409 12.7923 2.26979 12.6761 2.44341 12.5272C2.62942 12.3598 2.78908 12.242 2.92239 12.1738C3.0557 12.1056 3.23086 12.0715 3.44787 12.0715C3.59668 12.0715 3.73309 12.0932 3.8571 12.1366C3.9811 12.18 4.07721 12.2265 4.14542 12.2761C4.21362 12.3257 4.31593 12.4094 4.45233 12.5272C4.63215 12.6823 4.77786 12.8001 4.88946 12.8807C5.00107 12.9613 5.18088 13.045 5.4289 13.1318C5.67691 13.2186 5.94353 13.262 6.22875 13.262C6.50777 13.262 6.77128 13.217 7.0193 13.1271C7.26732 13.0372 7.44713 12.9535 7.55873 12.876C7.67034 12.7985 7.81915 12.6823 8.00516 12.5272C8.13537 12.4094 8.23613 12.3257 8.30743 12.2761C8.37874 12.2265 8.47484 12.18 8.59575 12.1366C8.71666 12.0932 8.85152 12.0715 9.00033 12.0715C9.21734 12.0715 9.3925 12.1056 9.52581 12.1738C9.65912 12.242 9.81878 12.3598 10.0048 12.5272C10.1784 12.6761 10.3241 12.7923 10.4419 12.876C10.5597 12.9597 10.7426 13.045 10.9907 13.1318C11.2387 13.2186 11.5022 13.262 11.7812 13.262C12.0602 13.262 12.3237 13.2186 12.5718 13.1318C12.8198 13.045 13.0027 12.9597 13.1205 12.876C13.2383 12.7923 13.384 12.6761 13.5576 12.5272C13.7436 12.3598 13.9033 12.242 14.0366 12.1738C14.1699 12.1056 14.3451 12.0715 14.5621 12.0715C14.7729 12.0715 14.945 12.1056 15.0783 12.1738C15.2116 12.242 15.3712 12.3598 15.5572 12.5272C15.7309 12.6761 15.8766 12.7923 15.9944 12.876C16.1122 12.9597 16.2951 13.045 16.5431 13.1318C16.7911 13.2186 17.0546 13.262 17.3337 13.262ZM17.3337 10.2858V12.0715C17.1849 12.0715 17.0484 12.0498 16.9244 12.0064C16.8004 11.963 16.7043 11.9165 16.6361 11.8669C16.5679 11.8173 16.4656 11.7336 16.3292 11.6158C16.1494 11.4608 16.0037 11.343 15.8921 11.2624C15.7805 11.1818 15.6006 11.098 15.3526 11.0112C15.1046 10.9244 14.8411 10.881 14.5621 10.881C14.2769 10.881 14.0102 10.9244 13.7622 11.0112C13.5142 11.098 13.3344 11.1818 13.2228 11.2624C13.1112 11.343 12.9655 11.4608 12.7857 11.6158C12.6493 11.7336 12.547 11.8173 12.4787 11.8669C12.4105 11.9165 12.3144 11.963 12.1904 12.0064C12.0664 12.0498 11.93 12.0715 11.7812 12.0715C11.5642 12.0715 11.389 12.0374 11.2557 11.9692C11.1224 11.901 10.9628 11.7832 10.7767 11.6158C10.5969 11.4608 10.4512 11.343 10.3396 11.2624C10.228 11.1818 10.0482 11.098 9.80018 11.0112C9.55216 10.9244 9.28554 10.881 9.00033 10.881C8.72131 10.881 8.45779 10.926 8.20978 11.0159C7.96176 11.1058 7.78195 11.1895 7.67034 11.267C7.55873 11.3445 7.40992 11.4608 7.22391 11.6158C7.0937 11.7336 6.99295 11.8173 6.92164 11.8669C6.85034 11.9165 6.75423 11.963 6.63332 12.0064C6.51242 12.0498 6.37756 12.0715 6.22875 12.0715C6.01173 12.0715 5.83657 12.0374 5.70327 11.9692C5.56996 11.901 5.4103 11.7832 5.22428 11.6158C5.05067 11.467 4.90496 11.3507 4.78716 11.267C4.66935 11.1833 4.48644 11.098 4.23842 11.0112C3.99041 10.9244 3.72689 10.881 3.44787 10.881C3.16265 10.881 2.89603 10.9244 2.64802 11.0112C2.4 11.098 2.22019 11.1818 2.10858 11.2624C1.99698 11.343 1.85127 11.4608 1.67146 11.6158C1.48544 11.7832 1.32578 11.901 1.19248 11.9692C1.05917 12.0374 0.884006 12.0715 0.666992 12.0715V10.2858C0.666992 9.78976 0.840603 9.36814 1.18783 9.02092C1.53505 8.67369 1.95667 8.50008 2.45271 8.50008H3.04794V4.33342H5.4289V8.50008H7.80985V4.33342H10.1908V8.50008H12.5718V4.33342H14.9527V8.50008H15.5479C16.044 8.50008 16.4656 8.67369 16.8128 9.02092C17.16 9.36814 17.3337 9.78976 17.3337 10.2858ZM5.4289 2.25008C5.4289 2.72751 5.31729 3.09489 5.09408 3.3522C4.87086 3.60952 4.58564 3.73818 4.23842 3.73818C3.9098 3.73818 3.62923 3.62192 3.39672 3.3894C3.1642 3.15689 3.04794 2.87632 3.04794 2.5477C3.04794 2.36789 3.0774 2.20978 3.1363 2.07337C3.1952 1.93696 3.26806 1.83155 3.35486 1.75715C3.44167 1.68275 3.53778 1.59594 3.64318 1.49673C3.74859 1.39753 3.8447 1.29987 3.9315 1.20376C4.01831 1.10766 4.09116 0.9697 4.15007 0.789888C4.20897 0.610076 4.23842 0.402363 4.23842 0.166748C4.47404 0.166748 4.73135 0.396163 5.01037 0.854992C5.28939 1.31382 5.4289 1.77885 5.4289 2.25008ZM10.1908 2.25008C10.1908 2.72751 10.0792 3.09489 9.85598 3.3522C9.63277 3.60952 9.34755 3.73818 9.00033 3.73818C8.67171 3.73818 8.39114 3.62192 8.15862 3.3894C7.92611 3.15689 7.80985 2.87632 7.80985 2.5477C7.80985 2.36789 7.8393 2.20978 7.89821 2.07337C7.95711 1.93696 8.02996 1.83155 8.11677 1.75715C8.20358 1.68275 8.29968 1.59594 8.40509 1.49673C8.51049 1.39753 8.6066 1.29987 8.69341 1.20376C8.78021 1.10766 8.85307 0.9697 8.91197 0.789888C8.97087 0.610076 9.00033 0.402363 9.00033 0.166748C9.23594 0.166748 9.49326 0.396163 9.77228 0.854992C10.0513 1.31382 10.1908 1.77885 10.1908 2.25008ZM14.9527 2.25008C14.9527 2.72751 14.8411 3.09489 14.6179 3.3522C14.3947 3.60952 14.1095 3.73818 13.7622 3.73818C13.4336 3.73818 13.153 3.62192 12.9205 3.3894C12.688 3.15689 12.5718 2.87632 12.5718 2.5477C12.5718 2.36789 12.6012 2.20978 12.6601 2.07337C12.719 1.93696 12.7919 1.83155 12.8787 1.75715C12.9655 1.68275 13.0616 1.59594 13.167 1.49673C13.2724 1.39753 13.3685 1.29987 13.4553 1.20376C13.5421 1.10766 13.615 0.9697 13.6739 0.789888C13.7328 0.610076 13.7622 0.402363 13.7622 0.166748C13.9978 0.166748 14.2552 0.396163 14.5342 0.854992C14.8132 1.31382 14.9527 1.77885 14.9527 2.25008Z" fill="#99A5AE"/>
</svg>
