<svg width="28" height="24" viewBox="0 0 28 24" fill="none" xmlns="http://www.w3.org/2000/svg">
<path d="M4.80492 0C3.70748 0 2.65498 0.421427 1.87896 1.17157C1.10295 1.92172 0.666992 2.93913 0.666992 4V17.3333C0.666992 18.3942 1.10295 19.4116 1.87896 20.1618C2.65498 20.9119 3.70748 21.3333 4.80492 21.3333H16.0739C15.0274 20.0731 14.458 18.5049 14.4601 16.8889C14.46 16.5491 14.5333 16.2131 14.6751 15.9022C14.8169 15.5913 15.0242 15.3124 15.2838 15.0833C15.5434 14.8542 15.8495 14.68 16.1827 14.5716C16.5158 14.4633 16.8687 14.4233 17.2187 14.4542V13.3333C17.2187 12.1546 17.7031 11.0241 18.5653 10.1906C19.4276 9.35714 20.597 8.88889 21.8164 8.88889C23.0358 8.88889 24.2052 9.35714 25.0675 10.1906C25.9297 11.0241 26.4141 12.1546 26.4141 13.3333V4C26.4141 2.93913 25.9782 1.92172 25.2021 1.17157C24.4261 0.421427 23.3736 0 22.2762 0H4.80492ZM6.18423 5.33333C6.18423 5.09759 6.28111 4.87149 6.45356 4.70479C6.62601 4.53809 6.8599 4.44444 7.10377 4.44444H12.621C12.8649 4.44444 13.0988 4.53809 13.2712 4.70479C13.4437 4.87149 13.5406 5.09759 13.5406 5.33333C13.5406 5.56908 13.4437 5.79517 13.2712 5.96187C13.0988 6.12857 12.8649 6.22222 12.621 6.22222H7.10377C6.8599 6.22222 6.62601 6.12857 6.45356 5.96187C6.28111 5.79517 6.18423 5.56908 6.18423 5.33333ZM7.10377 13.3333H12.621C12.8649 13.3333 13.0988 13.427 13.2712 13.5937C13.4437 13.7604 13.5406 13.9865 13.5406 14.2222C13.5406 14.458 13.4437 14.6841 13.2712 14.8508C13.0988 15.0175 12.8649 15.1111 12.621 15.1111H7.10377C6.8599 15.1111 6.62601 15.0175 6.45356 14.8508C6.28111 14.6841 6.18423 14.458 6.18423 14.2222C6.18423 13.9865 6.28111 13.7604 6.45356 13.5937C6.62601 13.427 6.8599 13.3333 7.10377 13.3333ZM6.18423 9.77778C6.18423 9.54203 6.28111 9.31594 6.45356 9.14924C6.62601 8.98254 6.8599 8.88889 7.10377 8.88889H15.3796C15.6235 8.88889 15.8574 8.98254 16.0298 9.14924C16.2023 9.31594 16.2992 9.54203 16.2992 9.77778C16.2992 10.0135 16.2023 10.2396 16.0298 10.4063C15.8574 10.573 15.6235 10.6667 15.3796 10.6667H7.10377C6.8599 10.6667 6.62601 10.573 6.45356 10.4063C6.28111 10.2396 6.18423 10.0135 6.18423 9.77778ZM17.7042 20.4444C16.7973 19.4679 16.2968 18.2012 16.2992 16.8889C16.2992 16.7121 16.3718 16.5425 16.5012 16.4175C16.6305 16.2925 16.8059 16.2222 16.9888 16.2222C17.1717 16.2222 17.3472 16.2925 17.4765 16.4175C17.6058 16.5425 17.6785 16.7121 17.6785 16.8889C17.6785 17.9129 18.0766 18.848 18.7323 19.5556C19.4319 20.3152 20.4059 20.7869 21.4541 20.8738L21.4697 20.8756C21.8163 20.9033 22.165 20.8893 22.5079 20.8338L22.5245 20.8302C23.1027 20.7338 23.653 20.5189 24.1383 20.2C24.5723 19.9156 24.9474 19.5529 25.2417 19.1333C25.7075 18.4716 25.9559 17.6893 25.9543 16.8889C25.9543 16.7121 26.027 16.5425 26.1563 16.4175C26.2857 16.2925 26.4611 16.2222 26.644 16.2222C26.8269 16.2222 27.0023 16.2925 27.1317 16.4175C27.261 16.5425 27.3337 16.7121 27.3337 16.8889C27.3353 17.9565 27.004 18.9998 26.3828 19.8827C25.99 20.4414 25.4914 20.9233 24.9134 21.3031C24.2592 21.7334 23.5164 22.0218 22.736 22.1484V23.3333C22.736 23.5101 22.6633 23.6797 22.534 23.8047C22.4046 23.9298 22.2292 24 22.0463 24C21.8634 24 21.688 23.9298 21.5586 23.8047C21.4293 23.6797 21.3566 23.5101 21.3566 23.3333V22.2044C20.4305 22.1309 19.5389 21.8312 18.7654 21.3333C18.3741 21.0817 18.0176 20.783 17.7042 20.4444ZM19.0578 13.3333C19.0578 12.9831 19.1291 12.6364 19.2678 12.3128C19.4064 11.9893 19.6096 11.6953 19.8658 11.4477C20.1219 11.2001 20.426 11.0037 20.7607 10.8697C21.0954 10.7356 21.4541 10.6667 21.8164 10.6667C22.1787 10.6667 22.5374 10.7356 22.8721 10.8697C23.2068 11.0037 23.5109 11.2001 23.7671 11.4477C24.0232 11.6953 24.2264 11.9893 24.365 12.3128C24.5037 12.6364 24.575 12.9831 24.575 13.3333V16.8889C24.575 17.2391 24.5037 17.5858 24.365 17.9094C24.2264 18.2329 24.0232 18.5269 23.7671 18.7745C23.5109 19.0221 23.2068 19.2186 22.8721 19.3526C22.5374 19.4866 22.1787 19.5556 21.8164 19.5556C21.4541 19.5556 21.0954 19.4866 20.7607 19.3526C20.426 19.2186 20.1219 19.0221 19.8658 18.7745C19.6096 18.5269 19.4064 18.2329 19.2678 17.9094C19.1291 17.5858 19.0578 17.2391 19.0578 16.8889V13.3333Z" fill="url(#paint0_linear_11319_31900)"/>
<defs>
<linearGradient id="paint0_linear_11319_31900" x1="19.1973" y1="-4.75949" x2="10.0701" y2="23.1895" gradientUnits="userSpaceOnUse">
<stop stop-color="#7CBEFA"/>
<stop offset="1" stop-color="#626EDA"/>
</linearGradient>
</defs>
</svg>
