<svg width="16" height="16" viewBox="0 0 16 16" fill="none" xmlns="http://www.w3.org/2000/svg">
<mask id="path-1-inside-1_13122_6457" fill="white">
<path d="M5.75 0.125C3.58156 0.125 1.8125 1.89406 1.8125 4.0625C1.8125 5.41813 2.50437 6.62187 3.55288 7.33231C1.54644 8.19294 0.125 10.1842 0.125 12.5H1.25C1.25 10.0081 3.25813 8 5.75 8C6.52344 8 7.244 8.2025 7.87681 8.54506C7.22908 9.34605 6.87549 10.3449 6.875 11.375C6.875 13.8534 8.89662 15.875 11.375 15.875C13.8534 15.875 15.875 13.8534 15.875 11.375C15.875 8.89662 13.8534 6.875 11.375 6.875C10.427 6.87582 9.50374 7.17734 8.738 7.73619C8.4853 7.58101 8.22087 7.44579 7.94712 7.33175C8.48226 6.9705 8.92071 6.48361 9.22411 5.91368C9.52751 5.34375 9.68661 4.70815 9.6875 4.0625C9.6875 1.89406 7.91844 0.125 5.75 0.125ZM5.75 1.25C7.30981 1.25 8.5625 2.50269 8.5625 4.0625C8.5625 5.62231 7.30981 6.875 5.75 6.875C4.19019 6.875 2.9375 5.62231 2.9375 4.0625C2.9375 2.50269 4.19019 1.25 5.75 1.25ZM11.375 8C13.2448 8 14.75 9.50525 14.75 11.375C14.75 13.2448 13.2448 14.75 11.375 14.75C9.50525 14.75 8 13.2448 8 11.375C8 9.50525 9.50525 8 11.375 8ZM10.0919 9.28306L9.2825 10.0925L10.5667 11.375L9.28306 12.6581L10.0919 13.4669L11.375 12.1833L12.6581 13.4669L13.4669 12.6581L12.1833 11.375L13.4669 10.0919L12.6581 9.28306L11.375 10.5667L10.0919 9.28306Z"/>
</mask>
<path d="M3.55288 7.33231L4.14417 8.71085L6.66543 7.6294L4.39428 6.09052L3.55288 7.33231ZM0.125 12.5H-1.375V14H0.125V12.5ZM1.25 12.5V14H2.75V12.5H1.25ZM7.87681 8.54506L9.04317 9.48826L10.1779 8.08504L8.5909 7.22594L7.87681 8.54506ZM6.875 11.375L5.375 11.3743V11.375H6.875ZM11.375 6.875V5.375L11.3737 5.375L11.375 6.875ZM8.738 7.73619L7.95307 9.01442L8.80999 9.54064L9.62227 8.94783L8.738 7.73619ZM7.94712 7.33175L7.10786 6.08851L4.80073 7.64598L7.37031 8.71641L7.94712 7.33175ZM9.6875 4.0625L11.1875 4.06456V4.0625H9.6875ZM10.0919 9.28306L11.1528 8.22263L10.0922 7.16151L9.03128 8.2224L10.0919 9.28306ZM9.2825 10.0925L8.22184 9.03184L7.16048 10.0932L8.22254 11.1539L9.2825 10.0925ZM10.5667 11.375L11.6271 12.4359L12.6889 11.3745L11.6266 10.3136L10.5667 11.375ZM9.28306 12.6581L8.22263 11.5972L7.16151 12.6578L8.2224 13.7187L9.28306 12.6581ZM10.0919 13.4669L9.03128 14.5276L10.0922 15.5885L11.1528 14.5274L10.0919 13.4669ZM11.375 12.1833L12.4359 11.1229L11.375 10.0615L10.3141 11.1229L11.375 12.1833ZM12.6581 13.4669L11.5972 14.5274L12.6578 15.5885L13.7187 14.5276L12.6581 13.4669ZM13.4669 12.6581L14.5276 13.7187L15.5885 12.6578L14.5274 11.5972L13.4669 12.6581ZM12.1833 11.375L11.1229 10.3141L10.0615 11.375L11.1229 12.4359L12.1833 11.375ZM13.4669 10.0919L14.5274 11.1528L15.5885 10.0922L14.5276 9.03128L13.4669 10.0919ZM12.6581 9.28306L13.7187 8.2224L12.6578 7.16151L11.5972 8.22263L12.6581 9.28306ZM11.375 10.5667L10.3141 11.6271L11.375 12.6885L12.4359 11.6271L11.375 10.5667ZM5.75 -1.375C2.75314 -1.375 0.3125 1.06564 0.3125 4.0625H3.3125C3.3125 2.72249 4.40999 1.625 5.75 1.625V-1.375ZM0.3125 4.0625C0.3125 5.93886 1.27066 7.59785 2.71147 8.5741L4.39428 6.09052C3.73809 5.6459 3.3125 4.89739 3.3125 4.0625H0.3125ZM2.96158 5.95377C0.4318 7.03888 -1.375 9.55446 -1.375 12.5H1.625C1.625 10.8139 2.66108 9.347 4.14417 8.71085L2.96158 5.95377ZM0.125 14H1.25V11H0.125V14ZM2.75 12.5C2.75 10.8366 4.08655 9.5 5.75 9.5V6.5C2.4297 6.5 -0.25 9.1797 -0.25 12.5H2.75ZM5.75 9.5C6.2565 9.5 6.73321 9.63167 7.16273 9.86418L8.5909 7.22594C7.75479 6.77333 6.79038 6.5 5.75 6.5V9.5ZM6.71046 7.60187C5.847 8.66962 5.37565 10.0011 5.375 11.3743L8.375 11.3757C8.37532 10.6887 8.61115 10.0225 9.04317 9.48826L6.71046 7.60187ZM5.375 11.375C5.375 14.6818 8.0682 17.375 11.375 17.375V14.375C9.72505 14.375 8.375 13.0249 8.375 11.375H5.375ZM11.375 17.375C14.6818 17.375 17.375 14.6818 17.375 11.375H14.375C14.375 13.0249 13.0249 14.375 11.375 14.375V17.375ZM17.375 11.375C17.375 8.0682 14.6818 5.375 11.375 5.375V8.375C13.0249 8.375 14.375 9.72505 14.375 11.375H17.375ZM11.3737 5.375C10.1083 5.37609 8.87587 5.77858 7.85373 6.52455L9.62227 8.94783C10.1316 8.57611 10.7457 8.37554 11.3763 8.375L11.3737 5.375ZM9.52293 6.45795C9.20373 6.26194 8.86972 6.09113 8.52394 5.94709L7.37031 8.71641C7.57202 8.80044 7.76686 8.90008 7.95307 9.01442L9.52293 6.45795ZM8.78639 8.57499C9.52469 8.07659 10.1296 7.40485 10.5482 6.61855L7.90004 5.20882C7.71182 5.56237 7.43983 5.86441 7.10786 6.08851L8.78639 8.57499ZM10.5482 6.61855C10.9668 5.83224 11.1863 4.95534 11.1875 4.06456L8.1875 4.06044C8.18695 4.46097 8.08825 4.85526 7.90004 5.20882L10.5482 6.61855ZM11.1875 4.0625C11.1875 1.06564 8.74686 -1.375 5.75 -1.375V1.625C7.09001 1.625 8.1875 2.72249 8.1875 4.0625H11.1875ZM5.75 2.75C6.48139 2.75 7.0625 3.33111 7.0625 4.0625H10.0625C10.0625 1.67426 8.13824 -0.25 5.75 -0.25V2.75ZM7.0625 4.0625C7.0625 4.79389 6.48139 5.375 5.75 5.375V8.375C8.13824 8.375 10.0625 6.45074 10.0625 4.0625H7.0625ZM5.75 5.375C5.01861 5.375 4.4375 4.79389 4.4375 4.0625H1.4375C1.4375 6.45074 3.36176 8.375 5.75 8.375V5.375ZM4.4375 4.0625C4.4375 3.33111 5.01861 2.75 5.75 2.75V-0.25C3.36176 -0.25 1.4375 1.67426 1.4375 4.0625H4.4375ZM11.375 9.5C12.4163 9.5 13.25 10.3337 13.25 11.375H16.25C16.25 8.67682 14.0732 6.5 11.375 6.5V9.5ZM13.25 11.375C13.25 12.4163 12.4163 13.25 11.375 13.25V16.25C14.0732 16.25 16.25 14.0732 16.25 11.375H13.25ZM11.375 13.25C10.3337 13.25 9.5 12.4163 9.5 11.375H6.5C6.5 14.0732 8.67682 16.25 11.375 16.25V13.25ZM9.5 11.375C9.5 10.3337 10.3337 9.5 11.375 9.5V6.5C8.67682 6.5 6.5 8.67682 6.5 11.375H9.5ZM9.03128 8.2224L8.22184 9.03184L10.3432 11.1532L11.1526 10.3437L9.03128 8.2224ZM8.22254 11.1539L9.50672 12.4364L11.6266 10.3136L10.3425 9.03114L8.22254 11.1539ZM9.50626 10.3141L8.22263 11.5972L10.3435 13.719L11.6271 12.4359L9.50626 10.3141ZM8.2224 13.7187L9.03128 14.5276L11.1526 12.4063L10.3437 11.5974L8.2224 13.7187ZM11.1528 14.5274L12.4359 13.2437L10.3141 11.1229L9.03104 12.4065L11.1528 14.5274ZM10.3141 13.2437L11.5972 14.5274L13.719 12.4065L12.4359 11.1229L10.3141 13.2437ZM13.7187 14.5276L14.5276 13.7187L12.4063 11.5974L11.5974 12.4063L13.7187 14.5276ZM14.5274 11.5972L13.2437 10.3141L11.1229 12.4359L12.4065 13.719L14.5274 11.5972ZM13.2437 12.4359L14.5274 11.1528L12.4065 9.03104L11.1229 10.3141L13.2437 12.4359ZM14.5276 9.03128L13.7187 8.2224L11.5974 10.3437L12.4063 11.1526L14.5276 9.03128ZM11.5972 8.22263L10.3141 9.50626L12.4359 11.6271L13.719 10.3435L11.5972 8.22263ZM12.4359 9.50626L11.1528 8.22263L9.03104 10.3435L10.3141 11.6271L12.4359 9.50626Z" fill="#EA5D54" mask="url(#path-1-inside-1_13122_6457)"/>
</svg>
