<svg width="21" height="20" viewBox="0 0 21 20" fill="none" xmlns="http://www.w3.org/2000/svg">
<path d="M9.875 14.375V15C9.875 15.1658 9.80915 15.3247 9.69194 15.4419C9.57473 15.5592 9.41576 15.625 9.25 15.625H8V16.25C8 16.5815 7.8683 16.8995 7.63388 17.1339C7.39946 17.3683 7.08152 17.5 6.75 17.5H4.25C3.91848 17.5 3.60054 17.3683 3.36612 17.1339C3.1317 16.8995 3 16.5815 3 16.25V14.6337C3.00007 14.3023 3.13181 13.9844 3.36625 13.75L8.2025 8.91313C7.90576 7.90599 7.93359 6.831 8.28205 5.84057C8.63051 4.85015 9.28191 3.99454 10.1439 3.39508C11.0059 2.79562 12.0347 2.48271 13.0845 2.50074C14.1343 2.51876 15.1517 2.8668 15.9926 3.4955C16.8335 4.1242 17.4552 5.00166 17.7694 6.00346C18.0837 7.00527 18.0746 8.08058 17.7435 9.07694C17.4123 10.0733 16.7759 10.9401 15.9245 11.5545C15.0731 12.1689 14.0499 12.4997 13 12.5H11.75V13.75C11.75 13.9158 11.6842 14.0747 11.5669 14.1919C11.4497 14.3092 11.2908 14.375 11.125 14.375H9.875ZM14.25 7.5C14.5815 7.5 14.8995 7.3683 15.1339 7.13388C15.3683 6.89946 15.5 6.58152 15.5 6.25C15.5 5.91848 15.3683 5.60054 15.1339 5.36612C14.8995 5.1317 14.5815 5 14.25 5C13.9185 5 13.6005 5.1317 13.3661 5.36612C13.1317 5.60054 13 5.91848 13 6.25C13 6.58152 13.1317 6.89946 13.3661 7.13388C13.6005 7.3683 13.9185 7.5 14.25 7.5Z" fill="#2D3033"/>
</svg>
