<svg width="24" height="28" viewBox="0 0 24 28" fill="none" xmlns="http://www.w3.org/2000/svg">
<path d="M3.68443 1.01868L8.22137 1.57322C8.62658 1.62275 8.91744 1.97925 8.87681 2.37657L6.39228 26.6707C6.35042 27.0801 5.97343 27.3764 5.55558 27.3283L0.664652 26.7657C0.252868 26.7183 -0.0421438 26.3541 0.00493537 25.9513L2.84345 1.66527C2.89099 1.2585 3.26896 0.967901 3.68443 1.01868Z" fill="url(#paint0_linear_12478_4518)"/>
<path fill-rule="evenodd" clip-rule="evenodd" d="M11.2071 0.666748H15.7222C16.1378 0.666748 16.4747 0.996184 16.4747 1.40256V26.4203C16.4747 26.8267 16.1377 27.1561 15.7222 27.1561H11.2071C10.7915 27.1561 10.4546 26.8267 10.4546 26.4203V1.40256C10.4546 0.996184 10.7915 0.666748 11.2071 0.666748ZM14.9693 12.4398V6.55327C14.9693 5.74051 14.2955 5.08164 13.4643 5.08164C12.6331 5.08164 11.9593 5.74051 11.9593 6.55327V12.4398C11.9593 13.2525 12.6331 13.9114 13.4643 13.9114C14.2955 13.9114 14.9693 13.2525 14.9693 12.4398Z" fill="url(#paint1_linear_12478_4518)"/>
<path fill-rule="evenodd" clip-rule="evenodd" d="M18.7322 0.666748H23.2475C23.6631 0.666748 24 0.996189 24 1.40257L23.9997 26.4203C23.9997 26.8267 23.6628 27.1561 23.2472 27.1561H18.7322C18.3166 27.1561 17.9797 26.8267 17.9797 26.4203V1.40256C17.9797 0.996184 18.3166 0.666748 18.7322 0.666748ZM22.4944 12.4398V6.55327C22.4944 5.74051 21.8206 5.08164 20.9894 5.08164C20.1582 5.08164 19.4844 5.74051 19.4844 6.55327V12.4398C19.4844 13.2525 20.1582 13.9114 20.9894 13.9114C21.8206 13.9114 22.4944 13.2525 22.4944 12.4398Z" fill="url(#paint2_linear_12478_4518)"/>
<defs>
<linearGradient id="paint0_linear_12478_4518" x1="16.6773" y1="-4.62158" x2="4.75909" y2="24.9396" gradientUnits="userSpaceOnUse">
<stop stop-color="#7CBEFA"/>
<stop offset="1" stop-color="#626EDA"/>
</linearGradient>
<linearGradient id="paint1_linear_12478_4518" x1="16.6773" y1="-4.62158" x2="4.75909" y2="24.9396" gradientUnits="userSpaceOnUse">
<stop stop-color="#7CBEFA"/>
<stop offset="1" stop-color="#626EDA"/>
</linearGradient>
<linearGradient id="paint2_linear_12478_4518" x1="16.6773" y1="-4.62158" x2="4.75909" y2="24.9396" gradientUnits="userSpaceOnUse">
<stop stop-color="#7CBEFA"/>
<stop offset="1" stop-color="#626EDA"/>
</linearGradient>
</defs>
</svg>
