<svg width="28" height="28" viewBox="0 0 28 28" fill="none" xmlns="http://www.w3.org/2000/svg">
<path d="M26.2947 8.83343C25.6256 7.23976 24.6521 5.79122 23.4285 4.56856C22.2087 3.34376 20.7596 2.36998 19.1636 1.70249C17.5286 1.01538 15.772 0.66317 13.998 0.666775H13.9383C12.1339 0.675704 10.3892 1.03285 8.74581 1.73523C7.16352 2.40956 5.72805 3.38507 4.51964 4.60725C3.30795 5.82717 2.34563 7.27064 1.68629 8.85724C1.00185 10.5071 0.655048 12.277 0.66628 14.0626C0.675227 16.1281 1.17032 18.1787 2.09489 20.012V24.5358C2.09489 25.2917 2.70928 25.9048 3.46384 25.9048H7.99124C9.83702 26.8343 11.8739 27.3233 13.9413 27.3334H14.0039C15.7874 27.3334 17.5143 26.9882 19.1427 26.3126C20.7306 25.6531 22.1743 24.6906 23.3928 23.4793C24.6215 22.262 25.5879 20.8394 26.2649 19.2531C26.9658 17.6102 27.3237 15.8632 27.3326 14.0596C27.3386 12.2471 26.9866 10.4882 26.2947 8.83343ZM8.04493 15.4287C7.25755 15.4287 6.61632 14.7888 6.61632 14.0001C6.61632 13.2114 7.25755 12.5715 8.04493 12.5715C8.8323 12.5715 9.47353 13.2114 9.47353 14.0001C9.47353 14.7888 8.83529 15.4287 8.04493 15.4287ZM13.998 15.4287C13.2106 15.4287 12.5693 14.7888 12.5693 14.0001C12.5693 13.2114 13.2106 12.5715 13.998 12.5715C14.7853 12.5715 15.4266 13.2114 15.4266 14.0001C15.4266 14.7888 14.7853 15.4287 13.998 15.4287ZM19.951 15.4287C19.1636 15.4287 18.5224 14.7888 18.5224 14.0001C18.5224 13.2114 19.1636 12.5715 19.951 12.5715C20.7384 12.5715 21.3796 13.2114 21.3796 14.0001C21.3796 14.7888 20.7384 15.4287 19.951 15.4287Z" fill="url(#paint0_linear_7425_391)"/>
<defs>
<linearGradient id="paint0_linear_7425_391" x1="19.1964" y1="-4.62158" x2="8.17723" y2="25.7464" gradientUnits="userSpaceOnUse">
<stop stop-color="#7CBEFA"/>
<stop offset="1" stop-color="#626EDA"/>
</linearGradient>
</defs>
</svg>
