<svg width="231" height="200" viewBox="0 0 231 200" fill="none" xmlns="http://www.w3.org/2000/svg">
<path d="M33.7332 182.662C78.7182 205.779 151.63 205.779 196.625 182.662C241.62 159.546 241.61 122.062 196.625 98.9405C151.64 75.8188 78.7281 75.8237 33.7332 98.9405C-11.2618 122.057 -11.227 159.546 33.7332 182.662Z" fill="#F5F5F5"/>
<path d="M32.9434 152.034L87.2309 183.374C87.8984 183.713 88.6364 183.889 89.3849 183.889C90.1334 183.889 90.8714 183.713 91.5389 183.374L194.328 124.022C195.517 123.336 195.517 122.222 194.328 121.535L140.036 90.1953C139.368 89.8567 138.63 89.6802 137.882 89.6802C137.133 89.6802 136.395 89.8567 135.728 90.1953L32.9434 149.547C31.7545 150.238 31.7545 151.348 32.9434 152.034Z" fill="#B5C5CD"/>
<path d="M62.2826 166.595C63.2078 167.063 64.2303 167.307 65.2674 167.307C66.3044 167.307 67.3269 167.063 68.2521 166.595C69.9036 165.64 69.9036 164.107 68.2521 163.142C67.3269 162.674 66.3044 162.43 65.2674 162.43C64.2303 162.43 63.2078 162.674 62.2826 163.142C60.6311 164.098 60.6311 165.66 62.2826 166.595Z" fill="#6D8891"/>
<path d="M87.2295 183.379L32.9421 152.04C31.8775 151.428 31.7681 150.473 32.6038 149.786C32.0732 150.206 31.6373 150.733 31.3244 151.334C31.0115 151.934 30.8288 152.593 30.7881 153.268V155.293C30.8281 156.041 31.0441 156.768 31.4184 157.416C31.7927 158.065 32.3147 158.615 32.9421 159.024L87.2295 190.364C87.8938 190.709 88.635 190.88 89.3835 190.861V183.892C88.6337 183.907 87.8924 183.73 87.2295 183.379Z" fill="#7999A8"/>
<path d="M194.327 131.021C194.954 130.612 195.476 130.061 195.85 129.413C196.224 128.765 196.44 128.038 196.481 127.291V125.266C196.439 124.59 196.256 123.931 195.942 123.331C195.628 122.731 195.192 122.204 194.661 121.784C195.501 122.47 195.392 123.425 194.327 124.042L91.5378 183.379C90.8739 183.726 90.1325 183.897 89.3838 183.876V190.88C90.1325 190.901 90.8739 190.73 91.5378 190.383L194.327 131.021Z" fill="#6D8891"/>
<path d="M96.1796 176.882L44.9416 147.293C44.2252 146.88 44.2252 146.214 44.9416 145.801L129.221 97.1149C129.621 96.9113 130.065 96.8052 130.514 96.8052C130.964 96.8052 131.407 96.9113 131.807 97.1149L183.07 126.699C183.787 127.107 183.787 127.778 183.07 128.191L98.7614 176.882C98.3615 177.086 97.9192 177.192 97.4705 177.192C97.0218 177.192 96.5794 177.086 96.1796 176.882Z" fill="#FAFAFA"/>
<path d="M82.8522 137.071L113.162 154.566L94.0301 165.615C93.6956 165.782 93.3269 165.869 92.9531 165.869C92.5793 165.869 92.2106 165.782 91.8761 165.615L63.7201 149.358C63.5901 149.314 63.4773 149.23 63.3973 149.119C63.3174 149.007 63.2744 148.873 63.2744 148.736C63.2744 148.599 63.3174 148.465 63.3973 148.354C63.4773 148.242 63.5901 148.158 63.7201 148.114L82.8522 137.071Z" fill="#E6E6E6"/>
<path d="M113.137 154.566L109.565 140.369C109.484 140.03 109.296 139.726 109.028 139.503C108.757 139.273 108.422 139.133 108.068 139.1L82.832 137.071L113.137 154.566Z" fill="#E0E0E0"/>
<path d="M113.137 154.566L86.0109 153.447C85.686 153.434 85.3764 153.306 85.1376 153.085C84.8987 152.865 84.7463 152.566 84.7075 152.243L82.8271 137.066L113.137 154.566Z" fill="#E0E0E0"/>
<path d="M113.137 154.566L86.0109 153.447C85.686 153.434 85.3764 153.306 85.1376 153.085C84.8987 152.865 84.7463 152.566 84.7075 152.243L82.8271 137.066L86.175 151.99C86.2052 152.123 86.2769 152.242 86.3798 152.332C86.4826 152.421 86.6113 152.476 86.7471 152.487L113.137 154.566Z" fill="#FAFAFA"/>
<path d="M88.9111 153.402L92.9555 166.237L94.03 165.615L88.9111 153.402Z" fill="#FAFAFA"/>
<path d="M62.6445 148.736L63.719 148.114L84.8709 151.069L62.6445 148.736Z" fill="#FAFAFA"/>
<path d="M100.094 130.688L124.206 144.617C124.54 144.786 124.909 144.875 125.283 144.875C125.657 144.875 126.026 144.786 126.36 144.617L160.58 124.868C160.71 124.824 160.823 124.74 160.903 124.629C160.983 124.517 161.025 124.384 161.025 124.246C161.025 124.109 160.983 123.975 160.903 123.864C160.823 123.752 160.71 123.669 160.58 123.625L136.468 109.696C136.134 109.527 135.765 109.438 135.391 109.438C135.017 109.438 134.648 109.527 134.314 109.696L100.094 129.445C99.9641 129.489 99.8513 129.573 99.7714 129.684C99.6914 129.796 99.6484 129.929 99.6484 130.067C99.6484 130.204 99.6914 130.338 99.7714 130.449C99.8513 130.561 99.9641 130.644 100.094 130.688Z" fill="#E6E6E6"/>
<path d="M119.265 128.847C118.978 128.401 118.808 127.89 118.771 127.36C118.733 126.831 118.83 126.3 119.052 125.818C119.499 124.823 120.474 123.868 121.972 123.007C123.613 122.042 125.426 121.402 127.309 121.122C129.147 120.857 131.017 120.924 132.831 121.321C134.702 121.728 136.497 122.428 138.149 123.395C139.747 124.314 140.835 125.262 141.412 126.241C141.694 126.657 141.862 127.14 141.901 127.642C141.939 128.143 141.846 128.646 141.631 129.101C141.193 130.031 140.273 130.902 138.88 131.708C137.545 132.515 136.042 133.005 134.488 133.14C133.194 133.266 131.892 132.999 130.752 132.374C130.547 132.286 130.364 132.155 130.214 131.99C130.064 131.825 129.951 131.631 129.881 131.419C129.848 131.236 129.864 131.047 129.928 130.873C129.992 130.698 130.101 130.543 130.244 130.424C129.443 130.49 128.636 130.434 127.852 130.26C127.082 130.094 126.344 129.809 125.663 129.414C124.515 128.751 123.915 128.032 123.862 127.256C123.809 126.479 124.358 125.766 125.509 125.116C126.897 124.302 128.486 123.894 130.095 123.937C131.738 123.974 133.345 124.431 134.761 125.266C135.347 125.592 135.87 126.022 136.303 126.534C136.648 126.913 136.873 127.386 136.95 127.892L132.473 130.489C132.11 130.698 131.911 130.882 131.881 131.041C131.851 131.2 131.98 131.369 132.264 131.539C132.883 131.839 133.593 131.9 134.254 131.708C135.228 131.48 136.16 131.099 137.015 130.579C138.139 129.932 138.85 129.235 139.149 128.504C139.298 128.149 139.355 127.762 139.314 127.38C139.274 126.997 139.136 126.631 138.915 126.315C138.315 125.458 137.516 124.758 136.587 124.276C134.678 123.146 132.52 122.506 130.304 122.41C128.056 122.347 125.837 122.931 123.912 124.092C122.688 124.798 121.902 125.544 121.554 126.33C121.379 126.696 121.302 127.101 121.33 127.505C121.358 127.91 121.49 128.3 121.713 128.638C122.316 129.525 123.129 130.248 124.081 130.743C124.713 131.104 125.38 131.403 126.071 131.633C126.715 131.856 127.383 132.006 128.061 132.081C128.133 132.087 128.204 132.105 128.269 132.136C128.304 132.136 128.304 132.2 128.269 132.265L127.613 133.185C127.586 133.221 127.554 133.253 127.518 133.28C127.422 133.313 127.317 133.313 127.22 133.28C126.399 133.176 125.592 132.986 124.812 132.713C123.996 132.442 123.21 132.09 122.464 131.663C120.922 130.837 119.857 129.867 119.265 128.847ZM129.637 129.28C130.323 129.367 131.019 129.237 131.627 128.907L134.229 127.415C133.921 126.892 133.466 126.472 132.921 126.206C132.09 125.719 131.147 125.457 130.185 125.445C129.226 125.428 128.281 125.676 127.454 126.161C126.727 126.579 126.374 126.992 126.394 127.4C126.394 127.808 126.802 128.231 127.563 128.668C128.201 129.022 128.909 129.233 129.637 129.285V129.28Z" fill="#FAFAFA"/>
<path d="M163.013 108.402C163.217 108.508 163.444 108.563 163.674 108.563C163.905 108.563 164.131 108.508 164.336 108.402C164.415 108.375 164.483 108.323 164.532 108.255C164.58 108.187 164.606 108.105 164.606 108.022C164.606 107.938 164.58 107.856 164.532 107.788C164.483 107.72 164.415 107.668 164.336 107.641C164.13 107.539 163.904 107.486 163.674 107.486C163.445 107.486 163.218 107.539 163.013 107.641C162.934 107.668 162.865 107.72 162.817 107.788C162.768 107.856 162.742 107.938 162.742 108.022C162.742 108.105 162.768 108.187 162.817 108.255C162.865 108.323 162.934 108.375 163.013 108.402Z" fill="#6D8891"/>
<path d="M165.121 114.391C165.53 114.6 165.983 114.708 166.442 114.708C166.901 114.708 167.354 114.6 167.763 114.391C168.494 113.974 168.494 113.287 167.763 112.869C167.354 112.661 166.901 112.552 166.442 112.552C165.983 112.552 165.53 112.661 165.121 112.869C164.375 113.287 164.375 113.974 165.121 114.391Z" fill="#6D8891"/>
<path d="M163.26 111.74C163.758 111.457 163.723 110.989 163.201 110.691L154.515 105.671C154.236 105.522 153.925 105.441 153.608 105.436C153.292 105.431 152.978 105.501 152.694 105.641C152.197 105.92 152.237 106.393 152.754 106.691L161.44 111.705C161.719 111.853 162.03 111.933 162.346 111.939C162.662 111.945 162.975 111.877 163.26 111.74Z" fill="#6D8891"/>
<path d="M50.6484 48.4785C50.6759 47.9443 50.8296 47.4241 51.0967 46.9607C51.3639 46.4972 51.737 46.1036 52.1856 45.8121L130.898 0.36947C131.375 0.126605 131.903 0 132.438 0C132.973 0 133.501 0.126605 133.977 0.36947L135.709 1.36438C136.156 1.65541 136.529 2.04821 136.796 2.51073C137.063 2.97326 137.217 3.4924 137.246 4.02578V64.3673C137.215 64.9008 137.06 65.4197 136.793 65.8827C136.526 66.3456 136.155 66.7398 135.709 67.0336L56.996 112.476C56.5193 112.717 55.9928 112.842 55.4588 112.842C54.9249 112.842 54.3984 112.717 53.9217 112.476L52.1856 111.481C51.7392 111.188 51.3678 110.793 51.1009 110.33C50.834 109.867 50.6791 109.349 50.6484 108.815V48.4785Z" fill="#C3DBF2"/>
<path opacity="0.4" d="M51.0957 46.9611L55.4634 49.4783L136.798 2.51834C136.538 2.05026 136.165 1.65505 135.713 1.36922L133.972 0.374303C133.496 0.131481 132.969 0.00488281 132.435 0.00488281C131.9 0.00488281 131.374 0.131481 130.898 0.374303L52.1901 45.812C51.7313 46.093 51.354 46.4892 51.0957 46.9611Z" fill="white"/>
<path opacity="0.1" d="M50.6484 48.4734V108.805C50.6769 109.34 50.8314 109.86 51.0995 110.323C51.3675 110.787 51.7414 111.18 52.1906 111.471L53.9217 112.466C54.0555 112.544 54.1973 112.607 54.3445 112.655C54.5501 112.723 54.7617 112.771 54.9763 112.8C55.3806 112.852 55.7908 112.837 56.1901 112.755C56.2911 112.734 56.3907 112.708 56.4886 112.675C56.5521 112.658 56.6137 112.635 56.6726 112.606C56.5563 112.655 56.4311 112.681 56.3045 112.681C56.178 112.681 56.0527 112.655 55.9364 112.606C55.7752 112.498 55.6461 112.348 55.5629 112.173C55.4797 111.998 55.4455 111.804 55.4638 111.611V51.2442C55.4485 50.9706 55.517 50.6988 55.66 50.4651C55.8031 50.2313 56.0141 50.0467 56.2647 49.9359L55.4638 49.4683L51.0961 46.9512C50.8204 47.4125 50.6664 47.9363 50.6484 48.4734Z" fill="#6D8891"/>
<path opacity="0.2" d="M55.4649 49.478L91.9185 63.0984C93.1793 63.5673 94.5621 63.5932 95.8395 63.1719C97.117 62.7506 98.2131 61.9072 98.9476 60.7802L104.803 51.826L137.088 2.35889L105.967 52.1493L137.247 64.3917C137.215 64.9382 137.044 65.4674 136.749 65.9289L105.882 52.2886L99.0769 63.1829C98.322 64.392 97.1562 65.2882 95.7937 65.7067C94.4311 66.1253 92.9633 66.0381 91.6598 65.4613L86.8196 63.3222L55.9325 112.6C55.7713 112.493 55.6422 112.343 55.559 112.168C55.4758 111.993 55.4416 111.798 55.4599 111.605V110.61L86.6653 63.2824L55.4649 49.478Z" fill="#6D8891"/>
<path d="M64.482 35.3904L59.0995 32.2912L59.0498 32.2614C56.662 30.9132 53.3887 31.1172 49.7623 33.2065C42.4646 37.42 36.5498 47.6676 36.5498 56.0895C36.5498 60.293 38.0422 63.2529 40.4051 64.6358L45.3001 67.4266L46.4691 65.4716C47.8008 65.1687 49.0789 64.6655 50.2597 63.9792C57.5574 59.7657 63.4722 49.5181 63.4722 41.0962C63.4716 39.9594 63.333 38.8268 63.0593 37.7234L64.482 35.3904Z" fill="#B5C5CD"/>
<path d="M54.8659 36.1465C47.5632 40.36 41.6484 50.6076 41.6484 59.0296C41.6484 67.4515 47.5632 70.874 54.8609 66.6605C62.1586 62.4471 68.0783 52.1945 68.0783 43.7775C68.0783 35.3606 62.1635 31.9281 54.8659 36.1465Z" fill="#7999A8"/>
<path d="M54.677 41.9189C55.5552 41.4136 56.3134 41.1788 56.9458 41.2086C57.5408 41.2251 58.1061 41.4703 58.5223 41.8922C58.9799 42.399 59.3006 43.0126 59.4544 43.6756C59.67 44.5177 59.7906 45.381 59.8141 46.2496C59.8381 47.0085 59.8501 47.808 59.8501 48.6482C59.8501 49.4894 59.8501 50.2859 59.8141 51.026C59.7768 52.0249 59.6565 53.019 59.4544 53.9983C59.2537 54.9824 58.941 55.9406 58.5223 56.8547C58.1103 57.7496 57.5801 58.5861 56.9458 59.3425C56.3092 60.1017 55.5408 60.7419 54.677 61.2329C53.7958 61.7382 53.0405 61.973 52.4081 61.9433C51.813 61.9273 51.2476 61.6821 50.8317 61.2596C50.373 60.7535 50.0521 60.1397 49.8995 59.4763C49.684 58.6341 49.5634 57.7708 49.5399 56.9023C49.5159 56.181 49.5039 55.3993 49.5039 54.5571C49.5039 53.716 49.5039 52.9015 49.5399 52.1198C49.5764 51.116 49.6967 50.1168 49.8995 49.1327C50.0993 48.1475 50.4121 47.1881 50.8317 46.2733C51.2433 45.3792 51.7735 44.5435 52.4081 43.7885C53.0451 43.0353 53.8137 42.402 54.677 41.9189ZM56.5592 52.7678C56.6072 51.2202 56.6072 49.7153 56.5592 48.2529C56.5414 47.864 56.4974 47.4767 56.4273 47.0937C56.3868 46.8079 56.2845 46.5342 56.1276 46.2912C56.0648 46.1971 55.9816 46.1182 55.8842 46.0601C55.7867 46.002 55.6773 45.9662 55.5641 45.9553C55.2511 45.9494 54.944 46.0408 54.686 46.2169C54.3445 46.4026 54.0423 46.6519 53.7958 46.951C53.5609 47.249 53.3711 47.5795 53.2324 47.9319C53.0881 48.3067 52.9826 48.6951 52.9177 49.0911C52.8467 49.5237 52.8057 49.9607 52.7948 50.3989C52.7348 51.9187 52.7348 53.4227 52.7948 54.9108C52.8008 55.3036 52.8389 55.6952 52.9087 56.0819C52.9513 56.3691 53.06 56.6427 53.2264 56.8814C53.2923 56.9733 53.3772 57.0502 53.4754 57.107C53.5735 57.1639 53.6828 57.1995 53.7958 57.2114C54.1099 57.2179 54.4182 57.1264 54.677 56.9498C55.0154 56.7595 55.3136 56.5062 55.5552 56.2038C55.793 55.905 55.9858 55.5736 56.1276 55.2199C56.2753 54.8542 56.3819 54.4734 56.4453 54.0845C56.511 53.6484 56.549 53.2086 56.5592 52.7678Z" fill="#FAFAFA"/>
<path d="M172.639 100.657V99.7661H172.858C173.188 99.1612 173.69 98.6678 174.3 98.3483C175.545 97.7181 176.92 97.3896 178.315 97.3896C179.71 97.3896 181.085 97.7181 182.329 98.3483C182.94 98.6678 183.442 99.1612 183.772 99.7661H183.991V100.627C183.991 101.477 183.453 102.333 182.329 102.985C181.088 103.61 179.717 103.935 178.327 103.935C176.936 103.934 175.566 103.607 174.325 102.98C173.186 102.343 172.634 101.487 172.639 100.657Z" fill="#6D8891"/>
<path d="M182.329 97.4482C181.085 96.8156 179.709 96.4858 178.314 96.4858C176.919 96.4858 175.543 96.8156 174.3 97.4482C172.081 98.7266 172.081 100.801 174.3 102.084C175.544 102.715 176.919 103.043 178.314 103.043C179.709 103.043 181.084 102.715 182.329 102.084C184.547 100.801 184.547 98.7266 182.329 97.4482Z" fill="#7999A8"/>
<path d="M179.796 65.6709V99.3885C179.784 99.5171 179.738 99.6401 179.663 99.745C179.588 99.85 179.486 99.933 179.368 99.9855C179.048 100.15 178.693 100.235 178.334 100.235C177.974 100.235 177.619 100.15 177.299 99.9855C177.181 99.933 177.079 99.85 177.004 99.745C176.929 99.6401 176.883 99.5171 176.871 99.3885V65.6709H179.796Z" fill="#B5C5CD"/>
<path d="M176.852 69.3418V70.3964L179.777 72.0828V71.0331L176.852 69.3418Z" fill="#6D8891"/>
<path d="M195.511 56.7415L195.263 57.2389L192.586 62.6015L191.318 65.1734L187.02 73.7943L186.547 74.7444H186.463C186.29 74.7502 186.118 74.7108 185.965 74.63L166.808 63.5566C166.665 63.4663 166.546 63.3435 166.459 63.1983C166.373 63.0531 166.322 62.8895 166.311 62.7209V55.3188C166.311 51.6276 168.743 47.2301 171.743 45.499C173.165 44.6781 174.454 44.6135 175.424 45.1557L195.511 56.7415Z" fill="#7999A8"/>
<path d="M191.895 57.1348C190.681 57.5825 186.278 61.2189 186.278 66.9496C186.278 71.765 186.278 74.2622 186.278 74.7149H186.457H186.542L187.015 73.7647L191.318 65.1737L192.586 62.6267L192.88 62.0447L191.895 57.1348Z" fill="#B5C5CD"/>
<path d="M197.088 68.6554C197.04 68.7366 196.971 68.8035 196.889 68.8494L196.839 68.8793L186.944 74.6249C186.821 74.6902 186.686 74.7276 186.546 74.7343H186.462V66.9491C186.487 65.5406 186.779 64.1496 187.323 62.8501L187.82 63.1287L191.327 65.1533L196.769 68.3022L197.048 68.4614C197.078 68.4826 197.099 68.5144 197.106 68.5505C197.114 68.5866 197.107 68.6241 197.088 68.6554Z" fill="#B5C5CD"/>
<path d="M195.511 56.7414C194.551 56.2439 193.282 56.3285 191.895 57.1344C190.191 58.2048 188.815 59.7226 187.915 61.5219C187.687 61.9532 187.482 62.3966 187.303 62.8502C186.759 64.1496 186.467 65.5407 186.442 66.9492V74.7294H186.527C186.666 74.7227 186.802 74.6853 186.925 74.62L196.814 68.9042L196.864 68.8744C196.942 68.8229 197.01 68.7571 197.063 68.6803C197.203 68.5059 197.283 68.2916 197.292 68.0685V60.6962C197.317 58.7063 196.62 57.3284 195.511 56.7414ZM196.615 68.3819L187.164 73.8539C187.084 73.8987 187.019 73.8539 187.019 73.7693V66.9492C187.045 65.6378 187.313 64.3424 187.81 63.1287C187.816 63.1023 187.826 63.0771 187.84 63.0541C188.031 62.5737 188.25 62.1053 188.497 61.6513C189.335 59.9987 190.605 58.6044 192.173 57.6169C192.78 57.2315 193.479 57.0135 194.198 56.9851C194.569 56.981 194.935 57.07 195.262 57.2438C196.207 57.7413 196.755 58.97 196.755 60.6763V68.1381C196.752 68.1868 196.738 68.2342 196.714 68.2765C196.69 68.3188 196.656 68.3549 196.615 68.3819Z" fill="#7999A8"/>
<path d="M196.76 60.6962V68.3222L187.806 63.1487C187.811 63.1223 187.821 63.097 187.836 63.0741C188.796 60.6763 190.412 58.6417 192.168 57.6369C192.776 57.2514 193.474 57.0335 194.193 57.0051C195.78 56.9852 196.76 58.4029 196.76 60.6962Z" fill="#6D8891"/>
<path d="M180.374 64.4771L181.165 64.0194C181.334 63.9431 181.52 63.9126 181.704 63.931C181.888 63.9493 182.064 64.0158 182.215 64.1239C182.649 64.4075 183.011 64.7895 183.27 65.239C183.529 65.6884 183.679 66.1925 183.707 66.7106C183.725 66.8926 183.695 67.0761 183.62 67.2429C183.545 67.4096 183.427 67.5537 183.279 67.6608L182.548 68.0836L182.414 67.8598C182.264 67.8268 182.119 67.7715 181.986 67.6956C181.551 67.4119 181.19 67.0299 180.931 66.5805C180.671 66.1311 180.522 65.6269 180.493 65.1088C180.495 64.9799 180.51 64.8515 180.538 64.7258L180.374 64.4771Z" fill="#E0E0E0"/>
<path d="M181.463 64.5614C181.897 64.8443 182.258 65.2255 182.518 65.674C182.777 66.1226 182.927 66.6259 182.955 67.1432C182.955 68.0983 182.284 68.4814 181.463 68.0088C181.029 67.7248 180.668 67.3428 180.408 66.8934C180.149 66.444 179.999 65.94 179.971 65.422C179.966 64.4719 180.637 64.0839 181.463 64.5614Z" fill="#FAFAFA"/>
<path d="M182.073 66.3882C182.016 66.4876 181.921 66.5601 181.81 66.5898C181.699 66.6195 181.581 66.604 181.482 66.5466L170.88 60.4254C170.78 60.368 170.708 60.2735 170.678 60.1626C170.648 60.0517 170.664 59.9336 170.721 59.8342C170.779 59.7348 170.873 59.6622 170.984 59.6325C171.095 59.6028 171.213 59.6184 171.312 59.6758L181.915 65.797C182.014 65.8544 182.087 65.9489 182.116 66.0598C182.146 66.1706 182.131 66.2888 182.073 66.3882Z" fill="#EBEBEB"/>
<path d="M174.334 62.4281L174.28 67.4355L172.723 64.9375L171.133 65.5751L171.182 60.565L174.334 62.4281Z" fill="#C3DBF2"/>
<path d="M201.507 63.8923L199.517 66.1656L199.477 66.2154L197.617 68.3694C197.506 68.491 197.379 68.5965 197.239 68.6828L186.792 74.702C186.757 74.7226 186.718 74.7361 186.678 74.7418H186.673L190.434 70.399L190.653 70.1503C193.426 67.1241 196.607 64.4989 200.104 62.3501C201.472 61.5592 202.348 61.2756 202.681 61.4398C203.089 61.6637 202.711 62.5044 201.507 63.8923Z" fill="#B5C5CD"/>
</svg>
