<svg width="20" height="16" viewBox="0 0 20 16" fill="none" xmlns="http://www.w3.org/2000/svg">
<path d="M7.91659 8.74093L15.6645 3.35076L16.8439 4.64667L10.7499 11.8541L7.91659 8.74093ZM5.58648 9.15211L10.1218 14.1354C10.2157 14.2284 10.3283 14.3004 10.452 14.3467C10.5758 14.393 10.708 14.4125 10.8399 14.4039C10.9718 14.3953 11.1003 14.3588 11.2171 14.2969C11.3338 14.2349 11.4361 14.1489 11.5171 14.0445L18.9685 5.23151C19.1169 5.0684 19.201 4.85684 19.2049 4.63632C19.2088 4.41581 19.1324 4.2014 18.9898 4.03311L16.4768 1.27195C16.3227 1.11422 16.1164 1.01798 15.8965 1.00118C15.6766 0.984373 15.4581 1.04816 15.2817 1.18063L5.80807 7.77146C5.69651 7.84232 5.60125 7.93605 5.5286 8.04646C5.45595 8.15686 5.40755 8.28143 5.38661 8.41192C5.36567 8.54242 5.37265 8.67587 5.40711 8.80347C5.44156 8.93106 5.5027 9.04989 5.58648 9.15211ZM0.792969 15.0278L6.41033 16.0001L7.88946 14.6539L4.86057 11.3259L0.792969 15.0278Z" fill="#5F6B73"/>
</svg>
