<?xml version="1.0" standalone="no"?>
<!DOCTYPE svg PUBLIC "-//W3C//DTD SVG 20010904//EN"
 "http://www.w3.org/TR/2001/REC-SVG-20010904/DTD/svg10.dtd">
<svg version="1.0" xmlns="http://www.w3.org/2000/svg"
 width="840.000000pt" height="859.000000pt" viewBox="0 0 840.000000 859.000000"
 preserveAspectRatio="xMidYMid meet">

<g transform="translate(0.000000,859.000000) scale(0.100000,-0.100000)"
fill="#000000" stroke="none">
<path d="M3955 8464 c-802 -66 -1443 -282 -2065 -697 -954 -637 -1609 -1644
-1799 -2768 -43 -257 -56 -414 -56 -704 0 -290 13 -447 56 -704 207 -1226 960
-2299 2053 -2925 484 -278 1041 -458 1619 -523 191 -21 653 -24 842 -5 1363
140 2549 910 3229 2096 278 483 458 1040 523 1618 24 212 24 674 0 886 -108
958 -522 1824 -1192 2497 -682 685 -1551 1104 -2510 1211 -133 15 -594 26
-700 18z m685 -204 c649 -77 1248 -296 1772 -647 1263 -846 1939 -2325 1747
-3823 -146 -1142 -784 -2168 -1747 -2813 -528 -353 -1129 -572 -1787 -649
-148 -17 -694 -17 -840 0 -939 112 -1741 497 -2395 1152 -519 518 -869 1132
-1048 1835 -77 299 -110 546 -119 875 -12 483 53 921 206 1378 267 795 790
1495 1486 1988 223 159 551 338 790 433 354 141 739 238 1080 271 61 5 128 12
150 14 79 8 612 -3 705 -14z"/>
<path d="M3223 6230 c-12 -5 -30 -21 -40 -37 -17 -26 -18 -111 -21 -1843 -2
-998 0 -1843 3 -1878 9 -81 33 -112 95 -119 58 -7 112 8 177 49 29 18 218 154
420 303 203 148 485 354 628 458 143 105 283 207 310 227 28 21 219 160 425
311 561 408 563 410 587 438 36 42 56 116 50 182 -8 88 -40 134 -144 210 -48
34 -128 93 -178 130 -49 36 -484 353 -965 704 -481 350 -929 678 -995 728 -66
49 -142 101 -170 115 -54 28 -144 39 -182 22z"/>
</g>
</svg>
