<svg width="18" height="15" viewBox="0 0 18 15" fill="none" xmlns="http://www.w3.org/2000/svg">
<path d="M0 7.70281H18V9.20281H13.6342C13.8711 9.70003 13.9906 10.245 13.9836 10.7957C13.9977 11.3182 13.8855 11.8364 13.6567 12.3063C13.428 12.7763 13.0893 13.1842 12.6694 13.4954C11.6579 14.2071 10.4378 14.5606 9.20251 14.4999C8.29996 14.506 7.4062 14.3223 6.57916 13.9609C5.82387 13.6475 5.16917 13.1328 4.68652 12.4727C4.24212 11.8425 4.00762 11.0883 4.01636 10.3172V10.2039H4.30359V10.2028H4.64508V10.2039H6.02V10.3172C6.00433 10.6686 6.07382 11.0186 6.22253 11.3373C6.37125 11.6561 6.59479 11.9341 6.87413 12.1479C7.55154 12.6302 8.372 12.8696 9.20249 12.8272C9.93562 12.8751 10.6645 12.6834 11.2792 12.281C11.507 12.1125 11.6901 11.8907 11.8124 11.635C11.9346 11.3793 11.9923 11.0976 11.9804 10.8144C11.9964 10.5408 11.9459 10.2675 11.8332 10.0177C11.7205 9.76793 11.5491 9.54913 11.3335 9.38002C11.2451 9.31599 11.1533 9.25681 11.0585 9.20277H0V7.70281ZM13.3447 2.55968C12.9232 1.90469 12.3271 1.38046 11.6236 1.04607C10.8394 0.672475 9.97928 0.485528 9.11072 0.499866C7.8996 0.447888 6.70883 0.823908 5.74719 1.562C5.33435 1.88084 5.00134 2.29135 4.77448 2.76107C4.54762 3.23078 4.43313 3.74683 4.44006 4.26842C4.43656 4.76271 4.54659 5.25121 4.76166 5.69628H7.35834C7.27496 5.64263 7.17297 5.59051 7.10565 5.53564C6.90219 5.38555 6.73702 5.18956 6.62358 4.9636C6.51014 4.73765 6.45164 4.48811 6.45282 4.23528C6.43773 3.94667 6.49242 3.65867 6.61226 3.39568C6.73209 3.13269 6.91354 2.90246 7.14124 2.72448C7.71733 2.32494 8.41088 2.1304 9.11072 2.17205C9.87165 2.12367 10.6231 2.36226 11.2167 2.84075C11.465 3.07454 11.6594 3.35955 11.7865 3.676C11.9136 3.99245 11.9703 4.33276 11.9527 4.67333V4.78674H13.9559V4.67333C13.9592 3.92472 13.7471 3.19097 13.3447 2.55968Z" fill="#5F6B73"/>
</svg>
