<svg width="284" height="32" viewBox="0 0 284 32" fill="none" xmlns="http://www.w3.org/2000/svg">
<path d="M12.9113 30.004C16.3673 30.004 19.2113 28.672 21.4073 26.116L18.5993 22.768C17.1953 24.316 15.3953 25.396 13.1273 25.396C8.87932 25.396 6.17932 21.94 6.17932 16.108C6.17932 10.42 9.20332 6.964 13.1993 6.964C15.2513 6.964 16.7633 7.864 18.1313 9.196L20.9393 5.776C19.2113 3.976 16.5113 2.392 13.1273 2.392C6.35932 2.392 0.743316 7.504 0.743316 16.288C0.743316 25.18 6.17932 30.004 12.9113 30.004ZM32.9723 30.004C38.0123 30.004 42.6203 26.116 42.6203 19.456C42.6203 12.76 38.0123 8.872 32.9723 8.872C27.8963 8.872 23.2883 12.76 23.2883 19.456C23.2883 26.116 27.8963 30.004 32.9723 30.004ZM32.9723 25.72C30.2003 25.72 28.6883 23.236 28.6883 19.456C28.6883 15.64 30.2003 13.192 32.9723 13.192C35.7083 13.192 37.2203 15.64 37.2203 19.456C37.2203 23.236 35.7083 25.72 32.9723 25.72ZM45.142 21.112H55.006V17.332H45.142V21.112ZM59.2942 29.5H64.6222V19.456H68.5462C74.1262 19.456 78.5542 16.864 78.5542 10.924C78.5542 4.804 74.1262 2.86 68.5462 2.86H59.2942V29.5ZM64.6222 15.244V7.108H68.0422C71.4982 7.108 73.3702 8.08 73.3702 10.924C73.3702 13.768 71.4982 15.244 68.0422 15.244H64.6222ZM73.7662 29.5H79.7062L71.2822 14.74L67.5742 18.088L73.7662 29.5ZM90.8676 30.004C93.3516 30.004 95.8716 29.176 97.8516 27.808L96.0876 24.532C94.6116 25.432 93.1716 25.936 91.5516 25.936C88.5636 25.936 86.4036 24.244 85.9356 20.932H98.3916C98.4996 20.428 98.6076 19.492 98.6076 18.484C98.6076 12.904 95.7636 8.872 90.1836 8.872C85.4316 8.872 80.8236 12.904 80.8236 19.456C80.8236 26.116 85.2156 30.004 90.8676 30.004ZM85.8636 17.404C86.2956 14.452 88.1676 12.94 90.2916 12.94C92.8836 12.94 94.1076 14.668 94.1076 17.404H85.8636ZM102.714 29.5H108.042V18.7H117.51V14.272H108.042V7.288H119.13V2.86H102.714V29.5ZM122.62 29.5H127.912V9.376H122.62V29.5ZM125.248 6.1C127.084 6.1 128.344 4.948 128.344 3.184C128.344 1.456 127.084 0.339998 125.248 0.339998C123.412 0.339998 122.188 1.456 122.188 3.184C122.188 4.948 123.412 6.1 125.248 6.1ZM140.178 30.004C141.978 30.004 143.382 29.608 144.462 29.248L143.598 25.396C143.022 25.612 142.266 25.864 141.582 25.864C139.818 25.864 138.846 24.784 138.846 22.48V13.516H143.85V9.376H138.846V3.904H134.454L133.878 9.376L130.746 9.592V13.516H133.554V22.48C133.554 26.98 135.39 30.004 140.178 30.004Z" fill="#225999"/>
<path d="M155.51 1.024L152.918 4.984C155.294 6.316 159.038 8.728 161.054 10.132L163.718 6.172C161.846 4.84 157.886 2.32 155.51 1.024ZM148.85 26.584L151.55 31.3C154.718 30.724 159.902 28.924 163.574 26.872C169.442 23.452 174.554 18.916 177.866 13.912L175.094 9.016C172.25 14.164 167.21 19.096 161.09 22.516C157.166 24.676 152.882 25.9 148.85 26.584ZM149.966 9.232L147.374 13.192C149.786 14.488 153.53 16.9 155.546 18.34L158.21 14.308C156.338 12.976 152.378 10.528 149.966 9.232ZM209.69 5.128L206.774 2.932C206.018 3.184 204.614 3.364 203.03 3.364C201.446 3.364 192.23 3.364 190.322 3.364C189.278 3.364 187.046 3.256 186.074 3.112V8.26C186.866 8.188 188.846 8.008 190.322 8.008C191.87 8.008 201.05 8.008 202.562 8.008C201.734 10.564 199.538 14.128 197.162 16.828C193.778 20.572 188.234 24.964 182.402 27.124L186.146 31.012C191.726 28.384 197.162 23.92 201.194 19.276C204.29 15.676 206.954 10.78 208.43 7.36C208.754 6.604 209.402 5.524 209.69 5.128ZM201.662 16.288L198.278 19.636C202.13 23.128 206.054 27.412 208.718 31.12L212.822 27.556C210.482 24.676 205.37 19.312 201.662 16.288ZM222.218 1.924V6.568C223.298 6.496 224.846 6.424 226.07 6.424C228.338 6.424 238.418 6.424 240.542 6.424C241.766 6.424 243.17 6.496 244.394 6.568V1.924C243.17 2.068 241.73 2.176 240.542 2.176C238.418 2.176 228.338 2.176 226.07 2.176C224.846 2.176 223.37 2.068 222.218 1.924ZM218.006 11.104V15.82C219.014 15.748 220.418 15.712 221.462 15.712C223.73 15.712 242.918 15.712 245.042 15.712C246.05 15.712 247.418 15.748 248.354 15.784V11.104C247.382 11.284 245.798 11.32 245.042 11.32C242.918 11.32 223.73 11.32 221.462 11.32C220.346 11.32 219.086 11.248 218.006 11.104ZM236.438 13.624L231.434 13.66C231.434 17.512 230.93 20.896 229.13 23.632C227.726 25.756 225.17 27.808 222.614 28.816L226.862 31.876C230.03 30.22 232.838 27.448 234.062 24.928C235.61 21.94 236.438 18.34 236.438 13.624ZM269.116 2.356L263.392 1.204C263.248 2.392 263.068 3.544 262.564 5.344C261.376 9.52 257.632 21.328 255.688 25.936L260.98 25.756C262.528 22.012 266.272 10.42 267.604 6.388C268.144 4.768 268.648 3.436 269.116 2.356ZM275.56 13.984L271.096 15.856C273.652 19.312 277 26.764 278.62 31.12L283.48 28.96C281.824 24.964 278.152 17.872 275.56 13.984ZM255.328 24.316C254.176 24.352 252.592 24.388 251.368 24.352L252.232 29.644C253.348 29.5 254.716 29.32 255.616 29.212C260.476 28.708 272.86 27.412 278.188 26.728L277.144 22.12C272.104 22.804 260.332 24.136 255.328 24.316Z" fill="#2D3033"/>
</svg>
