<svg width="71" height="81" viewBox="0 0 71 81" fill="none" xmlns="http://www.w3.org/2000/svg">
<path d="M49.0328 47.8508C46.9137 47.8508 45.1958 46.1387 45.1958 44.0267V21.7591C45.1958 14.2541 39.0693 8.1481 31.5388 8.1481C24.0084 8.1481 17.8817 14.2539 17.8817 21.7591V34.7104C17.8817 36.8224 16.1639 38.5345 14.0448 38.5345C11.9256 38.5345 10.2078 36.8224 10.2078 34.7104V21.7591C10.2078 10.0367 19.7767 0.5 31.5388 0.5C43.3008 0.5 52.8698 10.0367 52.8698 21.7591V44.0267C52.8698 46.1387 51.1519 47.8508 49.0328 47.8508Z" fill="#E3E3E3"/>
<path d="M54.8845 71.0074H8.19255C3.83326 71.0074 0.299316 67.4854 0.299316 63.1408V36.237C0.299316 31.8924 3.83326 28.3704 8.19255 28.3704H54.8845C59.2438 28.3704 62.7777 31.8924 62.7777 36.237V63.1406C62.7777 67.4854 59.2438 71.0074 54.8845 71.0074Z" fill="#FFAF3F"/>
<path d="M7.14967 64.6681H6.75423C5.5087 64.6681 4.49902 63.6618 4.49902 62.4205V36.9582C4.49902 35.7169 5.5087 34.7106 6.75423 34.7106H7.14967C8.39521 34.7106 9.40488 35.7169 9.40488 36.9582V62.4205C9.40488 63.6618 8.39521 64.6681 7.14967 64.6681Z" fill="#FFEAB6"/>
<path d="M49.2127 45.4744C49.8341 45.4744 50.43 45.7205 50.8694 46.1584C51.3088 46.5963 51.5556 47.1902 51.5556 47.8095V57.1496C51.5556 57.7689 51.3088 58.3628 50.8694 58.8008C50.43 59.2387 49.8341 59.4847 49.2127 59.4847C48.5913 59.4847 47.9954 59.2387 47.556 58.8008C47.1166 58.3628 46.8697 57.7689 46.8697 57.1496V47.8095C46.8697 47.1902 47.1166 46.5963 47.556 46.1584C47.9954 45.7205 48.5913 45.4744 49.2127 45.4744Z" fill="#FF8C67"/>
<path d="M51.5556 66.4898C51.5556 67.1091 51.3088 67.703 50.8694 68.1409C50.43 68.5788 49.8341 68.8248 49.2127 68.8248C48.5913 68.8248 47.9954 68.5788 47.556 68.1409C47.1166 67.703 46.8697 67.1091 46.8697 66.4898C46.8697 65.8705 47.1166 65.2766 47.556 64.8387C47.9954 64.4008 48.5913 64.1547 49.2127 64.1547C49.8341 64.1547 50.43 64.4008 50.8694 64.8387C51.3088 65.2766 51.5556 65.8705 51.5556 66.4898Z" fill="#FF8C67"/>
<path fill-rule="evenodd" clip-rule="evenodd" d="M49.2127 33.6405L70.2991 41.5212V52.4796C70.2991 62.0952 66.5036 69.0887 62.0168 73.6677C60.0275 75.7137 57.7216 77.4284 55.1872 78.7464C53.0481 79.8392 50.909 80.5 49.2127 80.5C47.5164 80.5 45.3773 79.8392 43.2382 78.7487C40.7036 77.4299 38.3978 75.7145 36.4085 73.6677C31.9194 69.0887 28.1262 62.0952 28.1262 52.4796V41.5212L49.2127 33.6405ZM50.8694 46.1584C50.43 45.7205 49.8341 45.4744 49.2127 45.4744C48.5913 45.4744 47.9954 45.7205 47.556 46.1584C47.1166 46.5963 46.8697 47.1902 46.8697 47.8095V57.1496C46.8697 57.7689 47.1166 58.3628 47.556 58.8008C47.9954 59.2387 48.5913 59.4847 49.2127 59.4847C49.8341 59.4847 50.43 59.2387 50.8694 58.8008C51.3088 58.3628 51.5556 57.7689 51.5556 57.1496V47.8095C51.5556 47.1902 51.3088 46.5963 50.8694 46.1584ZM50.8694 68.1409C51.3088 67.703 51.5556 67.1091 51.5556 66.4898C51.5556 65.8705 51.3088 65.2766 50.8694 64.8387C50.43 64.4008 49.8341 64.1547 49.2127 64.1547C48.5913 64.1547 47.9954 64.4008 47.556 64.8387C47.1166 65.2766 46.8697 65.8705 46.8697 66.4898C46.8697 67.1091 47.1166 67.703 47.556 68.1409C47.9954 68.5788 48.5913 68.8248 49.2127 68.8248C49.8341 68.8248 50.43 68.5788 50.8694 68.1409Z" fill="#FF8C67"/>
<path d="M49.2127 45.4744C49.8341 45.4744 50.43 45.7205 50.8694 46.1584C51.3088 46.5963 51.5556 47.1902 51.5556 47.8095V57.1496C51.5556 57.7689 51.3088 58.3628 50.8694 58.8008C50.43 59.2387 49.8341 59.4847 49.2127 59.4847C48.5913 59.4847 47.9954 59.2387 47.556 58.8008C47.1166 58.3628 46.8697 57.7689 46.8697 57.1496V47.8095C46.8697 47.1902 47.1166 46.5963 47.556 46.1584C47.9954 45.7205 48.5913 45.4744 49.2127 45.4744Z" fill="white"/>
<path d="M51.5556 66.4898C51.5556 67.1091 51.3088 67.703 50.8694 68.1409C50.43 68.5788 49.8341 68.8248 49.2127 68.8248C48.5913 68.8248 47.9954 68.5788 47.556 68.1409C47.1166 67.703 46.8697 67.1091 46.8697 66.4898C46.8697 65.8705 47.1166 65.2766 47.556 64.8387C47.9954 64.4008 48.5913 64.1547 49.2127 64.1547C49.8341 64.1547 50.43 64.4008 50.8694 64.8387C51.3088 65.2766 51.5556 65.8705 51.5556 66.4898Z" fill="white"/>
</svg>
